{"asset":{"version":"2.0","generator":"Blockbench 5.2.1 glTF exporter"},"scenes":[{"nodes":[1],"name":"blockbench_export"}],"scene":0,"nodes":[{"name":"bullet"},{"name":"bullet","mesh":0,"children":[0],"skin":0}],"bufferViews":[{"buffer":0,"byteOffset":0,"byteLength":2592,"target":34962,"byteStride":12},{"buffer":0,"byteOffset":2592,"byteLength":2592,"target":34962,"byteStride":12},{"buffer":0,"byteOffset":5184,"byteLength":1728,"target":34962,"byteStride":8},{"buffer":0,"byteOffset":6912,"byteLength":1728,"target":34962,"byteStride":8},{"buffer":0,"byteOffset":8640,"byteLength":3456,"target":34962,"byteStride":16},{"buffer":0,"byteOffset":12096,"byteLength":576,"target":34963},{"buffer":0,"byteOffset":12672,"byteLength":64}],"buffers":[{"byteLength":12736,"uri":"data:application/octet-stream;base64,"}],"accessors":[{"bufferView":0,"componentType":5126,"count":216,"max":[0.01875000074505806,0.01875000074505806,9.87522064122004e-10],"min":[-0.01875000074505806,-0.01875000074505806,-0.09375],"type":"VEC3"},{"bufferView":1,"componentType":5126,"count":216,"max":[1,1,1],"min":[-1,-1,-0.9130857586860657],"type":"VEC3"},{"bufferView":2,"componentType":5126,"count":216,"max":[0.984375,0.984375],"min":[0.020740997046232224,0.05223125219345093],"type":"VEC2"},{"bufferView":3,"componentType":5123,"count":216,"max":[0,0,0,0],"min":[0,0,0,0],"type":"VEC4"},{"bufferView":4,"componentType":5126,"count":216,"max":[0,1,0,0],"min":[0,1,0,0],"type":"VEC4"},{"bufferView":5,"componentType":5123,"count":288,"max":[215],"min":[0],"type":"SCALAR"},{"bufferView":6,"componentType":5126,"count":1,"max":[1,0,0,0,0,1,0,0,0,0,1,0,0,0,0,1],"min":[1,0,0,0,0,1,0,0,0,0,1,0,0,0,0,1],"type":"MAT4"}],"materials":[{"pbrMetallicRoughness":{"metallicFactor":0,"roughnessFactor":1,"baseColorTexture":{"index":0}},"alphaMode":"MASK","alphaCutoff":0.05,"doubleSided":true}],"textures":[{"sampler":0,"source":0,"name":"texture"}],"samplers":[{"magFilter":9728,"minFilter":9728,"wrapS":10497,"wrapT":10497}],"images":[{"uri":"turret_bullet.png","extras":{"resourceLocation":"trd:textures/entity/turret_bullet.png"}}],"meshes":[{"primitives":[{"mode":4,"attributes":{"POSITION":0,"NORMAL":1,"TEXCOORD_0":2,"JOINTS_0":3,"WEIGHTS_0":4},"indices":5,"material":0}]}],"skins":[{"inverseBindMatrices":6,"joints":[0],"skeleton":0}]}