# Made in Blockbench 5.1.6
mtllib barbed_wire.mtl

o mesh
v 0.396875 0.9173780521477567 0.10196513690392173
v 0.396875 -0.006501480363529787 0.48464856926901145
v 0.396875 0.8815014803635296 0.015351430730988602
v 0.396875 -0.04237805214775695 0.3980348630960784
v 0.459375 0.9173780521477567 0.10196513690392173
v 0.459375 -0.006501480363529787 0.48464856926901145
v 0.459375 0.8815014803635296 0.015351430730988602
v 0.459375 -0.04237805214775695 0.3980348630960784
v 0.396875 0.917378052147757 -0.10196513690392162
v 0.396875 -0.006501480363529717 -0.48464856926901156
v 0.396875 0.8815014803635298 -0.015351430730988602
v 0.396875 -0.04237805214775695 -0.3980348630960785
v 0.459375 0.917378052147757 -0.10196513690392162
v 0.459375 -0.006501480363529717 -0.48464856926901156
v 0.459375 0.8815014803635298 -0.015351430730988602
v 0.459375 -0.04237805214775695 -0.3980348630960785
v 0.4375 0.6682743750000001 0.40625
v -0.4375 0.6682743750000002 0.40625000000000006
v 0.4375000000000001 0.90625 0.16827437499999987
v -0.4374999999999999 0.9062500000000003 0.16827437499999992
v 0.4375000000000001 0.90625 -0.1682743750000001
v -0.4374999999999999 0.9062500000000002 -0.16827437499999998
v 0.4375 0.6682743750000002 -0.4062500000000001
v -0.4375 0.6682743750000003 -0.40625
v 0.4375 0.331725625 -0.4062500000000001
v -0.4375 0.33172562500000013 -0.4062500000000001
v 0.4374999999999999 0.09374999999999994 -0.1682743750000001
v -0.4375000000000001 0.09375000000000014 -0.1682743750000001
v 0.4374999999999999 0.09374999999999992 0.16827437499999998
v -0.4375000000000001 0.09375000000000014 0.16827437499999995
v 0.4375 0.33172562499999997 0.40625
v -0.4375 0.33172562500000013 0.40624999999999994
v 0.4375 0.5 -5.551115123125783e-17
v -0.4375 0.5000000000000001 0
v -0.375 0.5 0
v -0.375 0.5 0
v -0.3749999999999999 0.292893125 0.5
v -0.3749999999999999 0.292893125 0.5
v -0.3749999999999999 -2.0816681711721685e-17 0.20710687499999997
v -0.3749999999999999 -2.0816681711721685e-17 0.20710687499999997
v -0.3749999999999999 -6.938893903907228e-18 -0.20710687500000002
v -0.3749999999999999 -6.938893903907228e-18 -0.20710687500000002
v -0.3749999999999999 0.292893125 -0.5000000000000002
v -0.3749999999999999 0.292893125 -0.5000000000000002
v -0.3750000000000001 0.707106875 -0.5
v -0.3750000000000001 0.707106875 -0.5
v -0.3750000000000001 1 -0.20710687500000002
v -0.3750000000000001 1 -0.20710687500000002
v -0.3750000000000001 1.0000000000000002 0.20710687500000002
v -0.3750000000000001 1.0000000000000002 0.20710687500000002
v -0.3750000000000001 0.7071068749999999 0.5
v -0.3750000000000001 0.7071068749999999 0.5
v -0.125 0.5 0
v -0.125 0.5 0
v -0.125 0.292893125 0.5
v -0.125 0.292893125 0.5
v -0.12499999999999989 -2.0816681711721685e-17 0.20710687499999997
v -0.12499999999999989 -2.0816681711721685e-17 0.20710687499999997
v -0.12499999999999989 -6.938893903907228e-18 -0.20710687500000002
v -0.12499999999999989 -6.938893903907228e-18 -0.20710687500000002
v -0.125 0.292893125 -0.5000000000000002
v -0.125 0.292893125 -0.5000000000000002
v -0.1250000000000001 0.707106875 -0.5
v -0.1250000000000001 0.707106875 -0.5
v -0.1250000000000001 1 -0.20710687500000002
v -0.1250000000000001 1 -0.20710687500000002
v -0.1250000000000001 1.0000000000000002 0.20710687500000002
v -0.1250000000000001 1.0000000000000002 0.20710687500000002
v -0.1250000000000001 0.7071068749999999 0.5
v -0.1250000000000001 0.7071068749999999 0.5
v 0.125 0.5 0
v 0.125 0.5 0
v 0.12500000000000006 0.292893125 0.5
v 0.12500000000000006 0.292893125 0.5
v 0.1250000000000001 -2.0816681711721685e-17 0.20710687499999997
v 0.1250000000000001 -2.0816681711721685e-17 0.20710687499999997
v 0.1250000000000001 -6.938893903907228e-18 -0.20710687500000002
v 0.1250000000000001 -6.938893903907228e-18 -0.20710687500000002
v 0.12500000000000006 0.292893125 -0.5000000000000002
v 0.12500000000000006 0.292893125 -0.5000000000000002
v 0.12499999999999994 0.707106875 -0.5
v 0.12499999999999994 0.707106875 -0.5
v 0.12499999999999989 1 -0.20710687500000002
v 0.12499999999999989 1 -0.20710687500000002
v 0.12499999999999989 1.0000000000000002 0.20710687500000002
v 0.12499999999999989 1.0000000000000002 0.20710687500000002
v 0.12499999999999994 0.7071068749999999 0.5
v 0.12499999999999994 0.7071068749999999 0.5
v 0.375 0.5 0
v 0.375 0.5 0
v 0.37500000000000006 0.292893125 0.5
v 0.37500000000000006 0.292893125 0.5
v 0.3750000000000001 -2.0816681711721685e-17 0.20710687499999997
v 0.3750000000000001 -2.0816681711721685e-17 0.20710687499999997
v 0.3750000000000001 -6.938893903907228e-18 -0.20710687500000002
v 0.3750000000000001 -6.938893903907228e-18 -0.20710687500000002
v 0.37500000000000006 0.292893125 -0.5000000000000002
v 0.37500000000000006 0.292893125 -0.5000000000000002
v 0.37499999999999994 0.707106875 -0.5
v 0.37499999999999994 0.707106875 -0.5
v 0.3749999999999999 1 -0.20710687500000002
v 0.3749999999999999 1 -0.20710687500000002
v 0.3749999999999999 1.0000000000000002 0.20710687500000002
v 0.3749999999999999 1.0000000000000002 0.20710687500000002
v 0.37499999999999994 0.7071068749999999 0.5
v 0.37499999999999994 0.7071068749999999 0.5
v -0.25 0.5 0
v -0.25 0.5 0
v -0.24999999999999822 0.29289328514958085 -0.5000000663361287
v -0.24999999999999822 0.29289328514958085 -0.5000000663361287
v -0.25000000000000033 0.7071067148504191 -0.5000000663361286
v -0.25000000000000033 0.7071067148504191 -0.5000000663361286
v -0.25000000000000233 1.0000000663361288 -0.2071067148504192
v -0.25000000000000233 1.0000000663361288 -0.2071067148504192
v -0.2500000000000029 1.0000000663361286 0.2071067148504192
v -0.2500000000000029 1.0000000663361286 0.2071067148504192
v -0.2500000000000018 0.7071067148504193 0.5000000663361286
v -0.2500000000000018 0.7071067148504193 0.5000000663361286
v -0.24999999999999967 0.2928932851495809 0.5000000663361286
v -0.24999999999999967 0.2928932851495809 0.5000000663361286
v -0.24999999999999767 -6.63361285069275e-8 0.20710671485041912
v -0.24999999999999767 -6.63361285069275e-8 0.20710671485041912
v -0.2499999999999971 -6.633612851386639e-8 -0.2071067148504192
v -0.2499999999999971 -6.633612851386639e-8 -0.2071067148504192
v 0 0.5 0
v 0 0.5 0
v 1.7763568394002505e-15 0.29289328514958085 -0.5000000663361287
v 1.7763568394002505e-15 0.29289328514958085 -0.5000000663361287
v -3.885780586188048e-16 0.7071067148504191 -0.5000000663361286
v -3.885780586188048e-16 0.7071067148504191 -0.5000000663361286
v -2.275957200481571e-15 1.0000000663361288 -0.2071067148504192
v -2.275957200481571e-15 1.0000000663361288 -0.2071067148504192
v -2.886579864025407e-15 1.0000000663361286 0.2071067148504192
v -2.886579864025407e-15 1.0000000663361286 0.2071067148504192
v -1.7763568394002505e-15 0.7071067148504193 0.5000000663361286
v -1.7763568394002505e-15 0.7071067148504193 0.5000000663361286
v 3.885780586188048e-16 0.2928932851495809 0.5000000663361286
v 3.885780586188048e-16 0.2928932851495809 0.5000000663361286
v 2.275957200481571e-15 -6.63361285069275e-8 0.20710671485041912
v 2.275957200481571e-15 -6.63361285069275e-8 0.20710671485041912
v 2.886579864025407e-15 -6.633612851386639e-8 -0.2071067148504192
v 2.886579864025407e-15 -6.633612851386639e-8 -0.2071067148504192
v 0.25 0.5 0
v 0.25 0.5 0
v 0.2500000000000018 0.29289328514958085 -0.5000000663361287
v 0.2500000000000018 0.29289328514958085 -0.5000000663361287
v 0.24999999999999964 0.7071067148504191 -0.5000000663361286
v 0.24999999999999964 0.7071067148504191 -0.5000000663361286
v 0.2499999999999977 1.0000000663361288 -0.2071067148504192
v 0.2499999999999977 1.0000000663361288 -0.2071067148504192
v 0.2499999999999971 1.0000000663361286 0.2071067148504192
v 0.2499999999999971 1.0000000663361286 0.2071067148504192
v 0.24999999999999822 0.7071067148504193 0.5000000663361286
v 0.24999999999999822 0.7071067148504193 0.5000000663361286
v 0.2500000000000004 0.2928932851495809 0.5000000663361286
v 0.2500000000000004 0.2928932851495809 0.5000000663361286
v 0.2500000000000023 -6.63361285069275e-8 0.20710671485041912
v 0.2500000000000023 -6.63361285069275e-8 0.20710671485041912
v 0.2500000000000029 -6.633612851386639e-8 -0.2071067148504192
v 0.2500000000000029 -6.633612851386639e-8 -0.2071067148504192
v -0.396875 0.917378052147757 -0.10196513690392162
v -0.396875 -0.006501480363529717 -0.48464856926901156
v -0.396875 0.8815014803635298 -0.015351430730988602
v -0.396875 -0.04237805214775695 -0.3980348630960785
v -0.459375 0.917378052147757 -0.10196513690392162
v -0.459375 -0.006501480363529717 -0.48464856926901156
v -0.459375 0.8815014803635298 -0.015351430730988602
v -0.459375 -0.04237805214775695 -0.3980348630960785
v -0.396875 0.9173780521477567 0.10196513690392173
v -0.396875 -0.0065014803635298005 0.4846485692690114
v -0.396875 0.8815014803635297 0.015351430730988547
v -0.396875 -0.04237805214775698 0.3980348630960784
v -0.459375 0.9173780521477567 0.10196513690392173
v -0.459375 -0.0065014803635298005 0.4846485692690114
v -0.459375 0.8815014803635297 0.015351430730988547
v -0.459375 -0.04237805214775698 0.3980348630960784
vt 0.5859375 0.953125
vt 0.4375 0.953125
vt 0.4375 0.9375
vt 0.5859375 0.9375
vt 0.5859375 0.9375
vt 0.5859375 0.953125
vt 0.4375 0.953125
vt 0.4375 0.9375
vt 0.5859375 0.9609375
vt 0.5859375 0.9765625
vt 0.4375 0.9765625
vt 0.4375 0.9609375
vt 0.5859375 0.9765625
vt 0.4375 0.9765625
vt 0.4375 0.9609375
vt 0.5859375 0.9609375
vt 0.4296875 0.96875
vt 0.4296875 0.984375
vt 0.4140625 0.984375
vt 0.4140625 0.96875
vt 0.4296875 0.984375
vt 0.4140625 0.984375
vt 0.4140625 0.96875
vt 0.4296875 0.96875
vt 0.5859375 0.9375
vt 0.5859375 0.953125
vt 0.4375 0.953125
vt 0.4375 0.9375
vt 0.5859375 0.953125
vt 0.4375 0.953125
vt 0.4375 0.9375
vt 0.5859375 0.9375
vt 0.5859375 0.9765625
vt 0.4375 0.9765625
vt 0.4375 0.9609375
vt 0.5859375 0.9609375
vt 0.5859375 0.9609375
vt 0.5859375 0.9765625
vt 0.4375 0.9765625
vt 0.4375 0.9609375
vt 0.4296875 0.984375
vt 0.4140625 0.984375
vt 0.4140625 0.96875
vt 0.4296875 0.96875
vt 0.4296875 0.96875
vt 0.4296875 0.984375
vt 0.4140625 0.984375
vt 0.4140625 0.96875
vt 0.2578125 0.8359375
vt 0.296875 0.8359375
vt 0.296875 1
vt 0.2578125 1
vt 0.2578125 0.8359375
vt 0.296875 0.8359375
vt 0.296875 1
vt 0.2578125 1
vt 0.2578125 0.8359375
vt 0.296875 0.8359375
vt 0.296875 1
vt 0.2578125 1
vt 0.2578125 0.8359375
vt 0.296875 0.8359375
vt 0.296875 1
vt 0.2578125 1
vt 0.2578125 0.8359375
vt 0.296875 0.8359375
vt 0.296875 1
vt 0.2578125 1
vt 0.2578125 0.8359375
vt 0.296875 0.8359375
vt 0.296875 1
vt 0.2578125 1
vt 0.2578125 0.8359375
vt 0.296875 0.8359375
vt 0.296875 1
vt 0.2578125 1
vt 0.2578125 0.8359375
vt 0.296875 0.8359375
vt 0.296875 1
vt 0.2578125 1
vt 0.2421875 0.962440625
vt 0.212440625 0.9921875
vt 0.19140625 0.94140625
vt 0.212440625 0.890625
vt 0.2421875 0.9203718750000001
vt 0.19140625 0.94140625
vt 0.2421875 0.9203718750000001
vt 0.2421875 0.962440625
vt 0.19140625 0.94140625
vt 0.2421875 0.9203718750000001
vt 0.2421875 0.962440625
vt 0.19140625 0.94140625
vt 0.212440625 0.890625
vt 0.2421875 0.9203718750000001
vt 0.19140625 0.94140625
vt 0.2421875 0.962440625
vt 0.212440625 0.9921875
vt 0.19140625 0.94140625
vt 0.170371875 0.890625
vt 0.212440625 0.890625
vt 0.19140625 0.94140625
vt 0.212440625 0.9921875
vt 0.170371875 0.9921875
vt 0.19140625 0.94140625
vt 0.140625 0.9203718750000001
vt 0.170371875 0.890625
vt 0.19140625 0.94140625
vt 0.170371875 0.9921875
vt 0.140625 0.962440625
vt 0.19140625 0.94140625
vt 0.140625 0.962440625
vt 0.140625 0.9203718750000001
vt 0.19140625 0.94140625
vt 0.140625 0.962440625
vt 0.140625 0.9203718750000001
vt 0.19140625 0.94140625
vt 0.170371875 0.9921875
vt 0.140625 0.962440625
vt 0.19140625 0.94140625
vt 0.140625 0.9203718750000001
vt 0.170371875 0.890625
vt 0.19140625 0.94140625
vt 0.212440625 0.9921875
vt 0.170371875 0.9921875
vt 0.19140625 0.94140625
vt 0.170371875 0.890625
vt 0.212440625 0.890625
vt 0.19140625 0.94140625
vt 0.32421875 0.7853187803819445
vt 0.28531878038194447 0.82421875
vt 0.2578125 0.7578125
vt 0 1
vt 0.0546875 1
vt 0.0546875 1
vt 0 1
vt 0.230306201171875 0.69140625
vt 0.19140625 0.7303062011718751
vt 0.2578125 0.7578125
vt 0.32421875 0.7303062196180555
vt 0.32421875 0.7853187803819445
vt 0.2578125 0.7578125
vt 0 0.9453125
vt 0 1
vt 0 1
vt 0 0.9453125
vt 0.19140625 0.7303062011718751
vt 0.19140625 0.7853187988281249
vt 0.2578125 0.7578125
vt 0.28531878038194447 0.69140625
vt 0.32421875 0.7303062196180555
vt 0.2578125 0.7578125
vt 0 0.9453125
vt 0 1
vt 0 1
vt 0 0.9453125
vt 0.19140625 0.7853187988281249
vt 0.230306201171875 0.82421875
vt 0.2578125 0.7578125
vt 0.23030621961805553 0.69140625
vt 0.28531878038194447 0.69140625
vt 0.2578125 0.7578125
vt 0.0546875 1
vt 0 1
vt 0 1
vt 0.0546875 1
vt 0.230306201171875 0.82421875
vt 0.285318798828125 0.82421875
vt 0.2578125 0.7578125
vt 0.19140625 0.7303062196180555
vt 0.23030621961805553 0.69140625
vt 0.2578125 0.7578125
vt 0.0546875 1
vt 0 1
vt 0 1
vt 0.0546875 1
vt 0.285318798828125 0.82421875
vt 0.32421875 0.7853187988281249
vt 0.2578125 0.7578125
vt 0.19140625 0.7853187803819445
vt 0.19140625 0.7303062196180555
vt 0.2578125 0.7578125
vt 0 1
vt 0 0.9453125
vt 0 0.9453125
vt 0 1
vt 0.32421875 0.7853187988281249
vt 0.32421875 0.7303062011718751
vt 0.2578125 0.7578125
vt 0.23030621961805553 0.82421875
vt 0.19140625 0.7853187803819445
vt 0.2578125 0.7578125
vt 0 1
vt 0 0.9453125
vt 0 0.9453125
vt 0 1
vt 0.32421875 0.7303062011718751
vt 0.285318798828125 0.69140625
vt 0.2578125 0.7578125
vt 0.28531878038194447 0.82421875
vt 0.23030621961805553 0.82421875
vt 0.2578125 0.7578125
vt 0 1
vt 0.0546875 1
vt 0.0546875 1
vt 0 1
vt 0.285318798828125 0.69140625
vt 0.230306201171875 0.69140625
vt 0.2578125 0.7578125
vt 0.19140625 0.7853187988281249
vt 0.230306201171875 0.82421875
vt 0.2578125 0.7578125
vt 0 1
vt 0.0546875 1
vt 0.0546875 1
vt 0 1
vt 0.28531878038194447 0.69140625
vt 0.32421875 0.7303062196180555
vt 0.2578125 0.7578125
vt 0.19140625 0.7303062011718751
vt 0.19140625 0.7853187988281249
vt 0.2578125 0.7578125
vt 0 0.9453125
vt 0 1
vt 0 1
vt 0 0.9453125
vt 0.32421875 0.7303062196180555
vt 0.32421875 0.7853187803819445
vt 0.2578125 0.7578125
vt 0.230306201171875 0.69140625
vt 0.19140625 0.7303062011718751
vt 0.2578125 0.7578125
vt 0 0.9453125
vt 0 1
vt 0 1
vt 0 0.9453125
vt 0.32421875 0.7853187803819445
vt 0.28531878038194447 0.82421875
vt 0.2578125 0.7578125
vt 0.285318798828125 0.69140625
vt 0.230306201171875 0.69140625
vt 0.2578125 0.7578125
vt 0.0546875 1
vt 0 1
vt 0 1
vt 0.0546875 1
vt 0.28531878038194447 0.82421875
vt 0.23030621961805553 0.82421875
vt 0.2578125 0.7578125
vt 0.32421875 0.7303062011718751
vt 0.285318798828125 0.69140625
vt 0.2578125 0.7578125
vt 0.0546875 1
vt 0 1
vt 0 1
vt 0.0546875 1
vt 0.23030621961805553 0.82421875
vt 0.19140625 0.7853187803819445
vt 0.2578125 0.7578125
vt 0.32421875 0.7853187988281249
vt 0.32421875 0.7303062011718751
vt 0.2578125 0.7578125
vt 0 1
vt 0 0.9453125
vt 0 0.9453125
vt 0 1
vt 0.19140625 0.7853187803819445
vt 0.19140625 0.7303062196180555
vt 0.2578125 0.7578125
vt 0.285318798828125 0.82421875
vt 0.32421875 0.7853187988281249
vt 0.2578125 0.7578125
vt 0 1
vt 0 0.9453125
vt 0 0.9453125
vt 0 1
vt 0.19140625 0.7303062196180555
vt 0.23030621961805553 0.69140625
vt 0.2578125 0.7578125
vt 0.230306201171875 0.82421875
vt 0.285318798828125 0.82421875
vt 0.2578125 0.7578125
vt 0 1
vt 0.0546875 1
vt 0.0546875 1
vt 0 1
vt 0.23030621961805553 0.69140625
vt 0.28531878038194447 0.69140625
vt 0.2578125 0.7578125
vt 0.32421875 0.7853187803819445
vt 0.28531878038194447 0.82421875
vt 0.2578125 0.7578125
vt 0 1
vt 0.0546875 1
vt 0.0546875 1
vt 0 1
vt 0.230306201171875 0.69140625
vt 0.19140625 0.7303062011718751
vt 0.2578125 0.7578125
vt 0.32421875 0.7303062196180555
vt 0.32421875 0.7853187803819445
vt 0.2578125 0.7578125
vt 0 0.9453125
vt 0 1
vt 0 1
vt 0 0.9453125
vt 0.19140625 0.7303062011718751
vt 0.19140625 0.7853187988281249
vt 0.2578125 0.7578125
vt 0.28531878038194447 0.69140625
vt 0.32421875 0.7303062196180555
vt 0.2578125 0.7578125
vt 0 0.9453125
vt 0 1
vt 0 1
vt 0 0.9453125
vt 0.19140625 0.7853187988281249
vt 0.230306201171875 0.82421875
vt 0.2578125 0.7578125
vt 0.23030621961805553 0.69140625
vt 0.28531878038194447 0.69140625
vt 0.2578125 0.7578125
vt 0.0546875 1
vt 0 1
vt 0 1
vt 0.0546875 1
vt 0.230306201171875 0.82421875
vt 0.285318798828125 0.82421875
vt 0.2578125 0.7578125
vt 0.19140625 0.7303062196180555
vt 0.23030621961805553 0.69140625
vt 0.2578125 0.7578125
vt 0.0546875 1
vt 0 1
vt 0 1
vt 0.0546875 1
vt 0.285318798828125 0.82421875
vt 0.32421875 0.7853187988281249
vt 0.2578125 0.7578125
vt 0.19140625 0.7853187803819445
vt 0.19140625 0.7303062196180555
vt 0.2578125 0.7578125
vt 0 1
vt 0 0.9453125
vt 0 0.9453125
vt 0 1
vt 0.32421875 0.7853187988281249
vt 0.32421875 0.7303062011718751
vt 0.2578125 0.7578125
vt 0.23030621961805553 0.82421875
vt 0.19140625 0.7853187803819445
vt 0.2578125 0.7578125
vt 0 1
vt 0 0.9453125
vt 0 0.9453125
vt 0 1
vt 0.32421875 0.7303062011718751
vt 0.285318798828125 0.69140625
vt 0.2578125 0.7578125
vt 0.28531878038194447 0.82421875
vt 0.23030621961805553 0.82421875
vt 0.2578125 0.7578125
vt 0 1
vt 0.0546875 1
vt 0.0546875 1
vt 0 1
vt 0.285318798828125 0.69140625
vt 0.230306201171875 0.69140625
vt 0.2578125 0.7578125
vt 0.19140625 0.7853187988281249
vt 0.230306201171875 0.82421875
vt 0.2578125 0.7578125
vt 0 1
vt 0.0546875 1
vt 0.0546875 1
vt 0 1
vt 0.28531878038194447 0.69140625
vt 0.32421875 0.7303062196180555
vt 0.2578125 0.7578125
vt 0.19140625 0.7303062011718751
vt 0.19140625 0.7853187988281249
vt 0.2578125 0.7578125
vt 0 0.9453125
vt 0 1
vt 0 1
vt 0 0.9453125
vt 0.32421875 0.7303062196180555
vt 0.32421875 0.7853187803819445
vt 0.2578125 0.7578125
vt 0.230306201171875 0.69140625
vt 0.19140625 0.7303062011718751
vt 0.2578125 0.7578125
vt 0 0.9453125
vt 0 1
vt 0 1
vt 0 0.9453125
vt 0.32421875 0.7853187803819445
vt 0.28531878038194447 0.82421875
vt 0.2578125 0.7578125
vt 0.285318798828125 0.69140625
vt 0.230306201171875 0.69140625
vt 0.2578125 0.7578125
vt 0.0546875 1
vt 0 1
vt 0 1
vt 0.0546875 1
vt 0.28531878038194447 0.82421875
vt 0.23030621961805553 0.82421875
vt 0.2578125 0.7578125
vt 0.32421875 0.7303062011718751
vt 0.285318798828125 0.69140625
vt 0.2578125 0.7578125
vt 0.0546875 1
vt 0 1
vt 0 1
vt 0.0546875 1
vt 0.23030621961805553 0.82421875
vt 0.19140625 0.7853187803819445
vt 0.2578125 0.7578125
vt 0.32421875 0.7853187988281249
vt 0.32421875 0.7303062011718751
vt 0.2578125 0.7578125
vt 0 1
vt 0 0.9453125
vt 0 0.9453125
vt 0 1
vt 0.19140625 0.7853187803819445
vt 0.19140625 0.7303062196180555
vt 0.2578125 0.7578125
vt 0.285318798828125 0.82421875
vt 0.32421875 0.7853187988281249
vt 0.2578125 0.7578125
vt 0 1
vt 0 0.9453125
vt 0 0.9453125
vt 0 1
vt 0.19140625 0.7303062196180555
vt 0.23030621961805553 0.69140625
vt 0.2578125 0.7578125
vt 0.230306201171875 0.82421875
vt 0.285318798828125 0.82421875
vt 0.2578125 0.7578125
vt 0 1
vt 0.0546875 1
vt 0.0546875 1
vt 0 1
vt 0.23030621961805553 0.69140625
vt 0.28531878038194447 0.69140625
vt 0.2578125 0.7578125
vt 0.32421875 0.7853187803819445
vt 0.28531878038194447 0.82421875
vt 0.2578125 0.7578125
vt 0 1
vt 0.0546875 1
vt 0.0546875 1
vt 0 1
vt 0.230306201171875 0.69140625
vt 0.19140625 0.7303062011718751
vt 0.2578125 0.7578125
vt 0.32421875 0.7303062196180555
vt 0.32421875 0.7853187803819445
vt 0.2578125 0.7578125
vt 0 0.9453125
vt 0 1
vt 0 1
vt 0 0.9453125
vt 0.19140625 0.7303062011718751
vt 0.19140625 0.7853187988281249
vt 0.2578125 0.7578125
vt 0.28531878038194447 0.69140625
vt 0.32421875 0.7303062196180555
vt 0.2578125 0.7578125
vt 0 0.9453125
vt 0 1
vt 0 1
vt 0 0.9453125
vt 0.19140625 0.7853187988281249
vt 0.230306201171875 0.82421875
vt 0.2578125 0.7578125
vt 0.23030621961805553 0.69140625
vt 0.28531878038194447 0.69140625
vt 0.2578125 0.7578125
vt 0.0546875 1
vt 0 1
vt 0 1
vt 0.0546875 1
vt 0.230306201171875 0.82421875
vt 0.285318798828125 0.82421875
vt 0.2578125 0.7578125
vt 0.19140625 0.7303062196180555
vt 0.23030621961805553 0.69140625
vt 0.2578125 0.7578125
vt 0.0546875 1
vt 0 1
vt 0 1
vt 0.0546875 1
vt 0.285318798828125 0.82421875
vt 0.32421875 0.7853187988281249
vt 0.2578125 0.7578125
vt 0.19140625 0.7853187803819445
vt 0.19140625 0.7303062196180555
vt 0.2578125 0.7578125
vt 0 1
vt 0 0.9453125
vt 0 0.9453125
vt 0 1
vt 0.32421875 0.7853187988281249
vt 0.32421875 0.7303062011718751
vt 0.2578125 0.7578125
vt 0.23030621961805553 0.82421875
vt 0.19140625 0.7853187803819445
vt 0.2578125 0.7578125
vt 0 1
vt 0 0.9453125
vt 0 0.9453125
vt 0 1
vt 0.32421875 0.7303062011718751
vt 0.285318798828125 0.69140625
vt 0.2578125 0.7578125
vt 0.28531878038194447 0.82421875
vt 0.23030621961805553 0.82421875
vt 0.2578125 0.7578125
vt 0 1
vt 0.0546875 1
vt 0.0546875 1
vt 0 1
vt 0.285318798828125 0.69140625
vt 0.230306201171875 0.69140625
vt 0.2578125 0.7578125
vt 0.32421875 0.7853187803819445
vt 0.28531878038194447 0.82421875
vt 0.2578125 0.7578125
vt 0 1
vt 0.0546875 1
vt 0.0546875 1
vt 0 1
vt 0.230306201171875 0.69140625
vt 0.19140625 0.7303062011718751
vt 0.2578125 0.7578125
vt 0.32421875 0.7303062196180555
vt 0.32421875 0.7853187803819445
vt 0.2578125 0.7578125
vt 0 0.9453125
vt 0 1
vt 0 1
vt 0 0.9453125
vt 0.19140625 0.7303062011718751
vt 0.19140625 0.7853187988281249
vt 0.2578125 0.7578125
vt 0.28531878038194447 0.69140625
vt 0.32421875 0.7303062196180555
vt 0.2578125 0.7578125
vt 0 0.9453125
vt 0 1
vt 0 1
vt 0 0.9453125
vt 0.19140625 0.7853187988281249
vt 0.230306201171875 0.82421875
vt 0.2578125 0.7578125
vt 0.23030621961805553 0.69140625
vt 0.28531878038194447 0.69140625
vt 0.2578125 0.7578125
vt 0.0546875 1
vt 0 1
vt 0 1
vt 0.0546875 1
vt 0.230306201171875 0.82421875
vt 0.285318798828125 0.82421875
vt 0.2578125 0.7578125
vt 0.19140625 0.7303062196180555
vt 0.23030621961805553 0.69140625
vt 0.2578125 0.7578125
vt 0.0546875 1
vt 0 1
vt 0 1
vt 0.0546875 1
vt 0.285318798828125 0.82421875
vt 0.32421875 0.7853187988281249
vt 0.2578125 0.7578125
vt 0.19140625 0.7853187803819445
vt 0.19140625 0.7303062196180555
vt 0.2578125 0.7578125
vt 0 1
vt 0 0.9453125
vt 0 0.9453125
vt 0 1
vt 0.32421875 0.7853187988281249
vt 0.32421875 0.7303062011718751
vt 0.2578125 0.7578125
vt 0.23030621961805553 0.82421875
vt 0.19140625 0.7853187803819445
vt 0.2578125 0.7578125
vt 0 1
vt 0 0.9453125
vt 0 0.9453125
vt 0 1
vt 0.32421875 0.7303062011718751
vt 0.285318798828125 0.69140625
vt 0.2578125 0.7578125
vt 0.28531878038194447 0.82421875
vt 0.23030621961805553 0.82421875
vt 0.2578125 0.7578125
vt 0 1
vt 0.0546875 1
vt 0.0546875 1
vt 0 1
vt 0.285318798828125 0.69140625
vt 0.230306201171875 0.69140625
vt 0.2578125 0.7578125
vt 0.32421875 0.7853187803819445
vt 0.28531878038194447 0.82421875
vt 0.2578125 0.7578125
vt 0 1
vt 0.0546875 1
vt 0.0546875 1
vt 0 1
vt 0.230306201171875 0.69140625
vt 0.19140625 0.7303062011718751
vt 0.2578125 0.7578125
vt 0.32421875 0.7303062196180555
vt 0.32421875 0.7853187803819445
vt 0.2578125 0.7578125
vt 0 0.9453125
vt 0 1
vt 0 1
vt 0 0.9453125
vt 0.19140625 0.7303062011718751
vt 0.19140625 0.7853187988281249
vt 0.2578125 0.7578125
vt 0.28531878038194447 0.69140625
vt 0.32421875 0.7303062196180555
vt 0.2578125 0.7578125
vt 0 0.9453125
vt 0 1
vt 0 1
vt 0 0.9453125
vt 0.19140625 0.7853187988281249
vt 0.230306201171875 0.82421875
vt 0.2578125 0.7578125
vt 0.23030621961805553 0.69140625
vt 0.28531878038194447 0.69140625
vt 0.2578125 0.7578125
vt 0.0546875 1
vt 0 1
vt 0 1
vt 0.0546875 1
vt 0.230306201171875 0.82421875
vt 0.285318798828125 0.82421875
vt 0.2578125 0.7578125
vt 0.19140625 0.7303062196180555
vt 0.23030621961805553 0.69140625
vt 0.2578125 0.7578125
vt 0.0546875 1
vt 0 1
vt 0 1
vt 0.0546875 1
vt 0.285318798828125 0.82421875
vt 0.32421875 0.7853187988281249
vt 0.2578125 0.7578125
vt 0.19140625 0.7853187803819445
vt 0.19140625 0.7303062196180555
vt 0.2578125 0.7578125
vt 0 1
vt 0 0.9453125
vt 0 0.9453125
vt 0 1
vt 0.32421875 0.7853187988281249
vt 0.32421875 0.7303062011718751
vt 0.2578125 0.7578125
vt 0.23030621961805553 0.82421875
vt 0.19140625 0.7853187803819445
vt 0.2578125 0.7578125
vt 0 1
vt 0 0.9453125
vt 0 0.9453125
vt 0 1
vt 0.32421875 0.7303062011718751
vt 0.285318798828125 0.69140625
vt 0.2578125 0.7578125
vt 0.28531878038194447 0.82421875
vt 0.23030621961805553 0.82421875
vt 0.2578125 0.7578125
vt 0 1
vt 0.0546875 1
vt 0.0546875 1
vt 0 1
vt 0.285318798828125 0.69140625
vt 0.230306201171875 0.69140625
vt 0.2578125 0.7578125
vt 0.4375 0.953125
vt 0.5859375 0.953125
vt 0.5859375 0.9375
vt 0.4375 0.9375
vt 0.4375 0.9375
vt 0.4375 0.953125
vt 0.5859375 0.953125
vt 0.5859375 0.9375
vt 0.4375 0.9609375
vt 0.4375 0.9765625
vt 0.5859375 0.9765625
vt 0.5859375 0.9609375
vt 0.4375 0.9765625
vt 0.5859375 0.9765625
vt 0.5859375 0.9609375
vt 0.4375 0.9609375
vt 0.4140625 0.96875
vt 0.4140625 0.984375
vt 0.4296875 0.984375
vt 0.4296875 0.96875
vt 0.4140625 0.984375
vt 0.4296875 0.984375
vt 0.4296875 0.96875
vt 0.4140625 0.96875
vt 0.4375 0.9375
vt 0.4375 0.953125
vt 0.5859375 0.953125
vt 0.5859375 0.9375
vt 0.4375 0.953125
vt 0.5859375 0.953125
vt 0.5859375 0.9375
vt 0.4375 0.9375
vt 0.4375 0.9765625
vt 0.5859375 0.9765625
vt 0.5859375 0.9609375
vt 0.4375 0.9609375
vt 0.4375 0.9609375
vt 0.4375 0.9765625
vt 0.5859375 0.9765625
vt 0.5859375 0.9609375
vt 0.4140625 0.984375
vt 0.4296875 0.984375
vt 0.4296875 0.96875
vt 0.4140625 0.96875
vt 0.4140625 0.96875
vt 0.4140625 0.984375
vt 0.4296875 0.984375
vt 0.4296875 0.96875
vn -1 0 0
vn 1 0 0
vn 0 0.38268343236508984 0.9238795325112866
vn 0 -0.38268343236508984 -0.9238795325112866
vn 0 0.9238795325112866 -0.38268343236508984
vn 0 -0.9238795325112866 0.38268343236508984
vn -1 0 0
vn 1 0 0
vn 0 0.3826834323650898 -0.9238795325112867
vn 0 -0.3826834323650899 0.9238795325112867
vn 0 0.9238795325112867 0.3826834323650901
vn 0 -0.9238795325112863 -0.3826834323650908
vn 2.120690200962804e-16 0.7071067811865476 0.7071067811865475
vn 2.82758362761113e-16 1 -2.2204460492503126e-16
vn 7.068967336542684e-17 0.7071067811865479 -0.7071067811865474
vn 7.068959069027822e-17 -1.1102230246251565e-16 -1
vn -1.8850579564113814e-16 -0.7071067811865475 -0.7071067811865478
vn -2.3563196896759405e-16 -1 1.1102230246251565e-16
vn -1.649425711859959e-16 -0.7071067811865476 0.7071067811865476
vn 4.7126393793518816e-17 1.1102230246251565e-16 1
vn 1 -3.29885076176166e-16 1.366429661916843e-16
vn -1 3.2988507617616584e-16 -1.3664296619168424e-16
vn 1 -2.732856676000385e-16 7.395570986446986e-32
vn -1 2.7328566760003845e-16 -6.162975822039155e-32
vn 1 -3.298850761761661e-16 -1.366429661916844e-16
vn -1 3.2988507617616594e-16 1.3664296619168432e-16
vn 1 0 0
vn -1 0 0
vn 1 -3.2988507617616594e-16 1.3664296619168414e-16
vn -1 3.2988507617616604e-16 -1.366429661916842e-16
vn 1 -2.732856676000385e-16 2.465190328815662e-32
vn -1 2.732856676000385e-16 0
vn 1 -3.29885076176166e-16 -1.366429661916842e-16
vn -1 3.2988507617616604e-16 1.366429661916843e-16
vn 1 0 0
vn -1 0 0
vn -1 -1.570092250376093e-16 1.5700922503760924e-16
vn 0 0 0
vn 1 1.570092250376093e-16 -1.5700922503760924e-16
vn -1 -2.220446049250313e-16 0
vn 0 0 0
vn 1 2.2204460492503126e-16 0
vn -1 -1.5700922503760932e-16 -1.5700922503760922e-16
vn 0 0 0
vn 1 1.5700922503760934e-16 1.5700922503760924e-16
vn -1 -5.360628538406348e-16 -4.930380657631324e-32
vn 0 0 0
vn 1 5.3606285384063475e-16 4.930380657631324e-32
vn -1 -1.570092250376093e-16 1.5700922503760924e-16
vn 0 0 0
vn 1 1.570092250376093e-16 -1.5700922503760924e-16
vn -1 -2.220446049250313e-16 4.930380657631324e-32
vn 0 0 0
vn 1 2.2204460492503126e-16 -3.697785493223493e-32
vn -1 -1.5700922503760924e-16 -1.5700922503760934e-16
vn 0 0 0
vn 1 1.5700922503760924e-16 1.5700922503760934e-16
vn -1 -5.36062853840635e-16 -2.465190328815662e-32
vn 0 0 0
vn 1 5.36062853840635e-16 2.465190328815662e-32
vn -1 -2.680315986208438e-16 -1.1102237358323453e-16
vn 0 0 0
vn 1 2.680315986208438e-16 1.110223735832345e-16
vn -1 -2.220446049250313e-16 0
vn 0 0 0
vn 1 2.2204460492503126e-16 0
vn -1 -2.680315986208438e-16 1.1102237358323455e-16
vn 0 0 0
vn 1 2.6803159862084384e-16 -1.1102237358323455e-16
vn -1 -2.680314269203174e-16 1.1102230246251563e-16
vn 0 0 0
vn 1 2.6803142692031738e-16 -1.1102230246251562e-16
vn -1 -1.570092250376093e-16 1.5700922503760924e-16
vn 0 0 0
vn 1 1.570092250376093e-16 -1.5700922503760924e-16
vn -1 -2.220446049250313e-16 4.930380657631324e-32
vn 0 0 0
vn 1 2.2204460492503126e-16 -3.697785493223493e-32
vn -1 -1.5700922503760924e-16 -1.5700922503760934e-16
vn 0 0 0
vn 1 1.5700922503760924e-16 1.5700922503760934e-16
vn -1 -2.6803142692031757e-16 -1.1102230246251565e-16
vn 0 0 0
vn 1 2.680314269203175e-16 1.1102230246251565e-16
vn -1 -2.1252041182922654e-16 2.2993425727187345e-17
vn 0 0 0
vn 1 2.1252041182922657e-16 -2.2993425727187357e-17
vn -1 -2.220446049250313e-16 0
vn 0 0 0
vn 1 2.2204460492503126e-16 0
vn -1 -2.1252041182922657e-16 -2.2993425727187345e-17
vn 0 0 0
vn 1 2.125204118292266e-16 2.2993425727187345e-17
vn -1 -2.680314269203174e-16 -2.465190328815662e-32
vn 0 0 0
vn 1 2.6803142692031738e-16 2.465190328815662e-32
vn -1 -2.1252041182922657e-16 2.2993425727187308e-17
vn 0 0 0
vn 1 2.125204118292266e-16 -2.2993425727187308e-17
vn -1 -2.220446049250313e-16 4.930380657631324e-32
vn 0 0 0
vn 1 2.2204460492503126e-16 -3.697785493223493e-32
vn -1 -2.1252041182922652e-16 -2.2993425727187407e-17
vn 0 0 0
vn 1 2.1252041182922652e-16 2.2993425727187407e-17
vn -1 -2.680314269203175e-16 -1.232595164407831e-32
vn 0 0 0
vn 1 2.680314269203175e-16 1.232595164407831e-32
vn -1 -2.1252041182922654e-16 2.2993425727187345e-17
vn 0 0 0
vn 1 2.1252041182922657e-16 -2.2993425727187357e-17
vn -1 -2.220446049250313e-16 0
vn 0 0 0
vn 1 2.2204460492503126e-16 0
vn -1 -2.1252041182922657e-16 -2.2993425727187345e-17
vn 0 0 0
vn 1 2.125204118292266e-16 2.2993425727187345e-17
vn -1 -2.680314269203174e-16 -2.465190328815662e-32
vn 0 0 0
vn 1 2.6803142692031738e-16 2.465190328815662e-32
vn -1 -2.1252041182922657e-16 2.2993425727187308e-17
vn 0 0 0
vn 1 2.125204118292266e-16 -2.2993425727187308e-17
vn -1 -2.220446049250313e-16 4.930380657631324e-32
vn 0 0 0
vn 1 2.2204460492503126e-16 -3.697785493223493e-32
vn -1 -2.1252041182922652e-16 -2.2993425727187407e-17
vn 0 0 0
vn 1 2.1252041182922652e-16 2.2993425727187407e-17
vn -1 -2.680314269203175e-16 -1.232595164407831e-32
vn 0 0 0
vn 1 2.680314269203175e-16 1.232595164407831e-32
vn -1 -5.092601049442816e-15 -1.4432897405281963e-15
vn 0 0 0
vn 1 5.092601049442816e-15 1.4432897405281967e-15
vn -1 -5.295594062256862e-15 -1.5273721614158038e-15
vn 0 0 0
vn 1 5.2955940622568614e-15 1.5273721614158032e-15
vn -1 -5.218047523448092e-15 -1.3401581709060038e-15
vn 0 0 0
vn 1 5.218047523448092e-15 1.3401581709060038e-15
vn -1 -5.192462558700556e-15 -1.4019257677712954e-15
vn 0 0 0
vn 1 5.192462558700556e-15 1.4019257677712962e-15
vn -1 -5.092601049442815e-15 -1.443289740528195e-15
vn 0 0 0
vn 1 5.092601049442815e-15 1.4432897405281953e-15
vn -1 -5.2955940622568646e-15 -1.5273721614158024e-15
vn 0 0 0
vn 1 5.295594062256864e-15 1.5273721614158032e-15
vn -1 -5.218047523448094e-15 -1.3401581709060052e-15
vn 0 0 0
vn 1 5.218047523448094e-15 1.3401581709060048e-15
vn -1 -5.192462558700558e-15 -1.4019257677712972e-15
vn 0 0 0
vn 1 5.192462558700558e-15 1.4019257677712972e-15
vn -1 -5.226616866533417e-15 -1.3877785966617271e-15
vn 0 0 0
vn 1 5.226616866533417e-15 1.3877785966617275e-15
vn -1 -5.106067222710399e-15 -1.337845321869341e-15
vn 0 0 0
vn 1 5.106067222710399e-15 1.3378453218693403e-15
vn -1 -5.162536379581623e-15 -1.4741739879966036e-15
vn 0 0 0
vn 1 5.1625363795816224e-15 1.4741739879966038e-15
vn -1 -5.192462558700556e-15 -1.4019257677712954e-15
vn 0 0 0
vn 1 5.192462558700556e-15 1.4019257677712962e-15
vn -1 -5.2266168665334165e-15 -1.3877785966617251e-15
vn 0 0 0
vn 1 5.226616866533416e-15 1.387778596661726e-15
vn -1 -5.1060672227104e-15 -1.3378453218693397e-15
vn 0 0 0
vn 1 5.1060672227104e-15 1.3378453218693401e-15
vn -1 -5.162536379581625e-15 -1.4741739879966052e-15
vn 0 0 0
vn 1 5.1625363795816256e-15 1.4741739879966054e-15
vn -1 -5.192462558700558e-15 -1.4019257677712972e-15
vn 0 0 0
vn 1 5.192462558700558e-15 1.4019257677712972e-15
vn -1 -5.159608957988116e-15 -1.4155341685949612e-15
vn 0 0 0
vn 1 5.159608957988117e-15 1.4155341685949616e-15
vn -1 -5.20083064248363e-15 -1.4326087416425717e-15
vn 0 0 0
vn 1 5.20083064248363e-15 1.4326087416425714e-15
vn -1 -5.190291951514858e-15 -1.4071660794513037e-15
vn 0 0 0
vn 1 5.190291951514857e-15 1.407166079451304e-15
vn -1 -5.192462558700556e-15 -1.4019257677712954e-15
vn 0 0 0
vn 1 5.192462558700556e-15 1.4019257677712962e-15
vn -1 -5.2266168665334165e-15 -1.3877785966617251e-15
vn 0 0 0
vn 1 5.226616866533416e-15 1.387778596661726e-15
vn -1 -5.1060672227104e-15 -1.3378453218693397e-15
vn 0 0 0
vn 1 5.1060672227104e-15 1.3378453218693401e-15
vn -1 -5.162536379581625e-15 -1.4741739879966052e-15
vn 0 0 0
vn 1 5.1625363795816256e-15 1.4741739879966054e-15
vn -1 -5.192462558700558e-15 -1.4019257677712972e-15
vn 0 0 0
vn 1 5.192462558700558e-15 1.4019257677712972e-15
vn 1 0 0
vn -1 0 0
vn 0 0.3826834323650898 -0.9238795325112867
vn 0 -0.3826834323650899 0.9238795325112867
vn 0 0.9238795325112867 0.3826834323650901
vn 0 -0.9238795325112863 -0.3826834323650908
vn 1 0 0
vn -1 0 0
vn 0 0.3826834323650899 0.9238795325112868
vn 0 -0.3826834323650899 -0.9238795325112868
vn 0 0.9238795325112873 -0.38268343236508884
vn 0 -0.9238795325112867 0.3826834323650902
usemtl m_85b3ed06-bdeb-cf2e-9257-f2b05dcb0bdd
f 2/1/1 1/2/1 3/3/1 4/4/1
f 7/5/2 5/6/2 6/7/2 8/8/2
f 5/9/3 1/10/3 2/11/3 6/12/3
f 4/13/4 3/14/4 7/15/4 8/16/4
f 3/17/5 1/18/5 5/19/5 7/20/5
f 6/21/6 2/22/6 4/23/6 8/24/6
f 11/25/7 9/26/7 10/27/7 12/28/7
f 14/29/8 13/30/8 15/31/8 16/32/8
f 10/33/9 9/34/9 13/35/9 14/36/9
f 15/37/10 11/38/10 12/39/10 16/40/10
f 13/41/11 9/42/11 11/43/11 15/44/11
f 12/45/12 10/46/12 14/47/12 16/48/12
f 17/49/13 19/50/13 20/51/13 18/52/13
f 19/53/14 21/54/14 22/55/14 20/56/14
f 21/57/15 23/58/15 24/59/15 22/60/15
f 23/61/16 25/62/16 26/63/16 24/64/16
f 25/65/17 27/66/17 28/67/17 26/68/17
f 27/69/18 29/70/18 30/71/18 28/72/18
f 29/73/19 31/74/19 32/75/19 30/76/19
f 31/77/20 17/78/20 18/79/20 32/80/20
f 19/81/21 17/82/21 33/83/21
f 18/84/22 20/85/22 34/86/22
f 21/87/23 19/88/23 33/89/23
f 20/90/24 22/91/24 34/92/24
f 23/93/25 21/94/25 33/95/25
f 22/96/26 24/97/26 34/98/26
f 25/99/27 23/100/27 33/101/27
f 24/102/28 26/103/28 34/104/28
f 27/105/29 25/106/29 33/107/29
f 26/108/30 28/109/30 34/110/30
f 29/111/31 27/112/31 33/113/31
f 28/114/32 30/115/32 34/116/32
f 31/117/33 29/118/33 33/119/33
f 30/120/34 32/121/34 34/122/34
f 17/123/35 31/124/35 33/125/35
f 32/126/36 18/127/36 34/128/36
f 39/129/37 37/130/37 35/131/37
f 37/132/38 39/133/38 40/134/38 38/135/38
f 38/136/39 40/137/39 36/138/39
f 41/139/40 39/140/40 35/141/40
f 39/142/41 41/143/41 42/144/41 40/145/41
f 40/146/42 42/147/42 36/148/42
f 43/149/43 41/150/43 35/151/43
f 41/152/44 43/153/44 44/154/44 42/155/44
f 42/156/45 44/157/45 36/158/45
f 45/159/46 43/160/46 35/161/46
f 43/162/47 45/163/47 46/164/47 44/165/47
f 44/166/48 46/167/48 36/168/48
f 47/169/49 45/170/49 35/171/49
f 45/172/50 47/173/50 48/174/50 46/175/50
f 46/176/51 48/177/51 36/178/51
f 49/179/52 47/180/52 35/181/52
f 47/182/53 50/183/53 49/184/53 48/185/53
f 48/186/54 50/187/54 36/188/54
f 51/189/55 49/190/55 35/191/55
f 49/192/56 51/193/56 52/194/56 50/195/56
f 50/196/57 52/197/57 36/198/57
f 37/199/58 51/200/58 35/201/58
f 51/202/59 38/203/59 37/204/59 52/205/59
f 52/206/60 38/207/60 36/208/60
f 57/209/61 55/210/61 53/211/61
f 55/212/62 57/213/62 58/214/62 56/215/62
f 56/216/63 58/217/63 54/218/63
f 59/219/64 57/220/64 53/221/64
f 57/222/65 59/223/65 60/224/65 58/225/65
f 58/226/66 60/227/66 54/228/66
f 61/229/67 59/230/67 53/231/67
f 59/232/68 61/233/68 62/234/68 60/235/68
f 60/236/69 62/237/69 54/238/69
f 63/239/70 61/240/70 53/241/70
f 61/242/71 63/243/71 64/244/71 62/245/71
f 62/246/72 64/247/72 54/248/72
f 65/249/73 63/250/73 53/251/73
f 63/252/74 65/253/74 66/254/74 64/255/74
f 64/256/75 66/257/75 54/258/75
f 67/259/76 65/260/76 53/261/76
f 65/262/77 68/263/77 67/264/77 66/265/77
f 66/266/78 68/267/78 54/268/78
f 69/269/79 67/270/79 53/271/79
f 67/272/80 69/273/80 70/274/80 68/275/80
f 68/276/81 70/277/81 54/278/81
f 55/279/82 69/280/82 53/281/82
f 69/282/83 56/283/83 55/284/83 70/285/83
f 70/286/84 56/287/84 54/288/84
f 75/289/85 73/290/85 71/291/85
f 73/292/86 75/293/86 76/294/86 74/295/86
f 74/296/87 76/297/87 72/298/87
f 77/299/88 75/300/88 71/301/88
f 75/302/89 77/303/89 78/304/89 76/305/89
f 76/306/90 78/307/90 72/308/90
f 79/309/91 77/310/91 71/311/91
f 77/312/92 79/313/92 80/314/92 78/315/92
f 78/316/93 80/317/93 72/318/93
f 81/319/94 79/320/94 71/321/94
f 79/322/95 81/323/95 82/324/95 80/325/95
f 80/326/96 82/327/96 72/328/96
f 83/329/97 81/330/97 71/331/97
f 81/332/98 83/333/98 84/334/98 82/335/98
f 82/336/99 84/337/99 72/338/99
f 85/339/100 83/340/100 71/341/100
f 83/342/101 86/343/101 85/344/101 84/345/101
f 84/346/102 86/347/102 72/348/102
f 87/349/103 85/350/103 71/351/103
f 85/352/104 87/353/104 88/354/104 86/355/104
f 86/356/105 88/357/105 72/358/105
f 73/359/106 87/360/106 71/361/106
f 87/362/107 74/363/107 73/364/107 88/365/107
f 88/366/108 74/367/108 72/368/108
f 93/369/109 91/370/109 89/371/109
f 91/372/110 93/373/110 94/374/110 92/375/110
f 92/376/111 94/377/111 90/378/111
f 95/379/112 93/380/112 89/381/112
f 93/382/113 95/383/113 96/384/113 94/385/113
f 94/386/114 96/387/114 90/388/114
f 97/389/115 95/390/115 89/391/115
f 95/392/116 97/393/116 98/394/116 96/395/116
f 96/396/117 98/397/117 90/398/117
f 99/399/118 97/400/118 89/401/118
f 97/402/119 99/403/119 100/404/119 98/405/119
f 98/406/120 100/407/120 90/408/120
f 101/409/121 99/410/121 89/411/121
f 99/412/122 101/413/122 102/414/122 100/415/122
f 100/416/123 102/417/123 90/418/123
f 103/419/124 101/420/124 89/421/124
f 101/422/125 104/423/125 103/424/125 102/425/125
f 102/426/126 104/427/126 90/428/126
f 105/429/127 103/430/127 89/431/127
f 103/432/128 105/433/128 106/434/128 104/435/128
f 104/436/129 106/437/129 90/438/129
f 91/439/130 105/440/130 89/441/130
f 105/442/131 92/443/131 91/444/131 106/445/131
f 106/446/132 92/447/132 90/448/132
f 111/449/133 109/450/133 107/451/133
f 109/452/134 111/453/134 112/454/134 110/455/134
f 110/456/135 112/457/135 108/458/135
f 113/459/136 111/460/136 107/461/136
f 111/462/137 114/463/137 113/464/137 112/465/137
f 112/466/138 114/467/138 108/468/138
f 115/469/139 113/470/139 107/471/139
f 113/472/140 115/473/140 116/474/140 114/475/140
f 114/476/141 116/477/141 108/478/141
f 117/479/142 115/480/142 107/481/142
f 115/482/143 117/483/143 118/484/143 116/485/143
f 116/486/144 118/487/144 108/488/144
f 119/489/145 117/490/145 107/491/145
f 117/492/146 119/493/146 120/494/146 118/495/146
f 118/496/147 120/497/147 108/498/147
f 121/499/148 119/500/148 107/501/148
f 119/502/149 122/503/149 121/504/149 120/505/149
f 120/506/150 122/507/150 108/508/150
f 123/509/151 121/510/151 107/511/151
f 121/512/152 123/513/152 124/514/152 122/515/152
f 122/516/153 124/517/153 108/518/153
f 109/519/154 123/520/154 107/521/154
f 123/522/155 109/523/155 110/524/155 124/525/155
f 124/526/156 110/527/156 108/528/156
f 129/529/157 127/530/157 125/531/157
f 127/532/158 129/533/158 130/534/158 128/535/158
f 128/536/159 130/537/159 126/538/159
f 131/539/160 129/540/160 125/541/160
f 129/542/161 132/543/161 131/544/161 130/545/161
f 130/546/162 132/547/162 126/548/162
f 133/549/163 131/550/163 125/551/163
f 131/552/164 133/553/164 134/554/164 132/555/164
f 132/556/165 134/557/165 126/558/165
f 135/559/166 133/560/166 125/561/166
f 133/562/167 135/563/167 136/564/167 134/565/167
f 134/566/168 136/567/168 126/568/168
f 137/569/169 135/570/169 125/571/169
f 135/572/170 137/573/170 138/574/170 136/575/170
f 136/576/171 138/577/171 126/578/171
f 139/579/172 137/580/172 125/581/172
f 137/582/173 140/583/173 139/584/173 138/585/173
f 138/586/174 140/587/174 126/588/174
f 141/589/175 139/590/175 125/591/175
f 139/592/176 141/593/176 142/594/176 140/595/176
f 140/596/177 142/597/177 126/598/177
f 127/599/178 141/600/178 125/601/178
f 141/602/179 127/603/179 128/604/179 142/605/179
f 142/606/180 128/607/180 126/608/180
f 147/609/181 145/610/181 143/611/181
f 145/612/182 147/613/182 148/614/182 146/615/182
f 146/616/183 148/617/183 144/618/183
f 149/619/184 147/620/184 143/621/184
f 147/622/185 150/623/185 149/624/185 148/625/185
f 148/626/186 150/627/186 144/628/186
f 151/629/187 149/630/187 143/631/187
f 149/632/188 151/633/188 152/634/188 150/635/188
f 150/636/189 152/637/189 144/638/189
f 153/639/190 151/640/190 143/641/190
f 151/642/191 153/643/191 154/644/191 152/645/191
f 152/646/192 154/647/192 144/648/192
f 155/649/193 153/650/193 143/651/193
f 153/652/194 155/653/194 156/654/194 154/655/194
f 154/656/195 156/657/195 144/658/195
f 157/659/196 155/660/196 143/661/196
f 155/662/197 158/663/197 157/664/197 156/665/197
f 156/666/198 158/667/198 144/668/198
f 159/669/199 157/670/199 143/671/199
f 157/672/200 159/673/200 160/674/200 158/675/200
f 158/676/201 160/677/201 144/678/201
f 145/679/202 159/680/202 143/681/202
f 159/682/203 145/683/203 146/684/203 160/685/203
f 160/686/204 146/687/204 144/688/204
f 162/689/205 161/690/205 163/691/205 164/692/205
f 167/693/206 165/694/206 166/695/206 168/696/206
f 165/697/207 161/698/207 162/699/207 166/700/207
f 164/701/208 163/702/208 167/703/208 168/704/208
f 163/705/209 161/706/209 165/707/209 167/708/209
f 166/709/210 162/710/210 164/711/210 168/712/210
f 171/713/211 169/714/211 170/715/211 172/716/211
f 174/717/212 173/718/212 175/719/212 176/720/212
f 170/721/213 169/722/213 173/723/213 174/724/213
f 175/725/214 171/726/214 172/727/214 176/728/214
f 173/729/215 169/730/215 171/731/215 175/732/215
f 172/733/216 170/734/216 174/735/216 176/736/216