# Made in Blockbench 5.1.6
mtllib centrifuge_cylinder_lopasti.mtl

o cylinder
v -4.2500725161431774e-17 0.1875 0.1875
v -4.2500725161431774e-17 1.625 0.1875
v 0.10937499999999996 0.1875 0.15819296875000002
v 0.10937499999999996 1.625 0.15819296875000002
v 0.08006796874999997 0.1875 0.10743203125000002
v 0.08006796874999997 1.625 0.10743203125000002
v 0.029307031249999983 0.1875 0.078125
v 0.029307031249999983 1.625 0.078125
v -0.029307031250000025 0.1875 0.078125
v -0.029307031250000025 1.625 0.078125
v -0.08006796875000002 0.1875 0.10743203124999999
v -0.08006796875000002 1.625 0.10743203124999999
v -0.10937500000000004 0.1875 0.15819296874999997
v -0.10937500000000004 1.625 0.15819296874999997
v -0.10937500000000004 0.1875 0.21680703124999998
v -0.10937500000000004 1.625 0.21680703124999998
v -0.08006796875000005 0.1875 0.26756796875
v -0.08006796875000005 1.625 0.26756796875
v -0.029307031250000073 0.1875 0.296875
v -0.029307031250000073 1.625 0.296875
v 0.029307031249999935 0.1875 0.296875
v 0.029307031249999935 1.625 0.296875
v 0.08006796874999994 0.1875 0.26756796875
v 0.08006796874999994 1.625 0.26756796875
v 0.10937499999999996 0.1875 0.21680703125000003
v 0.10937499999999996 1.625 0.21680703125000003
v -4.2500725161431774e-17 0.1875 -0.1875
v -4.2500725161431774e-17 1.625 -0.1875
v 0.10937499999999996 0.1875 -0.21680703124999998
v 0.10937499999999996 1.625 -0.21680703124999998
v 0.08006796874999997 0.1875 -0.26756796875
v 0.08006796874999997 1.625 -0.26756796875
v 0.029307031249999983 0.1875 -0.296875
v 0.029307031249999983 1.625 -0.296875
v -0.029307031250000025 0.1875 -0.296875
v -0.029307031250000025 1.625 -0.296875
v -0.08006796875000002 0.1875 -0.26756796875
v -0.08006796875000002 1.625 -0.26756796875
v -0.10937500000000004 0.1875 -0.21680703125000003
v -0.10937500000000004 1.625 -0.21680703125000003
v -0.10937500000000006 0.1875 -0.15819296875000002
v -0.10937500000000006 1.625 -0.15819296875000002
v -0.08006796875000007 0.1875 -0.10743203125
v -0.08006796875000007 1.625 -0.10743203125
v -0.029307031250000073 0.1875 -0.078125
v -0.029307031250000073 1.625 -0.078125
v 0.029307031249999935 0.1875 -0.078125
v 0.029307031249999935 1.625 -0.078125
v 0.08006796874999993 0.1875 -0.10743203125
v 0.08006796874999993 1.625 -0.10743203125
v 0.10937499999999994 0.1875 -0.15819296874999997
v 0.10937499999999994 1.625 -0.15819296874999997
v -0.18750000000000006 0.1875 3.469446951953608e-18
v -0.18750000000000006 1.625 3.469446951953608e-18
v -0.07812500000000004 0.1875 -0.029307031249999973
v -0.07812500000000004 1.625 -0.029307031249999973
v -0.10743203125000003 0.1875 -0.08006796874999998
v -0.10743203125000003 1.625 -0.08006796874999998
v -0.15819296875000002 0.1875 -0.109375
v -0.15819296875000002 1.625 -0.109375
v -0.21680703125000003 0.1875 -0.109375
v -0.21680703125000003 1.625 -0.109375
v -0.26756796875 0.1875 -0.08006796875000001
v -0.26756796875 1.625 -0.08006796875000001
v -0.29687500000000006 0.1875 -0.02930703125000003
v -0.29687500000000006 1.625 -0.02930703125000003
v -0.29687500000000006 0.1875 0.029307031249999983
v -0.29687500000000006 1.625 0.029307031249999983
v -0.26756796875000005 0.1875 0.08006796875
v -0.26756796875000005 1.625 0.08006796875
v -0.21680703125000006 0.1875 0.10937500000000001
v -0.21680703125000006 1.625 0.10937500000000001
v -0.15819296875000005 0.1875 0.10937500000000001
v -0.15819296875000005 1.625 0.10937500000000001
v -0.10743203125000007 0.1875 0.08006796875
v -0.10743203125000007 1.625 0.08006796875
v -0.07812500000000006 0.1875 0.029307031250000032
v -0.07812500000000006 1.625 0.029307031250000032
v 0.18749999999999994 0.1875 3.469446951953608e-18
v 0.18749999999999994 1.625 3.469446951953608e-18
v 0.29687499999999994 0.1875 -0.029307031249999973
v 0.29687499999999994 1.625 -0.029307031249999973
v 0.26756796875 0.1875 -0.08006796874999998
v 0.26756796875 1.625 -0.08006796874999998
v 0.21680703124999998 0.1875 -0.109375
v 0.21680703124999998 1.625 -0.109375
v 0.15819296874999997 0.1875 -0.109375
v 0.15819296874999997 1.625 -0.109375
v 0.10743203124999998 0.1875 -0.08006796875000001
v 0.10743203124999998 1.625 -0.08006796875000001
v 0.07812499999999996 0.1875 -0.02930703125000003
v 0.07812499999999996 1.625 -0.02930703125000003
v 0.07812499999999994 0.1875 0.029307031249999983
v 0.07812499999999994 1.625 0.029307031249999983
v 0.10743203124999993 0.1875 0.08006796875
v 0.10743203124999993 1.625 0.08006796875
v 0.15819296874999994 0.1875 0.109375
v 0.15819296874999994 1.625 0.109375
v 0.21680703124999995 0.1875 0.109375
v 0.21680703124999995 1.625 0.109375
v 0.26756796874999994 0.1875 0.08006796875
v 0.26756796874999994 1.625 0.08006796875
v 0.29687499999999994 0.1875 0.029307031250000032
v 0.29687499999999994 1.625 0.029307031250000032
vt 0.44112578125 0.52706328125
vt 0.43387421875 0.53125
vt 0.4296875 0.515625
vt 0.01981171875 0.4453125
vt 0.02818515625 0.4453125
vt 0.02818515625 0.625
vt 0.01981171875 0.625
vt 0.46512421875 0.96875
vt 0.47237578125 0.97293671875
vt 0.4609375 0.984375
vt 0.4453125 0.51981171875
vt 0.44112578125 0.52706328125
vt 0.4296875 0.515625
vt 0.26087734375 0.5625
vt 0.26925078125 0.5625
vt 0.26925078125 0.7421875
vt 0.26087734375 0.7421875
vt 0.47237578125 0.97293671875
vt 0.4765625 0.98018828125
vt 0.4609375 0.984375
vt 0.4453125 0.51143828125
vt 0.4453125 0.51981171875
vt 0.4296875 0.515625
vt 0.26925078125 0.5625
vt 0.27762421875 0.5625
vt 0.27762421875 0.7421875
vt 0.26925078125 0.7421875
vt 0.4765625 0.98018828125
vt 0.4765625 0.98856171875
vt 0.4609375 0.984375
vt 0.44112578125 0.50418671875
vt 0.4453125 0.51143828125
vt 0.4296875 0.515625
vt 0.27762421875 0.5625
vt 0.28599765625 0.5625
vt 0.28599765625 0.7421875
vt 0.27762421875 0.7421875
vt 0.4765625 0.98856171875
vt 0.47237578125 0.99581328125
vt 0.4609375 0.984375
vt 0.43387421875 0.5234375
vt 0.44112578125 0.52762421875
vt 0.4296875 0.5390625
vt 0.37025234375 0.8203125
vt 0.37862578125 0.8203125
vt 0.37862578125 1
vt 0.37025234375 1
vt 0.47237578125 0.99581328125
vt 0.46512421875 1
vt 0.4609375 0.984375
vt 0.42550078125 0.5
vt 0.43387421875 0.5
vt 0.4296875 0.515625
vt 0.37862578125 0.8203125
vt 0.38699921875 0.8203125
vt 0.38699921875 1
vt 0.37862578125 1
vt 0.46512421875 1
vt 0.45675078125 1
vt 0.4609375 0.984375
vt 0.41824921875 0.50418671875
vt 0.42550078125 0.5
vt 0.4296875 0.515625
vt 0.38699921875 0.8203125
vt 0.39537265625 0.8203125
vt 0.39537265625 1
vt 0.38699921875 1
vt 0.45675078125 1
vt 0.44949921875 0.99581328125
vt 0.4609375 0.984375
vt 0.4140625 0.51143828125
vt 0.41824921875 0.50418671875
vt 0.4296875 0.515625
vt 0.15931484375 0.546875
vt 0.16768828125 0.546875
vt 0.16768828125 0.7265625
vt 0.15931484375 0.7265625
vt 0.44949921875 0.99581328125
vt 0.4453125 0.98856171875
vt 0.4609375 0.984375
vt 0.4140625 0.51981171875
vt 0.4140625 0.51143828125
vt 0.4296875 0.515625
vt 0.16768828125 0.546875
vt 0.17606171875 0.546875
vt 0.17606171875 0.7265625
vt 0.16768828125 0.7265625
vt 0.4453125 0.98856171875
vt 0.4453125 0.98018828125
vt 0.4609375 0.984375
vt 0.41824921875 0.52706328125
vt 0.4140625 0.51981171875
vt 0.4296875 0.515625
vt 0.17606171875 0.546875
vt 0.18443515625 0.546875
vt 0.18443515625 0.7265625
vt 0.17606171875 0.7265625
vt 0.4453125 0.98018828125
vt 0.44949921875 0.97293671875
vt 0.4609375 0.984375
vt 0.42550078125 0.53125
vt 0.41824921875 0.52706328125
vt 0.4296875 0.515625
vt 0.00306484375 0.4453125
vt 0.01143828125 0.4453125
vt 0.01143828125 0.625
vt 0.00306484375 0.625
vt 0.44949921875 0.97293671875
vt 0.45675078125 0.96875
vt 0.4609375 0.984375
vt 0.43387421875 0.53125
vt 0.42550078125 0.53125
vt 0.4296875 0.515625
vt 0.01143828125 0.4453125
vt 0.01981171875 0.4453125
vt 0.01981171875 0.625
vt 0.01143828125 0.625
vt 0.45675078125 0.96875
vt 0.46512421875 0.96875
vt 0.4609375 0.984375
vt 0.47237578125 0.95675078125
vt 0.46512421875 0.9609375
vt 0.4609375 0.9453125
vt 0.39481171875 0.6328125
vt 0.40318515625 0.6328125
vt 0.40318515625 0.8125
vt 0.39481171875 0.8125
vt 0.46512421875 0.890625
vt 0.47237578125 0.89481171875
vt 0.4609375 0.90625
vt 0.4765625 0.94949921875
vt 0.47237578125 0.95675078125
vt 0.4609375 0.9453125
vt 0.08118984375 0.5390625
vt 0.08956328125 0.5390625
vt 0.08956328125 0.71875
vt 0.08118984375 0.71875
vt 0.47237578125 0.89481171875
vt 0.4765625 0.90206328125
vt 0.4609375 0.90625
vt 0.4765625 0.94112578125
vt 0.4765625 0.94949921875
vt 0.4609375 0.9453125
vt 0.08956328125 0.5390625
vt 0.09793671875 0.5390625
vt 0.09793671875 0.71875
vt 0.08956328125 0.71875
vt 0.4765625 0.90206328125
vt 0.4765625 0.91043671875
vt 0.4609375 0.90625
vt 0.47237578125 0.93387421875
vt 0.4765625 0.94112578125
vt 0.4609375 0.9453125
vt 0.09793671875 0.5390625
vt 0.10631015625 0.5390625
vt 0.10631015625 0.71875
vt 0.09793671875 0.71875
vt 0.4765625 0.91043671875
vt 0.47237578125 0.91768828125
vt 0.4609375 0.90625
vt 0.46512421875 0.9296875
vt 0.47237578125 0.93387421875
vt 0.4609375 0.9453125
vt 0.04212734375 0.4453125
vt 0.05050078125 0.4453125
vt 0.05050078125 0.625
vt 0.04212734375 0.625
vt 0.47237578125 0.91768828125
vt 0.46512421875 0.921875
vt 0.4609375 0.90625
vt 0.45675078125 0.9296875
vt 0.46512421875 0.9296875
vt 0.4609375 0.9453125
vt 0.05050078125 0.4453125
vt 0.05887421875 0.4453125
vt 0.05887421875 0.625
vt 0.05050078125 0.625
vt 0.46512421875 0.921875
vt 0.45675078125 0.921875
vt 0.4609375 0.90625
vt 0.44949921875 0.93387421875
vt 0.45675078125 0.9296875
vt 0.4609375 0.9453125
vt 0.05887421875 0.4453125
vt 0.06724765625 0.4453125
vt 0.06724765625 0.625
vt 0.05887421875 0.625
vt 0.45675078125 0.921875
vt 0.44949921875 0.91768828125
vt 0.4609375 0.90625
vt 0.4453125 0.94112578125
vt 0.44949921875 0.93387421875
vt 0.4609375 0.9453125
vt 0.12025234375 0.5390625
vt 0.12862578125 0.5390625
vt 0.12862578125 0.71875
vt 0.12025234375 0.71875
vt 0.44949921875 0.91768828125
vt 0.4453125 0.91043671875
vt 0.4609375 0.90625
vt 0.4453125 0.94949921875
vt 0.4453125 0.94112578125
vt 0.4609375 0.9453125
vt 0.12862578125 0.5390625
vt 0.13699921875 0.5390625
vt 0.13699921875 0.71875
vt 0.12862578125 0.71875
vt 0.4453125 0.91043671875
vt 0.4453125 0.90206328125
vt 0.4609375 0.90625
vt 0.44949921875 0.95675078125
vt 0.4453125 0.94949921875
vt 0.4609375 0.9453125
vt 0.13699921875 0.5390625
vt 0.14537265625 0.5390625
vt 0.14537265625 0.71875
vt 0.13699921875 0.71875
vt 0.4453125 0.90206328125
vt 0.44949921875 0.89481171875
vt 0.4609375 0.90625
vt 0.45675078125 0.9609375
vt 0.44949921875 0.95675078125
vt 0.4609375 0.9453125
vt 0.37806484375 0.6328125
vt 0.38643828125 0.6328125
vt 0.38643828125 0.8125
vt 0.37806484375 0.8125
vt 0.44949921875 0.89481171875
vt 0.45675078125 0.890625
vt 0.4609375 0.90625
vt 0.46512421875 0.9609375
vt 0.45675078125 0.9609375
vt 0.4609375 0.9453125
vt 0.38643828125 0.6328125
vt 0.39481171875 0.6328125
vt 0.39481171875 0.8125
vt 0.38643828125 0.8125
vt 0.45675078125 0.890625
vt 0.46512421875 0.890625
vt 0.4609375 0.90625
vt 0.47237578125 0.87862578125
vt 0.46512421875 0.8828125
vt 0.4609375 0.8671875
vt 0.35574921875 0.4453125
vt 0.36412265625 0.4453125
vt 0.36412265625 0.625
vt 0.35574921875 0.625
vt 0.25418671875 0.5234375
vt 0.26143828125 0.52762421875
vt 0.25 0.5390625
vt 0.4765625 0.87137421875
vt 0.47237578125 0.87862578125
vt 0.4609375 0.8671875
vt 0.19837734375 0.5390625
vt 0.20675078125 0.5390625
vt 0.20675078125 0.71875
vt 0.19837734375 0.71875
vt 0.26143828125 0.52762421875
vt 0.265625 0.53487578125
vt 0.25 0.5390625
vt 0.4765625 0.86300078125
vt 0.4765625 0.87137421875
vt 0.4609375 0.8671875
vt 0.20675078125 0.5390625
vt 0.21512421875 0.5390625
vt 0.21512421875 0.71875
vt 0.20675078125 0.71875
vt 0.265625 0.53487578125
vt 0.265625 0.54324921875
vt 0.25 0.5390625
vt 0.47237578125 0.85574921875
vt 0.4765625 0.86300078125
vt 0.4609375 0.8671875
vt 0.21512421875 0.5390625
vt 0.22349765625 0.5390625
vt 0.22349765625 0.71875
vt 0.21512421875 0.71875
vt 0.265625 0.54324921875
vt 0.26143828125 0.55050078125
vt 0.25 0.5390625
vt 0.46512421875 0.8515625
vt 0.47237578125 0.85574921875
vt 0.4609375 0.8671875
vt 0.29993984375 0.4453125
vt 0.30831328125 0.4453125
vt 0.30831328125 0.625
vt 0.29993984375 0.625
vt 0.26143828125 0.55050078125
vt 0.25418671875 0.5546875
vt 0.25 0.5390625
vt 0.45675078125 0.8515625
vt 0.46512421875 0.8515625
vt 0.4609375 0.8671875
vt 0.30831328125 0.4453125
vt 0.31668671875 0.4453125
vt 0.31668671875 0.625
vt 0.30831328125 0.625
vt 0.25418671875 0.5546875
vt 0.24581328125 0.5546875
vt 0.25 0.5390625
vt 0.44949921875 0.85574921875
vt 0.45675078125 0.8515625
vt 0.4609375 0.8671875
vt 0.31668671875 0.4453125
vt 0.32506015625 0.4453125
vt 0.32506015625 0.625
vt 0.31668671875 0.625
vt 0.24581328125 0.5546875
vt 0.23856171875 0.55050078125
vt 0.25 0.5390625
vt 0.4453125 0.86300078125
vt 0.44949921875 0.85574921875
vt 0.4609375 0.8671875
vt 0.29993984375 0.6328125
vt 0.30831328125 0.6328125
vt 0.30831328125 0.8125
vt 0.29993984375 0.8125
vt 0.23856171875 0.55050078125
vt 0.234375 0.54324921875
vt 0.25 0.5390625
vt 0.4453125 0.87137421875
vt 0.4453125 0.86300078125
vt 0.4609375 0.8671875
vt 0.30831328125 0.6328125
vt 0.31668671875 0.6328125
vt 0.31668671875 0.8125
vt 0.30831328125 0.8125
vt 0.234375 0.54324921875
vt 0.234375 0.53487578125
vt 0.25 0.5390625
vt 0.44949921875 0.87862578125
vt 0.4453125 0.87137421875
vt 0.4609375 0.8671875
vt 0.31668671875 0.6328125
vt 0.32506015625 0.6328125
vt 0.32506015625 0.8125
vt 0.31668671875 0.8125
vt 0.234375 0.53487578125
vt 0.23856171875 0.52762421875
vt 0.25 0.5390625
vt 0.45675078125 0.8828125
vt 0.44949921875 0.87862578125
vt 0.4609375 0.8671875
vt 0.33900234375 0.4453125
vt 0.34737578125 0.4453125
vt 0.34737578125 0.625
vt 0.33900234375 0.625
vt 0.23856171875 0.52762421875
vt 0.24581328125 0.5234375
vt 0.25 0.5390625
vt 0.46512421875 0.8828125
vt 0.45675078125 0.8828125
vt 0.4609375 0.8671875
vt 0.34737578125 0.4453125
vt 0.35574921875 0.4453125
vt 0.35574921875 0.625
vt 0.34737578125 0.625
vt 0.24581328125 0.5234375
vt 0.25418671875 0.5234375
vt 0.25 0.5390625
vt 0.48018828125 0.55831328125
vt 0.47293671875 0.5625
vt 0.46875 0.546875
vt 0.42606171875 0.8203125
vt 0.43443515625 0.8203125
vt 0.43443515625 1
vt 0.42606171875 1
vt 0.17606171875 0.5078125
vt 0.18331328125 0.51199921875
vt 0.171875 0.5234375
vt 0.484375 0.55106171875
vt 0.48018828125 0.55831328125
vt 0.46875 0.546875
vt 0.33118984375 0.8203125
vt 0.33956328125 0.8203125
vt 0.33956328125 1
vt 0.33118984375 1
vt 0.18331328125 0.51199921875
vt 0.1875 0.51925078125
vt 0.171875 0.5234375
vt 0.484375 0.54268828125
vt 0.484375 0.55106171875
vt 0.46875 0.546875
vt 0.33956328125 0.8203125
vt 0.34793671875 0.8203125
vt 0.34793671875 1
vt 0.33956328125 1
vt 0.1875 0.51925078125
vt 0.1875 0.52762421875
vt 0.171875 0.5234375
vt 0.48018828125 0.53543671875
vt 0.484375 0.54268828125
vt 0.46875 0.546875
vt 0.34793671875 0.8203125
vt 0.35631015625 0.8203125
vt 0.35631015625 1
vt 0.34793671875 1
vt 0.1875 0.52762421875
vt 0.18331328125 0.53487578125
vt 0.171875 0.5234375
vt 0.47293671875 0.53125
vt 0.48018828125 0.53543671875
vt 0.46875 0.546875
vt 0.37806484375 0.4453125
vt 0.38643828125 0.4453125
vt 0.38643828125 0.625
vt 0.37806484375 0.625
vt 0.18331328125 0.53487578125
vt 0.17606171875 0.5390625
vt 0.171875 0.5234375
vt 0.46456328125 0.53125
vt 0.47293671875 0.53125
vt 0.46875 0.546875
vt 0.38643828125 0.4453125
vt 0.39481171875 0.4453125
vt 0.39481171875 0.625
vt 0.38643828125 0.625
vt 0.17606171875 0.5390625
vt 0.16768828125 0.5390625
vt 0.171875 0.5234375
vt 0.45731171875 0.53543671875
vt 0.46456328125 0.53125
vt 0.46875 0.546875
vt 0.39481171875 0.4453125
vt 0.40318515625 0.4453125
vt 0.40318515625 0.625
vt 0.39481171875 0.625
vt 0.16768828125 0.5390625
vt 0.16043671875 0.53487578125
vt 0.171875 0.5234375
vt 0.453125 0.54268828125
vt 0.45731171875 0.53543671875
vt 0.46875 0.546875
vt 0.33900234375 0.6328125
vt 0.34737578125 0.6328125
vt 0.34737578125 0.8125
vt 0.33900234375 0.8125
vt 0.16043671875 0.53487578125
vt 0.15625 0.52762421875
vt 0.171875 0.5234375
vt 0.453125 0.55106171875
vt 0.453125 0.54268828125
vt 0.46875 0.546875
vt 0.34737578125 0.6328125
vt 0.35574921875 0.6328125
vt 0.35574921875 0.8125
vt 0.34737578125 0.8125
vt 0.15625 0.52762421875
vt 0.15625 0.51925078125
vt 0.171875 0.5234375
vt 0.45731171875 0.55831328125
vt 0.453125 0.55106171875
vt 0.46875 0.546875
vt 0.35574921875 0.6328125
vt 0.36412265625 0.6328125
vt 0.36412265625 0.8125
vt 0.35574921875 0.8125
vt 0.15625 0.51925078125
vt 0.16043671875 0.51199921875
vt 0.171875 0.5234375
vt 0.46456328125 0.5625
vt 0.45731171875 0.55831328125
vt 0.46875 0.546875
vt 0.40931484375 0.8203125
vt 0.41768828125 0.8203125
vt 0.41768828125 1
vt 0.40931484375 1
vt 0.16043671875 0.51199921875
vt 0.16768828125 0.5078125
vt 0.171875 0.5234375
vt 0.47293671875 0.5625
vt 0.46456328125 0.5625
vt 0.46875 0.546875
vt 0.41768828125 0.8203125
vt 0.42606171875 0.8203125
vt 0.42606171875 1
vt 0.41768828125 1
vt 0.16768828125 0.5078125
vt 0.17606171875 0.5078125
vt 0.171875 0.5234375
vn 0 -1 0
vn 0.8660239977804737 0 -0.5000024352623957
vn 0 1 0
vn 0 -1 0
vn 0.5000024352623961 0 -0.8660239977804736
vn 0 1 0
vn 0 -1 0
vn 2.220446049250313e-16 0 -1
vn 0 1 0
vn 0 -1 0
vn -0.5000024352623959 0 -0.8660239977804737
vn 0 1 0
vn 0 -1 0
vn -0.8660239977804735 0 -0.5000024352623962
vn 0 1 0
vn 0 -1 0
vn -1 0 -2.220446049250313e-16
vn 0 1 0
vn 0 -1 0
vn -0.8660239977804737 0 0.5000024352623957
vn 0 1 0
vn 0 -1 0
vn -0.5000024352623963 0 0.8660239977804735
vn 0 1 0
vn 0 -1 0
vn -2.220446049250313e-16 0 1
vn 0 1 0
vn 0 -1 0
vn 0.5000024352623956 0 0.8660239977804738
vn 0 1 0
vn 0 -1 0
vn 0.8660239977804735 0 0.5000024352623962
vn 0 1 0
vn 0 -1 0
vn 1 0 2.220446049250313e-16
vn 0 1 0
vn 0 -1 0
vn 0.8660239977804737 0 -0.5000024352623957
vn 0 1 0
vn 0 -1 0
vn 0.5000024352623961 0 -0.8660239977804736
vn 0 1 0
vn 0 -1 0
vn 2.220446049250313e-16 0 -1
vn 0 1 0
vn 0 -1 0
vn -0.5000024352623959 0 -0.8660239977804737
vn 0 1 0
vn 0 -1 0
vn -0.8660239977804735 0 -0.5000024352623962
vn 0 1 0
vn 0 -1 0
vn -1 0 -4.588101048051062e-16
vn 0 1 0
vn 0 -1 0
vn -0.8660239977804738 0 0.5000024352623956
vn 0 1 0
vn 0 -1 0
vn -0.500002435262396 0 0.8660239977804737
vn 0 1 0
vn 0 -1 0
vn -2.220446049250313e-16 0 1
vn 0 1 0
vn 0 -1 0
vn 0.5000024352623961 0 0.8660239977804737
vn 0 1 0
vn 0 -1 0
vn 0.8660239977804735 0 0.5000024352623963
vn 0 1 0
vn 0 -1 0
vn 1 0 4.588101048051062e-16
vn 0 1 0
vn 0 -1 0
vn 0.8660239977804737 0 -0.5000024352623957
vn 0 1 0
vn 0 -1 0
vn 0.500002435262396 0 -0.8660239977804736
vn 0 1 0
vn 0 -1 0
vn 2.220446049250313e-16 0 -1
vn 0 1 0
vn 0 -1 0
vn -0.5000024352623964 0 -0.8660239977804735
vn 0 1 0
vn 0 -1 0
vn -0.866023997780473 0 -0.5000024352623968
vn 0 1 0
vn 0 -1 0
vn -1 0 -2.220446049250313e-16
vn 0 1 0
vn 0 -1 0
vn -0.8660239977804738 0 0.5000024352623956
vn 0 1 0
vn 0 -1 0
vn -0.5000024352623962 0 0.8660239977804735
vn 0 1 0
vn 0 -1 0
vn -2.220446049250313e-16 0 1
vn 0 1 0
vn 0 -1 0
vn 0.5000024352623962 0 0.8660239977804733
vn 0 1 0
vn 0 -1 0
vn 0.8660239977804735 0 0.5000024352623963
vn 0 1 0
vn 0 -1 0
vn 1 0 4.588101048051062e-16
vn 0 1 0
vn 0 -1 0
vn 0.8660239977804741 0 -0.5000024352623951
vn 0 1 0
vn 0 -1 0
vn 0.5000024352623955 0 -0.8660239977804738
vn 0 1 0
vn 0 -1 0
vn 2.220446049250313e-16 0 -1
vn 0 1 0
vn 0 -1 0
vn -0.500002435262396 0 -0.8660239977804737
vn 0 1 0
vn 0 -1 0
vn -0.8660239977804735 0 -0.5000024352623962
vn 0 1 0
vn 0 -1 0
vn -1 0 -4.588101048051062e-16
vn 0 1 0
vn 0 -1 0
vn -0.8660239977804738 0 0.5000024352623956
vn 0 1 0
vn 0 -1 0
vn -0.500002435262396 0 0.8660239977804737
vn 0 1 0
vn 0 -1 0
vn -2.220446049250313e-16 0 1
vn 0 1 0
vn 0 -1 0
vn 0.5000024352623959 0 0.8660239977804736
vn 0 1 0
vn 0 -1 0
vn 0.8660239977804735 0 0.5000024352623963
vn 0 1 0
vn 0 -1 0
vn 1 0 2.220446049250313e-16
vn 0 1 0
usemtl m_3a2355a5-fff2-f31c-1d4a-bf33c296c9b2
f 5/1/1 3/2/1 1/3/1
f 3/4/2 5/5/2 6/6/2 4/7/2
f 4/8/3 6/9/3 2/10/3
f 7/11/4 5/12/4 1/13/4
f 5/14/5 7/15/5 8/16/5 6/17/5
f 6/18/6 8/19/6 2/20/6
f 9/21/7 7/22/7 1/23/7
f 7/24/8 9/25/8 10/26/8 8/27/8
f 8/28/9 10/29/9 2/30/9
f 11/31/10 9/32/10 1/33/10
f 9/34/11 11/35/11 12/36/11 10/37/11
f 10/38/12 12/39/12 2/40/12
f 13/41/13 11/42/13 1/43/13
f 11/44/14 13/45/14 14/46/14 12/47/14
f 12/48/15 14/49/15 2/50/15
f 15/51/16 13/52/16 1/53/16
f 13/54/17 15/55/17 16/56/17 14/57/17
f 14/58/18 16/59/18 2/60/18
f 17/61/19 15/62/19 1/63/19
f 15/64/20 17/65/20 18/66/20 16/67/20
f 16/68/21 18/69/21 2/70/21
f 19/71/22 17/72/22 1/73/22
f 17/74/23 19/75/23 20/76/23 18/77/23
f 18/78/24 20/79/24 2/80/24
f 21/81/25 19/82/25 1/83/25
f 19/84/26 21/85/26 22/86/26 20/87/26
f 20/88/27 22/89/27 2/90/27
f 23/91/28 21/92/28 1/93/28
f 21/94/29 23/95/29 24/96/29 22/97/29
f 22/98/30 24/99/30 2/100/30
f 25/101/31 23/102/31 1/103/31
f 23/104/32 25/105/32 26/106/32 24/107/32
f 24/108/33 26/109/33 2/110/33
f 3/111/34 25/112/34 1/113/34
f 25/114/35 3/115/35 4/116/35 26/117/35
f 26/118/36 4/119/36 2/120/36
f 31/121/37 29/122/37 27/123/37
f 29/124/38 31/125/38 32/126/38 30/127/38
f 30/128/39 32/129/39 28/130/39
f 33/131/40 31/132/40 27/133/40
f 31/134/41 33/135/41 34/136/41 32/137/41
f 32/138/42 34/139/42 28/140/42
f 35/141/43 33/142/43 27/143/43
f 33/144/44 35/145/44 36/146/44 34/147/44
f 34/148/45 36/149/45 28/150/45
f 37/151/46 35/152/46 27/153/46
f 35/154/47 37/155/47 38/156/47 36/157/47
f 36/158/48 38/159/48 28/160/48
f 39/161/49 37/162/49 27/163/49
f 37/164/50 39/165/50 40/166/50 38/167/50
f 38/168/51 40/169/51 28/170/51
f 41/171/52 39/172/52 27/173/52
f 39/174/53 41/175/53 42/176/53 40/177/53
f 40/178/54 42/179/54 28/180/54
f 43/181/55 41/182/55 27/183/55
f 41/184/56 43/185/56 44/186/56 42/187/56
f 42/188/57 44/189/57 28/190/57
f 45/191/58 43/192/58 27/193/58
f 43/194/59 45/195/59 46/196/59 44/197/59
f 44/198/60 46/199/60 28/200/60
f 47/201/61 45/202/61 27/203/61
f 45/204/62 47/205/62 48/206/62 46/207/62
f 46/208/63 48/209/63 28/210/63
f 49/211/64 47/212/64 27/213/64
f 47/214/65 49/215/65 50/216/65 48/217/65
f 48/218/66 50/219/66 28/220/66
f 51/221/67 49/222/67 27/223/67
f 49/224/68 51/225/68 52/226/68 50/227/68
f 50/228/69 52/229/69 28/230/69
f 29/231/70 51/232/70 27/233/70
f 51/234/71 29/235/71 30/236/71 52/237/71
f 52/238/72 30/239/72 28/240/72
f 57/241/73 55/242/73 53/243/73
f 55/244/74 57/245/74 58/246/74 56/247/74
f 56/248/75 58/249/75 54/250/75
f 59/251/76 57/252/76 53/253/76
f 57/254/77 59/255/77 60/256/77 58/257/77
f 58/258/78 60/259/78 54/260/78
f 61/261/79 59/262/79 53/263/79
f 59/264/80 61/265/80 62/266/80 60/267/80
f 60/268/81 62/269/81 54/270/81
f 63/271/82 61/272/82 53/273/82
f 61/274/83 63/275/83 64/276/83 62/277/83
f 62/278/84 64/279/84 54/280/84
f 65/281/85 63/282/85 53/283/85
f 63/284/86 65/285/86 66/286/86 64/287/86
f 64/288/87 66/289/87 54/290/87
f 67/291/88 65/292/88 53/293/88
f 65/294/89 67/295/89 68/296/89 66/297/89
f 66/298/90 68/299/90 54/300/90
f 69/301/91 67/302/91 53/303/91
f 67/304/92 69/305/92 70/306/92 68/307/92
f 68/308/93 70/309/93 54/310/93
f 71/311/94 69/312/94 53/313/94
f 69/314/95 71/315/95 72/316/95 70/317/95
f 70/318/96 72/319/96 54/320/96
f 73/321/97 71/322/97 53/323/97
f 71/324/98 73/325/98 74/326/98 72/327/98
f 72/328/99 74/329/99 54/330/99
f 75/331/100 73/332/100 53/333/100
f 73/334/101 75/335/101 76/336/101 74/337/101
f 74/338/102 76/339/102 54/340/102
f 77/341/103 75/342/103 53/343/103
f 75/344/104 77/345/104 78/346/104 76/347/104
f 76/348/105 78/349/105 54/350/105
f 55/351/106 77/352/106 53/353/106
f 77/354/107 55/355/107 56/356/107 78/357/107
f 78/358/108 56/359/108 54/360/108
f 83/361/109 81/362/109 79/363/109
f 81/364/110 83/365/110 84/366/110 82/367/110
f 82/368/111 84/369/111 80/370/111
f 85/371/112 83/372/112 79/373/112
f 83/374/113 85/375/113 86/376/113 84/377/113
f 84/378/114 86/379/114 80/380/114
f 87/381/115 85/382/115 79/383/115
f 85/384/116 87/385/116 88/386/116 86/387/116
f 86/388/117 88/389/117 80/390/117
f 89/391/118 87/392/118 79/393/118
f 87/394/119 89/395/119 90/396/119 88/397/119
f 88/398/120 90/399/120 80/400/120
f 91/401/121 89/402/121 79/403/121
f 89/404/122 91/405/122 92/406/122 90/407/122
f 90/408/123 92/409/123 80/410/123
f 93/411/124 91/412/124 79/413/124
f 91/414/125 93/415/125 94/416/125 92/417/125
f 92/418/126 94/419/126 80/420/126
f 95/421/127 93/422/127 79/423/127
f 93/424/128 95/425/128 96/426/128 94/427/128
f 94/428/129 96/429/129 80/430/129
f 97/431/130 95/432/130 79/433/130
f 95/434/131 97/435/131 98/436/131 96/437/131
f 96/438/132 98/439/132 80/440/132
f 99/441/133 97/442/133 79/443/133
f 97/444/134 99/445/134 100/446/134 98/447/134
f 98/448/135 100/449/135 80/450/135
f 101/451/136 99/452/136 79/453/136
f 99/454/137 101/455/137 102/456/137 100/457/137
f 100/458/138 102/459/138 80/460/138
f 103/461/139 101/462/139 79/463/139
f 101/464/140 103/465/140 104/466/140 102/467/140
f 102/468/141 104/469/141 80/470/141
f 81/471/142 103/472/142 79/473/142
f 103/474/143 81/475/143 82/476/143 104/477/143
f 104/478/144 82/479/144 80/480/144