# Made in Blockbench 5.1.6
mtllib centrifuge_motor.mtl

o mesh
v -0.3125 0.8125 0.5
v -0.3125 0.8125 0.3125
v -0.3125 0 0.5
v -0.3125 0 0.3125
v -0.5 0.8125 0.5
v -0.5 0.8125 0.3125
v -0.5 0 0.5
v -0.5 0 0.3125
v -0.3125 0.8125 -0.3125
v -0.3125 0.8125 -0.5
v -0.3125 0 -0.3125
v -0.3125 0 -0.5
v -0.5 0.8125 -0.3125
v -0.5 0.8125 -0.5
v -0.5 0 -0.3125
v -0.5 0 -0.5
v 0.5 0.8125 0.5
v 0.5 0.8125 0.3125
v 0.5 0 0.5
v 0.5 0 0.3125
v 0.3125 0.8125 0.5
v 0.3125 0.8125 0.3125
v 0.3125 0 0.5
v 0.3125 0 0.3125
v 0.5 0.8125 -0.3125
v 0.5 0.8125 -0.5
v 0.5 0 -0.3125
v 0.5 0 -0.5
v 0.3125 0.8125 -0.3125
v 0.3125 0.8125 -0.5
v 0.3125 0 -0.3125
v 0.3125 0 -0.5
v 0.10048124999999997 0.1875 0.375
v 0.10048124999999997 1 0.375
v 0.078905 0.1875 0.29447875
v 0.078905 1 0.29447875
v 0.2745187499999999 0.1875 0.2745187499999999
v 0.2745187499999999 1 0.2745187499999999
v 0.21557312499999992 0.1875 0.21557312500000003
v 0.21557312499999992 1 0.21557312500000003
v 0.375 0.1875 0.10048124999999997
v 0.375 1 0.10048124999999997
v 0.2944787500000001 0.1875 0.078905
v 0.2944787500000001 1 0.078905
v 0.375 0.1875 -0.10048124999999997
v 0.375 1 -0.10048124999999997
v 0.2944787500000001 0.1875 -0.078905
v 0.2944787500000001 1 -0.078905
v 0.2745187499999999 0.1875 -0.2745187499999999
v 0.2745187499999999 1 -0.2745187499999999
v 0.21557312499999992 0.1875 -0.21557312499999992
v 0.21557312499999992 1 -0.21557312499999992
v 0.10048124999999997 0.1875 -0.375
v 0.10048124999999997 1 -0.375
v 0.078905 0.1875 -0.2944787500000001
v 0.078905 1 -0.2944787500000001
v -0.10048124999999997 0.1875 -0.375
v -0.10048124999999997 1 -0.375
v -0.078905 0.1875 -0.2944787500000001
v -0.078905 1 -0.2944787500000001
v -0.2745187499999999 0.1875 -0.2745187499999999
v -0.2745187499999999 1 -0.2745187499999999
v -0.21557312500000003 0.1875 -0.21557312499999992
v -0.21557312500000003 1 -0.21557312499999992
v -0.375 0.1875 -0.10048124999999997
v -0.375 1 -0.10048124999999997
v -0.29447875 0.1875 -0.078905
v -0.29447875 1 -0.078905
v -0.375 0.1875 0.10048124999999997
v -0.375 1 0.10048124999999997
v -0.29447875 0.1875 0.078905
v -0.29447875 1 0.078905
v -0.2745187499999999 0.1875 0.2745187499999999
v -0.2745187499999999 1 0.2745187499999999
v -0.21557312500000003 0.1875 0.21557312500000003
v -0.21557312500000003 1 0.21557312500000003
v -0.10048124999999997 0.1875 0.375
v -0.10048124999999997 1 0.375
v -0.078905 0.1875 0.29447875
v -0.078905 1 0.29447875
v 0 0.0625 0
v 0.10048124999999997 0.1875 0.375
v 0.08701875000000003 0.0625 0.32475937499999996
v 0.05024062500000004 0.0625 0.1875
v 0.2745187499999999 0.1875 0.2745187499999999
v 0.23774062500000004 0.0625 0.23774062500000004
v 0.13725937499999996 0.0625 0.13725937499999996
v 0.375 0.1875 0.10048124999999997
v 0.32475937499999996 0.0625 0.08701875000000003
v 0.1875 0.0625 0.05024062500000004
v 0.375 0.1875 -0.10048124999999997
v 0.32475937499999996 0.0625 -0.08701875000000003
v 0.1875 0.0625 -0.05024062500000004
v 0.2745187499999999 0.1875 -0.2745187499999999
v 0.23774062500000004 0.0625 -0.23774062500000004
v 0.13725937499999996 0.0625 -0.13725937499999996
v 0.10048124999999997 0.1875 -0.375
v 0.08701875000000003 0.0625 -0.32475937499999996
v 0.05024062500000004 0.0625 -0.1875
v -0.10048124999999997 0.1875 -0.375
v -0.08701875000000003 0.0625 -0.32475937499999996
v -0.05024062500000004 0.0625 -0.1875
v -0.2745187499999999 0.1875 -0.2745187499999999
v -0.23774062500000004 0.0625 -0.23774062500000004
v -0.13725937499999996 0.0625 -0.13725937499999996
v -0.375 0.1875 -0.10048124999999997
v -0.32475937499999996 0.0625 -0.08701875000000003
v -0.1875 0.0625 -0.05024062500000004
v -0.375 0.1875 0.10048124999999997
v -0.32475937499999996 0.0625 0.08701875000000003
v -0.1875 0.0625 0.05024062500000004
v -0.2745187499999999 0.1875 0.2745187499999999
v -0.23774062500000004 0.0625 0.23774062500000004
v -0.13725937499999996 0.0625 0.13725937499999996
v -0.10048124999999997 0.1875 0.375
v -0.08701875000000003 0.0625 0.32475937499999996
v -0.05024062500000004 0.0625 0.1875
v 0.1875 0.1875 0.1875
v 0.1875 0.1875 -0.1875
v 0.1875 0 0.1875
v 0.1875 0 -0.1875
v -0.1875 0.1875 0.1875
v -0.1875 0.1875 -0.1875
v -0.1875 0 0.1875
v -0.1875 0 -0.1875
v 0 1.0625 0
v 0.019416250000000024 0.75 0.046875
v 0.019416250000000024 1.0625 0.046875
v 0.046875 0.75 0.019416250000000024
v 0.046875 1.0625 0.019416250000000024
v 0.046875 0.75 -0.019416250000000024
v 0.046875 1.0625 -0.019416250000000024
v 0.019416250000000024 0.75 -0.046875
v 0.019416250000000024 1.0625 -0.046875
v -0.019416250000000024 0.75 -0.046875
v -0.019416250000000024 1.0625 -0.046875
v -0.046875 0.75 -0.019416250000000024
v -0.046875 1.0625 -0.019416250000000024
v -0.046875 0.75 0.019416250000000024
v -0.046875 1.0625 0.019416250000000024
v -0.019416250000000024 0.75 0.046875
v -0.019416250000000024 1.0625 0.046875
v 0 0.96875 0
v 0.04530437499999995 0.8125 0.109375
v 0.04530437499999995 0.96875 0.109375
v 0.109375 0.8125 0.04530437499999995
v 0.109375 0.96875 0.04530437499999995
v 0.109375 0.8125 -0.04530437499999995
v 0.109375 0.96875 -0.04530437499999995
v 0.04530437499999995 0.8125 -0.109375
v 0.04530437499999995 0.96875 -0.109375
v -0.04530437499999995 0.8125 -0.109375
v -0.04530437499999995 0.96875 -0.109375
v -0.109375 0.8125 -0.04530437499999995
v -0.109375 0.96875 -0.04530437499999995
v -0.109375 0.8125 0.04530437499999995
v -0.109375 0.96875 0.04530437499999995
v -0.04530437499999995 0.8125 0.109375
v -0.04530437499999995 0.96875 0.109375
v 0.4375 0.765625 0.4375
v 0.4375 0.765625 -0.4375
v 0.4375 0.6875 0.4375
v 0.4375 0.6875 -0.4375
v -0.4375 0.765625 0.4375
v -0.4375 0.765625 -0.4375
v -0.4375 0.6875 0.4375
v -0.4375 0.6875 -0.4375
v 0.4375 0.3125 0.4375
v 0.4375 0.3125 -0.4375
v 0.4375 0.234375 0.4375
v 0.4375 0.234375 -0.4375
v -0.4375 0.3125 0.4375
v -0.4375 0.3125 -0.4375
v -0.4375 0.234375 0.4375
v -0.4375 0.234375 -0.4375
v 0.4375 0.671875 0.4375
v 0.4375 0.671875 -0.4375
v 0.4375 0.640625 0.4375
v 0.4375 0.640625 -0.4375
v -0.4375 0.671875 0.4375
v -0.4375 0.671875 -0.4375
v -0.4375 0.640625 0.4375
v -0.4375 0.640625 -0.4375
v 0.4375 0.609375 0.4375
v 0.4375 0.609375 -0.4375
v 0.4375 0.578125 0.4375
v 0.4375 0.578125 -0.4375
v -0.4375 0.609375 0.4375
v -0.4375 0.609375 -0.4375
v -0.4375 0.578125 0.4375
v -0.4375 0.578125 -0.4375
v 0.4375 0.546875 0.4375
v 0.4375 0.546875 -0.4375
v 0.4375 0.515625 0.4375
v 0.4375 0.515625 -0.4375
v -0.4375 0.546875 0.4375
v -0.4375 0.546875 -0.4375
v -0.4375 0.515625 0.4375
v -0.4375 0.515625 -0.4375
v 0.4375 0.484375 0.4375
v 0.4375 0.484375 -0.4375
v 0.4375 0.453125 0.4375
v 0.4375 0.453125 -0.4375
v -0.4375 0.484375 0.4375
v -0.4375 0.484375 -0.4375
v -0.4375 0.453125 0.4375
v -0.4375 0.453125 -0.4375
v 0.1875 0.6875 -0.5
v 0.1875 0.6875 0.5
v 0.1875 0.3125 -0.5
v 0.1875 0.3125 0.5
v -0.1875 0.6875 -0.5
v -0.1875 0.6875 0.5
v -0.1875 0.3125 -0.5
v -0.1875 0.3125 0.5
v -0.49999999999999994 0.6875 -0.1875
v 0.5 0.6875 -0.1875
v -0.49999999999999994 0.3125 -0.1875
v 0.5 0.3125 -0.1875
v -0.5 0.6875 0.1874999999999999
v 0.5 0.6875 0.1875000000000001
v -0.5 0.3125 0.1874999999999999
v 0.5 0.3125 0.1875000000000001
v 0.4375 0.359375 0.4375
v 0.4375 0.359375 -0.4375
v 0.4375 0.328125 0.4375
v 0.4375 0.328125 -0.4375
v -0.4375 0.359375 0.4375
v -0.4375 0.359375 -0.4375
v -0.4375 0.328125 0.4375
v -0.4375 0.328125 -0.4375
v 0.4375 0.421875 0.4375
v 0.4375 0.421875 -0.4375
v 0.4375 0.390625 0.4375
v 0.4375 0.390625 -0.4375
v -0.4375 0.421875 0.4375
v -0.4375 0.421875 -0.4375
v -0.4375 0.390625 0.4375
v -0.4375 0.390625 -0.4375
v 0 0.734375 0
v 0 0.921875 0
v 0.16827437499999998 0.734375 0.40625
v 0.16827437499999998 0.921875 0.40625
v 0.40625 0.734375 0.16827437499999998
v 0.40625 0.921875 0.16827437499999998
v 0.40625 0.734375 -0.16827437499999998
v 0.40625 0.921875 -0.16827437499999998
v 0.16827437499999998 0.734375 -0.40625
v 0.16827437499999998 0.921875 -0.40625
v -0.16827437499999998 0.734375 -0.40625
v -0.16827437499999998 0.921875 -0.40625
v -0.40625 0.734375 -0.16827437499999998
v -0.40625 0.921875 -0.16827437499999998
v -0.40625 0.734375 0.16827437499999998
v -0.40625 0.921875 0.16827437499999998
v -0.16827437499999998 0.734375 0.40625
v -0.16827437499999998 0.921875 0.40625
v 0.125 0.978125 -0.46406250000000004
v 0.125 0.978125 -0.32343750000000004
v 0.125 0.25 -0.46406250000000004
v 0.125 0.25 -0.32343750000000004
v 0.0625 0.978125 -0.46406250000000004
v 0.0625 0.978125 -0.32343750000000004
v 0.0625 0.25 -0.46406250000000004
v 0.0625 0.25 -0.32343750000000004
v -0.0625 0.978125 -0.46406250000000004
v -0.0625 0.978125 -0.32343750000000004
v -0.0625 0.25 -0.46406250000000004
v -0.0625 0.25 -0.32343750000000004
v -0.125 0.978125 -0.46406250000000004
v -0.125 0.978125 -0.32343750000000004
v -0.125 0.25 -0.46406250000000004
v -0.125 0.25 -0.32343750000000004
v -0.0625 0.978125 0.4640625
v -0.0625 0.978125 0.32343750000000004
v -0.0625 0.25 0.4640625
v -0.0625 0.25 0.32343750000000004
v -0.125 0.978125 0.4640625
v -0.125 0.978125 0.32343750000000004
v -0.125 0.25 0.4640625
v -0.125 0.25 0.32343750000000004
v 0.125 0.978125 0.4640625
v 0.125 0.978125 0.32343750000000004
v 0.125 0.25 0.4640625
v 0.125 0.25 0.32343750000000004
v 0.0625 0.978125 0.4640625
v 0.0625 0.978125 0.32343750000000004
v 0.0625 0.25 0.4640625
v 0.0625 0.25 0.32343750000000004
v -0.4640625 0.9781249999999999 0.06249999999999989
v -0.32343750000000004 0.9781249999999999 0.06249999999999989
v -0.4640625 0.25 0.06249999999999989
v -0.32343750000000004 0.25 0.06249999999999989
v -0.46406250000000004 0.9781249999999999 0.12499999999999989
v -0.32343750000000004 0.9781249999999999 0.12499999999999989
v -0.46406250000000004 0.25 0.12499999999999989
v -0.32343750000000004 0.25 0.12499999999999989
v -0.46406249999999993 0.9781249999999999 -0.125
v -0.32343749999999993 0.9781249999999999 -0.125
v -0.46406249999999993 0.25 -0.125
v -0.32343749999999993 0.25 -0.125
v -0.4640625 0.9781249999999999 -0.06250000000000011
v -0.32343750000000004 0.9781249999999999 -0.06250000000000011
v -0.4640625 0.25 -0.06250000000000011
v -0.32343750000000004 0.25 -0.06250000000000011
v 0.46406250000000004 0.9781249999999999 -0.12499999999999989
v 0.32343750000000004 0.9781249999999999 -0.12499999999999989
v 0.46406250000000004 0.25 -0.12499999999999989
v 0.32343750000000004 0.25 -0.12499999999999989
v 0.46406250000000004 0.9781249999999999 -0.06249999999999989
v 0.32343750000000004 0.9781249999999999 -0.06249999999999989
v 0.46406250000000004 0.25 -0.06249999999999989
v 0.32343750000000004 0.25 -0.06249999999999989
v 0.46406250000000004 0.9781249999999999 0.06250000000000011
v 0.32343750000000004 0.9781249999999999 0.06250000000000011
v 0.46406250000000004 0.25 0.06250000000000011
v 0.32343750000000004 0.25 0.06250000000000011
v 0.4640624999999998 0.9781249999999999 0.1250000000000001
v 0.3234374999999998 0.9781249999999999 0.1250000000000001
v 0.4640624999999998 0.25 0.1250000000000001
v 0.3234374999999998 0.25 0.1250000000000001
vt 0.359375 0.4375
vt 0.3359375 0.4375
vt 0.3359375 0.3359375
vt 0.359375 0.3359375
vt 0.0234375 0.3203125
vt 0.0234375 0.421875
vt 0 0.421875
vt 0 0.3203125
vt 0.2734375 0.25
vt 0.296875 0.25
vt 0.296875 0.2734375
vt 0.2734375 0.2734375
vt 0.7578125 0.296875
vt 0.7578125 0.3203125
vt 0.734375 0.3203125
vt 0.734375 0.296875
vt 0.0546875 0.3203125
vt 0.0546875 0.421875
vt 0.03125 0.421875
vt 0.03125 0.3203125
vt 0.0859375 0.421875
vt 0.0625 0.421875
vt 0.0625 0.3203125
vt 0.0859375 0.3203125
vt 0.1171875 0.421875
vt 0.09375 0.421875
vt 0.09375 0.3203125
vt 0.1171875 0.3203125
vt 0.1484375 0.3203125
vt 0.1484375 0.421875
vt 0.125 0.421875
vt 0.125 0.3203125
vt 0.7421875 0.9765625
vt 0.765625 0.9765625
vt 0.765625 1
vt 0.7421875 1
vt 0.765625 0.9453125
vt 0.765625 0.96875
vt 0.7421875 0.96875
vt 0.7421875 0.9453125
vt 0.1796875 0.3203125
vt 0.1796875 0.421875
vt 0.15625 0.421875
vt 0.15625 0.3203125
vt 0.2109375 0.421875
vt 0.1875 0.421875
vt 0.1875 0.3203125
vt 0.2109375 0.3203125
vt 0.2421875 0.421875
vt 0.21875 0.421875
vt 0.21875 0.3203125
vt 0.2421875 0.3203125
vt 0.2734375 0.3203125
vt 0.2734375 0.421875
vt 0.25 0.421875
vt 0.25 0.3203125
vt 0.7421875 0.6796875
vt 0.765625 0.6796875
vt 0.765625 0.703125
vt 0.7421875 0.703125
vt 0.765625 0.6484375
vt 0.765625 0.671875
vt 0.7421875 0.671875
vt 0.7421875 0.6484375
vt 0.390625 0.3203125
vt 0.390625 0.421875
vt 0.3671875 0.421875
vt 0.3671875 0.3203125
vt 0.421875 0.421875
vt 0.3984375 0.421875
vt 0.3984375 0.3203125
vt 0.421875 0.3203125
vt 0.6328125 0.6875
vt 0.609375 0.6875
vt 0.609375 0.5859375
vt 0.6328125 0.5859375
vt 0.6328125 0.359375
vt 0.6328125 0.4609375
vt 0.609375 0.4609375
vt 0.609375 0.359375
vt 0.7421875 0.6171875
vt 0.765625 0.6171875
vt 0.765625 0.640625
vt 0.7421875 0.640625
vt 0.765625 0.5859375
vt 0.765625 0.609375
vt 0.7421875 0.609375
vt 0.7421875 0.5859375
vt 0.6484375 0.8984375
vt 0.6484375 1
vt 0.625 1
vt 0.625 0.8984375
vt 0.6640625 0.6875
vt 0.640625 0.6875
vt 0.640625 0.5859375
vt 0.6640625 0.5859375
vt 0.52037265625 0.6875
vt 0.54549296875 0.6875
vt 0.54549296875 0.7890625
vt 0.52037265625 0.7890625
vt 0.57607421875 0.90625
vt 0.55634765625 0.90625
vt 0.55634765625 0.8046875
vt 0.57607421875 0.8046875
vt 0.52818515625 0.90625
vt 0.54993984375 0.91881015625
vt 0.542571875 0.926178125
vt 0.52548828125 0.9163148437499999
vt 0.47013203125 0.796875
vt 0.49525234375 0.796875
vt 0.49525234375 0.8984375
vt 0.47013203125 0.8984375
vt 0.52958984375 0.6796875
vt 0.50986328125 0.6796875
vt 0.50986328125 0.578125
vt 0.52958984375 0.578125
vt 0.54993984375 0.91881015625
vt 0.5625 0.94056484375
vt 0.55243515625 0.94326171875
vt 0.542571875 0.926178125
vt 0.49525234375 0.796875
vt 0.52037265625 0.796875
vt 0.52037265625 0.8984375
vt 0.49525234375 0.8984375
vt 0.50986328125 0.6796875
vt 0.49013671875 0.6796875
vt 0.49013671875 0.578125
vt 0.50986328125 0.578125
vt 0.5625 0.94056484375
vt 0.5625 0.96568515625
vt 0.55243515625 0.96298828125
vt 0.55243515625 0.94326171875
vt 0.52037265625 0.796875
vt 0.54549296875 0.796875
vt 0.54549296875 0.8984375
vt 0.52037265625 0.8984375
vt 0.49013671875 0.6796875
vt 0.47041015625 0.6796875
vt 0.47041015625 0.578125
vt 0.49013671875 0.578125
vt 0.5625 0.96568515625
vt 0.54993984375 0.98743984375
vt 0.542571875 0.980071875
vt 0.55243515625 0.96298828125
vt 0.11075703125 0.4296875
vt 0.13587734375 0.4296875
vt 0.13587734375 0.53125
vt 0.11075703125 0.53125
vt 0.43583984375 0.53125
vt 0.41611328125 0.53125
vt 0.41611328125 0.4296875
vt 0.43583984375 0.4296875
vt 0.54993984375 0.98743984375
vt 0.52818515625 1
vt 0.52548828125 0.98993515625
vt 0.542571875 0.980071875
vt 0.13587734375 0.4296875
vt 0.16099765625 0.4296875
vt 0.16099765625 0.53125
vt 0.13587734375 0.53125
vt 0.41611328125 0.53125
vt 0.39638671875 0.53125
vt 0.39638671875 0.4296875
vt 0.41611328125 0.4296875
vt 0.52818515625 1
vt 0.50306484375 1
vt 0.50576171875 0.98993515625
vt 0.52548828125 0.98993515625
vt 0.16099765625 0.4296875
vt 0.18611796875 0.4296875
vt 0.18611796875 0.53125
vt 0.16099765625 0.53125
vt 0.39638671875 0.53125
vt 0.37666015625 0.53125
vt 0.37666015625 0.4296875
vt 0.39638671875 0.4296875
vt 0.50306484375 1
vt 0.48131015625 0.98743984375
vt 0.488678125 0.980071875
vt 0.50576171875 0.98993515625
vt 0.19669453125 0.4296875
vt 0.22181484375 0.4296875
vt 0.22181484375 0.53125
vt 0.19669453125 0.53125
vt 0.59990234375 0.6796875
vt 0.58017578125 0.6796875
vt 0.58017578125 0.578125
vt 0.59990234375 0.578125
vt 0.48131015625 0.98743984375
vt 0.46875 0.96568515625
vt 0.47881484375 0.96298828125
vt 0.488678125 0.980071875
vt 0.22181484375 0.4296875
vt 0.24693515625 0.4296875
vt 0.24693515625 0.53125
vt 0.22181484375 0.53125
vt 0.58017578125 0.6796875
vt 0.56044921875 0.6796875
vt 0.56044921875 0.578125
vt 0.58017578125 0.578125
vt 0.46875 0.96568515625
vt 0.46875 0.94056484375
vt 0.47881484375 0.94326171875
vt 0.47881484375 0.96298828125
vt 0.24693515625 0.4296875
vt 0.27205546875 0.4296875
vt 0.27205546875 0.53125
vt 0.24693515625 0.53125
vt 0.56044921875 0.6796875
vt 0.54072265625 0.6796875
vt 0.54072265625 0.578125
vt 0.56044921875 0.578125
vt 0.46875 0.94056484375
vt 0.48131015625 0.91881015625
vt 0.488678125 0.926178125
vt 0.47881484375 0.94326171875
vt 0.47013203125 0.6875
vt 0.49525234375 0.6875
vt 0.49525234375 0.7890625
vt 0.47013203125 0.7890625
vt 0.61552734375 0.90625
vt 0.59580078125 0.90625
vt 0.59580078125 0.8046875
vt 0.61552734375 0.8046875
vt 0.48131015625 0.91881015625
vt 0.50306484375 0.90625
vt 0.50576171875 0.9163148437499999
vt 0.488678125 0.926178125
vt 0.49525234375 0.6875
vt 0.52037265625 0.6875
vt 0.52037265625 0.7890625
vt 0.49525234375 0.7890625
vt 0.59580078125 0.90625
vt 0.57607421875 0.90625
vt 0.57607421875 0.8046875
vt 0.59580078125 0.8046875
vt 0.50306484375 0.90625
vt 0.52818515625 0.90625
vt 0.52548828125 0.9163148437499999
vt 0.50576171875 0.9163148437499999
vt 0.67662265625 0.833644765625
vt 0.67493984375 0.816804921875
vt 0.696264375 0.8125
vt 0.70124625 0.828673828125
vt 0.335095703125 0.52650234375
vt 0.330498046875 0.5093453125
vt 0.341375390625 0.50306484375
vt 0.353935546875 0.51562578125
vt 0.341375390625 0.50306484375
vt 0.330498046875 0.5093453125
vt 0.324218359375 0.48590781250000004
vt 0.65812875 0.992736328125
vt 0.663110625 0.9765625
vt 0.68443515625 0.980867421875
vt 0.68275234375 0.997707265625
vt 0.353935546875 0.51562578125
vt 0.341375390625 0.50306484375
vt 0.347655859375 0.49218828125
vt 0.364813671875 0.49678515624999997
vt 0.347655859375 0.49218828125
vt 0.341375390625 0.50306484375
vt 0.324218359375 0.48590781250000004
vt 0.68275234375 0.997707265625
vt 0.68443515625 0.980867421875
vt 0.70618984375 0.980867421875
vt 0.70787265625 0.997707265625
vt 0.364813671875 0.49678515624999997
vt 0.347655859375 0.49218828125
vt 0.347655859375 0.47962812499999996
vt 0.364813671875 0.47503046875
vt 0.347655859375 0.47962812499999996
vt 0.347655859375 0.49218828125
vt 0.324218359375 0.48590781250000004
vt 0.70787265625 0.997707265625
vt 0.70618984375 0.980867421875
vt 0.727514375 0.9765625
vt 0.73249625 0.992736328125
vt 0.364813671875 0.47503046875
vt 0.347655859375 0.47962812499999996
vt 0.341376171875 0.46875
vt 0.353936328125 0.45619062499999996
vt 0.341376171875 0.46875
vt 0.347655859375 0.47962812499999996
vt 0.324218359375 0.48590781250000004
vt 0.47062875 0.563048828125
vt 0.475610625 0.546875
vt 0.49693515625 0.551179921875
vt 0.49525234375 0.568019765625
vt 0.353936328125 0.45619062499999996
vt 0.341376171875 0.46875
vt 0.330498828125 0.46247031250000004
vt 0.335095703125 0.4453125
vt 0.330498828125 0.46247031250000004
vt 0.341376171875 0.46875
vt 0.324218359375 0.48590781250000004
vt 0.49525234375 0.568019765625
vt 0.49693515625 0.551179921875
vt 0.51868984375 0.551179921875
vt 0.52037265625 0.568019765625
vt 0.335095703125 0.4453125
vt 0.330498828125 0.46247031250000004
vt 0.317938671875 0.46247031250000004
vt 0.313341015625 0.4453125
vt 0.317938671875 0.46247031250000004
vt 0.330498828125 0.46247031250000004
vt 0.324218359375 0.48590781250000004
vt 0.52037265625 0.568019765625
vt 0.51868984375 0.551179921875
vt 0.540014375 0.546875
vt 0.54499625 0.563048828125
vt 0.313341015625 0.4453125
vt 0.317938671875 0.46247031250000004
vt 0.307061328125 0.46875
vt 0.294501171875 0.45618984375000005
vt 0.307061328125 0.46875
vt 0.317938671875 0.46247031250000004
vt 0.324218359375 0.48590781250000004
vt 0.65812875 0.961486328125
vt 0.663110625 0.9453125
vt 0.68443515625 0.949617421875
vt 0.68275234375 0.966457265625
vt 0.294501171875 0.45618984375000005
vt 0.307061328125 0.46875
vt 0.300780859375 0.47962734375000005
vt 0.283623828125 0.47503046875
vt 0.300780859375 0.47962734375000005
vt 0.307061328125 0.46875
vt 0.324218359375 0.48590781250000004
vt 0.68275234375 0.966457265625
vt 0.68443515625 0.949617421875
vt 0.70618984375 0.949617421875
vt 0.70787265625 0.966457265625
vt 0.283623828125 0.47503046875
vt 0.300780859375 0.47962734375000005
vt 0.300780859375 0.4921875
vt 0.283623828125 0.49678515624999997
vt 0.300780859375 0.4921875
vt 0.300780859375 0.47962734375000005
vt 0.324218359375 0.48590781250000004
vt 0.70787265625 0.966457265625
vt 0.70618984375 0.949617421875
vt 0.727514375 0.9453125
vt 0.73249625 0.961486328125
vt 0.283623828125 0.49678515624999997
vt 0.300780859375 0.4921875
vt 0.307060546875 0.50306484375
vt 0.294500390625 0.515625
vt 0.307060546875 0.50306484375
vt 0.300780859375 0.4921875
vt 0.324218359375 0.48590781250000004
vt 0.62687875 0.828673828125
vt 0.631860625 0.8125
vt 0.65318515625 0.816804921875
vt 0.65150234375 0.833644765625
vt 0.294500390625 0.515625
vt 0.307060546875 0.50306484375
vt 0.317937890625 0.5093453125
vt 0.313341015625 0.52650234375
vt 0.317937890625 0.5093453125
vt 0.307060546875 0.50306484375
vt 0.324218359375 0.48590781250000004
vt 0.65150234375 0.833644765625
vt 0.65318515625 0.816804921875
vt 0.67493984375 0.816804921875
vt 0.67662265625 0.833644765625
vt 0.313341015625 0.52650234375
vt 0.317937890625 0.5093453125
vt 0.330498046875 0.5093453125
vt 0.335095703125 0.52650234375
vt 0.330498046875 0.5093453125
vt 0.317937890625 0.5093453125
vt 0.324218359375 0.48590781250000004
vt 0.6171875 0.9453125
vt 0.5703125 0.9453125
vt 0.5703125 0.921875
vt 0.6171875 0.921875
vt 0.40625 0.2890625
vt 0.40625 0.3125
vt 0.359375 0.3125
vt 0.359375 0.2890625
vt 0.6171875 0.953125
vt 0.6171875 1
vt 0.5703125 1
vt 0.5703125 0.953125
vt 0.6015625 0.2890625
vt 0.6015625 0.3125
vt 0.5546875 0.3125
vt 0.5546875 0.2890625
vt 0.734375 0.3515625
vt 0.6875 0.3515625
vt 0.6875 0.328125
vt 0.734375 0.328125
vt 0.71875 0.21875
vt 0.7265625 0.21875
vt 0.7265625 0.2578125
vt 0.71875 0.2578125
vt 0.51023984375 0.23828125
vt 0.513671875 0.24171328125000002
vt 0.5078125 0.244140625
vt 0.65625 0.8984375
vt 0.6640625 0.8984375
vt 0.6640625 0.9375
vt 0.65625 0.9375
vt 0.513671875 0.24171328125000002
vt 0.513671875 0.24656796874999998
vt 0.5078125 0.244140625
vt 0.734375 0.21875
vt 0.7421875 0.21875
vt 0.7421875 0.2578125
vt 0.734375 0.2578125
vt 0.513671875 0.24656796874999998
vt 0.51023984375 0.25
vt 0.5078125 0.244140625
vt 0.7421875 0.5390625
vt 0.75 0.5390625
vt 0.75 0.578125
vt 0.7421875 0.578125
vt 0.51023984375 0.25
vt 0.50538515625 0.25
vt 0.5078125 0.244140625
vt 0.359375 0.2109375
vt 0.3671875 0.2109375
vt 0.3671875 0.25
vt 0.359375 0.25
vt 0.50538515625 0.25
vt 0.501953125 0.24656796874999998
vt 0.5078125 0.244140625
vt 0.6875 0.21875
vt 0.6953125 0.21875
vt 0.6953125 0.2578125
vt 0.6875 0.2578125
vt 0.501953125 0.24656796874999998
vt 0.501953125 0.24171328125000002
vt 0.5078125 0.244140625
vt 0.375 0.2109375
vt 0.3828125 0.2109375
vt 0.3828125 0.25
vt 0.375 0.25
vt 0.501953125 0.24171328125000002
vt 0.50538515625 0.23828125
vt 0.5078125 0.244140625
vt 0.703125 0.21875
vt 0.7109375 0.21875
vt 0.7109375 0.2578125
vt 0.703125 0.2578125
vt 0.50538515625 0.23828125
vt 0.51023984375 0.23828125
vt 0.5078125 0.244140625
vt 0.4375 0.2265625
vt 0.4453125 0.2265625
vt 0.4453125 0.25
vt 0.4375 0.25
vt 0.52128828125 0.94140625
vt 0.529296875 0.94941484375
vt 0.515625 0.955078125
vt 0.7421875 0.3359375
vt 0.75 0.3359375
vt 0.75 0.359375
vt 0.7421875 0.359375
vt 0.529296875 0.94941484375
vt 0.529296875 0.96074140625
vt 0.515625 0.955078125
vt 0.453125 0.2265625
vt 0.4609375 0.2265625
vt 0.4609375 0.25
vt 0.453125 0.25
vt 0.529296875 0.96074140625
vt 0.52128828125 0.96875
vt 0.515625 0.955078125
vt 0.390625 0.2265625
vt 0.3984375 0.2265625
vt 0.3984375 0.25
vt 0.390625 0.25
vt 0.52128828125 0.96875
vt 0.50996171875 0.96875
vt 0.515625 0.955078125
vt 0.46875 0.2265625
vt 0.4765625 0.2265625
vt 0.4765625 0.25
vt 0.46875 0.25
vt 0.50996171875 0.96875
vt 0.501953125 0.96074140625
vt 0.515625 0.955078125
vt 0.40625 0.2265625
vt 0.4140625 0.2265625
vt 0.4140625 0.25
vt 0.40625 0.25
vt 0.501953125 0.96074140625
vt 0.501953125 0.94941484375
vt 0.515625 0.955078125
vt 0.484375 0.2265625
vt 0.4921875 0.2265625
vt 0.4921875 0.25
vt 0.484375 0.25
vt 0.501953125 0.94941484375
vt 0.50996171875 0.94140625
vt 0.515625 0.955078125
vt 0.421875 0.2265625
vt 0.4296875 0.2265625
vt 0.4296875 0.25
vt 0.421875 0.25
vt 0.50996171875 0.94140625
vt 0.52128828125 0.94140625
vt 0.515625 0.955078125
vt 0.8046875 0.515625
vt 0.6953125 0.515625
vt 0.6953125 0.5078125
vt 0.8046875 0.5078125
vt 0.8046875 0.4921875
vt 0.8046875 0.5
vt 0.6953125 0.5
vt 0.6953125 0.4921875
vt 0 0.890625
vt 0.109375 0.890625
vt 0.109375 1
vt 0 1
vt 0.109375 0.7734375
vt 0.109375 0.8828125
vt 0 0.8828125
vt 0 0.7734375
vt 0.8046875 0.4765625
vt 0.8046875 0.484375
vt 0.6953125 0.484375
vt 0.6953125 0.4765625
vt 0.8046875 0.46875
vt 0.6953125 0.46875
vt 0.6953125 0.4609375
vt 0.8046875 0.4609375
vt 0.8046875 0.453125
vt 0.6953125 0.453125
vt 0.6953125 0.4453125
vt 0.8046875 0.4453125
vt 0.8046875 0.4296875
vt 0.8046875 0.4375
vt 0.6953125 0.4375
vt 0.6953125 0.4296875
vt 0.1171875 0.890625
vt 0.2265625 0.890625
vt 0.2265625 1
vt 0.1171875 1
vt 0.2265625 0.7734375
vt 0.2265625 0.8828125
vt 0.1171875 0.8828125
vt 0.1171875 0.7734375
vt 0.8046875 0.4140625
vt 0.8046875 0.421875
vt 0.6953125 0.421875
vt 0.6953125 0.4140625
vt 0.8046875 0.40625
vt 0.6953125 0.40625
vt 0.6953125 0.3984375
vt 0.8046875 0.3984375
vt 0.8046875 0.390625
vt 0.6953125 0.390625
vt 0.6953125 0.3828125
vt 0.8046875 0.3828125
vt 0.8046875 0.3671875
vt 0.8046875 0.375
vt 0.6953125 0.375
vt 0.6953125 0.3671875
vt 0 0.65625
vt 0.109375 0.65625
vt 0.109375 0.765625
vt 0 0.765625
vt 0.34375 0.890625
vt 0.34375 1
vt 0.234375 1
vt 0.234375 0.890625
vt 0.8125 0.9296875
vt 0.8125 0.9375
vt 0.703125 0.9375
vt 0.703125 0.9296875
vt 0.8125 0.921875
vt 0.703125 0.921875
vt 0.703125 0.9140625
vt 0.8125 0.9140625
vt 0.8125 0.90625
vt 0.703125 0.90625
vt 0.703125 0.8984375
vt 0.8125 0.8984375
vt 0.8125 0.8828125
vt 0.8125 0.890625
vt 0.703125 0.890625
vt 0.703125 0.8828125
vt 0.1171875 0.65625
vt 0.2265625 0.65625
vt 0.2265625 0.765625
vt 0.1171875 0.765625
vt 0.34375 0.7734375
vt 0.34375 0.8828125
vt 0.234375 0.8828125
vt 0.234375 0.7734375
vt 0.8125 0.8671875
vt 0.8125 0.875
vt 0.703125 0.875
vt 0.703125 0.8671875
vt 0.8125 0.859375
vt 0.703125 0.859375
vt 0.703125 0.8515625
vt 0.8125 0.8515625
vt 0.5234375 0.296875
vt 0.4140625 0.296875
vt 0.4140625 0.2890625
vt 0.5234375 0.2890625
vt 0.8203125 0.8359375
vt 0.8203125 0.84375
vt 0.7109375 0.84375
vt 0.7109375 0.8359375
vt 0.234375 0.65625
vt 0.34375 0.65625
vt 0.34375 0.765625
vt 0.234375 0.765625
vt 0.109375 0.5390625
vt 0.109375 0.6484375
vt 0 0.6484375
vt 0 0.5390625
vt 0.8203125 0.8203125
vt 0.8203125 0.828125
vt 0.7109375 0.828125
vt 0.7109375 0.8203125
vt 0.8203125 0.8125
vt 0.7109375 0.8125
vt 0.7109375 0.8046875
vt 0.8203125 0.8046875
vt 0.8203125 0.796875
vt 0.7109375 0.796875
vt 0.7109375 0.7890625
vt 0.8203125 0.7890625
vt 0.8203125 0.7734375
vt 0.8203125 0.78125
vt 0.7109375 0.78125
vt 0.7109375 0.7734375
vt 0.3515625 0.890625
vt 0.4609375 0.890625
vt 0.4609375 1
vt 0.3515625 1
vt 0.2265625 0.5390625
vt 0.2265625 0.6484375
vt 0.1171875 0.6484375
vt 0.1171875 0.5390625
vt 0.8203125 0.7578125
vt 0.8203125 0.765625
vt 0.7109375 0.765625
vt 0.7109375 0.7578125
vt 0.8203125 0.75
vt 0.7109375 0.75
vt 0.7109375 0.7421875
vt 0.8203125 0.7421875
vt 0.6796875 0.75
vt 0.6796875 0.796875
vt 0.5546875 0.796875
vt 0.5546875 0.75
vt 0.6796875 0.7421875
vt 0.5546875 0.7421875
vt 0.5546875 0.6953125
vt 0.6796875 0.6953125
vt 0.6015625 0.3203125
vt 0.6015625 0.4453125
vt 0.5546875 0.4453125
vt 0.5546875 0.3203125
vt 0.28125 0.3125
vt 0.328125 0.3125
vt 0.328125 0.4375
vt 0.28125 0.4375
vt 0.671875 0.84375
vt 0.671875 0.890625
vt 0.625 0.890625
vt 0.625 0.84375
vt 0.6875 0.4609375
vt 0.640625 0.4609375
vt 0.640625 0.4140625
vt 0.6875 0.4140625
vt 0.6796875 0.75
vt 0.6796875 0.796875
vt 0.5546875 0.796875
vt 0.5546875 0.75
vt 0.6796875 0.7421875
vt 0.5546875 0.7421875
vt 0.5546875 0.6953125
vt 0.6796875 0.6953125
vt 0.6015625 0.3203125
vt 0.6015625 0.4453125
vt 0.5546875 0.4453125
vt 0.5546875 0.3203125
vt 0.28125 0.3125
vt 0.328125 0.3125
vt 0.328125 0.4375
vt 0.28125 0.4375
vt 0.671875 0.84375
vt 0.671875 0.890625
vt 0.625 0.890625
vt 0.625 0.84375
vt 0.6875 0.4609375
vt 0.640625 0.4609375
vt 0.640625 0.4140625
vt 0.6875 0.4140625
vt 0.8203125 0.734375
vt 0.7109375 0.734375
vt 0.7109375 0.7265625
vt 0.8203125 0.7265625
vt 0.8203125 0.7109375
vt 0.8203125 0.71875
vt 0.7109375 0.71875
vt 0.7109375 0.7109375
vt 0.3515625 0.7734375
vt 0.4609375 0.7734375
vt 0.4609375 0.8828125
vt 0.3515625 0.8828125
vt 0.34375 0.5390625
vt 0.34375 0.6484375
vt 0.234375 0.6484375
vt 0.234375 0.5390625
vt 0.796875 0.28125
vt 0.796875 0.2890625
vt 0.6875 0.2890625
vt 0.6875 0.28125
vt 0.46875 0.28125
vt 0.359375 0.28125
vt 0.359375 0.2734375
vt 0.46875 0.2734375
vt 0.5859375 0.28125
vt 0.4765625 0.28125
vt 0.4765625 0.2734375
vt 0.5859375 0.2734375
vt 0.796875 0.265625
vt 0.796875 0.2734375
vt 0.6875 0.2734375
vt 0.6875 0.265625
vt 0.3515625 0.65625
vt 0.4609375 0.65625
vt 0.4609375 0.765625
vt 0.3515625 0.765625
vt 0.4609375 0.5390625
vt 0.4609375 0.6484375
vt 0.3515625 0.6484375
vt 0.3515625 0.5390625
vt 0.46875 0.2578125
vt 0.46875 0.265625
vt 0.359375 0.265625
vt 0.359375 0.2578125
vt 0.5859375 0.265625
vt 0.4765625 0.265625
vt 0.4765625 0.2578125
vt 0.5859375 0.2578125
vt 0.5546875 0.5093156249999999
vt 0.524940625 0.5390625
vt 0.50390625 0.48828125
vt 0.6953125 0.6171875
vt 0.734375 0.6171875
vt 0.734375 0.640625
vt 0.6953125 0.640625
vt 0.071815625 0.4296875
vt 0.1015625 0.45943437499999995
vt 0.05078125 0.48046875
vt 0.5546875 0.46724687499999995
vt 0.5546875 0.5093156249999999
vt 0.50390625 0.48828125
vt 0.6875 0.296875
vt 0.7265625 0.296875
vt 0.7265625 0.3203125
vt 0.6875 0.3203125
vt 0.1015625 0.45943437499999995
vt 0.1015625 0.5015031249999999
vt 0.05078125 0.48046875
vt 0.524940625 0.4375
vt 0.5546875 0.46724687499999995
vt 0.50390625 0.48828125
vt 0.6953125 0.5859375
vt 0.734375 0.5859375
vt 0.734375 0.609375
vt 0.6953125 0.609375
vt 0.1015625 0.5015031249999999
vt 0.071815625 0.53125
vt 0.05078125 0.48046875
vt 0.482871875 0.4375
vt 0.524940625 0.4375
vt 0.50390625 0.48828125
vt 0.2578125 0.28125
vt 0.296875 0.28125
vt 0.296875 0.3046875
vt 0.2578125 0.3046875
vt 0.071815625 0.53125
vt 0.029746875 0.53125
vt 0.05078125 0.48046875
vt 0.453125 0.46724687499999995
vt 0.482871875 0.4375
vt 0.50390625 0.48828125
vt 0.6953125 0.5546875
vt 0.734375 0.5546875
vt 0.734375 0.578125
vt 0.6953125 0.578125
vt 0.029746875 0.53125
vt 0 0.5015031249999999
vt 0.05078125 0.48046875
vt 0.453125 0.5093156249999999
vt 0.453125 0.46724687499999995
vt 0.50390625 0.48828125
vt 0.6953125 0.6796875
vt 0.734375 0.6796875
vt 0.734375 0.703125
vt 0.6953125 0.703125
vt 0 0.5015031249999999
vt 0 0.45943437499999995
vt 0.05078125 0.48046875
vt 0.482871875 0.5390625
vt 0.453125 0.5093156249999999
vt 0.50390625 0.48828125
vt 0.6953125 0.5234375
vt 0.734375 0.5234375
vt 0.734375 0.546875
vt 0.6953125 0.546875
vt 0 0.45943437499999995
vt 0.029746875 0.4296875
vt 0.05078125 0.48046875
vt 0.524940625 0.5390625
vt 0.482871875 0.5390625
vt 0.50390625 0.48828125
vt 0.6953125 0.6484375
vt 0.734375 0.6484375
vt 0.734375 0.671875
vt 0.6953125 0.671875
vt 0.029746875 0.4296875
vt 0.071815625 0.4296875
vt 0.05078125 0.48046875
vt 0.6796875 0.2578125
vt 0.6796875 0.3515625
vt 0.6640625 0.3515625
vt 0.6640625 0.2578125
vt 0.6875 0.6875
vt 0.671875 0.6875
vt 0.671875 0.59375
vt 0.6875 0.59375
vt 0.4375 0.3046875
vt 0.4375 0.3203125
vt 0.4296875 0.3203125
vt 0.4296875 0.3046875
vt 0.5234375 0.234375
vt 0.53125 0.234375
vt 0.53125 0.25
vt 0.5234375 0.25
vt 0.4375 0.421875
vt 0.4296875 0.421875
vt 0.4296875 0.328125
vt 0.4375 0.328125
vt 0.3515625 0.234375
vt 0.3515625 0.328125
vt 0.3359375 0.328125
vt 0.3359375 0.234375
vt 0.6953125 0.9375
vt 0.6796875 0.9375
vt 0.6796875 0.84375
vt 0.6953125 0.84375
vt 0.546875 0.234375
vt 0.546875 0.25
vt 0.5390625 0.25
vt 0.5390625 0.234375
vt 0.5546875 0.234375
vt 0.5625 0.234375
vt 0.5625 0.25
vt 0.5546875 0.25
vt 0.3125 0.3046875
vt 0.3046875 0.3046875
vt 0.3046875 0.2109375
vt 0.3125 0.2109375
vt 0.015625 0.3125
vt 0 0.3125
vt 0 0.21875
vt 0.015625 0.21875
vt 0.0390625 0.21875
vt 0.0390625 0.3125
vt 0.0234375 0.3125
vt 0.0234375 0.21875
vt 0.5703125 0.234375
vt 0.578125 0.234375
vt 0.578125 0.25
vt 0.5703125 0.25
vt 0.6640625 0.234375
vt 0.6640625 0.25
vt 0.65625 0.25
vt 0.65625 0.234375
vt 0.328125 0.2109375
vt 0.328125 0.3046875
vt 0.3203125 0.3046875
vt 0.3203125 0.2109375
vt 0.0625 0.3125
vt 0.046875 0.3125
vt 0.046875 0.21875
vt 0.0625 0.21875
vt 0.0859375 0.21875
vt 0.0859375 0.3125
vt 0.0703125 0.3125
vt 0.0703125 0.21875
vt 0.671875 0.234375
vt 0.6796875 0.234375
vt 0.6796875 0.25
vt 0.671875 0.25
vt 0.7578125 0.2421875
vt 0.7578125 0.2578125
vt 0.75 0.2578125
vt 0.75 0.2421875
vt 0.6171875 0.203125
vt 0.6171875 0.296875
vt 0.609375 0.296875
vt 0.609375 0.203125
vt 0.109375 0.21875
vt 0.109375 0.3125
vt 0.09375 0.3125
vt 0.09375 0.21875
vt 0.1328125 0.3125
vt 0.1171875 0.3125
vt 0.1171875 0.21875
vt 0.1328125 0.21875
vt 0.28125 0.2265625
vt 0.28125 0.2421875
vt 0.2734375 0.2421875
vt 0.2734375 0.2265625
vt 0.2890625 0.2265625
vt 0.296875 0.2265625
vt 0.296875 0.2421875
vt 0.2890625 0.2421875
vt 0.6328125 0.296875
vt 0.625 0.296875
vt 0.625 0.203125
vt 0.6328125 0.203125
vt 0.15625 0.21875
vt 0.15625 0.3125
vt 0.140625 0.3125
vt 0.140625 0.21875
vt 0.1796875 0.3125
vt 0.1640625 0.3125
vt 0.1640625 0.21875
vt 0.1796875 0.21875
vt 0.765625 0.5625
vt 0.765625 0.578125
vt 0.7578125 0.578125
vt 0.7578125 0.5625
vt 0.7578125 0.5390625
vt 0.765625 0.5390625
vt 0.765625 0.5546875
vt 0.7578125 0.5546875
vt 0.6484375 0.296875
vt 0.640625 0.296875
vt 0.640625 0.203125
vt 0.6484375 0.203125
vt 0.203125 0.3125
vt 0.1875 0.3125
vt 0.1875 0.21875
vt 0.203125 0.21875
vt 0.703125 0.7109375
vt 0.703125 0.8046875
vt 0.6875 0.8046875
vt 0.6875 0.7109375
vt 0.7578125 0.34375
vt 0.765625 0.34375
vt 0.765625 0.359375
vt 0.7578125 0.359375
vt 0.7734375 0.3203125
vt 0.7734375 0.3359375
vt 0.765625 0.3359375
vt 0.765625 0.3203125
vt 0.6015625 0.1875
vt 0.6015625 0.28125
vt 0.59375 0.28125
vt 0.59375 0.1875
vt 0.2265625 0.3125
vt 0.2109375 0.3125
vt 0.2109375 0.21875
vt 0.2265625 0.21875
vt 0.25 0.21875
vt 0.25 0.3125
vt 0.234375 0.3125
vt 0.234375 0.21875
vt 0.765625 0.296875
vt 0.7734375 0.296875
vt 0.7734375 0.3125
vt 0.765625 0.3125
vt 0.7734375 0.2421875
vt 0.7734375 0.2578125
vt 0.765625 0.2578125
vt 0.765625 0.2421875
vt 0.265625 0.1796875
vt 0.265625 0.2734375
vt 0.2578125 0.2734375
vt 0.2578125 0.1796875
vn 1 0 0
vn -1 0 0
vn 0 1 0
vn 0 -1 0
vn 0 0 1
vn 0 0 -1
vn 1 0 0
vn -1 0 0
vn 0 1 0
vn 0 -1 0
vn 0 0 1
vn 0 0 -1
vn 1 0 0
vn -1 0 0
vn 0 1 0
vn 0 -1 0
vn 0 0 1
vn 0 0 -1
vn 1 0 0
vn -1 0 0
vn 0 1 0
vn 0 -1 0
vn 0 0 1
vn 0 0 -1
vn 0.5000024352623962 0 0.8660239977804733
vn -0.5000011702687018 0 -0.8660247281284345
vn 0 1 0
vn 0.8660239977804733 0 0.5000024352623962
vn -0.866024728128434 0 -0.5000011702687026
vn 0 1 0
vn 1 0 0
vn -1 0 0
vn 0 1 0
vn 0.8660239977804733 0 -0.5000024352623962
vn -0.8660247281284338 0 0.5000011702687028
vn 0 1 0
vn 0.5000024352623962 0 -0.8660239977804733
vn -0.5000011702687028 0 0.8660247281284338
vn 0 1 0
vn 0 0 -1
vn 0 0 1
vn 0 1 0
vn -0.5000024352623962 0 -0.8660239977804733
vn 0.5000011702687026 0 0.866024728128434
vn 0 1 0
vn -0.8660239977804733 0 -0.5000024352623962
vn 0.8660247281284345 0 0.5000011702687018
vn 0 1 0
vn -1 0 0
vn 1 0 0
vn 0 1 0
vn -0.8660239977804733 0 0.5000024352623962
vn 0.8660247281284346 0 -0.5000011702687015
vn 0 1 0
vn -0.5000024352623962 0 0.8660239977804733
vn 0.5000011702687015 0 -0.8660247281284346
vn 0 1 0
vn 0 0 1
vn 0 0 -1
vn 0 1 0
vn 0.46392708263275884 -0.3729319800608777 0.8035504963894495
vn 0 -1 0
vn 0 -1 0
vn 0.8035530104136941 -0.37292475743333625 0.4639285340959073
vn 0 -1 0
vn 0 -1 0
vn 0.9278595073833981 -0.37292993250507256 0
vn 0 -1 0
vn 0 -1 0
vn 0.8035504963894495 -0.3729319800608777 -0.46392708263275884
vn 0 -1 0
vn 0 -1 0
vn 0.4639285340959073 -0.37292475743333625 -0.8035530104136941
vn 0 -1 0
vn 0 -1 0
vn 0 -0.37292993250507256 -0.9278595073833981
vn 0 -1 0
vn 0 -1 0
vn -0.46392708263275884 -0.3729319800608777 -0.8035504963894495
vn 0 -1 0
vn 0 -1 0
vn -0.8035530104136941 -0.37292475743333625 -0.4639285340959073
vn 0 -1 0
vn 0 -1 0
vn -0.9278595073833981 -0.37292993250507256 0
vn 0 -1 0
vn 0 -1 0
vn -0.8035504963894495 -0.3729319800608777 0.46392708263275884
vn 0 -1 0
vn 0 -1 0
vn -0.4639285340959073 -0.37292475743333625 0.8035530104136941
vn 0 -1 0
vn 0 -1 0
vn 0 -0.37292993250507256 0.9278595073833981
vn 0 -1 0
vn 0 -1 0
vn 1 0 0
vn -1 0 0
vn 0 -1 0
vn 0 0 1
vn 0 0 -1
vn 0.7071067811865476 0 0.7071067811865476
vn 0 1 0
vn 1 0 0
vn 0 1 0
vn 0.7071067811865476 0 -0.7071067811865476
vn 0 1 0
vn 0 0 -1
vn 0 1 0
vn -0.7071067811865476 0 -0.7071067811865476
vn 0 1 0
vn -1 0 0
vn 0 1 0
vn -0.7071067811865476 0 0.7071067811865476
vn 0 1 0
vn 0 0 1
vn 0 1 0
vn 0.7071067811865476 0 0.7071067811865476
vn 0 1 0
vn 1 0 0
vn 0 1 0
vn 0.7071067811865476 0 -0.7071067811865476
vn 0 1 0
vn 0 0 -1
vn 0 1 0
vn -0.7071067811865476 0 -0.7071067811865476
vn 0 1 0
vn -1 0 0
vn 0 1 0
vn -0.7071067811865476 0 0.7071067811865476
vn 0 1 0
vn 0 0 1
vn 0 1 0
vn 1 0 0
vn -1 0 0
vn 0 1 0
vn 0 -1 0
vn 0 0 1
vn 0 0 -1
vn 1 0 0
vn -1 0 0
vn 0 1 0
vn 0 -1 0
vn 0 0 1
vn 0 0 -1
vn 1 0 0
vn -1 0 0
vn 0 1 0
vn 0 -1 0
vn 0 0 1
vn 0 0 -1
vn 1 0 0
vn -1 0 0
vn 0 1 0
vn 0 -1 0
vn 0 0 1
vn 0 0 -1
vn 1 0 0
vn -1 0 0
vn 0 1 0
vn 0 -1 0
vn 0 0 1
vn 0 0 -1
vn 1 0 0
vn -1 0 0
vn 0 1 0
vn 0 -1 0
vn 0 0 1
vn 0 0 -1
vn 1 0 0
vn -1 0 0
vn 0 1 0
vn 0 -1 0
vn 0 0 1
vn 0 0 -1
vn 0 0 -1
vn -2.220446049250313e-16 0 1
vn 0 1 0
vn 0 -1 0
vn 1 0 0
vn -1 0 -1.480297366166876e-16
vn 1 0 0
vn -1 0 0
vn 0 1 0
vn 0 -1 0
vn 0 0 1
vn 0 0 -1
vn 1 0 0
vn -1 0 0
vn 0 1 0
vn 0 -1 0
vn 0 0 1
vn 0 0 -1
vn 0 -1 0
vn 0.7071067811865476 0 0.7071067811865476
vn 0 1 0
vn 0 -1 0
vn 1 0 0
vn 0 1 0
vn 0 -1 0
vn 0.7071067811865476 0 -0.7071067811865476
vn 0 1 0
vn 0 -1 0
vn 0 0 -1
vn 0 1 0
vn 0 -1 0
vn -0.7071067811865476 0 -0.7071067811865476
vn 0 1 0
vn 0 -1 0
vn -1 0 0
vn 0 1 0
vn 0 -1 0
vn -0.7071067811865476 0 0.7071067811865476
vn 0 1 0
vn 0 -1 0
vn 0 0 1
vn 0 1 0
vn 1 0 0
vn -1 0 0
vn 0 1 0
vn 0 -1 0
vn 0 0 -1
vn 1 0 0
vn -1 0 0
vn 0 1 0
vn 0 -1 0
vn 0 0 -1
vn 1 0 0
vn -1 0 0
vn 0 1 0
vn 0 -1 0
vn 0 0 1
vn 1 0 0
vn -1 0 0
vn 0 1 0
vn 0 -1 0
vn 0 0 1
vn 0 0 -1
vn 0 0 1
vn 0 1 0
vn 0 -1 0
vn -1 0 -8.881784197001252e-16
vn 0 0 -1
vn 0 0 1
vn 0 1 0
vn 0 -1 0
vn -1 0 -8.881784197001268e-16
vn 0 0 -1
vn 0 0 1
vn 0 1 0
vn 0 -1 0
vn 1 0 0
vn 0 0 -1
vn 0 0 1
vn 0 1 0
vn 0 -1 0
vn 1 0 3.552713678800501e-15
usemtl m_42c89144-42d6-5ad7-9922-2acc24c8233d
f 2/1/1 1/2/1 3/3/1 4/4/1
f 7/5/2 5/6/2 6/7/2 8/8/2
f 5/9/3 1/10/3 2/11/3 6/12/3
f 4/13/4 3/14/4 7/15/4 8/16/4
f 3/17/5 1/18/5 5/19/5 7/20/5
f 6/21/6 2/22/6 4/23/6 8/24/6
f 10/25/7 9/26/7 11/27/7 12/28/7
f 15/29/8 13/30/8 14/31/8 16/32/8
f 13/33/9 9/34/9 10/35/9 14/36/9
f 12/37/10 11/38/10 15/39/10 16/40/10
f 11/41/11 9/42/11 13/43/11 15/44/11
f 14/45/12 10/46/12 12/47/12 16/48/12
f 18/49/13 17/50/13 19/51/13 20/52/13
f 23/53/14 21/54/14 22/55/14 24/56/14
f 21/57/15 17/58/15 18/59/15 22/60/15
f 20/61/16 19/62/16 23/63/16 24/64/16
f 19/65/17 17/66/17 21/67/17 23/68/17
f 22/69/18 18/70/18 20/71/18 24/72/18
f 26/73/19 25/74/19 27/75/19 28/76/19
f 31/77/20 29/78/20 30/79/20 32/80/20
f 29/81/21 25/82/21 26/83/21 30/84/21
f 28/85/22 27/86/22 31/87/22 32/88/22
f 27/89/23 25/90/23 29/91/23 31/92/23
f 30/93/24 26/94/24 28/95/24 32/96/24
f 33/97/25 37/98/25 38/99/25 34/100/25
f 36/101/26 40/102/26 39/103/26 35/104/26
f 34/105/27 38/106/27 40/107/27 36/108/27
f 37/109/28 41/110/28 42/111/28 38/112/28
f 40/113/29 44/114/29 43/115/29 39/116/29
f 38/117/30 42/118/30 44/119/30 40/120/30
f 41/121/31 45/122/31 46/123/31 42/124/31
f 44/125/32 48/126/32 47/127/32 43/128/32
f 42/129/33 46/130/33 48/131/33 44/132/33
f 45/133/34 49/134/34 50/135/34 46/136/34
f 48/137/35 52/138/35 51/139/35 47/140/35
f 46/141/36 50/142/36 52/143/36 48/144/36
f 49/145/37 53/146/37 54/147/37 50/148/37
f 52/149/38 56/150/38 55/151/38 51/152/38
f 50/153/39 54/154/39 56/155/39 52/156/39
f 53/157/40 57/158/40 58/159/40 54/160/40
f 56/161/41 60/162/41 59/163/41 55/164/41
f 54/165/42 58/166/42 60/167/42 56/168/42
f 57/169/43 61/170/43 62/171/43 58/172/43
f 60/173/44 64/174/44 63/175/44 59/176/44
f 58/177/45 62/178/45 64/179/45 60/180/45
f 61/181/46 65/182/46 66/183/46 62/184/46
f 64/185/47 68/186/47 67/187/47 63/188/47
f 62/189/48 66/190/48 68/191/48 64/192/48
f 65/193/49 69/194/49 70/195/49 66/196/49
f 68/197/50 72/198/50 71/199/50 67/200/50
f 66/201/51 70/202/51 72/203/51 68/204/51
f 69/205/52 73/206/52 74/207/52 70/208/52
f 72/209/53 76/210/53 75/211/53 71/212/53
f 70/213/54 74/214/54 76/215/54 72/216/54
f 73/217/55 77/218/55 78/219/55 74/220/55
f 76/221/56 80/222/56 79/223/56 75/224/56
f 74/225/57 78/226/57 80/227/57 76/228/57
f 77/229/58 33/230/58 34/231/58 78/232/58
f 80/233/59 36/234/59 35/235/59 79/236/59
f 78/237/60 34/238/60 36/239/60 80/240/60
f 82/241/61 83/242/61 86/243/61 85/244/61
f 83/245/62 84/246/62 87/247/62 86/248/62
f 87/249/63 84/250/63 81/251/63
f 85/252/64 86/253/64 89/254/64 88/255/64
f 86/256/65 87/257/65 90/258/65 89/259/65
f 90/260/66 87/261/66 81/262/66
f 88/263/67 89/264/67 92/265/67 91/266/67
f 89/267/68 90/268/68 93/269/68 92/270/68
f 93/271/69 90/272/69 81/273/69
f 91/274/70 92/275/70 95/276/70 94/277/70
f 92/278/71 93/279/71 96/280/71 95/281/71
f 96/282/72 93/283/72 81/284/72
f 94/285/73 95/286/73 98/287/73 97/288/73
f 95/289/74 96/290/74 99/291/74 98/292/74
f 99/293/75 96/294/75 81/295/75
f 97/296/76 98/297/76 101/298/76 100/299/76
f 98/300/77 99/301/77 102/302/77 101/303/77
f 102/304/78 99/305/78 81/306/78
f 100/307/79 101/308/79 104/309/79 103/310/79
f 101/311/80 102/312/80 105/313/80 104/314/80
f 105/315/81 102/316/81 81/317/81
f 103/318/82 104/319/82 107/320/82 106/321/82
f 104/322/83 105/323/83 108/324/83 107/325/83
f 108/326/84 105/327/84 81/328/84
f 106/329/85 107/330/85 110/331/85 109/332/85
f 107/333/86 108/334/86 111/335/86 110/336/86
f 111/337/87 108/338/87 81/339/87
f 109/340/88 110/341/88 113/342/88 112/343/88
f 110/344/89 111/345/89 114/346/89 113/347/89
f 114/348/90 111/349/90 81/350/90
f 112/351/91 113/352/91 116/353/91 115/354/91
f 113/355/92 114/356/92 117/357/92 116/358/92
f 117/359/93 114/360/93 81/361/93
f 115/362/94 116/363/94 83/364/94 82/365/94
f 116/366/95 117/367/95 84/368/95 83/369/95
f 84/370/96 117/371/96 81/372/96
f 119/373/97 118/374/97 120/375/97 121/376/97
f 124/377/98 122/378/98 123/379/98 125/380/98
f 121/381/99 120/382/99 124/383/99 125/384/99
f 120/385/100 118/386/100 122/387/100 124/388/100
f 123/389/101 119/390/101 121/391/101 125/392/101
f 127/393/102 129/394/102 130/395/102 128/396/102
f 128/397/103 130/398/103 126/399/103
f 129/400/104 131/401/104 132/402/104 130/403/104
f 130/404/105 132/405/105 126/406/105
f 131/407/106 133/408/106 134/409/106 132/410/106
f 132/411/107 134/412/107 126/413/107
f 133/414/108 135/415/108 136/416/108 134/417/108
f 134/418/109 136/419/109 126/420/109
f 135/421/110 137/422/110 138/423/110 136/424/110
f 136/425/111 138/426/111 126/427/111
f 137/428/112 139/429/112 140/430/112 138/431/112
f 138/432/113 140/433/113 126/434/113
f 139/435/114 141/436/114 142/437/114 140/438/114
f 140/439/115 142/440/115 126/441/115
f 141/442/116 127/443/116 128/444/116 142/445/116
f 142/446/117 128/447/117 126/448/117
f 144/449/118 146/450/118 147/451/118 145/452/118
f 145/453/119 147/454/119 143/455/119
f 146/456/120 148/457/120 149/458/120 147/459/120
f 147/460/121 149/461/121 143/462/121
f 148/463/122 150/464/122 151/465/122 149/466/122
f 149/467/123 151/468/123 143/469/123
f 150/470/124 152/471/124 153/472/124 151/473/124
f 151/474/125 153/475/125 143/476/125
f 152/477/126 154/478/126 155/479/126 153/480/126
f 153/481/127 155/482/127 143/483/127
f 154/484/128 156/485/128 157/486/128 155/487/128
f 155/488/129 157/489/129 143/490/129
f 156/491/130 158/492/130 159/493/130 157/494/130
f 157/495/131 159/496/131 143/497/131
f 158/498/132 144/499/132 145/500/132 159/501/132
f 159/502/133 145/503/133 143/504/133
f 161/505/134 160/506/134 162/507/134 163/508/134
f 166/509/135 164/510/135 165/511/135 167/512/135
f 164/513/136 160/514/136 161/515/136 165/516/136
f 163/517/137 162/518/137 166/519/137 167/520/137
f 162/521/138 160/522/138 164/523/138 166/524/138
f 165/525/139 161/526/139 163/527/139 167/528/139
f 169/529/140 168/530/140 170/531/140 171/532/140
f 174/533/141 172/534/141 173/535/141 175/536/141
f 172/537/142 168/538/142 169/539/142 173/540/142
f 171/541/143 170/542/143 174/543/143 175/544/143
f 170/545/144 168/546/144 172/547/144 174/548/144
f 173/549/145 169/550/145 171/551/145 175/552/145
f 177/553/146 176/554/146 178/555/146 179/556/146
f 182/557/147 180/558/147 181/559/147 183/560/147
f 180/561/148 176/562/148 177/563/148 181/564/148
f 179/565/149 178/566/149 182/567/149 183/568/149
f 178/569/150 176/570/150 180/571/150 182/572/150
f 181/573/151 177/574/151 179/575/151 183/576/151
f 185/577/152 184/578/152 186/579/152 187/580/152
f 190/581/153 188/582/153 189/583/153 191/584/153
f 188/585/154 184/586/154 185/587/154 189/588/154
f 187/589/155 186/590/155 190/591/155 191/592/155
f 186/593/156 184/594/156 188/595/156 190/596/156
f 189/597/157 185/598/157 187/599/157 191/600/157
f 193/601/158 192/602/158 194/603/158 195/604/158
f 198/605/159 196/606/159 197/607/159 199/608/159
f 196/609/160 192/610/160 193/611/160 197/612/160
f 195/613/161 194/614/161 198/615/161 199/616/161
f 194/617/162 192/618/162 196/619/162 198/620/162
f 197/621/163 193/622/163 195/623/163 199/624/163
f 201/625/164 200/626/164 202/627/164 203/628/164
f 206/629/165 204/630/165 205/631/165 207/632/165
f 204/633/166 200/634/166 201/635/166 205/636/166
f 203/637/167 202/638/167 206/639/167 207/640/167
f 202/641/168 200/642/168 204/643/168 206/644/168
f 205/645/169 201/646/169 203/647/169 207/648/169
f 210/649/170 208/650/170 209/651/170 211/652/170
f 213/653/171 212/654/171 214/655/171 215/656/171
f 209/657/172 208/658/172 212/659/172 213/660/172
f 214/661/173 210/662/173 211/663/173 215/664/173
f 211/665/174 209/666/174 213/667/174 215/668/174
f 212/669/175 208/670/175 210/671/175 214/672/175
f 218/673/176 216/674/176 217/675/176 219/676/176
f 221/677/177 220/678/177 222/679/177 223/680/177
f 217/681/178 216/682/178 220/683/178 221/684/178
f 222/685/179 218/686/179 219/687/179 223/688/179
f 219/689/180 217/690/180 221/691/180 223/692/180
f 220/693/181 216/694/181 218/695/181 222/696/181
f 225/697/182 224/698/182 226/699/182 227/700/182
f 230/701/183 228/702/183 229/703/183 231/704/183
f 228/705/184 224/706/184 225/707/184 229/708/184
f 227/709/185 226/710/185 230/711/185 231/712/185
f 226/713/186 224/714/186 228/715/186 230/716/186
f 229/717/187 225/718/187 227/719/187 231/720/187
f 233/721/188 232/722/188 234/723/188 235/724/188
f 238/725/189 236/726/189 237/727/189 239/728/189
f 236/729/190 232/730/190 233/731/190 237/732/190
f 235/733/191 234/734/191 238/735/191 239/736/191
f 234/737/192 232/738/192 236/739/192 238/740/192
f 237/741/193 233/742/193 235/743/193 239/744/193
f 244/745/194 242/746/194 240/747/194
f 242/748/195 244/749/195 245/750/195 243/751/195
f 243/752/196 245/753/196 241/754/196
f 246/755/197 244/756/197 240/757/197
f 244/758/198 246/759/198 247/760/198 245/761/198
f 245/762/199 247/763/199 241/764/199
f 248/765/200 246/766/200 240/767/200
f 246/768/201 248/769/201 249/770/201 247/771/201
f 247/772/202 249/773/202 241/774/202
f 250/775/203 248/776/203 240/777/203
f 248/778/204 250/779/204 251/780/204 249/781/204
f 249/782/205 251/783/205 241/784/205
f 252/785/206 250/786/206 240/787/206
f 250/788/207 252/789/207 253/790/207 251/791/207
f 251/792/208 253/793/208 241/794/208
f 254/795/209 252/796/209 240/797/209
f 252/798/210 254/799/210 255/800/210 253/801/210
f 253/802/211 255/803/211 241/804/211
f 256/805/212 254/806/212 240/807/212
f 254/808/213 256/809/213 257/810/213 255/811/213
f 255/812/214 257/813/214 241/814/214
f 242/815/215 256/816/215 240/817/215
f 256/818/216 242/819/216 243/820/216 257/821/216
f 257/822/217 243/823/217 241/824/217
f 260/825/218 258/826/218 259/827/218 261/828/218
f 263/829/219 262/830/219 264/831/219 265/832/219
f 259/833/220 258/834/220 262/835/220 263/836/220
f 264/837/221 260/838/221 261/839/221 265/840/221
f 262/841/222 258/842/222 260/843/222 264/844/222
f 268/845/223 266/846/223 267/847/223 269/848/223
f 271/849/224 270/850/224 272/851/224 273/852/224
f 267/853/225 266/854/225 270/855/225 271/856/225
f 272/857/226 268/858/226 269/859/226 273/860/226
f 270/861/227 266/862/227 268/863/227 272/864/227
f 275/865/228 274/866/228 276/867/228 277/868/228
f 280/869/229 278/870/229 279/871/229 281/872/229
f 278/873/230 274/874/230 275/875/230 279/876/230
f 277/877/231 276/878/231 280/879/231 281/880/231
f 276/881/232 274/882/232 278/883/232 280/884/232
f 283/885/233 282/886/233 284/887/233 285/888/233
f 288/889/234 286/890/234 287/891/234 289/892/234
f 286/893/235 282/894/235 283/895/235 287/896/235
f 285/897/236 284/898/236 288/899/236 289/900/236
f 284/901/237 282/902/237 286/903/237 288/904/237
f 292/905/238 290/906/238 291/907/238 293/908/238
f 295/909/239 294/910/239 296/911/239 297/912/239
f 291/913/240 290/914/240 294/915/240 295/916/240
f 296/917/241 292/918/241 293/919/241 297/920/241
f 294/921/242 290/922/242 292/923/242 296/924/242
f 300/925/243 298/926/243 299/927/243 301/928/243
f 303/929/244 302/930/244 304/931/244 305/932/244
f 299/933/245 298/934/245 302/935/245 303/936/245
f 304/937/246 300/938/246 301/939/246 305/940/246
f 302/941/247 298/942/247 300/943/247 304/944/247
f 307/945/248 306/946/248 308/947/248 309/948/248
f 312/949/249 310/950/249 311/951/249 313/952/249
f 310/953/250 306/954/250 307/955/250 311/956/250
f 309/957/251 308/958/251 312/959/251 313/960/251
f 308/961/252 306/962/252 310/963/252 312/964/252
f 315/965/253 314/966/253 316/967/253 317/968/253
f 320/969/254 318/970/254 319/971/254 321/972/254
f 318/973/255 314/974/255 315/975/255 319/976/255
f 317/977/256 316/978/256 320/979/256 321/980/256
f 316/981/257 314/982/257 318/983/257 320/984/257