# Made in Blockbench 5.1.6
mtllib chemical_plant_heater.mtl

o cylinder
v 0.06863 0.6311300000000002 -0.37499999999999994
v 0 0.5625000000000001 -0.37499999999999994
v 0.02512 0.46875 2.7755575615628914e-17
v 0.02512 0.4687500000000001 -0.37499999999999994
v 0.06863 0.49387000000000003 3.469446951953614e-17
v 0.06863 0.4938700000000001 -0.37499999999999994
v 0.09375 0.53738 4.85722573273506e-17
v 0.09375 0.5373800000000001 -0.37499999999999994
v 0.09375 0.58762 5.551115123125783e-17
v 0.09375 0.58762 -0.37499999999999994
v 0.06863 0.63113 6.938893903907228e-17
v 0.02512 0.65625 6.938893903907228e-17
v 0.02512 0.6562500000000001 -0.37499999999999994
v -0.02512 0.65625 6.938893903907228e-17
v -0.02512 0.6562500000000001 -0.37499999999999994
v -0.06863 0.63113 6.938893903907228e-17
v -0.06863 0.6311300000000002 -0.37499999999999994
v -0.09375 0.58762 5.551115123125783e-17
v -0.09375 0.58762 -0.37499999999999994
v -0.09375 0.53738 4.85722573273506e-17
v -0.09375 0.5373800000000001 -0.37499999999999994
v -0.06863 0.49387000000000003 3.469446951953614e-17
v -0.06863 0.4938700000000001 -0.37499999999999994
v -0.02512 0.46875 2.7755575615628914e-17
v -0.02512 0.4687500000000001 -0.37499999999999994
v 0.045753749999999996 0.60825375 -0.4999999999999999
v 0 0.5625 -0.5
v 0.016746249999999997 0.5 -0.37499999999999994
v 0.016746249999999997 0.5 -0.5
v 0.045753749999999996 0.51674625 -0.37499999999999994
v 0.045753749999999996 0.5167462500000001 -0.5
v 0.0625 0.54575375 -0.37499999999999994
v 0.0625 0.54575375 -0.5
v 0.0625 0.57924625 -0.37499999999999994
v 0.0625 0.5792462500000001 -0.5
v 0.045753749999999996 0.60825375 -0.37499999999999994
v 0.016746249999999997 0.625 -0.37499999999999994
v 0.016746249999999997 0.625 -0.4999999999999999
v -0.016746249999999997 0.625 -0.37499999999999994
v -0.016746249999999997 0.625 -0.4999999999999999
v -0.045753749999999996 0.60825375 -0.37499999999999994
v -0.045753749999999996 0.60825375 -0.4999999999999999
v -0.0625 0.57924625 -0.37499999999999994
v -0.0625 0.5792462500000001 -0.5
v -0.0625 0.54575375 -0.37499999999999994
v -0.0625 0.54575375 -0.5
v -0.045753749999999996 0.51674625 -0.37499999999999994
v -0.045753749999999996 0.5167462500000001 -0.5
v -0.016746249999999997 0.5 -0.37499999999999994
v -0.016746249999999997 0.5 -0.5
v -0.48169403271111055 0.09911204649622007 -0.3933059684771996
v -0.2941940327111106 0.36427708840299233 -0.20580596700898718
v -0.4191940322217064 0.010723698501840684 -0.3308059694560079
v -0.23169403222170645 0.27588874040861294 -0.14330596798779544
v -0.39330568540885313 0.09911204747502836 -0.4816943164715789
v -0.20580568540885313 0.3642770893818007 -0.29419431500336657
v -0.33080568491944895 0.01072369948064894 -0.4191943174503873
v -0.143305684919449 0.27588874138742125 -0.23169431598217483
v 0.48169403271111055 0.09911204649622007 -0.3933059684771996
v 0.2941940327111106 0.36427708840299233 -0.20580596700898718
v 0.4191940322217064 0.010723698501840684 -0.3308059694560079
v 0.23169403222170645 0.27588874040861294 -0.14330596798779544
v 0.39330568540885313 0.09911204747502836 -0.4816943164715789
v 0.20580568540885313 0.3642770893818007 -0.29419431500336657
v 0.33080568491944895 0.01072369948064894 -0.4191943174503873
v 0.143305684919449 0.27588874138742125 -0.23169431598217483
v -0.4816943167273078 0.0991120454580339 0.3933056839715961
v -0.2941943167273078 0.36427708736480624 0.20580568250338366
v -0.4191943162379036 0.01072369746365448 0.33080568495040447
v -0.23169431623790365 0.2758887393704269 0.14330568348219191
v -0.3933059694250503 0.09911204643684224 0.48169403196597554
v -0.20580596942505033 0.36427708834361455 0.29419403049776305
v -0.3308059689356462 0.010723698442462848 0.4191940329447838
v -0.1433059689356462 0.27588874034923516 0.23169403147657133
v 0.4816943167273078 0.0991120454580339 0.3933056839715961
v 0.2941943167273078 0.36427708736480624 0.20580568250338366
v 0.4191943162379036 0.01072369746365448 0.33080568495040447
v 0.23169431623790365 0.2758887393704269 0.14330568348219191
v 0.3933059694250503 0.09911204643684224 0.48169403196597554
v 0.20580596942505033 0.36427708834361455 0.29419403049776305
v 0.3308059689356462 0.010723698442462848 0.4191940329447838
v 0.1433059689356462 0.27588874034923516 0.23169403147657133
v 0.5 0.125 -0.4999999999999999
v 0.5 0.125 0.5
v 0.5 0 -0.5
v 0.5 0 0.5
v -0.5 0.125 -0.4999999999999999
v -0.5 0.125 0.5
v -0.5 0 -0.5
v -0.5 0 0.5
v 0.1875 0.6875 0.40624999999999994
v 0.1875 0.6875 0.49999999999999994
v 0.1875 0.31250000000000006 0.40625
v 0.1875 0.3125 0.5
v -0.1875 0.6875 0.40624999999999994
v -0.1875 0.6875 0.49999999999999994
v -0.1875 0.31250000000000006 0.40625
v -0.1875 0.3125 0.5
v 0.1875 0.75 -0.078125
v 0.1875 0.75 0.046875000000000014
v 0.1875 0.375 -0.078125
v 0.1875 0.375 0.046875000000000014
v -0.1875 0.75 -0.078125
v -0.1875 0.75 0.046875000000000014
v -0.1875 0.375 -0.078125
v -0.1875 0.375 0.046875000000000014
v 0.15625 0.625 0.046875000000000014
v 0.15625 0.625 0.40625000000000006
v 0.15625 0.375 0.046875000000000014
v 0.15625 0.37500000000000006 0.40625
v -0.15625 0.625 0.046875000000000014
v -0.15625 0.625 0.40625000000000006
v -0.15625 0.375 0.046875000000000014
v -0.15625 0.37500000000000006 0.40625
v 0.125 0.6875 -0.26562500000000006
v 0.125 0.6875 -0.23437500000000006
v 0.125 0.4375 -0.265625
v 0.125 0.4375 -0.234375
v -0.125 0.6875 -0.26562500000000006
v -0.125 0.6875 -0.23437500000000006
v -0.125 0.4375 -0.265625
v -0.125 0.4375 -0.234375
v 0.15625 0.71875 -0.203125
v 0.15625 0.71875 -0.171875
v 0.15625 0.40625 -0.203125
v 0.15625 0.40625 -0.17187499999999997
v -0.15625 0.71875 -0.203125
v -0.15625 0.71875 -0.171875
v -0.15625 0.40625 -0.203125
v -0.15625 0.40625 -0.17187499999999997
v 0.1875 0.75 -0.140625
v 0.1875 0.75 -0.109375
v 0.1875 0.375 -0.140625
v 0.1875 0.37500000000000006 -0.109375
v -0.1875 0.75 -0.140625
v -0.1875 0.75 -0.109375
v -0.1875 0.375 -0.140625
v -0.1875 0.37500000000000006 -0.109375
v 0.27175499999999997 0.4123800000000001 0.3593749999999999
v 0.203125 0.3437499999999999 -0.375
v 0.203125 0.34375000000000006 0.359375
v 0.228245 0.2499999999999999 -0.375
v 0.228245 0.25000000000000006 0.359375
v 0.27175499999999997 0.2751199999999999 -0.375
v 0.27175499999999997 0.2751200000000001 0.359375
v 0.296875 0.31862999999999997 -0.375
v 0.296875 0.3186300000000001 0.359375
v 0.296875 0.3688699999999999 -0.375
v 0.296875 0.3688700000000001 0.359375
v 0.27175499999999997 0.4123799999999999 -0.3750000000000001
v 0.228245 0.4374999999999999 -0.3750000000000001
v 0.228245 0.43750000000000006 0.3593749999999999
v 0.178005 0.4374999999999999 -0.3750000000000001
v 0.178005 0.43750000000000006 0.3593749999999999
v 0.134495 0.4123799999999999 -0.3750000000000001
v 0.134495 0.4123800000000001 0.3593749999999999
v 0.109375 0.3688699999999999 -0.375
v 0.109375 0.3688700000000001 0.359375
v 0.109375 0.31862999999999997 -0.375
v 0.109375 0.3186300000000001 0.359375
v 0.134495 0.2751199999999999 -0.375
v 0.134495 0.2751200000000001 0.359375
v 0.178005 0.2499999999999999 -0.375
v 0.178005 0.25000000000000006 0.359375
v -0.27175499999999997 0.4123800000000001 0.3593749999999999
v -0.203125 0.3437499999999999 -0.375
v -0.203125 0.34375000000000006 0.359375
v -0.228245 0.2499999999999999 -0.375
v -0.228245 0.25000000000000006 0.359375
v -0.27175499999999997 0.2751199999999999 -0.375
v -0.27175499999999997 0.2751200000000001 0.359375
v -0.296875 0.31862999999999997 -0.375
v -0.296875 0.3186300000000001 0.359375
v -0.296875 0.3688699999999999 -0.375
v -0.296875 0.3688700000000001 0.359375
v -0.27175499999999997 0.4123799999999999 -0.3750000000000001
v -0.228245 0.4374999999999999 -0.3750000000000001
v -0.228245 0.43750000000000006 0.3593749999999999
v -0.178005 0.4374999999999999 -0.3750000000000001
v -0.178005 0.43750000000000006 0.3593749999999999
v -0.134495 0.4123799999999999 -0.3750000000000001
v -0.134495 0.4123800000000001 0.3593749999999999
v -0.109375 0.3688699999999999 -0.375
v -0.109375 0.3688700000000001 0.359375
v -0.109375 0.31862999999999997 -0.375
v -0.109375 0.3186300000000001 0.359375
v -0.134495 0.2751199999999999 -0.375
v -0.134495 0.2751200000000001 0.359375
v -0.178005 0.2499999999999999 -0.375
v -0.178005 0.25000000000000006 0.359375
vt 0.832721875 0.234375
vt 0.832721875 0.09375
vt 0.85569984375 0.09375
vt 0.85569984375 0.234375
vt 0.971815625 0.08119062499999996
vt 0.950059375 0.09375
vt 0.9375 0.046875
vt 0.80054890625 0.234375
vt 0.80054890625 0.09375
vt 0.82352734375 0.09375
vt 0.82352734375 0.234375
vt 0.984375 0.05943437500000004
vt 0.971815625 0.08119062499999996
vt 0.9375 0.046875
vt 0.77757328125 0.234375
vt 0.77757328125 0.09375
vt 0.80054890625 0.09375
vt 0.80054890625 0.234375
vt 0.984375 0.03431562499999996
vt 0.984375 0.05943437500000004
vt 0.9375 0.046875
vt 0.75459765625 0.234375
vt 0.75459765625 0.09375
vt 0.77757328125 0.09375
vt 0.77757328125 0.234375
vt 0.971815625 0.01255937500000004
vt 0.984375 0.03431562499999996
vt 0.9375 0.046875
vt 0.87867546875 0.234375
vt 0.87867546875 0.09375
vt 0.9016515625 0.09375
vt 0.9016515625 0.234375
vt 0.950059375 0
vt 0.971815625 0.01255937500000004
vt 0.9375 0.046875
vt 0.85569953125 0.234375
vt 0.85569953125 0.09375
vt 0.87867546875 0.09375
vt 0.87867546875 0.234375
vt 0.924940625 0
vt 0.950059375 0
vt 0.9375 0.046875
vt 0.8327234375 0.234375
vt 0.8327234375 0.09375
vt 0.85569953125 0.09375
vt 0.85569953125 0.234375
vt 0.903184375 0.01255937500000004
vt 0.924940625 0
vt 0.9375 0.046875
vt 0.80055171875 0.234375
vt 0.80055171875 0.09375
vt 0.82352734375 0.09375
vt 0.82352734375 0.234375
vt 0.890625 0.03431562499999996
vt 0.903184375 0.01255937500000004
vt 0.9375 0.046875
vt 0.77757609375 0.234375
vt 0.77757609375 0.09375
vt 0.80055171875 0.09375
vt 0.80055171875 0.234375
vt 0.890625 0.05943437500000004
vt 0.890625 0.03431562499999996
vt 0.9375 0.046875
vt 0.75459765625 0.234375
vt 0.75459765625 0.09375
vt 0.77757609375 0.09375
vt 0.77757609375 0.234375
vt 0.903184375 0.08119062499999996
vt 0.890625 0.05943437500000004
vt 0.9375 0.046875
vt 0.87867515625 0.234375
vt 0.87867515625 0.09375
vt 0.901653125 0.09375
vt 0.901653125 0.234375
vt 0.924940625 0.09375
vt 0.903184375 0.08119062499999996
vt 0.9375 0.046875
vt 0.85569984375 0.234375
vt 0.85569984375 0.09375
vt 0.87867515625 0.09375
vt 0.87867515625 0.234375
vt 0.950059375 0.09375
vt 0.924940625 0.09375
vt 0.9375 0.046875
vt 0.9390328125 0.09375
vt 0.9390328125 0
vt 0.9536340625 0
vt 0.9536340625 0.09375
vt 0.93121875 0.08746874999999998
vt 0.92034375 0.09375
vt 0.9140625 0.0703125
vt 0.9682375 0.09375
vt 0.9682375 0
vt 0.98284296875 0
vt 0.98284296875 0.09375
vt 0.9375 0.07659375000000002
vt 0.93121875 0.08746874999999998
vt 0.9140625 0.0703125
vt 0.95363203125 0.09375
vt 0.95363203125 0
vt 0.9682375 0
vt 0.9682375 0.09375
vt 0.9375 0.06403124999999998
vt 0.9375 0.07659375000000002
vt 0.9140625 0.0703125
vt 0.93903203125 0.09375
vt 0.93903203125 0
vt 0.95363203125 0
vt 0.95363203125 0.09375
vt 0.93121875 0.053156250000000016
vt 0.9375 0.06403124999999998
vt 0.9140625 0.0703125
vt 0.9682409375 0.09375
vt 0.9682409375 0
vt 0.9828421875 0
vt 0.9828421875 0.09375
vt 0.92034375 0.046875
vt 0.93121875 0.053156250000000016
vt 0.9140625 0.0703125
vt 0.9536340625 0.09375
vt 0.9536340625 0
vt 0.9682409375 0
vt 0.9682409375 0.09375
vt 0.90778125 0.046875
vt 0.92034375 0.046875
vt 0.9140625 0.0703125
vt 0.9390328125 0.09375
vt 0.9390328125 0
vt 0.9536340625 0
vt 0.9536340625 0.09375
vt 0.89690625 0.053156250000000016
vt 0.90778125 0.046875
vt 0.9140625 0.0703125
vt 0.96824296875 0.09375
vt 0.96824296875 0
vt 0.98284296875 0
vt 0.98284296875 0.09375
vt 0.890625 0.06403124999999998
vt 0.89690625 0.053156250000000016
vt 0.9140625 0.0703125
vt 0.9536375 0.09375
vt 0.9536375 0
vt 0.96824296875 0
vt 0.96824296875 0.09375
vt 0.890625 0.07659375000000002
vt 0.890625 0.06403124999999998
vt 0.9140625 0.0703125
vt 0.93903203125 0.09375
vt 0.93903203125 0
vt 0.9536375 0
vt 0.9536375 0.09375
vt 0.89690625 0.08746874999999998
vt 0.890625 0.07659375000000002
vt 0.9140625 0.0703125
vt 0.9682409375 0.09375
vt 0.9682409375 0
vt 0.9828421875 0
vt 0.9828421875 0.09375
vt 0.90778125 0.09375
vt 0.89690625 0.08746874999999998
vt 0.9140625 0.0703125
vt 0.9536340625 0.09375
vt 0.9536340625 0
vt 0.9682409375 0
vt 0.9682409375 0.09375
vt 0.92034375 0.09375
vt 0.90778125 0.09375
vt 0.9140625 0.0703125
vt 0.703125 0.4375
vt 0.609375 0.4375
vt 0.609375 0.40625
vt 0.703125 0.40625
vt 0.703125 0.359375
vt 0.703125 0.390625
vt 0.609375 0.390625
vt 0.609375 0.359375
vt 0.53125 0.390625
vt 0.5 0.390625
vt 0.5 0.296875
vt 0.53125 0.296875
vt 0.640625 0.8125
vt 0.640625 0.71875
vt 0.671875 0.71875
vt 0.671875 0.8125
vt 0.734375 0.671875
vt 0.734375 0.703125
vt 0.640625 0.703125
vt 0.640625 0.671875
vt 0.734375 0.65625
vt 0.640625 0.65625
vt 0.640625 0.625
vt 0.734375 0.625
vt 0.6875 0.515625
vt 0.6875 0.609375
vt 0.65625 0.609375
vt 0.65625 0.515625
vt 0.609375 0.25
vt 0.640625 0.25
vt 0.640625 0.34375
vt 0.609375 0.34375
vt 0.75 0.46875
vt 0.75 0.5
vt 0.65625 0.5
vt 0.65625 0.46875
vt 0.75 0.34375
vt 0.65625 0.34375
vt 0.65625 0.3125
vt 0.75 0.3125
vt 0.546875 0.328125
vt 0.546875 0.234375
vt 0.578125 0.234375
vt 0.578125 0.328125
vt 0.71875 0.8125
vt 0.6875 0.8125
vt 0.6875 0.71875
vt 0.71875 0.71875
vt 0.796875 0.609375
vt 0.703125 0.609375
vt 0.703125 0.578125
vt 0.796875 0.578125
vt 0.796875 0.53125
vt 0.796875 0.5625
vt 0.703125 0.5625
vt 0.703125 0.53125
vt 0.65625 0.203125
vt 0.6875 0.203125
vt 0.6875 0.296875
vt 0.65625 0.296875
vt 0.734375 0.203125
vt 0.734375 0.296875
vt 0.703125 0.296875
vt 0.703125 0.203125
vt 0.734375 0.96875
vt 0.734375 1
vt 0.484375 1
vt 0.484375 0.96875
vt 0.734375 0.953125
vt 0.484375 0.953125
vt 0.484375 0.921875
vt 0.734375 0.921875
vt 0.25 0.75
vt 0.25 1
vt 0 1
vt 0 0.75
vt 0 0.75
vt 0.25 0.75
vt 0.25 1
vt 0 1
vt 0.734375 0.90625
vt 0.484375 0.90625
vt 0.484375 0.875
vt 0.734375 0.875
vt 0.734375 0.828125
vt 0.734375 0.859375
vt 0.484375 0.859375
vt 0.484375 0.828125
vt 0.46875 0.1875
vt 0.46875 0.28125
vt 0.4375 0.28125
vt 0.4375 0.1875
vt 0.515625 0.28125
vt 0.484375 0.28125
vt 0.484375 0.1875
vt 0.515625 0.1875
vt 0.8125 0.421875
vt 0.8125 0.453125
vt 0.71875 0.453125
vt 0.71875 0.421875
vt 0.71875 0.375
vt 0.8125 0.375
vt 0.8125 0.40625
vt 0.71875 0.40625
vt 0.359375 0.90625
vt 0.359375 1
vt 0.265625 1
vt 0.265625 0.90625
vt 0.359375 0.890625
vt 0.265625 0.890625
vt 0.265625 0.796875
vt 0.359375 0.796875
vt 0.03125 0.171875
vt 0.03125 0.265625
vt 0 0.265625
vt 0 0.171875
vt 0.078125 0.265625
vt 0.046875 0.265625
vt 0.046875 0.171875
vt 0.078125 0.171875
vt 0.1875 0.234375
vt 0.1875 0.265625
vt 0.09375 0.265625
vt 0.09375 0.234375
vt 0.734375 0.78125
vt 0.828125 0.78125
vt 0.828125 0.8125
vt 0.734375 0.8125
vt 0.359375 0.6875
vt 0.359375 0.78125
vt 0.265625 0.78125
vt 0.265625 0.6875
vt 0.359375 0.671875
vt 0.265625 0.671875
vt 0.265625 0.578125
vt 0.359375 0.578125
vt 0.640625 0.53125
vt 0.640625 0.59375
vt 0.546875 0.59375
vt 0.546875 0.53125
vt 0.640625 0.515625
vt 0.546875 0.515625
vt 0.546875 0.453125
vt 0.640625 0.453125
vt 0.5625 0.71875
vt 0.5625 0.8125
vt 0.484375 0.8125
vt 0.484375 0.71875
vt 0.484375 0.609375
vt 0.5625 0.609375
vt 0.5625 0.703125
vt 0.484375 0.703125
vt 0.28125 0.15625
vt 0.28125 0.25
vt 0.265625 0.25
vt 0.265625 0.15625
vt 0.3125 0.25
vt 0.296875 0.25
vt 0.296875 0.15625
vt 0.3125 0.15625
vt 0.84375 0.6875
vt 0.84375 0.703125
vt 0.75 0.703125
vt 0.75 0.6875
vt 0.328125 0.234375
vt 0.421875 0.234375
vt 0.421875 0.25
vt 0.328125 0.25
vt 0.46875 0.90625
vt 0.46875 1
vt 0.375 1
vt 0.375 0.90625
vt 0.46875 0.890625
vt 0.375 0.890625
vt 0.375 0.796875
vt 0.46875 0.796875
vt 0.765625 0.203125
vt 0.765625 0.296875
vt 0.75 0.296875
vt 0.75 0.203125
vt 0.609375 0.234375
vt 0.59375 0.234375
vt 0.59375 0.140625
vt 0.609375 0.140625
vt 0.84375 0.65625
vt 0.84375 0.671875
vt 0.75 0.671875
vt 0.75 0.65625
vt 0.75 0.625
vt 0.84375 0.625
vt 0.84375 0.640625
vt 0.75 0.640625
vt 0.46875 0.6875
vt 0.46875 0.78125
vt 0.375 0.78125
vt 0.375 0.6875
vt 0.46875 0.671875
vt 0.375 0.671875
vt 0.375 0.578125
vt 0.46875 0.578125
vt 0.640625 0.140625
vt 0.640625 0.234375
vt 0.625 0.234375
vt 0.625 0.140625
vt 0.109375 0.21875
vt 0.09375 0.21875
vt 0.09375 0.125
vt 0.109375 0.125
vt 0.859375 0.5
vt 0.859375 0.515625
vt 0.765625 0.515625
vt 0.765625 0.5
vt 0.765625 0.46875
vt 0.859375 0.46875
vt 0.859375 0.484375
vt 0.765625 0.484375
vt 0.359375 0.46875
vt 0.359375 0.5625
vt 0.265625 0.5625
vt 0.265625 0.46875
vt 0.46875 0.5625
vt 0.375 0.5625
vt 0.375 0.46875
vt 0.46875 0.46875
vt 0.7562796875 0.8687203125
vt 0.7671578125 0.875
vt 0.7734375 0.8515625
vt 0.3921578125 0.26953125
vt 0.3795984375 0.26953125
vt 0.3795984375 0.453125
vt 0.3921578125 0.453125
vt 0.2202828125 0.203125
vt 0.2094046875 0.20940468749999996
vt 0.2265625 0.2265625
vt 0.75 0.8578421875
vt 0.7562796875 0.8687203125
vt 0.7734375 0.8515625
vt 0.10477734375 0.28515625
vt 0.09221796875 0.28515625
vt 0.09221796875 0.46875
vt 0.10477734375 0.46875
vt 0.2094046875 0.20940468749999996
vt 0.203125 0.22028281250000004
vt 0.2265625 0.2265625
vt 0.75 0.8452828125
vt 0.75 0.8578421875
vt 0.7734375 0.8515625
vt 0.09221796875 0.28515625
vt 0.07965859375 0.28515625
vt 0.07965859375 0.46875
vt 0.09221796875 0.46875
vt 0.203125 0.22028281250000004
vt 0.203125 0.23284218749999996
vt 0.2265625 0.2265625
vt 0.7562796875 0.8344046875
vt 0.75 0.8452828125
vt 0.7734375 0.8515625
vt 0.07965859375 0.28515625
vt 0.06709765625 0.28515625
vt 0.06709765625 0.46875
vt 0.07965859375 0.46875
vt 0.203125 0.23284218749999996
vt 0.2094046875 0.24372031250000004
vt 0.2265625 0.2265625
vt 0.7671578125 0.828125
vt 0.7562796875 0.8344046875
vt 0.7734375 0.8515625
vt 0.3547765625 0.26953125
vt 0.3422171875 0.26953125
vt 0.3422171875 0.453125
vt 0.3547765625 0.453125
vt 0.2094046875 0.24372031250000004
vt 0.2202828125 0.25
vt 0.2265625 0.2265625
vt 0.7797171875 0.828125
vt 0.7671578125 0.828125
vt 0.7734375 0.8515625
vt 0.3422171875 0.26953125
vt 0.3296578125 0.26953125
vt 0.3296578125 0.453125
vt 0.3422171875 0.453125
vt 0.2202828125 0.25
vt 0.2328421875 0.25
vt 0.2265625 0.2265625
vt 0.7905953125 0.8344046875
vt 0.7797171875 0.828125
vt 0.7734375 0.8515625
vt 0.3296578125 0.26953125
vt 0.3170984375 0.26953125
vt 0.3170984375 0.453125
vt 0.3296578125 0.453125
vt 0.2328421875 0.25
vt 0.2437203125 0.24372031250000004
vt 0.2265625 0.2265625
vt 0.796875 0.8452828125
vt 0.7905953125 0.8344046875
vt 0.7734375 0.8515625
vt 0.16727734375 0.28515625
vt 0.15471640625 0.28515625
vt 0.15471640625 0.46875
vt 0.16727734375 0.46875
vt 0.2437203125 0.24372031250000004
vt 0.25 0.23284218749999996
vt 0.2265625 0.2265625
vt 0.796875 0.8578421875
vt 0.796875 0.8452828125
vt 0.7734375 0.8515625
vt 0.15471640625 0.28515625
vt 0.14215703125 0.28515625
vt 0.14215703125 0.46875
vt 0.15471640625 0.46875
vt 0.25 0.23284218749999996
vt 0.25 0.22028281250000004
vt 0.2265625 0.2265625
vt 0.7905953125 0.8687203125
vt 0.796875 0.8578421875
vt 0.7734375 0.8515625
vt 0.14215703125 0.28515625
vt 0.12959765625 0.28515625
vt 0.12959765625 0.46875
vt 0.14215703125 0.46875
vt 0.25 0.22028281250000004
vt 0.2437203125 0.20940468749999996
vt 0.2265625 0.2265625
vt 0.7797171875 0.875
vt 0.7905953125 0.8687203125
vt 0.7734375 0.8515625
vt 0.4172765625 0.26953125
vt 0.4047171875 0.26953125
vt 0.4047171875 0.453125
vt 0.4172765625 0.453125
vt 0.2437203125 0.20940468749999996
vt 0.2328421875 0.203125
vt 0.2265625 0.2265625
vt 0.7671578125 0.875
vt 0.7797171875 0.875
vt 0.7734375 0.8515625
vt 0.4047171875 0.26953125
vt 0.3921578125 0.26953125
vt 0.3921578125 0.453125
vt 0.4047171875 0.453125
vt 0.2328421875 0.203125
vt 0.2202828125 0.203125
vt 0.2265625 0.2265625
vt 0.7671578125 0.875
vt 0.7562796875 0.8687203125
vt 0.7734375 0.8515625
vt 0.3795984375 0.453125
vt 0.3795984375 0.26953125
vt 0.3921578125 0.26953125
vt 0.3921578125 0.453125
vt 0.2094046875 0.20940468749999996
vt 0.2202828125 0.203125
vt 0.2265625 0.2265625
vt 0.7562796875 0.8687203125
vt 0.75 0.8578421875
vt 0.7734375 0.8515625
vt 0.09221796875 0.46875
vt 0.09221796875 0.28515625
vt 0.10477734375 0.28515625
vt 0.10477734375 0.46875
vt 0.203125 0.22028281250000004
vt 0.2094046875 0.20940468749999996
vt 0.2265625 0.2265625
vt 0.75 0.8578421875
vt 0.75 0.8452828125
vt 0.7734375 0.8515625
vt 0.07965859375 0.46875
vt 0.07965859375 0.28515625
vt 0.09221796875 0.28515625
vt 0.09221796875 0.46875
vt 0.203125 0.23284218749999996
vt 0.203125 0.22028281250000004
vt 0.2265625 0.2265625
vt 0.75 0.8452828125
vt 0.7562796875 0.8344046875
vt 0.7734375 0.8515625
vt 0.06709765625 0.46875
vt 0.06709765625 0.28515625
vt 0.07965859375 0.28515625
vt 0.07965859375 0.46875
vt 0.2094046875 0.24372031250000004
vt 0.203125 0.23284218749999996
vt 0.2265625 0.2265625
vt 0.7562796875 0.8344046875
vt 0.7671578125 0.828125
vt 0.7734375 0.8515625
vt 0.3422171875 0.453125
vt 0.3422171875 0.26953125
vt 0.3547765625 0.26953125
vt 0.3547765625 0.453125
vt 0.2202828125 0.25
vt 0.2094046875 0.24372031250000004
vt 0.2265625 0.2265625
vt 0.7671578125 0.828125
vt 0.7797171875 0.828125
vt 0.7734375 0.8515625
vt 0.3296578125 0.453125
vt 0.3296578125 0.26953125
vt 0.3422171875 0.26953125
vt 0.3422171875 0.453125
vt 0.2328421875 0.25
vt 0.2202828125 0.25
vt 0.2265625 0.2265625
vt 0.7797171875 0.828125
vt 0.7905953125 0.8344046875
vt 0.7734375 0.8515625
vt 0.3170984375 0.453125
vt 0.3170984375 0.26953125
vt 0.3296578125 0.26953125
vt 0.3296578125 0.453125
vt 0.2437203125 0.24372031250000004
vt 0.2328421875 0.25
vt 0.2265625 0.2265625
vt 0.7905953125 0.8344046875
vt 0.796875 0.8452828125
vt 0.7734375 0.8515625
vt 0.15471640625 0.46875
vt 0.15471640625 0.28515625
vt 0.16727734375 0.28515625
vt 0.16727734375 0.46875
vt 0.25 0.23284218749999996
vt 0.2437203125 0.24372031250000004
vt 0.2265625 0.2265625
vt 0.796875 0.8452828125
vt 0.796875 0.8578421875
vt 0.7734375 0.8515625
vt 0.14215703125 0.46875
vt 0.14215703125 0.28515625
vt 0.15471640625 0.28515625
vt 0.15471640625 0.46875
vt 0.25 0.22028281250000004
vt 0.25 0.23284218749999996
vt 0.2265625 0.2265625
vt 0.796875 0.8578421875
vt 0.7905953125 0.8687203125
vt 0.7734375 0.8515625
vt 0.12959765625 0.46875
vt 0.12959765625 0.28515625
vt 0.14215703125 0.28515625
vt 0.14215703125 0.46875
vt 0.2437203125 0.20940468749999996
vt 0.25 0.22028281250000004
vt 0.2265625 0.2265625
vt 0.7905953125 0.8687203125
vt 0.7797171875 0.875
vt 0.7734375 0.8515625
vt 0.4047171875 0.453125
vt 0.4047171875 0.26953125
vt 0.4172765625 0.26953125
vt 0.4172765625 0.453125
vt 0.2328421875 0.203125
vt 0.2437203125 0.20940468749999996
vt 0.2265625 0.2265625
vt 0.7797171875 0.875
vt 0.7671578125 0.875
vt 0.7734375 0.8515625
vt 0.3921578125 0.453125
vt 0.3921578125 0.26953125
vt 0.4047171875 0.26953125
vt 0.4047171875 0.453125
vt 0.2202828125 0.203125
vt 0.2328421875 0.203125
vt 0.2265625 0.2265625
vn 0.49999238346988706 -0.8660298011454928 -1.9229724504865437e-16
vn 0 2.220446049250313e-16 -1
vn 0.8660298011454928 -0.49999238346988706 -1.1102061125309583e-16
vn 0 2.220446049250313e-16 -1
vn 1 0 0
vn 0 2.220446049250313e-16 -1
vn 0.8660298011454931 0.49999238346988656 1.1102061125309572e-16
vn 0 2.220446049250313e-16 -1
vn 0.49999238346988656 0.8660298011454929 1.922972450486544e-16
vn 0 2.220446049250313e-16 -1
vn 0 1 2.220446049250313e-16
vn 0 2.220446049250313e-16 -1
vn -0.49999238346988656 0.8660298011454929 1.922972450486544e-16
vn 0 2.220446049250313e-16 -1
vn -0.8660298011454931 0.49999238346988656 1.1102061125309572e-16
vn 0 2.220446049250313e-16 -1
vn -1 0 0
vn 0 2.220446049250313e-16 -1
vn -0.8660298011454928 -0.49999238346988706 -1.1102061125309583e-16
vn 0 2.220446049250313e-16 -1
vn -0.49999238346988706 -0.8660298011454928 -1.9229724504865437e-16
vn 0 2.220446049250313e-16 -1
vn 0 -1 -2.220446049250313e-16
vn 0 2.220446049250313e-16 -1
vn 0.4999722801449908 -0.8660414072586938 -9.61499110617374e-16
vn 0 2.220446049250313e-16 -1
vn 0.8660414072586932 -0.49997228014499207 -1.1101614741826184e-16
vn 0 2.220446049250313e-16 -1
vn 1 0 0
vn 0 2.220446049250313e-16 -1
vn 0.8660414072586932 0.49997228014499207 1.1101614741826184e-16
vn 0 2.220446049250313e-16 -1
vn 0.4999722801449922 0.8660414072586933 1.922998221234747e-16
vn 0 2.220446049250313e-16 -1
vn 0 1 2.220446049250313e-16
vn 0 2.220446049250313e-16 -1
vn -0.4999722801449922 0.8660414072586933 1.922998221234747e-16
vn 0 2.220446049250313e-16 -1
vn -0.8660414072586932 0.49997228014499207 5.550807370913092e-16
vn 0 2.220446049250313e-16 -1
vn -1 0 0
vn 0 2.220446049250313e-16 -1
vn -0.8660414072586932 -0.49997228014499207 -5.550807370913092e-16
vn 0 2.220446049250313e-16 -1
vn -0.4999722801449908 -0.8660414072586938 1.9229982212347481e-16
vn 0 2.220446049250313e-16 -1
vn 0 -1 2.220446049250313e-16
vn 0 2.220446049250313e-16 -1
vn -0.7071067784180599 -7.830466284373145e-9 0.7071067839550352
vn 0.7071067784180592 7.83046682098094e-9 -0.7071067839550358
vn -0.500000003915233 0.7071067839550356 -0.4999999921695338
vn 0.5000000039152332 -0.7071067839550356 0.49999999216953367
vn 0.7071067784180598 -7.830466302876862e-9 0.7071067839550352
vn -0.7071067784180594 7.830466802477222e-9 -0.7071067839550358
vn 0.5000000039152331 0.7071067839550355 -0.4999999921695336
vn -0.5000000039152331 -0.7071067839550356 0.4999999921695337
vn -0.7071067784180595 -7.830466729007051e-9 -0.7071067839550357
vn 0.7071067784180599 7.830466118384386e-9 0.7071067839550352
vn -0.5000000039152331 0.7071067839550355 0.4999999921695336
vn 0.5000000039152334 -0.7071067839550352 -0.49999999216953367
vn 0.7071067784180594 -7.830466710503334e-9 -0.7071067839550357
vn -0.7071067784180599 7.830466136888104e-9 0.7071067839550352
vn 0.5000000039152334 0.7071067839550355 0.4999999921695336
vn -0.5000000039152332 -0.7071067839550353 -0.49999999216953384
vn 1 0 0
vn -1 0 0
vn 0 1 0
vn 0 -1 0
vn 0 2.220446049250313e-16 -1
vn 0 -2.220446049250313e-16 1
vn 1 0 0
vn -1 0 0
vn 0 1 2.220446049250313e-16
vn 0 -1 -2.220446049250313e-16
vn 0 7.401486830834375e-17 1
vn 0 -7.401486830834375e-17 -1
vn 1 0 0
vn -1 0 0
vn 0 1 2.220446049250313e-16
vn 0 -1 -2.220446049250313e-16
vn 0 0 1
vn 0 0 -1
vn 1 0 0
vn -1 0 0
vn 0 1 -8.688701931849045e-17
vn 0 -1 8.68870193184905e-17
vn 1 0 0
vn -1 0 0
vn 0 1 -3.3306690738754696e-15
vn 0 -1 -2.220446049250313e-16
vn 0 2.220446049250312e-16 1
vn 0 -2.220446049250314e-16 -1
vn 1 0 0
vn -1 0 0
vn 0 1 2.220446049250313e-16
vn 0 -1 -2.220446049250313e-16
vn 0 4.44089209850062e-17 1
vn 0 -1.3322676295501876e-16 -1
vn 1 0 0
vn -1 0 0
vn 0 1 2.220446049250313e-16
vn 0 -1 1.5543122344752192e-15
vn 0 0 1
vn 0 4.930380657631324e-32 -1
vn 0 2.220446049250313e-16 -1
vn 0.4999923834698873 -0.8660298011454927 2.014712276630435e-16
vn 0 -2.220446049250313e-16 1
vn 0 2.220446049250313e-16 -1
vn 0.8660298011454928 -0.4999923834698869 7.704791302711775e-17
vn 0 -2.220446049250313e-16 1
vn 0 2.220446049250313e-16 -1
vn 1 0 0
vn 0 -2.220446049250313e-16 1
vn 5.921092791199219e-16 -1.9877581386057255e-15 -1
vn 0.8660298011454924 0.49999238346988734 -1.123107613296579e-16
vn -5.921092791199218e-16 1.987758138605725e-15 1
vn -5.921092791199211e-16 -8.035395803658833e-16 -1
vn 0.49999238346988684 0.8660298011454929 -2.0147122766304355e-16
vn 5.921092791199211e-16 8.035395803658833e-16 1
vn 0 -9.62193288008469e-16 -1
vn 0 1 -2.314933115175858e-16
vn 0 9.62193288008469e-16 1
vn 5.921092791199208e-16 -8.035395803658833e-16 -1
vn -0.4999923834698865 0.8660298011454929 -2.014712276630433e-16
vn -5.921092791199208e-16 8.035395803658833e-16 1
vn -5.921092791199219e-16 -1.9877581386057255e-15 -1
vn -0.8660298011454928 0.499992383469887 -1.1231076132965802e-16
vn 5.921092791199219e-16 1.9877581386057255e-15 1
vn 0 2.220446049250313e-16 -1
vn -1 0 0
vn 0 -2.220446049250313e-16 1
vn 0 2.220446049250313e-16 -1
vn -0.8660298011454931 -0.49999238346988656 1.181879027134146e-16
vn 0 -2.220446049250313e-16 1
vn 0 2.220446049250313e-16 -1
vn -0.499992383469887 -0.8660298011454928 1.6620837936050317e-16
vn 0 -2.220446049250313e-16 1
vn 0 2.220446049250313e-16 -1
vn 0 -1 1.936984851473677e-16
vn 0 -2.220446049250313e-16 1
vn 0 2.220446049250313e-16 -1
vn -0.4999923834698873 -0.8660298011454926 2.0048010654008643e-16
vn 0 -2.220446049250313e-16 1
vn 0 2.220446049250313e-16 -1
vn -0.8660298011454928 -0.4999923834698869 7.7950641943663e-17
vn 0 -2.220446049250313e-16 1
vn 0 2.220446049250313e-16 -1
vn -1 0 0
vn 0 -2.220446049250313e-16 1
vn -5.921092791199218e-16 -1.987758138605725e-15 -1
vn -0.8660298011454924 0.49999238346988734 -1.1574489258301488e-16
vn 5.921092791199219e-16 1.9877581386057255e-15 1
vn 5.921092791199211e-16 -8.035395803658833e-16 -1
vn -0.4999923834698869 0.8660298011454929 -2.004801065400865e-16
vn -5.921092791199211e-16 8.035395803658833e-16 1
vn 0 -9.62193288008469e-16 -1
vn 0 1 -2.314933115175858e-16
vn 0 9.62193288008469e-16 1
vn -5.921092791199208e-16 -8.035395803658833e-16 -1
vn 0.4999923834698866 0.8660298011454929 -2.004801065400865e-16
vn 5.921092791199208e-16 8.035395803658833e-16 1
vn 5.921092791199219e-16 -1.9877581386057255e-15 -1
vn 0.8660298011454928 0.499992383469887 -1.1574489258301476e-16
vn -5.921092791199219e-16 1.9877581386057255e-15 1
vn 0 2.220446049250313e-16 -1
vn 1 0 0
vn 0 -2.220446049250313e-16 1
vn 0 2.220446049250313e-16 -1
vn 0.8660298011454931 -0.49999238346988656 1.1574489258301466e-16
vn 0 -2.220446049250313e-16 1
vn 0 2.220446049250313e-16 -1
vn 0.499992383469887 -0.8660298011454928 1.6774866057435805e-16
vn 0 -2.220446049250313e-16 1
vn 0 2.220446049250313e-16 -1
vn 0 -1 1.936984851473677e-16
vn 0 -2.220446049250313e-16 1
usemtl m_e899f20d-284f-3a45-5f27-7da120f0e976
f 6/1/1 5/2/1 3/3/1 4/4/1
f 6/5/2 4/6/2 2/7/2
f 8/8/3 7/9/3 5/10/3 6/11/3
f 8/12/4 6/13/4 2/14/4
f 10/15/5 9/16/5 7/17/5 8/18/5
f 10/19/6 8/20/6 2/21/6
f 1/22/7 11/23/7 9/24/7 10/25/7
f 1/26/8 10/27/8 2/28/8
f 13/29/9 12/30/9 11/31/9 1/32/9
f 13/33/10 1/34/10 2/35/10
f 15/36/11 14/37/11 12/38/11 13/39/11
f 15/40/12 13/41/12 2/42/12
f 17/43/13 16/44/13 14/45/13 15/46/13
f 17/47/14 15/48/14 2/49/14
f 19/50/15 18/51/15 16/52/15 17/53/15
f 19/54/16 17/55/16 2/56/16
f 21/57/17 20/58/17 18/59/17 19/60/17
f 21/61/18 19/62/18 2/63/18
f 23/64/19 22/65/19 20/66/19 21/67/19
f 23/68/20 21/69/20 2/70/20
f 25/71/21 24/72/21 22/73/21 23/74/21
f 25/75/22 23/76/22 2/77/22
f 4/78/23 3/79/23 24/80/23 25/81/23
f 4/82/24 25/83/24 2/84/24
f 31/85/25 30/86/25 28/87/25 29/88/25
f 31/89/26 29/90/26 27/91/26
f 33/92/27 32/93/27 30/94/27 31/95/27
f 33/96/28 31/97/28 27/98/28
f 35/99/29 34/100/29 32/101/29 33/102/29
f 35/103/30 33/104/30 27/105/30
f 26/106/31 36/107/31 34/108/31 35/109/31
f 26/110/32 35/111/32 27/112/32
f 38/113/33 37/114/33 36/115/33 26/116/33
f 38/117/34 26/118/34 27/119/34
f 40/120/35 39/121/35 37/122/35 38/123/35
f 40/124/36 38/125/36 27/126/36
f 42/127/37 41/128/37 39/129/37 40/130/37
f 42/131/38 40/132/38 27/133/38
f 44/134/39 43/135/39 41/136/39 42/137/39
f 44/138/40 42/139/40 27/140/40
f 46/141/41 45/142/41 43/143/41 44/144/41
f 46/145/42 44/146/42 27/147/42
f 48/148/43 47/149/43 45/150/43 46/151/43
f 48/152/44 46/153/44 27/154/44
f 50/155/45 49/156/45 47/157/45 48/158/45
f 50/159/46 48/160/46 27/161/46
f 29/162/47 28/163/47 49/164/47 50/165/47
f 29/166/48 50/167/48 27/168/48
f 52/169/49 51/170/49 53/171/49 54/172/49
f 57/173/50 55/174/50 56/175/50 58/176/50
f 55/177/51 51/178/51 52/179/51 56/180/51
f 54/181/52 53/182/52 57/183/52 58/184/52
f 61/185/53 59/186/53 60/187/53 62/188/53
f 64/189/54 63/190/54 65/191/54 66/192/54
f 60/193/55 59/194/55 63/195/55 64/196/55
f 65/197/56 61/198/56 62/199/56 66/200/56
f 69/201/57 67/202/57 68/203/57 70/204/57
f 72/205/58 71/206/58 73/207/58 74/208/58
f 68/209/59 67/210/59 71/211/59 72/212/59
f 73/213/60 69/214/60 70/215/60 74/216/60
f 76/217/61 75/218/61 77/219/61 78/220/61
f 81/221/62 79/222/62 80/223/62 82/224/62
f 79/225/63 75/226/63 76/227/63 80/228/63
f 78/229/64 77/230/64 81/231/64 82/232/64
f 85/233/65 83/234/65 84/235/65 86/236/65
f 88/237/66 87/238/66 89/239/66 90/240/66
f 84/241/67 83/242/67 87/243/67 88/244/67
f 89/245/68 85/246/68 86/247/68 90/248/68
f 87/249/69 83/250/69 85/251/69 89/252/69
f 86/253/70 84/254/70 88/255/70 90/256/70
f 93/257/71 91/258/71 92/259/71 94/260/71
f 96/261/72 95/262/72 97/263/72 98/264/72
f 92/265/73 91/266/73 95/267/73 96/268/73
f 97/269/74 93/270/74 94/271/74 98/272/74
f 94/273/75 92/274/75 96/275/75 98/276/75
f 95/277/76 91/278/76 93/279/76 97/280/76
f 101/281/77 99/282/77 100/283/77 102/284/77
f 104/285/78 103/286/78 105/287/78 106/288/78
f 100/289/79 99/290/79 103/291/79 104/292/79
f 105/293/80 101/294/80 102/295/80 106/296/80
f 102/297/81 100/298/81 104/299/81 106/300/81
f 103/301/82 99/302/82 101/303/82 105/304/82
f 109/305/83 107/306/83 108/307/83 110/308/83
f 112/309/84 111/310/84 113/311/84 114/312/84
f 108/313/85 107/314/85 111/315/85 112/316/85
f 113/317/86 109/318/86 110/319/86 114/320/86
f 117/321/87 115/322/87 116/323/87 118/324/87
f 120/325/88 119/326/88 121/327/88 122/328/88
f 116/329/89 115/330/89 119/331/89 120/332/89
f 121/333/90 117/334/90 118/335/90 122/336/90
f 118/337/91 116/338/91 120/339/91 122/340/91
f 119/341/92 115/342/92 117/343/92 121/344/92
f 125/345/93 123/346/93 124/347/93 126/348/93
f 128/349/94 127/350/94 129/351/94 130/352/94
f 124/353/95 123/354/95 127/355/95 128/356/95
f 129/357/96 125/358/96 126/359/96 130/360/96
f 126/361/97 124/362/97 128/363/97 130/364/97
f 127/365/98 123/366/98 125/367/98 129/368/98
f 133/369/99 131/370/99 132/371/99 134/372/99
f 136/373/100 135/374/100 137/375/100 138/376/100
f 132/377/101 131/378/101 135/379/101 136/380/101
f 137/381/102 133/382/102 134/383/102 138/384/102
f 134/385/103 132/386/103 136/387/103 138/388/103
f 135/389/104 131/390/104 133/391/104 137/392/104
f 144/393/105 142/394/105 140/395/105
f 142/396/106 144/397/106 145/398/106 143/399/106
f 143/400/107 145/401/107 141/402/107
f 146/403/108 144/404/108 140/405/108
f 144/406/109 146/407/109 147/408/109 145/409/109
f 145/410/110 147/411/110 141/412/110
f 148/413/111 146/414/111 140/415/111
f 146/416/112 148/417/112 149/418/112 147/419/112
f 147/420/113 149/421/113 141/422/113
f 150/423/114 148/424/114 140/425/114
f 148/426/115 150/427/115 139/428/115 149/429/115
f 149/430/116 139/431/116 141/432/116
f 151/433/117 150/434/117 140/435/117
f 150/436/118 151/437/118 152/438/118 139/439/118
f 139/440/119 152/441/119 141/442/119
f 153/443/120 151/444/120 140/445/120
f 151/446/121 153/447/121 154/448/121 152/449/121
f 152/450/122 154/451/122 141/452/122
f 155/453/123 153/454/123 140/455/123
f 153/456/124 155/457/124 156/458/124 154/459/124
f 154/460/125 156/461/125 141/462/125
f 157/463/126 155/464/126 140/465/126
f 155/466/127 157/467/127 158/468/127 156/469/127
f 156/470/128 158/471/128 141/472/128
f 159/473/129 157/474/129 140/475/129
f 157/476/130 159/477/130 160/478/130 158/479/130
f 158/480/131 160/481/131 141/482/131
f 161/483/132 159/484/132 140/485/132
f 159/486/133 161/487/133 162/488/133 160/489/133
f 160/490/134 162/491/134 141/492/134
f 163/493/135 161/494/135 140/495/135
f 161/496/136 163/497/136 164/498/136 162/499/136
f 162/500/137 164/501/137 141/502/137
f 142/503/138 163/504/138 140/505/138
f 163/506/139 142/507/139 143/508/139 164/509/139
f 164/510/140 143/511/140 141/512/140
f 168/513/141 170/514/141 166/515/141
f 171/516/142 170/517/142 168/518/142 169/519/142
f 171/520/143 169/521/143 167/522/143
f 170/523/144 172/524/144 166/525/144
f 173/526/145 172/527/145 170/528/145 171/529/145
f 173/530/146 171/531/146 167/532/146
f 172/533/147 174/534/147 166/535/147
f 175/536/148 174/537/148 172/538/148 173/539/148
f 175/540/149 173/541/149 167/542/149
f 174/543/150 176/544/150 166/545/150
f 165/546/151 176/547/151 174/548/151 175/549/151
f 165/550/152 175/551/152 167/552/152
f 176/553/153 177/554/153 166/555/153
f 178/556/154 177/557/154 176/558/154 165/559/154
f 178/560/155 165/561/155 167/562/155
f 177/563/156 179/564/156 166/565/156
f 180/566/157 179/567/157 177/568/157 178/569/157
f 180/570/158 178/571/158 167/572/158
f 179/573/159 181/574/159 166/575/159
f 182/576/160 181/577/160 179/578/160 180/579/160
f 182/580/161 180/581/161 167/582/161
f 181/583/162 183/584/162 166/585/162
f 184/586/163 183/587/163 181/588/163 182/589/163
f 184/590/164 182/591/164 167/592/164
f 183/593/165 185/594/165 166/595/165
f 186/596/166 185/597/166 183/598/166 184/599/166
f 186/600/167 184/601/167 167/602/167
f 185/603/168 187/604/168 166/605/168
f 188/606/169 187/607/169 185/608/169 186/609/169
f 188/610/170 186/611/170 167/612/170
f 187/613/171 189/614/171 166/615/171
f 190/616/172 189/617/172 187/618/172 188/619/172
f 190/620/173 188/621/173 167/622/173
f 189/623/174 168/624/174 166/625/174
f 169/626/175 168/627/175 189/628/175 190/629/175
f 169/630/176 190/631/176 167/632/176