# Made in Blockbench 5.1.6
mtllib fluid.mtl

o cylinder
v 0 0 -0.014423076923076924
v 0.351683125 0 1.3137019230769231
v 0.960816875 0 0.9620187980769231
v 1.3125 0 0.35288504807692306
v 1.3125 0 -0.350481201923077
v 0.960816875 0 -0.9596149519230768
v 0.351683125 0 -1.3112980769230769
v -0.351683125 0 -1.3112980769230769
v -0.960816875 0 -0.9596149519230768
v -1.3125 0 -0.350481201923077
v -1.3125 0 0.35288504807692306
v -0.960816875 0 0.9620187980769231
v -0.351683125 0 1.3137019230769231
vt 0.4160453125 0.34375
vt 0.5683296875 0.4316703125
vt 0.328125 0.67578125
vt 0.5683296875 0.4316703125
vt 0.65625 0.5839546875
vt 0.328125 0.67578125
vt 0.65625 0.5839546875
vt 0.65625 0.7597953125
vt 0.328125 0.67578125
vt 0.65625 0.7597953125
vt 0.5683296875 0.9120796875
vt 0.328125 0.67578125
vt 0.5683296875 0.9120796875
vt 0.4160453125 1
vt 0.328125 0.67578125
vt 0.4160453125 1
vt 0.24020468749999999 1
vt 0.328125 0.67578125
vt 0.2402046875 1
vt 0.08792031249999999 0.9120796875
vt 0.328125 0.67578125
vt 0.08792031249999999 0.9120796875
vt 0 0.7597953125
vt 0.328125 0.67578125
vt 0 0.7597953125
vt 0 0.5839546875
vt 0.328125 0.67578125
vt 0 0.5839546875
vt 0.08792031249999999 0.4316703125
vt 0.328125 0.67578125
vt 0.08792031249999999 0.4316703125
vt 0.2402046875 0.34375
vt 0.328125 0.67578125
vt 0.2402046875 0.34375
vt 0.4160453125 0.34375
vt 0.328125 0.67578125
vn 0 1 0
vn 0 1 0
vn 0 1 0
vn 0 1 0
vn 0 1 0
vn 0 1 0
vn 0 1 0
vn 0 1 0
vn 0 1 0
vn 0 1 0
vn 0 1 0
vn 0 1 0
usemtl m_ed1ff7db-2ec4-0907-01bb-afc7f0e7b4c2
f 2/1/1 3/2/1 1/3/1
f 3/4/2 4/5/2 1/6/2
f 4/7/3 5/8/3 1/9/3
f 5/10/4 6/11/4 1/12/4
f 6/13/5 7/14/5 1/15/5
f 7/16/6 8/17/6 1/18/6
f 8/19/7 9/20/7 1/21/7
f 9/22/8 10/23/8 1/24/8
f 10/25/9 11/26/9 1/27/9
f 11/28/10 12/29/10 1/30/10
f 12/31/11 13/32/11 1/33/11
f 13/34/12 2/35/12 1/36/12