# Made in Blockbench 5.1.6
mtllib fluid_cylinder.mtl

o tube
v 0.07996647023809524 0.1875 0.2984375
v 0.07996647023809524 1.625 0.2984375
v 0.21847102976190477 0.1875 0.21847102976190474
v 0.21847102976190477 1.625 0.21847102976190474
v 0.2984375 0.1875 0.07996647023809524
v 0.2984375 1.625 0.07996647023809524
v 0.2984375 0.1875 -0.07996647023809524
v 0.2984375 1.625 -0.07996647023809524
v 0.21847102976190477 0.1875 -0.21847102976190474
v 0.21847102976190477 1.625 -0.21847102976190474
v 0.07996647023809524 0.1875 -0.2984375
v 0.07996647023809524 1.625 -0.2984375
v -0.07996647023809524 0.1875 -0.2984375
v -0.07996647023809524 1.625 -0.2984375
v -0.21847102976190477 0.1875 -0.21847102976190474
v -0.21847102976190477 1.625 -0.21847102976190474
v -0.2984375 0.1875 -0.07996647023809524
v -0.2984375 1.625 -0.07996647023809524
v -0.2984375 0.1875 0.07996647023809524
v -0.2984375 1.625 0.07996647023809524
v -0.21847102976190477 0.1875 0.21847102976190474
v -0.21847102976190477 1.625 0.21847102976190474
v -0.07996647023809524 0.1875 0.2984375
v -0.07996647023809524 1.625 0.2984375
vt 0.36916875 -1.9375
vt 0.5450125 -1.9375
vt 0.5450125 -0.5
vt 0.36916875 -0.5
vt 0.0174875 -0.4375
vt 0.19333125 -0.4375
vt 0.19333125 1
vt 0.0174875 1
vt 0.19333125 -0.4375
vt 0.36916875 -0.4375
vt 0.36916875 1
vt 0.19333125 1
vt 0.36916875 -0.4375
vt 0.5450125 -0.4375
vt 0.5450125 1
vt 0.36916875 1
vt 0.6424875 -0.4375
vt 0.81833125 -0.4375
vt 0.81833125 1
vt 0.6424875 1
vt 0.81833125 -0.4375
vt 0.99416875 -0.4375
vt 0.99416875 1
vt 0.81833125 1
vt 0.99416875 -0.4375
vt 1.1700125 -0.4375
vt 1.1700125 1
vt 0.99416875 1
vt 1.2674875 -0.4375
vt 1.44333125 -0.4375
vt 1.44333125 1
vt 1.2674875 1
vt 1.44333125 -0.4375
vt 1.61916875 -0.4375
vt 1.61916875 1
vt 1.44333125 1
vt 1.61916875 -0.4375
vt 1.7950125 -0.4375
vt 1.7950125 1
vt 1.61916875 1
vt 0.0174875 -1.9375
vt 0.19333125 -1.9375
vt 0.19333125 -0.5
vt 0.0174875 -0.5
vt 0.19333125 -1.9375
vt 0.36916875 -1.9375
vt 0.36916875 -0.5
vt 0.19333125 -0.5
vt 0 1
vt 0 1
vt 0 1
vt 0 1
vt 0 1
vt 0 1
vt 0 1
vt 0 1
vt 0 1
vt 0 1
vt 0 1
vt 0 1
vt 0 1
vt 0 1
vt 0 1
vt 0 1
vt 0 1
vt 0 1
vt 0 1
vt 0 1
vn 0.5000038712398324 0 0.8660231687115427
vn 0.8660231687115428 0 0.5000038712398323
vn 1 0 0
vn 0.8660231687115428 0 -0.5000038712398323
vn 0.5000038712398324 0 -0.8660231687115427
vn 0 0 -1
vn -0.5000038712398324 0 -0.8660231687115427
vn -0.8660231687115428 0 -0.5000038712398323
vn -1 0 0
vn -0.8660231687115428 0 0.5000038712398323
vn -0.5000038712398324 0 0.8660231687115427
vn 0 0 1
vn 0 1 0
vn 0 1 0
vn 0 1 0
vn 0 1 0
vn 0 1 0
usemtl none
f 1/1/1 3/2/1 4/3/1 2/4/1
f 3/5/2 5/6/2 6/7/2 4/8/2
f 5/9/3 7/10/3 8/11/3 6/12/3
f 7/13/4 9/14/4 10/15/4 8/16/4
f 9/17/5 11/18/5 12/19/5 10/20/5
f 11/21/6 13/22/6 14/23/6 12/24/6
f 13/25/7 15/26/7 16/27/7 14/28/7
f 15/29/8 17/30/8 18/31/8 16/32/8
f 17/33/9 19/34/9 20/35/9 18/36/9
f 19/37/10 21/38/10 22/39/10 20/40/10
f 21/41/11 23/42/11 24/43/11 22/44/11
f 23/45/12 1/46/12 2/47/12 24/48/12
f 14/49/13 16/50/13 18/51/13 20/52/13
f 20/53/14 22/54/14 24/55/14 2/56/14
f 2/57/15 4/58/15 6/59/15 8/60/15
f 8/61/16 10/62/16 12/63/16 14/64/16
f 14/65/17 20/66/17 2/67/17 8/68/17