# Made in Blockbench 5.1.6
mtllib freza_carriage.mtl

o Цилиндр.011
v -1.0386387499999998 1.690731875 -0.9888768750000002
v -1.9480781249999999 1.73334 -1.0314850000000004
v -1.9480781249999999 1.690731875 -0.9888768750000004
v -1.0386387499999998 1.73334 -1.0314850000000002
v -1.9480781249999999 1.73334 -1.0806837500000004
v -1.0386387499999998 1.73334 -1.0806837500000002
v -1.9480781249999999 1.690731875 -1.1232918750000005
v -1.9480781249999999 1.462445 -1.1206781250000004
v -1.0386387499999998 1.47804 -1.1788818750000003
v -1.0386387499999998 1.462445 -1.1206781250000002
v -1.9480781249999999 1.47804 -1.1788818750000005
v -1.0386387499999998 1.520648125 -1.2034812500000003
v -1.9480781249999999 1.520648125 -1.2034812500000005
v -1.0386387499999998 1.57885125 -1.1878862500000003
v -1.9480781249999999 1.578851875 -0.9242831250000004
v -1.0386387499999998 1.520648125 -0.9086868750000002
v -1.0386387499999998 1.57885125 -0.9242831250000002
v -1.9480781249999999 1.47804 -0.9332868750000004
v -1.0386387499999998 1.47804 -0.9332868750000002
v -1.0386387499999998 1.462445 -0.9914900000000002
v -1.0386387499999998 1.690731875 -1.1232918750000003
v -1.9480781249999999 1.578851875 -1.1878862500000005
v -1.9480781249999999 1.462445 -0.9914900000000004
v -1.4538418749999997 1.340501875 -0.8770362500000003
v -1.4965237499999997 1.39489125 -1.2554668750000002
v -1.4538418749999997 1.340501875 -1.2351331250000002
v -1.1559299999999997 1.340501875 -1.2351331250000002
v -1.1132481249999997 1.39489125 -0.8567012500000002
v -1.1559299999999997 1.340501875 -0.8770362500000002
v -1.1899037499999998 1.340501875 -1.2351331250000002
v -1.1899037499999998 1.340501875 -0.8770362500000002
v -1.2639218749999999 1.340501875 -0.8770362500000003
v -1.2470187499999998 1.349721875 -0.8770362500000002
v -1.2470187499999998 1.340501875 -0.8770362500000002
v -1.1132481249999997 1.814183125 -1.2554668750000002
v -1.1132481249999997 1.39489125 -1.2554668750000002
v -1.4965237499999997 1.814183125 -0.8567012500000003
v -1.4965237499999997 1.39489125 -0.8567012500000003
v -1.3686318749999997 1.340501875 -1.2351331250000002
v -1.3686318749999997 1.340501875 -0.8770362500000003
v -1.2110999999999998 1.340501875 -1.2351331250000002
v -1.2110999999999998 1.340501875 -0.8770362500000002
v -1.2639218749999999 1.340501875 -1.2351331250000002
v -1.2470187499999998 1.349721875 -1.2351331250000002
v -1.2639218749999999 1.349721875 -1.2351331250000002
v -1.2284887499999997 1.340501875 -1.2351331250000002
v -1.2111012499999998 1.349721875 -1.2351331250000002
v -1.2284887499999997 1.349721875 -1.2351331250000002
v -1.2470187499999998 1.340501875 -1.2351331250000002
v -1.2284887499999997 1.340501875 -0.8770362500000002
v -1.2639218749999999 1.349721875 -0.8770362500000003
v -1.2110999999999998 1.349721875 -0.8770362500000002
v -1.2834212499999997 1.340501875 -1.2351331250000002
v -1.2834212499999997 1.340501875 -0.8770362500000003
v -1.2284887499999997 1.349721875 -0.8770362500000002
v -1.2772699999999997 1.814183125 -1.2554668750000002
v -1.3868968749999997 1.814183125 -1.2554668750000002
v -1.3868968749999997 1.814183125 -0.8567012500000003
v -1.1842268749999998 1.39489125 -1.2554668750000002
v -1.2065987499999997 1.39489125 -0.8567012500000002
v -1.1569568749999999 1.814183125 -0.8567012500000002
v -1.2772699999999997 1.39489125 -1.2554668750000002
v -1.3868968749999997 1.39489125 -1.2554668750000002
v -1.4929549999999998 1.794966875 -1.2211650000000003
v -1.4929549999999998 1.40829 -0.8910037500000003
v -1.4929549999999998 1.40829 -1.2211650000000003
v -1.8762312499999998 1.755663125 -0.8910037500000004
v -1.8762312499999998 1.755663125 -1.2211650000000005
v -1.8335462499999997 1.40829 -0.8910037500000004
v -1.8762312499999998 1.445393125 -1.2211650000000005
v -1.8335462499999997 1.40829 -1.2211650000000005
v -1.4929549999999998 1.794966875 -0.8910037500000003
v -1.8762312499999998 1.445393125 -0.8910037500000004
v -1.9480781249999999 1.520648125 -0.9086868750000004
v -1.1132481249999997 1.814183125 -0.8567012500000002
v -1.4965237499999997 1.814183125 -1.2554668750000002
v -1.1569568749999999 1.814183125 -1.2554668750000002
v -1.1842268749999998 1.814183125 -0.8567012500000002
v -1.1842268749999998 1.814183125 -1.2554668750000002
v -1.2065987499999997 1.814183125 -0.8567012500000002
v -1.2065987499999997 1.814183125 -1.2554668750000002
v -1.2304381249999998 1.814183125 -0.8567012500000002
v -1.2304381249999998 1.814183125 -1.2554668750000002
v -1.2521837499999997 1.814183125 -0.8567012500000003
v -1.2521837499999997 1.814183125 -1.2554668750000002
v -1.2772699999999997 1.814183125 -0.8567012500000003
v -1.2521837499999997 1.39489125 -1.2554668750000002
v -1.2304381249999998 1.39489125 -1.2554668750000002
v -1.2065987499999997 1.39489125 -1.2554668750000002
v -1.1569568749999999 1.39489125 -1.2554668750000002
v -1.3868968749999997 1.39489125 -0.8567012500000003
v -1.2772699999999997 1.39489125 -0.8567012500000003
v -1.2521837499999997 1.39489125 -0.8567012500000003
v -1.2304381249999998 1.39489125 -0.8567012500000002
v -1.1842268749999998 1.39489125 -0.8567012500000002
v -1.1569568749999999 1.39489125 -0.8567012500000002
vt 0.1587871875 0.028906250000000022
vt 0.191378125 0.5207943749999999
vt 0.1587871875 0.5207943749999999
vt 0.0198790625 0.5081109375
vt 0.0464890625 1
vt 0.0198790625 1
vt 0.191378125 0.5207943749999999
vt 0.1587871875 0.028906250000000022
vt 0.191378125 0.028906250000000022
vt 0.191378125 0.5207943749999999
vt 0.1587871875 0.028906250000000022
vt 0.191378125 0.028906250000000022
vt 0.0198790625 0.5081109375
vt 0.0464890625 1
vt 0.0198790625 1
vt 0.1587871875 0.028906250000000022
vt 0.191378125 0.5207943749999999
vt 0.1587871875 0.5207943749999999
vt 0.191378125 0.5207943749999999
vt 0.1587871875 0.028906250000000022
vt 0.191378125 0.028906250000000022
vt 0.0198790625 1
vt 0.0464890625 0.5081109375
vt 0.0464890625 1
vt 0.1587871875 0.028906250000000022
vt 0.191378125 0.5207943749999999
vt 0.1587871875 0.5207943749999999
vt 0.71441125 0.848639375
vt 0.7761521875 0.955578125
vt 0.652670625 0.955578125
vt 0.3168709375 0.4933459375
vt 0.246996875 0.0014581249999999768
vt 0.3168709375 0.0014581249999999768
vt 0.066163125 0.028906250000000022
vt 0.1360371875 0.5207953125
vt 0.066163125 0.5207953125
vt 0.71441125 0.848639375
vt 0.7761521875 0.955578125
vt 0.652670625 0.955578125
vt 0.246996875 0.0014581249999999768
vt 0.3168709375 0.4933459375
vt 0.246996875 0.4933459375
vt 0.090145625 0.95837375
vt 0.062908125 0.7507253125
vt 0.090145625 0.7618825
vt 0.062908125 0.7618825
vt 0.090145625 0.96953125
vt 0.062908125 0.95837375
vt 0.5811990625 0.3488240625
vt 0.5628240625 0.15513999999999994
vt 0.5811990625 0.15513999999999994
vt 0.250296875 0.09616999999999998
vt 0.25944 0.09118312500000003
vt 0.25944 0.09616999999999998
vt 0.842780625 0.34482124999999997
vt 0.624756875 0.12506937500000004
vt 0.842780625 0.12506937500000004
vt 0.842780625 0.34482124999999997
vt 0.624756875 0.12506937500000004
vt 0.842780625 0.12506937500000004
vt 0.3384040625 0.21337812499999997
vt 0.532088125 0.21337812499999997
vt 0.3384040625 0.2594659375
vt 0.342095 0.0711540625
vt 0.53578 0.059689062499999945
vt 0.53578 0.0711540625
vt 0.250296875 0.09118312500000003
vt 0.25944 0.09616999999999998
vt 0.250296875 0.09616999999999998
vt 0.2501659375 0.09118312500000003
vt 0.2595709375 0.09616999999999998
vt 0.2501659375 0.09616999999999998
vt 0.342095 0.08118406249999999
vt 0.5357790625 0.07116187500000004
vt 0.53578 0.08118406249999999
vt 0.342095 0.10840312500000004
vt 0.53578 0.1034159375
vt 0.53578 0.10840312500000004
vt 0.2501659375 0.09616999999999998
vt 0.2595709375 0.09118312500000003
vt 0.2595709375 0.09616999999999998
vt 0.53578 0.1034159375
vt 0.342095 0.10840312500000004
vt 0.342095 0.1034159375
vt 0.342095 0.07069499999999995
vt 0.53578 0.060148125
vt 0.53578 0.07069499999999995
vt 0.53578 0.1034159375
vt 0.342095 0.10840312500000004
vt 0.342095 0.1034159375
vt 0.342095 0.09219812500000002
vt 0.53578 0.08279312500000002
vt 0.53578 0.09219812500000002
vt 0.342095 0.10840312500000004
vt 0.53578 0.1034159375
vt 0.53578 0.10840312500000004
vt 0.6254084375 0.46889218749999995
vt 0.6254084375 0.4064696875
vt 0.8434321875 0.4064696875
vt 0.5357790625 0.08292500000000003
vt 0.342095 0.09206687499999999
vt 0.342095 0.08292500000000003
vt 0.666971875 0.12459187500000002
vt 0.6918140625 0.0978734375
vt 0.70221375 0.0978734375
vt 0.4080696875 0.39688749999999995
vt 0.4080696875 0.344304375
vt 0.625476875 0.36892562500000003
vt 0.627135 0.12459187500000002
vt 0.757683125 0.0978734375
vt 0.7671709375 0.0978734375
vt 0.4080696875 0.4678084375
vt 0.4080696875 0.4060565625
vt 0.625476875 0.4060565625
vt 0.40625 1
vt 0.21875 0.75
vt 0.40625 0.75
vt 0.21875 0.9375
vt 0.40625 0.75
vt 0.40625 0.9375
vt 0.3424275 0.02980875000000005
vt 0.5319390625 0.0007812499999999556
vt 0.5319390625 0.02980875000000005
vt 0.4375 0.8125
vt 0.625 1
vt 0.4375 1
vt 0.434846875 0.802448125
vt 0.64215 0.6133740624999999
vt 0.619063125 0.5933059375
vt 0.21875 0.5625
vt 0.40703125 0.73046875
vt 0.21875 0.73046875
vt 0.64215 0.6133740624999999
vt 0.434846875 0.802448125
vt 0.434846875 0.5933059375
vt 0.1587871875 0.028906250000000022
vt 0.191378125 0.028906250000000022
vt 0.191378125 0.5207943749999999
vt 0.0198790625 0.5081109375
vt 0.0464890625 0.5081109375
vt 0.0464890625 1
vt 0.191378125 0.5207943749999999
vt 0.1587871875 0.5207943749999999
vt 0.1587871875 0.028906250000000022
vt 0.191378125 0.5207943749999999
vt 0.1587871875 0.5207943749999999
vt 0.1587871875 0.028906250000000022
vt 0.0198790625 0.5081109375
vt 0.0464890625 0.5081109375
vt 0.0464890625 1
vt 0.1587871875 0.028906250000000022
vt 0.191378125 0.028906250000000022
vt 0.191378125 0.5207943749999999
vt 0.191378125 0.5207943749999999
vt 0.1587871875 0.5207943749999999
vt 0.1587871875 0.028906250000000022
vt 0.0198790625 1
vt 0.0198790625 0.5081109375
vt 0.0464890625 0.5081109375
vt 0.1587871875 0.028906250000000022
vt 0.191378125 0.028906250000000022
vt 0.191378125 0.5207943749999999
vt 0.652670625 0.955578125
vt 0.6518709375 0.8857084375
vt 0.659944375 0.8541334375
vt 0.659944375 0.8541334375
vt 0.6828365625 0.8405659375
vt 0.71441125 0.848639375
vt 0.71441125 0.848639375
vt 0.77532 0.8828815624999999
vt 0.7986275 0.9056625
vt 0.7986275 0.9056625
vt 0.798931875 0.9322709375
vt 0.7761521875 0.955578125
vt 0.7761521875 0.955578125
vt 0.7160434375 0.991205625
vt 0.6846609375 1
vt 0.6846609375 1
vt 0.6614653125 0.9869596875
vt 0.652670625 0.955578125
vt 0.652670625 0.955578125
vt 0.659944375 0.8541334375
vt 0.71441125 0.848639375
vt 0.71441125 0.848639375
vt 0.7986275 0.9056625
vt 0.7761521875 0.955578125
vt 0.7761521875 0.955578125
vt 0.6846609375 1
vt 0.652670625 0.955578125
vt 0.3168709375 0.4933459375
vt 0.246996875 0.4933459375
vt 0.246996875 0.0014581249999999768
vt 0.066163125 0.028906250000000022
vt 0.1360371875 0.028906250000000022
vt 0.1360371875 0.5207953125
vt 0.652670625 0.955578125
vt 0.6518709375 0.8857084375
vt 0.659944375 0.8541334375
vt 0.659944375 0.8541334375
vt 0.6828365625 0.8405659375
vt 0.71441125 0.848639375
vt 0.71441125 0.848639375
vt 0.77532 0.8828815624999999
vt 0.7986275 0.9056625
vt 0.7986275 0.9056625
vt 0.798931875 0.9322709375
vt 0.7761521875 0.955578125
vt 0.7761521875 0.955578125
vt 0.7160434375 0.991205625
vt 0.6846609375 1
vt 0.6846609375 1
vt 0.6614653125 0.9869596875
vt 0.652670625 0.955578125
vt 0.652670625 0.955578125
vt 0.659944375 0.8541334375
vt 0.71441125 0.848639375
vt 0.71441125 0.848639375
vt 0.7986275 0.9056625
vt 0.7761521875 0.955578125
vt 0.7761521875 0.955578125
vt 0.6846609375 1
vt 0.652670625 0.955578125
vt 0.246996875 0.0014581249999999768
vt 0.3168709375 0.0014581249999999768
vt 0.3168709375 0.4933459375
vt 0.090145625 0.95837375
vt 0.062908125 0.96953125
vt 0.062908125 0.7507253125
vt 0.062908125 0.7618825
vt 0.090145625 0.7507253125
vt 0.090145625 0.96953125
vt 0.5811990625 0.3488240625
vt 0.562823125 0.3488240625
vt 0.5628240625 0.15513999999999994
vt 0.250296875 0.09616999999999998
vt 0.250296875 0.09118312500000003
vt 0.25944 0.09118312500000003
vt 0.842780625 0.34482124999999997
vt 0.624756875 0.34482124999999997
vt 0.624756875 0.12506937500000004
vt 0.842780625 0.34482124999999997
vt 0.624756875 0.34482124999999997
vt 0.624756875 0.12506937500000004
vt 0.3384040625 0.21337812499999997
vt 0.3384040625 0.16729000000000005
vt 0.532088125 0.16729000000000005
vt 0.532088125 0.21337812499999997
vt 0.532088125 0.2594659375
vt 0.3384040625 0.2594659375
vt 0.3384040625 0.21337812499999997
vt 0.532088125 0.16729000000000005
vt 0.532088125 0.21337812499999997
vt 0.342095 0.0711540625
vt 0.342095 0.059689062499999945
vt 0.53578 0.059689062499999945
vt 0.250296875 0.09118312500000003
vt 0.25944 0.09118312500000003
vt 0.25944 0.09616999999999998
vt 0.2501659375 0.09118312500000003
vt 0.2595709375 0.09118312500000003
vt 0.2595709375 0.09616999999999998
vt 0.342095 0.08118406249999999
vt 0.342095 0.07116187500000004
vt 0.5357790625 0.07116187500000004
vt 0.342095 0.10840312500000004
vt 0.342095 0.1034159375
vt 0.53578 0.1034159375
vt 0.2501659375 0.09616999999999998
vt 0.2501659375 0.09118312500000003
vt 0.2595709375 0.09118312500000003
vt 0.53578 0.1034159375
vt 0.53578 0.10840312500000004
vt 0.342095 0.10840312500000004
vt 0.342095 0.07069499999999995
vt 0.342095 0.060148125
vt 0.53578 0.060148125
vt 0.53578 0.1034159375
vt 0.53578 0.10840312500000004
vt 0.342095 0.10840312500000004
vt 0.342095 0.09219812500000002
vt 0.342095 0.08279312500000002
vt 0.53578 0.08279312500000002
vt 0.342095 0.10840312500000004
vt 0.342095 0.1034159375
vt 0.53578 0.1034159375
vt 0.843433125 0.537399375
vt 0.843433125 0.5622878124999999
vt 0.6254084375 0.5622878124999999
vt 0.843433125 0.537399375
vt 0.6254084375 0.5622878124999999
vt 0.6254084375 0.537399375
vt 0.843433125 0.5218721875
vt 0.843433125 0.537399375
vt 0.6254084375 0.537399375
vt 0.843433125 0.5218721875
vt 0.6254084375 0.537399375
vt 0.6254084375 0.5218721875
vt 0.843433125 0.5091328125
vt 0.843433125 0.5218721875
vt 0.6254084375 0.5218721875
vt 0.843433125 0.5091328125
vt 0.6254084375 0.5218721875
vt 0.6254084375 0.5091328125
vt 0.843433125 0.4955596875
vt 0.843433125 0.5091328125
vt 0.6254084375 0.5091328125
vt 0.843433125 0.4955596875
vt 0.6254084375 0.5091328125
vt 0.6254084375 0.4955596875
vt 0.843433125 0.48317687499999995
vt 0.843433125 0.4955596875
vt 0.6254084375 0.4955596875
vt 0.843433125 0.48317687499999995
vt 0.6254084375 0.4955596875
vt 0.6254084375 0.48317687499999995
vt 0.843433125 0.46889218749999995
vt 0.843433125 0.48317687499999995
vt 0.6254084375 0.48317687499999995
vt 0.843433125 0.46889218749999995
vt 0.6254084375 0.48317687499999995
vt 0.6254084375 0.46889218749999995
vt 0.6254084375 0.34404718749999996
vt 0.843433125 0.34404718749999996
vt 0.8434321875 0.4064696875
vt 0.8434321875 0.4064696875
vt 0.843433125 0.46889218749999995
vt 0.6254084375 0.46889218749999995
vt 0.6254084375 0.4064696875
vt 0.6254084375 0.34404718749999996
vt 0.8434321875 0.4064696875
vt 0.5357790625 0.08292500000000003
vt 0.5357790625 0.09206687499999999
vt 0.342095 0.09206687499999999
vt 0.7704696875 0.0978734375
vt 0.818294375 0.0978734375
vt 0.842249375 0.12459187500000002
vt 0.842249375 0.12459187500000002
vt 0.7807209375 0.12459187500000002
vt 0.7191921875 0.12459187500000002
vt 0.842249375 0.12459187500000002
vt 0.7191921875 0.12459187500000002
vt 0.705113125 0.12459187500000002
vt 0.7226446875 0.0978734375
vt 0.7704696875 0.0978734375
vt 0.842249375 0.12459187500000002
vt 0.7117003125 0.0978734375
vt 0.7226446875 0.0978734375
vt 0.842249375 0.12459187500000002
vt 0.842249375 0.12459187500000002
vt 0.705113125 0.12459187500000002
vt 0.6929078125 0.12459187500000002
vt 0.6929078125 0.12459187500000002
vt 0.6795278125 0.12459187500000002
vt 0.666971875 0.12459187500000002
vt 0.6516659375 0.12459187500000002
vt 0.627135 0.12459187500000002
vt 0.65109 0.0978734375
vt 0.842249375 0.12459187500000002
vt 0.6929078125 0.12459187500000002
vt 0.666971875 0.12459187500000002
vt 0.666971875 0.12459187500000002
vt 0.6516659375 0.12459187500000002
vt 0.65109 0.0978734375
vt 0.65109 0.0978734375
vt 0.6701575 0.0978734375
vt 0.6820546875 0.0978734375
vt 0.666971875 0.12459187500000002
vt 0.65109 0.0978734375
vt 0.6820546875 0.0978734375
vt 0.7117003125 0.0978734375
vt 0.842249375 0.12459187500000002
vt 0.666971875 0.12459187500000002
vt 0.70221375 0.0978734375
vt 0.7117003125 0.0978734375
vt 0.666971875 0.12459187500000002
vt 0.666971875 0.12459187500000002
vt 0.6820546875 0.0978734375
vt 0.6918140625 0.0978734375
vt 0.625476875 0.498448125
vt 0.625476875 0.5602003125
vt 0.4080696875 0.5602003125
vt 0.625476875 0.498448125
vt 0.4080696875 0.5602003125
vt 0.4080696875 0.498448125
vt 0.625476875 0.43669625
vt 0.625476875 0.498448125
vt 0.4080696875 0.498448125
vt 0.625476875 0.43669625
vt 0.4080696875 0.498448125
vt 0.4080696875 0.43669625
vt 0.625476875 0.42256562499999994
vt 0.625476875 0.43669625
vt 0.4080696875 0.43669625
vt 0.625476875 0.42256562499999994
vt 0.4080696875 0.43669625
vt 0.4080696875 0.42256562499999994
vt 0.625476875 0.41031625000000005
vt 0.625476875 0.42256562499999994
vt 0.4080696875 0.42256562499999994
vt 0.625476875 0.41031625000000005
vt 0.4080696875 0.42256562499999994
vt 0.4080696875 0.41031625000000005
vt 0.625476875 0.39688749999999995
vt 0.625476875 0.41031625000000005
vt 0.4080696875 0.41031625000000005
vt 0.3369759375 0.42135687499999996
vt 0.3369759375 0.40925687499999996
vt 0.3369759375 0.394508125
vt 0.625476875 0.39688749999999995
vt 0.4080696875 0.41031625000000005
vt 0.4080696875 0.39688749999999995
vt 0.625476875 0.38428593749999995
vt 0.625476875 0.39688749999999995
vt 0.4080696875 0.39688749999999995
vt 0.3369759375 0.42135687499999996
vt 0.3369759375 0.394508125
vt 0.3369759375 0.37086687500000004
vt 0.4080696875 0.344304375
vt 0.625476875 0.344304375
vt 0.625476875 0.36892562500000003
vt 0.625476875 0.36892562500000003
vt 0.625476875 0.38428593749999995
vt 0.4080696875 0.39688749999999995
vt 0.78733 0.0978734375
vt 0.7992259375 0.0978734375
vt 0.818294375 0.0978734375
vt 0.818294375 0.0978734375
vt 0.842249375 0.12459187500000002
vt 0.8177175 0.12459187500000002
vt 0.8024128125 0.12459187500000002
vt 0.7898565625 0.12459187500000002
vt 0.776476875 0.12459187500000002
vt 0.818294375 0.0978734375
vt 0.8177175 0.12459187500000002
vt 0.8024128125 0.12459187500000002
vt 0.78733 0.0978734375
vt 0.818294375 0.0978734375
vt 0.8024128125 0.12459187500000002
vt 0.8024128125 0.12459187500000002
vt 0.776476875 0.12459187500000002
vt 0.7642715625 0.12459187500000002
vt 0.7501921875 0.12459187500000002
vt 0.6886634375 0.12459187500000002
vt 0.627135 0.12459187500000002
vt 0.8024128125 0.12459187500000002
vt 0.7642715625 0.12459187500000002
vt 0.7501921875 0.12459187500000002
vt 0.777570625 0.0978734375
vt 0.78733 0.0978734375
vt 0.8024128125 0.12459187500000002
vt 0.7671709375 0.0978734375
vt 0.777570625 0.0978734375
vt 0.8024128125 0.12459187500000002
vt 0.8024128125 0.12459187500000002
vt 0.7501921875 0.12459187500000002
vt 0.627135 0.12459187500000002
vt 0.627135 0.12459187500000002
vt 0.65109 0.0978734375
vt 0.698915 0.0978734375
vt 0.627135 0.12459187500000002
vt 0.698915 0.0978734375
vt 0.7467396875 0.0978734375
vt 0.7671709375 0.0978734375
vt 0.8024128125 0.12459187500000002
vt 0.627135 0.12459187500000002
vt 0.627135 0.12459187500000002
vt 0.7467396875 0.0978734375
vt 0.757683125 0.0978734375
vt 0.625476875 0.5355803125
vt 0.625476875 0.5602003125
vt 0.4080696875 0.5602003125
vt 0.2119759375 0.5156690625
vt 0.2119759375 0.4920290625
vt 0.2119759375 0.47727906249999996
vt 0.2119759375 0.5156690625
vt 0.2119759375 0.47727906249999996
vt 0.2119759375 0.46517906249999996
vt 0.625476875 0.52021875
vt 0.625476875 0.5355803125
vt 0.4080696875 0.5602003125
vt 0.625476875 0.5076171875
vt 0.625476875 0.52021875
vt 0.4080696875 0.5602003125
vt 0.625476875 0.5076171875
vt 0.4080696875 0.5602003125
vt 0.4080696875 0.5076171875
vt 0.625476875 0.49418874999999995
vt 0.625476875 0.5076171875
vt 0.4080696875 0.5076171875
vt 0.625476875 0.49418874999999995
vt 0.4080696875 0.5076171875
vt 0.4080696875 0.49418874999999995
vt 0.625476875 0.48194000000000004
vt 0.625476875 0.49418874999999995
vt 0.4080696875 0.49418874999999995
vt 0.625476875 0.48194000000000004
vt 0.4080696875 0.49418874999999995
vt 0.4080696875 0.48194000000000004
vt 0.625476875 0.4678084375
vt 0.625476875 0.48194000000000004
vt 0.4080696875 0.48194000000000004
vt 0.625476875 0.4678084375
vt 0.4080696875 0.48194000000000004
vt 0.4080696875 0.4678084375
vt 0.4080696875 0.344304375
vt 0.625476875 0.344304375
vt 0.625476875 0.4060565625
vt 0.625476875 0.4060565625
vt 0.625476875 0.4678084375
vt 0.4080696875 0.4678084375
vt 0.4080696875 0.4060565625
vt 0.4080696875 0.344304375
vt 0.625476875 0.4060565625
vt 0.40625 1
vt 0.21875 1
vt 0.21875 0.75
vt 0.21875 0.9375
vt 0.21875 0.75
vt 0.40625 0.75
vt 0.3424275 0.02980875000000005
vt 0.3424275 0.0007812499999999556
vt 0.5319390625 0.0007812499999999556
vt 0.4375 0.8125
vt 0.625 0.8125
vt 0.625 1
vt 0.619063125 0.5933059375
vt 0.434846875 0.5933059375
vt 0.434846875 0.802448125
vt 0.434846875 0.802448125
vt 0.64215 0.78119
vt 0.64215 0.6133740624999999
vt 0.21875 0.5625
vt 0.40703125 0.5625
vt 0.40703125 0.73046875
vt 0.434846875 0.5933059375
vt 0.619063125 0.5933059375
vt 0.64215 0.6133740624999999
vt 0.64215 0.6133740624999999
vt 0.64215 0.78119
vt 0.434846875 0.802448125
vn -1.5700924586837771e-16 0.7071067811865467 0.7071067811865485
vn 0 1 0
vn 1.5700924586837752e-16 0.7071067811865476 -0.7071067811865476
vn 5.746714536485949e-17 -0.9659285139381614 -0.25880901445122734
vn 1.92297123498411e-16 -0.4999933316361671 -0.866029253731862
vn 2.1447906099389375e-16 0.2588116074518295 -0.9659278191708738
vn 1.7787810359619492e-7 0.25883096249902016 0.9659226329534882
vn -1.922959020966667e-16 -0.5000028591841248 0.8660237530274215
vn -5.74677211266539e-17 -0.9659278191708738 0.2588116074518301
vn -1 0 -2.220446049250313e-16
vn 1.922959509302325e-16 0.5000024782623945 -0.8660239729542503
vn 3.436174961721254e-7 0.4999988498312881 0.8660260678335675
vn 1 0 2.220446049250313e-16
vn 0 -1 0
vn -0.7866880395048703 -0.6173507337810362 -1.7467983493110635e-16
vn 0.7866880395048703 -0.6173507337810362 1.7467983493110635e-16
vn 0 -1 0
vn 2.220446049250313e-16 0 -1
vn 1 0 2.220446049250313e-16
vn -1 0 -2.220446049250313e-16
vn 0 -1 0
vn 0 -1 0
vn -2.220446049250313e-16 0 1
vn -2.220446049250313e-16 0 1
vn 0 -1 0
vn 1 0 2.220446049250313e-16
vn 2.220446049250313e-16 0 -1
vn -1 0 -2.220446049250313e-16
vn 0 -1 0
vn -0.9999999908097319 -0.00013557483605909347 -2.2204460288438186e-16
vn 0 -1 0
vn 1 0 2.220446049250313e-16
vn 0 1 0
vn 0 -1 0
vn 2.0798501821932744e-16 -0.35018314474832085 -0.9366812505512089
vn -2.220446049250313e-16 0 1
vn -2.0798345030076892e-16 -0.35020203190204385 0.936674189273773
vn 2.220446049250313e-16 0 -1
vn 1 0 2.220446049250313e-16
vn -0.10201182477595915 0.9947831862299841 -2.265117533005937e-17
vn -0.6560350654814749 -0.7547304107154533 -1.4566904693180115e-16
vn 0 -1 0
vn -2.220446049250313e-16 0 1
vn -1 0 -2.220446049250313e-16
vn 2.220446049250313e-16 0 -1
vn -1.5700924586837771e-16 0.7071067811865467 0.7071067811865485
vn 0 1 0
vn 1.5700924586837752e-16 0.7071067811865476 -0.7071067811865476
vn 5.746714536485949e-17 -0.9659285139381614 -0.25880901445122734
vn 1.92297123498411e-16 -0.4999933316361671 -0.866029253731862
vn 1.7786302052336218e-7 0.25880901445122323 -0.965928513938146
vn -2.1447806371388093e-16 0.25882836933235237 0.9659233278209797
vn -1.922959020966667e-16 -0.5000028591841248 0.8660237530274215
vn -5.74677211266539e-17 -0.9659278191708738 0.2588116074518301
vn -1 0 -2.220446049250313e-16
vn -1 0 -2.220446049250313e-16
vn -1 0 -2.220446049250313e-16
vn -1 0 -2.220446049250313e-16
vn -1 0 -2.220446049250313e-16
vn -1 0 -2.220446049250313e-16
vn -1 0 -2.220446049250313e-16
vn -1 0 -2.220446049250313e-16
vn -1 0 -2.220446049250313e-16
vn 3.4361855047227326e-7 0.5000003833877769 -0.8660251824352211
vn -1.922966846423818e-16 0.4999967549617971 0.8660272773000125
vn 1 0 2.220446049250313e-16
vn 1 0 2.220446049250313e-16
vn 1 0 2.220446049250313e-16
vn 1 0 2.220446049250313e-16
vn 1 0 2.220446049250313e-16
vn 1 0 2.220446049250313e-16
vn 1 0 2.220446049250313e-16
vn 1 0 2.220446049250313e-16
vn 1 0 2.220446049250313e-16
vn 0 -1 0
vn -0.7866880395048702 -0.6173507337810362 -1.7467983493110633e-16
vn 0.7866880395048702 -0.6173507337810361 1.7467983493110633e-16
vn 0 -1 0
vn 2.220446049250313e-16 0 -1
vn 1 0 2.220446049250313e-16
vn -1 0 -2.220446049250313e-16
vn 0 -1 0
vn 0 -1 0
vn 0 -1 0
vn 0 -1 0
vn -2.220446049250313e-16 0 1
vn -2.220446049250313e-16 0 1
vn 0 -1 0
vn 1 0 2.220446049250313e-16
vn 2.220446049250313e-16 0 -1
vn -1 0 -2.220446049250313e-16
vn 0 -1 0
vn -0.9999999999939077 0 0.0000034906755326070605
vn 0 -1 0
vn 1 0 2.220446049250313e-16
vn 0 1 0
vn 0 1 0
vn 0 1 0
vn 0 1 0
vn 0 1 0
vn 0 1 0
vn 0 1 0
vn 0 1 0
vn 0 1 0
vn 0 1 0
vn 0 1 0
vn 0 1 0
vn 0 1 0
vn 0 1 0
vn 0 1 0
vn 0 -1 0
vn 2.0798501821932746e-16 -0.3501831447483207 -0.936681250551209
vn 0 0 0
vn 0 0 0
vn 2.079850182193275e-16 -0.35018314474832074 -0.9366812505512091
vn 2.0798501821932746e-16 -0.35018314474832074 -0.936681250551209
vn 0 0 0
vn 0 0 0
vn 2.079850182193275e-16 -0.35018314474832074 -0.9366812505512091
vn 0 0 0
vn 2.079850182193275e-16 -0.35018314474832074 -0.9366812505512091
vn 0 0 0
vn 2.0798501821932746e-16 -0.35018314474832063 -0.936681250551209
vn 2.079850182193275e-16 -0.35018314474832074 -0.9366812505512091
vn 2.0798501821932746e-16 -0.35018314474832074 -0.936681250551209
vn 2.079850182193275e-16 -0.3501831447483207 -0.9366812505512091
vn -2.220446049250313e-16 0 1
vn -2.220446049250313e-16 0 1
vn -2.220446049250313e-16 0 1
vn -2.220446049250313e-16 0 1
vn -2.220446049250313e-16 0 1
vn -2.220446049250313e-16 0 1
vn -2.220446049250313e-16 0 1
vn -2.220446049250313e-16 0 1
vn -2.220446049250313e-16 0 1
vn 0 0 0
vn -2.220446049250313e-16 0 1
vn -2.220446049250313e-16 0 1
vn 0 0 0
vn -2.220446049250313e-16 0 1
vn -2.220446049250313e-16 0 1
vn 0 0 0
vn -2.07983450300769e-16 -0.35020203190204313 0.9366741892737733
vn 0 0 0
vn -2.0798345030076902e-16 -0.35020203190204313 0.9366741892737734
vn -2.0798345030076902e-16 -0.35020203190204313 0.9366741892737734
vn 0 0 0
vn 0 0 0
vn 0 0 0
vn -2.0798345030076897e-16 -0.35020203190204313 0.9366741892737732
vn -2.07983450300769e-16 -0.35020203190204313 0.9366741892737733
vn 0 0 0
vn -2.07983450300769e-16 -0.35020203190204313 0.9366741892737733
vn -2.07983450300769e-16 -0.3502020319020432 0.9366741892737733
vn -2.07983450300769e-16 -0.3502020319020431 0.9366741892737733
vn -2.0798345030076907e-16 -0.35020203190204247 0.9366741892737737
vn 2.220446049250313e-16 0 -1
vn 0 0 0
vn 0 0 0
vn 2.220446049250313e-16 0 -1
vn 2.220446049250313e-16 0 -1
vn 2.220446049250313e-16 0 -1
vn 2.220446049250313e-16 0 -1
vn 2.220446049250313e-16 0 -1
vn 2.220446049250313e-16 0 -1
vn 2.220446049250313e-16 0 -1
vn 2.220446049250313e-16 0 -1
vn 2.220446049250313e-16 0 -1
vn 2.220446049250313e-16 0 -1
vn 2.220446049250313e-16 0 -1
vn 2.220446049250313e-16 0 -1
vn 1 0 2.220446049250313e-16
vn -0.10201182477595915 0.9947831862299841 -2.265117533005937e-17
vn -0.6560350654814749 -0.7547304107154533 -1.4566904693180115e-16
vn 0 -1 0
vn -2.220446049250313e-16 0 1
vn -2.220446049250313e-16 0 1
vn -1 0 -2.220446049250313e-16
vn 2.220446049250313e-16 0 -1
vn 2.220446049250313e-16 0 -1
usemtl m_c74cd618-942f-752d-6f43-56687f5dac23
f 1/1/1 2/2/1 3/3/1
f 4/4/2 5/5/2 2/6/2
f 6/7/3 7/8/3 5/9/3
f 8/10/4 9/11/4 10/12/4
f 11/13/5 12/14/5 9/15/5
f 13/16/6 14/17/6 12/18/6
f 15/19/7 16/20/7 17/21/7
f 16/22/8 18/23/8 19/24/8
f 18/25/9 20/26/9 19/27/9
f 7/28/10 8/29/10 15/30/10
f 21/31/11 22/32/11 7/33/11
f 17/34/12 3/35/12 15/36/12
f 14/37/13 1/38/13 20/39/13
f 10/40/14 23/41/14 8/42/14
f 24/43/15 25/44/15 26/45/15
f 27/46/16 28/47/16 29/48/16
f 30/49/17 29/50/17 31/51/17
f 32/52/18 33/53/18 34/54/18
f 35/55/19 28/56/19 36/57/19
f 37/58/20 25/59/20 38/60/20
f 39/61/21 40/62/21 26/63/21
f 41/64/22 31/65/22 42/66/22
f 43/67/23 44/68/23 45/69/23
f 46/70/24 47/71/24 48/72/24
f 49/73/25 50/74/25 34/75/25
f 43/76/26 51/77/26 32/78/26
f 50/79/27 52/80/27 42/81/27
f 34/82/28 44/83/28 49/84/28
f 53/85/29 32/86/29 54/87/29
f 42/88/30 47/89/30 41/90/30
f 48/91/31 52/92/31 55/93/31
f 46/94/32 55/95/32 50/96/32
f 56/97/33 57/98/33 58/99/33
f 45/100/34 33/101/34 51/102/34
f 59/103/35 46/104/35 49/105/35
f 60/106/36 28/107/36 61/108/36
f 38/109/37 32/110/37 34/111/37
f 62/112/38 63/113/38 57/114/38
f 64/115/39 65/116/39 66/117/39
f 67/118/40 64/119/40 68/120/40
f 69/121/41 70/122/41 71/123/41
f 71/124/42 65/125/42 69/126/42
f 72/127/43 73/128/43 69/129/43
f 67/130/44 70/131/44 73/132/44
f 70/133/45 64/134/45 66/135/45
f 1/136/46 4/137/46 2/138/46
f 4/139/47 6/140/47 5/141/47
f 6/142/48 21/143/48 7/144/48
f 8/145/49 11/146/49 9/147/49
f 11/148/50 13/149/50 12/150/50
f 13/151/51 22/152/51 14/153/51
f 15/154/52 74/155/52 16/156/52
f 16/157/53 74/158/53 18/159/53
f 18/160/54 23/161/54 20/162/54
f 15/163/55 3/164/55 2/165/55
f 2/166/56 5/167/56 7/168/56
f 7/169/57 22/170/57 13/171/57
f 13/172/58 11/173/58 8/174/58
f 8/175/59 23/176/59 18/177/59
f 18/178/60 74/179/60 15/180/60
f 15/181/61 2/182/61 7/183/61
f 7/184/62 13/185/62 8/186/62
f 8/187/63 18/188/63 15/189/63
f 21/190/64 14/191/64 22/192/64
f 17/193/65 1/194/65 3/195/65
f 20/196/66 10/197/66 9/198/66
f 9/199/67 12/200/67 14/201/67
f 14/202/68 21/203/68 6/204/68
f 6/205/69 4/206/69 1/207/69
f 1/208/70 17/209/70 16/210/70
f 16/211/71 19/212/71 20/213/71
f 20/214/72 9/215/72 14/216/72
f 14/217/73 6/218/73 1/219/73
f 1/220/74 16/221/74 20/222/74
f 10/223/75 20/224/75 23/225/75
f 24/226/76 38/227/76 25/228/76
f 27/229/77 36/230/77 28/231/77
f 30/232/78 27/233/78 29/234/78
f 32/235/79 51/236/79 33/237/79
f 35/238/80 75/239/80 28/240/80
f 37/241/81 76/242/81 25/243/81
f 39/244/82 53/245/82 54/246/82
f 40/247/83 24/248/83 26/249/83
f 39/250/84 54/251/84 40/252/84
f 41/253/85 30/254/85 31/255/85
f 43/256/86 49/257/86 44/258/86
f 46/259/87 41/260/87 47/261/87
f 49/262/88 46/263/88 50/264/88
f 43/265/89 45/266/89 51/267/89
f 50/268/90 55/269/90 52/270/90
f 34/271/91 33/272/91 44/273/91
f 53/274/92 43/275/92 32/276/92
f 42/277/93 52/278/93 47/279/93
f 48/280/94 47/281/94 52/282/94
f 46/283/95 48/284/95 55/285/95
f 61/286/96 75/287/96 35/288/96
f 61/289/97 35/290/97 77/291/97
f 78/292/98 61/293/98 77/294/98
f 78/295/99 77/296/99 79/297/99
f 80/298/100 78/299/100 79/300/100
f 80/301/101 79/302/101 81/303/101
f 82/304/102 80/305/102 81/306/102
f 82/307/103 81/308/103 83/309/103
f 84/310/104 82/311/104 83/312/104
f 84/313/105 83/314/105 85/315/105
f 86/316/106 84/317/106 85/318/106
f 86/319/107 85/320/107 56/321/107
f 76/322/108 37/323/108 58/324/108
f 58/325/109 86/326/109 56/327/109
f 57/328/110 76/329/110 58/330/110
f 45/331/111 44/332/111 33/333/111
f 39/334/112 26/335/112 25/336/112
f 25/337/113 63/338/113 62/339/113
f 25/340/114 62/341/114 87/342/114
f 53/343/115 39/344/115 25/345/115
f 43/346/116 53/347/116 25/348/116
f 25/349/117 87/350/117 88/351/117
f 88/352/118 89/353/118 59/354/118
f 90/355/119 36/356/119 27/357/119
f 25/358/120 88/359/120 59/360/120
f 59/361/121 90/362/121 27/363/121
f 27/364/122 30/365/122 41/366/122
f 59/367/123 27/368/123 41/369/123
f 43/370/124 25/371/124 59/372/124
f 49/373/125 43/374/125 59/375/125
f 59/376/126 41/377/126 46/378/126
f 58/379/127 37/380/127 38/381/127
f 58/382/128 38/383/128 91/384/128
f 86/385/129 58/386/129 91/387/129
f 86/388/130 91/389/130 92/390/130
f 84/391/131 86/392/131 92/393/131
f 84/394/132 92/395/132 93/396/132
f 82/397/133 84/398/133 93/399/133
f 82/400/134 93/401/134 94/402/134
f 80/403/135 82/404/135 94/405/135
f 60/406/136 95/407/136 96/408/136
f 80/409/137 94/410/137 60/411/137
f 78/412/138 80/413/138 60/414/138
f 60/415/139 96/416/139 28/417/139
f 28/418/140 75/419/140 61/420/140
f 61/421/141 78/422/141 60/423/141
f 42/424/142 31/425/142 29/426/142
f 29/427/143 28/428/143 96/429/143
f 95/430/144 60/431/144 94/432/144
f 29/433/145 96/434/145 95/435/145
f 42/436/146 29/437/146 95/438/146
f 95/439/147 94/440/147 93/441/147
f 92/442/148 91/443/148 38/444/148
f 95/445/149 93/446/149 92/447/149
f 50/448/150 42/449/150 95/450/150
f 34/451/151 50/452/151 95/453/151
f 95/454/152 92/455/152 38/456/152
f 38/457/153 24/458/153 40/459/153
f 38/460/154 40/461/154 54/462/154
f 34/463/155 95/464/155 38/465/155
f 38/466/156 54/467/156 32/468/156
f 77/469/157 35/470/157 36/471/157
f 36/472/158 90/473/158 59/474/158
f 36/475/159 59/476/159 89/477/159
f 79/478/160 77/479/160 36/480/160
f 81/481/161 79/482/161 36/483/161
f 81/484/162 36/485/162 89/486/162
f 83/487/163 81/488/163 89/489/163
f 83/490/164 89/491/164 88/492/164
f 85/493/165 83/494/165 88/495/165
f 85/496/166 88/497/166 87/498/166
f 56/499/167 85/500/167 87/501/167
f 56/502/168 87/503/168 62/504/168
f 25/505/169 76/506/169 57/507/169
f 57/508/170 56/509/170 62/510/170
f 63/511/171 25/512/171 57/513/171
f 64/514/172 72/515/172 65/516/172
f 67/517/173 72/518/173 64/519/173
f 69/520/174 73/521/174 70/522/174
f 71/523/175 66/524/175 65/525/175
f 69/526/176 65/527/176 72/528/176
f 72/529/177 67/530/177 73/531/177
f 67/532/178 68/533/178 70/534/178
f 66/535/179 71/536/179 70/537/179
f 70/538/180 68/539/180 64/540/180