# Made in Blockbench 5.1.6
mtllib freza.mtl

o Куб.006
v -0.02377625 0.053616875 0.02489875
v -0.00393125 -0.02072875 -0.02489875
v -0.00393125 -0.08650375 0.02489875
v 0.02308125 0.053616875 -0.02489875
v 0.00462625 -0.02072875 -0.02489875
v 0.02308125 0.053616875 0.02489875
v 0.00462625 -0.08650375 0.02489875
v -0.02377625 0.053616875 -0.02489875
vt 0.055369375 0.954006875
vt 0.005571875 0.87706125
vt 0.056930625 0.8125
vt 0.284834375 0.92565
vt 0.257821875 1
vt 0.276278125 0.92565
vt 0.181830625 0.87722625
vt 0.132033125 0.95382875
vt 0.130669375 0.8125
vt 0.054678125 0.75
vt 0.027665625 0.609875
vt 0.036221875 0.609875
vt 0.276971875 0.77
vt 0.285528125 0.6875
vt 0.285528125 0.77
vt 0.132821875 0.75
vt 0.179678125 0.7001999999999999
vt 0.179678125 0.75
vt 0.055369375 0.954006875
vt 0.005569375 0.954006875
vt 0.005569375 0.877056875
vt 0.284834375 0.92565
vt 0.304678125 1
vt 0.257821875 1
vt 0.181830625 0.87722625
vt 0.181830625 0.9538325
vt 0.132030625 0.9538325
vt 0.054678125 0.75
vt 0.007821875 0.75
vt 0.027665625 0.609875
vt 0.276971875 0.77
vt 0.276971875 0.6875
vt 0.285528125 0.6875
vt 0.132821875 0.75
vt 0.132821875 0.7001999999999999
vt 0.179678125 0.7001999999999999
vn -0.9735601382931931 -0.137883348325262 -0.18212314345286626
vn 0 0 -1
vn 0.9770120423734984 -0.12868025133347008 -0.1699672379428484
vn 0 0 1
vn 0 -0.6036108659552181 -0.7972790744154721
vn 0 1 0
vn -0.9661718195835178 -0.25789923428089967 0
vn 0 0 -1
vn 0.9705447902213779 -0.2409207549675657 0
vn 0 0 1
vn 0 -0.6036108659552181 -0.7972790744154721
vn 0 1 0
usemtl m_b77a6fc4-7c69-32a3-9b05-2d946224644e
f 1/1/1 2/2/1 3/3/1
f 2/4/2 4/5/2 5/6/2
f 5/7/3 6/8/3 7/9/3
f 6/10/4 3/11/4 7/12/4
f 5/13/5 3/14/5 2/15/5
f 8/16/6 6/17/6 4/18/6
f 1/19/7 8/20/7 2/21/7
f 2/22/8 8/23/8 4/24/8
f 5/25/9 4/26/9 6/27/9
f 6/28/10 1/29/10 3/30/10
f 5/31/11 7/32/11 3/33/11
f 8/34/12 1/35/12 6/36/12