# Made in Blockbench 5.1.6
mtllib wire_drum.mtl

o Цилиндр.009
v 0.139428125 0 -0.181008125
v -0.139428125 -0.127991875 -0.127991875
v -0.139428125 0 -0.181008125
v 0.139428125 -0.181008125 0
v -0.139428125 -0.181008125 0
v -0.139428125 -0.127991875 0.127991875
v 0.139428125 -0.127991875 0.127991875
v -0.139428125 0 0.181008125
v 0.139428125 0.127991875 0.127991875
v -0.139428125 0.127991875 0.127991875
v -0.139428125 0.181008125 0
v 0.139428125 -0.153368125 0
v 0.11203625 -0.108448125 0.108448125
v 0.139428125 -0.108448125 0.108448125
v 0.139428125 0.127991875 -0.127991875
v -0.139428125 0.127991875 -0.127991875
v 0.139428125 -0.108448125 -0.108448125
v 0.139428125 0 -0.153368125
v 0.139428125 -0.127991875 -0.127991875
v 0.139428125 0 0.153368125
v 0.139428125 0.108448125 0.108448125
v 0.139428125 0 0.181008125
v 0.139428125 0.153368125 0
v 0.139428125 0.108448125 -0.108448125
v 0.139428125 0.181008125 0
v 0.11203625 0.048343125 0
v 0.160695 0.034183125 -0.034183125
v 0.11203625 0.034183125 -0.034183125
v 0.11203625 -0.108448125 -0.108448125
v 0.11203625 0 -0.153368125
v 0.11203625 0.153368125 0
v 0.11203625 0 0.153368125
v 0.11203625 -0.153368125 0
v 0.11203625 0.108448125 -0.108448125
v 0.11203625 0.108448125 0.108448125
v 0.11203625 -0.034183125 -0.034183125
v 0.11203625 0 -0.048343125
v 0.11203625 -0.034183125 0.034183125
v 0.11203625 -0.048343125 0
v 0.11203625 0.034183125 0.034183125
v 0.11203625 0 0.048343125
v -0.139428125 0 0
v 0.160695 0.034183125 0.034183125
v 0.160695 -0.034183125 0.034183125
v 0.160695 -0.034183125 -0.034183125
v 0.160695 0 -0.048343125
v 0.160695 0.048343125 0
v 0.160695 0 0.048343125
v 0.160695 -0.048343125 0
v 0.160695 0 0
vt 0.2490275 0.6599993749999999
vt 0.06197125 0.282878125
vt 0.2490275 0.282878125
vt 0.2490275 0.282878125
vt 0.06197125 0.6599993749999999
vt 0.06197125 0.282878125
vt 0.2490275 0.6599993749999999
vt 0.06197125 0.282878125
vt 0.2490275 0.282878125
vt 0.2490275 0.6599993749999999
vt 0.06197125 0.282878125
vt 0.2490275 0.282878125
vt 0.2490275 0.282878125
vt 0.06197125 0.6599993749999999
vt 0.06197125 0.282878125
vt 0.2490275 0.6599993749999999
vt 0.06197125 0.282878125
vt 0.2490275 0.282878125
vt 0.234745625 0.694533125
vt 0.07625375 0.731578125
vt 0.07625375 0.694533125
vt 0.2490275 0.282878125
vt 0.06197125 0.6599993749999999
vt 0.06197125 0.282878125
vt 0.2490275 0.6599993749999999
vt 0.06197125 0.282878125
vt 0.2490275 0.282878125
vt 0.07625375 0.694533125
vt 0.2490275 0.6599993749999999
vt 0.234745625 0.694533125
vt 0.07625375 0.694533125
vt 0.2490275 0.6599993749999999
vt 0.234745625 0.694533125
vt 0.07625375 0.694533125
vt 0.2490275 0.6599993749999999
vt 0.234745625 0.694533125
vt 0.07625375 0.694533125
vt 0.2490275 0.6599993749999999
vt 0.234745625 0.694533125
vt 0.07625375 0.694533125
vt 0.2490275 0.6599993749999999
vt 0.234745625 0.694533125
vt 0.07625375 0.694533125
vt 0.2490275 0.6599993749999999
vt 0.234745625 0.694533125
vt 0.07625375 0.694533125
vt 0.2490275 0.6599993749999999
vt 0.234745625 0.694533125
vt 0.234745625 0.694533125
vt 0.06197125 0.6599993749999999
vt 0.2490275 0.6599993749999999
vt 0.18047875 0.8628018749999999
vt 0.130520625 0.9286075
vt 0.130520625 0.8628018749999999
vt 0.234745625 0.694533125
vt 0.07625375 0.731578125
vt 0.07625375 0.694533125
vt 0.234745625 0.694533125
vt 0.07625375 0.731578125
vt 0.07625375 0.694533125
vt 0.234745625 0.694533125
vt 0.07625375 0.731578125
vt 0.07625375 0.694533125
vt 0.234745625 0.694533125
vt 0.07625375 0.731578125
vt 0.07625375 0.694533125
vt 0.234745625 0.694533125
vt 0.07625375 0.731578125
vt 0.07625375 0.694533125
vt 0.234745625 0.694533125
vt 0.07625375 0.731578125
vt 0.07625375 0.694533125
vt 0.234745625 0.694533125
vt 0.07625375 0.731578125
vt 0.07625375 0.694533125
vt 0.130520625 0.8628018749999999
vt 0.234745625 0.731578125
vt 0.18047875 0.8628018749999999
vt 0.18047875 0.8628018749999999
vt 0.07625375 0.731578125
vt 0.234745625 0.731578125
vt 0.130520625 0.8628018749999999
vt 0.234745625 0.731578125
vt 0.18047875 0.8628018749999999
vt 0.18047875 0.8628018749999999
vt 0.07625375 0.731578125
vt 0.234745625 0.731578125
vt 0.130520625 0.8628018749999999
vt 0.234745625 0.731578125
vt 0.18047875 0.8628018749999999
vt 0.18047875 0.8628018749999999
vt 0.07625375 0.731578125
vt 0.234745625 0.731578125
vt 0.130520625 0.8628018749999999
vt 0.234745625 0.731578125
vt 0.18047875 0.8628018749999999
vt 0.18047875 0.8628018749999999
vt 0.07625375 0.731578125
vt 0.234745625 0.731578125
vt 0.2490275 0.282878125
vt 0.06197125 0.282878125
vt 0.155499375 0.05671812499999995
vt 0.18047875 0.8628018749999999
vt 0.130520625 0.9286075
vt 0.130520625 0.8628018749999999
vt 0.18047875 0.8628018749999999
vt 0.130520625 0.9286075
vt 0.130520625 0.8628018749999999
vt 0.18047875 0.8628018749999999
vt 0.130520625 0.9286075
vt 0.130520625 0.8628018749999999
vt 0.130520625 0.8628018749999999
vt 0.18047875 0.9286075
vt 0.130520625 0.9286075
vt 0.18047875 0.8628018749999999
vt 0.130520625 0.9286075
vt 0.130520625 0.8628018749999999
vt 0.18047875 0.8628018749999999
vt 0.130520625 0.9286075
vt 0.130520625 0.8628018749999999
vt 0.130520625 0.8628018749999999
vt 0.18047875 0.9286075
vt 0.130520625 0.9286075
vt 0.130520625 0.9286075
vt 0.18047875 0.9286075
vt 0.155499375 0.98900875
vt 0.130520625 0.9286075
vt 0.18047875 0.9286075
vt 0.155499375 0.98900875
vt 0.130520625 0.9286075
vt 0.18047875 0.9286075
vt 0.155499375 0.98900875
vt 0.130520625 0.9286075
vt 0.18047875 0.9286075
vt 0.155499375 0.98900875
vt 0.130520625 0.9286075
vt 0.18047875 0.9286075
vt 0.155499375 0.98900875
vt 0.130520625 0.9286075
vt 0.18047875 0.9286075
vt 0.155499375 0.98900875
vt 0.130520625 0.9286075
vt 0.18047875 0.9286075
vt 0.155499375 0.98900875
vt 0.130520625 0.9286075
vt 0.18047875 0.9286075
vt 0.155499375 0.98900875
vt 0.2490275 0.282878125
vt 0.06197125 0.282878125
vt 0.155499375 0.05671812499999995
vt 0.2490275 0.282878125
vt 0.06197125 0.282878125
vt 0.155499375 0.05671812499999995
vt 0.2490275 0.282878125
vt 0.06197125 0.282878125
vt 0.155499375 0.05671812499999995
vt 0.2490275 0.282878125
vt 0.06197125 0.282878125
vt 0.155499375 0.05671812499999995
vt 0.2490275 0.282878125
vt 0.06197125 0.282878125
vt 0.155499375 0.05671812499999995
vt 0.2490275 0.282878125
vt 0.06197125 0.282878125
vt 0.155499375 0.05671812499999995
vt 0.2490275 0.282878125
vt 0.06197125 0.282878125
vt 0.155499375 0.05671812499999995
vt 0.2490275 0.6599993749999999
vt 0.06197125 0.6599993749999999
vt 0.06197125 0.282878125
vt 0.2490275 0.282878125
vt 0.2490275 0.6599993749999999
vt 0.06197125 0.6599993749999999
vt 0.2490275 0.6599993749999999
vt 0.06197125 0.6599993749999999
vt 0.06197125 0.282878125
vt 0.2490275 0.6599993749999999
vt 0.06197125 0.6599993749999999
vt 0.06197125 0.282878125
vt 0.2490275 0.282878125
vt 0.2490275 0.6599993749999999
vt 0.06197125 0.6599993749999999
vt 0.2490275 0.6599993749999999
vt 0.06197125 0.6599993749999999
vt 0.06197125 0.282878125
vt 0.234745625 0.694533125
vt 0.234745625 0.731578125
vt 0.07625375 0.731578125
vt 0.2490275 0.282878125
vt 0.2490275 0.6599993749999999
vt 0.06197125 0.6599993749999999
vt 0.2490275 0.6599993749999999
vt 0.06197125 0.6599993749999999
vt 0.06197125 0.282878125
vt 0.07625375 0.694533125
vt 0.06197125 0.6599993749999999
vt 0.2490275 0.6599993749999999
vt 0.07625375 0.694533125
vt 0.06197125 0.6599993749999999
vt 0.2490275 0.6599993749999999
vt 0.07625375 0.694533125
vt 0.06197125 0.6599993749999999
vt 0.2490275 0.6599993749999999
vt 0.07625375 0.694533125
vt 0.06197125 0.6599993749999999
vt 0.2490275 0.6599993749999999
vt 0.07625375 0.694533125
vt 0.06197125 0.6599993749999999
vt 0.2490275 0.6599993749999999
vt 0.07625375 0.694533125
vt 0.06197125 0.6599993749999999
vt 0.2490275 0.6599993749999999
vt 0.07625375 0.694533125
vt 0.06197125 0.6599993749999999
vt 0.2490275 0.6599993749999999
vt 0.234745625 0.694533125
vt 0.07625375 0.694533125
vt 0.06197125 0.6599993749999999
vt 0.18047875 0.8628018749999999
vt 0.18047875 0.9286075
vt 0.130520625 0.9286075
vt 0.234745625 0.694533125
vt 0.234745625 0.731578125
vt 0.07625375 0.731578125
vt 0.234745625 0.694533125
vt 0.234745625 0.731578125
vt 0.07625375 0.731578125
vt 0.234745625 0.694533125
vt 0.234745625 0.731578125
vt 0.07625375 0.731578125
vt 0.234745625 0.694533125
vt 0.234745625 0.731578125
vt 0.07625375 0.731578125
vt 0.234745625 0.694533125
vt 0.234745625 0.731578125
vt 0.07625375 0.731578125
vt 0.234745625 0.694533125
vt 0.234745625 0.731578125
vt 0.07625375 0.731578125
vt 0.234745625 0.694533125
vt 0.234745625 0.731578125
vt 0.07625375 0.731578125
vt 0.130520625 0.8628018749999999
vt 0.07625375 0.731578125
vt 0.234745625 0.731578125
vt 0.18047875 0.8628018749999999
vt 0.130520625 0.8628018749999999
vt 0.07625375 0.731578125
vt 0.130520625 0.8628018749999999
vt 0.07625375 0.731578125
vt 0.234745625 0.731578125
vt 0.18047875 0.8628018749999999
vt 0.130520625 0.8628018749999999
vt 0.07625375 0.731578125
vt 0.130520625 0.8628018749999999
vt 0.07625375 0.731578125
vt 0.234745625 0.731578125
vt 0.18047875 0.8628018749999999
vt 0.130520625 0.8628018749999999
vt 0.07625375 0.731578125
vt 0.130520625 0.8628018749999999
vt 0.07625375 0.731578125
vt 0.234745625 0.731578125
vt 0.18047875 0.8628018749999999
vt 0.130520625 0.8628018749999999
vt 0.07625375 0.731578125
vt 0.18047875 0.8628018749999999
vt 0.18047875 0.9286075
vt 0.130520625 0.9286075
vt 0.18047875 0.8628018749999999
vt 0.18047875 0.9286075
vt 0.130520625 0.9286075
vt 0.18047875 0.8628018749999999
vt 0.18047875 0.9286075
vt 0.130520625 0.9286075
vt 0.130520625 0.8628018749999999
vt 0.18047875 0.8628018749999999
vt 0.18047875 0.9286075
vt 0.18047875 0.8628018749999999
vt 0.18047875 0.9286075
vt 0.130520625 0.9286075
vt 0.18047875 0.8628018749999999
vt 0.18047875 0.9286075
vt 0.130520625 0.9286075
vt 0.130520625 0.8628018749999999
vt 0.18047875 0.8628018749999999
vt 0.18047875 0.9286075
vn 0 -0.3826851544207332 -0.923878819210604
vn 0 -0.923878819210604 -0.3826851544207332
vn 0 -0.923878819210604 0.3826851544207332
vn 0 -0.3826851544207332 0.923878819210604
vn 0 0.3826851544207332 0.923878819210604
vn 0 0.923878819210604 0.3826851544207332
vn 0 0.9238815932479377 -0.38267845726883104
vn 0 0.923878819210604 -0.3826851544207332
vn 0 0.3826851544207332 -0.923878819210604
vn 1 0 0
vn 1 0 0
vn 1 0 0
vn 1 0 0
vn 1 0 0
vn 1 0 0
vn 1 0 0
vn 1 0 0
vn 0 0.9238710658910901 -0.38270387195488514
vn 0 0.38267845726883104 0.9238815932479377
vn 0 -0.38267845726883104 0.9238815932479377
vn 0 -0.9238815932479377 -0.38267845726883104
vn 0 0.38267845726883104 -0.9238815932479377
vn 0 0.9238815932479377 0.38267845726883104
vn 0 -0.9238815932479377 0.38267845726883104
vn 0 -0.38267845726883104 -0.9238815932479377
vn 1 0 0
vn 1 0 0
vn 1 0 0
vn 1 0 0
vn 1 0 0
vn 1 0 0
vn 1 0 0
vn 1 0 0
vn -1 0 0
vn 0 0.38270387195488514 0.9238710658910901
vn 0 -0.9238710658910901 0.38270387195488514
vn 0 -0.38270387195488514 -0.9238710658910901
vn 0 0.38270387195488514 -0.9238710658910901
vn 0 0.9238710658910901 0.38270387195488514
vn 0 -0.38270387195488514 0.9238710658910901
vn 0 -0.9238710658910901 -0.38270387195488514
vn 1 0 0
vn 1 0 0
vn 1 0 0
vn 1 0 0
vn 1 0 0
vn 1 0 0
vn 1 0 0
vn 1 0 0
vn -1 0 0
vn -1 0 0
vn -1 0 0
vn -1 0 0
vn -1 0 0
vn -1 0 0
vn -1 0 0
vn 0 -0.3826851544207332 -0.923878819210604
vn 0 -0.923878819210604 -0.3826851544207332
vn 0 -0.923878819210604 0.3826851544207332
vn 0 -0.3826851544207332 0.923878819210604
vn 0 0.3826851544207332 0.923878819210604
vn 0 0.923878819210604 0.3826851544207332
vn 0 0.9238815932479377 -0.38267845726883104
vn 0 0.923878819210604 -0.3826851544207332
vn 0 0.3826851544207332 -0.923878819210604
vn 1 0 0
vn 1 0 0
vn 1 0 0
vn 1 0 0
vn 1 0 0
vn 1 0 0
vn 1 0 0
vn 1 0 0
vn 0 0.9238710658910901 -0.38270387195488514
vn 0 0.38267845726883104 0.9238815932479377
vn 0 -0.38267845726883104 0.9238815932479377
vn 0 -0.9238815932479377 -0.38267845726883104
vn 0 0.38267845726883104 -0.9238815932479377
vn 0 0.9238815932479377 0.38267845726883104
vn 0 -0.9238815932479377 0.38267845726883104
vn 0 -0.38267845726883104 -0.9238815932479377
vn 1 0 0
vn 1 0 0
vn 1 0 0
vn 1 0 0
vn 1 0 0
vn 1 0 0
vn 1 0 0
vn 1 0 0
vn 0 0.38270387195488514 0.9238710658910901
vn 0 -0.9238710658910901 0.38270387195488514
vn 0 -0.38270387195488514 -0.9238710658910901
vn 0 0.38270387195488514 -0.9238710658910901
vn 0 0.9238710658910901 0.38270387195488514
vn 0 -0.38270387195488514 0.9238710658910901
vn 0 -0.9238710658910901 -0.38270387195488514
usemtl m_a887751e-40d3-3fa9-49d9-613e488be755
f 1/1/1 2/2/1 3/3/1
f 2/4/2 4/5/2 5/6/2
f 4/7/3 6/8/3 5/9/3
f 7/10/4 8/11/4 6/12/4
f 8/13/5 9/14/5 10/15/5
f 9/16/6 11/17/6 10/18/6
f 12/19/7 13/20/7 14/21/7
f 11/22/8 15/23/8 16/24/8
f 15/25/9 3/26/9 16/27/9
f 17/28/10 1/29/10 18/30/10
f 12/31/11 19/32/11 17/33/11
f 14/34/12 4/35/12 12/36/12
f 20/37/13 7/38/13 14/39/13
f 21/40/14 22/41/14 20/42/14
f 23/43/15 9/44/15 21/45/15
f 24/46/16 25/47/16 23/48/16
f 24/49/17 1/50/17 15/51/17
f 26/52/18 27/53/18 28/54/18
f 18/55/19 29/56/19 17/57/19
f 24/58/20 30/59/20 18/60/20
f 21/61/21 31/62/21 23/63/21
f 14/64/22 32/65/22 20/66/22
f 17/67/23 33/68/23 12/69/23
f 23/70/24 34/71/24 24/72/24
f 20/73/25 35/74/25 21/75/25
f 36/76/26 30/77/26 37/78/26
f 36/79/27 33/80/27 29/81/27
f 38/82/28 33/83/28 39/84/28
f 38/85/29 32/86/29 13/87/29
f 40/88/30 32/89/30 41/90/30
f 40/91/31 31/92/31 35/93/31
f 28/94/32 31/95/32 26/96/32
f 28/97/33 30/98/33 34/99/33
f 3/100/34 2/101/34 42/102/34
f 41/103/35 43/104/35 40/105/35
f 39/106/36 44/107/36 38/108/36
f 37/109/37 45/110/37 36/111/37
f 37/112/38 27/113/38 46/114/38
f 40/115/39 47/116/39 26/117/39
f 38/118/40 48/119/40 41/120/40
f 39/121/41 45/122/41 49/123/41
f 45/124/42 46/125/42 50/126/42
f 46/127/43 27/128/43 50/129/43
f 27/130/44 47/131/44 50/132/44
f 47/133/45 43/134/45 50/135/45
f 43/136/46 48/137/46 50/138/46
f 48/139/47 44/140/47 50/141/47
f 44/142/48 49/143/48 50/144/48
f 49/145/49 45/146/49 50/147/49
f 2/148/50 5/149/50 42/150/50
f 5/151/51 6/152/51 42/153/51
f 6/154/52 8/155/52 42/156/52
f 8/157/53 10/158/53 42/159/53
f 10/160/54 11/161/54 42/162/54
f 11/163/55 16/164/55 42/165/55
f 16/166/56 3/167/56 42/168/56
f 1/169/57 19/170/57 2/171/57
f 2/172/58 19/173/58 4/174/58
f 4/175/59 7/176/59 6/177/59
f 7/178/60 22/179/60 8/180/60
f 8/181/61 22/182/61 9/183/61
f 9/184/62 25/185/62 11/186/62
f 12/187/63 33/188/63 13/189/63
f 11/190/64 25/191/64 15/192/64
f 15/193/65 1/194/65 3/195/65
f 17/196/66 19/197/66 1/198/66
f 12/199/67 4/200/67 19/201/67
f 14/202/68 7/203/68 4/204/68
f 20/205/69 22/206/69 7/207/69
f 21/208/70 9/209/70 22/210/70
f 23/211/71 25/212/71 9/213/71
f 24/214/72 15/215/72 25/216/72
f 24/217/73 18/218/73 1/219/73
f 26/220/74 47/221/74 27/222/74
f 18/223/75 30/224/75 29/225/75
f 24/226/76 34/227/76 30/228/76
f 21/229/77 35/230/77 31/231/77
f 14/232/78 13/233/78 32/234/78
f 17/235/79 29/236/79 33/237/79
f 23/238/80 31/239/80 34/240/80
f 20/241/81 32/242/81 35/243/81
f 36/244/82 29/245/82 30/246/82
f 36/247/83 39/248/83 33/249/83
f 38/250/84 13/251/84 33/252/84
f 38/253/85 41/254/85 32/255/85
f 40/256/86 35/257/86 32/258/86
f 40/259/87 26/260/87 31/261/87
f 28/262/88 34/263/88 31/264/88
f 28/265/89 37/266/89 30/267/89
f 41/268/90 48/269/90 43/270/90
f 39/271/91 49/272/91 44/273/91
f 37/274/92 46/275/92 45/276/92
f 37/277/93 28/278/93 27/279/93
f 40/280/94 43/281/94 47/282/94
f 38/283/95 44/284/95 48/285/95
f 39/286/96 36/287/96 45/288/96