{"asset":{"version":"2.0","generator":"Blockbench 5.2.1 glTF exporter"},"scenes":[{"nodes":[4],"name":"blockbench_export"}],"scene":0,"nodes":[{"translation":[0.01460762471073454,-0.13041756553287298,-0.22735401565688013],"name":"main"},{"translation":[0.004478380768027937,-0.024341176643984136,0.002919421843119885],"name":"ammo_pack"},{"translation":[0.01460762471073454,-0.13041756553287298,-0.22735401565688013],"name":"barrel"},{"name":"cannon","children":[0,1,2]},{"translation":[0.03218228166338881,0.08142368503276734,0.2838022237977076],"name":"cannon","mesh":0,"children":[3],"skin":0}],"bufferViews":[{"buffer":0,"byteOffset":0,"byteLength":28944,"target":34962,"byteStride":12},{"buffer":0,"byteOffset":28944,"byteLength":28944,"target":34962,"byteStride":12},{"buffer":0,"byteOffset":57888,"byteLength":19296,"target":34962,"byteStride":8},{"buffer":0,"byteOffset":77184,"byteLength":19296,"target":34962,"byteStride":8},{"buffer":0,"byteOffset":96480,"byteLength":38592,"target":34962,"byteStride":16},{"buffer":0,"byteOffset":135072,"byteLength":6792,"target":34963},{"buffer":0,"byteOffset":141864,"byteLength":256},{"buffer":0,"byteOffset":142120,"byteLength":12},{"buffer":0,"byteOffset":142132,"byteLength":48},{"buffer":0,"byteOffset":142180,"byteLength":12},{"buffer":0,"byteOffset":142192,"byteLength":36},{"buffer":0,"byteOffset":142228,"byteLength":12},{"buffer":0,"byteOffset":142240,"byteLength":36},{"buffer":0,"byteOffset":142276,"byteLength":36},{"buffer":0,"byteOffset":142312,"byteLength":108},{"buffer":0,"byteOffset":142420,"byteLength":16},{"buffer":0,"byteOffset":142436,"byteLength":48},{"buffer":0,"byteOffset":142484,"byteLength":16},{"buffer":0,"byteOffset":142500,"byteLength":64},{"buffer":0,"byteOffset":142564,"byteLength":8},{"buffer":0,"byteOffset":142572,"byteLength":24},{"buffer":0,"byteOffset":142596,"byteLength":16},{"buffer":0,"byteOffset":142612,"byteLength":64},{"buffer":0,"byteOffset":142676,"byteLength":172},{"buffer":0,"byteOffset":142848,"byteLength":516},{"buffer":0,"byteOffset":143364,"byteLength":40},{"buffer":0,"byteOffset":143404,"byteLength":120},{"buffer":0,"byteOffset":143524,"byteLength":16},{"buffer":0,"byteOffset":143540,"byteLength":64},{"buffer":0,"byteOffset":143604,"byteLength":4},{"buffer":0,"byteOffset":143608,"byteLength":12}],"buffers":[{"byteLength":143620,"uri":"data:application/octet-stream;base64,"}],"accessors":[{"bufferView":0,"componentType":5126,"count":2412,"max":[0.09208463132381439,0.11020743101835251,0.3754113018512726],"min":[-0.09411937743425369,-0.12132718414068222,-0.6298930644989014],"type":"VEC3"},{"bufferView":1,"componentType":5126,"count":2412,"max":[1,1,1],"min":[-1,-1,-1],"type":"VEC3"},{"bufferView":2,"componentType":5126,"count":2412,"max":[0.6958984136581421,0.689453125],"min":[0,0],"type":"VEC2"},{"bufferView":3,"componentType":5123,"count":2412,"max":[0,3,0,0],"min":[0,1,0,0],"type":"VEC4"},{"bufferView":4,"componentType":5126,"count":2412,"max":[0,1,0,0],"min":[0,1,0,0],"type":"VEC4"},{"bufferView":5,"componentType":5123,"count":3396,"max":[2411],"min":[0],"type":"SCALAR"},{"bufferView":6,"componentType":5126,"count":4,"max":[1,0,0,0,0,1,0,0,0,0,1,0,0,0.1304175704717636,0.2273540198802948,1],"min":[1,0,0,0,0,1,0,0,0,0,1,0,-0.0146076250821352,0,-0.0029194217640906572,1],"type":"MAT4"},{"bufferView":7,"componentType":5126,"count":3,"max":[0.3333333432674408],"min":[0],"type":"SCALAR"},{"bufferView":8,"componentType":5126,"count":3,"max":[0.017452405765652657,0,0,1],"min":[0,0,0,0.9998477101325989],"type":"VEC4"},{"bufferView":9,"componentType":5126,"count":3,"max":[0.3333333432674408],"min":[0],"type":"SCALAR"},{"bufferView":10,"componentType":5126,"count":3,"max":[0.03218227997422218,0.08142368495464325,0.34630221128463745],"min":[0.03218227997422218,0.08142368495464325,0.28380221128463745],"type":"VEC3"},{"bufferView":11,"componentType":5126,"count":3,"max":[0.3333333432674408],"min":[0],"type":"SCALAR"},{"bufferView":12,"componentType":5126,"count":3,"max":[0.0146076250821352,-0.1304175704717636,-0.0398540161550045],"min":[0.0146076250821352,-0.1304175704717636,-0.2273540198802948],"type":"VEC3"},{"bufferView":13,"componentType":5126,"count":9,"max":[2.5],"min":[0],"type":"SCALAR"},{"bufferView":14,"componentType":5126,"count":9,"max":[0.004478380549699068,-0.024341177195310593,0.0029194217640906572],"min":[-0.370521605014801,-0.2118411809206009,0.0029194217640906572],"type":"VEC3"},{"bufferView":15,"componentType":5126,"count":4,"max":[1.2083333730697632],"min":[0.9583333134651184],"type":"SCALAR"},{"bufferView":16,"componentType":5126,"count":4,"max":[1,1,1],"min":[0,1,0],"type":"VEC3"},{"bufferView":17,"componentType":5126,"count":4,"max":[3.125],"min":[0],"type":"SCALAR"},{"bufferView":18,"componentType":5126,"count":4,"max":[0.13052618503570557,0,0,1],"min":[0,0,0,0.9914448857307434],"type":"VEC4"},{"bufferView":19,"componentType":5126,"count":2,"max":[3.125],"min":[0],"type":"SCALAR"},{"bufferView":20,"componentType":5126,"count":2,"max":[0.03218227997422218,0.08142368495464325,0.28380221128463745],"min":[0.03218227997422218,0.08142368495464325,0.28380221128463745],"type":"VEC3"},{"bufferView":21,"componentType":5126,"count":4,"max":[2.5416667461395264],"min":[0],"type":"SCALAR"},{"bufferView":22,"componentType":5126,"count":4,"max":[0,0,0,1],"min":[-0.9999405145645142,0,0,-0.9997619986534119],"type":"VEC4"},{"bufferView":23,"componentType":5126,"count":43,"max":[3.5],"min":[0],"type":"SCALAR"},{"bufferView":24,"componentType":5126,"count":43,"max":[0.017978381365537643,0.03815882280468941,0.0029194217640906572],"min":[-0.18302161991596222,-0.2298411726951599,0.0029194217640906572],"type":"VEC3"},{"bufferView":25,"componentType":5126,"count":10,"max":[3.125],"min":[1.0833333730697632],"type":"SCALAR"},{"bufferView":26,"componentType":5126,"count":10,"max":[1,1,1],"min":[1,1,1],"type":"VEC3"},{"bufferView":27,"componentType":5126,"count":4,"max":[3.9166667461395264],"min":[0],"type":"SCALAR"},{"bufferView":28,"componentType":5126,"count":4,"max":[0.13002949953079224,0.08641011267900467,0,1],"min":[0,0,-0.01137610711157322,0.9876720905303955],"type":"VEC4"},{"bufferView":29,"componentType":5126,"count":1,"max":[0],"min":[0],"type":"SCALAR"},{"bufferView":30,"componentType":5126,"count":1,"max":[0.03218227997422218,0.08142368495464325,0.28380221128463745],"min":[0.03218227997422218,0.08142368495464325,0.28380221128463745],"type":"VEC3"}],"materials":[{"pbrMetallicRoughness":{"metallicFactor":0,"roughnessFactor":1,"baseColorTexture":{"index":0}},"alphaMode":"MASK","alphaCutoff":0.05,"doubleSided":true}],"textures":[{"sampler":0,"source":0,"name":"texture"}],"samplers":[{"magFilter":9728,"minFilter":9728,"wrapS":10497,"wrapT":10497}],"images":[{"uri":"ap_17.png","extras":{"resourceLocation":"trd:textures/item/gun/ap_17.png"}}],"meshes":[{"primitives":[{"mode":4,"attributes":{"POSITION":0,"NORMAL":1,"TEXCOORD_0":2,"JOINTS_0":3,"WEIGHTS_0":4},"indices":5,"material":0}]}],"skins":[{"inverseBindMatrices":6,"joints":[3,0,1,2],"skeleton":3}],"animations":[{"name":"shot","samplers":[{"input":7,"output":8,"interpolation":"LINEAR"},{"input":9,"output":10,"interpolation":"LINEAR"},{"input":11,"output":12,"interpolation":"LINEAR"}],"channels":[{"sampler":0,"target":{"node":3,"path":"rotation"}},{"sampler":1,"target":{"node":3,"path":"translation"}},{"sampler":2,"target":{"node":2,"path":"translation"}}]},{"name":"reload","samplers":[{"input":13,"output":14,"interpolation":"LINEAR"},{"input":15,"output":16,"interpolation":"LINEAR"},{"input":17,"output":18,"interpolation":"LINEAR"},{"input":19,"output":20,"interpolation":"LINEAR"}],"channels":[{"sampler":0,"target":{"node":1,"path":"translation"}},{"sampler":1,"target":{"node":1,"path":"scale"}},{"sampler":2,"target":{"node":3,"path":"rotation"}},{"sampler":3,"target":{"node":3,"path":"translation"}}]},{"name":"flip","samplers":[{"input":21,"output":22,"interpolation":"LINEAR"},{"input":23,"output":24,"interpolation":"LINEAR"},{"input":25,"output":26,"interpolation":"LINEAR"},{"input":27,"output":28,"interpolation":"LINEAR"},{"input":29,"output":30,"interpolation":"LINEAR"}],"channels":[{"sampler":0,"target":{"node":1,"path":"rotation"}},{"sampler":1,"target":{"node":1,"path":"translation"}},{"sampler":2,"target":{"node":1,"path":"scale"}},{"sampler":3,"target":{"node":3,"path":"rotation"}},{"sampler":4,"target":{"node":3,"path":"translation"}}]}]}