{"asset":{"version":"2.0","generator":"Blockbench 5.2.1 glTF exporter"},"scenes":[{"nodes":[3],"name":"blockbench_export"}],"scene":0,"nodes":[{"translation":[0.018749999999999996,0.02656249999999999,0],"name":"ring"},{"translation":[-0.06414687499999999,0.044406874999999985,0.00116625],"name":"pin","children":[0]},{"name":"main","children":[1]},{"translation":[-0.012511875,0.160268125,-0.00028],"name":"main","mesh":0,"children":[2],"skin":0}],"bufferViews":[{"buffer":0,"byteOffset":0,"byteLength":14928,"target":34962,"byteStride":12},{"buffer":0,"byteOffset":14928,"byteLength":14928,"target":34962,"byteStride":12},{"buffer":0,"byteOffset":29856,"byteLength":9952,"target":34962,"byteStride":8},{"buffer":0,"byteOffset":39808,"byteLength":9952,"target":34962,"byteStride":8},{"buffer":0,"byteOffset":49760,"byteLength":19904,"target":34962,"byteStride":16},{"buffer":0,"byteOffset":69664,"byteLength":3540,"target":34963},{"buffer":0,"byteOffset":73204,"byteLength":192},{"buffer":0,"byteOffset":73396,"byteLength":72},{"buffer":0,"byteOffset":73468,"byteLength":288},{"buffer":0,"byteOffset":73756,"byteLength":8},{"buffer":0,"byteOffset":73764,"byteLength":24},{"buffer":0,"byteOffset":73788,"byteLength":40},{"buffer":0,"byteOffset":73828,"byteLength":160},{"buffer":0,"byteOffset":73988,"byteLength":52},{"buffer":0,"byteOffset":74040,"byteLength":156},{"buffer":0,"byteOffset":74196,"byteLength":8},{"buffer":0,"byteOffset":74204,"byteLength":24},{"buffer":0,"byteOffset":74228,"byteLength":12},{"buffer":0,"byteOffset":74240,"byteLength":48},{"buffer":0,"byteOffset":74288,"byteLength":28},{"buffer":0,"byteOffset":74316,"byteLength":112},{"buffer":0,"byteOffset":74428,"byteLength":16},{"buffer":0,"byteOffset":74444,"byteLength":48},{"buffer":0,"byteOffset":74492,"byteLength":4},{"buffer":0,"byteOffset":74496,"byteLength":12}],"buffers":[{"byteLength":74508,"uri":"data:application/octet-stream;base64,"}],"accessors":[{"bufferView":0,"componentType":5126,"count":1244,"max":[0.10782437026500702,0.12410687655210495,0.09559249877929688],"min":[-0.08280062675476074,-0.16188561916351318,-0.09503249824047089],"type":"VEC3"},{"bufferView":1,"componentType":5126,"count":1244,"max":[1,1,1],"min":[-1,-1,-1],"type":"VEC3"},{"bufferView":2,"componentType":5126,"count":1244,"max":[0.890625,0.9765625],"min":[0,0],"type":"VEC2"},{"bufferView":3,"componentType":5123,"count":1244,"max":[0,2,0,0],"min":[0,0,0,0],"type":"VEC4"},{"bufferView":4,"componentType":5126,"count":1244,"max":[0,1,0,0],"min":[0,1,0,0],"type":"VEC4"},{"bufferView":5,"componentType":5123,"count":1770,"max":[1243],"min":[0],"type":"SCALAR"},{"bufferView":6,"componentType":5126,"count":3,"max":[1,0,0,0,0,1,0,0,0,0,1,0,0.06414687633514404,0,0,1],"min":[1,0,0,0,0,1,0,0,0,0,1,0,0,-0.07096937298774719,-0.001166249974630773,1],"type":"MAT4"},{"bufferView":7,"componentType":5126,"count":18,"max":[1.0833333730697632],"min":[0],"type":"SCALAR"},{"bufferView":8,"componentType":5126,"count":18,"max":[0,0,0.005454126745462418,1],"min":[0,0,-0.09349964559078217,0.9956192970275879],"type":"VEC4"},{"bufferView":9,"componentType":5126,"count":2,"max":[0.0833333358168602],"min":[0],"type":"SCALAR"},{"bufferView":10,"componentType":5126,"count":2,"max":[-0.012511874549090862,0.1602681279182434,-0.0002800000074785203],"min":[-0.012511874549090862,0.1602681279182434,-0.0002800000074785203],"type":"VEC3"},{"bufferView":11,"componentType":5126,"count":10,"max":[0.7916666865348816],"min":[0],"type":"SCALAR"},{"bufferView":12,"componentType":5126,"count":10,"max":[0,0,0.989088773727417,1],"min":[0,0,-0.06943404674530029,-0.30070579051971436],"type":"VEC4"},{"bufferView":13,"componentType":5126,"count":13,"max":[0.7916666865348816],"min":[0],"type":"SCALAR"},{"bufferView":14,"componentType":5126,"count":13,"max":[-0.05242812633514404,0.08737562596797943,0.001166249974630773],"min":[-0.25164687633514404,-0.6430931091308594,0.001166249974630773],"type":"VEC3"},{"bufferView":15,"componentType":5126,"count":2,"max":[0.8333333134651184],"min":[0.7916666865348816],"type":"SCALAR"},{"bufferView":16,"componentType":5126,"count":2,"max":[1,1,1],"min":[0,1,0],"type":"VEC3"},{"bufferView":17,"componentType":5126,"count":3,"max":[0.4583333432674408],"min":[0],"type":"SCALAR"},{"bufferView":18,"componentType":5126,"count":3,"max":[0,0,0,1],"min":[0,0,-0.6915130615234375,0.7223639488220215],"type":"VEC4"},{"bufferView":19,"componentType":5126,"count":7,"max":[0.375],"min":[0],"type":"SCALAR"},{"bufferView":20,"componentType":5126,"count":7,"max":[0.36243805289268494,0,0,1],"min":[0,0,0,0.9320078492164612],"type":"VEC4"},{"bufferView":21,"componentType":5126,"count":4,"max":[0.375],"min":[0],"type":"SCALAR"},{"bufferView":22,"componentType":5126,"count":4,"max":[-0.012511874549090862,0.5977681279182434,-0.0002800000074785203],"min":[-0.012511874549090862,0.1602681279182434,-1.5002800226211548],"type":"VEC3"},{"bufferView":23,"componentType":5126,"count":1,"max":[0],"min":[0],"type":"SCALAR"},{"bufferView":24,"componentType":5126,"count":1,"max":[0,0,0],"min":[0,0,0],"type":"VEC3"}],"materials":[{"pbrMetallicRoughness":{"metallicFactor":0,"roughnessFactor":1,"baseColorTexture":{"index":0}},"alphaMode":"MASK","alphaCutoff":0.05,"doubleSided":true}],"textures":[{"sampler":0,"source":0,"name":"texture"}],"samplers":[{"magFilter":9728,"minFilter":9728,"wrapS":10497,"wrapT":10497}],"images":[{"mimeType":"image/png","name":"texture","uri":"trd:item/grenade_if_fire","extras":{"resourceLocation":"trd:textures/item/grenade_if_fire.png"}}],"meshes":[{"primitives":[{"mode":4,"attributes":{"POSITION":0,"NORMAL":1,"TEXCOORD_0":2,"JOINTS_0":3,"WEIGHTS_0":4},"indices":5,"material":0}]}],"skins":[{"inverseBindMatrices":6,"joints":[2,1,0],"skeleton":2}],"animations":[{"name":"pin_pull","samplers":[{"input":7,"output":8,"interpolation":"LINEAR"},{"input":9,"output":10,"interpolation":"LINEAR"},{"input":11,"output":12,"interpolation":"LINEAR"},{"input":13,"output":14,"interpolation":"LINEAR"},{"input":15,"output":16,"interpolation":"LINEAR"},{"input":17,"output":18,"interpolation":"LINEAR"}],"channels":[{"sampler":0,"target":{"node":2,"path":"rotation"}},{"sampler":1,"target":{"node":2,"path":"translation"}},{"sampler":2,"target":{"node":1,"path":"rotation"}},{"sampler":3,"target":{"node":1,"path":"translation"}},{"sampler":4,"target":{"node":1,"path":"scale"}},{"sampler":5,"target":{"node":0,"path":"rotation"}}]},{"name":"throw","samplers":[{"input":19,"output":20,"interpolation":"LINEAR"},{"input":21,"output":22,"interpolation":"LINEAR"},{"input":23,"output":24,"interpolation":"LINEAR"}],"channels":[{"sampler":0,"target":{"node":2,"path":"rotation"}},{"sampler":1,"target":{"node":2,"path":"translation"}},{"sampler":2,"target":{"node":1,"path":"scale"}}]}]}