# Made in Blockbench 5.1.6
mtllib ../block/base_pipe.mtl

o nearZ_1
v 0.632743163416431 0.029411764705882387 0.3672566213611814
v 0.6327431634164309 0.5294117647058822 0.3672566213611813
v 0.6877273342010343 0.5294117647058825 0.5000001521852089
v 0.6877273342010342 0.029411764705882415 0.5000001521852091
v 0.4999999999999999 0.029411764705882387 0.49999999999999967
v 0.5000001521852092 0.02941176470588233 0.3122726657989654
v 0.5000001521852093 0.5294117647058822 0.31227266579896507
v 0.3672566213611816 0.02941176470588233 0.36725683658356856
v 0.3672566213611816 0.5294117647058824 0.36725683658356834
v 0.3122726657989655 0.02941176470588236 0.49999984781479023
v 0.3122726657989655 0.5294117647058825 0.49999984781479
v 0.3672568365835688 0.029411764705882443 0.6327433786388179
v 0.3672568365835688 0.5294117647058825 0.6327433786388177
v 0.49999984781479045 0.029411764705882498 0.6877273342010339
v 0.49999984781479045 0.5294117647058825 0.6877273342010337
v 0.6327433786388181 0.029411764705882443 0.6327431634164308
v 0.6327433786388181 0.5294117647058825 0.6327431634164306
vt 0.37407500000000077 1
vt 0.37407500000000077 0.375
vt 0.1875927746128546 0.375
vt 0.1875927746128546 1
vt 0.05271335420808304 0.30723544536884184
vt 0 0.1799741507215108
vt 0.17997429662155312 0.17997429662155318
vt 0.1864822253871464 1
vt 0.1864822253871464 0.375
vt 0 0.375
vt 0 1
vt 0.1799741507215108 0.35994859324310635
vt 0.05271335420808304 0.30723544536884184
vt 0.17997429662155312 0.17997429662155318
vt 0.3740750000000009 1
vt 0.3740750000000009 0.375
vt 0.18759277461285473 0.375
vt 0.18759277461285473 1
vt 0.30723544536884173 0.30723523903502326
vt 0.1799741507215108 0.35994859324310635
vt 0.17997429662155312 0.17997429662155318
vt 0.1864822253871464 1
vt 0.1864822253871464 0.375
vt 0 0.375
vt 0 1
vt 0.35994859324310646 0.17997444252159545
vt 0.30723544536884173 0.30723523903502326
vt 0.17997429662155312 0.17997429662155318
vt 0.37407500000000077 1
vt 0.37407500000000077 0.375
vt 0.1875927746128546 0.375
vt 0.1875927746128546 1
vt 0.3072352390350235 0.05271314787426418
vt 0.35994859324310646 0.17997444252159545
vt 0.17997429662155312 0.17997429662155318
vt 0.1864822253871464 1
vt 0.1864822253871464 0.375
vt 0 0.375
vt 0 1
vt 0.17997444252159545 0
vt 0.3072352390350235 0.05271314787426418
vt 0.17997429662155312 0.17997429662155318
vt 0.37407500000000077 1
vt 0.37407500000000077 0.375
vt 0.1875927746128546 0.375
vt 0.1875927746128546 1
vt 0.0527131478742644 0.052713354208083096
vt 0.17997444252159545 0
vt 0.17997429662155312 0.17997429662155318
vt 0.1864822253871464 1
vt 0.1864822253871464 0.375
vt 0 0.375
vt 0 1
vt 0 0.1799741507215108
vt 0.0527131478742644 0.052713354208083096
vt 0.17997429662155312 0.17997429662155318
vn 0.9238795325112866 2.816981967790859e-17 -0.3826834323650903
vn 1.224646799147353e-16 -1 2.2204460492503128e-16
vn 0.3826834323650906 -6.535349848819722e-16 -0.9238795325112865
vn 1.224646799147353e-16 -1 2.2204460492503128e-16
vn -0.38268343236509 -4.146637398674149e-16 -0.9238795325112867
vn 1.224646799147353e-16 -1 2.2204460492503128e-16
vn -0.923879532511287 -1.8051696143309694e-16 -0.3826834323650896
vn 1.224646799147353e-16 -1 2.2204460492503128e-16
vn -0.9238795325112868 1.5937420477034824e-16 0.38268343236508984
vn 1.2246434090517327e-16 -1 6.402282220611933e-16
vn -0.3826834323650899 4.0590612331175023e-16 0.9238795325112867
vn -1.8623221641426378e-20 -1 5.177454565211269e-16
vn 0.3826834323650897 3.7217734409198437e-16 0.923879532511287
vn -1.7323555182740358e-16 -1 5.177453160990906e-16
vn 0.9238795325112867 7.794572853570144e-17 0.3826834323650899
vn 1.224646799147353e-16 -1 2.2204460492503128e-16
usemtl m_0
f 1/1/1 2/2/1 3/3/1 4/4/1
f 1/5/2 4/6/2 5/7/2
f 6/8/3 7/9/3 2/10/3 1/11/3
f 6/12/4 1/13/4 5/14/4
f 8/15/5 9/16/5 7/17/5 6/18/5
f 8/19/6 6/20/6 5/21/6
f 10/22/7 11/23/7 9/24/7 8/25/7
f 10/26/8 8/27/8 5/28/8
f 12/29/9 13/30/9 11/31/9 10/32/9
f 12/33/10 10/34/10 5/35/10
f 14/36/11 15/37/11 13/38/11 12/39/11
f 14/40/12 12/41/12 5/42/12
f 16/43/13 17/44/13 15/45/13 14/46/13
f 16/47/14 14/48/14 5/49/14
f 4/50/15 3/51/15 17/52/15 16/53/15
f 4/54/16 16/55/16 5/56/16
o core
v 0.632583 0.5 0.367417
v 0.5 0.5 0.3125
v 0.5 0.632582 0.367417
v 0.5 0.6875 0.5
v 0.632583 0.632582 0.5
v 0.6875 0.5 0.5
v 0.5 0.3125 0.5
v 0.5 0.367417 0.632583
v 0.367418 0.367417 0.5
v 0.367418 0.5 0.632583
v 0.5 0.5 0.6875
v 0.3125 0.5 0.5
v 0.5 0.3125 0.5
v 0.367418 0.367417 0.5
v 0.5 0.367417 0.367417
v 0.5 0.5 0.3125
v 0.367418 0.5 0.367417
v 0.3125 0.5 0.5
v 0.632583 0.367417 0.5
v 0.5 0.3125 0.5
v 0.5 0.367417 0.367417
v 0.632583 0.5 0.367417
v 0.5 0.5 0.3125
v 0.6875 0.5 0.5
v 0.632583 0.367417 0.5
v 0.5 0.367417 0.632583
v 0.5 0.3125 0.5
v 0.6875 0.5 0.5
v 0.632583 0.5 0.632583
v 0.5 0.5 0.6875
v 0.5 0.5 0.6875
v 0.632583 0.5 0.632583
v 0.5 0.632582 0.632583
v 0.5 0.6875 0.5
v 0.632583 0.632582 0.5
v 0.6875 0.5 0.5
v 0.3125 0.5 0.5
v 0.367418 0.5 0.632583
v 0.367418 0.632582 0.5
v 0.5 0.632582 0.632583
v 0.5 0.5 0.6875
v 0.5 0.6875 0.5
v 0.5 0.5 0.3125
v 0.367418 0.5 0.367417
v 0.5 0.632582 0.367417
v 0.3125 0.5 0.5
v 0.367418 0.632582 0.5
v 0.5 0.6875 0.5
vt 0.5668504238241585 0.7497858047033631
vt 0.7600333691207954 0.7497858047033632
vt 0.5668504238241584 0.93125
vt 0.3736674785275217 0.9312499999999999
vt 0.3736674785275218 0.7497858047033631
vt 0.5668504238241584 0.93125
vt 0.5668504238241584 0.93125
vt 0.3736674785275218 0.7497858047033631
vt 0.5668504238241585 0.7497858047033631
vt 0.3736674785275218 0.7497858047033631
vt 0.5668504238241585 0.5683216094067263
vt 0.5668504238241585 0.7497858047033631
vt 0.3736674785275217 0.9312499999999999
vt 0.3736674785275218 0.7497858047033631
vt 0.5668504238241584 0.93125
vt 0.5668504238241585 0.7497858047033631
vt 0.3736674785275218 0.7497858047033631
vt 0.5668504238241585 0.5683216094067263
vt 0.3736674785275218 0.7497858047033631
vt 0.5668504238241585 0.7497858047033631
vt 0.5668504238241584 0.93125
vt 0.5668504238241584 0.93125
vt 0.5668504238241585 0.7497858047033631
vt 0.7600333691207954 0.7497858047033632
vt 0.3736674785275217 0.9312499999999999
vt 0.3736674785275218 0.7497858047033631
vt 0.5668504238241584 0.93125
vt 0.7600333691207954 0.7497858047033632
vt 0.5668504238241584 0.93125
vt 0.5668504238241585 0.7497858047033631
vt 0.5668504238241584 0.93125
vt 0.3736674785275218 0.7497858047033631
vt 0.5668504238241585 0.7497858047033631
vt 0.3736674785275218 0.7497858047033631
vt 0.5668504238241585 0.5683216094067263
vt 0.5668504238241585 0.7497858047033631
vt 0.5668504238241584 0.93125
vt 0.3736674785275217 0.9312499999999999
vt 0.3736674785275218 0.7497858047033631
vt 0.5668504238241585 0.7497858047033631
vt 0.3736674785275218 0.7497858047033631
vt 0.5668504238241585 0.5683216094067263
vt 0.3736674785275218 0.7497858047033631
vt 0.5668504238241585 0.7497858047033631
vt 0.5668504238241584 0.93125
vt 0.7600333691207954 0.7497858047033632
vt 0.5668504238241584 0.93125
vt 0.5668504238241585 0.7497858047033631
vt 0.3736674785275218 0.7497858047033631
vt 0.5668504238241584 0.93125
vt 0.3736674785275217 0.9312499999999999
vt 0.5668504238241585 0.5683216094067263
vt 0.5668504238241585 0.7497858047033631
vt 0.3736674785275218 0.7497858047033631
vt 0.5668504238241584 0.93125
vt 0.3736674785275218 0.7497858047033631
vt 0.5668504238241585 0.7497858047033631
vt 0.5668504238241585 0.7497858047033631
vt 0.7600333691207954 0.7497858047033632
vt 0.5668504238241584 0.93125
vt 0.5668504238241585 0.5683216094067263
vt 0.5668504238241585 0.7497858047033631
vt 0.3736674785275218 0.7497858047033631
vt 0.3736674785275217 0.9312499999999999
vt 0.3736674785275218 0.7497858047033631
vt 0.5668504238241584 0.93125
vt 0.5668504238241584 0.93125
vt 0.5668504238241585 0.7497858047033631
vt 0.7600333691207954 0.7497858047033632
vt 0.5668504238241585 0.7497858047033631
vt 0.5668504238241584 0.93125
vt 0.3736674785275218 0.7497858047033631
vt 0.5668504238241585 0.5683216094067263
vt 0.5668504238241585 0.7497858047033631
vt 0.3736674785275218 0.7497858047033631
vt 0.5668504238241585 0.7497858047033631
vt 0.5668504238241584 0.93125
vt 0.3736674785275218 0.7497858047033631
vt 0.5668504238241585 0.7497858047033631
vt 0.7600333691207954 0.7497858047033632
vt 0.5668504238241584 0.93125
vt 0.3736674785275218 0.7497858047033631
vt 0.5668504238241584 0.93125
vt 0.3736674785275217 0.9312499999999999
vt 0.5668504238241585 0.5683216094067263
vt 0.5668504238241585 0.7497858047033631
vt 0.3736674785275218 0.7497858047033631
vt 0.7600333691207954 0.7497858047033632
vt 0.5668504238241584 0.93125
vt 0.5668504238241585 0.7497858047033631
vt 0.5668504238241585 0.7497858047033631
vt 0.5668504238241584 0.93125
vt 0.3736674785275218 0.7497858047033631
vt 0.5668504238241584 0.93125
vt 0.3736674785275217 0.9312499999999999
vt 0.3736674785275218 0.7497858047033631
vn 0.3574031209169473 0.35740581663070126 -0.8628580945887729
vn 0.35740831064862183 0.8628549118818277 -0.35740831064862183
vn 0.5773488176344393 0.5773531722890505 -0.5773488176344393
vn 0.8628580945887729 0.35740581663070126 -0.3574031209169473
vn -0.35740581663070126 -0.8628580945887729 0.3574031209169473
vn -0.35740581663070126 -0.3574031209169473 0.8628580945887729
vn -0.5773531722890505 -0.5773488176344393 0.5773488176344393
vn -0.8628549118818277 -0.35740831064862183 0.35740831064862183
vn -0.35740581663070126 -0.8628580945887729 -0.3574031209169473
vn -0.35740581663070126 -0.3574031209169473 -0.8628580945887729
vn -0.5773531722890505 -0.5773488176344393 -0.5773488176344393
vn -0.8628549118818277 -0.35740831064862183 -0.35740831064862183
vn 0.35740346526110667 -0.8628589259193568 -0.35740346526110667
vn 0.35740346526110667 -0.35740346526110667 -0.8628589259193568
vn 0.5773502691896257 -0.5773502691896257 -0.5773502691896257
vn 0.8628589259193568 -0.35740346526110667 -0.35740346526110667
vn 0.35740346526110667 -0.8628589259193568 0.35740346526110667
vn 0.8628589259193568 -0.35740346526110667 0.35740346526110667
vn 0.5773502691896257 -0.5773502691896257 0.5773502691896257
vn 0.35740346526110667 -0.35740346526110667 0.8628589259193568
vn 0.3574031209169473 0.35740581663070126 0.8628580945887729
vn 0.35740831064862183 0.8628549118818277 0.35740831064862183
vn 0.8628580945887729 0.35740581663070126 0.3574031209169473
vn 0.5773488176344393 0.5773531722890505 0.5773488176344393
vn -0.8628540805325702 0.3574106620407575 0.3574079662904573
vn -0.577351720733864 0.577351720733864 0.5773473660902011
vn -0.35740547228494 0.35740547228494 0.8628572632605919
vn -0.3574106620407575 0.8628540805325702 0.3574079662904573
vn -0.35740547228494 0.35740547228494 -0.8628572632605919
vn -0.8628540805325702 0.3574106620407575 -0.3574079662904573
vn -0.577351720733864 0.577351720733864 -0.5773473660902011
vn -0.3574106620407575 0.8628540805325702 -0.3574079662904573
usemtl m_0
f 18/57/17 19/58/17 20/59/17
f 21/60/18 22/61/18 20/62/18
f 20/63/19 22/64/19 18/65/19
f 22/66/20 23/67/20 18/68/20
f 24/69/21 25/70/21 26/71/21
f 27/72/22 25/73/22 28/74/22
f 25/75/23 27/76/23 26/77/23
f 26/78/24 27/79/24 29/80/24
f 30/81/25 31/82/25 32/83/25
f 33/84/26 32/85/26 34/86/26
f 32/87/27 31/88/27 34/89/27
f 31/90/28 35/91/28 34/92/28
f 36/93/29 37/94/29 38/95/29
f 39/96/30 38/97/30 40/98/30
f 38/99/31 39/100/31 36/101/31
f 41/102/32 36/103/32 39/104/32
f 42/105/33 43/106/33 44/107/33
f 45/108/34 46/109/34 42/110/34
f 43/111/35 42/112/35 46/113/35
f 46/114/36 47/115/36 43/116/36
f 48/117/37 49/118/37 50/119/37
f 51/120/38 50/121/38 52/122/38
f 52/123/39 49/124/39 53/125/39
f 49/126/40 52/127/40 50/128/40
f 54/129/41 55/130/41 56/131/41
f 55/132/42 57/133/42 56/134/42
f 55/135/43 58/136/43 57/137/43
f 56/138/44 57/139/44 59/140/44
f 60/141/45 61/142/45 62/143/45
f 63/144/46 64/145/46 61/146/46
f 61/147/47 64/148/47 62/149/47
f 64/150/48 65/151/48 62/152/48
o nearZ_2
v 0.6327431634164311 0.6327433786388181 0
v 0.6327431634164311 0.6327433786388181 0.49999999999999994
v 0.6877273342010344 0.49999984781479057 0.5
v 0.6877273342010343 0.49999984781479045 0
v 0.49999999999999994 0.4999999999999999 0
v 0.5000001521852093 0.6877273342010342 0
v 0.5000001521852094 0.6877273342010344 0.49999999999999994
v 0.3672566213611817 0.632743163416431 0
v 0.36725662136118176 0.6327431634164311 0.5
v 0.3122726657989656 0.5000001521852093 0
v 0.3122726657989657 0.5000001521852094 0.5
v 0.36725683658356884 0.3672566213611817 5.551115123125783e-17
v 0.3672568365835689 0.3672566213611818 0.5
v 0.4999998478147905 0.31227266579896557 5.551115123125783e-17
v 0.49999984781479057 0.3122726657989657 0.5
v 0.6327433786388181 0.3672568365835688 0
v 0.6327433786388182 0.3672568365835689 0.5
vt 0.37407500000000077 1
vt 0.37407500000000077 0.375
vt 0.1875927746128546 0.375
vt 0.1875927746128546 1
vt 0.05271335420808304 0.30723544536884184
vt 0 0.1799741507215108
vt 0.17997429662155312 0.17997429662155318
vt 0.1864822253871464 1
vt 0.1864822253871464 0.375
vt 0 0.375
vt 0 1
vt 0.1799741507215108 0.35994859324310635
vt 0.05271335420808304 0.30723544536884184
vt 0.17997429662155312 0.17997429662155318
vt 0.3740750000000009 1
vt 0.3740750000000009 0.375
vt 0.18759277461285473 0.375
vt 0.18759277461285473 1
vt 0.30723544536884173 0.30723523903502326
vt 0.1799741507215108 0.35994859324310635
vt 0.17997429662155312 0.17997429662155318
vt 0.1864822253871464 1
vt 0.1864822253871464 0.375
vt 0 0.375
vt 0 1
vt 0.35994859324310646 0.17997444252159545
vt 0.30723544536884173 0.30723523903502326
vt 0.17997429662155312 0.17997429662155318
vt 0.37407500000000077 1
vt 0.37407500000000077 0.375
vt 0.1875927746128546 0.375
vt 0.1875927746128546 1
vt 0.3072352390350235 0.05271314787426418
vt 0.35994859324310646 0.17997444252159545
vt 0.17997429662155312 0.17997429662155318
vt 0.1864822253871464 1
vt 0.1864822253871464 0.375
vt 0 0.375
vt 0 1
vt 0.17997444252159545 0
vt 0.3072352390350235 0.05271314787426418
vt 0.17997429662155312 0.17997429662155318
vt 0.37407500000000077 1
vt 0.37407500000000077 0.375
vt 0.1875927746128546 0.375
vt 0.1875927746128546 1
vt 0.0527131478742644 0.052713354208083096
vt 0.17997444252159545 0
vt 0.17997429662155312 0.17997429662155318
vt 0.1864822253871464 1
vt 0.1864822253871464 0.375
vt 0 0.375
vt 0 1
vt 0 0.1799741507215108
vt 0.0527131478742644 0.052713354208083096
vt 0.17997429662155312 0.17997429662155318
vn 0.9238795325112867 0.3826834323650902 0
vn 0 0 -1
vn 0.3826834323650907 0.9238795325112865 -4.95257723140444e-16
vn 0 0 -1
vn -0.3826834323650899 0.9238795325112867 -1.6265607001936063e-16
vn 0 0 -1
vn -0.923879532511287 0.3826834323650897 1.7598441346534372e-17
vn 0 0 -1
vn -0.923879532511287 -0.3826834323650898 1.87544024448257e-16
vn -3.390095620691188e-22 -4.1818361713616203e-16 -1
vn -0.38268343236509006 -0.9238795325112867 2.47628861570222e-16
vn -1.2248330313637675e-16 -2.9570085159609556e-16 -1
vn 0.3826834323650896 -0.923879532511287 1.2016967424393007e-16
vn -2.957002317421389e-16 -2.957007111740592e-16 -1
vn 0.9238795325112867 -0.38268343236509 -1.2016967424392992e-16
vn 0 0 -1
usemtl m_0
f 66/153/49 67/154/49 68/155/49 69/156/49
f 66/157/50 69/158/50 70/159/50
f 71/160/51 72/161/51 67/162/51 66/163/51
f 71/164/52 66/165/52 70/166/52
f 73/167/53 74/168/53 72/169/53 71/170/53
f 73/171/54 71/172/54 70/173/54
f 75/174/55 76/175/55 74/176/55 73/177/55
f 75/178/56 73/179/56 70/180/56
f 77/181/57 78/182/57 76/183/57 75/184/57
f 77/185/58 75/186/58 70/187/58
f 79/188/59 80/189/59 78/190/59 77/191/59
f 79/192/60 77/193/60 70/194/60
f 81/195/61 82/196/61 80/197/61 79/198/61
f 81/199/62 79/200/62 70/201/62
f 69/202/63 68/203/63 82/204/63 81/205/63
f 69/206/64 81/207/64 70/208/64
o nearZ_3
v 0.3672568365835689 0.6327433786388181 1
v 0.3672568365835688 0.6327433786388181 0.5000000000000001
v 0.3122726657989655 0.49999984781479057 0.5000000000000001
v 0.31227266579896573 0.49999984781479045 1
v 0.5 0.4999999999999999 1
v 0.4999998478147907 0.6877273342010342 1
v 0.49999984781479045 0.6877273342010344 0.5000000000000001
v 0.6327433786388184 0.632743163416431 1
v 0.6327433786388181 0.6327431634164311 0.5
v 0.6877273342010344 0.5000001521852093 1
v 0.6877273342010343 0.5000001521852094 0.5
v 0.6327431634164311 0.3672566213611817 1
v 0.6327431634164311 0.3672566213611818 0.5
v 0.5000001521852095 0.31227266579896557 1
v 0.5000001521852093 0.3122726657989657 0.5
v 0.36725662136118187 0.3672568365835688 1
v 0.36725662136118165 0.3672568365835689 0.5
vt 0.37407500000000077 1
vt 0.37407500000000077 0.375
vt 0.1875927746128546 0.375
vt 0.1875927746128546 1
vt 0.05271335420808304 0.30723544536884184
vt 0 0.1799741507215108
vt 0.17997429662155312 0.17997429662155318
vt 0.1864822253871464 1
vt 0.1864822253871464 0.375
vt 0 0.375
vt 0 1
vt 0.1799741507215108 0.35994859324310635
vt 0.05271335420808304 0.30723544536884184
vt 0.17997429662155312 0.17997429662155318
vt 0.3740750000000009 1
vt 0.3740750000000009 0.375
vt 0.18759277461285473 0.375
vt 0.18759277461285473 1
vt 0.30723544536884173 0.30723523903502326
vt 0.1799741507215108 0.35994859324310635
vt 0.17997429662155312 0.17997429662155318
vt 0.1864822253871464 1
vt 0.1864822253871464 0.375
vt 0 0.375
vt 0 1
vt 0.35994859324310646 0.17997444252159545
vt 0.30723544536884173 0.30723523903502326
vt 0.17997429662155312 0.17997429662155318
vt 0.37407500000000077 1
vt 0.37407500000000077 0.375
vt 0.1875927746128546 0.375
vt 0.1875927746128546 1
vt 0.3072352390350235 0.05271314787426418
vt 0.35994859324310646 0.17997444252159545
vt 0.17997429662155312 0.17997429662155318
vt 0.1864822253871464 1
vt 0.1864822253871464 0.375
vt 0 0.375
vt 0 1
vt 0.17997444252159545 0
vt 0.3072352390350235 0.05271314787426418
vt 0.17997429662155312 0.17997429662155318
vt 0.37407500000000077 1
vt 0.37407500000000077 0.375
vt 0.1875927746128546 0.375
vt 0.1875927746128546 1
vt 0.0527131478742644 0.052713354208083096
vt 0.17997444252159545 0
vt 0.17997429662155312 0.17997429662155318
vt 0.1864822253871464 1
vt 0.1864822253871464 0.375
vt 0 0.375
vt 0 1
vt 0 0.1799741507215108
vt 0.0527131478742644 0.052713354208083096
vt 0.17997429662155312 0.17997429662155318
vn -0.9238795325112867 0.3826834323650902 1.1314261122877003e-16
vn 1.2246467991473532e-16 0 1
vn -0.3826834323650907 0.9238795325112865 5.421229271937071e-16
vn 1.2246467991473532e-16 0 1
vn 0.3826834323650899 0.9238795325112867 1.1579086596609763e-16
vn 1.2246467991473532e-16 0 1
vn 0.923879532511287 0.3826834323650897 -1.3074105257530443e-16
vn 1.2246467991473532e-16 0 1
vn 0.923879532511287 -0.3826834323650898 -3.0068663567702703e-16
vn 1.224650189242974e-16 -4.1818361713616203e-16 1
vn 0.38268343236509006 -0.9238795325112867 -2.9449406562348503e-16
vn 2.4494798305111207e-16 -2.9570085159609556e-16 1
vn -0.3826834323650896 -0.923879532511287 -7.330447019066711e-17
vn 4.181649116568742e-16 -2.957007111740592e-16 1
vn -0.9238795325112867 -0.38268343236509 2.3331228547269997e-16
vn 1.2246467991473532e-16 0 1
usemtl m_0
f 83/209/65 84/210/65 85/211/65 86/212/65
f 83/213/66 86/214/66 87/215/66
f 88/216/67 89/217/67 84/218/67 83/219/67
f 88/220/68 83/221/68 87/222/68
f 90/223/69 91/224/69 89/225/69 88/226/69
f 90/227/70 88/228/70 87/229/70
f 92/230/71 93/231/71 91/232/71 90/233/71
f 92/234/72 90/235/72 87/236/72
f 94/237/73 95/238/73 93/239/73 92/240/73
f 94/241/74 92/242/74 87/243/74
f 96/244/75 97/245/75 95/246/75 94/247/75
f 96/248/76 94/249/76 87/250/76
f 98/251/77 99/252/77 97/253/77 96/254/77
f 98/255/78 96/256/78 87/257/78
f 86/258/79 85/259/79 99/260/79 98/261/79
f 86/262/80 98/263/80 87/264/80
o nearZ_4
v 0.367256836583569 0.9999999999999999 0.36725662136118176
v 0.367256836583569 0.4999999999999999 0.36725662136118187
v 0.31227266579896573 0.4999999999999999 0.5000001521852094
v 0.31227266579896584 0.9999999999999999 0.5000001521852094
v 0.5000000000000001 0.9999999999999999 0.5
v 0.4999998478147908 0.9999999999999999 0.31227266579896573
v 0.4999998478147907 0.4999999999999999 0.3122726657989656
v 0.6327433786388184 0.9999999999999999 0.367256836583569
v 0.6327433786388184 0.4999999999999999 0.367256836583569
v 0.6877273342010344 0.9999999999999999 0.4999998478147907
v 0.6877273342010344 0.4999999999999999 0.4999998478147907
v 0.6327431634164312 0.9999999999999999 0.6327433786388182
v 0.6327431634164311 0.4999999999999999 0.6327433786388182
v 0.5000001521852095 0.9999999999999999 0.6877273342010344
v 0.5000001521852095 0.4999999999999999 0.6877273342010344
v 0.36725662136118187 0.9999999999999999 0.6327431634164311
v 0.36725662136118176 0.4999999999999999 0.6327431634164311
vt 0.37407500000000077 1
vt 0.37407500000000077 0.375
vt 0.1875927746128546 0.375
vt 0.1875927746128546 1
vt 0.05271335420808304 0.30723544536884184
vt 0 0.1799741507215108
vt 0.17997429662155312 0.17997429662155318
vt 0.1864822253871464 1
vt 0.1864822253871464 0.375
vt 0 0.375
vt 0 1
vt 0.1799741507215108 0.35994859324310635
vt 0.05271335420808304 0.30723544536884184
vt 0.17997429662155312 0.17997429662155318
vt 0.3740750000000009 1
vt 0.3740750000000009 0.375
vt 0.18759277461285473 0.375
vt 0.18759277461285473 1
vt 0.30723544536884173 0.30723523903502326
vt 0.1799741507215108 0.35994859324310635
vt 0.17997429662155312 0.17997429662155318
vt 0.1864822253871464 1
vt 0.1864822253871464 0.375
vt 0 0.375
vt 0 1
vt 0.35994859324310646 0.17997444252159545
vt 0.30723544536884173 0.30723523903502326
vt 0.17997429662155312 0.17997429662155318
vt 0.37407500000000077 1
vt 0.37407500000000077 0.375
vt 0.1875927746128546 0.375
vt 0.1875927746128546 1
vt 0.3072352390350235 0.05271314787426418
vt 0.35994859324310646 0.17997444252159545
vt 0.17997429662155312 0.17997429662155318
vt 0.1864822253871464 1
vt 0.1864822253871464 0.375
vt 0 0.375
vt 0 1
vt 0.17997444252159545 0
vt 0.3072352390350235 0.05271314787426418
vt 0.17997429662155312 0.17997429662155318
vt 0.37407500000000077 1
vt 0.37407500000000077 0.375
vt 0.1875927746128546 0.375
vt 0.1875927746128546 1
vt 0.0527131478742644 0.052713354208083096
vt 0.17997444252159545 0
vt 0.17997429662155312 0.17997429662155318
vt 0.1864822253871464 1
vt 0.1864822253871464 0.375
vt 0 0.375
vt 0 1
vt 0 0.1799741507215108
vt 0.0527131478742644 0.052713354208083096
vt 0.17997429662155312 0.17997429662155318
vn -0.9238795325112867 -8.497279155086142e-17 -0.38268343236509034
vn 2.5407181807812022e-33 1 -2.220446049250313e-16
vn -0.3826834323650906 2.901152573456528e-16 -0.9238795325112865
vn 2.5407181807812022e-33 1 -2.220446049250313e-16
vn 0.38268343236509 -4.2486395775430656e-17 -0.9238795325112867
vn 2.5407181807812022e-33 1 -2.220446049250313e-16
vn 0.923879532511287 -1.0257123289739563e-16 -0.3826834323650896
vn 2.5407181807812022e-33 1 -2.220446049250313e-16
vn 0.9238795325112867 -1.0257123289739565e-16 0.3826834323650898
vn 3.390095620204468e-22 1 1.9613901221113072e-16
vn 0.38268343236508995 -4.248639577543073e-17 0.9238795325112867
vn 1.2248330313637672e-16 1 7.365624667106425e-17
vn -0.3826834323650897 8.497279155086126e-17 0.923879532511287
vn 2.9570023174213887e-16 1 7.365610624902793e-17
vn -0.9238795325112867 2.0514246579479123e-16 0.3826834323650899
vn 2.5407181807812022e-33 1 -2.220446049250313e-16
usemtl m_0
f 100/265/81 101/266/81 102/267/81 103/268/81
f 100/269/82 103/270/82 104/271/82
f 105/272/83 106/273/83 101/274/83 100/275/83
f 105/276/84 100/277/84 104/278/84
f 107/279/85 108/280/85 106/281/85 105/282/85
f 107/283/86 105/284/86 104/285/86
f 109/286/87 110/287/87 108/288/87 107/289/87
f 109/290/88 107/291/88 104/292/88
f 111/293/89 112/294/89 110/295/89 109/296/89
f 111/297/90 109/298/90 104/299/90
f 113/300/91 114/301/91 112/302/91 111/303/91
f 113/304/92 111/305/92 104/306/92
f 115/307/93 116/308/93 114/309/93 113/310/93
f 115/311/94 113/312/94 104/313/94
f 103/314/95 102/315/95 116/316/95 115/317/95
f 103/318/96 115/319/96 104/320/96
o nearZ_5
v 1.4049720573981597e-16 0.6327433786388181 0.3672568365835689
v 0.5000000000000001 0.6327433786388181 0.367256836583569
v 0.5000000000000001 0.49999984781479057 0.31227266579896573
v 1.5270614421881363e-16 0.49999984781479045 0.31227266579896573
v 1.1102230246251564e-16 0.4999999999999999 0.5
v 1.1102233625442033e-16 0.6877273342010342 0.4999998478147907
v 0.5000000000000001 0.6877273342010344 0.4999998478147907
v 8.15473513962454e-17 0.632743163416431 0.6327433786388184
v 0.5000000000000001 0.6327431634164311 0.6327433786388184
v 6.933846070621766e-17 0.5000001521852093 0.6877273342010344
v 0.5000000000000001 0.5000001521852094 0.6877273342010344
v 1.3705855041647317e-16 0.3672566213611817 0.6327431634164311
v 0.5000000000000001 0.3672566213611818 0.6327431634164312
v 1.6653341990186875e-16 0.31227266579896557 0.5000001521852095
v 0.5000000000000001 0.3122726657989657 0.5000001521852095
v 1.4049725352878587e-16 0.3672568365835688 0.36725662136118187
v 0.5000000000000001 0.3672568365835689 0.36725662136118187
vt 0.37407500000000077 1
vt 0.37407500000000077 0.375
vt 0.1875927746128546 0.375
vt 0.1875927746128546 1
vt 0.05271335420808304 0.30723544536884184
vt 0 0.1799741507215108
vt 0.17997429662155312 0.17997429662155318
vt 0.1864822253871464 1
vt 0.1864822253871464 0.375
vt 0 0.375
vt 0 1
vt 0.1799741507215108 0.35994859324310635
vt 0.05271335420808304 0.30723544536884184
vt 0.17997429662155312 0.17997429662155318
vt 0.3740750000000009 1
vt 0.3740750000000009 0.375
vt 0.18759277461285473 0.375
vt 0.18759277461285473 1
vt 0.30723544536884173 0.30723523903502326
vt 0.1799741507215108 0.35994859324310635
vt 0.17997429662155312 0.17997429662155318
vt 0.1864822253871464 1
vt 0.1864822253871464 0.375
vt 0 0.375
vt 0 1
vt 0.35994859324310646 0.17997444252159545
vt 0.30723544536884173 0.30723523903502326
vt 0.17997429662155312 0.17997429662155318
vt 0.37407500000000077 1
vt 0.37407500000000077 0.375
vt 0.1875927746128546 0.375
vt 0.1875927746128546 1
vt 0.3072352390350235 0.05271314787426418
vt 0.35994859324310646 0.17997444252159545
vt 0.17997429662155312 0.17997429662155318
vt 0.1864822253871464 1
vt 0.1864822253871464 0.375
vt 0 0.375
vt 0 1
vt 0.17997444252159545 0
vt 0.3072352390350235 0.05271314787426418
vt 0.17997429662155312 0.17997429662155318
vt 0.37407500000000077 1
vt 0.37407500000000077 0.375
vt 0.1875927746128546 0.375
vt 0.1875927746128546 1
vt 0.0527131478742644 0.052713354208083096
vt 0.17997444252159545 0
vt 0.17997429662155312 0.17997429662155318
vt 0.1864822253871464 1
vt 0.1864822253871464 0.375
vt 0 0.375
vt 0 1
vt 0 0.1799741507215108
vt 0.0527131478742644 0.052713354208083096
vt 0.17997429662155312 0.17997429662155318
vn 2.0514246579479128e-16 0.3826834323650902 -0.9238795325112867
vn -1 0 -2.220446049250313e-16
vn -4.102849315895825e-16 0.9238795325112865 -0.3826834323650907
vn -1 0 -2.220446049250313e-16
vn -2.4762886157022196e-16 0.9238795325112867 0.3826834323650899
vn -1 0 -2.220446049250313e-16
vn -1.8754402444825695e-16 0.3826834323650897 0.923879532511287
vn -1 0 -2.220446049250313e-16
vn -1.7598441346534332e-17 -0.3826834323650898 0.923879532511287
vn -1 -4.1818361713616203e-16 -2.2204426591546924e-16
vn 1.6265607001936065e-16 -0.9238795325112867 0.38268343236509006
vn -1 -2.9570085159609556e-16 -9.956130178865456e-17
vn 2.0514246579479133e-16 -0.923879532511287 -0.3826834323650896
vn -1 -2.957007111740592e-16 7.365562681710761e-17
vn 8.497279155086136e-17 -0.38268343236509 -0.9238795325112867
vn -1 0 -2.220446049250313e-16
usemtl m_0
f 117/321/97 118/322/97 119/323/97 120/324/97
f 117/325/98 120/326/98 121/327/98
f 122/328/99 123/329/99 118/330/99 117/331/99
f 122/332/100 117/333/100 121/334/100
f 124/335/101 125/336/101 123/337/101 122/338/101
f 124/339/102 122/340/102 121/341/102
f 126/342/103 127/343/103 125/344/103 124/345/103
f 126/346/104 124/347/104 121/348/104
f 128/349/105 129/350/105 127/351/105 126/352/105
f 128/353/106 126/354/106 121/355/106
f 130/356/107 131/357/107 129/358/107 128/359/107
f 130/360/108 128/361/108 121/362/108
f 132/363/109 133/364/109 131/365/109 130/366/109
f 132/367/110 130/368/110 121/369/110
f 120/370/111 119/371/111 133/372/111 132/373/111
f 120/374/112 132/375/112 121/376/112
o nearZ_6
v 1.0000000000000002 0.6327433786388181 0.6327431634164311
v 0.5000000000000002 0.6327433786388181 0.6327431634164312
v 0.5000000000000002 0.49999984781479057 0.6877273342010345
v 1.0000000000000002 0.49999984781479045 0.6877273342010343
v 1 0.4999999999999999 0.49999999999999994
v 1.0000000000000002 0.6877273342010342 0.5000001521852093
v 0.5000000000000002 0.6877273342010344 0.5000001521852095
v 1 0.632743163416431 0.3672566213611817
v 0.5 0.6327431634164311 0.36725662136118187
v 1 0.5000001521852093 0.3122726657989656
v 0.5 0.5000001521852094 0.3122726657989658
v 1 0.3672566213611817 0.36725683658356884
v 0.5 0.3672566213611818 0.367256836583569
v 1 0.31227266579896557 0.4999998478147905
v 0.5000000000000001 0.3122726657989657 0.4999998478147907
v 1.0000000000000002 0.3672568365835688 0.6327433786388181
v 0.5000000000000002 0.3672568365835689 0.6327433786388184
vt 0.37407500000000077 1
vt 0.37407500000000077 0.375
vt 0.1875927746128546 0.375
vt 0.1875927746128546 1
vt 0.05271335420808304 0.30723544536884184
vt 0 0.1799741507215108
vt 0.17997429662155312 0.17997429662155318
vt 0.1864822253871464 1
vt 0.1864822253871464 0.375
vt 0 0.375
vt 0 1
vt 0.1799741507215108 0.35994859324310635
vt 0.05271335420808304 0.30723544536884184
vt 0.17997429662155312 0.17997429662155318
vt 0.3740750000000009 1
vt 0.3740750000000009 0.375
vt 0.18759277461285473 0.375
vt 0.18759277461285473 1
vt 0.30723544536884173 0.30723523903502326
vt 0.1799741507215108 0.35994859324310635
vt 0.17997429662155312 0.17997429662155318
vt 0.1864822253871464 1
vt 0.1864822253871464 0.375
vt 0 0.375
vt 0 1
vt 0.35994859324310646 0.17997444252159545
vt 0.30723544536884173 0.30723523903502326
vt 0.17997429662155312 0.17997429662155318
vt 0.37407500000000077 1
vt 0.37407500000000077 0.375
vt 0.1875927746128546 0.375
vt 0.1875927746128546 1
vt 0.3072352390350235 0.05271314787426418
vt 0.35994859324310646 0.17997444252159545
vt 0.17997429662155312 0.17997429662155318
vt 0.1864822253871464 1
vt 0.1864822253871464 0.375
vt 0 0.375
vt 0 1
vt 0.17997444252159545 0
vt 0.3072352390350235 0.05271314787426418
vt 0.17997429662155312 0.17997429662155318
vt 0.37407500000000077 1
vt 0.37407500000000077 0.375
vt 0.1875927746128546 0.375
vt 0.1875927746128546 1
vt 0.0527131478742644 0.052713354208083096
vt 0.17997444252159545 0
vt 0.17997429662155312 0.17997429662155318
vt 0.1864822253871464 1
vt 0.1864822253871464 0.375
vt 0 0.375
vt 0 1
vt 0 0.1799741507215108
vt 0.0527131478742644 0.052713354208083096
vt 0.17997429662155312 0.17997429662155318
vn 2.0514246579479128e-16 0.3826834323650902 0.9238795325112867
vn 1 0 -2.220446049250313e-16
vn 5.802305146913056e-16 0.9238795325112865 0.3826834323650907
vn 1 0 -2.220446049250313e-16
vn 7.76832784684993e-17 0.9238795325112867 -0.3826834323650899
vn 1 0 -2.220446049250313e-16
vn -2.227409071413257e-16 0.3826834323650897 -0.923879532511287
vn 1 0 -2.220446049250313e-16
vn -3.9268649024304836e-16 -0.3826834323650898 -0.923879532511287
vn 1 -4.1818361713616203e-16 -2.2204494393459336e-16
vn -3.3260165312108337e-16 -0.9238795325112867 -0.38268343236509006
vn 1 -2.9570085159609556e-16 -3.4452790806140803e-16
vn -3.519688269306881e-17 -0.923879532511287 0.3826834323650896
vn 1 -2.957007111740592e-16 -5.177448366671703e-16
vn 3.253121400387212e-16 -0.38268343236509 0.9238795325112867
vn 1 0 -2.220446049250313e-16
usemtl m_0
f 134/377/113 135/378/113 136/379/113 137/380/113
f 134/381/114 137/382/114 138/383/114
f 139/384/115 140/385/115 135/386/115 134/387/115
f 139/388/116 134/389/116 138/390/116
f 141/391/117 142/392/117 140/393/117 139/394/117
f 141/395/118 139/396/118 138/397/118
f 143/398/119 144/399/119 142/400/119 141/401/119
f 143/402/120 141/403/120 138/404/120
f 145/405/121 146/406/121 144/407/121 143/408/121
f 145/409/122 143/410/122 138/411/122
f 147/412/123 148/413/123 146/414/123 145/415/123
f 147/416/124 145/417/124 138/418/124
f 149/419/125 150/420/125 148/421/125 147/422/125
f 149/423/126 147/424/126 138/425/126
f 137/426/127 136/427/127 150/428/127 149/429/127
f 137/430/128 149/431/128 138/432/128
