# Made in Blockbench 5.1.6
mtllib cc_machine.mtl

o mesh
v 0.625 2 1.375
v 0.625 2 -1.375
v 0.5625 1.4375 1.4375
v 0.625 1.5 -1.375
v 0.5 2 1.375
v 0.5 2 -1.375
v 0.5625 1.4375 1.4375
v 0.5625 1.4375 -1.4375
v 1.5 1.4375 1.5
v 1.5 1.4375 -1.5
v 1.5 0 1.5
v 1.5 0 -1.5
v 0.5 1.4375 1.5
v 0.5 1.4375 -1.5
v 0.5 0 1.5
v 0.5 0 -1.5
v 1.5 2 -1.375
v 1.5 2 -1.5
v 1.4375 1.4375 -1.4375
v 1.4375 1.4375 -1.4375
v 0.5 2 -1.375
v 0.5 2 -1.5
v 0.5625 1.4375 -1.4375
v 1.5 2 1.375
v 1.4375 1.4375 1.4375
v 0.5 2 1.375
v 0.5625 1.4375 1.4375
v 0.5 2 1.5
v 1.5 2 1.5
v 1.5 2 1.375
v 1.5 2 -1.375
v 1.4375 1.4375 1.4375
v 1.4375 1.4375 -1.4375
v 1.375 2 1.375
v 1.375 2 -1.375
v 1.4375 1.4375 1.4375
v 1.375 1.5 -1.375
v 0.5 0.6875 1.5
v 0.5 0.6875 -1.5
v 0.5 0 1.5
v 0.5 0 -1.5
v -1.5 0.6875 1.5
v -1.5 0.6875 -1.5
v -1.5 0 1.5
v -1.5 0 -1.5
v 1.4375 1.625 1.4375
v 1.4375 1.625 -1.4375
v 1.5 1.4375 1.5
v 1.5 1.4375 -1.5
v 0.5625 1.625 1.4375
v 0.5625 1.625 -1.4375
v 0.5 1.4375 1.5
v 0.5 1.4375 -1.5
v 0.292893125 0.7461543749999997 1.5
v 0.292893125 0.7461543750000004 -1.5
v 0.5 1.4374999999999998 1.5000000000000002
v 0.5 1.4374999999999998 1.5000000000000002
v 0.5 1.4374999999999998 1.5000000000000002
v 0.5 1.4375000000000004 -1.5
v 0.5 0.6880737499999997 1.5
v 0.5 0.6880737500000004 -1.5
v -0.332106875 0.6846174999999998 1.5
v -0.332106875 0.6846175000000004 -1.5
v -0.332106875 1.1824043749999997 1.5
v -0.332106875 1.1824043750000004 -1.5
v 0.08578624999999998 1.4374999999999998 1.5000000000000002
v 0.08578624999999998 1.4375000000000004 -1.5
v -0.328125 1.1875 -1.375
v -0.328125 1.1875 -1.5
v -0.328125 0.6875 -1.375
v -0.328125 0.6875 -1.5
v -1.5 0.9375 -1.375
v -1.5 0.9375 -1.5
v -1.5 0.6875 -1.375
v -1.5 0.6875 -1.5
v -0.328125 1.1875 1.5
v -0.328125 1.1875 1.375
v -0.328125 0.6875 1.5
v -0.328125 0.6875 1.375
v -1.5 0.9375 1.5
v -1.5 0.9375 1.375
v -1.5 0.6875 1.5
v -1.5 0.6875 1.375
v -0.548445625 1.0781249999999998 1.375
v -0.548445625 1.0781250000000004 -1.375
v -0.484375 1.0140543749999997 1.375
v -0.484375 1.0140543750000004 -1.375
v -0.484375 0.9234456249999998 1.375
v -0.484375 0.9234456250000005 -1.375
v -0.548445625 0.8593749999999998 1.375
v -0.548445625 0.8593750000000004 -1.375
v -0.639054375 0.8593749999999998 1.375
v -0.639054375 0.8593750000000004 -1.375
v -0.703125 0.9234456249999998 1.375
v -0.703125 0.9234456250000005 -1.375
v -0.703125 1.0140543749999997 1.375
v -0.703125 1.0140543750000004 -1.375
v -0.639054375 1.0781249999999998 1.375
v -0.639054375 1.0781250000000004 -1.375
v -0.985945625 0.9843749999999998 1.375
v -0.985945625 0.9843750000000004 -1.375
v -0.921875 0.9203043749999998 1.375
v -0.921875 0.9203043750000004 -1.375
v -0.921875 0.8296956249999998 1.375
v -0.921875 0.8296956250000005 -1.375
v -0.985945625 0.7656249999999998 1.375
v -0.985945625 0.7656250000000004 -1.375
v -1.076554375 0.7656249999999998 1.375
v -1.076554375 0.7656250000000004 -1.375
v -1.140625 0.8296956249999998 1.375
v -1.140625 0.8296956250000005 -1.375
v -1.140625 0.9203043749999998 1.375
v -1.140625 0.9203043750000004 -1.375
v -1.076554375 0.9843749999999998 1.375
v -1.076554375 0.9843750000000004 -1.375
vt 0.49609375 0.92111484375
vt 0.32421875 0.92111484375
vt 0.3203125 0.8857421875
vt 0.49609375 0.890055859375
vt 0.890625 0.530859375
vt 0.88671875 0.566015625
vt 0.71484375 0.566015625
vt 0.7109375 0.530859375
vt 0.90234375 0.55078125
vt 0.90234375 0.55859375
vt 0.73046875 0.55859375
vt 0.73046875 0.55078125
vt 0.44138265625 0.6124237109374999
vt 0.43361734375 0.61328125
vt 0.43361734375 0.578125
vt 0.43361734375 0.578125
vt 0.18359375 0.56640625
vt 0.17578125 0.56640625
vt 0.17578125 0.53515625
vt 0.1796875 0.53125
vt 0.640625 0.328125
vt 0.453125 0.328125
vt 0.453125 0.23828125
vt 0.640625 0.23828125
vt 0.8125 0.76171875
vt 1 0.76171875
vt 1 0.82421875
vt 0.8125 0.82421875
vt 0.41796875 0.23828125
vt 0.41796875 0.328125
vt 0.35546875 0.328125
vt 0.35546875 0.23828125
vt 0.35546875 0.328125
vt 0.29296875 0.328125
vt 0.29296875 0.23828125
vt 0.35546875 0.23828125
vt 0.88576578125 0.5824626953125001
vt 0.88576578125 0.546875
vt 0.89353109375 0.58160515625
vt 0.88576578125 0.546875
vt 0.89255453125 0.58160515625
vt 0.88359375 0.581640625
vt 0.88713296875 0.546484375
vt 0.75390625 0.53515625
vt 0.81640625 0.53515625
vt 0.81640625 0.54296875
vt 0.75390625 0.54296875
vt 0.0546875 1
vt 0 1
vt 0.0546875 1
vt 0.078125 0.86328125
vt 0.08203125 0.8984375
vt 0.01953125 0.8984375
vt 0.0234375 0.86328125
vt 0.89453125 0.581640625
vt 0.83203125 0.581640625
vt 0.8359375 0.546484375
vt 0.890625 0.546484375
vt 0.890625 0.546875
vt 0.89453125 0.58203125
vt 0.83203125 0.58203125
vt 0.8359375 0.546875
vt 0.30078125 0.9296875
vt 0.23828125 0.9296875
vt 0.2421875 0.89453125
vt 0.296875 0.89453125
vt 0.87419515625 0.58160515625
vt 0.86721109375 0.5816814453125
vt 0.87111734375 0.54609375
vt 0.81640625 0.5625
vt 0.87890625 0.5625
vt 0.87890625 0.5703125
vt 0.81640625 0.5703125
vt 0.89157796875 0.5821502734374999
vt 0.88381265625 0.5830078125
vt 0.88381265625 0.5474201171874999
vt 0.8828125 0.58203125
vt 0.7109375 0.58203125
vt 0.70703125 0.546875
vt 0.88671875 0.546875
vt 0.94140625 0.2890625
vt 0.9375 0.32443515624999997
vt 0.765625 0.32443515624999997
vt 0.765625 0.293376171875
vt 0.921875 0.3359375
vt 0.921875 0.34375
vt 0.75 0.34375
vt 0.75 0.3359375
vt 0.19528890625 0.5655487109374999
vt 0.18752359375 0.56640625
vt 0.18752359375 0.53125
vt 0.18752359375 0.53125
vt 0.171875 0.56640625
vt 0.1640625 0.56640625
vt 0.16796875 0.5310335937499999
vt 0.171875 0.535347265625
vt 0.95703125 0.17597656250000004
vt 0.95703125 0.21875
vt 0.76953125 0.21875
vt 0.76953125 0.17597656250000004
vt 0.6875 0.40625
vt 0.6875 0.53125
vt 0.5 0.53125
vt 0.5 0.40625
vt 0.8125 0.76171875
vt 1 0.76171875
vt 1 0.88671875
vt 0.8125 0.88671875
vt 0.640234375 0.17558593749999996
vt 0.640234375 0.21855468749999996
vt 0.515234375 0.21855468749999996
vt 0.515234375 0.17558593749999996
vt 0.765625 0.21875
vt 0.640625 0.21875
vt 0.640625 0.17578125
vt 0.765625 0.17578125
vt 0.88671875 0.55859375
vt 0.70703125 0.55859375
vt 0.703125 0.546875
vt 0.890625 0.546875
vt 0.89453125 0.53125
vt 0.890625 0.54296875
vt 0.7109375 0.54296875
vt 0.70703125 0.53125
vt 0.03515625 0.96875
vt 0.03515625 0.9140625
vt 0.21484375 0.9140625
vt 0.21484375 0.96875
vt 0.89453125 0.546875
vt 0.890625 0.55859375
vt 0.8359375 0.55859375
vt 0.83203125 0.546875
vt 0.890625 0.55859375
vt 0.8359375 0.55859375
vt 0.83203125 0.546875
vt 0.89453125 0.546875
vt 0.384765625 0.513487578125
vt 0.384765625 0.513487578125
vt 0.384765625 0.55859375
vt 0 0.8125
vt 0 0.8125
vt 0 1
vt 0.392578125 0.513487578125
vt 0.392578125 0.513487578125
vt 0.392578125 0.55859375
vt 0 1
vt 0 1
vt 0 1
vt 0.830691015625 0.5312703515625
vt 0.830691015625 0.5781094140625
vt 0.817746875 0.5349004296875
vt 0.776002890625 0.578125
vt 0.7760034765625 0.5312858984375
vt 0.7630590625 0.5349158593750001
vt 0.7786841015625 0.5310546875
vt 0.830691015625 0.5312703515625
vt 0.817746640625 0.5349004687500001
vt 0.776003515625 0.5312856640625
vt 0.7239966015625 0.5310700390625
vt 0.763059140625 0.5349158203125
vt 0.778683984375 0.5621660546875
vt 0.7786841015625 0.5310546875
vt 0.8177465234375 0.5349004687500001
vt 0.49140625 0.9453125
vt 0.49140625 0.9765625
vt 0.30390625 0.9765625
vt 0.30390625 0.9453125
vt 0.7239966015625 0.5310700390625
vt 0.723996484375 0.5621814453125
vt 0.7630590234375 0.5349158203125
vt 0.80480234375 0.578109453125
vt 0.778683984375 0.5621660546875
vt 0.8177465234375 0.5349004687500001
vt 0.4921935546875 0.7561248046875
vt 0.4921935546875 0.7867248046875
vt 0.3046935546875 0.7867248046875
vt 0.3046935546875 0.7561248046875
vt 0.723996484375 0.5621814453125
vt 0.75011484375 0.5781248046875
vt 0.763058984375 0.5349158203125
vt 0.830690625 0.5781094921875001
vt 0.80480234375 0.578109453125
vt 0.8177465234375 0.5349004687500001
vt 0.4921935546875 0.7867248046875
vt 0.4921935546875 0.8126130859375
vt 0.3046935546875 0.8126130859375
vt 0.3046935546875 0.7867248046875
vt 0.75011484375 0.5781248046875
vt 0.776002890625 0.578125
vt 0.7630590234375 0.5349157421874999
vt 0.74609375 0.59375
vt 0.74609375 0.609375
vt 0.73828125 0.609375
vt 0.73828125 0.59375
vt 0.7421875 0.552734375
vt 0.81640625 0.552734375
vt 0.81640625 0.560546875
vt 0.7421875 0.560546875
vt 0.80859375 0.53125
vt 0.80859375 0.5625
vt 0.734375 0.546875
vt 0.734375 0.53125
vt 0.7109375 0.546875
vt 0.78515625 0.5625
vt 0.78515625 0.53125
vt 0.7109375 0.53125
vt 0.71875 0.578125
vt 0.71875 0.59375
vt 0.7109375 0.59375
vt 0.7109375 0.578125
vt 0.21484375 0.7578125
vt 0.2890625 0.7578125
vt 0.2890625 0.765625
vt 0.21484375 0.765625
vt 0.80859375 0.53125
vt 0.80859375 0.5625
vt 0.734375 0.546875
vt 0.734375 0.53125
vt 0.734375 0.546875
vt 0.80859375 0.5625
vt 0.80859375 0.53125
vt 0.734375 0.53125
vt 0.03125 0.40234375
vt 0.03515625 0.40234375
vt 0.03515625 0.57421875
vt 0.03125 0.57421875
vt 0.0546875 0.40234375
vt 0.05859375 0.40234375
vt 0.05859375 0.57421875
vt 0.0546875 0.57421875
vt 0.0234375 0.40234375
vt 0.02734375 0.40234375
vt 0.02734375 0.57421875
vt 0.0234375 0.57421875
vt 0 0.40234375
vt 0.00390625 0.40234375
vt 0.00390625 0.57421875
vt 0 0.57421875
vt 0.0390625 0.40234375
vt 0.04296875 0.40234375
vt 0.04296875 0.57421875
vt 0.0390625 0.57421875
vt 0.015625 0.40234375
vt 0.01953125 0.40234375
vt 0.01953125 0.57421875
vt 0.015625 0.57421875
vt 0.046875 0.40234375
vt 0.05078125 0.40234375
vt 0.05078125 0.57421875
vt 0.046875 0.57421875
vt 0.0078125 0.40234375
vt 0.01171875 0.40234375
vt 0.01171875 0.57421875
vt 0.0078125 0.57421875
vt 0.09375 0.40234375
vt 0.09765625 0.40234375
vt 0.09765625 0.57421875
vt 0.09375 0.57421875
vt 0.0546875 0.40234375
vt 0.05859375 0.40234375
vt 0.05859375 0.57421875
vt 0.0546875 0.57421875
vt 0.0859375 0.40234375
vt 0.08984375 0.40234375
vt 0.08984375 0.57421875
vt 0.0859375 0.57421875
vt 0.0625 0.40234375
vt 0.06640625 0.40234375
vt 0.06640625 0.57421875
vt 0.0625 0.57421875
vt 0.1015625 0.40234375
vt 0.10546875 0.40234375
vt 0.10546875 0.57421875
vt 0.1015625 0.57421875
vt 0.078125 0.40234375
vt 0.08203125 0.40234375
vt 0.08203125 0.57421875
vt 0.078125 0.57421875
vt 0.109375 0.40234375
vt 0.11328125 0.40234375
vt 0.11328125 0.57421875
vt 0.109375 0.57421875
vt 0.0703125 0.40234375
vt 0.07421875 0.40234375
vt 0.07421875 0.57421875
vt 0.0703125 0.57421875
vn 0.9938837346736189 -0.11043152607484655 0
vn -0.9938837346736189 -0.11043152607484655 0
vn 0 1 0
vn 0 0.11043152607484656 0.993883734673619
vn 0 0 -1
vn 1 0 0
vn 0 -1 0
vn 0 0 1
vn 0 0 -1
vn 0.993883734673619 -0.11043152607484656 0
vn -0.993883734673619 -0.11043152607484656 0
vn 0 1 0
vn 0 0 0
vn 0 -0.11043152607484656 0.993883734673619
vn 0 -0.11043152607484656 -0.993883734673619
vn 0 -0.11043152607484656 0.993883734673619
vn 0 -0.11043152607484656 -0.993883734673619
vn -0.993883734673619 -0.11043152607484656 0
vn 0 1 0
vn -0.993883734673619 0.11043152607484656 0
vn 0.9938837346736189 -0.11043152607484655 0
vn -0.9938837346736189 -0.11043152607484655 0
vn 0 1 0
vn 0 0.11043152607484656 0.993883734673619
vn 0 0.11043152607484656 -0.993883734673619
vn -1 0 0
vn 0 1 0
vn 0 -1 0
vn 0 0 1
vn 0 0 -1
vn 0.9486832980505139 0.31622776601683794 0
vn -0.9486832980505139 0.31622776601683794 0
vn 0 1 0
vn 0 0.31622776601683794 0.9486832980505139
vn 0 0.31622776601683794 -0.9486832980505139
vn 0 0 0
vn 0 0 0
vn 0 0 0
vn 0 0 0
vn -8.30898719930019e-17 -2.962861321244503e-16 1
vn 0 0 -1
vn 0 0 1
vn 0 0 -1
vn 0 0 1
vn -1 0 0
vn 0 0 -1
vn -2.834516799053837e-16 -4.0609123195613714e-16 1
vn -0.5210283395561274 0.8535393777555812 1.8896758782692655e-16
vn 0 0 -1
vn 0 -3.2117742109821157e-16 1
vn 0 1 2.220446049250313e-16
vn 0 0 -1
vn -1 0 0
vn -0.20863847177051897 0.9779928364243077 0
vn 0 0 1
vn 0 0 -1
vn -1 0 0
vn -0.20863847177051897 0.9779928364243077 0
vn 0 0 1
vn 0 0 -1
vn 0.7071067811865476 0.7071067811865476 1.7056490945162813e-16
vn 1 0 0
vn 0.7071067811865476 -0.7071067811865476 -1.7056490945162813e-16
vn 0 -1 -2.4223047810003414e-16
vn -0.7071067811865476 -0.7071067811865476 -1.7404582597104912e-16
vn -1 0 0
vn -0.7071067811865476 0.7071067811865476 1.7404582597104912e-16
vn 0 1 2.4223047810003414e-16
vn 0.7071067811865469 0.7071067811865482 1.427175772962604e-16
vn 1 0 0
vn 0.7071067811865476 -0.7071067811865476 -1.7056490945162813e-16
vn 0 -1 -2.4223047810003414e-16
vn -0.7071067811865476 -0.7071067811865476 -1.7404582597104912e-16
vn -1 0 0
vn -0.7071067811865469 0.7071067811865482 1.7056490945162828e-16
vn 0 1 2.4223047810003414e-16
usemtl m_1b3d271b-1649-a048-1d2b-559bbfd4cf08
f 2/1/1 1/2/1 3/3/1 4/4/1
f 7/5/2 5/6/2 6/7/2 8/8/2
f 5/9/3 1/10/3 2/11/3 6/12/3
f 1/13/4 5/14/4 3/15/4 7/16/4
f 6/17/5 2/18/5 4/19/5 8/20/5
f 10/21/6 9/22/6 11/23/6 12/24/6
f 12/25/7 11/26/7 15/27/7 16/28/7
f 11/29/8 9/30/8 13/31/8 15/32/8
f 14/33/9 10/34/9 12/35/9 16/36/9
f 17/37/10 19/38/10 18/39/10 20/40/10
f 21/41/11 22/42/11 23/43/11
f 21/44/12 17/45/12 18/46/12 22/47/12
f 19/48/13 23/49/13 20/50/13
f 19/51/14 17/52/14 21/53/14 23/54/14
f 22/55/15 18/56/15 20/57/15 23/58/15
f 25/59/16 29/60/16 28/61/16 27/62/16
f 26/63/17 24/64/17 25/65/17 27/66/17
f 28/67/18 26/68/18 27/69/18
f 28/70/19 29/71/19 24/72/19 26/73/19
f 29/74/20 24/75/20 25/76/20
f 31/77/21 30/78/21 32/79/21 33/80/21
f 36/81/22 34/82/22 35/83/22 37/84/22
f 34/85/23 30/86/23 31/87/23 35/88/23
f 30/89/24 34/90/24 32/91/24 36/92/24
f 35/93/25 31/94/25 33/95/25 37/96/25
f 44/97/26 42/98/26 43/99/26 45/100/26
f 42/101/27 38/102/27 39/103/27 43/104/27
f 41/105/28 40/106/28 44/107/28 45/108/28
f 40/109/29 38/110/29 42/111/29 44/112/29
f 43/113/30 39/114/30 41/115/30 45/116/30
f 47/117/31 46/118/31 48/119/31 49/120/31
f 52/121/32 50/122/32 51/123/32 53/124/32
f 50/125/33 46/126/33 47/127/33 51/128/33
f 48/129/34 46/130/34 50/131/34 52/132/34
f 51/133/35 47/134/35 49/135/35 53/136/35
f 57/137/36 56/138/36 54/139/36
f 56/140/37 57/141/37 59/142/37
f 58/143/38 57/144/38 54/145/38
f 57/146/39 58/147/39 59/148/39
f 60/149/40 58/150/40 54/151/40
f 59/152/41 61/153/41 55/154/41
f 62/155/42 60/156/42 54/157/42
f 61/158/43 63/159/43 55/160/43
f 64/161/44 62/162/44 54/163/44
f 62/164/45 64/165/45 65/166/45 63/167/45
f 63/168/46 65/169/46 55/170/46
f 66/171/47 64/172/47 54/173/47
f 64/174/48 66/175/48 67/176/48 65/177/48
f 65/178/49 67/179/49 55/180/49
f 56/181/50 66/182/50 54/183/50
f 66/184/51 56/185/51 59/186/51 67/187/51
f 67/188/52 59/189/52 55/190/52
f 74/191/53 72/192/53 73/193/53 75/194/53
f 72/195/54 68/196/54 69/197/54 73/198/54
f 70/199/55 68/200/55 72/201/55 74/202/55
f 73/203/56 69/204/56 71/205/56 75/206/56
f 82/207/57 80/208/57 81/209/57 83/210/57
f 80/211/58 76/212/58 77/213/58 81/214/58
f 78/215/59 76/216/59 80/217/59 82/218/59
f 81/219/60 77/220/60 79/221/60 83/222/60
f 84/223/61 86/224/61 87/225/61 85/226/61
f 86/227/62 88/228/62 89/229/62 87/230/62
f 88/231/63 90/232/63 91/233/63 89/234/63
f 90/235/64 92/236/64 93/237/64 91/238/64
f 92/239/65 94/240/65 95/241/65 93/242/65
f 94/243/66 96/244/66 97/245/66 95/246/66
f 96/247/67 98/248/67 99/249/67 97/250/67
f 98/251/68 84/252/68 85/253/68 99/254/68
f 100/255/69 102/256/69 103/257/69 101/258/69
f 102/259/70 104/260/70 105/261/70 103/262/70
f 104/263/71 106/264/71 107/265/71 105/266/71
f 106/267/72 108/268/72 109/269/72 107/270/72
f 108/271/73 110/272/73 111/273/73 109/274/73
f 110/275/74 112/276/74 113/277/74 111/278/74
f 112/279/75 114/280/75 115/281/75 113/282/75
f 114/283/76 100/284/76 101/285/76 115/286/76