# Made in Blockbench 5.1.6
mtllib centrifuge_conus.mtl

o 1
v 0.083734375 0 0.3125
v 0.083734375 1.5 0.3125
v 0.228765625 0 0.228765625
v 0.228765625 1.5 0.228765625
v 0.3125 0 0.083734375
v 0.3125 1.5 0.083734375
v 0.3125 0 -0.083734375
v 0.3125 1.5 -0.083734375
v 0.228765625 0 -0.228765625
v 0.228765625 1.5 -0.228765625
v 0.083734375 0 -0.3125
v 0.083734375 1.5 -0.3125
v -0.083734375 0 -0.3125
v -0.083734375 1.5 -0.3125
v -0.228765625 0 -0.228765625
v -0.228765625 1.5 -0.228765625
v -0.3125 0 -0.083734375
v -0.3125 1.5 -0.083734375
v -0.3125 0 0.083734375
v -0.3125 1.5 0.083734375
v -0.228765625 0 0.228765625
v -0.228765625 1.5 0.228765625
v -0.083734375 0 0.3125
v -0.083734375 1.5 0.3125
v 0 1.7703125 0
v 0.041866875 1.770633125 0.15625
v 0.072515625 1.65625 0.270633125
v 0.083734375 1.5 0.3125
v 0.114383125 1.770633125 0.114383125
v 0.198116875 1.65625 0.198116875
v 0.228765625 1.5 0.228765625
v 0.15625 1.770633125 0.041866875
v 0.270633125 1.65625 0.072515625
v 0.3125 1.5 0.083734375
v 0.15625 1.770633125 -0.041866875
v 0.270633125 1.65625 -0.072515625
v 0.3125 1.5 -0.083734375
v 0.114383125 1.770633125 -0.114383125
v 0.198116875 1.65625 -0.198116875
v 0.228765625 1.5 -0.228765625
v 0.041866875 1.770633125 -0.15625
v 0.072515625 1.65625 -0.270633125
v 0.083734375 1.5 -0.3125
v -0.041866875 1.770633125 -0.15625
v -0.072515625 1.65625 -0.270633125
v -0.083734375 1.5 -0.3125
v -0.114383125 1.770633125 -0.114383125
v -0.198116875 1.65625 -0.198116875
v -0.228765625 1.5 -0.228765625
v -0.15625 1.770633125 -0.041866875
v -0.270633125 1.65625 -0.072515625
v -0.3125 1.5 -0.083734375
v -0.15625 1.770633125 0.041866875
v -0.270633125 1.65625 0.072515625
v -0.3125 1.5 0.083734375
v -0.114383125 1.770633125 0.114383125
v -0.198116875 1.65625 0.198116875
v -0.228765625 1.5 0.228765625
v -0.041866875 1.770633125 0.15625
v -0.072515625 1.65625 0.270633125
v -0.083734375 1.5 0.3125
v 0 0.15625 0
v 0 0.65625 0
v 0.087920625 0.15625 0.328125
v 0.087920625 0.65625 0.328125
v 0.240204375 0.15625 0.240204375
v 0.240204375 0.65625 0.240204375
v 0.328125 0.15625 0.087920625
v 0.328125 0.65625 0.087920625
v 0.328125 0.15625 -0.087920625
v 0.328125 0.65625 -0.087920625
v 0.240204375 0.15625 -0.240204375
v 0.240204375 0.65625 -0.240204375
v 0.087920625 0.15625 -0.328125
v 0.087920625 0.65625 -0.328125
v -0.087920625 0.15625 -0.328125
v -0.087920625 0.65625 -0.328125
v -0.240204375 0.15625 -0.240204375
v -0.240204375 0.65625 -0.240204375
v -0.328125 0.15625 -0.087920625
v -0.328125 0.65625 -0.087920625
v -0.328125 0.15625 0.087920625
v -0.328125 0.65625 0.087920625
v -0.240204375 0.15625 0.240204375
v -0.240204375 0.65625 0.240204375
v -0.087920625 0.15625 0.328125
v -0.087920625 0.65625 0.328125
v 0 0.0015625000000000222 0
v 0.083734375 0.0015625000000000222 0.3125
v 0.228765625 0.0015625000000000222 0.228765625
v 0.3125 0.0015625000000000222 0.083734375
v 0.3125 0.0015625000000000222 -0.083734375
v 0.228765625 0.0015625000000000222 -0.228765625
v 0.083734375 0.0015625000000000222 -0.3125
v -0.083734375 0.0015625000000000222 -0.3125
v -0.228765625 0.0015625000000000222 -0.228765625
v -0.3125 0.0015625000000000222 -0.083734375
v -0.3125 0.0015625000000000222 0.083734375
v -0.228765625 0.0015625000000000222 0.228765625
v -0.083734375 0.0015625000000000222 0.3125
v 0 0.84375 0
v 0 1.34375 0
v 0.087920625 0.84375 0.328125
v 0.087920625 1.34375 0.328125
v 0.240204375 0.84375 0.240204375
v 0.240204375 1.34375 0.240204375
v 0.328125 0.84375 0.087920625
v 0.328125 1.34375 0.087920625
v 0.328125 0.84375 -0.087920625
v 0.328125 1.34375 -0.087920625
v 0.240204375 0.84375 -0.240204375
v 0.240204375 1.34375 -0.240204375
v 0.087920625 0.84375 -0.328125
v 0.087920625 1.34375 -0.328125
v -0.087920625 0.84375 -0.328125
v -0.087920625 1.34375 -0.328125
v -0.240204375 0.84375 -0.240204375
v -0.240204375 1.34375 -0.240204375
v -0.328125 0.84375 -0.087920625
v -0.328125 1.34375 -0.087920625
v -0.328125 0.84375 0.087920625
v -0.328125 1.34375 0.087920625
v -0.240204375 0.84375 0.240204375
v -0.240204375 1.34375 0.240204375
v -0.087920625 0.84375 0.328125
v -0.087920625 1.34375 0.328125
v 0.3390625 1.384375 -0.062499999999999924
v 0.2296875 1.384375 -0.06249999999999995
v 0.3390625 0 -0.062499999999999924
v 0.2296875 0 -0.06249999999999995
v 0.33906249999999993 1.384375 0.06250000000000008
v 0.22968749999999996 1.384375 0.06250000000000006
v 0.33906249999999993 0 0.06250000000000008
v 0.22968749999999996 0 0.06250000000000006
v -0.3390625 1.384375 -0.062499999999999924
v -0.2296875 1.384375 -0.06249999999999995
v -0.3390625 0 -0.062499999999999924
v -0.2296875 0 -0.06249999999999995
v -0.33906249999999993 1.384375 0.06250000000000008
v -0.22968749999999996 1.384375 0.06250000000000006
v -0.33906249999999993 0 0.06250000000000008
v -0.22968749999999996 0 0.06250000000000006
v -0.0625 1.384375 0.3390625
v -0.0625 1.384375 0.2296875
v -0.0625 0 0.3390625
v -0.0625 0 0.2296875
v 0.0625 1.384375 0.3390625
v 0.0625 1.384375 0.2296875
v 0.0625 0 0.3390625
v 0.0625 0 0.2296875
v -0.06249999999999992 1.384375 -0.3390624999999999
v -0.06249999999999992 1.384375 -0.2296874999999999
v -0.06250000000000008 0 -0.3390625000000001
v -0.06250000000000008 0 -0.22968750000000007
v 0.06250000000000008 1.384375 -0.3390624999999999
v 0.06250000000000008 1.384375 -0.2296874999999999
v 0.06249999999999992 0 -0.3390625000000001
v 0.06249999999999992 0 -0.22968750000000007
vt 0.045623046875 0.6171875
vt 0.066556640625 0.6171875
vt 0.066556640625 0.8046875
vt 0.045623046875 0.8046875
vt 0.003755859375 0.8125
vt 0.024689453125 0.8125
vt 0.024689453125 1
vt 0.003755859375 1
vt 0.024689453125 0.8125
vt 0.045623046875 0.8125
vt 0.045623046875 1
vt 0.024689453125 1
vt 0.045623046875 0.8125
vt 0.066556640625 0.8125
vt 0.066556640625 1
vt 0.045623046875 1
vt 0.081880859375 0.8125
vt 0.102814453125 0.8125
vt 0.102814453125 1
vt 0.081880859375 1
vt 0.102814453125 0.8125
vt 0.123748046875 0.8125
vt 0.123748046875 1
vt 0.102814453125 1
vt 0.123748046875 0.8125
vt 0.144681640625 0.8125
vt 0.144681640625 1
vt 0.123748046875 1
vt 0.160005859375 0.8125
vt 0.180939453125 0.8125
vt 0.180939453125 1
vt 0.160005859375 1
vt 0.180939453125 0.8125
vt 0.201873046875 0.8125
vt 0.201873046875 1
vt 0.180939453125 1
vt 0.201873046875 0.8125
vt 0.222806640625 0.8125
vt 0.222806640625 1
vt 0.201873046875 1
vt 0.003755859375 0.6171875
vt 0.024689453125 0.6171875
vt 0.024689453125 0.8046875
vt 0.003755859375 0.8046875
vt 0.024689453125 0.6171875
vt 0.045623046875 0.6171875
vt 0.045623046875 0.8046875
vt 0.024689453125 0.8046875
vt 0.42710625 0.554686875
vt 0.436171640625 0.55991953125
vt 0.421875 0.57421875
vt 0.4192609375 0.996875
vt 0.4154296875 0.9766546875
vt 0.43355859375 0.9766546875
vt 0.429728125 0.996875
vt 0.41546484375 0.97578125
vt 0.4140625 0.9555609375
vt 0.43499609375 0.9555609375
vt 0.43359375 0.97578125
vt 0.436171640625 0.55991953125
vt 0.4414059375 0.568983984375
vt 0.421875 0.57421875
vt 0.41926015625 0.996875
vt 0.4154296875 0.9766546875
vt 0.43355859375 0.9766546875
vt 0.42972734375 0.996875
vt 0.41546484375 0.97578125
vt 0.4140625 0.9555609375
vt 0.43499609375 0.9555609375
vt 0.43359375 0.97578125
vt 0.4414059375 0.568983984375
vt 0.4414065625 0.579451171875
vt 0.421875 0.57421875
vt 0.4192609375 0.996875
vt 0.4154296875 0.9766546875
vt 0.43355859375 0.9766546875
vt 0.429728125 0.996875
vt 0.41546484375 0.97578125
vt 0.4140625 0.9555609375
vt 0.434996875 0.9555609375
vt 0.43359375 0.97578125
vt 0.4414065625 0.579451171875
vt 0.436173359375 0.5885162500000001
vt 0.421875 0.57421875
vt 0.4192609375 0.996875
vt 0.4154296875 0.9766546875
vt 0.43355859375 0.9766546875
vt 0.429728125 0.996875
vt 0.41546484375 0.97578125
vt 0.4140625 0.9555609375
vt 0.43499609375 0.9555609375
vt 0.43359375 0.97578125
vt 0.436173359375 0.5885162500000001
vt 0.42710859375 0.59375
vt 0.421875 0.57421875
vt 0.41926015625 0.996875
vt 0.4154296875 0.9766546875
vt 0.43355859375 0.9766546875
vt 0.42972734375 0.996875
vt 0.41546484375 0.97578125
vt 0.4140625 0.9555609375
vt 0.43499609375 0.9555609375
vt 0.43359375 0.97578125
vt 0.42710859375 0.59375
vt 0.41664140625 0.59375
vt 0.421875 0.57421875
vt 0.4192609375 0.996875
vt 0.4154296875 0.9766546875
vt 0.43355859375 0.9766546875
vt 0.429728125 0.996875
vt 0.41546484375 0.97578125
vt 0.4140625 0.9555609375
vt 0.43499609375 0.9555609375
vt 0.43359375 0.97578125
vt 0.41664140625 0.59375
vt 0.407576640625 0.5885162500000001
vt 0.421875 0.57421875
vt 0.4192609375 0.996875
vt 0.4154296875 0.9766546875
vt 0.43355859375 0.9766546875
vt 0.429728125 0.996875
vt 0.41546484375 0.97578125
vt 0.4140625 0.9555609375
vt 0.43499609375 0.9555609375
vt 0.43359375 0.97578125
vt 0.407576640625 0.5885162500000001
vt 0.4023434375 0.579451171875
vt 0.421875 0.57421875
vt 0.41926015625 0.996875
vt 0.4154296875 0.9766546875
vt 0.43355859375 0.9766546875
vt 0.42972734375 0.996875
vt 0.41546484375 0.97578125
vt 0.4140625 0.9555609375
vt 0.43499609375 0.9555609375
vt 0.43359375 0.97578125
vt 0.4023434375 0.579451171875
vt 0.4023440625 0.568983984375
vt 0.421875 0.57421875
vt 0.4192609375 0.996875
vt 0.4154296875 0.9766546875
vt 0.43355859375 0.9766546875
vt 0.429728125 0.996875
vt 0.41546484375 0.97578125
vt 0.4140625 0.9555609375
vt 0.43499609375 0.9555609375
vt 0.43359375 0.97578125
vt 0.4023440625 0.568983984375
vt 0.407578359375 0.55991953125
vt 0.421875 0.57421875
vt 0.4192609375 0.996875
vt 0.4154296875 0.9766546875
vt 0.43355859375 0.9766546875
vt 0.429728125 0.996875
vt 0.41546484375 0.97578125
vt 0.4140625 0.9555609375
vt 0.43499609375 0.9555609375
vt 0.43359375 0.97578125
vt 0.407578359375 0.55991953125
vt 0.41664375 0.554686875
vt 0.421875 0.57421875
vt 0.41926015625 0.996875
vt 0.4154296875 0.9766546875
vt 0.43355859375 0.9766546875
vt 0.42972734375 0.996875
vt 0.41546484375 0.97578125
vt 0.4140625 0.9555609375
vt 0.43499609375 0.9555609375
vt 0.43359375 0.97578125
vt 0.4166390625 0.554688125
vt 0.42710625 0.554686875
vt 0.421875 0.57421875
vt 0.4192609375 0.996875
vt 0.4154296875 0.9766546875
vt 0.43355859375 0.9766546875
vt 0.429728125 0.996875
vt 0.41546484375 0.97578125
vt 0.4140625 0.9555609375
vt 0.43499609375 0.9555609375
vt 0.43359375 0.97578125
vt 0.15111953125 0.78979140625
vt 0.13208359375 0.80078125
vt 0.12109375 0.759765625
vt 0.12427109375 0.6484375
vt 0.14625078125 0.6484375
vt 0.14625078125 0.7109375
vt 0.12427109375 0.7109375
vt 0.22583359375 0.72265625
vt 0.24486953125 0.73364609375
vt 0.21484375 0.763671875
vt 0.162109375 0.77075546875
vt 0.15111953125 0.78979140625
vt 0.12109375 0.759765625
vt 0.26781171875 0.75
vt 0.28979140625 0.75
vt 0.28979140625 0.8125
vt 0.26781171875 0.8125
vt 0.24486953125 0.73364609375
vt 0.255859375 0.75268203125
vt 0.21484375 0.763671875
vt 0.162109375 0.74877578125
vt 0.162109375 0.77075546875
vt 0.12109375 0.759765625
vt 0.28979140625 0.75
vt 0.31177109375 0.75
vt 0.31177109375 0.8125
vt 0.28979140625 0.8125
vt 0.255859375 0.75268203125
vt 0.255859375 0.77466171875
vt 0.21484375 0.763671875
vt 0.15111953125 0.72973984375
vt 0.162109375 0.74877578125
vt 0.12109375 0.759765625
vt 0.31177109375 0.75
vt 0.33375078125 0.75
vt 0.33375078125 0.8125
vt 0.31177109375 0.8125
vt 0.255859375 0.77466171875
vt 0.24486953125 0.79369765625
vt 0.21484375 0.763671875
vt 0.13208359375 0.71875
vt 0.15111953125 0.72973984375
vt 0.12109375 0.759765625
vt 0.33031171875 0.9375
vt 0.35229140625 0.9375
vt 0.35229140625 1
vt 0.33031171875 1
vt 0.24486953125 0.79369765625
vt 0.22583359375 0.8046875
vt 0.21484375 0.763671875
vt 0.11010390625 0.71875
vt 0.13208359375 0.71875
vt 0.12109375 0.759765625
vt 0.35229140625 0.9375
vt 0.37427109375 0.9375
vt 0.37427109375 1
vt 0.35229140625 1
vt 0.22583359375 0.8046875
vt 0.20385390625 0.8046875
vt 0.21484375 0.763671875
vt 0.09106796875 0.72973984375
vt 0.11010390625 0.71875
vt 0.12109375 0.759765625
vt 0.37427109375 0.9375
vt 0.39625078125 0.9375
vt 0.39625078125 1
vt 0.37427109375 1
vt 0.20385390625 0.8046875
vt 0.18481796875 0.79369765625
vt 0.21484375 0.763671875
vt 0.080078125 0.74877578125
vt 0.09106796875 0.72973984375
vt 0.12109375 0.759765625
vt 0.15843671875 0.6484375
vt 0.18041640625 0.6484375
vt 0.18041640625 0.7109375
vt 0.15843671875 0.7109375
vt 0.18481796875 0.79369765625
vt 0.173828125 0.77466171875
vt 0.21484375 0.763671875
vt 0.080078125 0.77075546875
vt 0.080078125 0.74877578125
vt 0.12109375 0.759765625
vt 0.18041640625 0.6484375
vt 0.20239609375 0.6484375
vt 0.20239609375 0.7109375
vt 0.18041640625 0.7109375
vt 0.173828125 0.77466171875
vt 0.173828125 0.75268203125
vt 0.21484375 0.763671875
vt 0.09106796875 0.78979140625
vt 0.080078125 0.77075546875
vt 0.12109375 0.759765625
vt 0.20239609375 0.6484375
vt 0.22437578125 0.6484375
vt 0.22437578125 0.7109375
vt 0.20239609375 0.7109375
vt 0.173828125 0.75268203125
vt 0.18481796875 0.73364609375
vt 0.21484375 0.763671875
vt 0.11010390625 0.80078125
vt 0.09106796875 0.78979140625
vt 0.12109375 0.759765625
vt 0.08031171875 0.6484375
vt 0.10229140625 0.6484375
vt 0.10229140625 0.7109375
vt 0.08031171875 0.7109375
vt 0.18481796875 0.73364609375
vt 0.20385390625 0.72265625
vt 0.21484375 0.763671875
vt 0.13208359375 0.80078125
vt 0.11010390625 0.80078125
vt 0.12109375 0.759765625
vt 0.10229140625 0.6484375
vt 0.12427109375 0.6484375
vt 0.12427109375 0.7109375
vt 0.10229140625 0.7109375
vt 0.20385390625 0.72265625
vt 0.22583359375 0.72265625
vt 0.21484375 0.763671875
vt 0.32547109375 0.73172109375
vt 0.30734140625 0.7421875
vt 0.296875 0.703125
vt 0.3359375 0.71359140625
vt 0.32547109375 0.73172109375
vt 0.296875 0.703125
vt 0.3359375 0.69265859375
vt 0.3359375 0.71359140625
vt 0.296875 0.703125
vt 0.32547109375 0.67452890625
vt 0.3359375 0.69265859375
vt 0.296875 0.703125
vt 0.30734140625 0.6640625
vt 0.32547109375 0.67452890625
vt 0.296875 0.703125
vt 0.28640859375 0.6640625
vt 0.30734140625 0.6640625
vt 0.296875 0.703125
vt 0.26827890625 0.67452890625
vt 0.28640859375 0.6640625
vt 0.296875 0.703125
vt 0.2578125 0.69265859375
vt 0.26827890625 0.67452890625
vt 0.296875 0.703125
vt 0.2578125 0.71359140625
vt 0.2578125 0.69265859375
vt 0.296875 0.703125
vt 0.26827890625 0.73172109375
vt 0.2578125 0.71359140625
vt 0.296875 0.703125
vt 0.28640859375 0.7421875
vt 0.26827890625 0.73172109375
vt 0.296875 0.703125
vt 0.30734140625 0.7421875
vt 0.28640859375 0.7421875
vt 0.296875 0.703125
vt 0.30736953125 0.98510390625
vt 0.28833359375 0.99609375
vt 0.27734375 0.955078125
vt 0.38208359375 0.6015625
vt 0.40406328125 0.6015625
vt 0.40406328125 0.6640625
vt 0.38208359375 0.6640625
vt 0.28833359375 0.82421875
vt 0.30736953125 0.83520859375
vt 0.27734375 0.865234375
vt 0.318359375 0.96606796875
vt 0.30736953125 0.98510390625
vt 0.27734375 0.955078125
vt 0.33031171875 0.8671875
vt 0.35229140625 0.8671875
vt 0.35229140625 0.9296875
vt 0.33031171875 0.9296875
vt 0.30736953125 0.83520859375
vt 0.318359375 0.85424453125
vt 0.27734375 0.865234375
vt 0.318359375 0.94408828125
vt 0.318359375 0.96606796875
vt 0.27734375 0.955078125
vt 0.35229140625 0.8671875
vt 0.37427109375 0.8671875
vt 0.37427109375 0.9296875
vt 0.35229140625 0.9296875
vt 0.318359375 0.85424453125
vt 0.318359375 0.87622421875
vt 0.27734375 0.865234375
vt 0.30736953125 0.92505234375
vt 0.318359375 0.94408828125
vt 0.27734375 0.955078125
vt 0.37427109375 0.8671875
vt 0.39625078125 0.8671875
vt 0.39625078125 0.9296875
vt 0.37427109375 0.9296875
vt 0.318359375 0.87622421875
vt 0.30736953125 0.89526015625
vt 0.27734375 0.865234375
vt 0.28833359375 0.9140625
vt 0.30736953125 0.92505234375
vt 0.27734375 0.955078125
vt 0.34593671875 0.7265625
vt 0.36791640625 0.7265625
vt 0.36791640625 0.7890625
vt 0.34593671875 0.7890625
vt 0.30736953125 0.89526015625
vt 0.28833359375 0.90625
vt 0.27734375 0.865234375
vt 0.26635390625 0.9140625
vt 0.28833359375 0.9140625
vt 0.27734375 0.955078125
vt 0.36791640625 0.7265625
vt 0.38989609375 0.7265625
vt 0.38989609375 0.7890625
vt 0.36791640625 0.7890625
vt 0.28833359375 0.90625
vt 0.26635390625 0.90625
vt 0.27734375 0.865234375
vt 0.24731796875 0.92505234375
vt 0.26635390625 0.9140625
vt 0.27734375 0.955078125
vt 0.38989609375 0.7265625
vt 0.41187578125 0.7265625
vt 0.41187578125 0.7890625
vt 0.38989609375 0.7890625
vt 0.26635390625 0.90625
vt 0.24731796875 0.89526015625
vt 0.27734375 0.865234375
vt 0.236328125 0.94408828125
vt 0.24731796875 0.92505234375
vt 0.27734375 0.955078125
vt 0.34593671875 0.796875
vt 0.36791640625 0.796875
vt 0.36791640625 0.859375
vt 0.34593671875 0.859375
vt 0.24731796875 0.89526015625
vt 0.236328125 0.87622421875
vt 0.27734375 0.865234375
vt 0.236328125 0.96606796875
vt 0.236328125 0.94408828125
vt 0.27734375 0.955078125
vt 0.36791640625 0.796875
vt 0.38989609375 0.796875
vt 0.38989609375 0.859375
vt 0.36791640625 0.859375
vt 0.236328125 0.87622421875
vt 0.236328125 0.85424453125
vt 0.27734375 0.865234375
vt 0.24731796875 0.98510390625
vt 0.236328125 0.96606796875
vt 0.27734375 0.955078125
vt 0.38989609375 0.796875
vt 0.41187578125 0.796875
vt 0.41187578125 0.859375
vt 0.38989609375 0.859375
vt 0.236328125 0.85424453125
vt 0.24731796875 0.83520859375
vt 0.27734375 0.865234375
vt 0.26635390625 0.99609375
vt 0.24731796875 0.98510390625
vt 0.27734375 0.955078125
vt 0.33812421875 0.6015625
vt 0.36010390625 0.6015625
vt 0.36010390625 0.6640625
vt 0.33812421875 0.6640625
vt 0.24731796875 0.83520859375
vt 0.26635390625 0.82421875
vt 0.27734375 0.865234375
vt 0.28833359375 0.99609375
vt 0.26635390625 0.99609375
vt 0.27734375 0.955078125
vt 0.36010390625 0.6015625
vt 0.38208359375 0.6015625
vt 0.38208359375 0.6640625
vt 0.36010390625 0.6640625
vt 0.26635390625 0.82421875
vt 0.28833359375 0.82421875
vt 0.27734375 0.865234375
vt 0.25 0.7109375
vt 0.234375 0.7109375
vt 0.234375 0.5390625
vt 0.25 0.5390625
vt 0.2734375 0.484375
vt 0.2734375 0.65625
vt 0.2578125 0.65625
vt 0.2578125 0.484375
vt 0.3203125 0.8203125
vt 0.3359375 0.8203125
vt 0.3359375 0.8359375
vt 0.3203125 0.8359375
vt 0.0625 0.59375
vt 0.0625 0.609375
vt 0.046875 0.609375
vt 0.046875 0.59375
vt 0.296875 0.484375
vt 0.296875 0.65625
vt 0.28125 0.65625
vt 0.28125 0.484375
vt 0.3203125 0.484375
vt 0.3203125 0.65625
vt 0.3046875 0.65625
vt 0.3046875 0.484375
vt 0.09375 0.640625
vt 0.078125 0.640625
vt 0.078125 0.46875
vt 0.09375 0.46875
vt 0.40625 0.890625
vt 0.40625 0.875
vt 0.421875 0.875
vt 0.421875 0.890625
vt 0.0625 0.5859375
vt 0.046875 0.5859375
vt 0.046875 0.5703125
vt 0.0625 0.5703125
vt 0.1171875 0.640625
vt 0.1015625 0.640625
vt 0.1015625 0.46875
vt 0.1171875 0.46875
vt 0.140625 0.46875
vt 0.140625 0.640625
vt 0.125 0.640625
vt 0.125 0.46875
vt 0.1640625 0.640625
vt 0.1484375 0.640625
vt 0.1484375 0.46875
vt 0.1640625 0.46875
vt 0.4140625 0.71875
vt 0.4140625 0.703125
vt 0.4296875 0.703125
vt 0.4296875 0.71875
vt 0.4296875 0.6953125
vt 0.4140625 0.6953125
vt 0.4140625 0.6796875
vt 0.4296875 0.6796875
vt 0.1875 0.640625
vt 0.171875 0.640625
vt 0.171875 0.46875
vt 0.1875 0.46875
vt 0.2109375 0.640625
vt 0.1953125 0.640625
vt 0.1953125 0.46875
vt 0.2109375 0.46875
vt 0.015625 0.4375
vt 0.015625 0.609375
vt 0 0.609375
vt 0 0.4375
vt 0.4140625 0.65625
vt 0.4296875 0.65625
vt 0.4296875 0.671875
vt 0.4140625 0.671875
vt 0.4296875 0.6328125
vt 0.4296875 0.6484375
vt 0.4140625 0.6484375
vt 0.4140625 0.6328125
vt 0.0390625 0.4375
vt 0.0390625 0.609375
vt 0.0234375 0.609375
vt 0.0234375 0.4375
vn 0.5000024352623957 0 0.8660239977804737
vn 0.8660239977804737 0 0.5000024352623957
vn 1 0 0
vn 0.8660239977804737 0 -0.5000024352623957
vn 0.5000024352623957 0 -0.8660239977804737
vn 0 0 -1
vn -0.5000024352623957 0 -0.8660239977804737
vn -0.8660239977804737 0 -0.5000024352623957
vn -1 0 0
vn -0.8660239977804737 0 0.5000024352623957
vn -0.5000024352623957 0 0.8660239977804737
vn 0 0 1
vn -0.0010259899315539884 0.9999978946568229 -0.001777083729656248
vn 0.35355479797478484 0.7071064127308838 0.6123720485978033
vn 0.48296521947586135 0.2588193880873821 0.8365148660524248
vn -0.001777083729656248 0.9999978946568229 -0.0010259899315539884
vn 0.6123734269718888 0.7071048211145083 0.35355559378310497
vn 0.8365150241777791 0.2588187066607101 0.4829653107701701
vn -0.002051995679831815 0.9999978946546487 0
vn 0.7071067811865477 0.7071067811865474 0
vn 0.9659261142385607 0.258817970457994 0
vn -0.001777083729656248 0.9999978946568229 0.0010259899315539884
vn 0.6123720485978031 0.7071064127308837 -0.3535547979747848
vn 0.8365148660524248 0.2588193880873821 -0.48296521947586135
vn -0.0010259899315539884 0.9999978946568229 0.001777083729656248
vn 0.35355559378310497 0.7071048211145083 -0.6123734269718888
vn 0.4829653107701701 0.2588187066607101 -0.8365150241777791
vn 0 0.9999978946546487 0.002051995679831815
vn 0 0.7071067811865474 -0.7071067811865477
vn 0 0.258817970457994 -0.9659261142385607
vn 0.0010259899315539884 0.9999978946568229 0.001777083729656248
vn -0.35355479797478484 0.7071064127308838 -0.6123720485978033
vn -0.48296521947586135 0.2588193880873821 -0.8365148660524248
vn 0.001777083729656248 0.9999978946568229 0.0010259899315539884
vn -0.6123734269718888 0.7071048211145083 -0.35355559378310497
vn -0.8365150241777791 0.2588187066607101 -0.4829653107701701
vn 0.002051995679831815 0.9999978946546487 0
vn -0.7071067811865477 0.7071067811865474 0
vn -0.9659261142385607 0.258817970457994 0
vn 0.001777083729656248 0.9999978946568229 -0.0010259899315539884
vn -0.6123720485978031 0.7071064127308837 0.3535547979747848
vn -0.8365148660524248 0.2588193880873821 0.48296521947586135
vn 0.0010259899315539884 0.9999978946568229 -0.001777083729656248
vn -0.35355559378310497 0.7071048211145083 0.6123734269718888
vn -0.4829653107701701 0.2588187066607101 0.8365150241777791
vn 0 0.9999978946546487 -0.002051995679831815
vn 0 0.7071067811865474 0.7071067811865477
vn 0 0.258817970457994 0.9659261142385607
vn 0 -1 0
vn 0.4999981273407037 0 0.8660264849620881
vn 0 1 0
vn 0 -1 0
vn 0.8660264849620881 0 0.4999981273407037
vn 0 1 0
vn 0 -1 0
vn 1 0 0
vn 0 1 0
vn 0 -1 0
vn 0.8660264849620881 0 -0.4999981273407037
vn 0 1 0
vn 0 -1 0
vn 0.4999981273407037 0 -0.8660264849620881
vn 0 1 0
vn 0 -1 0
vn 0 0 -1
vn 0 1 0
vn 0 -1 0
vn -0.4999981273407037 0 -0.8660264849620881
vn 0 1 0
vn 0 -1 0
vn -0.8660264849620881 0 -0.4999981273407037
vn 0 1 0
vn 0 -1 0
vn -1 0 0
vn 0 1 0
vn 0 -1 0
vn -0.8660264849620881 0 0.4999981273407037
vn 0 1 0
vn 0 -1 0
vn -0.4999981273407037 0 0.8660264849620881
vn 0 1 0
vn 0 -1 0
vn 0 0 1
vn 0 1 0
vn 0 -1 0
vn 0 -1 0
vn 0 -1 0
vn 0 -1 0
vn 0 -1 0
vn 0 -1 0
vn 0 -1 0
vn 0 -1 0
vn 0 -1 0
vn 0 -1 0
vn 0 -1 0
vn 0 -1 0
vn 0 -1 0
vn 0.4999981273407037 0 0.8660264849620881
vn 0 1 0
vn 0 -1 0
vn 0.8660264849620881 0 0.4999981273407037
vn 0 1 0
vn 0 -1 0
vn 1 0 0
vn 0 1 0
vn 0 -1 0
vn 0.8660264849620881 0 -0.4999981273407037
vn 0 1 0
vn 0 -1 0
vn 0.4999981273407037 0 -0.8660264849620881
vn 0 1 0
vn 0 -1 0
vn 0 0 -1
vn 0 1 0
vn 0 -1 0
vn -0.4999981273407037 0 -0.8660264849620881
vn 0 1 0
vn 0 -1 0
vn -0.8660264849620881 0 -0.4999981273407037
vn 0 1 0
vn 0 -1 0
vn -1 0 0
vn 0 1 0
vn 0 -1 0
vn -0.8660264849620881 0 0.4999981273407037
vn 0 1 0
vn 0 -1 0
vn -0.4999981273407037 0 0.8660264849620881
vn 0 1 0
vn 0 -1 0
vn 0 0 1
vn 0 1 0
vn 2.537652627714644e-16 0 -1
vn -2.537652627714644e-16 0 1
vn 0 1 0
vn 0 -1 0
vn 1 0 4.440892098500626e-16
vn -2.537652627714644e-16 0 -1
vn 2.537652627714644e-16 0 1
vn 0 1 0
vn 0 -1 0
vn -1 0 4.440892098500626e-16
vn -1 0 0
vn 1 0 0
vn 0 1 0
vn 0 -1 0
vn 0 0 1
vn -1 1.2029504555757902e-16 0
vn 1 -1.2029504555757902e-16 0
vn 0 1 0
vn 0 -1 0
vn 0 1.6039339407677206e-16 -1
usemtl m_1e583672-bae6-f199-e16f-489e4f1d8a4c
f 1/1/1 3/2/1 4/3/1 2/4/1
f 3/5/2 5/6/2 6/7/2 4/8/2
f 5/9/3 7/10/3 8/11/3 6/12/3
f 7/13/4 9/14/4 10/15/4 8/16/4
f 9/17/5 11/18/5 12/19/5 10/20/5
f 11/21/6 13/22/6 14/23/6 12/24/6
f 13/25/7 15/26/7 16/27/7 14/28/7
f 15/29/8 17/30/8 18/31/8 16/32/8
f 17/33/9 19/34/9 20/35/9 18/36/9
f 19/37/10 21/38/10 22/39/10 20/40/10
f 21/41/11 23/42/11 24/43/11 22/44/11
f 23/45/12 1/46/12 2/47/12 24/48/12
f 26/49/13 29/50/13 25/51/13
f 26/52/14 27/53/14 30/54/14 29/55/14
f 27/56/15 28/57/15 31/58/15 30/59/15
f 29/60/16 32/61/16 25/62/16
f 29/63/17 30/64/17 33/65/17 32/66/17
f 30/67/18 31/68/18 34/69/18 33/70/18
f 32/71/19 35/72/19 25/73/19
f 32/74/20 33/75/20 36/76/20 35/77/20
f 33/78/21 34/79/21 37/80/21 36/81/21
f 35/82/22 38/83/22 25/84/22
f 35/85/23 36/86/23 39/87/23 38/88/23
f 36/89/24 37/90/24 40/91/24 39/92/24
f 38/93/25 41/94/25 25/95/25
f 38/96/26 39/97/26 42/98/26 41/99/26
f 39/100/27 40/101/27 43/102/27 42/103/27
f 41/104/28 44/105/28 25/106/28
f 41/107/29 42/108/29 45/109/29 44/110/29
f 42/111/30 43/112/30 46/113/30 45/114/30
f 44/115/31 47/116/31 25/117/31
f 44/118/32 45/119/32 48/120/32 47/121/32
f 45/122/33 46/123/33 49/124/33 48/125/33
f 47/126/34 50/127/34 25/128/34
f 47/129/35 48/130/35 51/131/35 50/132/35
f 48/133/36 49/134/36 52/135/36 51/136/36
f 50/137/37 53/138/37 25/139/37
f 50/140/38 51/141/38 54/142/38 53/143/38
f 51/144/39 52/145/39 55/146/39 54/147/39
f 53/148/40 56/149/40 25/150/40
f 53/151/41 54/152/41 57/153/41 56/154/41
f 54/155/42 55/156/42 58/157/42 57/158/42
f 56/159/43 59/160/43 25/161/43
f 56/162/44 57/163/44 60/164/44 59/165/44
f 57/166/45 58/167/45 61/168/45 60/169/45
f 59/170/46 26/171/46 25/172/46
f 59/173/47 60/174/47 27/175/47 26/176/47
f 60/177/48 61/178/48 28/179/48 27/180/48
f 66/181/49 64/182/49 62/183/49
f 64/184/50 66/185/50 67/186/50 65/187/50
f 65/188/51 67/189/51 63/190/51
f 68/191/52 66/192/52 62/193/52
f 66/194/53 68/195/53 69/196/53 67/197/53
f 67/198/54 69/199/54 63/200/54
f 70/201/55 68/202/55 62/203/55
f 68/204/56 70/205/56 71/206/56 69/207/56
f 69/208/57 71/209/57 63/210/57
f 72/211/58 70/212/58 62/213/58
f 70/214/59 72/215/59 73/216/59 71/217/59
f 71/218/60 73/219/60 63/220/60
f 74/221/61 72/222/61 62/223/61
f 72/224/62 74/225/62 75/226/62 73/227/62
f 73/228/63 75/229/63 63/230/63
f 76/231/64 74/232/64 62/233/64
f 74/234/65 76/235/65 77/236/65 75/237/65
f 75/238/66 77/239/66 63/240/66
f 78/241/67 76/242/67 62/243/67
f 76/244/68 78/245/68 79/246/68 77/247/68
f 77/248/69 79/249/69 63/250/69
f 80/251/70 78/252/70 62/253/70
f 78/254/71 80/255/71 81/256/71 79/257/71
f 79/258/72 81/259/72 63/260/72
f 82/261/73 80/262/73 62/263/73
f 80/264/74 82/265/74 83/266/74 81/267/74
f 81/268/75 83/269/75 63/270/75
f 84/271/76 82/272/76 62/273/76
f 82/274/77 84/275/77 85/276/77 83/277/77
f 83/278/78 85/279/78 63/280/78
f 86/281/79 84/282/79 62/283/79
f 84/284/80 86/285/80 87/286/80 85/287/80
f 85/288/81 87/289/81 63/290/81
f 64/291/82 86/292/82 62/293/82
f 86/294/83 64/295/83 65/296/83 87/297/83
f 87/298/84 65/299/84 63/300/84
f 90/301/85 89/302/85 88/303/85
f 91/304/86 90/305/86 88/306/86
f 92/307/87 91/308/87 88/309/87
f 93/310/88 92/311/88 88/312/88
f 94/313/89 93/314/89 88/315/89
f 95/316/90 94/317/90 88/318/90
f 96/319/91 95/320/91 88/321/91
f 97/322/92 96/323/92 88/324/92
f 98/325/93 97/326/93 88/327/93
f 99/328/94 98/329/94 88/330/94
f 100/331/95 99/332/95 88/333/95
f 89/334/96 100/335/96 88/336/96
f 105/337/97 103/338/97 101/339/97
f 103/340/98 105/341/98 106/342/98 104/343/98
f 104/344/99 106/345/99 102/346/99
f 107/347/100 105/348/100 101/349/100
f 105/350/101 107/351/101 108/352/101 106/353/101
f 106/354/102 108/355/102 102/356/102
f 109/357/103 107/358/103 101/359/103
f 107/360/104 109/361/104 110/362/104 108/363/104
f 108/364/105 110/365/105 102/366/105
f 111/367/106 109/368/106 101/369/106
f 109/370/107 111/371/107 112/372/107 110/373/107
f 110/374/108 112/375/108 102/376/108
f 113/377/109 111/378/109 101/379/109
f 111/380/110 113/381/110 114/382/110 112/383/110
f 112/384/111 114/385/111 102/386/111
f 115/387/112 113/388/112 101/389/112
f 113/390/113 115/391/113 116/392/113 114/393/113
f 114/394/114 116/395/114 102/396/114
f 117/397/115 115/398/115 101/399/115
f 115/400/116 117/401/116 118/402/116 116/403/116
f 116/404/117 118/405/117 102/406/117
f 119/407/118 117/408/118 101/409/118
f 117/410/119 119/411/119 120/412/119 118/413/119
f 118/414/120 120/415/120 102/416/120
f 121/417/121 119/418/121 101/419/121
f 119/420/122 121/421/122 122/422/122 120/423/122
f 120/424/123 122/425/123 102/426/123
f 123/427/124 121/428/124 101/429/124
f 121/430/125 123/431/125 124/432/125 122/433/125
f 122/434/126 124/435/126 102/436/126
f 125/437/127 123/438/127 101/439/127
f 123/440/128 125/441/128 126/442/128 124/443/128
f 124/444/129 126/445/129 102/446/129
f 103/447/130 125/448/130 101/449/130
f 125/450/131 103/451/131 104/452/131 126/453/131
f 126/454/132 104/455/132 102/456/132
f 128/457/133 127/458/133 129/459/133 130/460/133
f 133/461/134 131/462/134 132/463/134 134/464/134
f 131/465/135 127/466/135 128/467/135 132/468/135
f 130/469/136 129/470/136 133/471/136 134/472/136
f 129/473/137 127/474/137 131/475/137 133/476/137
f 137/477/138 135/478/138 136/479/138 138/480/138
f 140/481/139 139/482/139 141/483/139 142/484/139
f 136/485/140 135/486/140 139/487/140 140/488/140
f 141/489/141 137/490/141 138/491/141 142/492/141
f 139/493/142 135/494/142 137/495/142 141/496/142
f 145/497/143 143/498/143 144/499/143 146/500/143
f 148/501/144 147/502/144 149/503/144 150/504/144
f 144/505/145 143/506/145 147/507/145 148/508/145
f 149/509/146 145/510/146 146/511/146 150/512/146
f 147/513/147 143/514/147 145/515/147 149/516/147
f 152/517/148 151/518/148 153/519/148 154/520/148
f 157/521/149 155/522/149 156/523/149 158/524/149
f 155/525/150 151/526/150 152/527/150 156/528/150
f 154/529/151 153/530/151 157/531/151 158/532/151
f 153/533/152 151/534/152 155/535/152 157/536/152