# Made in Blockbench 5.1.6
mtllib centrifuge_cylinder.mtl

o tube
v 0.08792125 0.1875 0.328125
v 0.08792125 1.625 0.328125
v 0.24020375 0.1875 0.24020375
v 0.24020375 1.625 0.24020375
v 0.328125 0.1875 0.08792125
v 0.328125 1.625 0.08792125
v 0.328125 0.1875 -0.08792125
v 0.328125 1.625 -0.08792125
v 0.24020375 0.1875 -0.24020375
v 0.24020375 1.625 -0.24020375
v 0.08792125 0.1875 -0.328125
v 0.08792125 1.625 -0.328125
v -0.08792125 0.1875 -0.328125
v -0.08792125 1.625 -0.328125
v -0.24020375 0.1875 -0.24020375
v -0.24020375 1.625 -0.24020375
v -0.328125 0.1875 -0.08792125
v -0.328125 1.625 -0.08792125
v -0.328125 0.1875 0.08792125
v -0.328125 1.625 0.08792125
v -0.24020375 0.1875 0.24020375
v -0.24020375 1.625 0.24020375
v -0.08792125 0.1875 0.328125
v -0.08792125 1.625 0.328125
v 0 1.625 0
v 0 1.8125 0
v 0.087920625 1.625 0.328125
v 0.087920625 1.8125 0.328125
v 0.240204375 1.625 0.240204375
v 0.240204375 1.8125 0.240204375
v 0.328125 1.625 0.087920625
v 0.328125 1.8125 0.087920625
v 0.328125 1.625 -0.087920625
v 0.328125 1.8125 -0.087920625
v 0.240204375 1.625 -0.240204375
v 0.240204375 1.8125 -0.240204375
v 0.087920625 1.625 -0.328125
v 0.087920625 1.8125 -0.328125
v -0.087920625 1.625 -0.328125
v -0.087920625 1.8125 -0.328125
v -0.240204375 1.625 -0.240204375
v -0.240204375 1.8125 -0.240204375
v -0.328125 1.625 -0.087920625
v -0.328125 1.8125 -0.087920625
v -0.328125 1.625 0.087920625
v -0.328125 1.8125 0.087920625
v -0.240204375 1.625 0.240204375
v -0.240204375 1.8125 0.240204375
v -0.087920625 1.625 0.328125
v -0.087920625 1.8125 0.328125
v 0 0 0
v 0 0.1875 0
v 0.087920625 0 0.328125
v 0.087920625 0.1875 0.328125
v 0.240204375 0 0.240204375
v 0.240204375 0.1875 0.240204375
v 0.328125 0 0.087920625
v 0.328125 0.1875 0.087920625
v 0.328125 0 -0.087920625
v 0.328125 0.1875 -0.087920625
v 0.240204375 0 -0.240204375
v 0.240204375 0.1875 -0.240204375
v 0.087920625 0 -0.328125
v 0.087920625 0.1875 -0.328125
v -0.087920625 0 -0.328125
v -0.087920625 0.1875 -0.328125
v -0.240204375 0 -0.240204375
v -0.240204375 0.1875 -0.240204375
v -0.328125 0 -0.087920625
v -0.328125 0.1875 -0.087920625
v -0.328125 0 0.087920625
v -0.328125 0.1875 0.087920625
v -0.240204375 0 0.240204375
v -0.240204375 0.1875 0.240204375
v -0.087920625 0 0.328125
v -0.087920625 0.1875 0.328125
vt 0.04614609375 0.6328125
vt 0.0681265625 0.6328125
vt 0.0681265625 0.8125
vt 0.04614609375 0.8125
vt 0.0021859375 0.8203125
vt 0.02416640625 0.8203125
vt 0.02416640625 1
vt 0.0021859375 1
vt 0.02416640625 0.8203125
vt 0.04614609375 0.8203125
vt 0.04614609375 1
vt 0.02416640625 1
vt 0.04614609375 0.8203125
vt 0.0681265625 0.8203125
vt 0.0681265625 1
vt 0.04614609375 1
vt 0.0803109375 0.8203125
vt 0.10229140625 0.8203125
vt 0.10229140625 1
vt 0.0803109375 1
vt 0.10229140625 0.8203125
vt 0.12427109375 0.8203125
vt 0.12427109375 1
vt 0.10229140625 1
vt 0.12427109375 0.8203125
vt 0.1462515625 0.8203125
vt 0.1462515625 1
vt 0.12427109375 1
vt 0.1584359375 0.8203125
vt 0.18041640625 0.8203125
vt 0.18041640625 1
vt 0.1584359375 1
vt 0.18041640625 0.8203125
vt 0.20239609375 0.8203125
vt 0.20239609375 1
vt 0.18041640625 1
vt 0.20239609375 0.8203125
vt 0.2243765625 0.8203125
vt 0.2243765625 1
vt 0.20239609375 1
vt 0.0021859375 0.6328125
vt 0.02416640625 0.6328125
vt 0.02416640625 0.8125
vt 0.0021859375 0.8125
vt 0.02416640625 0.6328125
vt 0.04614609375 0.6328125
vt 0.04614609375 0.8125
vt 0.02416640625 0.8125
vt 0.584432890625 0.982870390625
vt 0.558145234375 0.998046875
vt 0.54296875 0.94140625
vt 0.544151640625 0.5703125
vt 0.570016953125 0.5703125
vt 0.570016953125 0.609375
vt 0.544151640625 0.609375
vt 0.558145234375 0.884765625
vt 0.584432890625 0.899942109375
vt 0.54296875 0.94140625
vt 0.599609375 0.956582734375
vt 0.584432890625 0.982870390625
vt 0.54296875 0.94140625
vt 0.726858046875 0.5703125
vt 0.752723359375 0.5703125
vt 0.752723359375 0.609375
vt 0.726858046875 0.609375
vt 0.584432890625 0.899942109375
vt 0.599609375 0.926229765625
vt 0.54296875 0.94140625
vt 0.599609375 0.926229765625
vt 0.599609375 0.956582734375
vt 0.54296875 0.94140625
vt 0.752723359375 0.5703125
vt 0.77858859375 0.5703125
vt 0.77858859375 0.609375
vt 0.752723359375 0.609375
vt 0.599609375 0.926229765625
vt 0.599609375 0.956582734375
vt 0.54296875 0.94140625
vt 0.584432890625 0.899942109375
vt 0.599609375 0.926229765625
vt 0.54296875 0.94140625
vt 0.77858859375 0.5703125
vt 0.80445390625 0.5703125
vt 0.80445390625 0.609375
vt 0.77858859375 0.609375
vt 0.599609375 0.956582734375
vt 0.584432890625 0.982870390625
vt 0.54296875 0.94140625
vt 0.558145234375 0.884765625
vt 0.584432890625 0.899942109375
vt 0.54296875 0.94140625
vt 0.648712421875 0.5703125
vt 0.67457765625 0.5703125
vt 0.67457765625 0.609375
vt 0.648712421875 0.609375
vt 0.584432890625 0.982870390625
vt 0.558145234375 0.998046875
vt 0.54296875 0.94140625
vt 0.527792265625 0.884765625
vt 0.558145234375 0.884765625
vt 0.54296875 0.94140625
vt 0.67457765625 0.5703125
vt 0.70044296875 0.5703125
vt 0.70044296875 0.609375
vt 0.67457765625 0.609375
vt 0.558145234375 0.998046875
vt 0.527792265625 0.998046875
vt 0.54296875 0.94140625
vt 0.501504609375 0.899942109375
vt 0.527792265625 0.884765625
vt 0.54296875 0.94140625
vt 0.70044296875 0.5703125
vt 0.72630828125 0.5703125
vt 0.72630828125 0.609375
vt 0.70044296875 0.609375
vt 0.527792265625 0.998046875
vt 0.501504609375 0.982870390625
vt 0.54296875 0.94140625
vt 0.486328125 0.926229765625
vt 0.501504609375 0.899942109375
vt 0.54296875 0.94140625
vt 0.57056671875 0.5703125
vt 0.59643203125 0.5703125
vt 0.59643203125 0.609375
vt 0.57056671875 0.609375
vt 0.501504609375 0.982870390625
vt 0.486328125 0.956582734375
vt 0.54296875 0.94140625
vt 0.486328125 0.956582734375
vt 0.486328125 0.926229765625
vt 0.54296875 0.94140625
vt 0.59643203125 0.5703125
vt 0.62229734375 0.5703125
vt 0.62229734375 0.609375
vt 0.59643203125 0.609375
vt 0.486328125 0.956582734375
vt 0.486328125 0.926229765625
vt 0.54296875 0.94140625
vt 0.501504609375 0.982870390625
vt 0.486328125 0.956582734375
vt 0.54296875 0.94140625
vt 0.62229734375 0.5703125
vt 0.648162578125 0.5703125
vt 0.648162578125 0.609375
vt 0.62229734375 0.609375
vt 0.486328125 0.926229765625
vt 0.501504609375 0.899942109375
vt 0.54296875 0.94140625
vt 0.527792265625 0.998046875
vt 0.501504609375 0.982870390625
vt 0.54296875 0.94140625
vt 0.49242109375 0.5703125
vt 0.51828640625 0.5703125
vt 0.51828640625 0.609375
vt 0.49242109375 0.609375
vt 0.501504609375 0.899942109375
vt 0.527792265625 0.884765625
vt 0.54296875 0.94140625
vt 0.558145234375 0.998046875
vt 0.527792265625 0.998046875
vt 0.54296875 0.94140625
vt 0.51828640625 0.5703125
vt 0.544151640625 0.5703125
vt 0.544151640625 0.609375
vt 0.51828640625 0.609375
vt 0.527792265625 0.884765625
vt 0.558145234375 0.884765625
vt 0.54296875 0.94140625
vt 0.584432890625 0.982870390625
vt 0.558145234375 0.998046875
vt 0.54296875 0.94140625
vt 0.54419296875 0.5703125
vt 0.57007890625 0.5703125
vt 0.57007890625 0.609375
vt 0.54419296875 0.609375
vt 0.558145234375 0.884765625
vt 0.584432890625 0.899942109375
vt 0.54296875 0.94140625
vt 0.599609375 0.956582734375
vt 0.584432890625 0.982870390625
vt 0.54296875 0.94140625
vt 0.72679609375 0.5703125
vt 0.75268203125 0.5703125
vt 0.75268203125 0.609375
vt 0.72679609375 0.609375
vt 0.584432890625 0.899942109375
vt 0.599609375 0.926229765625
vt 0.54296875 0.94140625
vt 0.599609375 0.926229765625
vt 0.599609375 0.956582734375
vt 0.54296875 0.94140625
vt 0.75268203125 0.5703125
vt 0.77856796875 0.5703125
vt 0.77856796875 0.609375
vt 0.75268203125 0.609375
vt 0.599609375 0.926229765625
vt 0.599609375 0.956582734375
vt 0.54296875 0.94140625
vt 0.584432890625 0.899942109375
vt 0.599609375 0.926229765625
vt 0.54296875 0.94140625
vt 0.77856796875 0.5703125
vt 0.80445390625 0.5703125
vt 0.80445390625 0.609375
vt 0.77856796875 0.609375
vt 0.599609375 0.956582734375
vt 0.584432890625 0.982870390625
vt 0.54296875 0.94140625
vt 0.558145234375 0.884765625
vt 0.584432890625 0.899942109375
vt 0.54296875 0.94140625
vt 0.64867109375 0.5703125
vt 0.67455703125 0.5703125
vt 0.67455703125 0.609375
vt 0.64867109375 0.609375
vt 0.584432890625 0.982870390625
vt 0.558145234375 0.998046875
vt 0.54296875 0.94140625
vt 0.527792265625 0.884765625
vt 0.558145234375 0.884765625
vt 0.54296875 0.94140625
vt 0.67455703125 0.5703125
vt 0.70044296875 0.5703125
vt 0.70044296875 0.609375
vt 0.67455703125 0.609375
vt 0.558145234375 0.998046875
vt 0.527792265625 0.998046875
vt 0.54296875 0.94140625
vt 0.501504609375 0.899942109375
vt 0.527792265625 0.884765625
vt 0.54296875 0.94140625
vt 0.70044296875 0.5703125
vt 0.72632890625 0.5703125
vt 0.72632890625 0.609375
vt 0.70044296875 0.609375
vt 0.527792265625 0.998046875
vt 0.501504609375 0.982870390625
vt 0.54296875 0.94140625
vt 0.486328125 0.926229765625
vt 0.501504609375 0.899942109375
vt 0.54296875 0.94140625
vt 0.57054609375 0.5703125
vt 0.59643203125 0.5703125
vt 0.59643203125 0.609375
vt 0.57054609375 0.609375
vt 0.501504609375 0.982870390625
vt 0.486328125 0.956582734375
vt 0.54296875 0.94140625
vt 0.486328125 0.956582734375
vt 0.486328125 0.926229765625
vt 0.54296875 0.94140625
vt 0.59643203125 0.5703125
vt 0.62231796875 0.5703125
vt 0.62231796875 0.609375
vt 0.59643203125 0.609375
vt 0.486328125 0.956582734375
vt 0.486328125 0.926229765625
vt 0.54296875 0.94140625
vt 0.501504609375 0.982870390625
vt 0.486328125 0.956582734375
vt 0.54296875 0.94140625
vt 0.62231796875 0.5703125
vt 0.64820390625 0.5703125
vt 0.64820390625 0.609375
vt 0.62231796875 0.609375
vt 0.486328125 0.926229765625
vt 0.501504609375 0.899942109375
vt 0.54296875 0.94140625
vt 0.527792265625 0.998046875
vt 0.501504609375 0.982870390625
vt 0.54296875 0.94140625
vt 0.49242109375 0.5703125
vt 0.51830703125 0.5703125
vt 0.51830703125 0.609375
vt 0.49242109375 0.609375
vt 0.501504609375 0.899942109375
vt 0.527792265625 0.884765625
vt 0.54296875 0.94140625
vt 0.558145234375 0.998046875
vt 0.527792265625 0.998046875
vt 0.54296875 0.94140625
vt 0.51830703125 0.5703125
vt 0.54419296875 0.5703125
vt 0.54419296875 0.609375
vt 0.51830703125 0.609375
vt 0.527792265625 0.884765625
vt 0.558145234375 0.884765625
vt 0.54296875 0.94140625
vn 0.5000038712398323 0 0.866023168711543
vn 0.866023168711543 0 0.5000038712398323
vn 1 0 0
vn 0.866023168711543 0 -0.5000038712398323
vn 0.5000038712398323 0 -0.866023168711543
vn 0 0 -1
vn -0.5000038712398323 0 -0.866023168711543
vn -0.866023168711543 0 -0.5000038712398323
vn -1 0 0
vn -0.866023168711543 0 0.5000038712398323
vn -0.5000038712398323 0 0.866023168711543
vn 0 0 1
vn 0 -1 0
vn 0.4999981273407037 0 0.8660264849620879
vn 0 1 0
vn 0 -1 0
vn 0.8660264849620879 0 0.4999981273407037
vn 0 1 0
vn 0 -1 0
vn 1 0 0
vn 0 1 0
vn 0 -1 0
vn 0.8660264849620879 0 -0.4999981273407037
vn 0 1 0
vn 0 -1 0
vn 0.4999981273407037 0 -0.8660264849620879
vn 0 1 0
vn 0 -1 0
vn 0 0 -1
vn 0 1 0
vn 0 -1 0
vn -0.4999981273407037 0 -0.8660264849620879
vn 0 1 0
vn 0 -1 0
vn -0.8660264849620879 0 -0.4999981273407037
vn 0 1 0
vn 0 -1 0
vn -1 0 0
vn 0 1 0
vn 0 -1 0
vn -0.8660264849620879 0 0.4999981273407037
vn 0 1 0
vn 0 -1 0
vn -0.4999981273407037 0 0.8660264849620879
vn 0 1 0
vn 0 -1 0
vn 0 0 1
vn 0 1 0
vn 0 -1 0
vn 0.4999981273407037 0 0.8660264849620879
vn 0 1 0
vn 0 -1 0
vn 0.8660264849620879 0 0.4999981273407037
vn 0 1 0
vn 0 -1 0
vn 1 0 0
vn 0 1 0
vn 0 -1 0
vn 0.8660264849620879 0 -0.4999981273407037
vn 0 1 0
vn 0 -1 0
vn 0.4999981273407037 0 -0.8660264849620879
vn 0 1 0
vn 0 -1 0
vn 0 0 -1
vn 0 1 0
vn 0 -1 0
vn -0.4999981273407037 0 -0.8660264849620879
vn 0 1 0
vn 0 -1 0
vn -0.8660264849620879 0 -0.4999981273407037
vn 0 1 0
vn 0 -1 0
vn -1 0 0
vn 0 1 0
vn 0 -1 0
vn -0.8660264849620879 0 0.4999981273407037
vn 0 1 0
vn 0 -1 0
vn -0.4999981273407037 0 0.8660264849620879
vn 0 1 0
vn 0 -1 0
vn 0 0 1
vn 0 1 0
usemtl m_3a2355a5-fff2-f31c-1d4a-bf33c296c9b2
f 1/1/1 3/2/1 4/3/1 2/4/1
f 3/5/2 5/6/2 6/7/2 4/8/2
f 5/9/3 7/10/3 8/11/3 6/12/3
f 7/13/4 9/14/4 10/15/4 8/16/4
f 9/17/5 11/18/5 12/19/5 10/20/5
f 11/21/6 13/22/6 14/23/6 12/24/6
f 13/25/7 15/26/7 16/27/7 14/28/7
f 15/29/8 17/30/8 18/31/8 16/32/8
f 17/33/9 19/34/9 20/35/9 18/36/9
f 19/37/10 21/38/10 22/39/10 20/40/10
f 21/41/11 23/42/11 24/43/11 22/44/11
f 23/45/12 1/46/12 2/47/12 24/48/12
f 29/49/13 27/50/13 25/51/13
f 27/52/14 29/53/14 30/54/14 28/55/14
f 28/56/15 30/57/15 26/58/15
f 31/59/16 29/60/16 25/61/16
f 29/62/17 31/63/17 32/64/17 30/65/17
f 30/66/18 32/67/18 26/68/18
f 33/69/19 31/70/19 25/71/19
f 31/72/20 33/73/20 34/74/20 32/75/20
f 32/76/21 34/77/21 26/78/21
f 35/79/22 33/80/22 25/81/22
f 33/82/23 35/83/23 36/84/23 34/85/23
f 34/86/24 36/87/24 26/88/24
f 37/89/25 35/90/25 25/91/25
f 35/92/26 37/93/26 38/94/26 36/95/26
f 36/96/27 38/97/27 26/98/27
f 39/99/28 37/100/28 25/101/28
f 37/102/29 39/103/29 40/104/29 38/105/29
f 38/106/30 40/107/30 26/108/30
f 41/109/31 39/110/31 25/111/31
f 39/112/32 41/113/32 42/114/32 40/115/32
f 40/116/33 42/117/33 26/118/33
f 43/119/34 41/120/34 25/121/34
f 41/122/35 43/123/35 44/124/35 42/125/35
f 42/126/36 44/127/36 26/128/36
f 45/129/37 43/130/37 25/131/37
f 43/132/38 45/133/38 46/134/38 44/135/38
f 44/136/39 46/137/39 26/138/39
f 47/139/40 45/140/40 25/141/40
f 45/142/41 47/143/41 48/144/41 46/145/41
f 46/146/42 48/147/42 26/148/42
f 49/149/43 47/150/43 25/151/43
f 47/152/44 49/153/44 50/154/44 48/155/44
f 48/156/45 50/157/45 26/158/45
f 27/159/46 49/160/46 25/161/46
f 49/162/47 27/163/47 28/164/47 50/165/47
f 50/166/48 28/167/48 26/168/48
f 55/169/49 53/170/49 51/171/49
f 53/172/50 55/173/50 56/174/50 54/175/50
f 54/176/51 56/177/51 52/178/51
f 57/179/52 55/180/52 51/181/52
f 55/182/53 57/183/53 58/184/53 56/185/53
f 56/186/54 58/187/54 52/188/54
f 59/189/55 57/190/55 51/191/55
f 57/192/56 59/193/56 60/194/56 58/195/56
f 58/196/57 60/197/57 52/198/57
f 61/199/58 59/200/58 51/201/58
f 59/202/59 61/203/59 62/204/59 60/205/59
f 60/206/60 62/207/60 52/208/60
f 63/209/61 61/210/61 51/211/61
f 61/212/62 63/213/62 64/214/62 62/215/62
f 62/216/63 64/217/63 52/218/63
f 65/219/64 63/220/64 51/221/64
f 63/222/65 65/223/65 66/224/65 64/225/65
f 64/226/66 66/227/66 52/228/66
f 67/229/67 65/230/67 51/231/67
f 65/232/68 67/233/68 68/234/68 66/235/68
f 66/236/69 68/237/69 52/238/69
f 69/239/70 67/240/70 51/241/70
f 67/242/71 69/243/71 70/244/71 68/245/71
f 68/246/72 70/247/72 52/248/72
f 71/249/73 69/250/73 51/251/73
f 69/252/74 71/253/74 72/254/74 70/255/74
f 70/256/75 72/257/75 52/258/75
f 73/259/76 71/260/76 51/261/76
f 71/262/77 73/263/77 74/264/77 72/265/77
f 72/266/78 74/267/78 52/268/78
f 75/269/79 73/270/79 51/271/79
f 73/272/80 75/273/80 76/274/80 74/275/80
f 74/276/81 76/277/81 52/278/81
f 53/279/82 75/280/82 51/281/82
f 75/282/83 53/283/83 54/284/83 76/285/83
f 76/286/84 54/287/84 52/288/84