# Made in Blockbench 5.1.6
mtllib chemical_plant_reaction_chamber.mtl

o cylinder
v 0.12560125 0.375 0.46875
v 0.12560125 0.75 0.46875
v 0.34314875 0.375 0.34314875
v 0.34314875 0.75 0.34314875
v 0.46875 0.375 0.12560125
v 0.46875 0.75 0.12560125
v 0.46875 0.375 -0.12560125
v 0.46875 0.75 -0.12560125
v 0.34314875 0.375 -0.34314875
v 0.34314875 0.75 -0.34314875
v 0.12560125 0.375 -0.46875
v 0.12560125 0.75 -0.46875
v -0.12560125 0.375 -0.46875
v -0.12560125 0.75 -0.46875
v -0.34314875 0.375 -0.34314875
v -0.34314875 0.75 -0.34314875
v -0.46875 0.375 -0.12560125
v -0.46875 0.75 -0.12560125
v -0.46875 0.375 0.12560125
v -0.46875 0.75 0.12560125
v -0.34314875 0.375 0.34314875
v -0.34314875 0.75 0.34314875
v -0.12560125 0.375 0.46875
v -0.12560125 0.75 0.46875
v 0.5 0.125 0.5
v 0.5 0.125 -0.5
v 0.5 0 0.5
v 0.5 0 -0.5
v -0.5 0.125 0.5
v -0.5 0.125 -0.5
v -0.5 0 0.5
v -0.5 0 -0.5
v 0.06863 0.6311300000000001 0.49999999999999994
v 0 0.5624999999999999 -0.5
v 0 0.5625000000000001 0.5
v 0.02512 0.4687499999999999 -0.5
v 0.02512 0.4687500000000001 0.5
v 0.06863 0.49386999999999986 -0.5
v 0.06863 0.4938700000000001 0.5
v 0.09375 0.5373799999999999 -0.5
v 0.09375 0.5373800000000001 0.5
v 0.09375 0.5876199999999999 -0.5
v 0.09375 0.5876200000000001 0.5
v 0.06863 0.6311299999999999 -0.5
v 0.02512 0.6562499999999999 -0.5
v 0.02512 0.6562500000000001 0.49999999999999994
v -0.02512 0.6562499999999999 -0.5
v -0.02512 0.6562500000000001 0.49999999999999994
v -0.06863 0.6311299999999999 -0.5
v -0.06863 0.6311300000000001 0.49999999999999994
v -0.09375 0.5876199999999999 -0.5
v -0.09375 0.5876200000000001 0.5
v -0.09375 0.5373799999999999 -0.5
v -0.09375 0.5373800000000001 0.5
v -0.06863 0.49386999999999986 -0.5
v -0.06863 0.4938700000000001 0.5
v -0.02512 0.4687499999999999 -0.5
v -0.02512 0.4687500000000001 0.5
v 7.638833912234047e-17 0.12624187499999995 0
v -0.06280062499999992 0.12624187499999995 0.234375
v -0.10877374999999995 0.24062499999999998 0.405949375
v -0.12560124999999994 0.375 0.46875
v -0.17157437499999992 0.12624187499999995 0.171574375
v -0.29717562499999994 0.24062499999999998 0.297175625
v -0.34314874999999995 0.37499999999999994 0.34314875
v -0.23437499999999992 0.12624187499999995 0.062800625
v -0.40594937499999995 0.24062499999999998 0.10877375
v -0.46874999999999994 0.37499999999999994 0.12560125
v -0.23437499999999992 0.12624187499999995 -0.062800625
v -0.40594937499999995 0.24062499999999998 -0.10877375
v -0.46874999999999994 0.37499999999999994 -0.12560125
v -0.17157437499999992 0.12624187499999995 -0.171574375
v -0.29717562499999994 0.24062499999999998 -0.297175625
v -0.34314874999999995 0.37499999999999994 -0.34314875
v -0.06280062499999992 0.12624187499999995 -0.234375
v -0.10877374999999995 0.24062499999999998 -0.405949375
v -0.12560124999999994 0.375 -0.46875
v 0.06280062500000008 0.12624187499999995 -0.234375
v 0.10877375000000006 0.24062499999999998 -0.405949375
v 0.12560125000000005 0.375 -0.46875
v 0.17157437500000008 0.12624187499999995 -0.171574375
v 0.29717562500000005 0.24062499999999998 -0.297175625
v 0.34314875000000006 0.37500000000000006 -0.34314875
v 0.23437500000000008 0.12624187499999995 -0.062800625
v 0.40594937500000006 0.24062499999999998 -0.10877375
v 0.46875000000000006 0.37500000000000006 -0.12560125
v 0.23437500000000008 0.12624187499999995 0.062800625
v 0.40594937500000006 0.24062499999999998 0.10877375
v 0.46875000000000006 0.37500000000000006 0.12560125
v 0.17157437500000008 0.12624187499999995 0.171574375
v 0.29717562500000005 0.24062499999999998 0.297175625
v 0.34314875000000006 0.37500000000000006 0.34314875
v 0.06280062500000008 0.12624187499999995 0.234375
v 0.10877375000000006 0.24062499999999998 0.405949375
v 0.12560125000000005 0.375 0.46875
v -7.638833912234047e-17 0.998758125 -7.638833912234047e-17
v -0.06280062500000008 0.998758125 -0.23437500000000008
v -0.10877375000000006 0.884375 -0.40594937500000006
v -0.12560125000000005 0.75 -0.46875000000000006
v -0.17157437500000008 0.998758125 -0.17157437500000008
v -0.29717562500000005 0.884375 -0.29717562500000005
v -0.34314875000000006 0.7499999999999999 -0.34314875000000006
v -0.23437500000000008 0.998758125 -0.06280062500000008
v -0.40594937500000006 0.884375 -0.10877375000000006
v -0.46875000000000006 0.75 -0.12560125000000005
v -0.23437500000000008 0.998758125 0.06280062499999992
v -0.40594937500000006 0.884375 0.10877374999999995
v -0.46875000000000006 0.75 0.12560124999999994
v -0.17157437500000008 0.998758125 0.17157437499999992
v -0.29717562500000005 0.884375 0.29717562499999994
v -0.34314875000000006 0.75 0.34314874999999995
v -0.06280062500000008 0.998758125 0.23437499999999992
v -0.10877375000000006 0.884375 0.40594937499999995
v -0.12560125000000005 0.75 0.46874999999999994
v 0.06280062499999992 0.998758125 0.23437499999999992
v 0.10877374999999995 0.884375 0.40594937499999995
v 0.12560124999999994 0.75 0.46874999999999994
v 0.17157437499999992 0.998758125 0.17157437499999992
v 0.29717562499999994 0.884375 0.29717562499999994
v 0.34314874999999995 0.7500000000000001 0.34314874999999995
v 0.23437499999999992 0.998758125 0.06280062499999992
v 0.40594937499999995 0.884375 0.10877374999999995
v 0.46874999999999994 0.75 0.12560124999999994
v 0.23437499999999992 0.998758125 -0.06280062500000008
v 0.40594937499999995 0.884375 -0.10877375000000006
v 0.46874999999999994 0.75 -0.12560125000000005
v 0.17157437499999992 0.998758125 -0.17157437500000008
v 0.29717562499999994 0.884375 -0.29717562500000005
v 0.34314874999999995 0.75 -0.34314875000000006
v 0.06280062499999992 0.998758125 -0.23437500000000008
v 0.10877374999999995 0.884375 -0.40594937500000006
v 0.12560124999999994 0.75 -0.46875000000000006
v 0.5 0.63113 -0.06862999999999991
v -0.5 0.5625 -1.249000902703301e-16
v 0.5 0.5625 9.71445146547012e-17
v -0.5 0.46875 -0.025120000000000104
v 0.5 0.46875 -0.025119999999999882
v -0.5 0.49387 -0.06863000000000011
v 0.5 0.49387 -0.06862999999999989
v -0.5 0.53738 -0.09375000000000012
v 0.5 0.53738 -0.0937499999999999
v -0.5 0.58762 -0.09375000000000012
v 0.5 0.58762 -0.0937499999999999
v -0.5 0.63113 -0.06863000000000014
v -0.5 0.65625 -0.025120000000000146
v 0.5 0.65625 -0.025119999999999924
v -0.5 0.65625 0.025119999999999854
v 0.5 0.65625 0.025120000000000076
v -0.5 0.63113 0.06862999999999986
v 0.5 0.63113 0.06863000000000008
v -0.5 0.58762 0.09374999999999988
v 0.5 0.58762 0.0937500000000001
v -0.5 0.53738 0.09374999999999988
v 0.5 0.53738 0.0937500000000001
v -0.5 0.49387000000000003 0.06862999999999989
v 0.5 0.49387000000000003 0.06863000000000011
v -0.5 0.46875 0.025119999999999896
v 0.5 0.46875 0.025120000000000118
v 0.4816941738958308 0.09911165255439938 0.3933058262475124
v 0.2941941738958308 0.3642766944611717 0.20580582477929993
v 0.4191941734064266 0.010723304560019964 0.3308058272263207
v 0.23169417340642667 0.27588834646679233 0.14330582575810819
v 0.3933058265935733 0.09911165353320767 0.4816941742418918
v 0.20580582659357338 0.36427669543998004 0.2941941727736793
v 0.3308058261041692 0.010723305538828248 0.41919417522070007
v 0.14330582610416923 0.27588834744560065 0.2316941737524876
v -0.4816941738958308 0.09911165255439938 0.3933058262475124
v -0.2941941738958308 0.3642766944611717 0.20580582477929993
v -0.4191941734064266 0.010723304560019964 0.3308058272263207
v -0.23169417340642667 0.27588834646679233 0.14330582575810819
v -0.3933058265935733 0.09911165353320767 0.4816941742418918
v -0.20580582659357338 0.36427669543998004 0.2941941727736793
v -0.3308058261041692 0.010723305538828248 0.41919417522070007
v -0.14330582610416923 0.27588834744560065 0.2316941737524876
v 0.4816941738958308 0.09911165255439938 -0.3933058262475124
v 0.2941941738958308 0.3642766944611717 -0.20580582477929993
v 0.4191941734064266 0.010723304560019964 -0.3308058272263207
v 0.23169417340642667 0.27588834646679233 -0.14330582575810819
v 0.3933058265935733 0.09911165353320767 -0.4816941742418918
v 0.20580582659357338 0.36427669543998004 -0.2941941727736793
v 0.3308058261041692 0.010723305538828248 -0.41919417522070007
v 0.14330582610416923 0.27588834744560065 -0.2316941737524876
v -0.4816941738958308 0.09911165255439938 -0.3933058262475124
v -0.2941941738958308 0.3642766944611717 -0.20580582477929993
v -0.4191941734064266 0.010723304560019964 -0.3308058272263207
v -0.23169417340642667 0.27588834646679233 -0.14330582575810819
v -0.3933058265935733 0.09911165353320767 -0.4816941742418918
v -0.20580582659357338 0.36427669543998004 -0.2941941727736793
v -0.3308058261041692 0.010723305538828248 -0.41919417522070007
v -0.14330582610416923 0.27588834744560065 -0.2316941737524876
vt 0.17768328125 0.84375
vt 0.266525 0.84375
vt 0.266525 1
vt 0.17768328125 1
vt 0 0.6875
vt 0.08884171875 0.6875
vt 0.08884171875 0.84375
vt 0 0.84375
vt 0.08884171875 0.6875
vt 0.17768328125 0.6875
vt 0.17768328125 0.84375
vt 0.08884171875 0.84375
vt 0.17768328125 0.6875
vt 0.266525 0.6875
vt 0.266525 0.84375
vt 0.17768328125 0.84375
vt 0.265625 0.84375
vt 0.35446671875 0.84375
vt 0.35446671875 1
vt 0.265625 1
vt 0.35446671875 0.84375
vt 0.44330828125 0.84375
vt 0.44330828125 1
vt 0.35446671875 1
vt 0.44330828125 0.84375
vt 0.53215 0.84375
vt 0.53215 1
vt 0.44330828125 1
vt 0.264725 0.6875
vt 0.35356671875 0.6875
vt 0.35356671875 0.84375
vt 0.264725 0.84375
vt 0.35356671875 0.6875
vt 0.44240828125 0.6875
vt 0.44240828125 0.84375
vt 0.35356671875 0.84375
vt 0.44240828125 0.6875
vt 0.53125 0.6875
vt 0.53125 0.84375
vt 0.44240828125 0.84375
vt 0 0.84375
vt 0.08884171875 0.84375
vt 0.08884171875 1
vt 0 1
vt 0.08884171875 0.84375
vt 0.17768328125 0.84375
vt 0.17768328125 1
vt 0.08884171875 1
vt 0.375 0.609375
vt 0.125 0.609375
vt 0.125 0.578125
vt 0.375 0.578125
vt 0.375 0.53125
vt 0.375 0.5625
vt 0.125 0.5625
vt 0.125 0.53125
vt 0.015625 0.0625
vt 0.265625 0.0625
vt 0.265625 0.3125
vt 0.015625 0.3125
vt 0.265625 0.0625
vt 0.265625 0.3125
vt 0.015625 0.3125
vt 0.015625 0.0625
vt 0.375 0.484375
vt 0.375 0.515625
vt 0.125 0.515625
vt 0.125 0.484375
vt 0.375 0.46875
vt 0.125 0.46875
vt 0.125 0.4375
vt 0.375 0.4375
vt 0.487440625 0.11244062499999996
vt 0.465684375 0.125
vt 0.453125 0.078125
vt 0.3578421875 0.03125
vt 0.3704015625 0.03125
vt 0.3704015625 0.28125
vt 0.3578421875 0.28125
vt 0.465684375 0.03125
vt 0.487440625 0.04380937500000004
vt 0.453125 0.078125
vt 0.5 0.09068437500000004
vt 0.487440625 0.11244062499999996
vt 0.453125 0.078125
vt 0.33272265625 0.03125
vt 0.34528203125 0.03125
vt 0.34528203125 0.28125
vt 0.33272265625 0.28125
vt 0.487440625 0.04380937500000004
vt 0.5 0.06556562499999996
vt 0.453125 0.078125
vt 0.5 0.06556562499999996
vt 0.5 0.09068437500000004
vt 0.453125 0.078125
vt 0.34528203125 0.03125
vt 0.35784140625 0.03125
vt 0.35784140625 0.28125
vt 0.34528203125 0.28125
vt 0.5 0.06556562499999996
vt 0.5 0.09068437500000004
vt 0.453125 0.078125
vt 0.487440625 0.04380937500000004
vt 0.5 0.06556562499999996
vt 0.453125 0.078125
vt 0.35784140625 0.03125
vt 0.37040234375 0.03125
vt 0.37040234375 0.28125
vt 0.35784140625 0.28125
vt 0.5 0.09068437500000004
vt 0.487440625 0.11244062499999996
vt 0.453125 0.078125
vt 0.465684375 0.03125
vt 0.487440625 0.04380937500000004
vt 0.453125 0.078125
vt 0.3327234375 0.03125
vt 0.3452828125 0.03125
vt 0.3452828125 0.28125
vt 0.3327234375 0.28125
vt 0.487440625 0.11244062499999996
vt 0.465684375 0.125
vt 0.453125 0.078125
vt 0.440565625 0.03125
vt 0.465684375 0.03125
vt 0.453125 0.078125
vt 0.3452828125 0.03125
vt 0.3578421875 0.03125
vt 0.3578421875 0.28125
vt 0.3452828125 0.28125
vt 0.465684375 0.125
vt 0.440565625 0.125
vt 0.453125 0.078125
vt 0.418809375 0.04380937500000004
vt 0.440565625 0.03125
vt 0.453125 0.078125
vt 0.3578421875 0.03125
vt 0.3704015625 0.03125
vt 0.3704015625 0.28125
vt 0.3578421875 0.28125
vt 0.440565625 0.125
vt 0.418809375 0.11244062499999996
vt 0.453125 0.078125
vt 0.40625 0.06556562499999996
vt 0.418809375 0.04380937500000004
vt 0.453125 0.078125
vt 0.33272265625 0.03125
vt 0.34528359375 0.03125
vt 0.34528359375 0.28125
vt 0.33272265625 0.28125
vt 0.418809375 0.11244062499999996
vt 0.40625 0.09068437500000004
vt 0.453125 0.078125
vt 0.40625 0.09068437500000004
vt 0.40625 0.06556562499999996
vt 0.453125 0.078125
vt 0.34528359375 0.03125
vt 0.35784296875 0.03125
vt 0.35784296875 0.28125
vt 0.34528359375 0.28125
vt 0.40625 0.09068437500000004
vt 0.40625 0.06556562499999996
vt 0.453125 0.078125
vt 0.418809375 0.11244062499999996
vt 0.40625 0.09068437500000004
vt 0.453125 0.078125
vt 0.35784296875 0.03125
vt 0.37040234375 0.03125
vt 0.37040234375 0.28125
vt 0.35784296875 0.28125
vt 0.40625 0.06556562499999996
vt 0.418809375 0.04380937500000004
vt 0.453125 0.078125
vt 0.440565625 0.125
vt 0.418809375 0.11244062499999996
vt 0.453125 0.078125
vt 0.3327234375 0.03125
vt 0.3452828125 0.03125
vt 0.3452828125 0.28125
vt 0.3327234375 0.28125
vt 0.418809375 0.04380937500000004
vt 0.440565625 0.03125
vt 0.453125 0.078125
vt 0.465684375 0.125
vt 0.440565625 0.125
vt 0.453125 0.078125
vt 0.3452828125 0.03125
vt 0.3578421875 0.03125
vt 0.3578421875 0.28125
vt 0.3452828125 0.28125
vt 0.440565625 0.03125
vt 0.465684375 0.03125
vt 0.453125 0.078125
vt 0.5390625 0.59375
vt 0.59375 0.59375
vt 0.56640625 0.6875
vt 0.5388290625 0.59375
vt 0.51875 0.49532343749999996
vt 0.6137625 0.49532343749999996
vt 0.5936834375 0.59375
vt 0.5186740625 0.49531250000000004
vt 0.511328125 0.41135625
vt 0.621003125 0.41135625
vt 0.6136571875 0.49531250000000004
vt 0.5390625 0.59375
vt 0.59375 0.59375
vt 0.56640625 0.6875
vt 0.5388290625 0.59375
vt 0.51875 0.49532343749999996
vt 0.6137625 0.49532343749999996
vt 0.5936834375 0.59375
vt 0.5186740625 0.49531250000000004
vt 0.511328125 0.41135625
vt 0.621003125 0.41135625
vt 0.6136571875 0.49531250000000004
vt 0.5390625 0.59375
vt 0.59375 0.59375
vt 0.56640625 0.6875
vt 0.5388290625 0.59375
vt 0.51875 0.49532343749999996
vt 0.6137625 0.49532343749999996
vt 0.5936834375 0.59375
vt 0.5186740625 0.49531250000000004
vt 0.511328125 0.41135625
vt 0.621003125 0.41135625
vt 0.6136571875 0.49531250000000004
vt 0.5390625 0.59375
vt 0.59375 0.59375
vt 0.56640625 0.6875
vt 0.5388290625 0.59375
vt 0.51875 0.49532343749999996
vt 0.6137625 0.49532343749999996
vt 0.5936834375 0.59375
vt 0.5186740625 0.49531250000000004
vt 0.511328125 0.41135625
vt 0.621003125 0.41135625
vt 0.6136571875 0.49531250000000004
vt 0.5390625 0.59375
vt 0.59375 0.59375
vt 0.56640625 0.6875
vt 0.5388290625 0.59375
vt 0.51875 0.49532343749999996
vt 0.6137625 0.49532343749999996
vt 0.5936834375 0.59375
vt 0.5186740625 0.49531250000000004
vt 0.511328125 0.41135625
vt 0.621003125 0.41135625
vt 0.6136571875 0.49531250000000004
vt 0.5390625 0.59375
vt 0.59375 0.59375
vt 0.56640625 0.6875
vt 0.5388290625 0.59375
vt 0.51875 0.49532343749999996
vt 0.6137625 0.49532343749999996
vt 0.5936834375 0.59375
vt 0.5186740625 0.49531250000000004
vt 0.511328125 0.41135625
vt 0.621003125 0.41135625
vt 0.6136571875 0.49531250000000004
vt 0.5390625 0.59375
vt 0.59375 0.59375
vt 0.56640625 0.6875
vt 0.5388290625 0.59375
vt 0.51875 0.49532343749999996
vt 0.6137625 0.49532343749999996
vt 0.5936834375 0.59375
vt 0.5186740625 0.49531250000000004
vt 0.511328125 0.41135625
vt 0.621003125 0.41135625
vt 0.6136571875 0.49531250000000004
vt 0.5390625 0.59375
vt 0.59375 0.59375
vt 0.56640625 0.6875
vt 0.5388290625 0.59375
vt 0.51875 0.49532343749999996
vt 0.6137625 0.49532343749999996
vt 0.5936834375 0.59375
vt 0.5186740625 0.49531250000000004
vt 0.511328125 0.41135625
vt 0.621003125 0.41135625
vt 0.6136571875 0.49531250000000004
vt 0.5390625 0.59375
vt 0.59375 0.59375
vt 0.56640625 0.6875
vt 0.5388290625 0.59375
vt 0.51875 0.49532343749999996
vt 0.6137625 0.49532343749999996
vt 0.5936834375 0.59375
vt 0.5186740625 0.49531250000000004
vt 0.511328125 0.41135625
vt 0.621003125 0.41135625
vt 0.6136571875 0.49531250000000004
vt 0.5390625 0.59375
vt 0.59375 0.59375
vt 0.56640625 0.6875
vt 0.5388290625 0.59375
vt 0.51875 0.49532343749999996
vt 0.6137625 0.49532343749999996
vt 0.5936834375 0.59375
vt 0.5186740625 0.49531250000000004
vt 0.511328125 0.41135625
vt 0.621003125 0.41135625
vt 0.6136571875 0.49531250000000004
vt 0.5390625 0.59375
vt 0.59375 0.59375
vt 0.56640625 0.6875
vt 0.5388290625 0.59375
vt 0.51875 0.49532343749999996
vt 0.6137625 0.49532343749999996
vt 0.5936834375 0.59375
vt 0.5186740625 0.49531250000000004
vt 0.511328125 0.41135625
vt 0.621003125 0.41135625
vt 0.6136571875 0.49531250000000004
vt 0.5390625 0.59375
vt 0.59375 0.59375
vt 0.56640625 0.6875
vt 0.5388290625 0.59375
vt 0.51875 0.49532343749999996
vt 0.6137625 0.49532343749999996
vt 0.5936834375 0.59375
vt 0.5186740625 0.49531250000000004
vt 0.511328125 0.41135625
vt 0.621003125 0.41135625
vt 0.6136571875 0.49531250000000004
vt 0.5390625 0.59375
vt 0.59375 0.59375
vt 0.56640625 0.6875
vt 0.5388290625 0.59375
vt 0.51875 0.49532343749999996
vt 0.6137625 0.49532343749999996
vt 0.5936834375 0.59375
vt 0.5186740625 0.49531250000000004
vt 0.511328125 0.41135625
vt 0.621003125 0.41135625
vt 0.6136571875 0.49531250000000004
vt 0.5390625 0.59375
vt 0.59375 0.59375
vt 0.56640625 0.6875
vt 0.5388290625 0.59375
vt 0.51875 0.49532343749999996
vt 0.6137625 0.49532343749999996
vt 0.5936834375 0.59375
vt 0.5186740625 0.49531250000000004
vt 0.511328125 0.41135625
vt 0.621003125 0.41135625
vt 0.6136571875 0.49531250000000004
vt 0.5390625 0.59375
vt 0.59375 0.59375
vt 0.56640625 0.6875
vt 0.5388290625 0.59375
vt 0.51875 0.49532343749999996
vt 0.6137625 0.49532343749999996
vt 0.5936834375 0.59375
vt 0.5186740625 0.49531250000000004
vt 0.511328125 0.41135625
vt 0.621003125 0.41135625
vt 0.6136571875 0.49531250000000004
vt 0.5390625 0.59375
vt 0.59375 0.59375
vt 0.56640625 0.6875
vt 0.5388290625 0.59375
vt 0.51875 0.49532343749999996
vt 0.6137625 0.49532343749999996
vt 0.5936834375 0.59375
vt 0.5186740625 0.49531250000000004
vt 0.511328125 0.41135625
vt 0.621003125 0.41135625
vt 0.6136571875 0.49531250000000004
vt 0.5390625 0.59375
vt 0.59375 0.59375
vt 0.56640625 0.6875
vt 0.5388290625 0.59375
vt 0.51875 0.49532343749999996
vt 0.6137625 0.49532343749999996
vt 0.5936834375 0.59375
vt 0.5186740625 0.49531250000000004
vt 0.511328125 0.41135625
vt 0.621003125 0.41135625
vt 0.6136571875 0.49531250000000004
vt 0.5390625 0.59375
vt 0.59375 0.59375
vt 0.56640625 0.6875
vt 0.5388290625 0.59375
vt 0.51875 0.49532343749999996
vt 0.6137625 0.49532343749999996
vt 0.5936834375 0.59375
vt 0.5186740625 0.49531250000000004
vt 0.511328125 0.41135625
vt 0.621003125 0.41135625
vt 0.6136571875 0.49531250000000004
vt 0.5390625 0.59375
vt 0.59375 0.59375
vt 0.56640625 0.6875
vt 0.5388290625 0.59375
vt 0.51875 0.49532343749999996
vt 0.6137625 0.49532343749999996
vt 0.5936834375 0.59375
vt 0.5186740625 0.49531250000000004
vt 0.511328125 0.41135625
vt 0.621003125 0.41135625
vt 0.6136571875 0.49531250000000004
vt 0.5390625 0.59375
vt 0.59375 0.59375
vt 0.56640625 0.6875
vt 0.5388290625 0.59375
vt 0.51875 0.49532343749999996
vt 0.6137625 0.49532343749999996
vt 0.5936834375 0.59375
vt 0.5186740625 0.49531250000000004
vt 0.511328125 0.41135625
vt 0.621003125 0.41135625
vt 0.6136571875 0.49531250000000004
vt 0.5390625 0.59375
vt 0.59375 0.59375
vt 0.56640625 0.6875
vt 0.5388290625 0.59375
vt 0.51875 0.49532343749999996
vt 0.6137625 0.49532343749999996
vt 0.5936834375 0.59375
vt 0.5186740625 0.49531250000000004
vt 0.511328125 0.41135625
vt 0.621003125 0.41135625
vt 0.6136571875 0.49531250000000004
vt 0.5390625 0.59375
vt 0.59375 0.59375
vt 0.56640625 0.6875
vt 0.5388290625 0.59375
vt 0.51875 0.49532343749999996
vt 0.6137625 0.49532343749999996
vt 0.5936834375 0.59375
vt 0.5186740625 0.49531250000000004
vt 0.511328125 0.41135625
vt 0.621003125 0.41135625
vt 0.6136571875 0.49531250000000004
vt 0.5390625 0.59375
vt 0.59375 0.59375
vt 0.56640625 0.6875
vt 0.5388290625 0.59375
vt 0.51875 0.49532343749999996
vt 0.6137625 0.49532343749999996
vt 0.5936834375 0.59375
vt 0.5186740625 0.49531250000000004
vt 0.511328125 0.41135625
vt 0.621003125 0.41135625
vt 0.6136571875 0.49531250000000004
vt 0.5390625 0.59375
vt 0.59375 0.59375
vt 0.56640625 0.6875
vt 0.5388290625 0.59375
vt 0.51875 0.49532343749999996
vt 0.6137625 0.49532343749999996
vt 0.5936834375 0.59375
vt 0.5186740625 0.49531250000000004
vt 0.511328125 0.41135625
vt 0.621003125 0.41135625
vt 0.6136571875 0.49531250000000004
vt 0.487440625 0.11244062499999996
vt 0.465684375 0.125
vt 0.453125 0.078125
vt 0.3578421875 0.03125
vt 0.3704015625 0.03125
vt 0.3704015625 0.28125
vt 0.3578421875 0.28125
vt 0.465684375 0.03125
vt 0.487440625 0.04380937500000004
vt 0.453125 0.078125
vt 0.5 0.09068437500000004
vt 0.487440625 0.11244062499999996
vt 0.453125 0.078125
vt 0.33272265625 0.03125
vt 0.34528203125 0.03125
vt 0.34528203125 0.28125
vt 0.33272265625 0.28125
vt 0.487440625 0.04380937500000004
vt 0.5 0.06556562499999996
vt 0.453125 0.078125
vt 0.5 0.06556562499999996
vt 0.5 0.09068437500000004
vt 0.453125 0.078125
vt 0.34528203125 0.03125
vt 0.35784140625 0.03125
vt 0.35784140625 0.28125
vt 0.34528203125 0.28125
vt 0.5 0.06556562499999996
vt 0.5 0.09068437500000004
vt 0.453125 0.078125
vt 0.487440625 0.04380937500000004
vt 0.5 0.06556562499999996
vt 0.453125 0.078125
vt 0.35784140625 0.03125
vt 0.37040234375 0.03125
vt 0.37040234375 0.28125
vt 0.35784140625 0.28125
vt 0.5 0.09068437500000004
vt 0.487440625 0.11244062499999996
vt 0.453125 0.078125
vt 0.465684375 0.03125
vt 0.487440625 0.04380937500000004
vt 0.453125 0.078125
vt 0.3327234375 0.03125
vt 0.3452828125 0.03125
vt 0.3452828125 0.28125
vt 0.3327234375 0.28125
vt 0.487440625 0.11244062499999996
vt 0.465684375 0.125
vt 0.453125 0.078125
vt 0.440565625 0.03125
vt 0.465684375 0.03125
vt 0.453125 0.078125
vt 0.3452828125 0.03125
vt 0.3578421875 0.03125
vt 0.3578421875 0.28125
vt 0.3452828125 0.28125
vt 0.465684375 0.125
vt 0.440565625 0.125
vt 0.453125 0.078125
vt 0.418809375 0.04380937500000004
vt 0.440565625 0.03125
vt 0.453125 0.078125
vt 0.3578421875 0.03125
vt 0.3704015625 0.03125
vt 0.3704015625 0.28125
vt 0.3578421875 0.28125
vt 0.440565625 0.125
vt 0.418809375 0.11244062499999996
vt 0.453125 0.078125
vt 0.40625 0.06556562499999996
vt 0.418809375 0.04380937500000004
vt 0.453125 0.078125
vt 0.33272265625 0.03125
vt 0.34528359375 0.03125
vt 0.34528359375 0.28125
vt 0.33272265625 0.28125
vt 0.418809375 0.11244062499999996
vt 0.40625 0.09068437500000004
vt 0.453125 0.078125
vt 0.40625 0.09068437500000004
vt 0.40625 0.06556562499999996
vt 0.453125 0.078125
vt 0.34528359375 0.03125
vt 0.35784296875 0.03125
vt 0.35784296875 0.28125
vt 0.34528359375 0.28125
vt 0.40625 0.09068437500000004
vt 0.40625 0.06556562499999996
vt 0.453125 0.078125
vt 0.418809375 0.11244062499999996
vt 0.40625 0.09068437500000004
vt 0.453125 0.078125
vt 0.35784296875 0.03125
vt 0.37040234375 0.03125
vt 0.37040234375 0.28125
vt 0.35784296875 0.28125
vt 0.40625 0.06556562499999996
vt 0.418809375 0.04380937500000004
vt 0.453125 0.078125
vt 0.440565625 0.125
vt 0.418809375 0.11244062499999996
vt 0.453125 0.078125
vt 0.3327234375 0.03125
vt 0.3452828125 0.03125
vt 0.3452828125 0.28125
vt 0.3327234375 0.28125
vt 0.418809375 0.04380937500000004
vt 0.440565625 0.03125
vt 0.453125 0.078125
vt 0.465684375 0.125
vt 0.440565625 0.125
vt 0.453125 0.078125
vt 0.3452828125 0.03125
vt 0.3578421875 0.03125
vt 0.3578421875 0.28125
vt 0.3452828125 0.28125
vt 0.440565625 0.03125
vt 0.465684375 0.03125
vt 0.453125 0.078125
vt 0.109375 0.359375
vt 0.015625 0.359375
vt 0.015625 0.328125
vt 0.109375 0.328125
vt 0.109375 0.359375
vt 0.109375 0.390625
vt 0.015625 0.390625
vt 0.015625 0.359375
vt 0.125 0.328125
vt 0.15625 0.328125
vt 0.15625 0.421875
vt 0.125 0.421875
vt 0.375 0.328125
vt 0.375 0.421875
vt 0.34375 0.421875
vt 0.34375 0.328125
vt 0.109375 0.515625
vt 0.109375 0.546875
vt 0.015625 0.546875
vt 0.015625 0.515625
vt 0.109375 0.515625
vt 0.015625 0.515625
vt 0.015625 0.484375
vt 0.109375 0.484375
vt 0.3125 0.421875
vt 0.3125 0.328125
vt 0.34375 0.328125
vt 0.34375 0.421875
vt 0.3125 0.421875
vt 0.28125 0.421875
vt 0.28125 0.328125
vt 0.3125 0.328125
vt 0.109375 0.421875
vt 0.109375 0.453125
vt 0.015625 0.453125
vt 0.015625 0.421875
vt 0.109375 0.421875
vt 0.015625 0.421875
vt 0.015625 0.390625
vt 0.109375 0.390625
vt 0.28125 0.328125
vt 0.28125 0.421875
vt 0.25 0.421875
vt 0.25 0.328125
vt 0.21875 0.328125
vt 0.25 0.328125
vt 0.25 0.421875
vt 0.21875 0.421875
vt 0.109375 0.484375
vt 0.015625 0.484375
vt 0.015625 0.453125
vt 0.109375 0.453125
vt 0.109375 0.546875
vt 0.109375 0.578125
vt 0.015625 0.578125
vt 0.015625 0.546875
vt 0.21875 0.421875
vt 0.1875 0.421875
vt 0.1875 0.328125
vt 0.21875 0.328125
vt 0.15625 0.421875
vt 0.15625 0.328125
vt 0.1875 0.328125
vt 0.1875 0.421875
vn 0.5000004248969577 0 0.866025158469927
vn 0.866025158469927 0 0.5000004248969577
vn 1 0 0
vn 0.866025158469927 0 -0.5000004248969577
vn 0.5000004248969577 0 -0.866025158469927
vn 0 0 -1
vn -0.5000004248969577 0 -0.866025158469927
vn -0.866025158469927 0 -0.5000004248969577
vn -1 0 0
vn -0.866025158469927 0 0.5000004248969577
vn -0.5000004248969577 0 0.866025158469927
vn 0 0 1
vn 1 0 0
vn -1 0 0
vn 0 1 0
vn 0 -1 0
vn 0 0 1
vn 0 0 -1
vn 0 0 -1
vn 0.49999238346988656 -0.8660298011454929 1.899051309626378e-16
vn 0 0 1
vn 0 0 -1
vn 0.8660298011454927 -0.49999238346988695 1.1221666829610411e-16
vn 0 0 1
vn 0 0 -1
vn 1 0 0
vn 0 0 1
vn 0 0 -1
vn 0.8660298011454924 0.49999238346988745 -1.079006425924079e-16
vn -2.9605463955996126e-16 1.1049013717653796e-15 1
vn 0 0 -1
vn 0.4999923834698874 0.8660298011454924 -1.8990513096263767e-16
vn 2.9605463955996096e-16 5.127920926454571e-16 1
vn 0 0 -1
vn 0 1 -2.220446049250313e-16
vn 0 5.921189464667502e-16 1
vn 0 0 -1
vn -0.4999923834698874 0.8660298011454924 -1.9422115666633398e-16
vn -2.9605463955996096e-16 5.127920926454571e-16 1
vn 0 0 -1
vn -0.8660298011454924 0.49999238346988745 -1.122166682961042e-16
vn 2.9605463955996126e-16 1.1049013717653796e-15 1
vn 0 0 -1
vn -1 0 0
vn 0 0 1
vn 0 0 -1
vn -0.8660298011454927 -0.49999238346988695 1.1221666829610411e-16
vn 0 0 1
vn 0 0 -1
vn -0.49999238346988656 -0.8660298011454929 1.942211566663341e-16
vn 0 0 1
vn 0 0 -1
vn 0 -1 2.220446049250313e-16
vn 0 0 1
vn 0 -1 0
vn -0.27735023738788234 -0.8320497943827617 0.48038524695132917
vn -0.4529725924594995 -0.42339664244579506 0.7845706556111742
vn 0 -1 0
vn -0.4803850080534597 -0.8320499782866684 0.2773500994602894
vn -0.7845711336900931 -0.42339546124436117 0.4529728684788049
vn 0 -1 0
vn -0.5547008956720616 -0.8320498280395309 0
vn -0.905944553062623 -0.4233963471455137 0
vn 0 -1 0
vn -0.48038524695132917 -0.8320497943827617 -0.27735023738788234
vn -0.7845706556111741 -0.4233966424457952 -0.45297259245949956
vn 0 -1 0
vn -0.2773500994602894 -0.8320499782866683 -0.4803850080534597
vn -0.4529728684788048 -0.42339546124436117 -0.7845711336900932
vn 0 -1 0
vn 0 -0.8320498280395309 -0.5547008956720617
vn 0 -0.42339634714551355 -0.905944553062623
vn 0 -1 0
vn 0.27735023738788245 -0.8320497943827617 -0.48038524695132934
vn 0.45297259245949967 -0.42339664244579506 -0.7845706556111741
vn 0 -1 0
vn 0.48038500805345974 -0.8320499782866682 -0.27735009946028943
vn 0.7845711336900932 -0.42339546124436095 -0.452972868478805
vn 0 -1 0
vn 0.5547008956720617 -0.8320498280395306 0
vn 0.9059445530626231 -0.4233963471455134 0
vn 0 -1 0
vn 0.4803852469513292 -0.8320497943827615 0.2773502373878824
vn 0.7845706556111742 -0.4233966424457949 0.45297259245949956
vn 0 -1 0
vn 0.27735009946028943 -0.8320499782866682 0.48038500805345974
vn 0.452972868478805 -0.42339546124436095 0.7845711336900932
vn 0 -1 0
vn 0 -0.8320498280395309 0.5547008956720617
vn 0 -0.42339634714551355 0.905944553062623
vn 0 1 0
vn -0.27735023738788245 0.8320497943827617 -0.4803852469513293
vn -0.4529725924594998 0.4233966424457951 -0.7845706556111742
vn 0 1 0
vn -0.48038500805345974 0.8320499782866682 -0.27735009946028943
vn -0.7845711336900932 0.4233954612443608 -0.45297286847880514
vn 0 1 0
vn -0.5547008956720617 0.8320498280395306 0
vn -0.905944553062623 0.42339634714551355 0
vn 0 1 0
vn -0.4803852469513293 0.8320497943827617 0.27735023738788245
vn -0.7845706556111742 0.42339664244579506 0.45297259245949956
vn 0 1 0
vn -0.2773500994602894 0.8320499782866683 0.4803850080534597
vn -0.4529728684788049 0.42339546124436106 0.7845711336900933
vn 0 1 0
vn 0 0.8320498280395309 0.5547008956720616
vn 0 0.42339634714551355 0.905944553062623
vn 0 1 0
vn 0.2773502373878823 0.8320497943827618 0.4803852469513291
vn 0.4529725924594994 0.42339664244579506 0.7845706556111742
vn 0 1 0
vn 0.4803850080534597 0.8320499782866684 0.2773500994602894
vn 0.7845711336900933 0.4233954612443614 0.4529728684788047
vn 0 1 0
vn 0.5547008956720616 0.8320498280395309 0
vn 0.905944553062623 0.42339634714551355 0
vn 0 1 0
vn 0.4803852469513293 0.8320497943827617 -0.2773502373878824
vn 0.7845706556111742 0.42339664244579506 -0.45297259245949956
vn 0 1 0
vn 0.27735009946028943 0.8320499782866682 -0.48038500805345974
vn 0.4529728684788049 0.42339546124436106 -0.7845711336900933
vn 0 1 0
vn 0 0.8320498280395306 -0.5547008956720617
vn 0 0.42339634714551355 -0.905944553062623
vn -1 0 0
vn 1.1221666829610414e-16 -0.8660298011454931 -0.4999923834698865
vn 1 0 0
vn -1 0 0
vn 1.9422115666633403e-16 -0.4999923834698872 -0.8660298011454927
vn 1 0 0
vn -1 0 0
vn 2.220446049250313e-16 0 -1
vn 1 0 0
vn -1 0 0
vn 1.9422115666633425e-16 0.4999923834698872 -0.8660298011454926
vn 1 0 0
vn -1 0 0
vn 1.0790064259240777e-16 0.8660298011454924 -0.4999923834698874
vn 1 0 0
vn -1 0 0
vn 0 1 0
vn 1 0 0
vn -1 0 0
vn -1.1221666829610406e-16 0.8660298011454927 0.49999238346988734
vn 1 0 0
vn -1 0 0
vn -1.899051309626379e-16 0.49999238346988767 0.8660298011454923
vn 1 0 0
vn -1 0 0
vn -2.220446049250313e-16 0 1
vn 1 0 0
vn -1 0 0
vn -1.9422115666633425e-16 -0.4999923834698872 0.8660298011454926
vn 1 0 0
vn -1 0 0
vn -1.122166682961041e-16 -0.8660298011454924 0.4999923834698874
vn 1 0 0
vn -1 0 0
vn 0 -1 0
vn 1 0 0
vn 0.7071067784180597 -7.830466423423369e-9 -0.7071067839550353
vn -0.7071067784180599 7.83046629389735e-9 0.7071067839550352
vn 0.5000000039152329 0.7071067839550355 0.4999999921695339
vn -0.500000003915233 -0.7071067839550355 -0.4999999921695339
vn -0.7071067784180597 -7.830466441927086e-9 -0.7071067839550355
vn 0.7071067784180599 7.830466275393631e-9 0.7071067839550352
vn -0.500000003915233 0.7071067839550356 0.4999999921695339
vn 0.5000000039152331 -0.7071067839550353 -0.4999999921695338
vn 0.7071067784180597 -7.830466441927086e-9 0.7071067839550355
vn -0.7071067784180599 7.830466275393631e-9 -0.7071067839550352
vn 0.500000003915233 0.7071067839550356 -0.4999999921695339
vn -0.5000000039152331 -0.7071067839550353 0.4999999921695338
vn -0.7071067784180597 -7.830466423423369e-9 0.7071067839550353
vn 0.7071067784180599 7.83046629389735e-9 -0.7071067839550352
vn -0.5000000039152329 0.7071067839550355 -0.4999999921695339
vn 0.500000003915233 -0.7071067839550355 0.4999999921695339
usemtl m_d649a53a-eac8-9fe8-ff3a-ea9f2202b056
f 1/1/1 3/2/1 4/3/1 2/4/1
f 3/5/2 5/6/2 6/7/2 4/8/2
f 5/9/3 7/10/3 8/11/3 6/12/3
f 7/13/4 9/14/4 10/15/4 8/16/4
f 9/17/5 11/18/5 12/19/5 10/20/5
f 11/21/6 13/22/6 14/23/6 12/24/6
f 13/25/7 15/26/7 16/27/7 14/28/7
f 15/29/8 17/30/8 18/31/8 16/32/8
f 17/33/9 19/34/9 20/35/9 18/36/9
f 19/37/10 21/38/10 22/39/10 20/40/10
f 21/41/11 23/42/11 24/43/11 22/44/11
f 23/45/12 1/46/12 2/47/12 24/48/12
f 26/49/13 25/50/13 27/51/13 28/52/13
f 31/53/14 29/54/14 30/55/14 32/56/14
f 29/57/15 25/58/15 26/59/15 30/60/15
f 28/61/16 27/62/16 31/63/16 32/64/16
f 27/65/17 25/66/17 29/67/17 31/68/17
f 30/69/18 26/70/18 28/71/18 32/72/18
f 38/73/19 36/74/19 34/75/19
f 36/76/20 38/77/20 39/78/20 37/79/20
f 37/80/21 39/81/21 35/82/21
f 40/83/22 38/84/22 34/85/22
f 38/86/23 40/87/23 41/88/23 39/89/23
f 39/90/24 41/91/24 35/92/24
f 42/93/25 40/94/25 34/95/25
f 40/96/26 42/97/26 43/98/26 41/99/26
f 41/100/27 43/101/27 35/102/27
f 44/103/28 42/104/28 34/105/28
f 42/106/29 44/107/29 33/108/29 43/109/29
f 43/110/30 33/111/30 35/112/30
f 45/113/31 44/114/31 34/115/31
f 44/116/32 45/117/32 46/118/32 33/119/32
f 33/120/33 46/121/33 35/122/33
f 47/123/34 45/124/34 34/125/34
f 45/126/35 47/127/35 48/128/35 46/129/35
f 46/130/36 48/131/36 35/132/36
f 49/133/37 47/134/37 34/135/37
f 47/136/38 49/137/38 50/138/38 48/139/38
f 48/140/39 50/141/39 35/142/39
f 51/143/40 49/144/40 34/145/40
f 49/146/41 51/147/41 52/148/41 50/149/41
f 50/150/42 52/151/42 35/152/42
f 53/153/43 51/154/43 34/155/43
f 51/156/44 53/157/44 54/158/44 52/159/44
f 52/160/45 54/161/45 35/162/45
f 55/163/46 53/164/46 34/165/46
f 53/166/47 55/167/47 56/168/47 54/169/47
f 54/170/48 56/171/48 35/172/48
f 57/173/49 55/174/49 34/175/49
f 55/176/50 57/177/50 58/178/50 56/179/50
f 56/180/51 58/181/51 35/182/51
f 36/183/52 57/184/52 34/185/52
f 57/186/53 36/187/53 37/188/53 58/189/53
f 58/190/54 37/191/54 35/192/54
f 60/193/55 63/194/55 59/195/55
f 60/196/56 61/197/56 64/198/56 63/199/56
f 61/200/57 62/201/57 65/202/57 64/203/57
f 63/204/58 66/205/58 59/206/58
f 63/207/59 64/208/59 67/209/59 66/210/59
f 64/211/60 65/212/60 68/213/60 67/214/60
f 66/215/61 69/216/61 59/217/61
f 66/218/62 67/219/62 70/220/62 69/221/62
f 67/222/63 68/223/63 71/224/63 70/225/63
f 69/226/64 72/227/64 59/228/64
f 69/229/65 70/230/65 73/231/65 72/232/65
f 70/233/66 71/234/66 74/235/66 73/236/66
f 72/237/67 75/238/67 59/239/67
f 72/240/68 73/241/68 76/242/68 75/243/68
f 73/244/69 74/245/69 77/246/69 76/247/69
f 75/248/70 78/249/70 59/250/70
f 75/251/71 76/252/71 79/253/71 78/254/71
f 76/255/72 77/256/72 80/257/72 79/258/72
f 78/259/73 81/260/73 59/261/73
f 78/262/74 79/263/74 82/264/74 81/265/74
f 79/266/75 80/267/75 83/268/75 82/269/75
f 81/270/76 84/271/76 59/272/76
f 81/273/77 82/274/77 85/275/77 84/276/77
f 82/277/78 83/278/78 86/279/78 85/280/78
f 84/281/79 87/282/79 59/283/79
f 84/284/80 85/285/80 88/286/80 87/287/80
f 85/288/81 86/289/81 89/290/81 88/291/81
f 87/292/82 90/293/82 59/294/82
f 87/295/83 88/296/83 91/297/83 90/298/83
f 88/299/84 89/300/84 92/301/84 91/302/84
f 90/303/85 93/304/85 59/305/85
f 90/306/86 91/307/86 94/308/86 93/309/86
f 91/310/87 92/311/87 95/312/87 94/313/87
f 93/314/88 60/315/88 59/316/88
f 93/317/89 94/318/89 61/319/89 60/320/89
f 94/321/90 95/322/90 62/323/90 61/324/90
f 97/325/91 100/326/91 96/327/91
f 97/328/92 98/329/92 101/330/92 100/331/92
f 98/332/93 99/333/93 102/334/93 101/335/93
f 100/336/94 103/337/94 96/338/94
f 100/339/95 101/340/95 104/341/95 103/342/95
f 101/343/96 102/344/96 105/345/96 104/346/96
f 103/347/97 106/348/97 96/349/97
f 103/350/98 104/351/98 107/352/98 106/353/98
f 104/354/99 105/355/99 108/356/99 107/357/99
f 106/358/100 109/359/100 96/360/100
f 106/361/101 107/362/101 110/363/101 109/364/101
f 107/365/102 108/366/102 111/367/102 110/368/102
f 109/369/103 112/370/103 96/371/103
f 109/372/104 110/373/104 113/374/104 112/375/104
f 110/376/105 111/377/105 114/378/105 113/379/105
f 112/380/106 115/381/106 96/382/106
f 112/383/107 113/384/107 116/385/107 115/386/107
f 113/387/108 114/388/108 117/389/108 116/390/108
f 115/391/109 118/392/109 96/393/109
f 115/394/110 116/395/110 119/396/110 118/397/110
f 116/398/111 117/399/111 120/400/111 119/401/111
f 118/402/112 121/403/112 96/404/112
f 118/405/113 119/406/113 122/407/113 121/408/113
f 119/409/114 120/410/114 123/411/114 122/412/114
f 121/413/115 124/414/115 96/415/115
f 121/416/116 122/417/116 125/418/116 124/419/116
f 122/420/117 123/421/117 126/422/117 125/423/117
f 124/424/118 127/425/118 96/426/118
f 124/427/119 125/428/119 128/429/119 127/430/119
f 125/431/120 126/432/120 129/433/120 128/434/120
f 127/435/121 130/436/121 96/437/121
f 127/438/122 128/439/122 131/440/122 130/441/122
f 128/442/123 129/443/123 132/444/123 131/445/123
f 130/446/124 97/447/124 96/448/124
f 130/449/125 131/450/125 98/451/125 97/452/125
f 131/453/126 132/454/126 99/455/126 98/456/126
f 138/457/127 136/458/127 134/459/127
f 136/460/128 138/461/128 139/462/128 137/463/128
f 137/464/129 139/465/129 135/466/129
f 140/467/130 138/468/130 134/469/130
f 138/470/131 140/471/131 141/472/131 139/473/131
f 139/474/132 141/475/132 135/476/132
f 142/477/133 140/478/133 134/479/133
f 140/480/134 142/481/134 143/482/134 141/483/134
f 141/484/135 143/485/135 135/486/135
f 144/487/136 142/488/136 134/489/136
f 142/490/137 144/491/137 133/492/137 143/493/137
f 143/494/138 133/495/138 135/496/138
f 145/497/139 144/498/139 134/499/139
f 144/500/140 145/501/140 146/502/140 133/503/140
f 133/504/141 146/505/141 135/506/141
f 147/507/142 145/508/142 134/509/142
f 145/510/143 147/511/143 148/512/143 146/513/143
f 146/514/144 148/515/144 135/516/144
f 149/517/145 147/518/145 134/519/145
f 147/520/146 149/521/146 150/522/146 148/523/146
f 148/524/147 150/525/147 135/526/147
f 151/527/148 149/528/148 134/529/148
f 149/530/149 151/531/149 152/532/149 150/533/149
f 150/534/150 152/535/150 135/536/150
f 153/537/151 151/538/151 134/539/151
f 151/540/152 153/541/152 154/542/152 152/543/152
f 152/544/153 154/545/153 135/546/153
f 155/547/154 153/548/154 134/549/154
f 153/550/155 155/551/155 156/552/155 154/553/155
f 154/554/156 156/555/156 135/556/156
f 157/557/157 155/558/157 134/559/157
f 155/560/158 157/561/158 158/562/158 156/563/158
f 156/564/159 158/565/159 135/566/159
f 136/567/160 157/568/160 134/569/160
f 157/570/161 136/571/161 137/572/161 158/573/161
f 158/574/162 137/575/162 135/576/162
f 160/577/163 159/578/163 161/579/163 162/580/163
f 165/581/164 163/582/164 164/583/164 166/584/164
f 163/585/165 159/586/165 160/587/165 164/588/165
f 162/589/166 161/590/166 165/591/166 166/592/166
f 169/593/167 167/594/167 168/595/167 170/596/167
f 172/597/168 171/598/168 173/599/168 174/600/168
f 168/601/169 167/602/169 171/603/169 172/604/169
f 173/605/170 169/606/170 170/607/170 174/608/170
f 177/609/171 175/610/171 176/611/171 178/612/171
f 180/613/172 179/614/172 181/615/172 182/616/172
f 176/617/173 175/618/173 179/619/173 180/620/173
f 181/621/174 177/622/174 178/623/174 182/624/174
f 184/625/175 183/626/175 185/627/175 186/628/175
f 189/629/176 187/630/176 188/631/176 190/632/176
f 187/633/177 183/634/177 184/635/177 188/636/177
f 186/637/178 185/638/178 189/639/178 190/640/178