# Made in Blockbench 5.1.6
mtllib chemical_plant_port.mtl

o cylinder
v -0.06863000000000007 0.63113 -0.4995087500000001
v -6.282874360048118e-17 0.5624999999999999 -0.49950875
v -0.02512 0.46875 0.000491249999999957
v -0.025120000000000062 0.4687499999999999 -0.49950875
v -0.06863000000000001 0.49387000000000003 0.000491249999999957
v -0.06863000000000007 0.49386999999999986 -0.49950875
v -0.09375000000000001 0.53738 0.000491249999999957
v -0.09375000000000007 0.5373799999999999 -0.49950875
v -0.09375000000000001 0.58762 0.0004912499999999431
v -0.09375000000000007 0.5876199999999998 -0.4995087500000001
v -0.06863000000000001 0.63113 0.0004912499999999292
v -0.02512 0.65625 0.0004912499999999154
v -0.025120000000000062 0.6562499999999999 -0.4995087500000001
v 0.02512 0.65625 0.0004912499999999154
v 0.025119999999999938 0.6562499999999999 -0.4995087500000001
v 0.06862999999999998 0.63113 0.0004912499999999015
v 0.06862999999999993 0.63113 -0.4995087500000001
v 0.09374999999999999 0.58762 0.0004912499999999154
v 0.09374999999999993 0.5876199999999998 -0.4995087500000001
v 0.09374999999999999 0.53738 0.0004912499999999292
v 0.09374999999999993 0.5373799999999999 -0.49950875
v 0.06862999999999998 0.49387 0.0004912499999999292
v 0.06862999999999993 0.49386999999999986 -0.49950875
v 0.02512 0.46875 0.000491249999999957
v 0.025119999999999938 0.4687499999999999 -0.49950875
v -0.11438312500000007 0.6768831249999998 -0.37450875000000006
v -4.7520658611139266e-17 0.5624999999999999 -0.37450875000000006
v -0.041866875000000026 0.40624999999999994 -0.23388375
v -0.041866875000000046 0.40624999999999994 -0.37450875
v -0.11438312500000006 0.44811687499999997 -0.23388375
v -0.11438312500000007 0.4481168749999999 -0.37450875
v -0.15625000000000003 0.520633125 -0.23388375000000006
v -0.15625000000000006 0.5206331249999998 -0.37450875000000006
v -0.15625000000000003 0.604366875 -0.23388375000000006
v -0.15625000000000006 0.604366875 -0.37450875000000006
v -0.11438312500000006 0.676883125 -0.23388375000000006
v -0.041866875000000026 0.71875 -0.2338837500000001
v -0.041866875000000046 0.7187499999999999 -0.3745087500000001
v 0.04186687499999997 0.71875 -0.2338837500000001
v 0.04186687499999995 0.7187499999999999 -0.3745087500000001
v 0.11438312499999995 0.676883125 -0.23388375000000006
v 0.11438312499999993 0.6768831249999998 -0.37450875000000006
v 0.15624999999999997 0.604366875 -0.23388375000000006
v 0.15624999999999994 0.604366875 -0.37450875000000006
v 0.15624999999999997 0.520633125 -0.23388375
v 0.15624999999999994 0.5206331249999998 -0.37450875000000006
v 0.11438312499999995 0.44811687499999997 -0.23388375
v 0.11438312499999993 0.4481168749999999 -0.37450875
v 0.04186687499999997 0.40624999999999994 -0.23388375
v 0.04186687499999995 0.40624999999999994 -0.37450875
v -0.18749999999999994 0.6875000000000002 0.40674124999999983
v -0.18749999999999994 0.6875000000000002 0.5004912499999997
v -0.18749999999999994 0.31250000000000017 0.40674125
v -0.18749999999999994 0.3125000000000002 0.5004912499999998
v 0.18750000000000006 0.6875000000000002 0.40674124999999994
v 0.18750000000000006 0.6875000000000002 0.5004912499999998
v 0.18750000000000006 0.31250000000000017 0.40674125
v 0.18750000000000006 0.3125000000000002 0.5004912499999999
v -0.06250000000000001 0.625 0.1879912499999999
v -0.06249999999999989 0.6250000000000002 0.46924124999999983
v -0.06250000000000001 0.3750000000000001 0.18799124999999997
v -0.06249999999999989 0.3750000000000002 0.46924125
v 0.0625 0.625 0.18799124999999983
v 0.0625 0.6250000000000002 0.46924124999999994
v 0.0625 0.3750000000000001 0.18799124999999994
v 0.0625 0.3750000000000002 0.46924125
v 0.375 0.6875 0.18799124999999978
v 0.5 0.6875 0.18799124999999978
v 0.375 0.3125000000000001 0.18799124999999994
v 0.5 0.3125000000000001 0.18799124999999994
v 0.37499999999999994 0.6875 -0.18700875000000022
v 0.49999999999999994 0.6875 -0.18700875000000017
v 0.37499999999999994 0.3124999999999999 -0.18700875000000006
v 0.49999999999999994 0.3124999999999999 -0.18700875000000006
v -0.37499999999999994 0.6875 0.18799124999999986
v -0.49999999999999994 0.6875 0.1879912499999999
v -0.37499999999999994 0.3125000000000001 0.18799125000000005
v -0.49999999999999994 0.3125000000000001 0.18799125000000005
v -0.3750000000000001 0.6875 -0.1870087500000001
v -0.5000000000000001 0.6875 -0.18700875000000006
v -0.3750000000000001 0.3124999999999999 -0.18700874999999995
v -0.5000000000000001 0.3124999999999999 -0.18700874999999995
v -0.06250000000000004 0.71875 -0.23388375000000022
v -0.06249999999999997 0.71875 0.23486624999999983
v -0.06250000000000004 0.2656249999999999 -0.23388375
v -0.06249999999999997 0.2656250000000001 0.23486625000000005
v 0.062499999999999965 0.71875 -0.23388375000000017
v 0.06250000000000003 0.71875 0.23486624999999983
v 0.062499999999999965 0.2656249999999999 -0.23388375
v 0.06250000000000003 0.2656250000000001 0.23486625000000005
v 0.4140625 0.8125 -0.23388375000000028
v 0.4140625 0.8125 0.23486624999999972
v 0.08593749999999996 0.8125 -0.23388375000000022
v 0.08593750000000003 0.8125 0.23486624999999978
v 0.4140625 0.1874999999999999 -0.23388375
v 0.4140625 0.18750000000000008 0.23486625
v 0.08593749999999996 0.1874999999999999 -0.2338837499999999
v 0.08593750000000003 0.18750000000000008 0.23486625000000005
v 0.03124999999999997 0.2656249999999999 -0.23388375
v 0.03124999999999997 0.734375 -0.23388375000000022
v 0.03125000000000003 0.2656250000000001 0.23486625000000005
v 0.03125000000000003 0.734375 0.23486624999999983
v 0.46875 0.2656249999999999 -0.23388375000000006
v 0.46875 0.734375 -0.23388375000000028
v 0.46875 0.2656250000000001 0.23486625
v 0.46875 0.734375 0.23486624999999978
v 0.41406250000000006 0.2656250000000001 0.31299124999999994
v 0.41406250000000006 0.7343750000000002 0.3129912499999998
v 0.08593750000000003 0.2656250000000001 0.31299125
v 0.08593750000000003 0.7343750000000002 0.31299124999999983
v 0.41406249999999994 0.2656249999999999 -0.31200875000000006
v 0.41406249999999994 0.7343749999999998 -0.3120087500000003
v 0.08593749999999997 0.2656249999999999 -0.31200875
v 0.08593749999999997 0.7343749999999998 -0.3120087500000002
v -0.4140625 0.8125 -0.23388375000000017
v -0.4140625 0.8125 0.23486624999999983
v -0.08593750000000004 0.8125 -0.23388375000000022
v -0.08593749999999997 0.8125 0.23486624999999978
v -0.4140625 0.1874999999999999 -0.23388374999999983
v -0.4140625 0.18750000000000008 0.2348662500000001
v -0.08593750000000004 0.1874999999999999 -0.23388374999999995
v -0.08593749999999997 0.18750000000000008 0.23486625000000005
v -0.031250000000000035 0.2656249999999999 -0.23388375
v -0.031250000000000035 0.734375 -0.23388375000000022
v -0.03124999999999998 0.2656250000000001 0.23486625000000005
v -0.03124999999999998 0.734375 0.23486624999999983
v -0.46875 0.2656249999999999 -0.23388374999999995
v -0.46875 0.734375 -0.23388375000000017
v -0.46875 0.2656250000000001 0.2348662500000001
v -0.46875 0.734375 0.2348662499999999
v -0.41406249999999994 0.2656250000000001 0.31299125000000005
v -0.41406249999999994 0.7343750000000002 0.3129912499999999
v -0.08593749999999997 0.2656250000000001 0.31299125
v -0.08593749999999997 0.7343750000000002 0.31299124999999983
v -0.41406250000000006 0.2656249999999999 -0.31200874999999995
v -0.41406250000000006 0.7343749999999998 -0.31200875000000017
v -0.08593750000000003 0.2656249999999999 -0.31200875
v -0.08593750000000003 0.7343749999999998 -0.3120087500000002
v 0.4816940327111105 0.09911204649621985 -0.3928147184771997
v 0.2941940327111105 0.3642770884029922 -0.2053147170089873
v 0.41919403222170637 0.010723698501840462 -0.33031471945600793
v 0.2316940322217064 0.27588874040861283 -0.1428147179877955
v 0.393305685408853 0.09911204747502814 -0.481203066471579
v 0.20580568540885305 0.3642770893818006 -0.29370306500336657
v 0.3308056849194489 0.010723699480648718 -0.41870306745038727
v 0.14330568491944895 0.27588874138742114 -0.23120306598217494
v 0.4816943167273078 0.09911204545803406 0.39379693397159615
v 0.29419431672730784 0.36427708736480635 0.2062969325033836
v 0.4191943162379036 0.010723697463654591 0.3312969349504044
v 0.23169431623790362 0.2758887393704269 0.14379693348219189
v 0.39330596942505036 0.0991120464368424 0.4821852819659755
v 0.20580596942505036 0.36427708834361466 0.294685280497763
v 0.3308059689356462 0.010723698442462959 0.41968528294478386
v 0.14330596893564623 0.2758887403492353 0.2321852814765713
v -0.5000000000000001 0.12499999999999978 -0.4995087499999998
v -0.49999999999999994 0.12500000000000022 0.50049125
v -0.5000000000000001 -2.220446049250313e-16 -0.49950874999999967
v -0.49999999999999994 2.220446049250313e-16 0.50049125
v 0.49999999999999994 0.12499999999999978 -0.4995087500000001
v 0.5 0.1250000000000002 0.5004912499999999
v 0.49999999999999994 -2.220446049250313e-16 -0.49950875
v 0.5 2.220446049250313e-16 0.50049125
v -0.4816940327111106 0.09911204649621985 -0.39281471847719945
v -0.2941940327111107 0.3642770884029922 -0.20531471700898707
v -0.4191940322217064 0.010723698501840462 -0.3303147194560077
v -0.23169403222170648 0.27588874040861283 -0.14281471798779544
v -0.39330568540885313 0.09911204747502814 -0.481203066471579
v -0.20580568540885322 0.3642770893818006 -0.29370306500336657
v -0.330805684919449 0.010723699480648718 -0.41870306745038716
v -0.143305684919449 0.27588874138742114 -0.23120306598217483
v -0.48169431672730767 0.09911204545803406 0.39379693397159626
v -0.2941943167273078 0.36427708736480635 0.20629693250338366
v -0.4191943162379036 0.010723697463654591 0.33129693495040463
v -0.23169431623790368 0.2758887393704269 0.14379693348219194
v -0.39330596942505025 0.0991120464368424 0.4821852819659757
v -0.2058059694250503 0.36427708834361466 0.29468528049776305
v -0.33080596893564607 0.010723698442462959 0.41968528294478397
v -0.14330596893564618 0.2758887403492353 0.23218528147657136
vt 0.0297171875 0.609375
vt 0.042278125 0.609375
vt 0.042278125 0.734375
vt 0.0297171875 0.734375
vt 0.2041040625 0.50625
vt 0.2193334375 0.5150415625
vt 0.1953125 0.5390625
vt 0.00459765625 0.609375
vt 0.01715859375 0.609375
vt 0.01715859375 0.734375
vt 0.00459765625 0.734375
vt 0.2193334375 0.5150415625
vt 0.228125 0.5302709375
vt 0.1953125 0.5390625
vt 0.01715859375 0.609375
vt 0.02971796875 0.609375
vt 0.02971796875 0.734375
vt 0.01715859375 0.734375
vt 0.228125 0.5302709375
vt 0.228125 0.5478540625
vt 0.1953125 0.5390625
vt 0.02971796875 0.609375
vt 0.04227734375 0.609375
vt 0.04227734375 0.734375
vt 0.02971796875 0.734375
vt 0.228125 0.5478540625
vt 0.2193334375 0.5630834375
vt 0.1953125 0.5390625
vt 0.0045984375 0.609375
vt 0.0171578125 0.609375
vt 0.0171578125 0.734375
vt 0.0045984375 0.734375
vt 0.2193334375 0.5630834375
vt 0.2041040625 0.571875
vt 0.1953125 0.5390625
vt 0.0171578125 0.609375
vt 0.0297171875 0.609375
vt 0.0297171875 0.734375
vt 0.0171578125 0.734375
vt 0.2041040625 0.571875
vt 0.1865209375 0.571875
vt 0.1953125 0.5390625
vt 0.0297171875 0.609375
vt 0.0422765625 0.609375
vt 0.0422765625 0.734375
vt 0.0297171875 0.734375
vt 0.1865209375 0.571875
vt 0.1712915625 0.5630834375
vt 0.1953125 0.5390625
vt 0.00459765625 0.609375
vt 0.01715703125 0.609375
vt 0.01715703125 0.734375
vt 0.00459765625 0.734375
vt 0.1712915625 0.5630834375
vt 0.1625 0.5478540625
vt 0.1953125 0.5390625
vt 0.01715703125 0.609375
vt 0.02971640625 0.609375
vt 0.02971640625 0.734375
vt 0.01715703125 0.734375
vt 0.1625 0.5478540625
vt 0.1625 0.5302709375
vt 0.1953125 0.5390625
vt 0.02971640625 0.609375
vt 0.04227734375 0.609375
vt 0.04227734375 0.734375
vt 0.02971640625 0.734375
vt 0.1625 0.5302709375
vt 0.1712915625 0.5150415625
vt 0.1953125 0.5390625
vt 0.004596875 0.609375
vt 0.0171578125 0.609375
vt 0.0171578125 0.734375
vt 0.004596875 0.734375
vt 0.1712915625 0.5150415625
vt 0.1865209375 0.50625
vt 0.1953125 0.5390625
vt 0.0171578125 0.609375
vt 0.0297171875 0.609375
vt 0.0297171875 0.734375
vt 0.0171578125 0.734375
vt 0.1865209375 0.50625
vt 0.2041040625 0.50625
vt 0.1953125 0.5390625
vt 0.1276546875 0.68359375
vt 0.1485875 0.68359375
vt 0.1485875 0.71875
vt 0.1276546875 0.71875
vt 0.2099665625 0.484375
vt 0.2353459375 0.4990290625
vt 0.1953125 0.5390625
vt 0.08578671875 0.68359375
vt 0.10671953125 0.68359375
vt 0.10671953125 0.71875
vt 0.08578671875 0.71875
vt 0.2353459375 0.4990290625
vt 0.25 0.5244084375
vt 0.1953125 0.5390625
vt 0.10671953125 0.68359375
vt 0.12765390625 0.68359375
vt 0.12765390625 0.71875
vt 0.10671953125 0.71875
vt 0.25 0.5244084375
vt 0.25 0.5537165625
vt 0.1953125 0.5390625
vt 0.12765390625 0.68359375
vt 0.14858828125 0.68359375
vt 0.14858828125 0.71875
vt 0.12765390625 0.71875
vt 0.25 0.5537165625
vt 0.2353459375 0.5790959375
vt 0.1953125 0.5390625
vt 0.0857875 0.68359375
vt 0.1067203125 0.68359375
vt 0.1067203125 0.71875
vt 0.0857875 0.71875
vt 0.2353459375 0.5790959375
vt 0.2099665625 0.59375
vt 0.1953125 0.5390625
vt 0.1067203125 0.68359375
vt 0.1276546875 0.68359375
vt 0.1276546875 0.71875
vt 0.1067203125 0.71875
vt 0.2099665625 0.59375
vt 0.1806584375 0.59375
vt 0.1953125 0.5390625
vt 0.1276546875 0.68359375
vt 0.1485875 0.68359375
vt 0.1485875 0.71875
vt 0.1276546875 0.71875
vt 0.1806584375 0.59375
vt 0.1552790625 0.5790959375
vt 0.1953125 0.5390625
vt 0.08578671875 0.68359375
vt 0.10672109375 0.68359375
vt 0.10672109375 0.71875
vt 0.08578671875 0.71875
vt 0.1552790625 0.5790959375
vt 0.140625 0.5537165625
vt 0.1953125 0.5390625
vt 0.10672109375 0.68359375
vt 0.12765546875 0.68359375
vt 0.12765546875 0.71875
vt 0.10672109375 0.71875
vt 0.140625 0.5537165625
vt 0.140625 0.5244084375
vt 0.1953125 0.5390625
vt 0.12765546875 0.68359375
vt 0.14858828125 0.68359375
vt 0.14858828125 0.71875
vt 0.12765546875 0.71875
vt 0.140625 0.5244084375
vt 0.1552790625 0.4990290625
vt 0.1953125 0.5390625
vt 0.0857875 0.68359375
vt 0.1067203125 0.68359375
vt 0.1067203125 0.71875
vt 0.0857875 0.71875
vt 0.1552790625 0.4990290625
vt 0.1806584375 0.484375
vt 0.1953125 0.5390625
vt 0.1067203125 0.68359375
vt 0.1276546875 0.68359375
vt 0.1276546875 0.71875
vt 0.1067203125 0.71875
vt 0.1806584375 0.484375
vt 0.2099665625 0.484375
vt 0.1953125 0.5390625
vt 0.4375 0.34375
vt 0.40625 0.34375
vt 0.40625 0.25
vt 0.4375 0.25
vt 0.25 0.234375
vt 0.25 0.328125
vt 0.21875 0.328125
vt 0.21875 0.234375
vt 0.671875 0.46875
vt 0.765625 0.46875
vt 0.765625 0.5
vt 0.671875 0.5
vt 0.765625 0.421875
vt 0.765625 0.453125
vt 0.671875 0.453125
vt 0.671875 0.421875
vt 0.09375 0.46875
vt 0 0.46875
vt 0 0.375
vt 0.09375 0.375
vt 0.203125 0.375
vt 0.203125 0.46875
vt 0.109375 0.46875
vt 0.109375 0.375
vt 0.125 0.359375
vt 0.0625 0.359375
vt 0.0625 0.296875
vt 0.125 0.296875
vt 0.203125 0.296875
vt 0.203125 0.359375
vt 0.140625 0.359375
vt 0.140625 0.296875
vt 0.65625 0.140625
vt 0.6875 0.140625
vt 0.6875 0.203125
vt 0.65625 0.203125
vt 0.828125 0.109375
vt 0.828125 0.171875
vt 0.796875 0.171875
vt 0.796875 0.109375
vt 0.6875 0.3125
vt 0.65625 0.3125
vt 0.65625 0.21875
vt 0.6875 0.21875
vt 0.734375 0.90625
vt 0.734375 1
vt 0.703125 1
vt 0.703125 0.90625
vt 0.671875 0.375
vt 0.765625 0.375
vt 0.765625 0.40625
vt 0.671875 0.40625
vt 0.796875 0.28125
vt 0.796875 0.3125
vt 0.703125 0.3125
vt 0.703125 0.28125
vt 0.640625 1
vt 0.546875 1
vt 0.546875 0.90625
vt 0.640625 0.90625
vt 0.484375 0.203125
vt 0.484375 0.296875
vt 0.453125 0.296875
vt 0.453125 0.203125
vt 0.09375 0.28125
vt 0.0625 0.28125
vt 0.0625 0.1875
vt 0.09375 0.1875
vt 0.109375 0.28125
vt 0.109375 0.25
vt 0.203125 0.25
vt 0.203125 0.28125
vt 0.796875 0.265625
vt 0.703125 0.265625
vt 0.703125 0.234375
vt 0.796875 0.234375
vt 0.640625 0.796875
vt 0.640625 0.890625
vt 0.546875 0.890625
vt 0.546875 0.796875
vt 0.5625 0.234375
vt 0.59375 0.234375
vt 0.59375 0.359375
vt 0.5625 0.359375
vt 0.640625 0.234375
vt 0.640625 0.359375
vt 0.609375 0.359375
vt 0.609375 0.234375
vt 0.34375 0.234375
vt 0.34375 0.34375
vt 0.3125 0.34375
vt 0.3125 0.234375
vt 0.390625 0.34375
vt 0.359375 0.34375
vt 0.359375 0.234375
vt 0.390625 0.234375
vt 0.41015546875 0.6714718749999999
vt 0.41015546875 0.7886593749999999
vt 0.29296796875 0.7886593749999999
vt 0.29296796875 0.6714718749999999
vt 1 0.9734375
vt 0.921875 0.9734375
vt 0.921875 0.8546875
vt 1 0.8546875
vt 0.921875 0.9734375
vt 0.921875 0.8546875
vt 1 0.8546875
vt 1 0.9734375
vt 1 0.9765625
vt 0.921875 0.9765625
vt 0.921875 0.8578125
vt 1 0.8578125
vt 1 0.8578125
vt 1 0.9765625
vt 0.921875 0.9765625
vt 0.921875 0.8578125
vt 0.41015546875 0.7886593749999999
vt 0.41015546875 0.8125
vt 0.29296796875 0.8125
vt 0.29296796875 0.7886593749999999
vt 0.41015671875 0.8125
vt 0.29296921875 0.8125
vt 0.29296921875 0.7886593749999999
vt 0.41015671875 0.7886593749999999
vt 0.4375 1
vt 0.359375 1
vt 0.359375 0.96875
vt 0.4375 0.96875
vt 0.28125 0.859375
vt 0.28125 0.890625
vt 0.359375 0.890625
vt 0.359375 0.859375
vt 0.29296796875 0.6476296875
vt 0.41015546875 0.6476296875
vt 0.41015546875 0.6714718749999999
vt 0.29296796875 0.6714718749999999
vt 0.4101565625 0.7867884375
vt 0.4101565625 0.8106306249999999
vt 0.2929690625 0.8106306249999999
vt 0.2929690625 0.7867884375
vt 0.28125 0.859375
vt 0.28125 0.828125
vt 0.359375 0.828125
vt 0.359375 0.859375
vt 0.359375 0.828125
vt 0.4375 0.828125
vt 0.4375 0.859375
vt 0.359375 0.859375
vt 0.26912734375 0.7886593749999999
vt 0.26912734375 0.6714718749999999
vt 0.29296796875 0.6714718749999999
vt 0.29296796875 0.7886593749999999
vt 0.41015546875 0.6714718749999999
vt 0.43399765625 0.6714718749999999
vt 0.43399765625 0.7886593749999999
vt 0.41015546875 0.7886593749999999
vt 0.40625 0.65625
vt 0.4375 0.65625
vt 0.4375 0.78125
vt 0.40625 0.78125
vt 0.265625 0.78125
vt 0.265625 0.65625
vt 0.296875 0.65625
vt 0.296875 0.78125
vt 0.41015546875 0.6714718749999999
vt 0.41799609375 0.6489578125
vt 0.43399765625 0.6714718749999999
vt 0.43267265625 0.79462921875
vt 0.4101565625 0.81063015625
vt 0.4101565625 0.7867884375
vt 0.26912734375 0.6714718749999999
vt 0.28512890625 0.64895625
vt 0.29296796875 0.6714718749999999
vt 0.2929690625 0.786789375
vt 0.2929690625 0.8106306249999999
vt 0.27045390625 0.7946282812500001
vt 0.43399765625 0.7886593749999999
vt 0.41799609375 0.8111734375
vt 0.41015546875 0.7886593749999999
vt 0.29296921875 0.78865828125
vt 0.29296921875 0.8125
vt 0.270453125 0.7964990625
vt 0.29296796875 0.7886593749999999
vt 0.28512890625 0.811175
vt 0.26912734375 0.7886593749999999
vt 0.432671875 0.79649765625
vt 0.41015671875 0.8125
vt 0.41015671875 0.78865875
vt 0.29296796875 0.7886593749999999
vt 0.41015546875 0.7886593749999999
vt 0.41015546875 0.6714718749999999
vt 0.29296796875 0.6714718749999999
vt 0.921875 0.8546875
vt 0.921875 0.9734375
vt 1 0.9734375
vt 1 0.8546875
vt 1 0.8546875
vt 0.921875 0.8546875
vt 0.921875 0.9734375
vt 1 0.9734375
vt 0.921875 0.8578125
vt 0.921875 0.9765625
vt 1 0.9765625
vt 1 0.8578125
vt 0.921875 0.9765625
vt 1 0.9765625
vt 1 0.8578125
vt 0.921875 0.8578125
vt 0.29296796875 0.8125
vt 0.41015546875 0.8125
vt 0.41015546875 0.7886593749999999
vt 0.29296796875 0.7886593749999999
vt 0.29296921875 0.7886593749999999
vt 0.29296921875 0.8125
vt 0.41015671875 0.8125
vt 0.41015671875 0.7886593749999999
vt 0.359375 0.96875
vt 0.359375 1
vt 0.4375 1
vt 0.4375 0.96875
vt 0.359375 0.890625
vt 0.28125 0.890625
vt 0.28125 0.859375
vt 0.359375 0.859375
vt 0.41015546875 0.6714718749999999
vt 0.41015546875 0.6476296875
vt 0.29296796875 0.6476296875
vt 0.29296796875 0.6714718749999999
vt 0.2929690625 0.8106306249999999
vt 0.4101565625 0.8106306249999999
vt 0.4101565625 0.7867884375
vt 0.2929690625 0.7867884375
vt 0.359375 0.828125
vt 0.28125 0.828125
vt 0.28125 0.859375
vt 0.359375 0.859375
vt 0.4375 0.859375
vt 0.4375 0.828125
vt 0.359375 0.828125
vt 0.359375 0.859375
vt 0.29296796875 0.6714718749999999
vt 0.26912734375 0.6714718749999999
vt 0.26912734375 0.7886593749999999
vt 0.29296796875 0.7886593749999999
vt 0.43399765625 0.7886593749999999
vt 0.43399765625 0.6714718749999999
vt 0.41015546875 0.6714718749999999
vt 0.41015546875 0.7886593749999999
vt 0.4375 0.78125
vt 0.4375 0.65625
vt 0.40625 0.65625
vt 0.40625 0.78125
vt 0.296875 0.65625
vt 0.265625 0.65625
vt 0.265625 0.78125
vt 0.296875 0.78125
vt 0.41799609375 0.6489578125
vt 0.41015546875 0.6714718749999999
vt 0.43399765625 0.6714718749999999
vt 0.4101565625 0.81063015625
vt 0.43267265625 0.79462921875
vt 0.4101565625 0.7867884375
vt 0.28512890625 0.64895625
vt 0.26912734375 0.6714718749999999
vt 0.29296796875 0.6714718749999999
vt 0.2929690625 0.8106306249999999
vt 0.2929690625 0.786789375
vt 0.27045390625 0.7946282812500001
vt 0.41799609375 0.8111734375
vt 0.43399765625 0.7886593749999999
vt 0.41015546875 0.7886593749999999
vt 0.29296921875 0.8125
vt 0.29296921875 0.78865828125
vt 0.270453125 0.7964990625
vt 0.28512890625 0.811175
vt 0.29296796875 0.7886593749999999
vt 0.26912734375 0.7886593749999999
vt 0.41015671875 0.8125
vt 0.432671875 0.79649765625
vt 0.41015671875 0.78865875
vt 0.84375 0.96875
vt 0.84375 1
vt 0.75 1
vt 0.75 0.96875
vt 0.84375 0.953125
vt 0.75 0.953125
vt 0.75 0.921875
vt 0.84375 0.921875
vt 0.109375 0.234375
vt 0.109375 0.140625
vt 0.140625 0.140625
vt 0.140625 0.234375
vt 0.1875 0.234375
vt 0.15625 0.234375
vt 0.15625 0.140625
vt 0.1875 0.140625
vt 0.84375 0.90625
vt 0.75 0.90625
vt 0.75 0.875
vt 0.84375 0.875
vt 0.40625 0.1875
vt 0.40625 0.21875
vt 0.3125 0.21875
vt 0.3125 0.1875
vt 0.03125 0.21875
vt 0 0.21875
vt 0 0.125
vt 0.03125 0.125
vt 0.203125 0.21875
vt 0.203125 0.125
vt 0.234375 0.125
vt 0.234375 0.21875
vt 0.796875 0.78125
vt 0.546875 0.78125
vt 0.546875 0.75
vt 0.796875 0.75
vt 0.796875 0.703125
vt 0.796875 0.734375
vt 0.546875 0.734375
vt 0.546875 0.703125
vt 0 0.75
vt 0.25 0.75
vt 0.25 1
vt 0 1
vt 0.25 0.75
vt 0.25 1
vt 0 1
vt 0 0.75
vt 0.796875 0.65625
vt 0.796875 0.6875
vt 0.546875 0.6875
vt 0.546875 0.65625
vt 0.796875 0.640625
vt 0.546875 0.640625
vt 0.546875 0.609375
vt 0.796875 0.609375
vt 0.59375 0.21875
vt 0.5 0.21875
vt 0.5 0.1875
vt 0.59375 0.1875
vt 0.875 0.46875
vt 0.875 0.5
vt 0.78125 0.5
vt 0.78125 0.46875
vt 0.609375 0.125
vt 0.640625 0.125
vt 0.640625 0.21875
vt 0.609375 0.21875
vt 0.734375 0.125
vt 0.734375 0.21875
vt 0.703125 0.21875
vt 0.703125 0.125
vt 0.875 0.421875
vt 0.875 0.453125
vt 0.78125 0.453125
vt 0.78125 0.421875
vt 0.875 0.40625
vt 0.78125 0.40625
vt 0.78125 0.375
vt 0.875 0.375
vt 0.78125 0.125
vt 0.78125 0.21875
vt 0.75 0.21875
vt 0.75 0.125
vt 0.25 0.109375
vt 0.28125 0.109375
vt 0.28125 0.203125
vt 0.25 0.203125
vn -0.49999238346988695 -0.8660298011454927 2.5352865225009966e-16
vn -1.2246467991473532e-16 -2.220446049250313e-16 -1
vn -0.8660298011454927 -0.49999238346988695 2.1707867364700044e-16
vn -1.2246467991473532e-16 -2.220446049250313e-16 -1
vn -1 2.719262146893782e-32 1.2246467991473532e-16
vn -1.2246467991473532e-16 -2.220446049250313e-16 -1
vn -0.8660298011454929 0.4999923834698865 -4.9625488591910405e-18
vn -1.2246467991473532e-16 -2.220446049250313e-16 -1
vn -0.49999238346988656 0.8660298011454929 -1.3106583784720913e-16
vn -1.2246467991473532e-16 -2.220446049250313e-16 -1
vn -2.5407181807812022e-33 1 -2.220446049250313e-16
vn -1.2246467991473532e-16 -2.220446049250313e-16 -1
vn 0.49999238346988656 0.8660298011454929 -2.5352865225009966e-16
vn -1.2246467991473532e-16 -2.220446049250313e-16 -1
vn 0.8660298011454929 0.4999923834698865 -2.1707867364700037e-16
vn -1.2246467991473532e-16 -2.220446049250313e-16 -1
vn 1 -2.719262146893782e-32 -1.2246467991473532e-16
vn -1.2246467991473532e-16 -2.220446049250313e-16 -1
vn 0.8660298011454927 -0.49999238346988695 4.962548859191164e-18
vn -1.2246467991473532e-16 -2.220446049250313e-16 -1
vn 0.49999238346988695 -0.8660298011454927 1.3106583784720903e-16
vn -1.2246467991473532e-16 -2.220446049250313e-16 -1
vn 2.5407181807812022e-33 -1 2.220446049250313e-16
vn -1.2246467991473532e-16 -2.220446049250313e-16 -1
vn -0.499996404176486 -0.8660274798241592 2.535286292077679e-16
vn -1.2246467991473532e-16 -2.220446049250313e-16 -1
vn -0.8660274798241592 -0.4999964041764856 6.2221147008771e-16
vn -1.2246467991473532e-16 -2.220446049250313e-16 -1
vn -1 2.719262146893782e-32 1.2246467991473532e-16
vn -1.2246467991473532e-16 -2.220446049250313e-16 -1
vn -0.8660274798241592 0.499996404176486 -3.7326571495561527e-16
vn -1.2246467991473532e-16 -2.220446049250313e-16 -1
vn -0.49999640417648544 0.8660274798241593 -1.3106483001578404e-16
vn -1.2246467991473532e-16 -2.220446049250313e-16 -1
vn -2.5407181807812022e-33 1 -2.220446049250313e-16
vn -1.2246467991473532e-16 -2.220446049250313e-16 -1
vn 0.4999964041764856 0.8660274798241592 -9.533024083844167e-16
vn -1.2246467991473532e-16 -2.220446049250313e-16 -1
vn 0.8660274798241588 0.49999640417648616 -2.1707928214333466e-16
vn -1.2246467991473532e-16 -2.220446049250313e-16 -1
vn 1 -2.719262146893782e-32 -1.2246467991473532e-16
vn -1.2246467991473532e-16 -2.220446049250313e-16 -1
vn 0.8660274798241591 -0.49999640417648583 4.963725915273529e-18
vn -1.2246467991473532e-16 -2.220446049250313e-16 -1
vn 0.4999964041764862 -0.8660274798241591 -2.0040696012052342e-16
vn -1.2246467991473532e-16 -2.220446049250313e-16 -1
vn -4.580171998621937e-32 -1 -1.727013593861355e-16
vn -1.2246467991473532e-16 -2.220446049250313e-16 -1
vn -1 2.719262146893782e-32 1.2246467991473532e-16
vn 1 -2.719262146893782e-32 -1.2246467991473532e-16
vn -2.5407181807812022e-33 1 -2.220446049250313e-16
vn 2.5407181807812022e-33 -1 2.220446049250313e-16
vn -1.7359479331863974e-16 5.181040781584063e-16 1
vn 1.7359479331863974e-16 -5.181040781584063e-16 -1
vn -1 1.3675663608296727e-31 4.1852415314811046e-16
vn 1 2.7589385838076885e-32 8.934339325042757e-19
vn -5.088315634778178e-32 1 -6.167905692361982e-16
vn 2.6711937264281486e-32 -1 4.194175870806147e-16
vn -9.957992501029599e-17 4.440892098500626e-16 1
vn 3.2162452993532727e-16 -5.181040781584063e-16 -1
vn -2.5407181807812022e-33 1 -2.220446049250313e-16
vn -2.694086196238602e-32 -1 5.181040781584063e-16
vn 1 -2.719262146893782e-32 -1.2246467991473532e-16
vn 3.445092848397666e-16 4.440892098500626e-16 1
vn -5.665538897647978e-16 -5.181040781584063e-16 -1
vn -2.5407181807812022e-33 1 -2.220446049250313e-16
vn 3.879754680603163e-32 -1 5.181040781584063e-16
vn -1 2.2440784777419073e-31 5.665538897647979e-16
vn -2.5407181807812022e-33 1 -2.220446049250313e-16
vn 3.1546181080981544e-32 -1 4.588921835117313e-16
vn 3.2162452993532727e-16 -4.670593413940313e-16 -1
vn -9.957992501029599e-17 4.670593413940315e-16 1
vn 1 2.7151129779620764e-32 -4.040890621385291e-18
vn -2.5407181807812022e-33 1 -2.220446049250313e-16
vn 7.161530642554089e-32 -1 4.588921835117313e-16
vn -1.2246467991473532e-16 -4.588921835117314e-16 -1
vn 1.2246467991473532e-16 3.996802888650563e-16 1
vn 0.8192319205190405 0.5734623443633283 -1.3064464627790235e-16
vn -0.8192319205190405 0.5734623443633283 -2.7007244771239308e-17
vn -8.659560562354941e-17 0.7071067811865469 -0.7071067811865482
vn 1.3444604245962624e-16 0.7071067811865483 0.7071067811865468
vn 0.8192319205190405 -0.5734623443633283 2.5984696078227927e-16
vn -0.8192319205190405 -0.5734623443633283 3.634843622889423e-16
vn -2.0622169771374173e-16 -0.7071067811865477 -0.7071067811865475
vn 1.4640865166864557e-16 -0.7071067811865474 0.7071067811865478
vn 0.8192319205190405 2.292015954483675e-16 0.5734623443633283
vn 0.8192319205190403 -2.631573873666443e-16 -0.573462344363329
vn -0.8192319205190403 2.2435076803147087e-16 0.5734623443633285
vn -0.8192319205190406 -2.631573873666442e-16 -0.5734623443633283
vn 0.7106690545187012 -0.49746833816309105 -0.49746833816309144
vn -0.7106690545187014 -0.4974683381630915 -0.49746833816309083
vn 0.7106690545187015 -0.49746833816309083 0.49746833816309116
vn -0.7106690545187014 -0.4974683381630908 0.4974683381630915
vn 0.710669054518701 0.49746833816309066 -0.49746833816309216
vn -0.7106690545187013 0.4974683381630907 -0.49746833816309166
vn 0.7106690545187018 0.49746833816309144 0.4974683381630902
vn -0.7106690545187017 0.4974683381630914 0.49746833816309055
vn -1 -2.7151129779620764e-32 4.040890621385291e-18
vn -2.5407181807812022e-33 1 -2.220446049250313e-16
vn 5.15807437532612e-32 -1 4.588921835117313e-16
vn -1.2246467991473532e-16 -4.588921835117314e-16 -1
vn 1.2246467991473532e-16 3.996802888650563e-16 1
vn -0.8192319205190405 0.5734623443633283 -1.2402379310917264e-16
vn 0.8192319205190407 0.5734623443633283 -2.276611946158357e-16
vn -8.65956056235494e-17 0.707106781186547 -0.7071067811865482
vn 1.4640865166864542e-16 0.7071067811865481 0.707106781186547
vn -0.8192319205190405 -0.5734623443633283 2.66467813951009e-16
vn 0.8192319205190407 -0.5734623443633283 1.6283041244434596e-16
vn -2.0622169771374163e-16 -0.7071067811865479 -0.7071067811865471
vn 1.5837126087766482e-16 -0.7071067811865471 0.7071067811865479
vn -0.8192319205190403 2.2435076803147087e-16 0.5734623443633285
vn -0.8192319205190408 -2.6315738736664395e-16 -0.5734623443633278
vn 0.8192319205190406 2.292015954483675e-16 0.5734623443633283
vn 0.8192319205190405 -2.631573873666442e-16 -0.5734623443633283
vn -0.7106690545187017 -0.49746833816309155 -0.49746833816309033
vn 0.7106690545187015 -0.49746833816309116 -0.49746833816309094
vn -0.7106690545187014 -0.4974683381630908 0.4974683381630915
vn 0.7106690545187015 -0.49746833816309083 0.49746833816309105
vn -0.7106690545187014 0.49746833816309083 -0.49746833816309116
vn 0.7106690545187012 0.4974683381630907 -0.49746833816309166
vn -0.7106690545187017 0.4974683381630914 0.49746833816309055
vn 0.7106690545187018 0.4974683381630914 0.4974683381630901
vn 0.7071067784180599 -7.830465988858368e-9 0.7071067839550351
vn -0.7071067784180601 7.830466044369517e-9 -0.707106783955035
vn 0.5000000039152328 0.7071067839550353 -0.4999999921695341
vn -0.5000000039152326 -0.7071067839550355 0.49999999216953434
vn 0.7071067784180599 -7.830466728462351e-9 -0.7071067839550352
vn -0.7071067784180592 7.830467043025546e-9 0.7071067839550358
vn 0.5000000039152334 0.7071067839550356 0.49999999216953345
vn -0.5000000039152338 -0.7071067839550355 -0.49999999216953317
vn -1 2.719262146893782e-32 1.2246467991473532e-16
vn 1 -1.4866669824859512e-32 -6.695352868347749e-17
vn -5.438524293787565e-32 1 -4.440892098500626e-16
vn 5.438524293787565e-32 -1 4.440892098500626e-16
vn -2.33486982377251e-16 -2.220446049250313e-16 -1
vn 1.2246467991473532e-16 2.220446049250313e-16 1
vn -0.7071067784180597 -7.830466340428993e-9 0.7071067839550355
vn 0.7071067784180597 7.830466099880669e-9 -0.7071067839550353
vn -0.5000000039152332 0.7071067839550352 -0.4999999921695339
vn 0.5000000039152335 -0.7071067839550352 0.4999999921695338
vn -0.7071067784180599 -7.83046670995864e-9 -0.7071067839550352
vn 0.7071067784180599 7.83046672846235e-9 0.7071067839550351
vn -0.5000000039152334 0.7071067839550357 0.4999999921695333
vn 0.5000000039152329 -0.7071067839550357 -0.4999999921695338
usemtl m_1640829d-c4a9-873f-f35c-d2182eee3010
f 3/1/1 5/2/1 6/3/1 4/4/1
f 4/5/2 6/6/2 2/7/2
f 5/8/3 7/9/3 8/10/3 6/11/3
f 6/12/4 8/13/4 2/14/4
f 7/15/5 9/16/5 10/17/5 8/18/5
f 8/19/6 10/20/6 2/21/6
f 9/22/7 11/23/7 1/24/7 10/25/7
f 10/26/8 1/27/8 2/28/8
f 11/29/9 12/30/9 13/31/9 1/32/9
f 1/33/10 13/34/10 2/35/10
f 12/36/11 14/37/11 15/38/11 13/39/11
f 13/40/12 15/41/12 2/42/12
f 14/43/13 16/44/13 17/45/13 15/46/13
f 15/47/14 17/48/14 2/49/14
f 16/50/15 18/51/15 19/52/15 17/53/15
f 17/54/16 19/55/16 2/56/16
f 18/57/17 20/58/17 21/59/17 19/60/17
f 19/61/18 21/62/18 2/63/18
f 20/64/19 22/65/19 23/66/19 21/67/19
f 21/68/20 23/69/20 2/70/20
f 22/71/21 24/72/21 25/73/21 23/74/21
f 23/75/22 25/76/22 2/77/22
f 24/78/23 3/79/23 4/80/23 25/81/23
f 25/82/24 4/83/24 2/84/24
f 28/85/25 30/86/25 31/87/25 29/88/25
f 29/89/26 31/90/26 27/91/26
f 30/92/27 32/93/27 33/94/27 31/95/27
f 31/96/28 33/97/28 27/98/28
f 32/99/29 34/100/29 35/101/29 33/102/29
f 33/103/30 35/104/30 27/105/30
f 34/106/31 36/107/31 26/108/31 35/109/31
f 35/110/32 26/111/32 27/112/32
f 36/113/33 37/114/33 38/115/33 26/116/33
f 26/117/34 38/118/34 27/119/34
f 37/120/35 39/121/35 40/122/35 38/123/35
f 38/124/36 40/125/36 27/126/36
f 39/127/37 41/128/37 42/129/37 40/130/37
f 40/131/38 42/132/38 27/133/38
f 41/134/39 43/135/39 44/136/39 42/137/39
f 42/138/40 44/139/40 27/140/40
f 43/141/41 45/142/41 46/143/41 44/144/41
f 44/145/42 46/146/42 27/147/42
f 45/148/43 47/149/43 48/150/43 46/151/43
f 46/152/44 48/153/44 27/154/44
f 47/155/45 49/156/45 50/157/45 48/158/45
f 48/159/46 50/160/46 27/161/46
f 49/162/47 28/163/47 29/164/47 50/165/47
f 50/166/48 29/167/48 27/168/48
f 52/169/49 51/170/49 53/171/49 54/172/49
f 57/173/50 55/174/50 56/175/50 58/176/50
f 55/177/51 51/178/51 52/179/51 56/180/51
f 54/181/52 53/182/52 57/183/52 58/184/52
f 56/185/53 52/186/53 54/187/53 58/188/53
f 53/189/54 51/190/54 55/191/54 57/192/54
f 60/193/55 59/194/55 61/195/55 62/196/55
f 65/197/56 63/198/56 64/199/56 66/200/56
f 63/201/57 59/202/57 60/203/57 64/204/57
f 62/205/58 61/206/58 65/207/58 66/208/58
f 68/209/59 67/210/59 69/211/59 70/212/59
f 73/213/60 71/214/60 72/215/60 74/216/60
f 71/217/61 67/218/61 68/219/61 72/220/61
f 70/221/62 69/222/62 73/223/62 74/224/62
f 72/225/63 68/226/63 70/227/63 74/228/63
f 77/229/64 75/230/64 76/231/64 78/232/64
f 80/233/65 79/234/65 81/235/65 82/236/65
f 76/237/66 75/238/66 79/239/66 80/240/66
f 81/241/67 77/242/67 78/243/67 82/244/67
f 78/245/68 76/246/68 80/247/68 82/248/68
f 87/249/69 83/250/69 84/251/69 88/252/69
f 86/253/70 85/254/70 89/255/70 90/256/70
f 85/257/71 83/258/71 87/259/71 89/260/71
f 88/261/72 84/262/72 86/263/72 90/264/72
f 103/265/73 104/266/73 106/267/73 105/268/73
f 94/269/74 92/270/74 91/271/74 93/272/74
f 95/273/75 96/274/75 98/275/75 97/276/75
f 114/277/76 112/278/76 111/279/76 113/280/76
f 107/281/77 108/282/77 110/283/77 109/284/77
f 104/285/78 91/286/78 92/287/78 106/288/78
f 94/289/79 93/290/79 100/291/79 102/292/79
f 93/293/80 91/294/80 112/295/80 114/296/80
f 108/297/81 92/298/81 94/299/81 110/300/81
f 96/301/82 95/302/82 103/303/82 105/304/82
f 99/305/83 97/306/83 98/307/83 101/308/83
f 111/309/84 95/310/84 97/311/84 113/312/84
f 98/313/85 96/314/85 107/315/85 109/316/85
f 108/317/86 107/318/86 105/319/86 106/320/86
f 103/321/87 111/322/87 112/323/87 104/324/87
f 101/325/88 109/326/88 110/327/88 102/328/88
f 114/329/89 113/330/89 99/331/89 100/332/89
f 103/333/90 95/334/90 111/335/90
f 113/336/91 97/337/91 99/338/91
f 107/339/92 96/340/92 105/341/92
f 101/342/93 98/343/93 109/344/93
f 112/345/94 91/346/94 104/347/94
f 100/348/95 93/349/95 114/350/95
f 106/351/96 92/352/96 108/353/96
f 110/354/97 94/355/97 102/356/97
f 130/357/98 128/358/98 127/359/98 129/360/98
f 115/361/99 116/362/99 118/363/99 117/364/99
f 122/365/100 120/366/100 119/367/100 121/368/100
f 135/369/101 136/370/101 138/371/101 137/372/101
f 134/373/102 132/374/102 131/375/102 133/376/102
f 116/377/103 115/378/103 128/379/103 130/380/103
f 124/381/104 117/382/104 118/383/104 126/384/104
f 136/385/105 115/386/105 117/387/105 138/388/105
f 118/389/106 116/390/106 132/391/106 134/392/106
f 127/393/107 119/394/107 120/395/107 129/396/107
f 122/397/108 121/398/108 123/399/108 125/400/108
f 121/401/109 119/402/109 135/403/109 137/404/109
f 131/405/110 120/406/110 122/407/110 133/408/110
f 129/409/111 131/410/111 132/411/111 130/412/111
f 136/413/112 135/414/112 127/415/112 128/416/112
f 134/417/113 133/418/113 125/419/113 126/420/113
f 123/421/114 137/422/114 138/423/114 124/424/114
f 119/425/115 127/426/115 135/427/115
f 121/428/116 137/429/116 123/430/116
f 120/431/117 131/432/117 129/433/117
f 122/434/118 125/435/118 133/436/118
f 115/437/119 136/438/119 128/439/119
f 117/440/120 124/441/120 138/442/120
f 116/443/121 130/444/121 132/445/121
f 118/446/122 134/447/122 126/448/122
f 141/449/123 139/450/123 140/451/123 142/452/123
f 144/453/124 143/454/124 145/455/124 146/456/124
f 140/457/125 139/458/125 143/459/125 144/460/125
f 145/461/126 141/462/126 142/463/126 146/464/126
f 148/465/127 147/466/127 149/467/127 150/468/127
f 153/469/128 151/470/128 152/471/128 154/472/128
f 151/473/129 147/474/129 148/475/129 152/476/129
f 150/477/130 149/478/130 153/479/130 154/480/130
f 156/481/131 155/482/131 157/483/131 158/484/131
f 161/485/132 159/486/132 160/487/132 162/488/132
f 159/489/133 155/490/133 156/491/133 160/492/133
f 158/493/134 157/494/134 161/495/134 162/496/134
f 157/497/135 155/498/135 159/499/135 161/500/135
f 160/501/136 156/502/136 158/503/136 162/504/136
f 164/505/137 163/506/137 165/507/137 166/508/137
f 169/509/138 167/510/138 168/511/138 170/512/138
f 167/513/139 163/514/139 164/515/139 168/516/139
f 166/517/140 165/518/140 169/519/140 170/520/140
f 173/521/141 171/522/141 172/523/141 174/524/141
f 176/525/142 175/526/142 177/527/142 178/528/142
f 172/529/143 171/530/143 175/531/143 176/532/143
f 177/533/144 173/534/144 174/535/144 178/536/144