# Made in Blockbench 5.1.6
mtllib clutch.mtl

o 1
v 0.84314875 0.84314875 0.8125000000000001
v 0.62560125 0.96875 0.8125000000000001
v 0.5 0.5 0.8125
v 0.84314875 0.8431487500000001 0.1875000000000001
v 0.62560125 0.9687500000000001 0.1875000000000001
v 0.5 0.5000000000000001 0.1875
v 0.96875 0.62560125 0.8125
v 0.96875 0.6256012500000001 0.1875
v 0.96875 0.37439875 0.8125
v 0.96875 0.3743987500000001 0.1875
v 0.84314875 0.15685125 0.8124999999999999
v 0.84314875 0.1568512500000001 0.1874999999999999
v 0.62560125 0.03125 0.8124999999999999
v 0.62560125 0.03125000000000011 0.1874999999999999
v 0.37439875 0.03125 0.8124999999999999
v 0.37439875 0.03125000000000011 0.1874999999999999
v 0.15685125 0.15685125 0.8124999999999999
v 0.15685125 0.1568512500000001 0.1874999999999999
v 0.03125 0.37439875 0.8125
v 0.03125 0.3743987500000001 0.1875
v 0.03125 0.62560125 0.8125
v 0.03125 0.6256012500000001 0.1875
v 0.15685125 0.84314875 0.8125000000000001
v 0.15685125 0.8431487500000001 0.1875000000000001
v 0.37439875 0.96875 0.8125000000000001
v 0.37439875 0.9687500000000001 0.1875000000000001
v 0.84375 1 0.3125
v 0.84375 1 0.6875
v 0.84375 5.551115123125783e-17 0.6875
v 0.84375 1.1102230246251565e-16 0.3125
v 0.15625 5.551115123125783e-17 0.6875
v 0.15625 1 0.6875
v 0.15625 1 0.3125
v 0.15625 1.1102230246251565e-16 0.3125
v 0.797395625 0.7973956250000002 0.8437500000000001
v 0.608854375 0.9062500000000001 0.8437500000000001
v 0.5 0.5000000000000001 0.84375
v 0.797395625 0.797395625 0.1562500000000001
v 0.608854375 0.9062500000000001 0.1562500000000001
v 0.5 0.5000000000000001 0.15625
v 0.90625 0.6088543750000001 0.84375
v 0.90625 0.6088543750000002 0.15625
v 0.90625 0.39114562499999994 0.84375
v 0.90625 0.3911456250000003 0.15625
v 0.797395625 0.20260437500000006 0.8437499999999999
v 0.797395625 0.20260437500000017 0.1562499999999999
v 0.608854375 0.09375000000000006 0.8437499999999999
v 0.608854375 0.09375000000000011 0.1562499999999999
v 0.391145625 0.09375000000000006 0.8437499999999999
v 0.391145625 0.09375000000000011 0.1562499999999999
v 0.202604375 0.20260437500000006 0.8437499999999999
v 0.202604375 0.20260437500000017 0.1562499999999999
v 0.09375 0.39114562499999994 0.84375
v 0.09375 0.3911456250000003 0.15625
v 0.09375 0.6088543750000001 0.84375
v 0.09375 0.6088543750000002 0.15625
v 0.202604375 0.7973956250000002 0.8437500000000001
v 0.202604375 0.797395625 0.1562500000000001
v 0.391145625 0.9062500000000001 0.8437500000000001
v 0.391145625 0.9062500000000001 0.1562500000000001
v 0.7516425 0.7516425000000001 0.875
v 0.5921075 0.84375 0.8750000000000001
v 0.5 0.5000000000000001 0.875
v 0.7516425 0.7516425000000001 0.1250000000000001
v 0.5921075 0.8437500000000001 0.1250000000000001
v 0.5 0.5000000000000001 0.125
v 0.84375 0.5921075000000001 0.875
v 0.84375 0.5921075000000001 0.125
v 0.84375 0.4078925000000001 0.875
v 0.84375 0.4078925000000002 0.125
v 0.7516425 0.24835750000000012 0.875
v 0.7516425 0.24835750000000012 0.12499999999999989
v 0.5921075 0.1562500000000001 0.8749999999999999
v 0.5921075 0.1562500000000001 0.12499999999999989
v 0.4078925 0.1562500000000001 0.8749999999999999
v 0.4078925 0.1562500000000001 0.12499999999999989
v 0.2483575 0.24835750000000012 0.875
v 0.2483575 0.24835750000000012 0.12499999999999989
v 0.15625 0.4078925000000001 0.875
v 0.15625 0.4078925000000002 0.125
v 0.15625 0.5921075000000001 0.875
v 0.15625 0.5921075000000001 0.125
v 0.2483575 0.7516425000000001 0.875
v 0.2483575 0.7516425000000001 0.1250000000000001
v 0.4078925 0.84375 0.8750000000000001
v 0.4078925 0.8437500000000001 0.1250000000000001
vt 0.1015625 0.984375
vt 0.07421875 1
vt 0.05859375 0.94140625
vt 0.37890625 0.8359375
vt 0.41015625 0.8359375
vt 0.41015625 0.9140625
vt 0.37890625 0.9140625
vt 0.16796875 0.78125
vt 0.1953125 0.796875
vt 0.15234375 0.83984375
vt 0.1171875 0.95703125
vt 0.1015625 0.984375
vt 0.05859375 0.94140625
vt 0.28125 0.921875
vt 0.3125 0.921875
vt 0.3125 1
vt 0.28125 1
vt 0.1953125 0.796875
vt 0.2109375 0.82421875
vt 0.15234375 0.83984375
vt 0.1171875 0.92578125
vt 0.1171875 0.95703125
vt 0.05859375 0.94140625
vt 0.3125 0.921875
vt 0.34765625 0.921875
vt 0.34765625 1
vt 0.3125 1
vt 0.2109375 0.82421875
vt 0.2109375 0.85546875
vt 0.15234375 0.83984375
vt 0.1015625 0.8984375
vt 0.1171875 0.92578125
vt 0.05859375 0.94140625
vt 0.34765625 0.921875
vt 0.37890625 0.921875
vt 0.37890625 1
vt 0.34765625 1
vt 0.2109375 0.85546875
vt 0.1953125 0.8828125
vt 0.15234375 0.83984375
vt 0.07421875 0.8828125
vt 0.1015625 0.8984375
vt 0.05859375 0.94140625
vt 0.296875 0.7265625
vt 0.328125 0.7265625
vt 0.328125 0.8046875
vt 0.296875 0.8046875
vt 0.1953125 0.8828125
vt 0.16796875 0.8984375
vt 0.15234375 0.83984375
vt 0.04296875 0.8828125
vt 0.07421875 0.8828125
vt 0.05859375 0.94140625
vt 0.328125 0.7265625
vt 0.36328125 0.7265625
vt 0.36328125 0.8046875
vt 0.328125 0.8046875
vt 0.16796875 0.8984375
vt 0.13671875 0.8984375
vt 0.15234375 0.83984375
vt 0.015625 0.8984375
vt 0.04296875 0.8828125
vt 0.05859375 0.94140625
vt 0.36328125 0.7265625
vt 0.39453125 0.7265625
vt 0.39453125 0.8046875
vt 0.36328125 0.8046875
vt 0.13671875 0.8984375
vt 0.109375 0.8828125
vt 0.15234375 0.83984375
vt 0 0.92578125
vt 0.015625 0.8984375
vt 0.05859375 0.94140625
vt 0.296875 0.640625
vt 0.328125 0.640625
vt 0.328125 0.71875
vt 0.296875 0.71875
vt 0.109375 0.8828125
vt 0.09375 0.85546875
vt 0.15234375 0.83984375
vt 0 0.95703125
vt 0 0.92578125
vt 0.05859375 0.94140625
vt 0.328125 0.640625
vt 0.36328125 0.640625
vt 0.36328125 0.71875
vt 0.328125 0.71875
vt 0.09375 0.85546875
vt 0.09375 0.82421875
vt 0.15234375 0.83984375
vt 0.015625 0.984375
vt 0 0.95703125
vt 0.05859375 0.94140625
vt 0.36328125 0.640625
vt 0.39453125 0.640625
vt 0.39453125 0.71875
vt 0.36328125 0.71875
vt 0.09375 0.82421875
vt 0.109375 0.796875
vt 0.15234375 0.83984375
vt 0.04296875 1
vt 0.015625 0.984375
vt 0.05859375 0.94140625
vt 0.3125 0.8359375
vt 0.34375 0.8359375
vt 0.34375 0.9140625
vt 0.3125 0.9140625
vt 0.109375 0.796875
vt 0.13671875 0.78125
vt 0.15234375 0.83984375
vt 0.07421875 1
vt 0.04296875 1
vt 0.05859375 0.94140625
vt 0.34375 0.8359375
vt 0.37890625 0.8359375
vt 0.37890625 0.9140625
vt 0.34375 0.9140625
vt 0.13671875 0.78125
vt 0.16796875 0.78125
vt 0.15234375 0.83984375
vt 0.203125 0.5625
vt 0.15625 0.5625
vt 0.15625 0.4375
vt 0.203125 0.4375
vt 0.2578125 0.4375
vt 0.2578125 0.5625
vt 0.2109375 0.5625
vt 0.2109375 0.4375
vt 0.40625 0.6796875
vt 0.4921875 0.6796875
vt 0.4921875 0.7265625
vt 0.40625 0.7265625
vt 0.5078125 0.8515625
vt 0.5078125 0.8984375
vt 0.421875 0.8984375
vt 0.421875 0.8515625
vt 0.0859375 0.75
vt 0.0859375 0.875
vt 0 0.875
vt 0 0.75
vt 0.2890625 0.7890625
vt 0.203125 0.7890625
vt 0.203125 0.6640625
vt 0.2890625 0.6640625
vt 0.26171875 0.98828125
vt 0.234375 1
vt 0.22265625 0.94921875
vt 0.421875 0.546875
vt 0.44921875 0.546875
vt 0.44921875 0.6328125
vt 0.421875 0.6328125
vt 0.15625 0.671875
vt 0.18359375 0.68359375
vt 0.14453125 0.72265625
vt 0.2734375 0.9609375
vt 0.26171875 0.98828125
vt 0.22265625 0.94921875
vt 0.0859375 0.578125
vt 0.11328125 0.578125
vt 0.11328125 0.6640625
vt 0.0859375 0.6640625
vt 0.18359375 0.68359375
vt 0.1953125 0.7109375
vt 0.14453125 0.72265625
vt 0.2734375 0.9375
vt 0.2734375 0.9609375
vt 0.22265625 0.94921875
vt 0.11328125 0.578125
vt 0.140625 0.578125
vt 0.140625 0.6640625
vt 0.11328125 0.6640625
vt 0.1953125 0.7109375
vt 0.1953125 0.734375
vt 0.14453125 0.72265625
vt 0.26171875 0.91015625
vt 0.2734375 0.9375
vt 0.22265625 0.94921875
vt 0.140625 0.578125
vt 0.16796875 0.578125
vt 0.16796875 0.6640625
vt 0.140625 0.6640625
vt 0.1953125 0.734375
vt 0.18359375 0.76171875
vt 0.14453125 0.72265625
vt 0.234375 0.8984375
vt 0.26171875 0.91015625
vt 0.22265625 0.94921875
vt 0.1796875 0.5703125
vt 0.20703125 0.5703125
vt 0.20703125 0.65625
vt 0.1796875 0.65625
vt 0.18359375 0.76171875
vt 0.15625 0.7734375
vt 0.14453125 0.72265625
vt 0.2109375 0.8984375
vt 0.234375 0.8984375
vt 0.22265625 0.94921875
vt 0.20703125 0.5703125
vt 0.234375 0.5703125
vt 0.234375 0.65625
vt 0.20703125 0.65625
vt 0.15625 0.7734375
vt 0.1328125 0.7734375
vt 0.14453125 0.72265625
vt 0.18359375 0.91015625
vt 0.2109375 0.8984375
vt 0.22265625 0.94921875
vt 0.234375 0.5703125
vt 0.26171875 0.5703125
vt 0.26171875 0.65625
vt 0.234375 0.65625
vt 0.1328125 0.7734375
vt 0.10546875 0.76171875
vt 0.14453125 0.72265625
vt 0.171875 0.9375
vt 0.18359375 0.91015625
vt 0.22265625 0.94921875
vt 0.2734375 0.546875
vt 0.30078125 0.546875
vt 0.30078125 0.6328125
vt 0.2734375 0.6328125
vt 0.10546875 0.76171875
vt 0.09375 0.734375
vt 0.14453125 0.72265625
vt 0.171875 0.9609375
vt 0.171875 0.9375
vt 0.22265625 0.94921875
vt 0.30078125 0.546875
vt 0.328125 0.546875
vt 0.328125 0.6328125
vt 0.30078125 0.6328125
vt 0.09375 0.734375
vt 0.09375 0.7109375
vt 0.14453125 0.72265625
vt 0.18359375 0.98828125
vt 0.171875 0.9609375
vt 0.22265625 0.94921875
vt 0.328125 0.546875
vt 0.35546875 0.546875
vt 0.35546875 0.6328125
vt 0.328125 0.6328125
vt 0.09375 0.7109375
vt 0.10546875 0.68359375
vt 0.14453125 0.72265625
vt 0.2109375 1
vt 0.18359375 0.98828125
vt 0.22265625 0.94921875
vt 0.3671875 0.546875
vt 0.39453125 0.546875
vt 0.39453125 0.6328125
vt 0.3671875 0.6328125
vt 0.10546875 0.68359375
vt 0.1328125 0.671875
vt 0.14453125 0.72265625
vt 0.234375 1
vt 0.2109375 1
vt 0.22265625 0.94921875
vt 0.39453125 0.546875
vt 0.421875 0.546875
vt 0.421875 0.6328125
vt 0.39453125 0.6328125
vt 0.1328125 0.671875
vt 0.15625 0.671875
vt 0.14453125 0.72265625
vt 0.29296875 0.87890625
vt 0.2734375 0.890625
vt 0.26171875 0.84765625
vt 0.125 0.4765625
vt 0.1484375 0.4765625
vt 0.1484375 0.5703125
vt 0.125 0.5703125
vt 0.2734375 0.8046875
vt 0.29296875 0.81640625
vt 0.26171875 0.84765625
vt 0.3046875 0.859375
vt 0.29296875 0.87890625
vt 0.26171875 0.84765625
vt 0 0.5546875
vt 0.0234375 0.5546875
vt 0.0234375 0.6484375
vt 0 0.6484375
vt 0.29296875 0.81640625
vt 0.3046875 0.8359375
vt 0.26171875 0.84765625
vt 0.3046875 0.8359375
vt 0.3046875 0.859375
vt 0.26171875 0.84765625
vt 0.0234375 0.5546875
vt 0.046875 0.5546875
vt 0.046875 0.6484375
vt 0.0234375 0.6484375
vt 0.3046875 0.8359375
vt 0.3046875 0.859375
vt 0.26171875 0.84765625
vt 0.29296875 0.81640625
vt 0.3046875 0.8359375
vt 0.26171875 0.84765625
vt 0.046875 0.5546875
vt 0.0703125 0.5546875
vt 0.0703125 0.6484375
vt 0.046875 0.6484375
vt 0.3046875 0.859375
vt 0.29296875 0.87890625
vt 0.26171875 0.84765625
vt 0.2734375 0.8046875
vt 0.29296875 0.81640625
vt 0.26171875 0.84765625
vt 0.40625 0.734375
vt 0.4296875 0.734375
vt 0.4296875 0.828125
vt 0.40625 0.828125
vt 0.29296875 0.87890625
vt 0.2734375 0.890625
vt 0.26171875 0.84765625
vt 0.25 0.8046875
vt 0.2734375 0.8046875
vt 0.26171875 0.84765625
vt 0.4296875 0.734375
vt 0.453125 0.734375
vt 0.453125 0.828125
vt 0.4296875 0.828125
vt 0.2734375 0.890625
vt 0.25 0.890625
vt 0.26171875 0.84765625
vt 0.23046875 0.81640625
vt 0.25 0.8046875
vt 0.26171875 0.84765625
vt 0.453125 0.734375
vt 0.4765625 0.734375
vt 0.4765625 0.828125
vt 0.453125 0.828125
vt 0.25 0.890625
vt 0.23046875 0.87890625
vt 0.26171875 0.84765625
vt 0.21875 0.8359375
vt 0.23046875 0.81640625
vt 0.26171875 0.84765625
vt 0.421875 0.90625
vt 0.4453125 0.90625
vt 0.4453125 1
vt 0.421875 1
vt 0.23046875 0.87890625
vt 0.21875 0.859375
vt 0.26171875 0.84765625
vt 0.21875 0.859375
vt 0.21875 0.8359375
vt 0.26171875 0.84765625
vt 0.4453125 0.90625
vt 0.46875 0.90625
vt 0.46875 1
vt 0.4453125 1
vt 0.21875 0.859375
vt 0.21875 0.8359375
vt 0.26171875 0.84765625
vt 0.23046875 0.87890625
vt 0.21875 0.859375
vt 0.26171875 0.84765625
vt 0.46875 0.90625
vt 0.4921875 0.90625
vt 0.4921875 1
vt 0.46875 1
vt 0.21875 0.8359375
vt 0.23046875 0.81640625
vt 0.26171875 0.84765625
vt 0.25 0.890625
vt 0.23046875 0.87890625
vt 0.26171875 0.84765625
vt 0.078125 0.4765625
vt 0.1015625 0.4765625
vt 0.1015625 0.5703125
vt 0.078125 0.5703125
vt 0.23046875 0.81640625
vt 0.25 0.8046875
vt 0.26171875 0.84765625
vt 0.2734375 0.890625
vt 0.25 0.890625
vt 0.26171875 0.84765625
vt 0.1015625 0.4765625
vt 0.125 0.4765625
vt 0.125 0.5703125
vt 0.1015625 0.5703125
vt 0.25 0.8046875
vt 0.2734375 0.8046875
vt 0.26171875 0.84765625
vn -1.1842389715450954e-16 -2.05115974293414e-16 1
vn 0.5000004248969576 0.8660251584699269 1.546873095729838e-16
vn 1.1842389715450954e-16 2.05115974293414e-16 -1
vn 1.1842389715450954e-16 -4.419637686024331e-16 1
vn 0.8660251584699269 0.5000004248969576 8.839274832741932e-17
vn -1.1842389715450954e-16 4.419637686024331e-16 -1
vn 0 0 1
vn 1 0 0
vn 0 0 -1
vn -1.1842389715450954e-16 -4.419637686024331e-16 1
vn 0.8660251584699269 -0.5000004248969576 -8.839274832741932e-17
vn 1.1842389715450954e-16 4.419637686024331e-16 -1
vn 1.1842389715450954e-16 -2.05115974293414e-16 1
vn 0.5000004248969576 -0.8660251584699269 -1.546873095729838e-16
vn -1.1842389715450954e-16 2.05115974293414e-16 -1
vn 0 -2.3684757858670006e-16 1
vn 0 -1 -1.7763568394002506e-16
vn 0 2.3684757858670006e-16 -1
vn -1.1842389715450954e-16 -2.05115974293414e-16 1
vn -0.5000004248969576 -0.8660251584699269 -1.546873095729838e-16
vn 1.1842389715450954e-16 2.05115974293414e-16 -1
vn 1.1842389715450954e-16 -4.419637686024331e-16 1
vn -0.8660251584699269 -0.5000004248969576 -8.839274832741932e-17
vn -1.1842389715450954e-16 4.419637686024331e-16 -1
vn 0 0 1
vn -1 0 0
vn 0 0 -1
vn -1.1842389715450954e-16 -4.419637686024331e-16 1
vn -0.8660251584699269 0.5000004248969576 8.839274832741932e-17
vn 1.1842389715450954e-16 4.419637686024331e-16 -1
vn 1.1842389715450954e-16 -2.05115974293414e-16 1
vn -0.5000004248969576 0.8660251584699269 1.546873095729838e-16
vn -1.1842389715450954e-16 2.05115974293414e-16 -1
vn 0 -2.3684757858670006e-16 1
vn 0 1 1.7763568394002506e-16
vn 0 2.3684757858670006e-16 -1
vn 1 0 0
vn -1 0 0
vn 0 1 0
vn 0 -1 -1.4802973661668753e-16
vn 0 0 1
vn 0 0 -1
vn -1.3664286766304428e-16 -2.36672316319624e-16 1
vn 0.5000001156102746 0.8660253370368053 -1.390794663218052e-16
vn 1.3664286766304442e-16 2.36672316319624e-16 -1
vn 1.3664286766304428e-16 -5.099580516457126e-16 1
vn 0.8660253370368053 0.5000001156102746 6.95397331609026e-17
vn -1.3664286766304455e-16 5.09958051645713e-16 -1
vn 0 0 1
vn 1 0 0
vn 0 0 -1
vn -1.3664286766304467e-16 -5.09958051645713e-16 1
vn 0.866025337036805 -0.5000001156102751 -6.953973316090267e-17
vn 1.3664286766304415e-16 5.099580516457126e-16 -1
vn 1.3664286766304432e-16 -2.3667231631962396e-16 1
vn 0.5000001156102748 -0.8660253370368051 -6.953973316090259e-17
vn -1.3664286766304442e-16 2.36672316319624e-16 -1
vn 0 -2.732856676000385e-16 1
vn 0 -1 -8.074349270001139e-17
vn 0 2.732856676000385e-16 -1
vn -1.3664286766304437e-16 -2.3667231631962396e-16 1
vn -0.5000001156102751 -0.866025337036805 -1.3907946632180526e-16
vn 1.3664286766304445e-16 2.3667231631962396e-16 -1
vn 1.3664286766304465e-16 -5.099580516457129e-16 1
vn -0.8660253370368048 -0.5000001156102751 -2.5497902158997635e-16
vn -1.3664286766304415e-16 5.099580516457126e-16 -1
vn 0 0 1
vn -1 0 0
vn 0 0 -1
vn -1.3664286766304428e-16 -5.099580516457126e-16 1
vn -0.8660253370368051 0.5000001156102748 -6.953973316090259e-17
vn 1.3664286766304452e-16 5.09958051645713e-16 -1
vn 1.3664286766304432e-16 -2.36672316319624e-16 1
vn -0.5000001156102749 0.8660253370368052 0
vn -1.3664286766304445e-16 2.3667231631962396e-16 -1
vn 0 -2.732856676000385e-16 1
vn 0 1 0
vn 0 2.732856676000385e-16 -1
vn 4.411905876889464e-16 -4.411905876889464e-16 1
vn 0.49999969385583964 0.86602558053678 0
vn 1.6148687942442002e-16 2.797037082645262e-16 -1
vn 0 0 1
vn 0.8660255805367798 0.49999969385584014 0
vn -1.6148687942442002e-16 6.026774671133663e-16 -1
vn 0 0 1
vn 1 0 0
vn 0 0 -1
vn 0 0 1
vn 0.8660255805367798 -0.49999969385584014 0
vn 1.6148687942441978e-16 6.02677467113366e-16 -1
vn -4.411905876889462e-16 -4.411905876889462e-16 1
vn 0.49999969385584014 -0.8660255805367798 0
vn -1.6148687942442002e-16 2.797037082645262e-16 -1
vn 0 -3.2297397080004555e-16 1
vn 0 -1 0
vn 0 3.2297397080004555e-16 -1
vn 4.411905876889462e-16 -4.411905876889462e-16 1
vn -0.49999969385584014 -0.8660255805367798 0
vn 1.6148687942442002e-16 2.797037082645262e-16 -1
vn 0 0 1
vn -0.8660255805367798 -0.49999969385584014 -7.533468670090426e-17
vn -1.6148687942441978e-16 6.02677467113366e-16 -1
vn 0 0 1
vn -1 0 0
vn 0 0 -1
vn 0 0 1
vn -0.8660255805367797 0.49999969385584003 0
vn 1.6148687942442002e-16 6.026774671133663e-16 -1
vn -4.411905876889465e-16 -4.411905876889465e-16 1
vn -0.49999969385583964 0.8660255805367799 1.255578111681738e-16
vn -1.6148687942442002e-16 2.797037082645262e-16 -1
vn 0 -3.229739708000456e-16 1
vn 0 1 1.4802973661668753e-16
vn 0 3.2297397080004555e-16 -1
usemtl m_3adb87d7-b55d-3986-bb2a-39305a0b9b3a
f 1/1/1 2/2/1 3/3/1
f 2/4/2 1/5/2 4/6/2 5/7/2
f 5/8/3 4/9/3 6/10/3
f 7/11/4 1/12/4 3/13/4
f 1/14/5 7/15/5 8/16/5 4/17/5
f 4/18/6 8/19/6 6/20/6
f 9/21/7 7/22/7 3/23/7
f 7/24/8 9/25/8 10/26/8 8/27/8
f 8/28/9 10/29/9 6/30/9
f 11/31/10 9/32/10 3/33/10
f 9/34/11 11/35/11 12/36/11 10/37/11
f 10/38/12 12/39/12 6/40/12
f 13/41/13 11/42/13 3/43/13
f 11/44/14 13/45/14 14/46/14 12/47/14
f 12/48/15 14/49/15 6/50/15
f 15/51/16 13/52/16 3/53/16
f 13/54/17 15/55/17 16/56/17 14/57/17
f 14/58/18 16/59/18 6/60/18
f 17/61/19 15/62/19 3/63/19
f 15/64/20 17/65/20 18/66/20 16/67/20
f 16/68/21 18/69/21 6/70/21
f 19/71/22 17/72/22 3/73/22
f 17/74/23 19/75/23 20/76/23 18/77/23
f 18/78/24 20/79/24 6/80/24
f 21/81/25 19/82/25 3/83/25
f 19/84/26 21/85/26 22/86/26 20/87/26
f 20/88/27 22/89/27 6/90/27
f 23/91/28 21/92/28 3/93/28
f 21/94/29 23/95/29 24/96/29 22/97/29
f 22/98/30 24/99/30 6/100/30
f 25/101/31 23/102/31 3/103/31
f 23/104/32 25/105/32 26/106/32 24/107/32
f 24/108/33 26/109/33 6/110/33
f 2/111/34 25/112/34 3/113/34
f 25/114/35 2/115/35 5/116/35 26/117/35
f 26/118/36 5/119/36 6/120/36
f 27/121/37 28/122/37 29/123/37 30/124/37
f 31/125/38 32/126/38 33/127/38 34/128/38
f 32/129/39 28/130/39 27/131/39 33/132/39
f 30/133/40 29/134/40 31/135/40 34/136/40
f 29/137/41 28/138/41 32/139/41 31/140/41
f 33/141/42 27/142/42 30/143/42 34/144/42
f 35/145/43 36/146/43 37/147/43
f 36/148/44 35/149/44 38/150/44 39/151/44
f 39/152/45 38/153/45 40/154/45
f 41/155/46 35/156/46 37/157/46
f 35/158/47 41/159/47 42/160/47 38/161/47
f 38/162/48 42/163/48 40/164/48
f 43/165/49 41/166/49 37/167/49
f 41/168/50 43/169/50 44/170/50 42/171/50
f 42/172/51 44/173/51 40/174/51
f 45/175/52 43/176/52 37/177/52
f 43/178/53 45/179/53 46/180/53 44/181/53
f 44/182/54 46/183/54 40/184/54
f 47/185/55 45/186/55 37/187/55
f 45/188/56 47/189/56 48/190/56 46/191/56
f 46/192/57 48/193/57 40/194/57
f 49/195/58 47/196/58 37/197/58
f 47/198/59 49/199/59 50/200/59 48/201/59
f 48/202/60 50/203/60 40/204/60
f 51/205/61 49/206/61 37/207/61
f 49/208/62 51/209/62 52/210/62 50/211/62
f 50/212/63 52/213/63 40/214/63
f 53/215/64 51/216/64 37/217/64
f 51/218/65 53/219/65 54/220/65 52/221/65
f 52/222/66 54/223/66 40/224/66
f 55/225/67 53/226/67 37/227/67
f 53/228/68 55/229/68 56/230/68 54/231/68
f 54/232/69 56/233/69 40/234/69
f 57/235/70 55/236/70 37/237/70
f 55/238/71 57/239/71 58/240/71 56/241/71
f 56/242/72 58/243/72 40/244/72
f 59/245/73 57/246/73 37/247/73
f 57/248/74 59/249/74 60/250/74 58/251/74
f 58/252/75 60/253/75 40/254/75
f 36/255/76 59/256/76 37/257/76
f 59/258/77 36/259/77 39/260/77 60/261/77
f 60/262/78 39/263/78 40/264/78
f 61/265/79 62/266/79 63/267/79
f 62/268/80 61/269/80 64/270/80 65/271/80
f 65/272/81 64/273/81 66/274/81
f 67/275/82 61/276/82 63/277/82
f 61/278/83 67/279/83 68/280/83 64/281/83
f 64/282/84 68/283/84 66/284/84
f 69/285/85 67/286/85 63/287/85
f 67/288/86 69/289/86 70/290/86 68/291/86
f 68/292/87 70/293/87 66/294/87
f 71/295/88 69/296/88 63/297/88
f 69/298/89 71/299/89 72/300/89 70/301/89
f 70/302/90 72/303/90 66/304/90
f 73/305/91 71/306/91 63/307/91
f 71/308/92 73/309/92 74/310/92 72/311/92
f 72/312/93 74/313/93 66/314/93
f 75/315/94 73/316/94 63/317/94
f 73/318/95 75/319/95 76/320/95 74/321/95
f 74/322/96 76/323/96 66/324/96
f 77/325/97 75/326/97 63/327/97
f 75/328/98 77/329/98 78/330/98 76/331/98
f 76/332/99 78/333/99 66/334/99
f 79/335/100 77/336/100 63/337/100
f 77/338/101 79/339/101 80/340/101 78/341/101
f 78/342/102 80/343/102 66/344/102
f 81/345/103 79/346/103 63/347/103
f 79/348/104 81/349/104 82/350/104 80/351/104
f 80/352/105 82/353/105 66/354/105
f 83/355/106 81/356/106 63/357/106
f 81/358/107 83/359/107 84/360/107 82/361/107
f 82/362/108 84/363/108 66/364/108
f 85/365/109 83/366/109 63/367/109
f 83/368/110 85/369/110 86/370/110 84/371/110
f 84/372/111 86/373/111 66/374/111
f 62/375/112 85/376/112 63/377/112
f 85/378/113 62/379/113 65/380/113 86/381/113
f 86/382/114 65/383/114 66/384/114