# Made in Blockbench 5.1.6
mtllib deco_barrel.mtl

o cylinder
v 0.27451875 0 0.27451875
v 0.10048125 0 0.375
v 0 0 0
v 0.27451875 1 0.27451875
v 0.10048125 1 0.375
v 0 1 0
v 0.375 0 0.10048125
v 0.375 1 0.10048125
v 0.375 0 -0.10048125
v 0.375 1 -0.10048125
v 0.27451875 0 -0.27451875
v 0.27451875 1 -0.27451875
v 0.10048125 0 -0.375
v 0.10048125 1 -0.375
v -0.10048125 0 -0.375
v -0.10048125 1 -0.375
v -0.27451875 0 -0.27451875
v -0.27451875 1 -0.27451875
v -0.375 0 -0.10048125
v -0.375 1 -0.10048125
v -0.375 0 0.10048125
v -0.375 1 0.10048125
v -0.27451875 0 0.27451875
v -0.27451875 1 0.27451875
v -0.10048125 0 0.375
v -0.10048125 1 0.375
vt 0.5061296875 0.9748796875
vt 0.4626203125 1
vt 0.4375 0.90625
vt 0.1032453125 0.484375
vt 0.1534859375 0.484375
vt 0.1534859375 0.734375
vt 0.1032453125 0.734375
vt 0.4626203125 0.609375
vt 0.5061296875 0.6344953125
vt 0.4375 0.703125
vt 0.53125 0.9313703125
vt 0.5061296875 0.9748796875
vt 0.4375 0.90625
vt 0.0027640625 0.75
vt 0.0530046875 0.75
vt 0.0530046875 1
vt 0.0027640625 1
vt 0.5061296875 0.6344953125
vt 0.53125 0.6780046875
vt 0.4375 0.703125
vt 0.53125 0.8811296875
vt 0.53125 0.9313703125
vt 0.4375 0.90625
vt 0.0530046875 0.75
vt 0.1032453125 0.75
vt 0.1032453125 1
vt 0.0530046875 1
vt 0.53125 0.6780046875
vt 0.53125 0.7282453125
vt 0.4375 0.703125
vt 0.5061296875 0.8376203125
vt 0.53125 0.8811296875
vt 0.4375 0.90625
vt 0.1032453125 0.75
vt 0.1534859375 0.75
vt 0.1534859375 1
vt 0.1032453125 1
vt 0.53125 0.7282453125
vt 0.5061296875 0.7717546875
vt 0.4375 0.703125
vt 0.4626203125 0.8125
vt 0.5061296875 0.8376203125
vt 0.4375 0.90625
vt 0.1746390625 0.484375
vt 0.2248796875 0.484375
vt 0.2248796875 0.734375
vt 0.1746390625 0.734375
vt 0.5061296875 0.7717546875
vt 0.4626203125 0.796875
vt 0.4375 0.703125
vt 0.4123796875 0.8125
vt 0.4626203125 0.8125
vt 0.4375 0.90625
vt 0.2248796875 0.484375
vt 0.2751203125 0.484375
vt 0.2751203125 0.734375
vt 0.2248796875 0.734375
vt 0.4626203125 0.796875
vt 0.4123796875 0.796875
vt 0.4375 0.703125
vt 0.3688703125 0.8376203125
vt 0.4123796875 0.8125
vt 0.4375 0.90625
vt 0.2751203125 0.484375
vt 0.3253609375 0.484375
vt 0.3253609375 0.734375
vt 0.2751203125 0.734375
vt 0.4123796875 0.796875
vt 0.3688703125 0.7717546875
vt 0.4375 0.703125
vt 0.34375 0.8811296875
vt 0.3688703125 0.8376203125
vt 0.4375 0.90625
vt 0.1746390625 0.75
vt 0.2248796875 0.75
vt 0.2248796875 1
vt 0.1746390625 1
vt 0.3688703125 0.7717546875
vt 0.34375 0.7282453125
vt 0.4375 0.703125
vt 0.34375 0.9313703125
vt 0.34375 0.8811296875
vt 0.4375 0.90625
vt 0.2248796875 0.75
vt 0.2751203125 0.75
vt 0.2751203125 1
vt 0.2248796875 1
vt 0.34375 0.7282453125
vt 0.34375 0.6780046875
vt 0.4375 0.703125
vt 0.3688703125 0.9748796875
vt 0.34375 0.9313703125
vt 0.4375 0.90625
vt 0.2751203125 0.75
vt 0.3253609375 0.75
vt 0.3253609375 1
vt 0.2751203125 1
vt 0.34375 0.6780046875
vt 0.3688703125 0.6344953125
vt 0.4375 0.703125
vt 0.4123796875 1
vt 0.3688703125 0.9748796875
vt 0.4375 0.90625
vt 0.0027640625 0.484375
vt 0.0530046875 0.484375
vt 0.0530046875 0.734375
vt 0.0027640625 0.734375
vt 0.3688703125 0.6344953125
vt 0.4123796875 0.609375
vt 0.4375 0.703125
vt 0.4626203125 1
vt 0.4123796875 1
vt 0.4375 0.90625
vt 0.0530046875 0.484375
vt 0.1032453125 0.484375
vt 0.1032453125 0.734375
vt 0.0530046875 0.734375
vt 0.4123796875 0.609375
vt 0.4626203125 0.609375
vt 0.4375 0.703125
vn 0 -1 0
vn 0.500002435262396 0 0.8660239977804736
vn 0 1 0
vn 0 -1 0
vn 0.8660239977804736 0 0.500002435262396
vn 0 1 0
vn 0 -1 0
vn 1 0 0
vn 0 1 0
vn 0 -1 0
vn 0.8660239977804736 0 -0.500002435262396
vn 0 1 0
vn 0 -1 0
vn 0.500002435262396 0 -0.8660239977804736
vn 0 1 0
vn 0 -1 0
vn 0 0 -1
vn 0 1 0
vn 0 -1 0
vn -0.500002435262396 0 -0.8660239977804736
vn 0 1 0
vn 0 -1 0
vn -0.8660239977804736 0 -0.500002435262396
vn 0 1 0
vn 0 -1 0
vn -1 0 0
vn 0 1 0
vn 0 -1 0
vn -0.8660239977804736 0 0.500002435262396
vn 0 1 0
vn 0 -1 0
vn -0.500002435262396 0 0.8660239977804736
vn 0 1 0
vn 0 -1 0
vn 0 0 1
vn 0 1 0
usemtl m_5b1b31e9-ecaf-6809-8710-269a97f5ae8a
f 1/1/1 2/2/1 3/3/1
f 2/4/2 1/5/2 4/6/2 5/7/2
f 5/8/3 4/9/3 6/10/3
f 7/11/4 1/12/4 3/13/4
f 1/14/5 7/15/5 8/16/5 4/17/5
f 4/18/6 8/19/6 6/20/6
f 9/21/7 7/22/7 3/23/7
f 7/24/8 9/25/8 10/26/8 8/27/8
f 8/28/9 10/29/9 6/30/9
f 11/31/10 9/32/10 3/33/10
f 9/34/11 11/35/11 12/36/11 10/37/11
f 10/38/12 12/39/12 6/40/12
f 13/41/13 11/42/13 3/43/13
f 11/44/14 13/45/14 14/46/14 12/47/14
f 12/48/15 14/49/15 6/50/15
f 15/51/16 13/52/16 3/53/16
f 13/54/17 15/55/17 16/56/17 14/57/17
f 14/58/18 16/59/18 6/60/18
f 17/61/19 15/62/19 3/63/19
f 15/64/20 17/65/20 18/66/20 16/67/20
f 16/68/21 18/69/21 6/70/21
f 19/71/22 17/72/22 3/73/22
f 17/74/23 19/75/23 20/76/23 18/77/23
f 18/78/24 20/79/24 6/80/24
f 21/81/25 19/82/25 3/83/25
f 19/84/26 21/85/26 22/86/26 20/87/26
f 20/88/27 22/89/27 6/90/27
f 23/91/28 21/92/28 3/93/28
f 21/94/29 23/95/29 24/96/29 22/97/29
f 22/98/30 24/99/30 6/100/30
f 25/101/31 23/102/31 3/103/31
f 23/104/32 25/105/32 26/106/32 24/107/32
f 24/108/33 26/109/33 6/110/33
f 2/111/34 25/112/34 3/113/34
f 25/114/35 2/115/35 5/116/35 26/117/35
f 26/118/36 5/119/36 6/120/36