# Made in Blockbench 5.1.6
mtllib drobitel.mtl

o 1
v 1.5000625 1.625 1.25
v 1.5000625 1.625 1.5
v 1.5000625 1 1.5
v 1.5000625 1 1.25
v -1.5000625 1 1.5
v -1.5000625 1.625 1.5
v -1.5000625 1.625 1.25
v -1.5000625 1 1.25
v -0.5 0 1.5
v -0.5 1 1.5
v -1.5 1 1.5
v -1.5 0 1.5
v -0.491025625 1 0.8125
v -0.491025625 0 0.8125
v -1.5 1.625 1.25
v -1.5 0 1.25
v 1.5 1.625 1.25
v 1.5 1 1.5
v 1.5 0 1.5
v 1.5 0 1.25
v 0.5 0 1.5
v 0.5 1 1.5
v 0.508974375 1 0.8125
v 0.508974375 0 0.8125
v -0.5 0.0000625 -1.5
v -0.5 1 -1.5
v -0.491025625 1 -0.8125
v -0.491025625 0.0000625 -0.8125
v -1.5 0.0000625 -1.5
v -1.5 0.0000625 -1.25
v 1.50000625 0.0000625 -1.5
v 1.5000625 1 -1.5
v 1.5000625 1.625 -1.25
v 1.50000625 0.0000625 -1.25
v 0.508974375 1 -0.8125
v 0.5 1 -1.5
v 0.5 0.0000625 -1.5
v 0.508974375 0.0000625 -0.8125
v 1.5000625 1.625 -1.5
v 1.5000625 1 -1.25
v -1.5000625 1.625 -1.25
v -1.5000625 1.625 -1.5000625
v -1.5000625 1 -1.5
v -1.5000625 1 -1.25
v 0.508974375 1 -1.25
v 0.508974375 1 1.25
v 0.508974375 0 1.25
v 0.508974375 0 -1.25
v -0.491025625 0 1.25
v -0.491025625 1 1.25
v -0.491025625 1 -1.25
v -0.491025625 0 -1.25
v 1.3125 1.25 -1.25
v 1.3125 1.25 1.25
v 1.3125 1 1.25
v 1.3125 1 -1.25
v -1.3125 1 1.25
v -1.3125 1.25 1.25
v -1.3125 1.25 -1.25
v -1.3125 1 -1.25
v -1.4375 1.516746875 1.25
v -1.04237625 1.744871875 1.25
v -1.09807625 1.85705125 1.25
v -1.5 1.625 1.25
v -1.09807625 1.85705125 -1.25
v -1.04237625 1.744871875 -1.25
v -1.4375 1.516746875 -1.25
v 1.09807625 1.85705125 1.25
v 1.04237625 1.744871875 1.25
v 1.4375 1.516746875 1.25
v 1.5 1.625 1.25
v 1.4375 1.516746875 -1.25
v 1.04237625 1.744871875 -1.25
v 1.09807625 1.85705125 -1.25
v -1.25 0.9890125 1.25
v -1.25 1.625 1.25
v -1.5 1.625 1.25
v -1.366025625 0.959775625 1.25
v -1.25 1.625 -1.25
v -1.25 0.9890125 -1.25
v -1.366025625 0.959775625 -1.25
v 1.5 1.625 1.25
v 1.25 1.625 1.25
v 1.25 0.9890125 1.25
v 1.366025625 0.959775625 1.25
v 1.25 0.9890125 -1.25
v 1.25 1.625 -1.25
v 1.366025625 0.959775625 -1.25
v 1.366025625 0.959775625 1.25
v 1.133974375 1.09375 1.25
v 1 0.59375 1.25
v 1.366025625 0.959775625 -1.25
v 1.133974375 1.09375 -1.25
v 1 0.59375 -1.25
v 1.5 0.727724375 1.25
v 1.5 0.727724375 -1.25
v 1.5 0 1.25
v 1.5 0 1.25
v 0.5 0 1.25
v 0.5 0 -1.25
v 0.5 0 -1.25
v -1.133974375 1.09375 1.25
v -1.366025625 0.959775625 1.25
v -1 0.59375 1.25
v -1.366025625 0.959775625 -1.25
v -1.133974375 1.09375 -1.25
v -1 0.59375 -1.25
v -1.5 0.727724375 1.25
v -1.5 0.727724375 -1.25
v -1.5 0 1.25
v -1.5 0 -1.25
v -1.5 0 1.25
v -1.5 0 -1.25
v -0.5 0 1.25
v -0.5 0 -1.25
v -0.5 0 -1.25
v 1.09807625 1.85705125 1.25
v 1.5 1.625 1.25
v 0 1.491025625 1.25
v 1.09807625 1.85705125 1.5000625
v 1.5 1.625 1.5000625
v 0 1.491025625 1.5000625
v 0.40192375 1.991025625 1.25
v 0.40192375 1.991025625 1.5000625
v -0.40192375 1.991025625 1.25
v -0.40192375 1.991025625 1.5000625
v -1.09807625 1.85705125 1.25
v -1.09807625 1.85705125 1.5000625
v -1.5 1.625 1.25
v -1.5 1.625 1.5000625
v -1.5 1.35705125 1.25
v -1.5 1.35705125 1.5000625
v 1.5 1.35705125 1.25
v 1.5 1.35705125 1.5000625
v 1.09807625 1.85705125 -1.25
v 0 1.491025625 -1.25
v 1.09807625 1.85705125 -1.5000625
v 1.5 1.625 -1.5000625
v 0 1.491025625 -1.5000625
v 0.40192375 1.991025625 -1.25
v 0.40192375 1.991025625 -1.5000625
v -0.40192375 1.991025625 -1.25
v -0.40192375 1.991025625 -1.5000625
v -1.09807625 1.85705125 -1.25
v -1.09807625 1.85705125 -1.5000625
v -1.5 1.35705125 -1.25
v -1.5 1.35705125 -1.5000625
v 1.5 1.35705125 -1.25
v 1.5 1.35705125 -1.5000625
vt 0.375 0.5
vt 0.359375 0.5
vt 0.359375 0.4609375
vt 0.375 0.4609375
vt 0.39453125 0.4609375
vt 0.39453125 0.5
vt 0.37890625 0.5
vt 0.37890625 0.4609375
vt 0.46875 0.46484375
vt 0.65625 0.46484375
vt 0.65625 0.48046875
vt 0.46875 0.48046875
vt 0.71484375 0.94140625
vt 0.71484375 0.95703125
vt 0.52734375 0.95703125
vt 0.52734375 0.94140625
vt 0.52734375 0.84375
vt 0.33984375 0.84375
vt 0.33984375 0.8046875
vt 0.52734375 0.8046875
vt 0.1484375 0.46875
vt 0.1484375 0.53125
vt 0.0859375 0.53125
vt 0.0859375 0.46875
vt 0.546875 0.4609375
vt 0.50390625 0.4609375
vt 0.50390625 0.3984375
vt 0.546875 0.3984375
vt 0.51171875 0.30078125
vt 0.51171875 0.36328125
vt 0.49609375 0.40234375
vt 0.49609375 0.30078125
vt 0.13448515625 0.41796875
vt 0.19698515625 0.41796875
vt 0.19754609375 0.4609375
vt 0.13448515625 0.43359375
vt 0.59375 0.80078125
vt 0.59375 0.843753671875
vt 0.5314539453125 0.8445694921875
vt 0.53125 0.8289458203125
vt 0.40625 0.671875
vt 0.3359375 0.6328125
vt 0.3359375 0.5703125
vt 0.40625 0.5703125
vt 0.60546875 0.4140625
vt 0.58984375 0.375
vt 0.58984375 0.3125
vt 0.60546875 0.3125
vt 0.59375 0.3984375
vt 0.59375 0.4609375
vt 0.55078125 0.4609375
vt 0.55078125 0.3984375
vt 0.16015625 0.5946472656249999
vt 0.22265625 0.5946472656249999
vt 0.22265625 0.63671875
vt 0.1607171875 0.61060546875
vt 0.421875 0.43359375
vt 0.421875 0.44921875
vt 0.359375 0.44921875
vt 0.3599359375 0.40625
vt 0.22265625 0.5321472656249999
vt 0.22265625 0.5946472656249999
vt 0.16015625 0.5946472656249999
vt 0.16015625 0.5321472656249999
vt 0.15625 0.59765625
vt 0.08984375 0.63671875
vt 0.08984375 0.53515625
vt 0.15625 0.53515625
vt 0.24609375 0.37109375
vt 0.24609375 0.43359375
vt 0.203125 0.43359375
vt 0.203125 0.37109375
vt 0.4921875 0.39453125
vt 0.4765625 0.35546875
vt 0.4765625 0.29296875
vt 0.4921875 0.29296875
vt 0.12890625 0.4210555078125
vt 0.12890625 0.46402792968749995
vt 0.0666101953125 0.46484375
vt 0.06640625 0.449220078125
vt 0.43526640625 0.41796875
vt 0.49776640625 0.41796875
vt 0.49832734375 0.4609375
vt 0.43526640625 0.43359375
vt 0.21484375 0.52734375
vt 0.15234375 0.52734375
vt 0.15234375 0.46484375
vt 0.21484375 0.46484375
vt 0.41796875 0.85546875
vt 0.41796875 0.91796875
vt 0.34765625 0.95703125
vt 0.34765625 0.85546875
vt 0.1015625 0.296875
vt 0.1015625 0.359375
vt 0.0859375 0.3984375
vt 0.0859375 0.296875
vt 0.29296875 0.43359375
vt 0.25 0.43359375
vt 0.25 0.37109375
vt 0.29296875 0.37109375
vt 0.41015625 0.6640625
vt 0.41015625 0.6219910156249999
vt 0.47265625 0.6219910156249999
vt 0.4720953125 0.63794921875
vt 0.53515625 0.76953125
vt 0.59765625 0.76953125
vt 0.59765625 0.78515625
vt 0.5357171875 0.8125
vt 0.47265625 0.6219910156249999
vt 0.41015625 0.6219910156249999
vt 0.41015625 0.5594910156249999
vt 0.47265625 0.5594910156249999
vt 0.29296875 0.54296875
vt 0.29296875 0.64453125
vt 0.2265625 0.60546875
vt 0.2265625 0.54296875
vt 0.61328125 0.421875
vt 0.61328125 0.4609375
vt 0.59765625 0.4609375
vt 0.59765625 0.421875
vt 0.6171875 0.8125
vt 0.6015625 0.8125
vt 0.6015625 0.7734375
vt 0.6171875 0.7734375
vt 0.71484375 0.921875
vt 0.71484375 0.9375
vt 0.52734375 0.9375
vt 0.52734375 0.921875
vt 0.52734375 0.90234375
vt 0.71484375 0.90234375
vt 0.71484375 0.91796875
vt 0.52734375 0.91796875
vt 0.53125 1
vt 0.34375 1
vt 0.34375 0.9609375
vt 0.53125 0.9609375
vt 0.53125 0.76171875
vt 0.53125 0.80078125
vt 0.34375 0.80078125
vt 0.34375 0.76171875
vt 0.5234375 0.95703125
vt 0.421875 0.95703125
vt 0.421875 0.89453125
vt 0.5234375 0.89453125
vt 0.3984375 0.50390625
vt 0.3984375 0.56640625
vt 0.296875 0.56640625
vt 0.296875 0.50390625
vt 0.40234375 0.453125
vt 0.46484375 0.453125
vt 0.46484375 0.5546875
vt 0.40234375 0.5546875
vt 0.2890625 0.4375
vt 0.2890625 0.5390625
vt 0.2265625 0.5390625
vt 0.2265625 0.4375
vt 0.35546875 0.4375
vt 0.35546875 0.5
vt 0.29296875 0.5
vt 0.29296875 0.4375
vt 0.0625 0.48828125
vt 0 0.48828125
vt 0 0.42578125
vt 0.0625 0.42578125
vt 0.7265625 0.71875
vt 0.5703125 0.71875
vt 0.5703125 0.703125
vt 0.7265625 0.703125
vt 0.7265625 0.68359375
vt 0.7265625 0.69921875
vt 0.5703125 0.69921875
vt 0.5703125 0.68359375
vt 0 0.84375
vt 0.1640625 0.84375
vt 0.1640625 1
vt 0 1
vt 0.1640625 0.68359375
vt 0.1640625 0.83984375
vt 0 0.83984375
vt 0 0.68359375
vt 0.69921875 0.984375
vt 0.69921875 1
vt 0.53515625 1
vt 0.53515625 0.984375
vt 0.69921875 0.98046875
vt 0.53515625 0.98046875
vt 0.53515625 0.96484375
vt 0.69921875 0.96484375
vt 0.39453125 0.68359375
vt 0.39453125 0.7104468749999999
vt 0.38671875 0.7109375
vt 0.38671875 0.68359375
vt 0.40625 0.7109375
vt 0.3984375 0.7104468749999999
vt 0.3984375 0.68359375
vt 0.40625 0.68359375
vt 0.5703125 0.6796875
vt 0.5703125 0.671875
vt 0.7265625 0.671875
vt 0.7265625 0.6796875
vt 0.6328125 0.5703125
vt 0.4765625 0.5703125
vt 0.4765625 0.5625
vt 0.6328125 0.5625
vt 0.6328125 0.6640625
vt 0.4765625 0.6640625
vt 0.4765625 0.63671875
vt 0.6328125 0.63671875
vt 0.6328125 0.60546875
vt 0.6328125 0.6328125
vt 0.4765625 0.6328125
vt 0.4765625 0.60546875
vt 0.41796875 0.95703125
vt 0.41015625 0.956540625
vt 0.41015625 0.9296875
vt 0.41796875 0.9296875
vt 0.08203125 0.47265625
vt 0.08203125 0.49950937500000003
vt 0.07421875 0.5
vt 0.07421875 0.47265625
vt 0.59765625 0.83984375
vt 0.75390625 0.83984375
vt 0.75390625 0.84765625
vt 0.59765625 0.84765625
vt 0.73828125 0.8515625
vt 0.73828125 0.859375
vt 0.58203125 0.859375
vt 0.58203125 0.8515625
vt 0.6328125 0.57421875
vt 0.6328125 0.6015625
vt 0.4765625 0.6015625
vt 0.4765625 0.57421875
vt 0.625 0.51171875
vt 0.46875 0.51171875
vt 0.46875 0.484375
vt 0.625 0.484375
vt 0.36328125 0.6711882812500001
vt 0.36328125 0.7109375
vt 0.34765625 0.7109375
vt 0.3560296875 0.6693609375
vt 0.3828125 0.7109375
vt 0.3671875 0.7109375
vt 0.3671875 0.6711882812500001
vt 0.3744390625 0.6693609375
vt 0.58203125 0.8984375
vt 0.58203125 0.8828125
vt 0.73828125 0.8828125
vt 0.73828125 0.8984375
vt 0.75390625 0.8359375
vt 0.59765625 0.8359375
vt 0.59765625 0.828125
vt 0.75390625 0.828125
vt 0.578125 0.890625
vt 0.421875 0.890625
vt 0.421875 0.8515625
vt 0.578125 0.8515625
vt 0.50390625 0.71484375
vt 0.50390625 0.7578125
vt 0.34765625 0.7578125
vt 0.34765625 0.71484375
vt 0.3125 0.6171875
vt 0.296875 0.6171875
vt 0.296875 0.5774382812500001
vt 0.3041265625 0.5756109375
vt 0.33203125 0.5774382812500001
vt 0.33203125 0.6171875
vt 0.31640625 0.6171875
vt 0.3247796875 0.5756109375
vt 0.58203125 0.86328125
vt 0.73828125 0.86328125
vt 0.73828125 0.87890625
vt 0.58203125 0.87890625
vt 0.75390625 0.81640625
vt 0.75390625 0.82421875
vt 0.59765625 0.82421875
vt 0.59765625 0.81640625
vt 0.625 0.515625
vt 0.625 0.5546875
vt 0.46875 0.5546875
vt 0.46875 0.515625
vt 0.56640625 0.7109375
vt 0.41015625 0.7109375
vt 0.41015625 0.66796875
vt 0.56640625 0.66796875
vt 0.3392828125 0.42326718750000003
vt 0.3247796875 0.431640625
vt 0.31640625 0.400390625
vt 0.06640625 0.27734375
vt 0.08203125 0.27734375
vt 0.08203125 0.43359375
vt 0.06640625 0.43359375
vt 0.1411859375 0.345703125
vt 0.1556890625 0.35407656249999997
vt 0.1328125 0.376953125
vt 0.34765625 0.40876406249999997
vt 0.3392828125 0.42326718750000003
vt 0.31640625 0.400390625
vt 0.23451015625 0.84375
vt 0.25125703125 0.84375
vt 0.25125703125 1
vt 0.23451015625 1
vt 0.1556890625 0.35407656249999997
vt 0.1640625 0.36857968750000003
vt 0.1328125 0.376953125
vt 0.34765625 0.36328125
vt 0.34765625 0.40876406249999997
vt 0.31640625 0.400390625
vt 0.25125703125 0.84375
vt 0.29673984375 0.84375
vt 0.29673984375 1
vt 0.25125703125 1
vt 0.1640625 0.36857968750000003
vt 0.1640625 0.4140625
vt 0.1328125 0.376953125
vt 0.0496479296875 1
vt 0.0496479296875 1
vt 0.0011333203125 1
vt 0 1
vt 0 1
vt 0 1
vt 0 0.3828125
vt 0.0625 0.3828125
vt 0.03125 0.419921875
vt 0.16796875 0.84375
vt 0.23046875 0.84375
vt 0.23046875 1
vt 0.16796875 1
vt 0.1484375 0.4140625
vt 0.0859375 0.4140625
vt 0.1171875 0.376953125
vt 0 1
vt 0 1
vt 0 1
vt 0 1
vt 0 1
vt 0 0.951485390625
vt 0.1908453125 0.412109375
vt 0.1763421875 0.40373593750000003
vt 0.19921875 0.380859375
vt 0.296875 0.43359375
vt 0.296875 0.27734375
vt 0.3125 0.27734375
vt 0.3125 0.43359375
vt 0.3599359375 0.34626406249999997
vt 0.3744390625 0.337890625
vt 0.3828125 0.369140625
vt 0.1763421875 0.40373593750000003
vt 0.16796875 0.38923281249999997
vt 0.19921875 0.380859375
vt 0.27999296875 0.83984375
vt 0.27999296875 0.68359375
vt 0.29673984375 0.68359375
vt 0.29673984375 0.83984375
vt 0.3515625 0.36076718750000003
vt 0.3599359375 0.34626406249999997
vt 0.3828125 0.369140625
vt 0.16796875 0.38923281249999997
vt 0.16796875 0.34375
vt 0.19921875 0.380859375
vt 0.23451015625 0.83984375
vt 0.23451015625 0.68359375
vt 0.27999296875 0.68359375
vt 0.27999296875 0.83984375
vt 0.3515625 0.40625
vt 0.3515625 0.36076718750000003
vt 0.3828125 0.369140625
vt 0 1
vt 0 1
vt 0 0.951485390625
vt 0 1
vt 0 1
vt 0 1
vt 0 1
vt 0 1
vt 0 1
vt 0 0.951485390625
vt 0.3828125 0.3828125
vt 0.4453125 0.3828125
vt 0.4140625 0.419921875
vt 0.16796875 0.83984375
vt 0.16796875 0.68359375
vt 0.23046875 0.68359375
vt 0.23046875 0.83984375
vt 0.49609375 0.4140625
vt 0.43359375 0.4140625
vt 0.46484375 0.376953125
vt 0 1
vt 0 1
vt 0 1
vt 0.0496479296875 1
vt 0.0496479296875 1
vt 0.0011333203125 1
vt 0.33370390625 0.9748796875
vt 0.31920078125 1
vt 0.31082734375 0.90625
vt 0.508987109375 0.7421875
vt 0.537993359375 0.7421875
vt 0.537993359375 0.7578125
vt 0.508987109375 0.7578125
vt 0.31920078125 0.62109375
vt 0.33370390625 0.6462140625
vt 0.31082734375 0.71484375
vt 0.34207734375 0.9313703125
vt 0.33370390625 0.9748796875
vt 0.31082734375 0.90625
vt 0.537993359375 0.7421875
vt 0.5823015625 0.7421875
vt 0.5823015625 0.7578125
vt 0.537993359375 0.7578125
vt 0.33370390625 0.6462140625
vt 0.34207734375 0.6897234375
vt 0.31082734375 0.71484375
vt 0.34207734375 0.8811296875
vt 0.34207734375 0.9313703125
vt 0.31082734375 0.90625
vt 0.5823015625 0.7421875
vt 0.6325421875 0.7421875
vt 0.6325421875 0.7578125
vt 0.5823015625 0.7578125
vt 0.34207734375 0.6897234375
vt 0.34207734375 0.7399640625
vt 0.31082734375 0.71484375
vt 0.33370390625 0.8376203125
vt 0.34207734375 0.8811296875
vt 0.31082734375 0.90625
vt 0.6325421875 0.7421875
vt 0.676850390625 0.7421875
vt 0.676850390625 0.7578125
vt 0.6325421875 0.7578125
vt 0.34207734375 0.7399640625
vt 0.33370390625 0.7834734375
vt 0.31082734375 0.71484375
vt 0.31920078125 0.8125
vt 0.33370390625 0.8376203125
vt 0.31082734375 0.90625
vt 0.676850390625 0.7421875
vt 0.705856640625 0.7421875
vt 0.705856640625 0.7578125
vt 0.676850390625 0.7578125
vt 0.33370390625 0.7834734375
vt 0.31920078125 0.80859375
vt 0.31082734375 0.71484375
vt 0.30245390625 0.8125
vt 0.31920078125 0.8125
vt 0.31082734375 0.90625
vt 0.27734375 0.6640625
vt 0.29296875 0.6640625
vt 0.29296875 0.6796875
vt 0.27734375 0.6796875
vt 0.31920078125 0.80859375
vt 0.30245390625 0.80859375
vt 0.31082734375 0.71484375
vt 0.31920078125 1
vt 0.30245390625 1
vt 0.31082734375 0.90625
vt 0.12890625 0.62109375
vt 0.14453125 0.62109375
vt 0.14453125 0.63671875
vt 0.12890625 0.63671875
vt 0.30245390625 0.62109375
vt 0.31920078125 0.62109375
vt 0.31082734375 0.71484375
vt 0.01841953125 0.4921875
vt 0.03292265625 0.5173078125
vt 0.01004609375 0.5859375
vt 0.676850390625 0.73828125
vt 0.676850390625 0.72265625
vt 0.705856640625 0.72265625
vt 0.705856640625 0.73828125
vt 0.07589140625 0.6545671875
vt 0.06138828125 0.6796875
vt 0.05301484375 0.5859375
vt 0.03292265625 0.5173078125
vt 0.04129609375 0.5608171875
vt 0.01004609375 0.5859375
vt 0.6325421875 0.73828125
vt 0.6325421875 0.72265625
vt 0.676850390625 0.72265625
vt 0.676850390625 0.73828125
vt 0.08426484375 0.6110578125
vt 0.07589140625 0.6545671875
vt 0.05301484375 0.5859375
vt 0.04129609375 0.5608171875
vt 0.04129609375 0.6110578125
vt 0.01004609375 0.5859375
vt 0.5823015625 0.73828125
vt 0.5823015625 0.72265625
vt 0.6325421875 0.72265625
vt 0.6325421875 0.73828125
vt 0.08426484375 0.5608171875
vt 0.08426484375 0.6110578125
vt 0.05301484375 0.5859375
vt 0.04129609375 0.6110578125
vt 0.03292265625 0.6545671875
vt 0.01004609375 0.5859375
vt 0.537993359375 0.73828125
vt 0.537993359375 0.72265625
vt 0.5823015625 0.72265625
vt 0.5823015625 0.73828125
vt 0.07589140625 0.5173078125
vt 0.08426484375 0.5608171875
vt 0.05301484375 0.5859375
vt 0.03292265625 0.6545671875
vt 0.01841953125 0.6796875
vt 0.01004609375 0.5859375
vt 0.508987109375 0.73828125
vt 0.508987109375 0.72265625
vt 0.537993359375 0.72265625
vt 0.537993359375 0.73828125
vt 0.06138828125 0.4921875
vt 0.07589140625 0.5173078125
vt 0.05301484375 0.5859375
vt 0.01841953125 0.6796875
vt 0.00167265625 0.6796875
vt 0.01004609375 0.5859375
vt 0.1484375 0.63671875
vt 0.1484375 0.62109375
vt 0.1640625 0.62109375
vt 0.1640625 0.63671875
vt 0.04464140625 0.4921875
vt 0.06138828125 0.4921875
vt 0.05301484375 0.5859375
vt 0.00167265625 0.4921875
vt 0.01841953125 0.4921875
vt 0.01004609375 0.5859375
vt 0.2265625 0.63671875
vt 0.2265625 0.62109375
vt 0.2421875 0.62109375
vt 0.2421875 0.63671875
vt 0.06138828125 0.6796875
vt 0.04464140625 0.6796875
vt 0.05301484375 0.5859375
vt 0.2734375 0.640625
vt 0.2734375 0.6796875
vt 0.0859375 0.6796875
vt 0.0859375 0.640625
vn 1 0 0
vn -1 0 0
vn 0 1 0
vn 0 -1 0
vn 0 0 -1
vn 0 0 1
vn 0.9999148121755277 0 0.013052524352753062
vn -1 0 0
vn 0 1 0
vn 0 -1 0
vn -0.3978200743593846 0 -0.9174634534610596
vn 1 0 0
vn -0.9999148121755277 0 -0.013052524352753062
vn 0 0.3713906763541037 0.9284766908852594
vn 0 -1 0
vn 0 0 1
vn 0.40385872662456596 0 -0.9148213644910049
vn 0.9999148121755278 0 -0.013052524352753064
vn -0.9999999858380738 -0.00006250390560905657 0.0001562597640226414
vn 0 1 0
vn 0 -1 0
vn 0 0 -1
vn -0.39779933269481893 0 0.9174724469473495
vn 0.99999998852884 -0.000056253515199538174 0.00014063378799884544
vn -0.9999148121755278 0 0.013052524352753064
vn 0 0.3713906763541037 -0.9284766908852593
vn 0 -1 0
vn 0 0 -1
vn 0.40384479019145525 -0.000013979780421281489 0.9148275166608104
vn 1 0 0
vn -1 0 0
vn 0 1 0
vn 0 -1 0
vn 0.000020832465309450153 0 -0.9999999997830042
vn 0 0 1
vn 1 0 0
vn -1 0 0
vn 0 1 0
vn 0 -1 0
vn 0 0 1
vn 0 0 -1
vn 1 0 0
vn -1 0 0
vn 0 1 0
vn 0 -1 0
vn 0 0 1
vn 0 0 -1
vn 0 0 1
vn 0 0 -1
vn 0.8956682726689306 0.444722773572767 0
vn -0.8660253028382762 -0.5000001748438415 0
vn 0.5000003231359863 -0.8660252172217098 0
vn -0.5000007510372891 0.8660249701724234 0
vn 0 0 1
vn 0 0 -1
vn -0.8956682726689306 0.444722773572767 0
vn 0.8660253028382762 -0.5000001748438415 0
vn -0.5000003231359863 -0.8660252172217098 0
vn 0.5000007510372891 0.8660249701724234 0
vn 0 0 1
vn 0 0 -1
vn 0 1 0
vn 0.2443480480844991 -0.9696875947423971 0
vn 1 0 0
vn -0.9803163736467394 -0.19743304424403924 0.00002450790934120308
vn 0 0 1
vn 0 0 -1
vn 0 1 0
vn -0.2443480480844991 -0.9696875947423971 0
vn -1 0 0
vn 0.9803163736467394 -0.19743304424403924 0.000024507909341198438
vn 0 0 1
vn 0.4999986658300441 0.8660261740664515 0
vn 0 0 -1
vn 0 0 1
vn 0.8660261740664515 0.4999986658300441 0
vn 0 0 -1
vn 0 0 1
vn 0.9999999999968752 0 0.000002499999999986361
vn 0 0 -1
vn 0 0 0
vn 0 0 0
vn 0 0 1
vn 0 -1 0
vn 0 0 -1
vn 0 0 0
vn 0 0 0
vn 0 0 1
vn -0.4999986658300441 0.8660261740664515 0
vn 0 0 -1
vn 0 0 1
vn -0.8660261740664515 0.4999986658300441 0
vn 0 0 -1
vn 0 0 1
vn -1 0 0
vn 0 0 -1
vn 0 0 0
vn 0 0 0
vn 0 0 0
vn 0 0 1
vn 0 -1 0
vn 0 0 -1
vn 0 0 0
vn 0 0 0
vn 0 0 -1
vn 0.5000007510372891 0.8660249701724234 0
vn 0 0 1
vn 0 0 -1
vn 0.18898191537297845 0.9819805678637232 0
vn 0 0 1
vn 0 0 -1
vn 0 1 0
vn 0 0 1
vn 0 0 -1
vn -0.18898191537297845 0.9819805678637232 0
vn 0 0 1
vn 0 0 -1
vn -0.5000007510372891 0.8660249701724234 0
vn 0 0 1
vn 0 0 -1
vn -1 0 0
vn 0 0 1
vn 0 0 -1
vn 1 0 0
vn 0 0 1
vn 0 0 1
vn 0.49994244337561444 0.8660586315669515 0
vn 0 0 -1
vn 0 0 1
vn 0.18898191537297845 0.9819805678637232 0
vn 0 0 -1
vn 0 0 1
vn 0 1 0
vn 0 0 -1
vn 0 0 1
vn -0.18898191537297845 0.9819805678637232 0
vn 0 0 -1
vn 0 0 1
vn -0.49994244337561444 0.8660586315669515 0
vn 0 0 -1
vn 0 0 1
vn -0.9999999727963893 -0.00023325355427054886 0
vn 0 0 -1
vn 0 0 1
vn 0.9999999415620127 -0.0002332535469850193 -0.0002499375010155547
vn 0 0 -1
vn 0 0 1
usemtl m_24924ae6-b4c1-0ffe-2aae-5f47e153f3bf
f 1/1/1 2/2/1 3/3/1 4/4/1
f 5/5/2 6/6/2 7/7/2 8/8/2
f 6/9/3 2/10/3 1/11/3 7/12/3
f 4/13/4 3/14/4 5/15/4 8/16/4
f 7/17/5 1/18/5 4/19/5 8/20/5
f 9/21/6 10/22/6 11/23/6 12/24/6
f 13/25/7 10/26/7 9/27/7 14/28/7
f 12/29/8 11/30/8 15/31/8 16/32/8
f 11/33/9 10/34/9 13/35/9 15/36/9
f 14/37/10 9/38/10 12/39/10 16/40/10
f 15/41/11 13/42/11 14/43/11 16/44/11
f 17/45/12 18/46/12 19/47/12 20/48/12
f 21/49/13 22/50/13 23/51/13 24/52/13
f 22/53/14 18/54/14 17/55/14 23/56/14
f 20/57/15 19/58/15 21/59/15 24/60/15
f 19/61/16 18/62/16 22/63/16 21/64/16
f 23/65/17 17/66/17 20/67/17 24/68/17
f 25/69/18 26/70/18 27/71/18 28/72/18
f 41/73/19 43/74/19 29/75/19 30/76/19
f 27/77/20 26/78/20 43/79/20 41/80/20
f 29/81/21 25/82/21 28/83/21 30/84/21
f 43/85/22 26/86/22 25/87/22 29/88/22
f 28/89/23 27/90/23 41/91/23 30/92/23
f 31/93/24 32/94/24 33/95/24 34/96/24
f 35/97/25 36/98/25 37/99/25 38/100/25
f 33/101/26 32/102/26 36/103/26 35/104/26
f 37/105/27 31/106/27 34/107/27 38/108/27
f 36/109/28 32/110/28 31/111/28 37/112/28
f 34/113/29 33/114/29 35/115/29 38/116/29
f 32/117/30 39/118/30 33/119/30 40/120/30
f 41/121/31 42/122/31 43/123/31 44/124/31
f 33/125/32 39/126/32 42/127/32 41/128/32
f 43/129/33 32/130/33 40/131/33 44/132/33
f 42/133/34 39/134/34 32/135/34 43/136/34
f 40/137/35 33/138/35 41/139/35 44/140/35
f 45/141/36 46/142/36 47/143/36 48/144/36
f 49/145/37 50/146/37 51/147/37 52/148/37
f 50/149/38 46/150/38 45/151/38 51/152/38
f 48/153/39 47/154/39 49/155/39 52/156/39
f 47/157/40 46/158/40 50/159/40 49/160/40
f 51/161/41 45/162/41 48/163/41 52/164/41
f 53/165/42 54/166/42 55/167/42 56/168/42
f 57/169/43 58/170/43 59/171/43 60/172/43
f 58/173/44 54/174/44 53/175/44 59/176/44
f 56/177/45 55/178/45 57/179/45 60/180/45
f 55/181/46 54/182/46 58/183/46 57/184/46
f 59/185/47 53/186/47 56/187/47 60/188/47
f 61/189/48 62/190/48 63/191/48 64/192/48
f 65/193/49 66/194/49 67/195/49 41/196/49
f 63/197/50 62/198/50 66/199/50 65/200/50
f 67/201/51 61/202/51 64/203/51 41/204/51
f 66/205/52 62/206/52 61/207/52 67/208/52
f 64/209/53 63/210/53 65/211/53 41/212/53
f 68/213/54 69/214/54 70/215/54 71/216/54
f 72/217/55 73/218/55 74/219/55 33/220/55
f 73/221/56 69/222/56 68/223/56 74/224/56
f 71/225/57 70/226/57 72/227/57 33/228/57
f 70/229/58 69/230/58 73/231/58 72/232/58
f 74/233/59 68/234/59 71/235/59 33/236/59
f 75/237/60 76/238/60 77/239/60 78/240/60
f 41/241/61 79/242/61 80/243/61 81/244/61
f 77/245/62 76/246/62 79/247/62 41/248/62
f 80/249/63 75/250/63 78/251/63 81/252/63
f 79/253/64 76/254/64 75/255/64 80/256/64
f 78/257/65 77/258/65 41/259/65 81/260/65
f 82/261/66 83/262/66 84/263/66 85/264/66
f 86/265/67 87/266/67 33/267/67 88/268/67
f 87/269/68 83/270/68 82/271/68 33/272/68
f 85/273/69 84/274/69 86/275/69 88/276/69
f 84/277/70 83/278/70 87/279/70 86/280/70
f 33/281/71 82/282/71 85/283/71 88/284/71
f 89/285/72 90/286/72 91/287/72
f 90/288/73 89/289/73 92/290/73 93/291/73
f 93/292/74 92/293/74 94/294/74
f 95/295/75 89/296/75 91/297/75
f 89/298/76 95/299/76 96/300/76 92/301/76
f 92/302/77 96/303/77 94/304/77
f 97/305/78 95/306/78 91/307/78
f 95/308/79 97/309/79 34/310/79 96/311/79
f 96/312/80 34/313/80 94/314/80
f 98/315/81 97/316/81 91/317/81
f 97/318/82 98/319/82 34/320/82
f 99/321/83 98/322/83 91/323/83
f 98/324/84 99/325/84 100/326/84 34/327/84
f 34/328/85 100/329/85 94/330/85
f 99/331/86 101/332/86 100/333/86
f 100/334/87 101/335/87 94/336/87
f 102/337/88 103/338/88 104/339/88
f 105/340/89 103/341/89 102/342/89 106/343/89
f 105/344/90 106/345/90 107/346/90
f 103/347/91 108/348/91 104/349/91
f 109/350/92 108/351/92 103/352/92 105/353/92
f 109/354/93 105/355/93 107/356/93
f 108/357/94 110/358/94 104/359/94
f 111/360/95 110/361/95 108/362/95 109/363/95
f 111/364/96 109/365/96 107/366/96
f 110/367/97 112/368/97 104/369/97
f 112/370/98 110/371/98 113/372/98 111/373/98
f 113/374/99 111/375/99 107/376/99
f 112/377/100 114/378/100 104/379/100
f 115/380/101 114/381/101 112/382/101 113/383/101
f 115/384/102 113/385/102 107/386/102
f 116/387/103 114/388/103 115/389/103
f 116/390/104 115/391/104 107/392/104
f 117/393/105 118/394/105 119/395/105
f 118/396/106 117/397/106 120/398/106 121/399/106
f 121/400/107 120/401/107 122/402/107
f 123/403/108 117/404/108 119/405/108
f 117/406/109 123/407/109 124/408/109 120/409/109
f 120/410/110 124/411/110 122/412/110
f 125/413/111 123/414/111 119/415/111
f 123/416/112 125/417/112 126/418/112 124/419/112
f 124/420/113 126/421/113 122/422/113
f 127/423/114 125/424/114 119/425/114
f 125/426/115 127/427/115 128/428/115 126/429/115
f 126/430/116 128/431/116 122/432/116
f 129/433/117 127/434/117 119/435/117
f 127/436/118 129/437/118 130/438/118 128/439/118
f 128/440/119 130/441/119 122/442/119
f 131/443/120 129/444/120 119/445/120
f 129/446/121 131/447/121 132/448/121 130/449/121
f 130/450/122 132/451/122 122/452/122
f 118/453/123 133/454/123 119/455/123
f 133/456/124 118/457/124 121/458/124 134/459/124
f 134/460/125 121/461/125 122/462/125
f 33/463/126 135/464/126 136/465/126
f 137/466/127 135/467/127 33/468/127 138/469/127
f 137/470/128 138/471/128 139/472/128
f 135/473/129 140/474/129 136/475/129
f 141/476/130 140/477/130 135/478/130 137/479/130
f 141/480/131 137/481/131 139/482/131
f 140/483/132 142/484/132 136/485/132
f 143/486/133 142/487/133 140/488/133 141/489/133
f 143/490/134 141/491/134 139/492/134
f 142/493/135 144/494/135 136/495/135
f 145/496/136 144/497/136 142/498/136 143/499/136
f 145/500/137 143/501/137 139/502/137
f 144/503/138 41/504/138 136/505/138
f 42/506/139 41/507/139 144/508/139 145/509/139
f 42/510/140 145/511/140 139/512/140
f 41/513/141 146/514/141 136/515/141
f 147/516/142 146/517/142 41/518/142 42/519/142
f 147/520/143 42/521/143 139/522/143
f 148/523/144 33/524/144 136/525/144
f 138/526/145 33/527/145 148/528/145 149/529/145
f 138/530/146 149/531/146 139/532/146
f 3/533/147 2/534/147 6/535/147 5/536/147