# Made in Blockbench 5.1.6
mtllib freza_attachment.mtl

o Куб.012
v -1.27807 1.46187625 -0.879245
v -1.27807 1.31735125 -0.9742018750000001
v -1.27807 1.31735125 -0.879245
v -1.27807 1.46187625 -0.9742018750000001
v -1.184271875 1.31735125 -0.9742018750000001
v -1.184271875 1.46187625 -0.9742018750000001
v -1.184271875 1.31735125 -0.879245
v -1.184271875 1.46187625 -0.879245
v -1.2504187500000001 1.325595 -0.960063125
v -1.211921875 1.2486 -0.960063125
v -1.2504187500000001 1.2486 -0.960063125
v -1.211921875 1.325595 -0.960063125
v -1.192673125 1.2486 -0.9267231250000001
v -1.192673125 1.325595 -0.9267231250000001
v -1.211921875 1.2486 -0.893383125
v -1.211921875 1.325595 -0.893383125
v -1.2504187500000001 1.2486 -0.893383125
v -1.25472125 1.325595 -0.9526131250000001
v -1.269668125 1.325595 -0.9267231250000001
v -1.2504187500000001 1.325595 -0.893383125
v -1.26004375 1.325595 -0.9100531249999999
v -1.269668125 1.2486 -0.9267231250000001
v -1.26004375 1.2486 -0.9100531249999999
v -1.25472125 1.2486 -0.9526131250000001
v -1.267625 1.2486 -0.930263125
v -1.267625 1.325595 -0.930263125
v -1.259021875 1.2486 -0.9451631250000001
v -1.259021875 1.325595 -0.9451631250000001
vt 0.109978125 1
vt 0.015021875 0.855475
vt 0.109978125 0.855475
vt 0.109396875 0.75
vt 0.015603125 0.605475
vt 0.109396875 0.605475
vt 0.297478125 1
vt 0.202521875 0.855475
vt 0.297478125 0.855475
vt 0.296896875 0.75
vt 0.203103125 0.605475
vt 0.296896875 0.605475
vt 0.484396875 0.875
vt 0.390603125 0.96995625
vt 0.390603125 0.875
vt 0.390603125 0.8125
vt 0.484396875 0.7175437499999999
vt 0.484396875 0.8125
vt 0.612996875 0.625
vt 0.574503125 0.54800625
vt 0.612996875 0.54800625
vt 0.351 0.4375
vt 0.3125 0.36050625000000003
vt 0.351 0.36050625000000003
vt 0.625 0.8125
vt 0.5865 0.73550625
vt 0.625 0.73550625
vt 0.487996875 0.4375
vt 0.449503125 0.36050625000000003
vt 0.487996875 0.36050625000000003
vt 0.413953125 0.61755
vt 0.399003125 0.5916625
vt 0.418253125 0.55831875
vt 0.58175 1
vt 0.5625 0.92300625
vt 0.58175 0.92300625
vt 0.2201 0.5
vt 0.2115 0.42300625000000003
vt 0.2201 0.42300625000000003
vt 0.081746875 0.44168125
vt 0.026046875 0.40480000000000005
vt 0.038953125 0.38244999999999996
vt 0.25 0.5
vt 0.2459125 0.42300625000000003
vt 0.25 0.42300625000000003
vt 0.2459125 0.5
vt 0.22870625 0.42300625000000003
vt 0.2459125 0.42300625000000003
vt 0.22870625 0.5
vt 0.2201 0.42300625000000003
vt 0.22870625 0.42300625000000003
vt 0.601 1
vt 0.58175 0.92300625
vt 0.601 0.92300625
vt 0.109978125 1
vt 0.015021875 1
vt 0.015021875 0.855475
vt 0.109396875 0.75
vt 0.015603125 0.75
vt 0.015603125 0.605475
vt 0.297478125 1
vt 0.202521875 1
vt 0.202521875 0.855475
vt 0.296896875 0.75
vt 0.203103125 0.75
vt 0.203103125 0.605475
vt 0.484396875 0.875
vt 0.484396875 0.96995625
vt 0.390603125 0.96995625
vt 0.390603125 0.8125
vt 0.390603125 0.7175437499999999
vt 0.484396875 0.7175437499999999
vt 0.612996875 0.625
vt 0.574503125 0.625
vt 0.574503125 0.54800625
vt 0.351 0.4375
vt 0.3125 0.4375
vt 0.3125 0.36050625000000003
vt 0.625 0.8125
vt 0.5865 0.8125
vt 0.5865 0.73550625
vt 0.487996875 0.4375
vt 0.449503125 0.4375
vt 0.449503125 0.36050625000000003
vt 0.475996875 0.5916625
vt 0.456746875 0.625
vt 0.418253125 0.625
vt 0.595896875 0.43005000000000004
vt 0.600203125 0.4375
vt 0.587296875 0.41515
vt 0.475996875 0.5916625
vt 0.418253125 0.625
vt 0.413953125 0.61755
vt 0.418253125 0.55831875
vt 0.456746875 0.55831875
vt 0.475996875 0.5916625
vt 0.71874875 1
vt 0.71874875 0.98074625
vt 0.71875125 0.96149875
vt 0.413953125 0.61755
vt 0.401046875 0.5952
vt 0.399003125 0.5916625
vt 0.418253125 0.55831875
vt 0.475996875 0.5916625
vt 0.413953125 0.61755
vt 0.58175 1
vt 0.5625 1
vt 0.5625 0.92300625
vt 0.2201 0.5
vt 0.2115 0.5
vt 0.2115 0.42300625000000003
vt 0.038953125 0.38244999999999996
vt 0.043253125 0.375
vt 0.081746875 0.375
vt 0.081746875 0.375
vt 0.100996875 0.4083375
vt 0.081746875 0.44168125
vt 0.081746875 0.44168125
vt 0.043253125 0.44168125
vt 0.033628125 0.4250125
vt 0.033628125 0.4250125
vt 0.024003125 0.4083375
vt 0.026046875 0.40480000000000005
vt 0.033396875 0.25744999999999996
vt 0.024796875 0.27235
vt 0.037703125 0.25
vt 0.038953125 0.38244999999999996
vt 0.081746875 0.375
vt 0.081746875 0.44168125
vt 0.081746875 0.44168125
vt 0.033628125 0.4250125
vt 0.026046875 0.40480000000000005
vt 0.25 0.5
vt 0.2459125 0.5
vt 0.2459125 0.42300625000000003
vt 0.2459125 0.5
vt 0.22870625 0.5
vt 0.22870625 0.42300625000000003
vt 0.22870625 0.5
vt 0.2201 0.5
vt 0.2201 0.42300625000000003
vt 0.601 1
vt 0.58175 1
vt 0.58175 0.92300625
vn -1 0 0
vn 0 0 -1
vn 1 0 0
vn 0 0 1
vn 0 -1 0
vn 0 1 0
vn 0 0 -1
vn 0.8660266182569906 0 -0.49999789646593623
vn 0.8660266182569918 0 0.49999789646593373
vn 0 0 1
vn 0 1 0
vn -0.8660266182569932 0 0.4999978964659312
vn -0.8659629605343566 0 -0.500108139288467
vn 0 -1 0
vn -0.8660990185488233 0 -0.49987247380583516
vn -0.8660101522472777 0 -0.500026415506868
vn -0.8660573413897947 0 -0.4999446783643572
vn -0.8660125584745275 0 0.5000222480694266
vn -1 0 0
vn 0 0 -1
vn 1 0 0
vn 0 0 1
vn 0 -1 0
vn 0 1 0
vn 0 0 -1
vn 0.8660266182569906 0 -0.49999789646593623
vn 0.8660266182569918 0 0.49999789646593373
vn 0 0 1
vn 0 1 0
vn 0 1 0
vn 0 1 0
vn 0 1 0
vn 0 1 0
vn 0 1 0
vn 0 1 0
vn -0.8660266182569932 0 0.4999978964659312
vn -0.8659629605343566 0 -0.500108139288467
vn 0 -1 0
vn 0 -1 0
vn 0 -1 0
vn 0 -1 0
vn 0 -1 0
vn 0 -1 0
vn 0 -1 0
vn -0.8660990185488233 0 -0.49987247380583516
vn -0.8660101522472777 0 -0.500026415506868
vn -0.8660573413897947 0 -0.4999446783643572
vn -0.8660125584745275 0 0.5000222480694266
usemtl gomicon
f 1/1/1 2/2/1 3/3/1
f 4/4/2 5/5/2 2/6/2
f 6/7/3 7/8/3 5/9/3
f 8/10/4 3/11/4 7/12/4
f 5/13/5 3/14/5 2/15/5
f 4/16/6 8/17/6 6/18/6
f 9/19/7 10/20/7 11/21/7
f 12/22/8 13/23/8 10/24/8
f 14/25/9 15/26/9 13/27/9
f 16/28/10 17/29/10 15/30/10
f 18/31/11 19/32/11 20/33/11
f 21/34/12 22/35/12 23/36/12
f 18/37/13 11/38/13 24/39/13
f 15/40/14 25/41/14 24/42/14
f 19/43/15 25/44/15 22/45/15
f 26/46/16 27/47/16 25/48/16
f 28/49/17 24/50/17 27/51/17
f 20/52/18 23/53/18 17/54/18
f 1/55/19 4/56/19 2/57/19
f 4/58/20 6/59/20 5/60/20
f 6/61/21 8/62/21 7/63/21
f 8/64/22 1/65/22 3/66/22
f 5/67/23 7/68/23 3/69/23
f 4/70/24 1/71/24 8/72/24
f 9/73/25 12/74/25 10/75/25
f 12/76/26 14/77/26 13/78/26
f 14/79/27 16/80/27 15/81/27
f 16/82/28 20/83/28 17/84/28
f 14/85/29 12/86/29 9/87/29
f 28/88/30 18/89/30 26/90/30
f 14/91/31 9/92/31 18/93/31
f 20/94/32 16/95/32 14/96/32
f 19/97/33 21/98/33 20/99/33
f 18/100/34 26/101/34 19/102/34
f 20/103/35 14/104/35 18/105/35
f 21/106/36 19/107/36 22/108/36
f 18/109/37 9/110/37 11/111/37
f 24/112/38 11/113/38 10/114/38
f 10/115/39 13/116/39 15/117/39
f 15/118/40 17/119/40 23/120/40
f 23/121/41 22/122/41 25/123/41
f 27/124/42 25/125/42 24/126/42
f 24/127/43 10/128/43 15/129/43
f 15/130/44 23/131/44 25/132/44
f 19/133/45 26/134/45 25/135/45
f 26/136/46 28/137/46 27/138/46
f 28/139/47 18/140/47 24/141/47
f 20/142/48 21/143/48 23/144/48