# Made in Blockbench 5.1.6
mtllib optic_microscope.mtl

o cylinder
v 0 0 0
v 0 0.0625 0
v 0.207106875 0 0.5
v 0.207106875 0.0625 0.5
v 0.5 0 0.207106875
v 0.5 0.0625 0.207106875
v 0.5 0 -0.207106875
v 0.5 0.0625 -0.207106875
v 0.207106875 0 -0.5
v 0.207106875 0.0625 -0.5
v -0.207106875 0 -0.5
v -0.207106875 0.0625 -0.5
v -0.5 0 -0.207106875
v -0.5 0.0625 -0.207106875
v -0.5 0 0.207106875
v -0.5 0.0625 0.207106875
v -0.207106875 0 0.5
v -0.207106875 0.0625 0.5
v -0.0625 0.125 0.1875
v -0.0625 0.125 -0.1875
v -0.0625 0.0625 0.1875
v -0.0625 0.0625 -0.1875
v -0.4375 0.125 0.1875
v -0.4375 0.125 -0.1875
v -0.4375 0.0625 0.1875
v -0.4375 0.0625 -0.1875
v -0.13195347810407776 0.642056390845257 0.01875
v -0.13195347810407776 0.642056390845257 -0.01875
v -0.22745997582088945 0.10041212668854266 0.01875
v -0.22745997582088945 0.10041212668854266 -0.01875
v -0.19350396266734077 0.6529094019494401 0.01875
v -0.19350396266734077 0.6529094019494401 -0.01875
v -0.28901046038415246 0.11126513779272579 0.01875
v -0.28901046038415246 0.11126513779272579 -0.01875
v -0.09071876343678145 0.7760336831986789 0
v 0.08029130822605296 0.3061873728057248 0
v -0.11504564346526464 0.767179422975746 0.0625
v 0.055964428197569784 0.29733311258279194 0.0625
v -0.14944955223590073 0.7546574242408246 0.025888125
v 0.021560519426933704 0.2848111138478705 0.025888125
v -0.14944955223590073 0.7546574242408246 -0.025888125
v 0.021560519426933704 0.2848111138478705 -0.025888125
v -0.11504564346526464 0.767179422975746 -0.0625
v 0.055964428197569784 0.29733311258279194 -0.0625
v -0.06639188340829827 0.7848879434216117 -0.0625
v 0.10461818825453614 0.3150416330286576 -0.0625
v -0.03198797463766219 0.7974099421565332 -0.025888125
v 0.13902209702517224 0.32756363176357906 -0.025888125
v -0.03198797463766219 0.7974099421565332 0.025888125
v 0.13902209702517224 0.32756363176357906 0.025888125
v -0.06639188340829827 0.7848879434216117 0.0625
v 0.10461818825453614 0.3150416330286576 0.0625
v -0.07575538216628344 0.7349221310392954 0.125
v -0.09400068901461783 0.7282813824314484 0.171875
v -0.02345903445369863 0.5344697793943548 0.171875
v -0.11980347376562289 0.7188899368209046 0.14441625
v -0.0492618192047037 0.5250783337838111 0.14441625
v -0.11980347376562289 0.7188899368209046 0.10558375
v -0.0492618192047037 0.5250783337838111 0.10558375
v -0.09400068901461783 0.7282813824314484 0.078125
v -0.02345903445369863 0.5344697793943548 0.078125
v -0.05751007531794906 0.7415628796471424 0.078125
v 0.013031579242970139 0.5477512766100489 0.078125
v -0.03170729056694399 0.7509543252576861 0.10558375
v 0.0388343639939752 0.5571427222205926 0.10558375
v -0.03170729056694399 0.7509543252576861 0.14441625
v 0.0388343639939752 0.5571427222205926 0.14441625
v -0.05751007531794906 0.7415628796471424 0.171875
v 0.013031579242970139 0.5477512766100489 0.171875
v 0.038669315841836145 0.5205602498291634 0.015625
v 0.038669315841836145 0.5205602498291634 -0.015625
v -0.03314735070056803 0.46029891142105034 0.015625
v -0.03314735070056803 0.46029891142105034 -0.015625
v -0.12202758657979867 0.7120713606089079 0.015625
v -0.12202758657979867 0.7120713606089079 -0.015625
v -0.19384425312220285 0.6518100222007949 0.015625
v -0.19384425312220285 0.6518100222007949 -0.015625
v 0.40625 0.09375 0.25
v 0.40625 0.09375 -0.25
v 0.40625 0.0625 0.25
v 0.40625 0.0625 -0.25
v -0.09375 0.09375 0.25
v -0.09375 0.09375 -0.25
v -0.09375 0.0625 0.25
v -0.09375 0.0625 -0.25
v -0.1228177661458818 0.008021621987804262 -0.07812499999999993
v -0.07208973162913895 0.23684099865653865 -0.07812499999999999
v -0.12281776614588186 0.00802162198780429 0.07812500000000004
v -0.07208973162913901 0.23684099865653868 0.07812499999999999
v -0.427910268370861 0.07565900134346132 -0.07812499999999999
v -0.37718223385411814 0.3044783780121957 -0.07812500000000004
v -0.42791026837086105 0.07565900134346135 0.07812499999999999
v -0.3771822338541182 0.30447837801219574 0.07812499999999993
v -0.31350058003649384 0.050294984085089964 0.125
v -0.23722745448024904 0.033385639246175686 0.125
v -0.262772545519751 0.27911436075382434 0.12499999999999996
v -0.18649941996350622 0.2622050159149101 0.12499999999999996
v -0.3135005800364938 0.05029498408508992 -0.12499999999999996
v -0.23722745448024898 0.033385639246175644 -0.12499999999999996
v -0.26277254551975093 0.27911436075382434 -0.125
v -0.18649941996350616 0.26220501591491 -0.125
v -0.24755413516472813 0.3477601737544446 -0.07812500000000003
v -0.17128100960848333 0.33085082891553036 -0.07812500000000003
v -0.24755413516472816 0.3477601737544446 0.07812499999999994
v -0.17128100960848336 0.33085082891553036 0.07812499999999994
v -0.010557792344827822 0.5557932252019816 0.125
v 0.042882855049807926 0.4089662532041835 0.125
v -0.03488467237331101 0.5469389649790488 0.1875
v 0.01855597502132473 0.40011199298125066 0.1875
v -0.06928858114394709 0.5344169662441274 0.150888125
v -0.015847933749311337 0.38758999424632923 0.150888125
v -0.06928858114394709 0.5344169662441274 0.099111875
v -0.015847933749311337 0.38758999424632923 0.099111875
v -0.03488467237331101 0.5469389649790488 0.0625
v 0.01855597502132473 0.40011199298125066 0.0625
v 0.013769087683655375 0.5646474854249145 0.0625
v 0.06720973507829112 0.41782051342711635 0.0625
v 0.04817299645429144 0.5771694841598359 0.099111875
v 0.10161364384892718 0.4303425121620378 0.099111875
v 0.04817299645429144 0.5771694841598359 0.150888125
v 0.10161364384892718 0.4303425121620378 0.150888125
v 0.013769087683655375 0.5646474854249145 0.1875
v 0.06720973507829112 0.41782051342711635 0.1875
v -0.04226370158186554 0.6978225622197778 0.119638125
v -0.04226370158186554 0.6978225622197778 0.057138125
v -0.012366558428342899 0.6256444737423336 0.119638125
v -0.012366558428342899 0.6256444737423336 0.057138125
v -0.07113493697284325 0.6858637049583688 0.119638125
v -0.07113493697284325 0.6858637049583688 0.057138125
v -0.04123779381932062 0.6136856164809246 0.119638125
v -0.04123779381932062 0.6136856164809246 0.057138125
v -0.13347128135249006 0.8934952607969174 0
v -0.15171658820082445 0.8868545121890704 0.046875
v -0.10896407028511584 0.7693929345908319 0.046875
v -0.1775193729518295 0.8774630665785267 0.01941625
v -0.1347668550361209 0.7600014889802882 0.01941625
v -0.1775193729518295 0.8774630665785267 -0.01941625
v -0.1347668550361209 0.7600014889802882 -0.01941625
v -0.15171658820082445 0.8868545121890704 -0.046875
v -0.10896407028511584 0.7693929345908319 -0.046875
v -0.11522597450415567 0.9001360094047645 -0.046875
v -0.07247345658844706 0.7826744318065258 -0.046875
v -0.08942318975315061 0.9095274550153081 -0.01941625
v -0.046670671837442 0.7920658774170696 -0.01941625
v -0.08942318975315061 0.9095274550153081 0.01941625
v -0.046670671837442 0.7920658774170696 0.01941625
v -0.11522597450415567 0.9001360094047645 0.046875
v -0.07247345658844706 0.7826744318065258 0.046875
v -0.234375 0.19720637216018272 0.1399852708590683
v -0.234375 0.20947432485668344 -0.1409970414608292
v -0.208486875 0.25964688600904884 0.1427114825694018
v -0.208486875 0.27191483870554956 -0.1382708297504957
v -0.171875 0.22306985740152155 0.14111449501160556
v -0.171875 0.23533781009802227 -0.13986781730829195
v -0.171875 0.17134288691884386 0.13885604670653107
v -0.171875 0.18361083961534458 -0.14212626561336641
v -0.208486875 0.1347658583113166 0.13725905914873482
v -0.208486875 0.14703381100781732 -0.1437232531711627
v -0.260263125 0.1347658583113166 0.13725905914873482
v -0.260263125 0.14703381100781732 -0.1437232531711627
v -0.296875 0.17134288691884386 0.13885604670653107
v -0.296875 0.18361083961534458 -0.14212626561336641
v -0.296875 0.22306985740152155 0.14111449501160556
v -0.296875 0.23533781009802227 -0.13986781730829195
v -0.260263125 0.25964688600904884 0.1427114825694018
v -0.260263125 0.27191483870554956 -0.1382708297504957
v -0.159375 0.6211465489537693 0.030247835928127187
v -0.159375 0.6236001394930695 -0.02594862653585231
v -0.146430625 0.6523668058782024 0.03161094178329393
v -0.146430625 0.6548203964175026 -0.024585520680685563
v -0.128125 0.634078603777008 0.030812461635454355
v -0.128125 0.6365321943163081 -0.02538400082852514
v -0.128125 0.6082144941305306 0.02968321022080002
v -0.128125 0.6106680846698308 -0.02651325224317948
v -0.146430625 0.5899262920293363 0.02888473007296044
v -0.146430625 0.5923798825686364 -0.027311732391019056
v -0.172319375 0.5899262920293363 0.02888473007296044
v -0.172319375 0.5923798825686364 -0.027311732391019056
v -0.190625 0.6082144941305306 0.02968321022080002
v -0.190625 0.6106680846698308 -0.02651325224317948
v -0.190625 0.634078603777008 0.030812461635454355
v -0.190625 0.6365321943163081 -0.02538400082852514
v -0.172319375 0.6523668058782024 0.03161094178329393
v -0.172319375 0.6548203964175026 -0.024585520680685563
vt 0.25 0.9267765625
vt 0.1767765625 1
vt 0.125 0.875
vt 0.5 0.703125
vt 0.609375 0.703125
vt 0.609375 0.71875
vt 0.5 0.71875
vt 0.3799015625 0.53125
vt 0.453125 0.6044734375
vt 0.328125 0.65625
vt 0.25 0.8232234375
vt 0.25 0.9267765625
vt 0.125 0.875
vt 0.46875 0.5
vt 0.578125 0.5
vt 0.578125 0.515625
vt 0.46875 0.515625
vt 0.453125 0.6044734375
vt 0.453125 0.7080265625
vt 0.328125 0.65625
vt 0.1767765625 0.75
vt 0.25 0.8232234375
vt 0.125 0.875
vt 0.5 0.765625
vt 0.609375 0.765625
vt 0.609375 0.78125
vt 0.5 0.78125
vt 0.453125 0.7080265625
vt 0.3799015625 0.78125
vt 0.328125 0.65625
vt 0.0732234375 0.75
vt 0.1767765625 0.75
vt 0.125 0.875
vt 0.5 0.828125
vt 0.609375 0.828125
vt 0.609375 0.84375
vt 0.5 0.84375
vt 0.3799015625 0.78125
vt 0.2763484375 0.78125
vt 0.328125 0.65625
vt 0 0.8232234375
vt 0.0732234375 0.75
vt 0.125 0.875
vt 0.5 0.734375
vt 0.609375 0.734375
vt 0.609375 0.75
vt 0.5 0.75
vt 0.2763484375 0.78125
vt 0.203125 0.7080265625
vt 0.328125 0.65625
vt 0 0.9267765625
vt 0 0.8232234375
vt 0.125 0.875
vt 0.5 0.890625
vt 0.609375 0.890625
vt 0.609375 0.90625
vt 0.5 0.90625
vt 0.203125 0.7080265625
vt 0.203125 0.6044734375
vt 0.328125 0.65625
vt 0.0732234375 1
vt 0 0.9267765625
vt 0.125 0.875
vt 0.5 0.796875
vt 0.609375 0.796875
vt 0.609375 0.8125
vt 0.5 0.8125
vt 0.203125 0.6044734375
vt 0.2763484375 0.53125
vt 0.328125 0.65625
vt 0.1767765625 1
vt 0.0732234375 1
vt 0.125 0.875
vt 0.5 0.859375
vt 0.609375 0.859375
vt 0.609375 0.875
vt 0.5 0.875
vt 0.2763484375 0.53125
vt 0.3799015625 0.53125
vt 0.328125 0.65625
vt 0.59375 0.671875
vt 0.59375 0.6875
vt 0.5 0.6875
vt 0.5 0.671875
vt 0.265625 0.90625
vt 0.359375 0.90625
vt 0.359375 1
vt 0.265625 1
vt 0.59375 0.640625
vt 0.59375 0.65625
vt 0.5 0.65625
vt 0.5 0.640625
vt 0.34375 0.484375
vt 0.25 0.484375
vt 0.25 0.46875
vt 0.34375 0.46875
vt 0.5625 0.484375
vt 0.46875 0.484375
vt 0.46875 0.46875
vt 0.5625 0.46875
vt 0.015625 0.59375
vt 0 0.59375
vt 0 0.453125
vt 0.015625 0.453125
vt 0.046875 0.453125
vt 0.046875 0.59375
vt 0.03125 0.59375
vt 0.03125 0.453125
vt 0 0.984375
vt 0.015625 0.984375
vt 0.015625 1
vt 0 1
vt 0.078125 0.453125
vt 0.078125 0.59375
vt 0.0625 0.59375
vt 0.0625 0.453125
vt 0.109375 0.59375
vt 0.09375 0.59375
vt 0.09375 0.453125
vt 0.109375 0.453125
vt 0.5625 0.443971875
vt 0.553346875 0.453125
vt 0.546875 0.4375
vt 0.4375 0.421875
vt 0.453125 0.421875
vt 0.453125 0.546875
vt 0.4375 0.546875
vt 0.9054640625000001 0.2656249999999999
vt 0.9375 0.2976609374999999
vt 0.8828125 0.3203124999999999
vt 0.5625 0.431028125
vt 0.5625 0.443971875
vt 0.546875 0.4375
vt 0.4375 0.765625
vt 0.453125 0.765625
vt 0.453125 0.890625
vt 0.4375 0.890625
vt 0.9375 0.2976609374999999
vt 0.9375 0.3429640624999999
vt 0.8828125 0.3203124999999999
vt 0.553346875 0.421875
vt 0.5625 0.431028125
vt 0.546875 0.4375
vt 0.21875 0.40625
vt 0.234375 0.40625
vt 0.234375 0.53125
vt 0.21875 0.53125
vt 0.9375 0.3429640624999999
vt 0.9054640625000001 0.3749999999999999
vt 0.8828125 0.3203124999999999
vt 0.540403125 0.421875
vt 0.553346875 0.421875
vt 0.546875 0.4375
vt 0.125 0.421875
vt 0.140625 0.421875
vt 0.140625 0.546875
vt 0.125 0.546875
vt 0.9054640625000001 0.3749999999999999
vt 0.8601609374999999 0.3749999999999999
vt 0.8828125 0.3203124999999999
vt 0.53125 0.431028125
vt 0.540403125 0.421875
vt 0.546875 0.4375
vt 0.46875 0.625
vt 0.484375 0.625
vt 0.484375 0.75
vt 0.46875 0.75
vt 0.8601609374999999 0.3749999999999999
vt 0.828125 0.3429640624999999
vt 0.8828125 0.3203124999999999
vt 0.53125 0.443971875
vt 0.53125 0.431028125
vt 0.546875 0.4375
vt 0.1875 0.421875
vt 0.203125 0.421875
vt 0.203125 0.546875
vt 0.1875 0.546875
vt 0.828125 0.3429640624999999
vt 0.828125 0.2976609374999999
vt 0.8828125 0.3203124999999999
vt 0.540403125 0.453125
vt 0.53125 0.443971875
vt 0.546875 0.4375
vt 0.46875 0.765625
vt 0.484375 0.765625
vt 0.484375 0.890625
vt 0.46875 0.890625
vt 0.828125 0.2976609374999999
vt 0.8601609374999999 0.2656249999999999
vt 0.8828125 0.3203124999999999
vt 0.553346875 0.453125
vt 0.540403125 0.453125
vt 0.546875 0.4375
vt 0.15625 0.421875
vt 0.171875 0.421875
vt 0.171875 0.546875
vt 0.15625 0.546875
vt 0.8601609374999999 0.2656249999999999
vt 0.9054640625000001 0.2656249999999999
vt 0.8828125 0.3203124999999999
vt 0.9375 0.34296776442307697
vt 0.905467764423077 0.375
vt 0.8828125 0.3203125
vt 0.171875 0.359375
vt 0.1875 0.359375
vt 0.1875 0.40625
vt 0.171875 0.40625
vt 0.9375 0.29765723557692303
vt 0.9375 0.34296776442307697
vt 0.8828125 0.3203125
vt 0.578125 0.390625
vt 0.59375 0.390625
vt 0.59375 0.4375
vt 0.578125 0.4375
vt 0.905467764423077 0.265625
vt 0.9375 0.29765723557692303
vt 0.8828125 0.3203125
vt 0.53125 0.359375
vt 0.546875 0.359375
vt 0.546875 0.40625
vt 0.53125 0.40625
vt 0.860157235576923 0.265625
vt 0.905467764423077 0.265625
vt 0.8828125 0.3203125
vt 0.046875 0.359375
vt 0.0625 0.359375
vt 0.0625 0.40625
vt 0.046875 0.40625
vt 0.828125 0.29765723557692303
vt 0.860157235576923 0.265625
vt 0.8828125 0.3203125
vt 0.4375 0.359375
vt 0.453125 0.359375
vt 0.453125 0.40625
vt 0.4375 0.40625
vt 0.828125 0.34296776442307697
vt 0.828125 0.29765723557692303
vt 0.8828125 0.3203125
vt 0.109375 0.359375
vt 0.125 0.359375
vt 0.125 0.40625
vt 0.109375 0.40625
vt 0.860157235576923 0.375
vt 0.828125 0.34296776442307697
vt 0.8828125 0.3203125
vt 0.140625 0.359375
vt 0.15625 0.359375
vt 0.15625 0.40625
vt 0.140625 0.40625
vt 0.905467764423077 0.375
vt 0.860157235576923 0.375
vt 0.8828125 0.3203125
vt 0.078125 0.359375
vt 0.09375 0.359375
vt 0.09375 0.40625
vt 0.078125 0.40625
vt 0.640625 0.734375
vt 0.640625 0.765625
vt 0.625 0.765625
vt 0.625 0.734375
vt 0.109375 0.421875
vt 0.109375 0.4375
vt 0.046875 0.4375
vt 0.046875 0.421875
vt 0.53125 0.578125
vt 0.53125 0.609375
vt 0.46875 0.609375
vt 0.46875 0.578125
vt 0.53125 0.5625
vt 0.46875 0.5625
vt 0.46875 0.53125
vt 0.53125 0.53125
vt 0.609375 1
vt 0.484375 1
vt 0.484375 0.984375
vt 0.609375 0.984375
vt 0.609375 0.953125
vt 0.609375 0.96875
vt 0.484375 0.96875
vt 0.484375 0.953125
vt 0 0.609375
vt 0.125 0.609375
vt 0.125 0.734375
vt 0 0.734375
vt 0.609375 0.921875
vt 0.609375 0.9375
vt 0.484375 0.9375
vt 0.484375 0.921875
vt 0.375 0.515625
vt 0.25 0.515625
vt 0.25 0.5
vt 0.375 0.5
vt 0.3294484375 0.8590703125
vt 0.2708546875 0.8590703125
vt 0.2708546875 0.8395390625
vt 0.3294484375 0.8395390625
vt 0.46173515625 0.9489140625
vt 0.46173515625 0.9684453125
vt 0.40314140625 0.9684453125
vt 0.40314140625 0.9489140625
vt 0.421875 0.828125
vt 0.421875 0.890625
vt 0.375 0.890625
vt 0.375 0.828125
vt 0.140625 0.5625
vt 0.1875 0.5625
vt 0.1875 0.625
vt 0.140625 0.625
vt 0.18359375 0.7002078125
vt 0.14453125 0.7002078125
vt 0.14453125 0.6806765625
vt 0.18359375 0.6806765625
vt 0.3294484375 0.890625
vt 0.2708546875 0.890625
vt 0.2708546875 0.8590703125
vt 0.3294484375 0.8590703125
vt 0.46173515625 0.9684453125
vt 0.46173515625 1
vt 0.40314140625 1
vt 0.40314140625 0.9684453125
vt 0.18359375 0.734375
vt 0.14453125 0.734375
vt 0.14453125 0.7002078125
vt 0.18359375 0.7002078125
vt 0.2708546875 0.8395390625
vt 0.2708546875 0.807984375
vt 0.3294484375 0.807984375
vt 0.3294484375 0.8395390625
vt 0.40314140625 0.917359375
vt 0.46173515625 0.917359375
vt 0.46173515625 0.9489140625
vt 0.40314140625 0.9489140625
vt 0.14453125 0.6806765625
vt 0.14453125 0.6465093749999999
vt 0.18359375 0.6465093749999999
vt 0.18359375 0.6806765625
vt 0.3294484375 0.83953765625
vt 0.350121875 0.835185625
vt 0.3541453125 0.85429796875
vt 0.333471875 0.85865
vt 0.38201484375 0.9684453125
vt 0.38201484375 0.9489140625
vt 0.40314140625 0.9489140625
vt 0.40314140625 0.9684453125
vt 0.3294484375 0.807984375
vt 0.350121875 0.835185625
vt 0.3294484375 0.83953765625
vt 0.39664140625 0.9180375000000001
vt 0.40314140625 0.9489140625
vt 0.38201484375 0.9489140625
vt 0.3294484375 0.890625
vt 0.3294484375 0.85907171875
vt 0.350121875 0.8634237499999999
vt 0.39664140625 0.999321875
vt 0.38201484375 0.9684453125
vt 0.40314140625 0.9684453125
vt 0.609375 0.615846875
vt 0.600221875 0.625
vt 0.59375 0.609375
vt 0.625 0.953125
vt 0.640625 0.953125
vt 0.640625 1
vt 0.625 1
vt 0.9054640625000001 0.265625
vt 0.9375 0.2976609374999999
vt 0.8828125 0.3203125
vt 0.609375 0.602903125
vt 0.609375 0.615846875
vt 0.59375 0.609375
vt 0 0.34375
vt 0.015625 0.34375
vt 0.015625 0.390625
vt 0 0.390625
vt 0.9375 0.2976609374999999
vt 0.9375 0.3429640625
vt 0.8828125 0.3203125
vt 0.600221875 0.59375
vt 0.609375 0.602903125
vt 0.59375 0.609375
vt 0.625 0.828125
vt 0.640625 0.828125
vt 0.640625 0.875
vt 0.625 0.875
vt 0.9375 0.3429640625
vt 0.9054640625000001 0.375
vt 0.8828125 0.3203125
vt 0.587278125 0.59375
vt 0.600221875 0.59375
vt 0.59375 0.609375
vt 0.203125 0.34375
vt 0.21875 0.34375
vt 0.21875 0.390625
vt 0.203125 0.390625
vt 0.9054640625000001 0.375
vt 0.8601609375 0.375
vt 0.8828125 0.3203125
vt 0.578125 0.602903125
vt 0.587278125 0.59375
vt 0.59375 0.609375
vt 0.625 0.890625
vt 0.640625 0.890625
vt 0.640625 0.9375
vt 0.625 0.9375
vt 0.8601609375 0.375
vt 0.828125 0.3429640625
vt 0.8828125 0.3203125
vt 0.578125 0.615846875
vt 0.578125 0.602903125
vt 0.59375 0.609375
vt 0.34375 0.34375
vt 0.359375 0.34375
vt 0.359375 0.390625
vt 0.34375 0.390625
vt 0.828125 0.3429640625
vt 0.828125 0.2976609374999999
vt 0.8828125 0.3203125
vt 0.587278125 0.625
vt 0.578125 0.615846875
vt 0.59375 0.609375
vt 0.609375 0.390625
vt 0.625 0.390625
vt 0.625 0.4375
vt 0.609375 0.4375
vt 0.828125 0.2976609374999999
vt 0.8601609375 0.265625
vt 0.8828125 0.3203125
vt 0.600221875 0.625
vt 0.587278125 0.625
vt 0.59375 0.609375
vt 0.609375 0.640625
vt 0.625 0.640625
vt 0.625 0.6875
vt 0.609375 0.6875
vt 0.8601609375 0.265625
vt 0.9054640625000001 0.265625
vt 0.8828125 0.3203125
vt 0.015625 0.765625
vt 0 0.765625
vt 0 0.75
vt 0.015625 0.75
vt 0.25 0.984375
vt 0.25 1
vt 0.234375 1
vt 0.234375 0.984375
vt 0.375 0.796875
vt 0.390625 0.796875
vt 0.390625 0.8125
vt 0.375 0.8125
vt 0.421875 0.796875
vt 0.421875 0.8125
vt 0.40625 0.8125
vt 0.40625 0.796875
vt 0.9375 0.34296776442307697
vt 0.905467764423077 0.375
vt 0.8828125 0.3203125
vt 0.625 0.453125
vt 0.640625 0.453125
vt 0.640625 0.484375
vt 0.625 0.484375
vt 0.9375 0.29765723557692303
vt 0.9375 0.34296776442307697
vt 0.8828125 0.3203125
vt 0.375 0.34375
vt 0.390625 0.34375
vt 0.390625 0.375
vt 0.375 0.375
vt 0.905467764423077 0.265625
vt 0.9375 0.29765723557692303
vt 0.8828125 0.3203125
vt 0.625 0.34375
vt 0.640625 0.34375
vt 0.640625 0.375
vt 0.625 0.375
vt 0.860157235576923 0.265625
vt 0.905467764423077 0.265625
vt 0.8828125 0.3203125
vt 0.625 0.59375
vt 0.640625 0.59375
vt 0.640625 0.625
vt 0.625 0.625
vt 0.828125 0.29765723557692303
vt 0.860157235576923 0.265625
vt 0.8828125 0.3203125
vt 0.59375 0.34375
vt 0.609375 0.34375
vt 0.609375 0.375
vt 0.59375 0.375
vt 0.828125 0.34296776442307697
vt 0.828125 0.29765723557692303
vt 0.8828125 0.3203125
vt 0.625 0.546875
vt 0.640625 0.546875
vt 0.640625 0.578125
vt 0.625 0.578125
vt 0.860157235576923 0.375
vt 0.828125 0.34296776442307697
vt 0.8828125 0.3203125
vt 0.5625 0.34375
vt 0.578125 0.34375
vt 0.578125 0.375
vt 0.5625 0.375
vt 0.905467764423077 0.375
vt 0.860157235576923 0.375
vt 0.8828125 0.3203125
vt 0.40625 0.34375
vt 0.421875 0.34375
vt 0.421875 0.375
vt 0.40625 0.375
vt 0.609375 0.568971875
vt 0.600221875 0.578125
vt 0.59375 0.5625
vt 0.46875 0.375
vt 0.484375 0.375
vt 0.484375 0.453125
vt 0.46875 0.453125
vt 0.600221875 0.453125
vt 0.609375 0.462278125
vt 0.59375 0.46875
vt 0.609375 0.556028125
vt 0.609375 0.568971875
vt 0.59375 0.5625
vt 0.390625 0.4375
vt 0.40625 0.4375
vt 0.40625 0.515625
vt 0.390625 0.515625
vt 0.609375 0.462278125
vt 0.609375 0.475221875
vt 0.59375 0.46875
vt 0.600221875 0.546875
vt 0.609375 0.556028125
vt 0.59375 0.5625
vt 0.3125 0.375
vt 0.328125 0.375
vt 0.328125 0.453125
vt 0.3125 0.453125
vt 0.609375 0.475221875
vt 0.600221875 0.484375
vt 0.59375 0.46875
vt 0.587278125 0.546875
vt 0.600221875 0.546875
vt 0.59375 0.5625
vt 0.28125 0.375
vt 0.296875 0.375
vt 0.296875 0.453125
vt 0.28125 0.453125
vt 0.600221875 0.484375
vt 0.587278125 0.484375
vt 0.59375 0.46875
vt 0.578125 0.556028125
vt 0.587278125 0.546875
vt 0.59375 0.5625
vt 0.5 0.375
vt 0.515625 0.375
vt 0.515625 0.453125
vt 0.5 0.453125
vt 0.587278125 0.484375
vt 0.578125 0.475221875
vt 0.59375 0.46875
vt 0.578125 0.568971875
vt 0.578125 0.556028125
vt 0.59375 0.5625
vt 0.359375 0.40625
vt 0.375 0.40625
vt 0.375 0.484375
vt 0.359375 0.484375
vt 0.578125 0.475221875
vt 0.578125 0.462278125
vt 0.59375 0.46875
vt 0.587278125 0.578125
vt 0.578125 0.568971875
vt 0.59375 0.5625
vt 0.546875 0.546875
vt 0.5625 0.546875
vt 0.5625 0.625
vt 0.546875 0.625
vt 0.578125 0.462278125
vt 0.587278125 0.453125
vt 0.59375 0.46875
vt 0.600221875 0.578125
vt 0.587278125 0.578125
vt 0.59375 0.5625
vt 0.25 0.375
vt 0.265625 0.375
vt 0.265625 0.453125
vt 0.25 0.453125
vt 0.587278125 0.453125
vt 0.600221875 0.453125
vt 0.59375 0.46875
vt 0.640625 0.7141734375
vt 0.6360484375 0.71875
vt 0.6328125 0.7109375
vt 0.5 0.34375
vt 0.515625 0.34375
vt 0.515625 0.359375
vt 0.5 0.359375
vt 0.2454234375 0.34375
vt 0.25 0.34832656250000005
vt 0.2421875 0.3515625
vt 0.640625 0.7077015625
vt 0.640625 0.7141734375
vt 0.6328125 0.7109375
vt 0.265625 0.34375
vt 0.28125 0.34375
vt 0.28125 0.359375
vt 0.265625 0.359375
vt 0.25 0.34832656250000005
vt 0.25 0.35479843749999995
vt 0.2421875 0.3515625
vt 0.6360484375 0.703125
vt 0.640625 0.7077015625
vt 0.6328125 0.7109375
vt 0.46875 0.34375
vt 0.484375 0.34375
vt 0.484375 0.359375
vt 0.46875 0.359375
vt 0.25 0.35479843749999995
vt 0.2454234375 0.359375
vt 0.2421875 0.3515625
vt 0.6295765625 0.703125
vt 0.6360484375 0.703125
vt 0.6328125 0.7109375
vt 0.296875 0.34375
vt 0.3125 0.34375
vt 0.3125 0.359375
vt 0.296875 0.359375
vt 0.2454234375 0.359375
vt 0.2389515625 0.359375
vt 0.2421875 0.3515625
vt 0.625 0.7077015625
vt 0.6295765625 0.703125
vt 0.6328125 0.7109375
vt 0.640625 0.421875
vt 0.65625 0.421875
vt 0.65625 0.4375
vt 0.640625 0.4375
vt 0.2389515625 0.359375
vt 0.234375 0.35479843749999995
vt 0.2421875 0.3515625
vt 0.625 0.7141734375
vt 0.625 0.7077015625
vt 0.6328125 0.7109375
vt 0.640625 0.671875
vt 0.65625 0.671875
vt 0.65625 0.6875
vt 0.640625 0.6875
vt 0.234375 0.35479843749999995
vt 0.234375 0.34832656250000005
vt 0.2421875 0.3515625
vt 0.6295765625 0.71875
vt 0.625 0.7141734375
vt 0.6328125 0.7109375
vt 0.640625 0.515625
vt 0.65625 0.515625
vt 0.65625 0.53125
vt 0.640625 0.53125
vt 0.234375 0.34832656250000005
vt 0.2389515625 0.34375
vt 0.2421875 0.3515625
vt 0.6360484375 0.71875
vt 0.6295765625 0.71875
vt 0.6328125 0.7109375
vt 0.640625 0.640625
vt 0.65625 0.640625
vt 0.65625 0.65625
vt 0.640625 0.65625
vt 0.2389515625 0.34375
vt 0.2454234375 0.34375
vt 0.2421875 0.3515625
vn 0 -1 0
vn 0.7071067811865476 0 0.7071067811865476
vn 0 1 0
vn 0 -1 0
vn 1 0 0
vn 0 1 0
vn 0 -1 0
vn 0.7071067811865476 0 -0.7071067811865476
vn 0 1 0
vn 0 -1 0
vn 0 0 -1
vn 0 1 0
vn 0 -1 0
vn -0.7071067811865476 0 -0.7071067811865476
vn 0 1 0
vn 0 -1 0
vn -1 0 0
vn 0 1 0
vn 0 -1 0
vn -0.7071067811865476 0 0.7071067811865476
vn 0 1 0
vn 0 -1 0
vn 0 0 1
vn 0 1 0
vn -1 0 0
vn 0 1 0
vn 0 0 1
vn 0 0 -1
vn 1 0 0
vn 0.9848077530122081 -0.1736481776669304 0
vn -0.9848077530122081 0.1736481776669304 0
vn 0.17364817766693008 0.9848077530122081 0
vn 0 0 1
vn 0 0 -1
vn -0.34202014332566893 0.9396926207859085 1.0721223740400964e-15
vn -0.6644630243886748 -0.2418447626479754 0.7071067811865475
vn 0.3420201433256684 -0.9396926207859085 -4.523016265481658e-16
vn -0.3420201433256692 0.9396926207859082 0
vn -0.9396926207859083 -0.34202014332566893 0
vn 0.3420201433256686 -0.9396926207859085 0
vn -0.34202014332566893 0.9396926207859085 -1.0553704619457198e-15
vn -0.6644630243886747 -0.2418447626479754 -0.7071067811865476
vn 0.3420201433256684 -0.9396926207859085 4.690535386425423e-16
vn -0.3420201433256694 0.9396926207859083 -8.376057922197957e-16
vn 0 0 -1
vn 0.34202014332566943 -0.9396926207859083 1.6752115844395914e-17
vn -0.3420201433256679 0.9396926207859089 -1.6751912094376518e-16
vn 0.6644630243886748 0.24184476264797544 -0.7071067811865475
vn 0.34202014332566827 -0.9396926207859085 -4.690535386425422e-16
vn -0.3420201433256678 0.9396926207859089 0
vn 0.9396926207859083 0.34202014332566893 0
vn 0.3420201433256685 -0.9396926207859085 0
vn -0.3420201433256679 0.9396926207859089 1.5076720884938865e-16
vn 0.6644630243886749 0.24184476264797544 0.7071067811865474
vn 0.34202014332566827 -0.9396926207859085 4.690535386425422e-16
vn -0.3420201433256694 0.9396926207859083 8.376057922197957e-16
vn 0 0 1
vn 0.34202014332566943 -0.9396926207859083 -1.6752115844395914e-17
vn -0.3420201433256693 0.9396926207859082 -5.956255265356494e-17
vn -0.6644630243886747 -0.2418447626479754 0.7071067811865476
vn -0.3420201433256693 0.9396926207859082 0
vn -0.9396926207859083 -0.34202014332566893 0
vn -0.3420201433256693 0.9396926207859082 5.956255265356494e-17
vn -0.6644630243886748 -0.24184476264797547 -0.7071067811865476
vn -0.34202014332566927 0.9396926207859082 2.978129961547342e-17
vn 0 0 -1
vn -0.3420201433256693 0.9396926207859082 0
vn 0.6644630243886747 0.2418447626479754 -0.7071067811865476
vn -0.3420201433256693 0.9396926207859082 0
vn 0.9396926207859085 0.34202014332566893 0
vn -0.34202014332566927 0.9396926207859082 0
vn 0.6644630243886747 0.2418447626479754 0.7071067811865476
vn -0.34202014332566927 0.9396926207859082 -2.978129961547342e-17
vn 0 0 1
vn -0.6427876096865389 0.7660444431189783 0
vn -0.7660444431189781 -0.6427876096865393 0
vn 0 0 1
vn 0 0 -1
vn 1 0 0
vn -1 0 0
vn 0 1 0
vn 0 0 1
vn 0 0 -1
vn -3.844739885360992e-17 -1.7342500895266497e-16 -1
vn 3.844739885360986e-17 1.7342500895266493e-16 1
vn 0.9762960071199335 -0.21643961393810285 3.7895612573872017e-16
vn -0.9762960071199335 0.21643961393810282 -4.2374481561254963e-16
vn 0.21643961393810263 0.9762960071199336 3.844739885360984e-17
vn 0.3625872344060832 -0.08038365461029337 -0.9284766908852592
vn 0.36258723440608276 -0.08038365461029284 0.9284766908852594
vn 0.687895589499925 0.7258096568292205 1.1545991223915838e-16
vn -0.3625872344060828 0.08038365461029286 -0.9284766908852595
vn -0.362587234406083 0.08038365461029334 0.9284766908852594
vn -0.316704713908171 0.9485241821842728 -4.468092708425308e-16
vn 0.12005909632237835 0.5415515867233348 -0.8320502943378437
vn 0.12005909632237842 0.5415515867233351 0.8320502943378435
vn -0.19438841596518816 0.5821893555172605 -0.7894736842105263
vn -0.1943884159651882 0.5821893555172608 0.7894736842105261
vn 0.4222195885316119 0.44549065197740606 -0.7894736842105264
vn 0.42221958853161184 0.4454906519774066 0.7894736842105264
vn -0.3420201433256678 0.9396926207859089 -2.010229451325182e-16
vn -0.6644630243886747 -0.24184476264797536 0.7071067811865476
vn 0.3420201433256685 -0.9396926207859086 -3.517901539819069e-16
vn -0.3420201433256677 0.9396926207859088 0
vn -0.9396926207859085 -0.34202014332566893 0
vn 0.3420201433256686 -0.9396926207859085 0
vn -0.34202014332566777 0.9396926207859088 1.8427103303814163e-16
vn -0.6644630243886749 -0.24184476264797541 -0.7071067811865475
vn 0.34202014332566844 -0.9396926207859085 3.3503824188753025e-16
vn -0.3420201433256692 0.9396926207859082 8.041015605310034e-16
vn 0 0 -1
vn 0.3420201433256692 -0.9396926207859082 -3.3504231688791804e-17
vn -0.34202014332566893 0.9396926207859083 9.381070772850844e-16
vn 0.6644630243886749 0.24184476264797547 -0.7071067811865474
vn 0.34202014332566844 -0.9396926207859085 -3.685420660762833e-16
vn -0.3420201433256693 0.9396926207859082 0
vn 0.9396926207859085 0.3420201433256689 0
vn 0.3420201433256686 -0.9396926207859084 0
vn -0.342020143325669 0.9396926207859083 -9.381070772850846e-16
vn 0.6644630243886748 0.24184476264797536 0.7071067811865475
vn 0.3420201433256685 -0.9396926207859086 3.685420660762834e-16
vn -0.3420201433256692 0.9396926207859082 -8.041015605310034e-16
vn 0 0 1
vn 0.3420201433256692 -0.9396926207859082 1.6752115844395902e-17
vn 0.9238795325112867 0.38268343236509017 0
vn -0.9238795325112867 -0.3826834323650899 0
vn -0.3826834323650882 0.9238795325112874 0
vn 0.382683432365088 -0.9238795325112875 0
vn -0.3420201433256693 0.9396926207859082 -5.956255265356494e-17
vn -0.6644630243886746 -0.24184476264797541 0.7071067811865476
vn -0.3420201433256693 0.9396926207859083 0
vn -0.9396926207859083 -0.342020143325669 0
vn -0.3420201433256693 0.9396926207859082 5.956255265356494e-17
vn -0.6644630243886746 -0.24184476264797541 -0.7071067811865476
vn -0.3420201433256692 0.9396926207859083 0
vn 0 0 -1
vn -0.3420201433256668 0.9396926207859092 1.0423446714373874e-15
vn 0.6644630243886751 0.24184476264797564 -0.7071067811865471
vn -0.3420201433256672 0.9396926207859091 0
vn 0.9396926207859083 0.342020143325669 0
vn -0.3420201433256668 0.9396926207859092 -1.0572353096007787e-15
vn 0.6644630243886751 0.24184476264797541 0.7071067811865471
vn -0.3420201433256692 0.9396926207859083 0
vn 0 0 1
vn -1.758950769909533e-16 -0.043619387365335806 0.9990482215818578
vn 0.7071067811865478 0.706433772212892 0.03084356459723182
vn 1.7589507699095334e-16 0.04361938736533581 -0.9990482215818579
vn -1.0470072402747437e-17 -0.0436193873653362 0.9990482215818578
vn 1 0 0
vn 2.324356073409931e-16 0.04361938736533567 -0.9990482215818578
vn 1.5076720884938858e-16 -0.04361938736533582 0.9990482215818579
vn 0.7071067811865476 -0.7064337722128923 -0.030843564597231823
vn 3.831999891588627e-16 0.043619387365336035 -0.9990482215818579
vn 0 -0.043619387365335875 0.9990482215818578
vn 0 -0.9990482215818578 -0.04361938736533589
vn 0 0.043619387365335875 -0.9990482215818578
vn -1.528611978611856e-16 -0.04361938736533581 0.9990482215818578
vn -0.7071067811865472 -0.7064337722128926 -0.030843564597231837
vn -3.852939781706597e-16 0.04361938736533605 -0.9990482215818579
vn 1.0470072402747437e-17 -0.0436193873653362 0.9990482215818578
vn -1 0 0
vn -2.324356073409931e-16 0.04361938736533567 -0.9990482215818578
vn 1.758950769909533e-16 -0.043619387365335806 0.9990482215818579
vn -0.7071067811865476 0.7064337722128923 0.03084356459723183
vn -1.758950769909533e-16 0.043619387365335806 -0.9990482215818579
vn 0 -0.043619387365335875 0.9990482215818578
vn 0 0.9990482215818578 0.04361938736533589
vn 0 0.043619387365335875 -0.9990482215818578
vn 5.0256238845471856e-17 -0.043619387365335854 0.9990482215818578
vn 0.7071067811865476 0.7064337722128922 0.03084356459723211
vn -5.0256238845471856e-17 0.043619387365335854 -0.9990482215818578
vn 0 -0.043619387365335736 0.9990482215818578
vn 1 0 0
vn -5.444306211119327e-17 0.043619387365335875 -0.9990482215818578
vn -1.2982861701746952e-16 -0.04361938736533604 0.9990482215818578
vn 0.7071067811865455 -0.7064337722128944 -0.030843564597230796
vn -8.376039807578643e-17 0.043619387365335806 -0.9990482215818578
vn 0 -0.04361938736533599 0.9990482215818578
vn 0 -0.9990482215818579 -0.043619387365334314
vn 0 0.043619387365335834 -0.9990482215818578
vn 1.277346070655749e-16 -0.04361938736533605 0.9990482215818578
vn -0.707106781186546 -0.7064337722128938 -0.030843564597232156
vn 8.376039807578646e-17 0.0436193873653358 -0.9990482215818578
vn 0 -0.043619387365335736 0.9990482215818578
vn -1 0 0
vn 5.444306211119327e-17 0.043619387365335875 -0.9990482215818578
vn -5.0256238845471874e-17 -0.043619387365335854 0.9990482215818578
vn -0.7071067811865481 0.7064337722128916 0.030843564597232063
vn 5.0256238845471886e-17 0.04361938736533586 -0.9990482215818578
vn 0 -0.043619387365335834 0.9990482215818578
vn 0 0.9990482215818579 0.043619387365336285
vn 0 0.043619387365335834 -0.9990482215818578
usemtl m_7d5b7382-46ab-2deb-9ac4-a1706e9fc89e
f 5/1/1 3/2/1 1/3/1
f 3/4/2 5/5/2 6/6/2 4/7/2
f 4/8/3 6/9/3 2/10/3
f 7/11/4 5/12/4 1/13/4
f 5/14/5 7/15/5 8/16/5 6/17/5
f 6/18/6 8/19/6 2/20/6
f 9/21/7 7/22/7 1/23/7
f 7/24/8 9/25/8 10/26/8 8/27/8
f 8/28/9 10/29/9 2/30/9
f 11/31/10 9/32/10 1/33/10
f 9/34/11 11/35/11 12/36/11 10/37/11
f 10/38/12 12/39/12 2/40/12
f 13/41/13 11/42/13 1/43/13
f 11/44/14 13/45/14 14/46/14 12/47/14
f 12/48/15 14/49/15 2/50/15
f 15/51/16 13/52/16 1/53/16
f 13/54/17 15/55/17 16/56/17 14/57/17
f 14/58/18 16/59/18 2/60/18
f 17/61/19 15/62/19 1/63/19
f 15/64/20 17/65/20 18/66/20 16/67/20
f 16/68/21 18/69/21 2/70/21
f 3/71/22 17/72/22 1/73/22
f 17/74/23 3/75/23 4/76/23 18/77/23
f 18/78/24 4/79/24 2/80/24
f 25/81/25 23/82/25 24/83/25 26/84/25
f 23/85/26 19/86/26 20/87/26 24/88/26
f 21/89/27 19/90/27 23/91/27 25/92/27
f 24/93/28 20/94/28 22/95/28 26/96/28
f 20/97/29 19/98/29 21/99/29 22/100/29
f 28/101/30 27/102/30 29/103/30 30/104/30
f 33/105/31 31/106/31 32/107/31 34/108/31
f 31/109/32 27/110/32 28/111/32 32/112/32
f 29/113/33 27/114/33 31/115/33 33/116/33
f 32/117/34 28/118/34 30/119/34 34/120/34
f 39/121/35 37/122/35 35/123/35
f 37/124/36 39/125/36 40/126/36 38/127/36
f 38/128/37 40/129/37 36/130/37
f 41/131/38 39/132/38 35/133/38
f 39/134/39 41/135/39 42/136/39 40/137/39
f 40/138/40 42/139/40 36/140/40
f 43/141/41 41/142/41 35/143/41
f 41/144/42 43/145/42 44/146/42 42/147/42
f 42/148/43 44/149/43 36/150/43
f 45/151/44 43/152/44 35/153/44
f 43/154/45 45/155/45 46/156/45 44/157/45
f 44/158/46 46/159/46 36/160/46
f 47/161/47 45/162/47 35/163/47
f 45/164/48 47/165/48 48/166/48 46/167/48
f 46/168/49 48/169/49 36/170/49
f 49/171/50 47/172/50 35/173/50
f 47/174/51 49/175/51 50/176/51 48/177/51
f 48/178/52 50/179/52 36/180/52
f 51/181/53 49/182/53 35/183/53
f 49/184/54 51/185/54 52/186/54 50/187/54
f 50/188/55 52/189/55 36/190/55
f 37/191/56 51/192/56 35/193/56
f 51/194/57 37/195/57 38/196/57 52/197/57
f 52/198/58 38/199/58 36/200/58
f 56/201/59 54/202/59 53/203/59
f 54/204/60 56/205/60 57/206/60 55/207/60
f 58/208/61 56/209/61 53/210/61
f 56/211/62 58/212/62 59/213/62 57/214/62
f 60/215/63 58/216/63 53/217/63
f 58/218/64 60/219/64 61/220/64 59/221/64
f 62/222/65 60/223/65 53/224/65
f 60/225/66 62/226/66 63/227/66 61/228/66
f 64/229/67 62/230/67 53/231/67
f 62/232/68 64/233/68 65/234/68 63/235/68
f 66/236/69 64/237/69 53/238/69
f 64/239/70 66/240/70 67/241/70 65/242/70
f 68/243/71 66/244/71 53/245/71
f 66/246/72 68/247/72 69/248/72 67/249/72
f 54/250/73 68/251/73 53/252/73
f 68/253/74 54/254/74 55/255/74 69/256/74
f 76/257/75 74/258/75 75/259/75 77/260/75
f 73/261/76 72/262/76 76/263/76 77/264/76
f 72/265/77 70/266/77 74/267/77 76/268/77
f 75/269/78 71/270/78 73/271/78 77/272/78
f 79/273/79 78/274/79 80/275/79 81/276/79
f 84/277/80 82/278/80 83/279/80 85/280/80
f 82/281/81 78/282/81 79/283/81 83/284/81
f 80/285/82 78/286/82 82/287/82 84/288/82
f 83/289/83 79/290/83 81/291/83 85/292/83
f 101/293/84 99/294/84 98/295/84 100/296/84
f 94/297/85 95/298/85 97/299/85 96/300/85
f 86/301/86 87/302/86 89/303/86 88/304/86
f 93/305/87 91/306/87 90/307/87 92/308/87
f 105/309/88 103/310/88 102/311/88 104/312/88
f 87/313/89 86/314/89 99/315/89 101/316/89
f 95/317/90 88/318/90 89/319/90 97/320/90
f 89/321/91 87/322/91 103/323/91 105/324/91
f 98/325/92 90/326/92 91/327/92 100/328/92
f 93/329/93 92/330/93 94/331/93 96/332/93
f 102/333/94 91/334/94 93/335/94 104/336/94
f 100/337/95 102/338/95 103/339/95 101/340/95
f 105/341/96 104/342/96 96/343/96 97/344/96
f 91/345/97 102/346/97 100/347/97
f 93/348/98 96/349/98 104/350/98
f 87/351/99 101/352/99 103/353/99
f 89/354/100 105/355/100 97/356/100
f 110/357/101 108/358/101 106/359/101
f 108/360/102 110/361/102 111/362/102 109/363/102
f 109/364/103 111/365/103 107/366/103
f 112/367/104 110/368/104 106/369/104
f 110/370/105 112/371/105 113/372/105 111/373/105
f 111/374/106 113/375/106 107/376/106
f 114/377/107 112/378/107 106/379/107
f 112/380/108 114/381/108 115/382/108 113/383/108
f 113/384/109 115/385/109 107/386/109
f 116/387/110 114/388/110 106/389/110
f 114/390/111 116/391/111 117/392/111 115/393/111
f 115/394/112 117/395/112 107/396/112
f 118/397/113 116/398/113 106/399/113
f 116/400/114 118/401/114 119/402/114 117/403/114
f 117/404/115 119/405/115 107/406/115
f 120/407/116 118/408/116 106/409/116
f 118/410/117 120/411/117 121/412/117 119/413/117
f 119/414/118 121/415/118 107/416/118
f 122/417/119 120/418/119 106/419/119
f 120/420/120 122/421/120 123/422/120 121/423/120
f 121/424/121 123/425/121 107/426/121
f 108/427/122 122/428/122 106/429/122
f 122/430/123 108/431/123 109/432/123 123/433/123
f 123/434/124 109/435/124 107/436/124
f 125/437/125 124/438/125 126/439/125 127/440/125
f 130/441/126 128/442/126 129/443/126 131/444/126
f 128/445/127 124/446/127 125/447/127 129/448/127
f 127/449/128 126/450/128 130/451/128 131/452/128
f 135/453/129 133/454/129 132/455/129
f 133/456/130 135/457/130 136/458/130 134/459/130
f 137/460/131 135/461/131 132/462/131
f 135/463/132 137/464/132 138/465/132 136/466/132
f 139/467/133 137/468/133 132/469/133
f 137/470/134 139/471/134 140/472/134 138/473/134
f 141/474/135 139/475/135 132/476/135
f 139/477/136 141/478/136 142/479/136 140/480/136
f 143/481/137 141/482/137 132/483/137
f 141/484/138 143/485/138 144/486/138 142/487/138
f 145/488/139 143/489/139 132/490/139
f 143/491/140 145/492/140 146/493/140 144/494/140
f 147/495/141 145/496/141 132/497/141
f 145/498/142 147/499/142 148/500/142 146/501/142
f 133/502/143 147/503/143 132/504/143
f 147/505/144 133/506/144 134/507/144 148/508/144
f 153/509/145 151/510/145 149/511/145
f 151/512/146 153/513/146 154/514/146 152/515/146
f 152/516/147 154/517/147 150/518/147
f 155/519/148 153/520/148 149/521/148
f 153/522/149 155/523/149 156/524/149 154/525/149
f 154/526/150 156/527/150 150/528/150
f 157/529/151 155/530/151 149/531/151
f 155/532/152 157/533/152 158/534/152 156/535/152
f 156/536/153 158/537/153 150/538/153
f 159/539/154 157/540/154 149/541/154
f 157/542/155 159/543/155 160/544/155 158/545/155
f 158/546/156 160/547/156 150/548/156
f 161/549/157 159/550/157 149/551/157
f 159/552/158 161/553/158 162/554/158 160/555/158
f 160/556/159 162/557/159 150/558/159
f 163/559/160 161/560/160 149/561/160
f 161/562/161 163/563/161 164/564/161 162/565/161
f 162/566/162 164/567/162 150/568/162
f 165/569/163 163/570/163 149/571/163
f 163/572/164 165/573/164 166/574/164 164/575/164
f 164/576/165 166/577/165 150/578/165
f 151/579/166 165/580/166 149/581/166
f 165/582/167 151/583/167 152/584/167 166/585/167
f 166/586/168 152/587/168 150/588/168
f 171/589/169 169/590/169 167/591/169
f 169/592/170 171/593/170 172/594/170 170/595/170
f 170/596/171 172/597/171 168/598/171
f 173/599/172 171/600/172 167/601/172
f 171/602/173 173/603/173 174/604/173 172/605/173
f 172/606/174 174/607/174 168/608/174
f 175/609/175 173/610/175 167/611/175
f 173/612/176 175/613/176 176/614/176 174/615/176
f 174/616/177 176/617/177 168/618/177
f 177/619/178 175/620/178 167/621/178
f 175/622/179 177/623/179 178/624/179 176/625/179
f 176/626/180 178/627/180 168/628/180
f 179/629/181 177/630/181 167/631/181
f 177/632/182 179/633/182 180/634/182 178/635/182
f 178/636/183 180/637/183 168/638/183
f 181/639/184 179/640/184 167/641/184
f 179/642/185 181/643/185 182/644/185 180/645/185
f 180/646/186 182/647/186 168/648/186
f 183/649/187 181/650/187 167/651/187
f 181/652/188 183/653/188 184/654/188 182/655/188
f 182/656/189 184/657/189 168/658/189
f 169/659/190 183/660/190 167/661/190
f 183/662/191 169/663/191 170/664/191 184/665/191
f 184/666/192 170/667/192 168/668/192