# Made in Blockbench 5.1.6
mtllib press_carriage.mtl

o Цилиндр.007
v -1.1103237499999998 1.69347875 -0.9955600000000002
v -1.8672931249999998 1.736086875 -1.0381668750000004
v -1.8672931249999998 1.69347875 -0.9955600000000004
v -1.1103237499999998 1.736086875 -1.0873668750000003
v -1.8672931249999998 1.736086875 -1.0873668750000005
v -1.8672931249999998 1.69347875 -1.1299750000000004
v -1.8672931249999998 1.465191875 -1.1273612500000005
v -1.1103237499999998 1.480788125 -1.1855650000000002
v -1.1103237499999998 1.465191875 -1.1273612500000003
v -1.8672931249999998 1.480788125 -1.1855650000000004
v -1.1103237499999998 1.52339625 -1.2101637500000002
v -1.8672931249999998 1.52339625 -1.2101637500000004
v -1.1103237499999998 1.58159875 -1.1945687500000002
v -1.8672931249999998 1.58159875 -0.9309662500000004
v -1.1103237499999998 1.52339625 -0.9153700000000002
v -1.1103237499999998 1.58159875 -0.9309662500000002
v -1.8672931249999998 1.52339625 -0.9153700000000005
v -1.1103237499999998 1.480788125 -0.9399700000000002
v -1.8672931249999998 1.480788125 -0.9399700000000004
v -1.1103237499999998 1.465191875 -0.9981731250000002
v -1.8672931249999998 1.58159875 -1.1945687500000004
v -1.8672931249999998 1.465191875 -0.9981731250000004
v -1.1748818749999999 1.79333 -0.9093700000000002
v -1.2062987499999998 1.428635 -0.8678581250000003
v -1.1748818749999999 1.428635 -0.9093700000000002
v -1.8027349999999998 1.428635 -0.9093700000000005
v -1.7713187499999998 1.79333 -0.8678581250000005
v -1.8027349999999998 1.79333 -0.9093700000000005
v -1.7713187499999998 1.428635 -1.2576762500000005
v -1.8027349999999998 1.79333 -1.2161637500000004
v -1.7713187499999998 1.79333 -1.2576762500000005
v -1.1748818749999999 1.428635 -1.2161637500000002
v -1.2062987499999998 1.79333 -1.2576762500000003
v -1.1748818749999999 1.79333 -1.2161637500000002
v -1.7713187499999998 1.428635 -0.8678581250000005
v -1.8027349999999998 1.428635 -1.2161637500000004
v -1.7409331249999997 1.46878625 -1.2576762500000005
v -1.7409331249999997 1.75318 -1.2576762500000005
v -1.2366849999999998 1.75318 -1.2576762500000003
v -1.2062987499999998 1.428635 -1.2576762500000003
v -1.2366849999999998 1.46878625 -1.2576762500000003
v -1.7409331249999997 1.75318 -1.2260787500000006
v -1.2366849999999998 1.46878625 -1.2260787500000003
v -1.7409331249999997 1.46878625 -1.2260787500000006
v -1.2366849999999998 1.75318 -1.2260787500000003
v -1.2577462499999998 1.39758 -0.9306650000000003
v -1.7198718749999997 1.44096625 -0.9306650000000003
v -1.2577462499999998 1.44096625 -0.9306650000000003
v -1.7198718749999997 1.39758 -0.9306650000000003
v -1.7198718749999997 1.44096625 -1.1948687500000004
v -1.7198718749999997 1.39758 -1.1948687500000004
v -1.2577462499999998 1.44096625 -1.1948687500000001
v -1.2577462499999998 1.39758 -1.1948687500000001
v -1.1103237499999998 1.736086875 -1.0381668750000002
v -1.1103237499999998 1.69347875 -1.1299750000000002
v -1.2062987499999998 1.79333 -0.8678581250000003
vt 0.44618359375 0.9068109375
vt 0.25694140625 0.921875
vt 0.25694140625 0.9068109375
vt 0.1735375 0.609375
vt 0.1858375 0.4201328125
vt 0.1858375 0.609375
vt 0.25694140625 1
vt 0.44618359375 0.9849359375
vt 0.44618359375 1
vt 0.04739765625 0.5
vt 0.06246328125 0.6892421875
vt 0.04739765625 0.6892421875
vt 0.63368359375 0.796875
vt 0.44444140625 0.8091734375
vt 0.44444140625 0.796875
vt 0.44618359375 0.937575
vt 0.25694140625 0.9526390625
vt 0.25694140625 0.937575
vt 0.25694140625 0.8745140625
vt 0.44618359375 0.85945
vt 0.44618359375 0.8745140625
vt 0.44444140625 0.840425
vt 0.63368359375 0.828125
vt 0.63368359375 0.840425
vt 0.00003671875 0.5
vt 0.01510078125 0.6892421875
vt 0.00003671875 0.6892421875
vt 0.44413515625 0.7393484375
vt 0.44478828125 0.6822765625
vt 0.49388671875 0.711378125
vt 0.44618359375 0.9849359375
vt 0.25694140625 0.9526390625
vt 0.44618359375 0.9526390625
vt 0.25694140625 0.8745140625
vt 0.44618359375 0.9068109375
vt 0.25694140625 0.9068109375
vt 0.49388828125 0.617628125
vt 0.44413671875 0.6455984375
vt 0.44478984375 0.5885265625
vt 0.04739765625 0.6892421875
vt 0.01510078125 0.5
vt 0.04739765625 0.5
vt 0.388015625 0.5625
vt 0.375 0.47132656250000005
vt 0.388015625 0.47132656250000005
vt 0.408859375 0.47132656250000005
vt 0.421875 0.5625
vt 0.408859375 0.5625
vt 0.4375 0.47132656250000005
vt 0.4505140625 0.5625
vt 0.4375 0.5625
vt 0.346359375 0.47132656250000005
vt 0.359375 0.5625
vt 0.346359375 0.5625
vt 0.10341484375 0.8359796875000001
vt 0.09303671875 0.9850890625
vt 0.00596015625 0.977234375
vt 0.14875234375 0.7213265625
vt 0.00749765625 0.8125
vt 0.00749765625 0.7213265625
vt 0.42116171875 0.84375
vt 0.34446328125 0.7525765625
vt 0.42116171875 0.7525765625
vt 0.13096015625 0.9921453125
vt 0.14133828125 0.8430359375
vt 0.22841484375 0.850890625
vt 0.15553671875 0.609375
vt 0.07883828125 0.5182015625
vt 0.15553671875 0.5182015625
vt 0.31303046875 0.7313640625
vt 0.32062734375 0.8125
vt 0.31303046875 0.8024625
vt 0.18696953125 0.8024625
vt 0.17937265625 0.7213265625
vt 0.18696953125 0.7313640625
vt 0.31303046875 0.7313640625
vt 0.17937265625 0.7213265625
vt 0.32062734375 0.7213265625
vt 0.18696953125 0.8024625
vt 0.32062734375 0.8125
vt 0.17937265625 0.8125
vt 0.21146796875 0.703125
vt 0.08540703125 0.6320265625
vt 0.21146796875 0.6320265625
vt 0.23823828125 0.53125
vt 0.24613671875 0.4601515625
vt 0.24613671875 0.53125
vt 0.47261328125 0.9854359375
vt 0.48051171875 0.859375
vt 0.48051171875 0.9854359375
vt 0.27738671875 0.4601515625
vt 0.26948828125 0.53125
vt 0.26948828125 0.4601515625
vt 0.20698828125 0.53125
vt 0.21488671875 0.4051890625
vt 0.21488671875 0.53125
vt 0.32339140625 0.5625
vt 0.20785859375 0.5516531250000001
vt 0.20785859375 0.5625
vt 0.27521328125 0.78125
vt 0.20916171875 0.770403125
vt 0.20916171875 0.78125
vt 0.55776640625 0.78125
vt 0.44223359375 0.770403125
vt 0.44223359375 0.78125
vt 0.32208828125 0.84375
vt 0.25603671875 0.832903125
vt 0.25603671875 0.84375
vt 0.30646328125 0.578125
vt 0.24041171875 0.6936578125
vt 0.24041171875 0.578125
vt 0.40021328125 0.5875921875
vt 0.33416171875 0.703125
vt 0.40021328125 0.703125
vt 0.44618359375 0.9068109375
vt 0.44618359375 0.921875
vt 0.25694140625 0.921875
vt 0.1735375 0.609375
vt 0.1735375 0.4201328125
vt 0.1858375 0.4201328125
vt 0.25694140625 1
vt 0.25694140625 0.9849359375
vt 0.44618359375 0.9849359375
vt 0.04739765625 0.5
vt 0.06246328125 0.5
vt 0.06246328125 0.6892421875
vt 0.63368359375 0.796875
vt 0.63368359375 0.8091734375
vt 0.44444140625 0.8091734375
vt 0.44618359375 0.937575
vt 0.44618359375 0.9526390625
vt 0.25694140625 0.9526390625
vt 0.25694140625 0.8745140625
vt 0.25694140625 0.85945
vt 0.44618359375 0.85945
vt 0.44444140625 0.840425
vt 0.44444140625 0.828125
vt 0.63368359375 0.828125
vt 0.00003671875 0.5
vt 0.01510078125 0.5
vt 0.01510078125 0.6892421875
vt 0.49388671875 0.711378125
vt 0.47773828125 0.7393484375
vt 0.46708671875 0.75
vt 0.46708671875 0.75
vt 0.45478671875 0.75
vt 0.44413515625 0.7393484375
vt 0.44413515625 0.7393484375
vt 0.42798671875 0.711378125
vt 0.42408828125 0.6968265625000001
vt 0.42408828125 0.6968265625000001
vt 0.43023828125 0.686175
vt 0.44478828125 0.6822765625
vt 0.44478828125 0.6822765625
vt 0.47708515625 0.6822765625
vt 0.49163671875 0.686175
vt 0.49163671875 0.686175
vt 0.49778671875 0.6968265625000001
vt 0.49388671875 0.711378125
vt 0.49388671875 0.711378125
vt 0.46708671875 0.75
vt 0.44413515625 0.7393484375
vt 0.44413515625 0.7393484375
vt 0.42408828125 0.6968265625000001
vt 0.44478828125 0.6822765625
vt 0.44478828125 0.6822765625
vt 0.49163671875 0.686175
vt 0.49388671875 0.711378125
vt 0.44618359375 0.9849359375
vt 0.25694140625 0.9849359375
vt 0.25694140625 0.9526390625
vt 0.25694140625 0.8745140625
vt 0.44618359375 0.8745140625
vt 0.44618359375 0.9068109375
vt 0.44478984375 0.5885265625
vt 0.47708671875 0.5885265625
vt 0.49163671875 0.592425
vt 0.49163671875 0.592425
vt 0.49778671875 0.6030765625000001
vt 0.49388828125 0.617628125
vt 0.49388828125 0.617628125
vt 0.47773984375 0.6455984375
vt 0.46708828125 0.65625
vt 0.46708828125 0.65625
vt 0.45478828125 0.65625
vt 0.44413671875 0.6455984375
vt 0.44413671875 0.6455984375
vt 0.42798828125 0.617628125
vt 0.42408828125 0.6030765625000001
vt 0.42408828125 0.6030765625000001
vt 0.43023828125 0.592425
vt 0.44478984375 0.5885265625
vt 0.44478984375 0.5885265625
vt 0.49163671875 0.592425
vt 0.49388828125 0.617628125
vt 0.49388828125 0.617628125
vt 0.46708828125 0.65625
vt 0.44413671875 0.6455984375
vt 0.44413671875 0.6455984375
vt 0.42408828125 0.6030765625000001
vt 0.44478984375 0.5885265625
vt 0.04739765625 0.6892421875
vt 0.01510078125 0.6892421875
vt 0.01510078125 0.5
vt 0.388015625 0.5625
vt 0.375 0.5625
vt 0.375 0.47132656250000005
vt 0.408859375 0.47132656250000005
vt 0.421875 0.47132656250000005
vt 0.421875 0.5625
vt 0.4375 0.47132656250000005
vt 0.4505140625 0.47132656250000005
vt 0.4505140625 0.5625
vt 0.346359375 0.47132656250000005
vt 0.359375 0.47132656250000005
vt 0.359375 0.5625
vt 0.00596015625 0.977234375
vt 0.00596015625 0.8359796875000001
vt 0.01633828125 0.828125
vt 0.01633828125 0.828125
vt 0.09303671875 0.828125
vt 0.10341484375 0.8359796875000001
vt 0.10341484375 0.8359796875000001
vt 0.10341484375 0.977234375
vt 0.09303671875 0.9850890625
vt 0.09303671875 0.9850890625
vt 0.01633828125 0.9850890625
vt 0.00596015625 0.977234375
vt 0.00596015625 0.977234375
vt 0.01633828125 0.828125
vt 0.10341484375 0.8359796875000001
vt 0.14875234375 0.7213265625
vt 0.14875234375 0.8125
vt 0.00749765625 0.8125
vt 0.42116171875 0.84375
vt 0.34446328125 0.84375
vt 0.34446328125 0.7525765625
vt 0.22841484375 0.850890625
vt 0.22841484375 0.9921453125
vt 0.21803671875 1
vt 0.21803671875 1
vt 0.14133828125 1
vt 0.13096015625 0.9921453125
vt 0.13096015625 0.9921453125
vt 0.13096015625 0.850890625
vt 0.14133828125 0.8430359375
vt 0.14133828125 0.8430359375
vt 0.21803671875 0.8430359375
vt 0.22841484375 0.850890625
vt 0.22841484375 0.850890625
vt 0.21803671875 1
vt 0.13096015625 0.9921453125
vt 0.15553671875 0.609375
vt 0.07883828125 0.609375
vt 0.07883828125 0.5182015625
vt 0.31303046875 0.7313640625
vt 0.32062734375 0.7213265625
vt 0.32062734375 0.8125
vt 0.18696953125 0.8024625
vt 0.17937265625 0.8125
vt 0.17937265625 0.7213265625
vt 0.31303046875 0.7313640625
vt 0.18696953125 0.7313640625
vt 0.17937265625 0.7213265625
vt 0.18696953125 0.8024625
vt 0.31303046875 0.8024625
vt 0.32062734375 0.8125
vt 0.21146796875 0.703125
vt 0.08540703125 0.703125
vt 0.08540703125 0.6320265625
vt 0.23823828125 0.53125
vt 0.23823828125 0.4601515625
vt 0.24613671875 0.4601515625
vt 0.47261328125 0.9854359375
vt 0.47261328125 0.859375
vt 0.48051171875 0.859375
vt 0.27738671875 0.4601515625
vt 0.27738671875 0.53125
vt 0.26948828125 0.53125
vt 0.20698828125 0.53125
vt 0.20698828125 0.4051890625
vt 0.21488671875 0.4051890625
vt 0.32339140625 0.5516531250000001
vt 0.20785859375 0.5516531250000001
vt 0.32339140625 0.5625
vt 0.27521328125 0.770403125
vt 0.20916171875 0.770403125
vt 0.27521328125 0.78125
vt 0.55776640625 0.770403125
vt 0.44223359375 0.770403125
vt 0.55776640625 0.78125
vt 0.32208828125 0.832903125
vt 0.25603671875 0.832903125
vt 0.32208828125 0.84375
vt 0.30646328125 0.578125
vt 0.30646328125 0.6936578125
vt 0.24041171875 0.6936578125
vt 0.33416171875 0.5875921875
vt 0.33416171875 0.703125
vt 0.40021328125 0.5875921875
vn -1.570115489854095e-16 0.7070964087173901 0.7071171535035546
vn 0 1 0
vn 1.570092458683779e-16 0.7071067811865457 -0.7071067811865493
vn 5.747144301179247e-17 -0.9659233278209792 -0.25882836933235326
vn 1.9229834489239687e-16 -0.4999838039066597 -0.8660347544013617
vn 2.144789067199289e-16 0.25881420050252646 -0.9659271243827031
vn -2.1447775512609495e-16 0.25883355571579336 0.9659219380651417
vn -1.9229590209666694e-16 -0.5000028591841229 0.8660237530274226
vn -5.747201881046155e-17 -0.9659226329535034 0.25883096249902476
vn -1 0 -2.220446049250313e-16
vn 1.9229641608689425e-16 0.4999988498313177 -0.8660260678336188
vn -1.9229641608689425e-16 0.4999988498313177 0.8660260678336188
vn 1 0 2.220446049250313e-16
vn 0 -1 0
vn 0.797383433782503 0 0.603472998177404
vn -0.797389210755362 0 0.6034653648478437
vn -0.7973935827184333 0 -0.6034595879091333
vn 0.797387805824505 0 -0.6034672212493252
vn 0 -1 0
vn -2.220446049250313e-16 0 1
vn 1 0 2.220446049250313e-16
vn 0 1 0
vn -1 0 -2.220446049250313e-16
vn 2.220446049250313e-16 0 -1
vn 2.220446049250313e-16 0 -1
vn 2.220446049250313e-16 0 -1
vn 2.220446049250313e-16 0 -1
vn 2.220446049250313e-16 0 -1
vn 1 0 2.220446049250313e-16
vn 0 -1 0
vn -1 0 -2.220446049250313e-16
vn 0 1 0
vn -2.220446049250313e-16 0 1
vn -1 0 -2.220446049250313e-16
vn 2.220446049250313e-16 0 -1
vn 1 0 2.220446049250313e-16
vn 0 -1 0
vn 0 -1 0
vn -1.570115489854095e-16 0.7070964087173901 0.7071171535035546
vn 0 1 0
vn 1.570092458683779e-16 0.7071067811865457 -0.7071067811865493
vn 5.747144301179247e-17 -0.9659233278209792 -0.25882836933235326
vn 1.9229834489239687e-16 -0.4999838039066597 -0.8660347544013617
vn 2.144789067199289e-16 0.25881420050252646 -0.9659271243827031
vn -2.1447775512609495e-16 0.25883355571579336 0.9659219380651417
vn -1.9229590209666694e-16 -0.5000028591841229 0.8660237530274226
vn -5.747201881046155e-17 -0.9659226329535034 0.25883096249902476
vn -1 0 -2.220446049250313e-16
vn -1 0 -2.220446049250313e-16
vn -1 0 -2.220446049250313e-16
vn -1 0 -2.220446049250313e-16
vn -1 0 -2.220446049250313e-16
vn -1 0 -2.220446049250313e-16
vn -1 0 -2.220446049250313e-16
vn -1 0 -2.220446049250313e-16
vn -1 0 -2.220446049250313e-16
vn 1.9229641608689425e-16 0.4999988498313177 -0.8660260678336188
vn -1.9229641608689425e-16 0.4999988498313177 0.8660260678336188
vn 1 0 2.220446049250313e-16
vn 1 0 2.220446049250313e-16
vn 1 0 2.220446049250313e-16
vn 1 0 2.220446049250313e-16
vn 1 0 2.220446049250313e-16
vn 1 0 2.220446049250313e-16
vn 1 0 2.220446049250313e-16
vn 1 0 2.220446049250313e-16
vn 1 0 2.220446049250313e-16
vn 0 -1 0
vn 0.797383433782503 0 0.603472998177404
vn -0.797389210755362 0 0.6034653648478437
vn -0.7973935827184333 0 -0.6034595879091333
vn 0.797387805824505 0 -0.6034672212493252
vn 0 -1 0
vn 0 -1 0
vn 0 -1 0
vn 0 -1 0
vn 0 -1 0
vn -2.220446049250313e-16 0 1
vn 1 0 2.220446049250313e-16
vn 0 1 0
vn 0 1 0
vn 0 1 0
vn 0 1 0
vn 0 1 0
vn -1 0 -2.220446049250313e-16
vn 2.220446049250313e-16 0 -1
vn 2.220446049250313e-16 0 -1
vn 2.220446049250313e-16 0 -1
vn 2.220446049250313e-16 0 -1
vn 2.220446049250313e-16 0 -1
vn 1 0 2.220446049250313e-16
vn 0 -1 0
vn -1 0 -2.220446049250313e-16
vn 0 1 0
vn -2.220446049250313e-16 0 1
vn -1 0 -2.220446049250313e-16
vn 2.220446049250313e-16 0 -1
vn 1 0 2.220446049250313e-16
vn 0 -1 0
vn 0 -1 0
usemtl m_a5f4c66a-2392-d123-5536-5ca4c5c37dac
f 1/1/1 2/2/1 3/3/1
f 2/4/2 4/5/2 5/6/2
f 4/7/3 6/8/3 5/9/3
f 7/10/4 8/11/4 9/12/4
f 10/13/5 11/14/5 8/15/5
f 12/16/6 13/17/6 11/18/6
f 14/19/7 15/20/7 16/21/7
f 17/22/8 18/23/8 15/24/8
f 19/25/9 20/26/9 18/27/9
f 6/28/10 7/29/10 14/30/10
f 6/31/11 13/32/11 21/33/11
f 14/34/12 1/35/12 3/36/12
f 13/37/13 1/38/13 20/39/13
f 9/40/14 22/41/14 7/42/14
f 23/43/15 24/44/15 25/45/15
f 26/46/16 27/47/16 28/48/16
f 29/49/17 30/50/17 31/51/17
f 32/52/18 33/53/18 34/54/18
f 29/55/19 32/56/19 24/57/19
f 24/58/20 27/59/20 35/60/20
f 34/61/21 25/62/21 32/63/21
f 27/64/22 23/65/22 33/66/22
f 28/67/23 36/68/23 26/69/23
f 37/70/24 31/71/24 38/72/24
f 39/73/25 40/74/25 41/75/25
f 37/76/26 40/77/26 29/78/26
f 39/79/27 31/80/27 33/81/27
f 42/82/28 43/83/28 44/84/28
f 42/85/29 37/86/29 38/87/29
f 45/88/30 38/89/30 39/90/30
f 43/91/31 39/92/31 41/93/31
f 44/94/32 41/95/32 37/96/32
f 47/97/33 46/98/33 48/99/33
f 50/100/34 49/101/34 47/102/34
f 52/103/35 51/104/35 50/105/35
f 48/106/36 53/107/36 52/108/36
f 50/109/37 48/110/37 47/111/37
f 53/112/38 49/113/38 51/114/38
f 1/115/39 54/116/39 2/117/39
f 2/118/40 54/119/40 4/120/40
f 4/121/41 55/122/41 6/123/41
f 7/124/42 10/125/42 8/126/42
f 10/127/43 12/128/43 11/129/43
f 12/130/44 21/131/44 13/132/44
f 14/133/45 17/134/45 15/135/45
f 17/136/46 19/137/46 18/138/46
f 19/139/47 22/140/47 20/141/47
f 14/142/48 3/143/48 2/144/48
f 2/145/49 5/146/49 6/147/49
f 6/148/50 21/149/50 12/150/50
f 12/151/51 10/152/51 7/153/51
f 7/154/52 22/155/52 19/156/52
f 19/157/53 17/158/53 14/159/53
f 14/160/54 2/161/54 6/162/54
f 6/163/55 12/164/55 7/165/55
f 7/166/56 19/167/56 14/168/56
f 6/169/57 55/170/57 13/171/57
f 14/172/58 16/173/58 1/174/58
f 20/175/59 9/176/59 8/177/59
f 8/178/60 11/179/60 13/180/60
f 13/181/61 55/182/61 4/183/61
f 4/184/62 54/185/62 1/186/62
f 1/187/63 16/188/63 15/189/63
f 15/190/64 18/191/64 20/192/64
f 20/193/65 8/194/65 13/195/65
f 13/196/66 4/197/66 1/198/66
f 1/199/67 15/200/67 20/201/67
f 9/202/68 20/203/68 22/204/68
f 23/205/69 56/206/69 24/207/69
f 26/208/70 35/209/70 27/210/70
f 29/211/71 36/212/71 30/213/71
f 32/214/72 40/215/72 33/216/72
f 24/217/73 35/218/73 26/219/73
f 26/220/74 36/221/74 29/222/74
f 29/223/75 40/224/75 32/225/75
f 32/226/76 25/227/76 24/228/76
f 24/229/77 26/230/77 29/231/77
f 24/232/78 56/233/78 27/234/78
f 34/235/79 23/236/79 25/237/79
f 33/238/80 31/239/80 30/240/80
f 30/241/81 28/242/81 27/243/81
f 27/244/82 56/245/82 23/246/82
f 23/247/83 34/248/83 33/249/83
f 33/250/84 30/251/84 27/252/84
f 28/253/85 30/254/85 36/255/85
f 37/256/86 29/257/86 31/258/86
f 39/259/87 33/260/87 40/261/87
f 37/262/88 41/263/88 40/264/88
f 39/265/89 38/266/89 31/267/89
f 42/268/90 45/269/90 43/270/90
f 42/271/91 44/272/91 37/273/91
f 45/274/92 42/275/92 38/276/92
f 43/277/93 45/278/93 39/279/93
f 44/280/94 43/281/94 41/282/94
f 49/283/95 46/284/95 47/285/95
f 51/286/96 49/287/96 50/288/96
f 53/289/97 51/290/97 52/291/97
f 46/292/98 53/293/98 48/294/98
f 50/295/99 52/296/99 48/297/99
f 46/298/100 49/299/100 53/300/100