# Made in Blockbench 5.1.6
mtllib press_head.mtl

o Куб.011
v -1.7198712499999997 1.393046875 -0.9306650000000003
v -1.2577462499999998 1.34966125 -0.9306650000000003
v -1.2577462499999998 1.393046875 -0.9306650000000003
v -1.7198712499999997 1.393046875 -1.1948687500000004
v -1.7198712499999997 1.34966125 -0.9306650000000003
v -1.2577462499999998 1.393046875 -1.1948687500000001
v -1.7198712499999997 1.34966125 -1.1948687500000004
v -1.2577462499999998 1.34966125 -1.1948687500000001
v -1.3136781249999998 1.393046875 -0.9453081250000004
v -1.6639387499999998 1.393046875 -0.9453081250000004
v -1.6639387499999998 1.393046875 -1.1802262500000005
v -1.3136781249999998 1.393046875 -1.1802262500000003
v -1.3136781249999998 1.62953875 -0.9453081250000004
v -1.6639387499999998 1.62953875 -1.1802262500000005
v -1.6639387499999998 1.62953875 -0.9453081250000004
v -1.3466662499999997 1.392216875 -1.1802262500000003
v -1.3136781249999998 1.62953875 -1.1802262500000003
v -1.3466662499999997 1.63036875 -1.1802262500000003
v -1.6309512499999999 1.63036875 -1.1802262500000005
v -1.6309512499999999 1.392216875 -1.1614450000000005
v -1.3466662499999997 1.63036875 -1.1614450000000003
v -1.3466662499999997 1.392216875 -1.1614450000000003
v -1.6309512499999999 1.63036875 -1.1614450000000005
v -1.6309512499999999 1.392216875 -1.1802262500000005
vt 0.37665625 0.53125
vt 0.60771875 0.5095562499999999
vt 0.60771875 0.53125
vt 0.0042609375 0.5625
vt 0.1363640625 0.5408062499999999
vt 0.1363640625 0.5625
vt 0.00165625 0.5
vt 0.23271875 0.47830625000000004
vt 0.23271875 0.5
vt 0.5355109375 0.84375
vt 0.6676140625 0.8220562499999999
vt 0.6676140625 0.84375
vt 0.1363640625 0.9966875
vt 0.0042609375 0.765625
vt 0.1363640625 0.765625
vt 0.1917609375 1
vt 0.1990828125 0.796903125
vt 0.1990828125 0.972034375
vt 0.3238640625 1
vt 0.1990828125 0.972034375
vt 0.3165421875 0.972034375
vt 0.3238640625 0.7689375
vt 0.3165421875 0.972034375
vt 0.3165421875 0.796903125
vt 0.1917609375 0.7689375
vt 0.3165421875 0.796903125
vt 0.1990828125 0.796903125
vt 0.21875 0.546875
vt 0.34375 0.71875
vt 0.21875 0.71875
vt 0.4962296875 0.72550625
vt 0.3787703125 0.84375
vt 0.3787703125 0.72550625
vt 0.4962296875 0.56925625
vt 0.3787703125 0.6875
vt 0.3787703125 0.56925625
vt 0.181315625 0.60050625
vt 0.006184375 0.71875
vt 0.006184375 0.60050625
vt 0.3125 0.375
vt 0.296875 0.5
vt 0.296875 0.375
vt 0.69606875 0.625
vt 0.537434375 0.624584375
vt 0.712565625 0.624584375
vt 0.546875 0.78125
vt 0.5625 0.65625
vt 0.5625 0.78125
vt 0.006184375 0.4375
vt 0.16481875 0.43708437499999997
vt 0.181315625 0.4375
vt 0.53125 0.875
vt 0.375 1
vt 0.375 0.875
vt 0.4718671875 0.34967499999999996
vt 0.4812578125 0.46875
vt 0.4718671875 0.46875
vt 0.3562578125 0.454640625
vt 0.3468671875 0.3125
vt 0.3562578125 0.3125
vt 0.5437578125 0.46875
vt 0.5343671875 0.34967499999999996
vt 0.5437578125 0.34967499999999996
vt 0.41953125 0.48515624999999996
vt 0.4015625 0.328125
vt 0.41953125 0.328125
vt 0.37665625 0.53125
vt 0.37665625 0.5095562499999999
vt 0.60771875 0.5095562499999999
vt 0.0042609375 0.5625
vt 0.0042609375 0.5408062499999999
vt 0.1363640625 0.5408062499999999
vt 0.00165625 0.5
vt 0.00165625 0.47830625000000004
vt 0.23271875 0.47830625000000004
vt 0.5355109375 0.84375
vt 0.5355109375 0.8220562499999999
vt 0.6676140625 0.8220562499999999
vt 0.1363640625 0.9966875
vt 0.0042609375 0.9966875
vt 0.0042609375 0.765625
vt 0.1917609375 1
vt 0.1917609375 0.7689375
vt 0.1990828125 0.796903125
vt 0.3238640625 1
vt 0.1917609375 1
vt 0.1990828125 0.972034375
vt 0.3238640625 0.7689375
vt 0.3238640625 1
vt 0.3165421875 0.972034375
vt 0.1917609375 0.7689375
vt 0.3238640625 0.7689375
vt 0.3165421875 0.796903125
vt 0.21875 0.546875
vt 0.34375 0.546875
vt 0.34375 0.71875
vt 0.4962296875 0.72550625
vt 0.4962296875 0.84375
vt 0.3787703125 0.84375
vt 0.4962296875 0.56925625
vt 0.4962296875 0.6875
vt 0.3787703125 0.6875
vt 0.181315625 0.60050625
vt 0.181315625 0.71875
vt 0.006184375 0.71875
vt 0.3125 0.375
vt 0.3125 0.5
vt 0.296875 0.5
vt 0.69606875 0.625
vt 0.553928125 0.625
vt 0.537434375 0.624584375
vt 0.546875 0.78125
vt 0.546875 0.65625
vt 0.5625 0.65625
vt 0.006184375 0.4375
vt 0.022678125 0.43708437499999997
vt 0.16481875 0.43708437499999997
vt 0.53125 0.875
vt 0.53125 1
vt 0.375 1
vt 0.4718671875 0.34967499999999996
vt 0.4812578125 0.34967499999999996
vt 0.4812578125 0.46875
vt 0.3562578125 0.454640625
vt 0.3468671875 0.454640625
vt 0.3468671875 0.3125
vt 0.5437578125 0.46875
vt 0.5343671875 0.46875
vt 0.5343671875 0.34967499999999996
vt 0.41953125 0.48515624999999996
vt 0.4015625 0.48515624999999996
vt 0.4015625 0.328125
vn -2.220446049250313e-16 0 1
vn -1 0 -2.220446049250313e-16
vn 2.220446049250313e-16 0 -1
vn 1 0 2.220446049250313e-16
vn 0 -1 0
vn 0 1 0
vn 0 1 0
vn 0 1 0
vn 0 1 0
vn 0 1 0
vn -1 0 -2.220446049250313e-16
vn 1 0 2.220446049250313e-16
vn -2.220446049250313e-16 0 1
vn 2.220446049250313e-16 0 -1
vn -2.220446049250313e-16 0 1
vn 2.220446049250313e-16 0 -1
vn -2.220446049250313e-16 0 1
vn 2.220446049250313e-16 0 -1
vn -1 0 -2.220446049250313e-16
vn 0 -1 0
vn 1 0 2.220446049250313e-16
vn 0 1 0
vn -2.220446049250313e-16 0 1
vn -1 0 -2.220446049250313e-16
vn 2.220446049250313e-16 0 -1
vn 1 0 2.220446049250313e-16
vn 0 -1 0
vn 0 1 0
vn 0 1 0
vn 0 1 0
vn 0 1 0
vn 0 1 0
vn -1 0 -2.220446049250313e-16
vn 1 0 2.220446049250313e-16
vn -2.220446049250313e-16 0 1
vn 2.220446049250313e-16 0 -1
vn -2.220446049250313e-16 0 1
vn 2.220446049250313e-16 0 -1
vn -2.220446049250313e-16 0 1
vn 2.220446049250313e-16 0 -1
vn -1 0 -2.220446049250313e-16
vn 0 -1 0
vn 1 0 2.220446049250313e-16
vn 0 1 0
usemtl m_a9ccd205-7d26-5a67-5672-35b4936cf62f
f 1/1/1 2/2/1 3/3/1
f 4/4/2 5/5/2 1/6/2
f 6/7/3 7/8/3 4/9/3
f 3/10/4 8/11/4 6/12/4
f 8/13/5 5/14/5 7/15/5
f 1/16/6 9/17/6 10/18/6
f 4/19/7 10/20/7 11/21/7
f 6/22/8 11/23/8 12/24/8
f 3/25/9 12/26/9 9/27/9
f 13/28/10 14/29/10 15/30/10
f 10/31/11 14/32/11 11/33/11
f 12/34/12 13/35/12 9/36/12
f 9/37/13 15/38/13 10/39/13
f 16/40/14 17/41/14 12/42/14
f 18/43/15 14/44/15 17/45/15
f 19/46/16 11/47/16 14/48/16
f 11/49/17 16/50/17 12/51/17
f 20/52/18 21/53/18 22/54/18
f 16/55/19 21/56/19 18/57/19
f 18/58/20 23/59/20 19/60/20
f 19/61/21 20/62/21 24/63/21
f 24/64/22 22/65/22 16/66/22
f 1/67/23 5/68/23 2/69/23
f 4/70/24 7/71/24 5/72/24
f 6/73/25 8/74/25 7/75/25
f 3/76/26 2/77/26 8/78/26
f 8/79/27 2/80/27 5/81/27
f 1/82/28 3/83/28 9/84/28
f 4/85/29 1/86/29 10/87/29
f 6/88/30 4/89/30 11/90/30
f 3/91/31 6/92/31 12/93/31
f 13/94/32 17/95/32 14/96/32
f 10/97/33 15/98/33 14/99/33
f 12/100/34 17/101/34 13/102/34
f 9/103/35 13/104/35 15/105/35
f 16/106/36 18/107/36 17/108/36
f 18/109/37 19/110/37 14/111/37
f 19/112/38 24/113/38 11/114/38
f 11/115/39 24/116/39 16/117/39
f 20/118/40 23/119/40 21/120/40
f 16/121/41 22/122/41 21/123/41
f 18/124/42 21/125/42 23/126/42
f 19/127/43 23/128/43 20/129/43
f 24/130/44 20/131/44 22/132/44