# Blender 5.1.0
# www.blender.org
mtllib stanok.mtl
o Цилиндр.003
v -2.687672 1.807666 -1.064076
v -2.438674 1.741420 -0.904144
v -2.438674 1.807666 -1.064076
v -2.687672 1.741420 -0.904144
v -2.438674 1.581488 -0.837898
v -2.687672 1.581488 -0.837898
v -2.438674 1.421556 -0.904144
v -2.687672 1.421556 -0.904144
v -2.438674 1.355310 -1.064076
v -2.687672 1.421556 -1.224008
v -2.438674 1.421556 -1.224008
v -2.687672 1.581488 -1.290254
v -2.438674 1.581488 -1.290254
v -2.687672 1.355310 -1.064076
v -2.687672 1.741420 -1.224008
v -2.438674 1.741420 -1.224008
v -0.505589 1.807666 -1.064058
v -0.505589 1.741420 -1.223990
v -0.505589 1.581488 -1.064058
v -2.847044 1.828048 -0.809852
v -2.847044 1.082126 -1.318300
v -2.847044 1.082126 -0.809852
v -2.847044 1.828048 -1.318300
v -2.527004 1.082126 -1.318300
v -2.527004 1.828048 -1.318300
v -2.527004 1.082126 -0.809852
v -2.527004 1.828048 -0.809852
v -0.256591 1.807666 -1.064058
v -0.256591 1.581488 -1.290236
v -0.505589 1.581488 -1.290236
v -0.505589 1.421556 -1.223990
v -0.256591 1.421556 -1.223990
v -0.505589 1.355310 -1.064058
v -0.256591 1.355310 -1.064058
v -0.505589 1.421556 -0.904126
v -0.256591 1.581488 -0.837880
v -0.505589 1.581488 -0.837880
v -0.505589 1.741420 -0.904126
v -0.256591 1.741420 -0.904126
v -0.097218 1.828048 -1.318282
v -0.097218 1.082126 -0.809835
v -0.097218 1.082126 -1.318282
v -0.097218 1.828048 -0.809835
v -0.417259 1.082126 -0.809835
v -0.417259 1.828048 -0.809835
v -0.417259 1.082126 -1.318282
v -0.417259 1.828048 -1.318282
v -0.498779 1.598420 -1.129398
v -2.445483 1.584647 -1.162648
v -2.445483 1.598420 -1.129398
v -0.498779 1.584647 -1.162648
v -2.445483 1.551398 -1.176420
v -0.498779 1.551398 -1.176420
v -2.445483 1.518148 -1.162648
v -0.498779 1.518148 -1.162648
v -2.445483 1.504375 -1.129398
v -0.498779 1.504375 -1.129398
v -2.445483 1.518148 -1.096148
v -0.498779 1.518148 -1.096148
v -2.445483 1.551398 -1.082376
v -0.498779 1.551398 -1.082376
v -2.445483 1.584647 -1.096148
v -0.498779 1.584647 -1.096148
v -0.498779 1.714727 -1.064058
v -2.445483 1.700955 -1.097308
v -2.445483 1.714727 -1.064058
v -0.498779 1.700955 -1.097308
v -2.445483 1.667705 -1.111081
v -0.498779 1.634455 -1.097308
v -2.445483 1.634455 -1.097308
v -2.445483 1.620683 -1.064058
v -0.498779 1.620683 -1.064058
v -2.445483 1.634455 -1.030809
v -0.498779 1.634455 -1.030809
v -2.445483 1.667705 -1.017036
v -0.498779 1.667705 -1.017036
v -0.498779 1.667705 -1.111081
v -2.445483 1.700955 -1.030809
v -0.498779 1.598420 -0.995103
v -2.445483 1.584647 -1.028353
v -2.445483 1.598420 -0.995103
v -0.498779 1.584647 -1.028353
v -2.445483 1.551398 -1.042125
v -0.498779 1.551398 -1.042126
v -2.445483 1.518148 -1.028353
v -0.498779 1.518148 -1.028353
v -2.445483 1.504375 -0.995103
v -0.498779 1.504375 -0.995103
v -2.445483 1.518148 -0.961854
v -0.498779 1.518148 -0.961854
v -2.445483 1.551398 -0.948081
v -0.498779 1.551398 -0.948081
v -2.445483 1.584647 -0.961854
v -0.498779 1.584647 -0.961854
v -0.079941 0.517741 -2.006824
v -0.909557 0.177985 -2.006824
v -0.079941 0.177985 -2.006824
v -0.909557 0.517741 -2.006824
v -0.909557 0.177985 -2.062304
v -0.909557 0.517741 -2.062304
v -0.079941 0.177985 -2.062304
v -0.079941 0.517741 -2.062304
v -0.994749 0.001398 -0.010431
v -0.338570 1.001398 -0.010431
v -0.338570 0.001398 -0.010431
v -0.994749 0.001398 -1.010431
v -0.994749 1.001398 -2.010431
v -0.994749 1.001398 -1.010431
v -0.994749 0.001398 -2.010431
v 0.005251 1.001398 -2.010431
v 0.005251 0.001398 -1.010431
v -0.338570 1.001398 -1.010431
v 0.005251 1.001398 -1.010431
v -0.338570 0.001398 -1.010431
v 0.005251 0.001398 -2.010431
v -0.994749 1.001398 -0.010431
v -0.079941 0.934790 -2.006824
v -0.909557 0.595033 -2.006824
v -0.079941 0.595033 -2.006824
v -0.909557 0.934790 -2.006824
v -0.909557 0.595033 -2.062304
v -0.909557 0.934790 -2.062304
v -0.079941 0.595033 -2.062304
v -0.079941 0.934790 -2.062304
v -0.994749 1.001398 -0.179118
v -1.994749 0.501398 -0.179118
v -0.994749 0.501398 -0.179118
v -1.994749 1.001398 -0.179118
v -1.994749 0.501398 -1.753039
v -1.994749 1.001398 -1.753039
v -0.994749 0.501398 -1.753039
v -0.994749 1.001398 -1.753039
v -1.994749 0.001398 -1.603172
v -0.994749 0.001398 -0.179118
v -1.994749 0.001398 -0.179118
v -0.994749 0.001398 -1.603172
v -2.078325 0.067165 -2.011835
v -2.907941 0.935631 -2.011835
v -2.907941 0.067165 -2.011835
v -2.907941 0.067165 -2.067315
v -2.907941 0.935631 -2.067315
v -2.078325 0.067165 -2.067315
v -2.078325 0.935631 -2.067315
v -1.994688 1.001398 -0.010431
v -2.650867 0.001398 -0.010431
v -2.650867 1.001398 -0.010431
v -1.994687 1.001398 -1.010431
v -1.994687 0.001398 -2.010431
v -1.994687 0.001398 -1.010431
v -1.994687 1.001398 -2.010431
v -2.994687 0.001398 -2.010431
v -2.994687 1.001398 -1.010431
v -2.650867 0.001398 -1.010431
v -2.994687 0.001398 -1.010431
v -2.650867 1.001398 -1.010431
v -2.994688 1.001398 -2.010431
v -1.994687 0.001398 -0.010431
v -1.000326 1.096719 -0.728087
v -1.989172 1.129680 -0.728087
v -1.000326 1.129680 -0.728087
v -1.989172 1.096719 -0.728087
v -1.989172 1.129680 -1.387317
v -1.989172 1.096719 -1.387317
v -1.000326 1.129680 -1.387317
v -1.000326 1.096719 -1.387317
v -1.675611 1.127818 -1.283094
v -1.313886 1.127818 -1.041944
v -1.313886 1.127818 -1.283094
v 0.061781 0.999513 0.027256
v -3.051279 1.103282 0.027256
v 0.061781 1.103282 0.027256
v -3.051279 0.999513 0.027256
v -3.051279 1.103282 -2.048117
v -3.051279 0.999513 -2.048117
v 0.061781 1.103282 -2.048117
v 0.061781 0.999513 -2.048117
v -2.064136 1.097418 -0.960822
v -0.925362 1.097418 -1.720005
v -2.064136 1.097418 -1.720005
v -2.023375 1.918631 -0.152429
v -2.852991 1.114023 -0.152428
v -2.023375 1.114023 -0.152429
v -2.852991 1.918631 -0.152428
v -2.852991 1.114023 -0.674627
v -2.852991 1.918631 -0.674627
v -2.023375 1.114023 -0.674627
v -2.023375 1.918631 -0.674627
v -0.093477 1.918631 -0.152428
v -0.923093 1.114023 -0.152428
v -0.093477 1.114023 -0.152428
v -0.923093 1.918631 -0.152428
v -0.923093 1.114023 -0.674627
v -0.923093 1.918631 -0.674627
v -0.093477 1.114023 -0.674627
v -0.093477 1.918631 -0.674627
v -1.290552 1.920377 -0.452291
v -1.237536 1.104095 -0.580283
v -1.290552 1.104095 -0.452291
v -1.237536 1.920377 -0.580283
v -1.109545 1.104095 -0.633299
v -1.109545 1.920377 -0.633299
v -0.981553 1.104095 -0.580283
v -0.981553 1.920377 -0.580283
v -0.928537 1.104095 -0.452291
v -0.928537 1.920377 -0.452291
v -0.981553 1.104095 -0.324299
v -0.981553 1.920377 -0.324299
v -1.109545 1.104095 -0.271284
v -1.109545 1.920377 -0.271284
v -1.237536 1.104095 -0.324299
v -1.237536 1.920377 -0.324299
v -1.655785 1.101018 -0.452291
v -1.602771 1.463034 -0.580283
v -1.602770 1.101018 -0.580283
v -1.474779 1.463034 -0.633299
v -1.474778 1.101018 -0.633299
v -1.346787 1.463034 -0.580283
v -1.346786 1.101018 -0.580283
v -1.293771 1.463034 -0.452291
v -1.293770 1.101018 -0.452291
v -1.346786 1.101018 -0.324299
v -1.346787 1.463034 -0.324300
v -1.474778 1.101018 -0.271284
v -1.474779 1.463034 -0.271284
v -1.602770 1.101018 -0.324299
v -1.602771 1.463034 -0.324300
v -1.388186 1.617534 -0.324300
v -1.655787 1.463034 -0.452292
v -1.609875 1.489542 -0.580283
v -1.609875 1.489542 -0.324300
v -1.342273 1.644042 -0.452292
v -1.499031 1.553538 -0.633299
v -1.499030 1.553538 -0.271284
v -1.388186 1.617534 -0.580283
v -1.565284 1.619792 -0.271284
v -1.629280 1.508947 -0.324300
v -1.474780 1.776549 -0.452292
v -1.565284 1.619791 -0.633299
v -1.501288 1.730636 -0.324300
v -1.501288 1.730636 -0.580284
v -1.629280 1.508947 -0.580284
v -1.655788 1.644042 -0.271284
v -1.655788 1.516050 -0.324300
v -1.655788 1.825049 -0.452292
v -1.655788 1.644042 -0.633299
v -1.655788 1.772034 -0.324300
v -1.655788 1.772033 -0.580284
v -1.655788 1.516050 -0.580284
v -2.035554 1.772034 -0.324300
v -2.035554 1.644042 -0.633299
v -2.035554 1.772034 -0.580284
v -2.035554 1.463034 -0.452292
v -2.035554 1.516050 -0.580284
v -2.035554 1.644042 -0.271284
v -2.035554 1.516050 -0.324300
v -2.035554 1.825050 -0.452292
v -2.438674 1.581488 -1.064076
v -0.256591 1.741420 -1.223990
v -0.256591 1.421556 -0.904126
v -0.498779 1.700955 -1.030809
v -2.078325 0.935631 -2.011835
v -1.675611 1.127818 -1.041944
v -0.925362 1.097418 -0.960822
vn -0.0000 0.9239 0.3827
vn -0.0000 0.3827 0.9239
vn -0.0000 -0.3827 0.9239
vn -0.0000 -0.9239 0.3827
vn -0.0000 -0.9239 -0.3827
vn -0.0000 -0.3827 -0.9239
vn -1.0000 -0.0000 -0.0000
vn -0.0000 0.3827 -0.9239
vn -0.0000 0.9239 -0.3827
vn -0.0000 -0.0000 -1.0000
vn 1.0000 -0.0000 -0.0000
vn -0.0000 -0.0000 1.0000
vn -0.0000 -1.0000 -0.0000
vn -0.0000 1.0000 -0.0000
vn -0.0000 -0.2871 -0.9579
vn -0.9239 -0.0000 -0.3827
vn -0.3827 -0.0000 -0.9239
vn 0.3827 -0.0000 -0.9239
vn 0.9239 -0.0000 -0.3827
vn 0.9239 -0.0000 0.3827
vn 0.3827 -0.0000 0.9239
vn -0.3827 -0.0000 0.9239
vn -0.9239 -0.0000 0.3827
vn 0.5029 0.0874 0.8599
vn 0.1780 0.0112 0.9840
vn 0.7222 0.1935 0.6640
vn -0.8968 -0.2403 -0.3715
vn -0.8968 -0.2403 0.3715
vn 0.8968 0.2403 -0.3715
vn -0.3807 -0.1020 -0.9191
vn -0.3807 -0.1020 0.9191
vn 0.8968 0.2403 0.3715
vn 0.3807 0.1020 -0.9191
vn -0.2787 -0.2787 0.9191
vn 0.6565 0.6565 -0.3715
vn -0.2787 -0.2787 -0.9191
vn 0.5707 0.5707 0.5904
vn 0.5287 0.5287 0.6640
vn 0.2787 0.2787 0.9191
vn -0.6565 -0.6565 0.3715
vn 0.6565 0.6565 0.3715
vn 0.2787 0.2787 -0.9191
vn -0.6565 -0.6565 -0.3715
vn -0.1020 -0.3807 0.9191
vn 0.2403 0.8968 -0.3715
vn -0.1020 -0.3807 -0.9191
vn 0.0170 0.0635 0.9978
vn 0.1935 0.7223 0.6640
vn -0.2403 -0.8968 0.3715
vn 0.2403 0.8968 0.3715
vn 0.1020 0.3807 -0.9191
vn -0.2403 -0.8968 -0.3715
vn -0.0000 0.7071 0.7071
vn 0.0926 0.0248 0.9954
vn 0.0465 0.0465 0.9978
vn -0.0513 -0.0513 0.9974
vn 0.0248 0.0926 0.9954
vt 0.327885 0.743631
vt 0.339918 0.760939
vt 0.327885 0.760939
vt 0.339919 0.760939
vt 0.339919 0.743631
vt 0.339918 0.743631
vt 0.409926 0.919776
vt 0.389385 0.911267
vt 0.397893 0.890725
vt 0.304928 0.718510
vt 0.292895 0.718510
vt 0.298911 0.703985
vt 0.218750 0.941406
vt 0.253906 0.992188
vt 0.218750 0.992188
vt 0.351562 0.824219
vt 0.375000 0.875000
vt 0.351562 0.875000
vt 0.386719 0.992188
vt 0.410156 0.957031
vt 0.410156 0.992188
vt 0.386719 0.957031
vt 0.409926 0.890725
vt 0.418435 0.911267
vt 0.397893 0.919776
vt 0.253906 0.941406
vt 0.375000 0.824219
vt 0.269531 0.460938
vt 0.273438 0.648438
vt 0.269531 0.648438
vt 0.297965 0.726475
vt 0.293695 0.728244
vt 0.291926 0.723974
vt 0.291926 0.726475
vt 0.293695 0.722205
vt 0.297965 0.723974
vt 0.273438 0.460938
vt 0.296196 0.722205
vt 0.296196 0.728244
vt 0.344816 0.796249
vt 0.320312 0.855469
vt 0.321199 0.796249
vt 0.332031 0.765625
vt 0.335938 0.789062
vt 0.332031 0.789062
vt 0.343750 0.796875
vt 0.343750 0.855469
vt 0.324219 0.765625
vt 0.328125 0.789062
vt 0.324219 0.789062
vt 0.355469 0.816406
vt 0.359375 0.761719
vt 0.359375 0.816406
vt 0.226562 0.156250
vt 0.273438 0.156250
vt 0.273438 0.085938
vt 0.378906 0.304688
vt 0.378906 0.375000
vt 0.308594 0.375000
vt 0.007812 0.667969
vt 0.078125 0.667969
vt 0.078125 0.597656
vt 0.292969 0.785156
vt 0.292969 0.851562
vt 0.316406 0.851562
vt 0.214844 0.808594
vt 0.285156 0.765625
vt 0.285156 0.738281
vt 0.208323 0.052734
vt 0.221412 0.052734
vt 0.221412 0.035156
vt 0.205016 0.056459
vt 0.219334 0.077943
vt 0.214561 0.056459
vt 0.308594 0.078125
vt 0.308594 0.148438
vt 0.378906 0.148438
vt 0.308594 0.300781
vt 0.378906 0.300781
vt 0.378906 0.230469
vt 0.378906 0.003906
vt 0.378906 0.074219
vt 0.308594 0.074219
vt 0.204353 0.003906
vt 0.204353 0.029297
vt 0.217443 0.029297
vt 0.304688 0.457031
vt 0.375000 0.492188
vt 0.304688 0.492188
vt 0.262786 0.991294
vt 0.297542 0.881888
vt 0.297542 0.991294
vt 0.167969 0.761719
vt 0.203125 0.691406
vt 0.203125 0.761719
vt 0.380509 0.882823
vt 0.345753 0.992228
vt 0.345753 0.882823
vt 0.993479 0.726237
vt 0.404943 0.003906
vt 0.993479 0.003906
vt 0.086704 0.662294
vt 0.156216 0.771699
vt 0.086704 0.771699
vt 0.121920 0.647270
vt 0.087164 0.548282
vt 0.121920 0.548282
vt 0.300781 0.992188
vt 0.339844 0.921875
vt 0.339844 0.992188
vt 0.164961 0.547892
vt 0.130205 0.646880
vt 0.130205 0.547892
vt 0.375000 0.527344
vt 0.304688 0.527344
vt 0.269531 0.667969
vt 0.214844 0.730469
vt 0.214844 0.667969
vt 0.378906 0.789062
vt 0.382812 0.851562
vt 0.378906 0.851562
vt 0.269531 0.730469
vt 0.367188 0.816406
vt 0.371094 0.761719
vt 0.371094 0.816406
vt 0.308594 0.304688
vt 0.007812 0.597656
vt 0.201818 0.037109
vt 0.187064 0.007812
vt 0.179688 0.007812
vt 0.217443 0.003906
vt 0.285156 0.808594
vt 0.214844 0.738281
vt 0.238281 0.808594
vt 0.378906 0.078125
vt 0.308594 0.230469
vt 0.308594 0.003906
vt 0.394531 0.781250
vt 0.390625 0.781250
vt 0.390625 0.851562
vt 0.399632 0.781602
vt 0.397341 0.781602
vt 0.397341 0.827425
vt 0.394531 0.851562
vt 0.399632 0.827425
vt 0.207031 0.835938
vt 0.207031 0.765625
vt 0.160156 0.765625
vt 0.160156 0.835938
vt 0.405964 0.950639
vt 0.389202 0.925495
vt 0.405964 0.925495
vt 0.179688 0.472656
vt 0.171875 0.472656
vt 0.171875 0.691406
vt 0.207031 0.546875
vt 0.199219 0.546875
vt 0.199219 0.687500
vt 0.183594 0.691406
vt 0.191406 0.691406
vt 0.191406 0.472656
vt 0.207031 0.687500
vt 0.011719 0.992188
vt 0.156250 0.992188
vt 0.156250 0.777344
vt 0.589844 0.781250
vt 0.445312 0.781250
vt 0.445312 0.996094
vt 0.159378 0.992979
vt 0.212150 0.913821
vt 0.212150 0.992979
vt 0.273438 0.816406
vt 0.214844 0.875000
vt 0.214844 0.816406
vt 0.218750 0.878906
vt 0.253906 0.937500
vt 0.218750 0.937500
vt 0.273438 0.875000
vt 0.253906 0.878906
vt 0.300781 0.917969
vt 0.335938 0.859375
vt 0.335938 0.917969
vt 0.300781 0.859375
vt 0.414062 0.937500
vt 0.425781 0.996094
vt 0.414062 0.996094
vt 0.425781 0.937500
vt 0.382979 0.866903
vt 0.399418 0.860094
vt 0.406228 0.876533
vt 0.308998 0.776030
vt 0.318628 0.750866
vt 0.318628 0.776030
vt 0.308998 0.750866
vt 0.310103 0.738688
vt 0.300752 0.736386
vt 0.300752 0.747504
vt 0.291503 0.746770
vt 0.292457 0.737187
vt 0.293410 0.746770
vt 0.291507 0.746793
vt 0.291507 0.737164
vt 0.293406 0.737352
vt 0.334975 0.716947
vt 0.325392 0.729019
vt 0.325392 0.715993
vt 0.316278 0.736089
vt 0.320488 0.745439
vt 0.313975 0.745439
vt 0.318380 0.734917
vt 0.314170 0.744267
vt 0.316473 0.734917
vt 0.347230 0.729567
vt 0.335158 0.739150
vt 0.336112 0.729567
vt 0.311177 0.738590
vt 0.301826 0.747406
vt 0.301826 0.736288
vt 0.316473 0.744267
vt 0.320683 0.734917
vt 0.318380 0.744267
vt 0.325197 0.727967
vt 0.334780 0.715895
vt 0.334780 0.728921
vt 0.316877 0.735894
vt 0.321087 0.745244
vt 0.314574 0.745244
vt 0.310103 0.747504
vt 0.310103 0.736386
vt 0.300752 0.738688
vt 0.293406 0.746605
vt 0.325197 0.728921
vt 0.334780 0.716849
vt 0.334780 0.727967
vt 0.311275 0.738981
vt 0.301924 0.747797
vt 0.301924 0.736679
vt 0.334915 0.731643
vt 0.346987 0.741226
vt 0.333961 0.741226
vt 0.316668 0.735796
vt 0.320878 0.745146
vt 0.314365 0.745146
vt 0.348061 0.739052
vt 0.335989 0.729469
vt 0.347107 0.729469
vt 0.311861 0.738573
vt 0.301533 0.747699
vt 0.301533 0.736190
vt 0.304688 0.750000
vt 0.292969 0.777344
vt 0.292969 0.750000
vt 0.304688 0.777344
vt 0.304928 0.718431
vt 0.292895 0.718431
vt 0.298912 0.703906
vt 0.304928 0.718414
vt 0.292895 0.718541
vt 0.298757 0.703953
vt 0.304928 0.718536
vt 0.299038 0.703959
vt 0.298912 0.703985
vt 0.304928 0.718480
vt 0.292895 0.718520
vt 0.298863 0.703975
vt 0.418435 0.899234
vt 0.389385 0.899234
vt 0.335938 0.765625
vt 0.320312 0.796875
vt 0.328125 0.765625
vt 0.355469 0.761719
vt 0.226562 0.085938
vt 0.316406 0.785156
vt 0.208323 0.035156
vt 0.205016 0.077943
vt 0.219334 0.056459
vt 0.375000 0.457031
vt 0.262786 0.881888
vt 0.167969 0.691406
vt 0.380509 0.992228
vt 0.404943 0.726237
vt 0.156215 0.662294
vt 0.087164 0.657688
vt 0.300781 0.921875
vt 0.164961 0.657298
vt 0.382812 0.789062
vt 0.367188 0.761719
vt 0.201818 0.007812
vt 0.179688 0.037109
vt 0.389202 0.950639
vt 0.179688 0.691406
vt 0.183594 0.472656
vt 0.011719 0.777344
vt 0.589844 0.996094
vt 0.159378 0.913821
vt 0.399418 0.883343
vt 0.389789 0.883343
vt 0.382979 0.876533
vt 0.389789 0.860094
vt 0.406228 0.866903
vt 0.310103 0.745201
vt 0.334975 0.728065
vt 0.318186 0.736089
vt 0.320683 0.744267
vt 0.348184 0.739150
vt 0.311177 0.745103
vt 0.314170 0.734917
vt 0.325197 0.716849
vt 0.318784 0.735894
vt 0.300752 0.745201
vt 0.325197 0.715895
vt 0.311275 0.745494
vt 0.346033 0.731643
vt 0.318575 0.735796
vt 0.335035 0.739052
vt 0.311861 0.745315
s 1
usemtl m_9bd43d53-a835-0dd3-c12b-113b527a406e
f 1/1/1 2/2/1 3/3/1
f 4/4/2 5/1/2 2/5/2
f 6/2/3 7/1/3 5/6/3
f 8/4/4 9/1/4 7/5/4
f 9/6/5 10/3/5 11/1/5
f 11/3/6 12/6/6 13/2/6
f 12/7/7 14/8/7 6/9/7
f 13/3/8 15/5/8 16/4/8
f 15/1/9 3/4/9 16/3/9
f 17/10/7 18/11/7 19/12/7
f 20/13/7 21/14/7 22/15/7
f 23/16/10 24/17/10 21/18/10
f 25/13/11 26/14/11 24/15/11
f 27/16/12 22/17/12 26/18/12
f 24/19/13 22/20/13 21/21/13
f 25/22/14 20/21/14 27/19/14
f 28/1/9 18/4/9 17/3/9
f 18/3/8 29/5/8 30/4/8
f 29/1/6 31/2/6 30/3/6
f 32/1/5 33/2/5 31/3/5
f 34/1/4 35/4/4 33/3/4
f 35/3/3 36/5/3 37/4/3
f 36/23/11 34/24/11 29/25/11
f 36/1/2 38/4/2 37/3/2
f 39/1/1 17/2/1 38/3/1
f 40/14/11 41/13/11 42/26/11
f 43/16/12 44/17/12 41/18/12
f 45/13/7 46/14/7 44/15/7
f 46/18/10 40/27/10 42/17/10
f 44/20/13 42/19/13 41/22/13
f 45/22/14 40/21/14 47/19/14
f 48/28/9 49/29/9 50/30/9
f 51/28/8 52/29/8 49/30/8
f 53/28/6 54/29/6 52/30/6
f 55/28/5 56/29/5 54/30/5
f 57/28/4 58/29/4 56/30/4
f 59/28/3 60/29/3 58/30/3
f 61/31/11 57/32/11 53/33/11
f 61/28/2 62/29/2 60/30/2
f 63/28/1 50/29/1 62/30/1
f 54/34/7 58/35/7 62/36/7
f 64/28/9 65/29/9 66/30/9
f 67/28/8 68/29/8 65/30/8
f 68/30/6 69/37/6 70/29/6
f 69/28/5 71/29/5 70/30/5
f 72/28/4 73/29/4 71/30/4
f 74/28/3 75/29/3 73/30/3
f 76/32/11 72/33/11 77/38/11
f 76/28/2 78/29/2 75/30/2
f 78/30/1 64/37/1 66/29/1
f 70/36/7 73/39/7 78/34/7
f 79/28/9 80/29/9 81/30/9
f 82/28/8 83/29/8 80/30/8
f 84/28/6 85/29/6 83/30/6
f 86/28/5 87/29/5 85/30/5
f 88/28/4 89/29/4 87/30/4
f 90/28/3 91/29/3 89/30/3
f 92/31/11 88/32/11 84/33/11
f 92/28/2 93/29/2 91/30/2
f 94/28/1 81/29/1 93/30/1
f 85/34/7 89/35/7 93/36/7
f 95/40/12 96/41/12 97/42/12
f 98/43/7 99/44/7 96/45/7
f 100/41/10 101/46/10 99/47/10
f 102/48/11 97/49/11 101/50/11
f 99/51/13 97/52/13 96/53/13
f 98/51/14 102/52/14 100/53/14
f 103/54/12 105/55/12 104/56/12
f 106/57/7 108/58/7 107/59/7
f 109/60/10 107/61/10 110/62/10
f 111/63/12 113/64/12 112/65/12
f 107/66/14 112/67/14 113/68/14
f 106/69/13 114/70/13 105/71/13
f 106/72/13 115/73/13 114/74/13
f 115/75/11 110/76/11 113/77/11
f 103/78/7 116/79/7 108/80/7
f 114/81/11 112/82/11 104/83/11
f 108/84/14 116/85/14 104/86/14
f 117/40/12 118/41/12 119/42/12
f 120/43/7 121/44/7 118/45/7
f 122/41/10 123/46/10 121/47/10
f 124/48/11 119/49/11 123/50/11
f 121/51/13 119/52/13 118/53/13
f 120/51/14 124/52/14 122/53/14
f 125/87/12 126/88/12 127/89/12
f 128/90/7 129/91/7 126/92/7
f 130/93/10 131/94/10 129/95/10
f 132/96/11 127/97/11 131/98/11
f 133/99/13 134/100/13 135/101/13
f 128/102/14 132/103/14 130/104/14
f 136/105/11 127/106/11 134/107/11
f 129/108/15 136/109/15 133/110/15
f 126/111/7 133/112/7 135/113/7
f 127/89/12 135/114/12 134/115/12
f 137/116/12 138/117/12 139/118/12
f 138/119/7 140/120/7 139/121/7
f 141/122/10 142/118/10 140/116/10
f 143/119/11 137/120/11 142/121/11
f 140/123/13 137/124/13 139/125/13
f 138/123/14 143/124/14 141/125/14
f 144/54/12 146/55/12 145/56/12
f 147/58/11 149/57/11 148/126/11
f 150/62/10 148/127/10 151/60/10
f 152/63/12 154/64/12 153/65/12
f 148/128/13 153/129/13 154/130/13
f 147/85/14 155/86/14 146/131/14
f 147/132/14 156/133/14 155/134/14
f 156/77/7 151/135/7 154/75/7
f 144/136/11 157/78/11 149/79/11
f 155/83/7 153/137/7 145/81/7
f 157/131/13 145/84/13 153/85/13
f 158/138/12 160/139/12 159/140/12
f 161/141/7 159/142/7 162/143/7
f 163/140/10 162/144/10 164/138/10
f 165/143/11 164/145/11 160/141/11
f 159/146/14 160/147/14 164/148/14
f 161/149/13 163/146/13 165/147/13
f 166/150/14 167/151/14 168/152/14
f 169/153/12 171/154/12 170/155/12
f 172/156/7 170/157/7 173/158/7
f 174/159/10 173/160/10 175/161/10
f 176/158/11 175/162/11 171/156/11
f 173/163/14 170/164/14 171/165/14
f 172/166/13 174/167/13 176/168/13
f 177/169/14 178/170/14 179/171/14
f 180/172/12 181/173/12 182/174/12
f 183/175/7 184/176/7 181/177/7
f 185/173/10 186/172/10 184/178/10
f 187/176/11 182/175/11 186/179/11
f 184/180/13 182/181/13 181/182/13
f 183/181/14 187/180/14 185/183/14
f 188/172/12 189/173/12 190/174/12
f 191/175/7 192/176/7 189/177/7
f 193/172/10 194/173/10 192/174/10
f 195/176/11 190/175/11 194/179/11
f 192/180/13 190/181/13 189/182/13
f 191/180/14 195/181/14 193/182/14
f 196/184/16 197/185/16 198/186/16
f 199/184/17 200/185/17 197/186/17
f 201/184/18 202/185/18 200/186/18
f 203/184/19 204/185/19 202/186/19
f 205/185/20 206/184/20 204/187/20
f 207/184/21 208/185/21 206/186/21
f 209/188/14 205/189/14 201/190/14
f 209/185/22 210/184/22 208/187/22
f 211/184/23 198/185/23 210/186/23
f 202/188/13 206/189/13 210/190/13
f 212/191/16 213/192/16 214/193/16
f 214/192/17 215/191/17 216/194/17
f 216/192/18 217/191/18 218/194/18
f 218/192/19 219/191/19 220/194/19
f 219/193/20 221/194/20 220/192/20
f 222/193/24 223/194/21 221/192/21
f 224/194/22 225/193/22 223/191/22
f 226/194/23 212/193/23 225/191/23
f 224/195/25 222/196/24 227/197/26
f 213/198/27 228/199/27 229/200/27
f 228/201/28 226/202/28 230/203/28
f 217/204/29 231/205/29 219/206/29
f 213/207/30 232/208/30 215/209/30
f 226/210/31 233/211/31 230/212/31
f 222/213/24 231/214/32 227/215/26
f 215/216/33 234/217/33 217/218/33
f 230/219/34 235/220/34 236/221/34
f 234/222/35 237/223/35 231/224/35
f 229/225/36 238/226/36 232/227/36
f 227/228/37 239/229/38 235/230/39
f 228/202/40 230/231/40 236/201/40
f 231/232/41 239/233/38 227/234/37
f 232/235/42 240/236/42 234/237/42
f 229/201/43 228/202/43 241/231/43
f 236/210/44 242/211/44 243/212/44
f 240/238/45 244/239/45 237/240/45
f 241/241/46 245/242/46 238/243/46
f 235/195/47 239/196/48 246/197/48
f 228/202/49 236/231/49 243/201/49
f 237/244/50 246/245/48 239/246/48
f 238/247/51 247/248/51 240/249/51
f 241/201/52 228/202/52 248/231/52
f 244/250/1 249/251/53 246/252/53
f 247/252/8 250/253/8 251/251/8
f 248/252/5 252/253/5 253/251/5
f 243/252/3 254/253/12 255/251/3
f 247/250/9 256/251/9 244/252/9
f 248/250/6 250/251/6 245/252/6
f 242/250/12 246/252/53 249/251/53
f 243/250/4 252/251/4 228/252/4
f 3/10/11 2/11/11 257/12/11
f 2/254/11 5/255/11 257/256/11
f 5/10/11 7/11/11 257/12/11
f 7/257/11 9/258/11 257/259/11
f 9/257/11 11/258/11 257/259/11
f 11/260/11 13/255/11 257/261/11
f 13/257/11 16/258/11 257/259/11
f 16/10/11 3/11/11 257/12/11
f 18/10/7 30/11/7 19/262/7
f 30/257/7 31/258/7 19/259/7
f 31/10/7 33/11/7 19/12/7
f 33/254/7 35/255/7 19/256/7
f 35/263/7 37/264/7 19/265/7
f 37/10/7 38/11/7 19/262/7
f 38/263/7 17/264/7 19/265/7
f 1/1/1 4/6/1 2/2/1
f 4/4/2 6/3/2 5/1/2
f 6/2/3 8/3/3 7/1/3
f 8/4/4 14/3/4 9/1/4
f 9/6/5 14/2/5 10/3/5
f 11/3/6 10/1/6 12/6/6
f 6/9/7 4/23/7 1/266/7
f 1/266/7 15/24/7 12/7/7
f 12/7/7 10/25/7 14/8/7
f 14/8/7 8/267/7 6/9/7
f 6/9/7 1/266/7 12/7/7
f 13/3/8 12/1/8 15/5/8
f 15/1/9 1/5/9 3/4/9
f 20/13/7 23/26/7 21/14/7
f 23/16/10 25/27/10 24/17/10
f 25/13/11 27/26/11 26/14/11
f 27/16/12 20/27/12 22/17/12
f 24/19/13 26/22/13 22/20/13
f 25/22/14 23/20/14 20/21/14
f 28/1/9 258/5/9 18/4/9
f 18/3/8 258/1/8 29/5/8
f 29/1/6 32/5/6 31/2/6
f 32/1/5 34/6/5 33/2/5
f 34/1/4 259/5/4 35/4/4
f 35/3/3 259/1/3 36/5/3
f 29/25/11 258/8/11 28/267/11
f 28/267/11 39/9/11 36/23/11
f 36/23/11 259/266/11 34/24/11
f 34/24/11 32/7/11 29/25/11
f 29/25/11 28/267/11 36/23/11
f 36/1/2 39/5/2 38/4/2
f 39/1/1 28/6/1 17/2/1
f 40/14/11 43/15/11 41/13/11
f 43/16/12 45/27/12 44/17/12
f 45/13/7 47/26/7 46/14/7
f 46/18/10 47/16/10 40/27/10
f 44/20/13 46/21/13 42/19/13
f 45/22/14 43/20/14 40/21/14
f 48/28/9 51/37/9 49/29/9
f 51/28/8 53/37/8 52/29/8
f 53/28/6 55/37/6 54/29/6
f 55/28/5 57/37/5 56/29/5
f 57/28/4 59/37/4 58/29/4
f 59/28/3 61/37/3 60/29/3
f 53/33/11 51/35/11 48/38/11
f 48/38/11 63/36/11 61/31/11
f 61/31/11 59/39/11 57/32/11
f 57/32/11 55/34/11 53/33/11
f 53/33/11 48/38/11 61/31/11
f 61/28/2 63/37/2 62/29/2
f 63/28/1 48/37/1 50/29/1
f 62/36/7 50/31/7 49/39/7
f 49/39/7 52/32/7 54/34/7
f 54/34/7 56/33/7 58/35/7
f 58/35/7 60/38/7 62/36/7
f 62/36/7 49/39/7 54/34/7
f 64/28/9 67/37/9 65/29/9
f 67/28/8 77/37/8 68/29/8
f 68/30/6 77/28/6 69/37/6
f 69/28/5 72/37/5 71/29/5
f 72/28/4 74/37/4 73/29/4
f 74/28/3 76/37/3 75/29/3
f 77/38/11 67/36/11 64/31/11
f 64/31/11 260/39/11 76/32/11
f 76/32/11 74/34/11 72/33/11
f 72/33/11 69/35/11 77/38/11
f 77/38/11 64/31/11 76/32/11
f 76/28/2 260/37/2 78/29/2
f 78/30/1 260/28/1 64/37/1
f 78/34/7 66/33/7 65/35/7
f 65/35/7 68/38/7 70/36/7
f 70/36/7 71/31/7 73/39/7
f 73/39/7 75/32/7 78/34/7
f 78/34/7 65/35/7 70/36/7
f 79/28/9 82/37/9 80/29/9
f 82/28/8 84/37/8 83/29/8
f 84/28/6 86/37/6 85/29/6
f 86/28/5 88/37/5 87/29/5
f 88/28/4 90/37/4 89/29/4
f 90/28/3 92/37/3 91/29/3
f 84/33/11 82/35/11 79/38/11
f 79/38/11 94/36/11 92/31/11
f 92/31/11 90/39/11 88/32/11
f 88/32/11 86/34/11 84/33/11
f 84/33/11 79/38/11 92/31/11
f 92/28/2 94/37/2 93/29/2
f 94/28/1 79/37/1 81/29/1
f 93/36/7 81/31/7 80/39/7
f 80/39/7 83/32/7 85/34/7
f 85/34/7 87/33/7 89/35/7
f 89/35/7 91/38/7 93/36/7
f 93/36/7 80/39/7 85/34/7
f 95/40/12 98/47/12 96/41/12
f 98/43/7 100/268/7 99/44/7
f 100/41/10 102/269/10 101/46/10
f 102/48/11 95/270/11 97/49/11
f 99/51/13 101/271/13 97/52/13
f 98/51/14 95/271/14 102/52/14
f 103/54/12 104/56/12 116/272/12
f 106/57/7 107/59/7 109/126/7
f 109/60/10 110/62/10 115/127/10
f 111/63/12 112/65/12 114/273/12
f 112/67/14 107/66/14 108/132/14
f 107/66/14 113/68/14 110/133/14
f 106/69/13 105/71/13 103/274/13
f 115/73/13 106/72/13 109/275/13
f 114/74/13 115/73/13 111/276/13
f 115/75/11 113/77/11 111/135/11
f 103/78/7 108/80/7 106/136/7
f 114/81/11 104/83/11 105/137/11
f 108/84/14 104/86/14 112/131/14
f 117/40/12 120/47/12 118/41/12
f 120/43/7 122/268/7 121/44/7
f 122/41/10 124/269/10 123/46/10
f 124/48/11 117/270/11 119/49/11
f 121/51/13 123/271/13 119/52/13
f 120/51/14 117/271/14 124/52/14
f 125/87/12 128/277/12 126/88/12
f 128/90/7 130/278/7 129/91/7
f 130/93/10 132/279/10 131/94/10
f 132/96/11 125/280/11 127/97/11
f 133/99/13 136/281/13 134/100/13
f 128/102/14 125/282/14 132/103/14
f 136/105/11 131/283/11 127/106/11
f 129/108/15 131/284/15 136/109/15
f 126/111/7 129/285/7 133/112/7
f 127/89/12 126/88/12 135/114/12
f 137/116/12 261/122/12 138/117/12
f 138/119/7 141/286/7 140/120/7
f 141/122/10 143/117/10 142/118/10
f 143/119/11 261/286/11 137/120/11
f 140/123/13 142/287/13 137/124/13
f 138/123/14 261/287/14 143/124/14
f 144/54/12 145/56/12 157/272/12
f 147/58/11 148/126/11 150/59/11
f 150/62/10 151/60/10 156/61/10
f 152/63/12 153/65/12 155/273/12
f 153/129/13 148/128/13 149/288/13
f 148/128/13 154/130/13 151/289/13
f 147/85/14 146/131/14 144/84/14
f 156/133/14 147/132/14 150/68/14
f 155/134/14 156/133/14 152/66/14
f 156/77/7 154/75/7 152/76/7
f 144/136/11 149/79/11 147/80/11
f 155/83/7 145/81/7 146/82/7
f 157/131/13 153/85/13 149/86/13
f 158/138/12 159/140/12 161/144/12
f 161/141/7 162/143/7 163/145/7
f 163/140/10 164/138/10 165/139/10
f 165/143/11 160/141/11 158/142/11
f 159/146/14 164/148/14 162/149/14
f 161/149/13 165/147/13 158/148/13
f 166/150/14 262/290/14 167/151/14
f 169/153/12 170/155/12 172/291/12
f 172/156/7 173/158/7 174/162/7
f 174/159/10 175/161/10 176/292/10
f 176/158/11 171/156/11 169/157/11
f 173/163/14 171/165/14 175/293/14
f 172/166/13 176/168/13 169/294/13
f 177/169/14 263/295/14 178/170/14
f 180/172/12 183/178/12 181/173/12
f 183/175/7 185/179/7 184/176/7
f 185/173/10 187/174/10 186/172/10
f 187/176/11 180/177/11 182/175/11
f 184/180/13 186/183/13 182/181/13
f 183/181/14 180/182/14 187/180/14
f 188/172/12 191/178/12 189/173/12
f 191/175/7 193/179/7 192/176/7
f 193/172/10 195/178/10 194/173/10
f 195/176/11 188/177/11 190/175/11
f 192/180/13 194/183/13 190/181/13
f 191/180/14 188/183/14 195/181/14
f 196/184/16 199/187/16 197/185/16
f 199/184/17 201/187/17 200/185/17
f 201/184/18 203/187/18 202/185/18
f 203/184/19 205/187/19 204/185/19
f 205/185/20 207/186/20 206/184/20
f 207/184/21 209/187/21 208/185/21
f 201/190/14 199/296/14 196/297/14
f 196/297/14 211/298/14 209/188/14
f 209/188/14 207/299/14 205/189/14
f 205/189/14 203/300/14 201/190/14
f 201/190/14 196/297/14 209/188/14
f 209/185/22 211/186/22 210/184/22
f 211/184/23 196/187/23 198/185/23
f 210/190/13 198/296/13 197/297/13
f 197/297/13 200/298/13 202/188/13
f 202/188/13 204/299/13 206/189/13
f 206/189/13 208/300/13 210/190/13
f 210/190/13 197/297/13 202/188/13
f 212/191/16 228/194/16 213/192/16
f 214/192/17 213/193/17 215/191/17
f 216/192/18 215/193/18 217/191/18
f 218/192/19 217/193/19 219/191/19
f 219/193/20 222/191/20 221/194/20
f 222/193/24 224/191/25 223/194/21
f 224/194/22 226/192/22 225/193/22
f 226/194/23 228/192/23 212/193/23
f 224/195/25 227/197/26 233/301/54
f 217/204/29 234/302/29 231/205/29
f 213/207/30 229/303/30 232/208/30
f 226/210/31 224/304/25 233/211/54
f 222/213/32 219/305/32 231/214/32
f 215/216/33 232/306/33 234/217/33
f 230/219/34 233/307/55 235/220/56
f 234/222/35 240/308/35 237/223/35
f 229/225/36 241/309/36 238/226/36
f 227/228/39 235/230/56 233/310/55
f 231/232/41 237/311/41 239/233/38
f 232/235/42 238/312/42 240/236/42
f 236/210/44 235/304/47 242/211/57
f 240/238/45 247/313/45 244/239/45
f 241/241/46 248/314/46 245/242/46
f 235/195/47 246/197/48 242/301/57
f 237/244/50 244/315/50 246/245/48
f 238/247/51 245/316/51 247/248/51
f 244/250/1 256/253/1 249/251/53
f 247/252/8 245/250/8 250/253/8
f 248/252/5 228/250/5 252/253/5
f 243/252/3 242/250/12 254/253/12
f 247/250/9 251/253/9 256/251/9
f 248/250/6 253/253/6 250/251/6
f 242/250/12 249/251/53 254/253/12
f 243/250/4 255/253/4 252/251/4
o Цилиндр.003_selection
v -0.000000 2.000000 0.000431
v -3.000000 1.000000 0.000431
v -0.000000 1.000000 0.000431
v -3.000000 1.000000 -1.999569
v 0.000000 2.000000 -1.358065
v -1.000000 1.914055 -1.678817
v -1.000000 2.000000 -1.358065
v -3.000000 1.914055 -1.678817
v -2.000000 2.000000 -1.358065
v -2.000000 1.914055 -1.678817
v 0.000000 1.914055 -1.678817
v -1.000000 1.679248 -1.913624
v -3.000000 1.679248 -1.913624
v -2.000000 1.679248 -1.913624
v 0.000000 1.358495 -1.999569
v 0.000000 1.679248 -1.913624
v -2.000000 1.358495 -1.999569
v -3.000000 1.358495 -1.999569
v -1.000000 2.000000 -1.349569
v -2.000000 2.000000 -1.349569
v 0.000000 1.000000 -1.999569
v -1.000000 1.100000 -1.999569
v -3.000000 2.000000 0.000431
v -2.927831 1.072169 -0.071738
v -0.072169 1.927831 -0.071738
v -0.072169 1.072169 -0.071738
v -2.927831 1.072169 -1.927401
v -0.084860 1.909004 -1.346085
v -2.915140 1.909004 -1.346085
v -1.000000 1.908065 -1.349569
v -0.081653 1.832089 -1.631495
v -1.000000 1.631925 -1.831659
v -0.081653 1.631925 -1.831659
v -2.918347 1.631925 -1.831659
v -2.000000 1.832089 -1.631495
v -2.918347 1.832089 -1.631495
v -0.084860 1.346516 -1.908573
v -1.000000 1.346516 -1.908573
v -2.915140 1.346516 -1.908573
v -2.000000 1.631925 -1.831659
v -2.927831 1.927831 -0.071738
v -0.072169 1.072169 -1.927401
v -2.000000 1.100000 -1.925491
v -2.000000 1.908065 -1.349569
v -1.000000 1.358495 -1.999569
v -2.000000 1.100000 -1.999569
v -1.000000 1.100000 -1.925491
v -2.000000 1.346516 -1.908573
v -3.000000 2.000000 -1.358065
v -1.000000 1.832089 -1.631495
vn -0.0000 -0.0000 1.0000
vn -0.0000 -1.0000 -0.0000
vn -0.0000 0.9659 -0.2588
vn -0.0000 0.7071 -0.7071
vn -0.0000 0.2588 -0.9659
vn -0.0000 1.0000 -0.0000
vn -0.0000 -0.0000 -1.0000
vn 1.0000 -0.0000 -0.0000
vn -1.0000 -0.0000 -0.0000
vn -0.0000 0.9656 -0.2602
vn -0.0000 0.2602 -0.9656
vn -0.0000 0.9999 -0.0148
vn -0.0000 0.0685 -0.9977
vn 0.9999 0.0152 -0.0070
vn -0.9999 0.0152 -0.0070
vn -0.0000 0.9656 -0.2601
vn 0.9595 0.0632 -0.2746
vn 0.9965 0.0829 -0.0111
vn 0.9996 0.0204 -0.0204
vn -0.9998 -0.0154 0.0154
vn -0.9965 0.0829 -0.0111
vn -0.9931 0.0531 -0.1046
vt 0.007812 0.527344
vt 0.093750 0.277344
vt 0.093750 0.527344
vt 0.013722 0.989200
vt 0.154405 0.780128
vt 0.154405 0.989200
vt 0.316406 0.648438
vt 0.289062 0.562500
vt 0.316406 0.562500
vt 0.289062 0.648438
vt 0.828125 0.894531
vt 0.855469 0.980469
vt 0.828125 0.980469
vt 0.855469 0.894531
vt 0.984375 0.988281
vt 0.871094 0.902344
vt 0.871094 0.820312
vt 0.249793 0.198950
vt 0.249793 0.450992
vt 0.241490 0.285210
vt 0.503906 0.601562
vt 0.417969 0.714844
vt 0.449219 0.546875
vt 0.789062 0.765625
vt 0.730469 0.757812
vt 0.816406 0.925781
vt 0.122495 0.213976
vt 0.122495 0.453891
vt 0.194382 0.453891
vt 0.592465 0.992674
vt 0.592465 0.752759
vt 0.436563 0.752759
vt 0.067648 0.246819
vt 0.068542 0.171068
vt 0.067648 0.012537
vt 0.214876 0.551161
vt 0.238659 0.551161
vt 0.238659 0.474007
vt 0.214876 0.474007
vt 0.255882 0.647309
vt 0.255882 0.570424
vt 0.231048 0.570424
vt 0.231048 0.647309
vt 0.255882 0.647578
vt 0.604419 0.756637
vt 0.604419 0.994419
vt 0.711493 0.995486
vt 0.041890 0.014312
vt 0.039546 0.092263
vt 0.041890 0.254227
vt 0.126304 0.031932
vt 0.190167 0.056788
vt 0.198192 0.187839
vt 0.190162 0.056785
vt 0.126297 0.031934
vt 0.198196 0.187836
vt 0.108990 0.447062
vt 0.101266 0.531075
vt 0.101266 0.447062
vt 0.336822 0.632045
vt 0.310728 0.679203
vt 0.323135 0.655270
vt 0.336823 0.632046
vt 0.427606 0.824302
vt 0.421381 0.740289
vt 0.427606 0.740289
vt 0.003906 0.730469
vt 0.003906 0.707031
vt 0.085938 0.707031
vt 0.007812 0.277344
vt 0.013722 0.780128
vt 0.981593 0.748626
vt 0.981593 0.749360
vt 0.872931 0.749360
vt 0.871094 0.734375
vt 0.984375 0.734375
vt 0.871094 0.988281
vt 0.219870 0.285112
vt 0.219675 0.198950
vt 0.249988 0.452359
vt 0.219577 0.452945
vt 0.219577 0.366587
vt 0.241294 0.366587
vt 0.241392 0.366978
vt 0.476562 0.554688
vt 0.496094 0.574219
vt 0.503906 0.714844
vt 0.417969 0.546875
vt 0.816406 0.812500
vt 0.808594 0.785156
vt 0.761719 0.757812
vt 0.730469 0.925781
vt 0.194382 0.213976
vt 0.436563 0.992674
vt 0.092712 0.171258
vt 0.092114 0.247277
vt 0.092935 0.088025
vt 0.092113 0.012007
vt 0.068766 0.088286
vt 0.231048 0.647578
vt 0.711493 0.755570
vt 0.018787 0.015378
vt 0.018787 0.092263
vt 0.018787 0.176277
vt 0.018787 0.253161
vt 0.039546 0.176277
vt 0.173357 0.039965
vt 0.149379 0.033496
vt 0.126304 0.187833
vt 0.196618 0.080770
vt 0.149372 0.033497
vt 0.173350 0.039964
vt 0.196614 0.080768
vt 0.126308 0.187836
vt 0.108990 0.531075
vt 0.330205 0.610445
vt 0.336427 0.610332
vt 0.330093 0.659120
vt 0.283916 0.686912
vt 0.283203 0.686925
vt 0.283062 0.679203
vt 0.306627 0.672390
vt 0.329161 0.631178
vt 0.421381 0.824302
vt 0.085938 0.753906
vt 0.085938 0.777344
vt 0.003906 0.777344
vt 0.003906 0.753906
vt 0.085938 0.730469
vt 0.003906 0.683594
vt 0.085938 0.683594
s 1
usemtl m_9bd43d53-a835-0dd3-c12b-113b527a406e
f 264/317/58 265/318/58 266/319/58
f 267/320/59 266/321/59 265/322/59
f 268/323/60 269/324/60 270/325/60
f 271/324/60 272/323/60 273/326/60
f 274/327/61 275/328/61 269/329/61
f 276/328/61 273/327/61 277/330/61
f 278/326/62 275/325/62 279/323/62
f 276/325/62 280/326/62 281/324/62
f 264/331/63 282/332/63 283/333/63
f 284/334/64 267/335/64 285/336/64
f 268/337/65 266/338/65 278/339/65
f 276/340/66 267/341/66 286/342/66
f 287/343/58 289/344/58 288/345/58
f 289/346/59 287/347/59 290/348/59
f 291/349/67 293/350/67 292/351/67
f 294/352/61 296/353/61 295/354/61
f 297/354/61 299/355/61 298/352/61
f 300/356/68 301/357/68 295/358/68
f 302/359/68 297/360/68 303/357/68
f 291/361/69 292/362/69 304/363/69
f 290/364/70 306/365/70 305/366/70
f 305/367/71 294/368/71 288/369/71
f 299/370/72 290/371/72 304/372/72
f 283/373/64 293/374/64 307/375/64
f 280/376/65 273/377/65 303/378/65
f 269/377/66 308/379/66 295/378/66
f 309/380/63 310/381/63 285/382/63
f 295/383/68 301/384/68 311/385/68
f 264/317/58 286/386/58 265/318/58
f 267/320/59 284/387/59 266/321/59
f 268/323/60 274/326/60 269/324/60
f 271/324/60 312/325/60 272/323/60
f 274/327/61 279/330/61 275/328/61
f 276/328/61 271/329/61 273/327/61
f 278/326/62 308/324/62 275/325/62
f 276/325/62 277/323/62 280/326/62
f 283/388/63 272/389/63 312/390/63
f 312/391/63 286/392/63 264/331/63
f 264/331/63 268/393/63 270/332/63
f 264/331/63 270/332/63 282/332/63
f 283/333/63 312/391/63 264/331/63
f 308/394/64 278/395/64 284/334/64
f 267/396/64 281/397/64 280/398/64
f 267/396/64 280/398/64 309/399/64
f 285/336/64 308/394/64 284/334/64
f 267/335/64 309/400/64 285/336/64
f 279/401/65 274/402/65 268/337/65
f 268/337/65 264/403/65 266/338/65
f 266/338/65 284/404/65 278/339/65
f 278/339/65 279/401/65 268/337/65
f 312/405/66 271/406/66 276/340/66
f 276/340/66 281/407/66 267/341/66
f 267/341/66 265/408/66 286/342/66
f 286/342/66 312/405/66 276/340/66
f 287/343/58 288/345/58 304/409/58
f 289/346/59 290/348/59 305/410/59
f 313/411/67 291/349/67 294/412/67
f 292/351/67 298/413/67 299/414/67
f 292/351/67 307/415/73 298/413/67
f 293/350/67 291/349/67 313/411/67
f 292/351/67 293/350/67 307/415/73
f 294/352/61 295/354/61 313/355/61
f 297/354/61 298/352/61 303/353/61
f 300/356/68 295/358/68 296/416/68
f 302/359/68 303/357/68 311/358/68
f 291/361/69 304/363/69 288/417/69
f 306/365/70 302/418/70 311/419/70
f 305/366/70 301/420/70 300/421/70
f 305/366/70 310/422/70 301/420/70
f 306/365/70 290/364/70 302/418/70
f 305/366/70 306/365/70 310/422/70
f 296/423/74 305/367/74 300/424/74
f 305/367/65 288/369/65 289/425/65
f 288/369/75 294/368/75 291/426/75
f 294/368/76 305/367/76 296/423/76
f 302/427/77 299/370/77 297/428/77
f 299/370/78 304/372/78 292/429/78
f 304/372/66 290/371/66 287/430/66
f 290/371/79 299/370/79 302/427/79
f 283/373/64 282/431/64 293/374/64
f 306/432/65 309/433/65 280/376/65
f 280/376/65 277/434/65 273/377/65
f 273/377/65 272/435/65 283/436/65
f 283/436/65 307/437/65 298/438/65
f 273/377/65 283/436/65 298/438/65
f 311/439/65 306/432/65 280/376/65
f 273/377/65 298/438/65 303/378/65
f 303/378/65 311/439/65 280/376/65
f 282/436/66 270/435/66 269/377/66
f 269/377/66 275/434/66 308/379/66
f 308/379/66 285/433/66 310/432/66
f 308/379/66 310/432/66 301/439/66
f 293/437/66 282/436/66 269/377/66
f 313/438/66 293/437/66 269/377/66
f 308/379/66 301/439/66 295/378/66
f 295/378/66 313/438/66 269/377/66
f 309/380/63 306/440/63 310/381/63
f 298/441/67 307/442/67 293/443/67
f 298/441/67 293/443/67 313/444/67
f 303/445/61 298/441/61 313/444/61
f 303/445/61 313/444/61 295/383/61
f 310/446/70 306/447/70 311/385/70
f 311/385/68 303/445/68 295/383/68
f 301/384/70 310/446/70 311/385/70
