# Made in Blockbench 5.1.6
mtllib vishelashivatel.mtl

o cylinder
v 0 0 0
v 0 0.1875 0
v 0.40192375 0 1.5
v 0.40192375 0.1875 1.5
v 1.09807625 0 1.09807625
v 1.09807625 0.1875 1.09807625
v 1.5 0 0.40192375
v 1.5 0.1875 0.40192375
v 1.5 0 -0.40192375
v 1.5 0.1875 -0.40192375
v 1.09807625 0 -1.09807625
v 1.09807625 0.1875 -1.09807625
v 0.40192375 0 -1.5
v 0.40192375 0.1875 -1.5
v -0.40192375 0 -1.5
v -0.40192375 0.1875 -1.5
v -1.09807625 0 -1.09807625
v -1.09807625 0.1875 -1.09807625
v -1.5 0 -0.40192375
v -1.5 0.1875 -0.40192375
v -1.5 0 0.40192375
v -1.5 0.1875 0.40192375
v -1.09807625 0 1.09807625
v -1.09807625 0.1875 1.09807625
v -0.40192375 0 1.5
v -0.40192375 0.1875 1.5
v 0.385176875 0.1875 1.4375
v 0.385176875 0.908333125 1.4375
v 0.30247 0.1875 1.128834375
v 0.31562125 0.875 1.177914375
v 1.052323125 0.1875 1.052323125
v 1.052323125 0.908333125 1.052323125
v 0.826364375 0.1875 0.826364375
v 0.862293125 0.875 0.862293125
v 1.4375 0.1875 0.385176875
v 1.4375 0.908333125 0.385176875
v 1.128834375 0.1875 0.30247
v 1.177914375 0.875 0.31562125
v 1.4375 0.1875 -0.385176875
v 1.4375 0.908333125 -0.385176875
v 1.128834375 0.1875 -0.30247
v 1.177914375 0.875 -0.31562125
v 1.052323125 0.1875 -1.052323125
v 1.052323125 0.908333125 -1.052323125
v 0.826364375 0.1875 -0.826364375
v 0.862293125 0.875 -0.862293125
v 0.385176875 0.1875 -1.4375
v 0.385176875 0.908333125 -1.4375
v 0.30247 0.1875 -1.128834375
v 0.31562125 0.875 -1.177914375
v -0.385176875 0.1875 -1.4375
v -0.385176875 0.908333125 -1.4375
v -0.30247 0.1875 -1.128834375
v -0.31562125 0.875 -1.177914375
v -1.052323125 0.1875 -1.052323125
v -1.052323125 0.908333125 -1.052323125
v -0.826364375 0.1875 -0.826364375
v -0.862293125 0.875 -0.862293125
v -1.4375 0.1875 -0.385176875
v -1.4375 0.908333125 -0.385176875
v -1.128834375 0.1875 -0.30247
v -1.177914375 0.875 -0.31562125
v -1.4375 0.1875 0.385176875
v -1.4375 0.908333125 0.385176875
v -1.128834375 0.1875 0.30247
v -1.177914375 0.875 0.31562125
v -1.052323125 0.1875 1.052323125
v -1.052323125 0.908333125 1.052323125
v -0.826364375 0.1875 0.826364375
v -0.862293125 0.875 0.862293125
v -0.385176875 0.1875 1.4375
v -0.385176875 0.908333125 1.4375
v -0.30247 0.1875 1.128834375
v -0.31562125 0.875 1.177914375
v 0.40192375 0.875 1.5
v 0.40192375 1 1.5
v 0.31562125 0.875 1.177914375
v 0.31562125 1 1.177914375
v 1.09807625 0.875 1.09807625
v 1.09807625 1 1.09807625
v 0.862293125 0.875 0.862293125
v 0.862293125 1 0.862293125
v 1.5 0.875 0.40192375
v 1.5 1 0.40192375
v 1.177914375 0.875 0.31562125
v 1.177914375 1 0.31562125
v 1.5 0.875 -0.40192375
v 1.5 1 -0.40192375
v 1.177914375 0.875 -0.31562125
v 1.177914375 1 -0.31562125
v 1.09807625 0.875 -1.09807625
v 1.09807625 1 -1.09807625
v 0.862293125 0.875 -0.862293125
v 0.862293125 1 -0.862293125
v 0.40192375 0.875 -1.5
v 0.40192375 1 -1.5
v 0.31562125 0.875 -1.177914375
v 0.31562125 1 -1.177914375
v -0.40192375 0.875 -1.5
v -0.40192375 1 -1.5
v -0.31562125 0.875 -1.177914375
v -0.31562125 1 -1.177914375
v -1.09807625 0.875 -1.09807625
v -1.09807625 1 -1.09807625
v -0.862293125 0.875 -0.862293125
v -0.862293125 1 -0.862293125
v -1.5 0.875 -0.40192375
v -1.5 1 -0.40192375
v -1.177914375 0.875 -0.31562125
v -1.177914375 1 -0.31562125
v -1.5 0.875 0.40192375
v -1.5 1 0.40192375
v -1.177914375 0.875 0.31562125
v -1.177914375 1 0.31562125
v -1.09807625 0.875 1.09807625
v -1.09807625 1 1.09807625
v -0.862293125 0.875 0.862293125
v -0.862293125 1 0.862293125
v -0.40192375 0.875 1.5
v -0.40192375 1 1.5
v -0.31562125 0.875 1.177914375
v -0.31562125 1 1.177914375
v 0.1875 0.6875 1.40625
v 0.1875 0.6875 1.5
v 0.1875 0.3125 1.40625
v 0.1875 0.3125 1.5
v -0.1875 0.6875 1.40625
v -0.1875 0.6875 1.5
v -0.1875 0.3125 1.40625
v -0.1875 0.3125 1.5
v 0.1875 0.6875 -1.40625
v 0.1875 0.6875 -1.5
v 0.1875 0.3125 -1.40625
v 0.1875 0.3125 -1.5
v -0.1875 0.6875 -1.40625
v -0.1875 0.6875 -1.5
v -0.1875 0.3125 -1.40625
v -0.1875 0.3125 -1.5
v 1.40625 0.6875 -0.1874999999999997
v 1.5 0.6875 -0.18749999999999967
v 1.40625 0.3125 -0.1874999999999997
v 1.5 0.3125 -0.18749999999999967
v 1.40625 0.6875 0.1875000000000003
v 1.5 0.6875 0.18750000000000033
v 1.40625 0.3125 0.1875000000000003
v 1.5 0.3125 0.18750000000000033
v -1.40625 0.6875 -0.1875000000000003
v -1.5 0.6875 -0.18750000000000033
v -1.40625 0.3125 -0.1875000000000003
v -1.5 0.3125 -0.18750000000000033
v -1.40625 0.6875 0.1874999999999997
v -1.5 0.6875 0.18749999999999967
v -1.40625 0.3125 0.1874999999999997
v -1.5 0.3125 0.18749999999999967
vt 0.6545671875 0.4709734375
vt 0.6110578125 0.49609375
vt 0.5859375 0.40234375
vt 0.5817609375 0.015625
vt 0.6320015625 0.015625
vt 0.6320015625 0.0390625
vt 0.5817609375 0.0390625
vt 0.8298078125 0.51171875
vt 0.8733171875 0.5368390625
vt 0.8046875 0.60546875
vt 0.6796875 0.4274640625
vt 0.6545671875 0.4709734375
vt 0.5859375 0.40234375
vt 0.3054984375 0.015625
vt 0.3557390625 0.015625
vt 0.3557390625 0.0390625
vt 0.3054984375 0.0390625
vt 0.8733171875 0.5368390625
vt 0.8984375 0.5803484375
vt 0.8046875 0.60546875
vt 0.6796875 0.3772234375
vt 0.6796875 0.4274640625
vt 0.5859375 0.40234375
vt 0.3557390625 0.015625
vt 0.4059796875 0.015625
vt 0.4059796875 0.0390625
vt 0.3557390625 0.0390625
vt 0.8984375 0.5803484375
vt 0.8984375 0.6305890625
vt 0.8046875 0.60546875
vt 0.6545671875 0.3337140625
vt 0.6796875 0.3772234375
vt 0.5859375 0.40234375
vt 0.4059796875 0.015625
vt 0.4562203125 0.015625
vt 0.4562203125 0.0390625
vt 0.4059796875 0.0390625
vt 0.8984375 0.6305890625
vt 0.8733171875 0.6740984375
vt 0.8046875 0.60546875
vt 0.6110578125 0.30859375
vt 0.6545671875 0.3337140625
vt 0.5859375 0.40234375
vt 0.833653125 0.015625
vt 0.88389375 0.015625
vt 0.88389375 0.0390625
vt 0.833653125 0.0390625
vt 0.8733171875 0.6740984375
vt 0.8298078125 0.69921875
vt 0.8046875 0.60546875
vt 0.5608171875 0.30859375
vt 0.6110578125 0.30859375
vt 0.5859375 0.40234375
vt 0.88389375 0.015625
vt 0.934134375 0.015625
vt 0.934134375 0.0390625
vt 0.88389375 0.0390625
vt 0.8298078125 0.69921875
vt 0.7795671875 0.69921875
vt 0.8046875 0.60546875
vt 0.5173078125 0.3337140625
vt 0.5608171875 0.30859375
vt 0.5859375 0.40234375
vt 0.934134375 0.015625
vt 0.984375 0.015625
vt 0.984375 0.0390625
vt 0.934134375 0.0390625
vt 0.7795671875 0.69921875
vt 0.7360578125 0.6740984375
vt 0.8046875 0.60546875
vt 0.4921875 0.3772234375
vt 0.5173078125 0.3337140625
vt 0.5859375 0.40234375
vt 0.6609671875 0.015625
vt 0.7112078125 0.015625
vt 0.7112078125 0.0390625
vt 0.6609671875 0.0390625
vt 0.7360578125 0.6740984375
vt 0.7109375 0.6305890625
vt 0.8046875 0.60546875
vt 0.4921875 0.4274640625
vt 0.4921875 0.3772234375
vt 0.5859375 0.40234375
vt 0.7112078125 0.015625
vt 0.7614484375 0.015625
vt 0.7614484375 0.0390625
vt 0.7112078125 0.0390625
vt 0.7109375 0.6305890625
vt 0.7109375 0.5803484375
vt 0.8046875 0.60546875
vt 0.5173078125 0.4709734375
vt 0.4921875 0.4274640625
vt 0.5859375 0.40234375
vt 0.7614484375 0.015625
vt 0.8116890625 0.015625
vt 0.8116890625 0.0390625
vt 0.7614484375 0.0390625
vt 0.7109375 0.5803484375
vt 0.7360578125 0.5368390625
vt 0.8046875 0.60546875
vt 0.5608171875 0.49609375
vt 0.5173078125 0.4709734375
vt 0.5859375 0.40234375
vt 0.4812796875 0.015625
vt 0.5315203125 0.015625
vt 0.5315203125 0.0390625
vt 0.4812796875 0.0390625
vt 0.7360578125 0.5368390625
vt 0.7795671875 0.51171875
vt 0.8046875 0.60546875
vt 0.6110578125 0.49609375
vt 0.5608171875 0.49609375
vt 0.5859375 0.40234375
vt 0.5315203125 0.015625
vt 0.5817609375 0.015625
vt 0.5817609375 0.0390625
vt 0.5315203125 0.0390625
vt 0.7795671875 0.51171875
vt 0.8298078125 0.51171875
vt 0.8046875 0.60546875
vt 0.4322765625 0.763541796875
vt 0.4804234375 0.763541796875
vt 0.4804234375 0.80859375
vt 0.4322765625 0.80859375
vt 0.075976953125 0.93359375
vt 0.0365533203125 0.93208890625
vt 0.039017734375 0.8890734765625
vt 0.076798828125 0.890515625
vt 0.3125453125 0.642448046875
vt 0.3606921875 0.642448046875
vt 0.3606921875 0.6875
vt 0.3125453125 0.6875
vt 0.1509466796875 0.64302640625
vt 0.111523046875 0.64453125
vt 0.110701171875 0.6014531249999999
vt 0.148482265625 0.6000109765625
vt 0.3606921875 0.642448046875
vt 0.4088390625 0.642448046875
vt 0.4088390625 0.6875
vt 0.3606921875 0.6875
vt 0.111523046875 0.64453125
vt 0.072070703125 0.64453125
vt 0.072892578125 0.6014531249999999
vt 0.110701171875 0.6014531249999999
vt 0.4088390625 0.642448046875
vt 0.4569859375 0.642448046875
vt 0.4569859375 0.6875
vt 0.4088390625 0.6875
vt 0.072070703125 0.64453125
vt 0.0326470703125 0.64302640625
vt 0.035111484375 0.6000109765625
vt 0.072892578125 0.6014531249999999
vt 0.1914515625 0.591666796875
vt 0.2395984375 0.591666796875
vt 0.2395984375 0.63671875
vt 0.1914515625 0.63671875
vt 0.1196966796875 0.80318265625
vt 0.080273046875 0.8046875
vt 0.079451171875 0.761609375
vt 0.117232265625 0.7601672265625
vt 0.2395984375 0.591666796875
vt 0.2877453125 0.591666796875
vt 0.2877453125 0.63671875
vt 0.2395984375 0.63671875
vt 0.080273046875 0.8046875
vt 0.040820703125 0.8046875
vt 0.041642578125 0.761609375
vt 0.079451171875 0.761609375
vt 0.2877453125 0.591666796875
vt 0.3358921875 0.591666796875
vt 0.3358921875 0.63671875
vt 0.2877453125 0.63671875
vt 0.040820703125 0.8046875
vt 0.0013970703125 0.80318265625
vt 0.003861484375 0.7601672265625
vt 0.041642578125 0.761609375
vt 0.3359828125 0.712760546875
vt 0.3841296875 0.712760546875
vt 0.3841296875 0.7578125
vt 0.3359828125 0.7578125
vt 0.4595404296875 0.63521390625
vt 0.420116796875 0.63671875
vt 0.419294921875 0.5936406249999999
vt 0.457076015625 0.5921984765625
vt 0.3841296875 0.712760546875
vt 0.4322765625 0.712760546875
vt 0.4322765625 0.7578125
vt 0.3841296875 0.7578125
vt 0.420116796875 0.63671875
vt 0.380664453125 0.63671875
vt 0.381486328125 0.5936406249999999
vt 0.419294921875 0.5936406249999999
vt 0.4322765625 0.712760546875
vt 0.4804234375 0.712760546875
vt 0.4804234375 0.7578125
vt 0.4322765625 0.7578125
vt 0.380664453125 0.63671875
vt 0.3412408203125 0.63521390625
vt 0.343705234375 0.5921984765625
vt 0.381486328125 0.5936406249999999
vt 0.3359828125 0.763541796875
vt 0.3841296875 0.763541796875
vt 0.3841296875 0.80859375
vt 0.3359828125 0.80859375
vt 0.1548529296875 0.93208890625
vt 0.115429296875 0.93359375
vt 0.114607421875 0.890515625
vt 0.152388515625 0.8890734765625
vt 0.3841296875 0.763541796875
vt 0.4322765625 0.763541796875
vt 0.4322765625 0.80859375
vt 0.3841296875 0.80859375
vt 0.115429296875 0.93359375
vt 0.075976953125 0.93359375
vt 0.076798828125 0.890515625
vt 0.114607421875 0.890515625
vt 0.1091046875 0.0078125
vt 0.1593453125 0.0078125
vt 0.1593453125 0.0234375
vt 0.1091046875 0.0234375
vt 0.333789453125 0.546875
vt 0.294337109375 0.546875
vt 0.294337109375 0.5390625
vt 0.333789453125 0.5390625
vt 0.822460546875 0.94080703125
vt 0.856627734375 0.921080859375
vt 0.8713640625 0.9358171875
vt 0.8278546875 0.9609375
vt 0.3688703125 0.3046875
vt 0.4123796875 0.3298078125
vt 0.397643359375 0.34454414062500005
vt 0.363476171875 0.32481796875
vt 0.0086234375 0.15625
vt 0.0588640625 0.15625
vt 0.0588640625 0.171875
vt 0.0086234375 0.171875
vt 0.568944140625 0.55859375
vt 0.529491796875 0.55859375
vt 0.529491796875 0.55078125
vt 0.568944140625 0.55078125
vt 0.856627734375 0.921080859375
vt 0.87635390625 0.886913671875
vt 0.896484375 0.8923078125
vt 0.8713640625 0.9358171875
vt 0.4123796875 0.3298078125
vt 0.4375 0.3733171875
vt 0.41736953125 0.37871132812499997
vt 0.397643359375 0.34454414062500005
vt 0.0588640625 0.15625
vt 0.1091046875 0.15625
vt 0.1091046875 0.171875
vt 0.0588640625 0.171875
vt 0.529491796875 0.55859375
vt 0.490039453125 0.55859375
vt 0.490039453125 0.55078125
vt 0.529491796875 0.55078125
vt 0.87635390625 0.886913671875
vt 0.87635390625 0.847461328125
vt 0.896484375 0.8420671875
vt 0.896484375 0.8923078125
vt 0.4375 0.3733171875
vt 0.4375 0.4235578125
vt 0.41736953125 0.41816367187500003
vt 0.41736953125 0.37871132812499997
vt 0.1091046875 0.15625
vt 0.1593453125 0.15625
vt 0.1593453125 0.171875
vt 0.1091046875 0.171875
vt 0.490039453125 0.55859375
vt 0.450587109375 0.55859375
vt 0.450587109375 0.55078125
vt 0.490039453125 0.55078125
vt 0.87635390625 0.847461328125
vt 0.856627734375 0.813294140625
vt 0.8713640625 0.7985578125
vt 0.896484375 0.8420671875
vt 0.4375 0.4235578125
vt 0.4123796875 0.4670671875
vt 0.397643359375 0.45233085937499995
vt 0.41736953125 0.41816367187500003
vt 0.0090140625 0.042187500000000044
vt 0.0592546875 0.042187500000000044
vt 0.0592546875 0.057812500000000044
vt 0.0090140625 0.057812500000000044
vt 0.537694140625 0.546875
vt 0.498241796875 0.546875
vt 0.498241796875 0.5390625
vt 0.537694140625 0.5390625
vt 0.856627734375 0.813294140625
vt 0.822460546875 0.79356796875
vt 0.8278546875 0.7734375
vt 0.8713640625 0.7985578125
vt 0.4123796875 0.4670671875
vt 0.3688703125 0.4921875
vt 0.363476171875 0.47205703125
vt 0.397643359375 0.45233085937499995
vt 0.0592546875 0.042187500000000044
vt 0.1094953125 0.042187500000000044
vt 0.1094953125 0.057812500000000044
vt 0.0592546875 0.057812500000000044
vt 0.498241796875 0.546875
vt 0.458789453125 0.546875
vt 0.458789453125 0.5390625
vt 0.498241796875 0.5390625
vt 0.822460546875 0.79356796875
vt 0.783008203125 0.79356796875
vt 0.7776140625 0.7734375
vt 0.8278546875 0.7734375
vt 0.3688703125 0.4921875
vt 0.3186296875 0.4921875
vt 0.324023828125 0.47205703125
vt 0.363476171875 0.47205703125
vt 0.1094953125 0.042187500000000044
vt 0.1597359375 0.042187500000000044
vt 0.1597359375 0.057812500000000044
vt 0.1094953125 0.057812500000000044
vt 0.458789453125 0.546875
vt 0.419337109375 0.546875
vt 0.419337109375 0.5390625
vt 0.458789453125 0.5390625
vt 0.783008203125 0.79356796875
vt 0.748841015625 0.813294140625
vt 0.7341046875 0.7985578125
vt 0.7776140625 0.7734375
vt 0.3186296875 0.4921875
vt 0.2751203125 0.4670671875
vt 0.289856640625 0.45233085937499995
vt 0.324023828125 0.47205703125
vt 0.0086234375 0.08984375
vt 0.0588640625 0.08984375
vt 0.0588640625 0.10546875
vt 0.0086234375 0.10546875
vt 0.287694140625 0.546875
vt 0.248241796875 0.546875
vt 0.248241796875 0.5390625
vt 0.287694140625 0.5390625
vt 0.748841015625 0.813294140625
vt 0.72911484375 0.847461328125
vt 0.708984375 0.8420671875
vt 0.7341046875 0.7985578125
vt 0.2751203125 0.4670671875
vt 0.25 0.4235578125
vt 0.27013046875 0.41816367187500003
vt 0.289856640625 0.45233085937499995
vt 0.0588640625 0.08984375
vt 0.1091046875 0.08984375
vt 0.1091046875 0.10546875
vt 0.0588640625 0.10546875
vt 0.248241796875 0.546875
vt 0.208789453125 0.546875
vt 0.208789453125 0.5390625
vt 0.248241796875 0.5390625
vt 0.72911484375 0.847461328125
vt 0.72911484375 0.886913671875
vt 0.708984375 0.8923078125
vt 0.708984375 0.8420671875
vt 0.25 0.4235578125
vt 0.25 0.3733171875
vt 0.27013046875 0.37871132812499997
vt 0.27013046875 0.41816367187500003
vt 0.1091046875 0.08984375
vt 0.1593453125 0.08984375
vt 0.1593453125 0.10546875
vt 0.1091046875 0.10546875
vt 0.208789453125 0.546875
vt 0.169337109375 0.546875
vt 0.169337109375 0.5390625
vt 0.208789453125 0.5390625
vt 0.72911484375 0.886913671875
vt 0.748841015625 0.921080859375
vt 0.7341046875 0.9358171875
vt 0.708984375 0.8923078125
vt 0.25 0.3733171875
vt 0.2751203125 0.3298078125
vt 0.289856640625 0.34454414062500005
vt 0.27013046875 0.37871132812499997
vt 0.0086234375 0.0078125
vt 0.0588640625 0.0078125
vt 0.0588640625 0.0234375
vt 0.0086234375 0.0234375
vt 0.412694140625 0.546875
vt 0.373241796875 0.546875
vt 0.373241796875 0.5390625
vt 0.412694140625 0.5390625
vt 0.748841015625 0.921080859375
vt 0.783008203125 0.94080703125
vt 0.7776140625 0.9609375
vt 0.7341046875 0.9358171875
vt 0.2751203125 0.3298078125
vt 0.3186296875 0.3046875
vt 0.324023828125 0.32481796875
vt 0.289856640625 0.34454414062500005
vt 0.0588640625 0.0078125
vt 0.1091046875 0.0078125
vt 0.1091046875 0.0234375
vt 0.0588640625 0.0234375
vt 0.373241796875 0.546875
vt 0.333789453125 0.546875
vt 0.333789453125 0.5390625
vt 0.373241796875 0.5390625
vt 0.783008203125 0.94080703125
vt 0.822460546875 0.94080703125
vt 0.8278546875 0.9609375
vt 0.7776140625 0.9609375
vt 0.3186296875 0.3046875
vt 0.3688703125 0.3046875
vt 0.363476171875 0.32481796875
vt 0.324023828125 0.32481796875
vt 0.0078125 0.94921875
vt 0.0078125 0.97265625
vt 0 0.97265625
vt 0 0.94921875
vt 0.125 0.9609375
vt 0.1171875 0.9609375
vt 0.1171875 0.9375
vt 0.125 0.9375
vt 0.05078125 0.9921875
vt 0.05078125 1
vt 0.02734375 1
vt 0.02734375 0.9921875
vt 0.01171875 0.8125
vt 0.03515625 0.8125
vt 0.03515625 0.8203125
vt 0.01171875 0.8203125
vt 0.11328125 0.9453125
vt 0.11328125 0.96875
vt 0.08984375 0.96875
vt 0.08984375 0.9453125
vt 0.06640625 0.8828125
vt 0.04296875 0.8828125
vt 0.04296875 0.859375
vt 0.06640625 0.859375
vt 0.2421875 0.9453125
vt 0.234375 0.9453125
vt 0.234375 0.921875
vt 0.2421875 0.921875
vt 0.2421875 0.89453125
vt 0.2421875 0.91796875
vt 0.234375 0.91796875
vt 0.234375 0.89453125
vt 0.19140625 0.85546875
vt 0.21484375 0.85546875
vt 0.21484375 0.86328125
vt 0.19140625 0.86328125
vt 0.2578125 0.8828125
vt 0.2578125 0.890625
vt 0.234375 0.890625
vt 0.234375 0.8828125
vt 0.1484375 0.8828125
vt 0.125 0.8828125
vt 0.125 0.859375
vt 0.1484375 0.859375
vt 0.20703125 0.94921875
vt 0.20703125 0.97265625
vt 0.18359375 0.97265625
vt 0.18359375 0.94921875
vt 0.2421875 0.85546875
vt 0.2421875 0.87890625
vt 0.234375 0.87890625
vt 0.234375 0.85546875
vt 0.24609375 0.97265625
vt 0.23828125 0.97265625
vt 0.23828125 0.94921875
vt 0.24609375 0.94921875
vt 0.26953125 0.9375
vt 0.26953125 0.9453125
vt 0.24609375 0.9453125
vt 0.24609375 0.9375
vt 0.24609375 0.92578125
vt 0.26953125 0.92578125
vt 0.26953125 0.93359375
vt 0.24609375 0.93359375
vt 0.21875 0.921875
vt 0.21875 0.9453125
vt 0.1953125 0.9453125
vt 0.1953125 0.921875
vt 0.21875 0.91796875
vt 0.1953125 0.91796875
vt 0.1953125 0.89453125
vt 0.21875 0.89453125
vt 0.25390625 0.921875
vt 0.24609375 0.921875
vt 0.24609375 0.8984375
vt 0.25390625 0.8984375
vt 0.25390625 0.85546875
vt 0.25390625 0.87890625
vt 0.24609375 0.87890625
vt 0.24609375 0.85546875
vt 0.25 0.96484375
vt 0.2734375 0.96484375
vt 0.2734375 0.97265625
vt 0.25 0.97265625
vt 0.2734375 0.953125
vt 0.2734375 0.9609375
vt 0.25 0.9609375
vt 0.25 0.953125
vt 0.21875 0.890625
vt 0.1953125 0.890625
vt 0.1953125 0.8671875
vt 0.21875 0.8671875
vt 0.234375 0.94921875
vt 0.234375 0.97265625
vt 0.2109375 0.97265625
vt 0.2109375 0.94921875
vn 0 -1 0
vn 0.4999999223061399 0 0.8660254486410051
vn 0 1 0
vn 0 -1 0
vn 0.8660254486410051 0 0.4999999223061399
vn 0 1 0
vn 0 -1 0
vn 1 0 0
vn 0 1 0
vn 0 -1 0
vn 0.8660254486410051 0 -0.4999999223061399
vn 0 1 0
vn 0 -1 0
vn 0.4999999223061399 0 -0.8660254486410051
vn 0 1 0
vn 0 -1 0
vn 0 0 -1
vn 0 1 0
vn 0 -1 0
vn -0.4999999223061399 0 -0.8660254486410051
vn 0 1 0
vn 0 -1 0
vn -0.8660254486410051 0 -0.4999999223061399
vn 0 1 0
vn 0 -1 0
vn -1 0 0
vn 0 1 0
vn 0 -1 0
vn -0.8660254486410051 0 0.4999999223061399
vn 0 1 0
vn 0 -1 0
vn -0.4999999223061399 0 0.8660254486410051
vn 0 1 0
vn 0 -1 0
vn 0 0 1
vn 0 1 0
vn 0.49999981304729524 0 0.8660255117216062
vn -0.4987308836590784 0.07120727330558947 -0.863826967576851
vn 0.8660255117216062 0 0.49999981304729524
vn -0.8638269173207259 0.07120808618797674 -0.4987308546436823
vn 1 0 0
vn -0.9974614976610919 0.07120786953484569 0
vn 0.8660255117216062 0 -0.49999981304729524
vn -0.863826967576851 0.07120727330558947 0.4987308836590784
vn 0.49999981304729524 0 -0.8660255117216062
vn -0.4987308546436823 0.07120808618797674 0.8638269173207259
vn 0 0 -1
vn 0 0.07120786953484569 0.9974614976610919
vn -0.49999981304729524 0 -0.8660255117216062
vn 0.4987308836590784 0.07120727330558947 0.863826967576851
vn -0.8660255117216062 0 -0.49999981304729524
vn 0.8638269173207259 0.07120808618797674 0.4987308546436823
vn -1 0 0
vn 0.9974614976610919 0.07120786953484569 0
vn -0.8660255117216062 0 0.49999981304729524
vn 0.863826967576851 0.07120727330558947 -0.4987308836590784
vn -0.49999981304729524 0 0.8660255117216062
vn 0.4987308546436823 0.07120808618797674 -0.8638269173207259
vn 0 0 1
vn 0 0.07120786953484569 -0.9974614976610919
vn 0.49999992230614 0 0.8660254486410052
vn -0.5000001138354565 0 -0.8660253380614973
vn 0 -1 0
vn 0 1 0
vn 0.8660254486410052 0 0.49999992230614
vn -0.8660253380614973 0 -0.5000001138354565
vn 0 -1 0
vn 0 1 0
vn 1 0 0
vn -1 0 0
vn 0 -1 0
vn 0 1 0
vn 0.8660254486410052 0 -0.49999992230614
vn -0.8660253380614973 0 0.5000001138354565
vn 0 -1 0
vn 0 1 0
vn 0.49999992230614 0 -0.8660254486410052
vn -0.5000001138354565 0 0.8660253380614973
vn 0 -1 0
vn 0 1 0
vn 0 0 -1
vn 0 0 1
vn 0 -1 0
vn 0 1 0
vn -0.49999992230614 0 -0.8660254486410052
vn 0.5000001138354565 0 0.8660253380614973
vn 0 -1 0
vn 0 1 0
vn -0.8660254486410052 0 -0.49999992230614
vn 0.8660253380614973 0 0.5000001138354565
vn 0 -1 0
vn 0 1 0
vn -1 0 0
vn 1 0 0
vn 0 -1 0
vn 0 1 0
vn -0.8660254486410052 0 0.49999992230614
vn 0.8660253380614973 0 -0.5000001138354565
vn 0 -1 0
vn 0 1 0
vn -0.49999992230614 0 0.8660254486410052
vn 0.5000001138354565 0 -0.8660253380614973
vn 0 -1 0
vn 0 1 0
vn 0 0 1
vn 0 0 -1
vn 0 -1 0
vn 0 1 0
vn 1 0 0
vn -1 0 0
vn 0 1 0
vn 0 -1 0
vn 0 0 1
vn 0 0 -1
vn 1 0 0
vn -1 0 0
vn 0 1 0
vn 0 -1 0
vn 0 0 -1
vn 0 0 1
vn 2.9605947323337506e-16 0 -1
vn -2.9605947323337506e-16 0 1
vn 0 1 0
vn 0 -1 0
vn 1 0 0
vn -1 0 0
vn 2.9605947323337506e-16 0 -1
vn -2.9605947323337506e-16 0 1
vn 0 1 0
vn 0 -1 0
vn -1 0 0
vn 1 0 0
usemtl m_df0e7cd4-f989-881a-978d-2e378ac5f9a2
f 5/1/1 3/2/1 1/3/1
f 3/4/2 5/5/2 6/6/2 4/7/2
f 4/8/3 6/9/3 2/10/3
f 7/11/4 5/12/4 1/13/4
f 5/14/5 7/15/5 8/16/5 6/17/5
f 6/18/6 8/19/6 2/20/6
f 9/21/7 7/22/7 1/23/7
f 7/24/8 9/25/8 10/26/8 8/27/8
f 8/28/9 10/29/9 2/30/9
f 11/31/10 9/32/10 1/33/10
f 9/34/11 11/35/11 12/36/11 10/37/11
f 10/38/12 12/39/12 2/40/12
f 13/41/13 11/42/13 1/43/13
f 11/44/14 13/45/14 14/46/14 12/47/14
f 12/48/15 14/49/15 2/50/15
f 15/51/16 13/52/16 1/53/16
f 13/54/17 15/55/17 16/56/17 14/57/17
f 14/58/18 16/59/18 2/60/18
f 17/61/19 15/62/19 1/63/19
f 15/64/20 17/65/20 18/66/20 16/67/20
f 16/68/21 18/69/21 2/70/21
f 19/71/22 17/72/22 1/73/22
f 17/74/23 19/75/23 20/76/23 18/77/23
f 18/78/24 20/79/24 2/80/24
f 21/81/25 19/82/25 1/83/25
f 19/84/26 21/85/26 22/86/26 20/87/26
f 20/88/27 22/89/27 2/90/27
f 23/91/28 21/92/28 1/93/28
f 21/94/29 23/95/29 24/96/29 22/97/29
f 22/98/30 24/99/30 2/100/30
f 25/101/31 23/102/31 1/103/31
f 23/104/32 25/105/32 26/106/32 24/107/32
f 24/108/33 26/109/33 2/110/33
f 3/111/34 25/112/34 1/113/34
f 25/114/35 3/115/35 4/116/35 26/117/35
f 26/118/36 4/119/36 2/120/36
f 27/121/37 31/122/37 32/123/37 28/124/37
f 30/125/38 34/126/38 33/127/38 29/128/38
f 31/129/39 35/130/39 36/131/39 32/132/39
f 34/133/40 38/134/40 37/135/40 33/136/40
f 35/137/41 39/138/41 40/139/41 36/140/41
f 38/141/42 42/142/42 41/143/42 37/144/42
f 39/145/43 43/146/43 44/147/43 40/148/43
f 42/149/44 46/150/44 45/151/44 41/152/44
f 43/153/45 47/154/45 48/155/45 44/156/45
f 46/157/46 50/158/46 49/159/46 45/160/46
f 47/161/47 51/162/47 52/163/47 48/164/47
f 50/165/48 54/166/48 53/167/48 49/168/48
f 51/169/49 55/170/49 56/171/49 52/172/49
f 54/173/50 58/174/50 57/175/50 53/176/50
f 55/177/51 59/178/51 60/179/51 56/180/51
f 58/181/52 62/182/52 61/183/52 57/184/52
f 59/185/53 63/186/53 64/187/53 60/188/53
f 62/189/54 66/190/54 65/191/54 61/192/54
f 63/193/55 67/194/55 68/195/55 64/196/55
f 66/197/56 70/198/56 69/199/56 65/200/56
f 67/201/57 71/202/57 72/203/57 68/204/57
f 70/205/58 74/206/58 73/207/58 69/208/58
f 71/209/59 27/210/59 28/211/59 72/212/59
f 74/213/60 30/214/60 29/215/60 73/216/60
f 75/217/61 79/218/61 80/219/61 76/220/61
f 78/221/62 82/222/62 81/223/62 77/224/62
f 77/225/63 81/226/63 79/227/63 75/228/63
f 76/229/64 80/230/64 82/231/64 78/232/64
f 79/233/65 83/234/65 84/235/65 80/236/65
f 82/237/66 86/238/66 85/239/66 81/240/66
f 81/241/67 85/242/67 83/243/67 79/244/67
f 80/245/68 84/246/68 86/247/68 82/248/68
f 83/249/69 87/250/69 88/251/69 84/252/69
f 86/253/70 90/254/70 89/255/70 85/256/70
f 85/257/71 89/258/71 87/259/71 83/260/71
f 84/261/72 88/262/72 90/263/72 86/264/72
f 87/265/73 91/266/73 92/267/73 88/268/73
f 90/269/74 94/270/74 93/271/74 89/272/74
f 89/273/75 93/274/75 91/275/75 87/276/75
f 88/277/76 92/278/76 94/279/76 90/280/76
f 91/281/77 95/282/77 96/283/77 92/284/77
f 94/285/78 98/286/78 97/287/78 93/288/78
f 93/289/79 97/290/79 95/291/79 91/292/79
f 92/293/80 96/294/80 98/295/80 94/296/80
f 95/297/81 99/298/81 100/299/81 96/300/81
f 98/301/82 102/302/82 101/303/82 97/304/82
f 97/305/83 101/306/83 99/307/83 95/308/83
f 96/309/84 100/310/84 102/311/84 98/312/84
f 99/313/85 103/314/85 104/315/85 100/316/85
f 102/317/86 106/318/86 105/319/86 101/320/86
f 101/321/87 105/322/87 103/323/87 99/324/87
f 100/325/88 104/326/88 106/327/88 102/328/88
f 103/329/89 107/330/89 108/331/89 104/332/89
f 106/333/90 110/334/90 109/335/90 105/336/90
f 105/337/91 109/338/91 107/339/91 103/340/91
f 104/341/92 108/342/92 110/343/92 106/344/92
f 107/345/93 111/346/93 112/347/93 108/348/93
f 110/349/94 114/350/94 113/351/94 109/352/94
f 109/353/95 113/354/95 111/355/95 107/356/95
f 108/357/96 112/358/96 114/359/96 110/360/96
f 111/361/97 115/362/97 116/363/97 112/364/97
f 114/365/98 118/366/98 117/367/98 113/368/98
f 113/369/99 117/370/99 115/371/99 111/372/99
f 112/373/100 116/374/100 118/375/100 114/376/100
f 115/377/101 119/378/101 120/379/101 116/380/101
f 118/381/102 122/382/102 121/383/102 117/384/102
f 117/385/103 121/386/103 119/387/103 115/388/103
f 116/389/104 120/390/104 122/391/104 118/392/104
f 119/393/105 75/394/105 76/395/105 120/396/105
f 122/397/106 78/398/106 77/399/106 121/400/106
f 121/401/107 77/402/107 75/403/107 119/404/107
f 120/405/108 76/406/108 78/407/108 122/408/108
f 125/409/109 123/410/109 124/411/109 126/412/109
f 128/413/110 127/414/110 129/415/110 130/416/110
f 124/417/111 123/418/111 127/419/111 128/420/111
f 129/421/112 125/422/112 126/423/112 130/424/112
f 126/425/113 124/426/113 128/427/113 130/428/113
f 127/429/114 123/430/114 125/431/114 129/432/114
f 132/433/115 131/434/115 133/435/115 134/436/115
f 137/437/116 135/438/116 136/439/116 138/440/116
f 135/441/117 131/442/117 132/443/117 136/444/117
f 134/445/118 133/446/118 137/447/118 138/448/118
f 136/449/119 132/450/119 134/451/119 138/452/119
f 133/453/120 131/454/120 135/455/120 137/456/120
f 141/457/121 139/458/121 140/459/121 142/460/121
f 144/461/122 143/462/122 145/463/122 146/464/122
f 140/465/123 139/466/123 143/467/123 144/468/123
f 145/469/124 141/470/124 142/471/124 146/472/124
f 142/473/125 140/474/125 144/475/125 146/476/125
f 143/477/126 139/478/126 141/479/126 145/480/126
f 148/481/127 147/482/127 149/483/127 150/484/127
f 153/485/128 151/486/128 152/487/128 154/488/128
f 151/489/129 147/490/129 148/491/129 152/492/129
f 150/493/130 149/494/130 153/495/130 154/496/130
f 152/497/131 148/498/131 150/499/131 154/500/131
f 149/501/132 147/502/132 151/503/132 153/504/132