# Made in Blockbench 5.1.6
mtllib vishelashivatel_lopasti.mtl

o mesh
v 1.0625 0.8125 -0.031249999999999764
v -1.0625 0.8125 -0.031250000000000236
v 1.0625 0.6875 -0.031249999999999764
v -1.0625 0.6875 -0.031250000000000236
v 1.0625 0.8125 0.031250000000000236
v -1.0625 0.8125 0.031249999999999764
v 1.0625 0.6875 0.031250000000000236
v -1.0625 0.6875 0.031249999999999764
v 0 0.1875 0
v 0 0.875 0
v 0.057940625 0.1875 0.1875
v 0.057940625 0.875 0.1875
v 0.151690625 0.1875 0.11588125
v 0.151690625 0.875 0.11588125
v 0.1875 0.1875 0
v 0.1875 0.875 0
v 0.151690625 0.1875 -0.11588125
v 0.151690625 0.875 -0.11588125
v 0.057940625 0.1875 -0.1875
v 0.057940625 0.875 -0.1875
v -0.057940625 0.1875 -0.1875
v -0.057940625 0.875 -0.1875
v -0.151690625 0.1875 -0.11588125
v -0.151690625 0.875 -0.11588125
v -0.1875 0.1875 0
v -0.1875 0.875 0
v -0.151690625 0.1875 0.11588125
v -0.151690625 0.875 0.11588125
v -0.057940625 0.1875 0.1875
v -0.057940625 0.875 0.1875
v -0.03125000000000013 0.8125 -1.0625
v -0.031249999999999868 0.8125 1.0625
v -0.03125000000000013 0.6875 -1.0625
v -0.031249999999999868 0.6875 1.0625
v 0.031249999999999868 0.8125 -1.0625
v 0.03125000000000013 0.8125 1.0625
v 0.031249999999999868 0.6875 -1.0625
v 0.03125000000000013 0.6875 1.0625
v -0.03125000000000013 0.5625 -1.0625
v -0.031249999999999868 0.5625 1.0625
v -0.03125000000000013 0.4375 -1.0625
v -0.031249999999999868 0.4375 1.0625
v 0.031249999999999868 0.5625 -1.0625
v 0.03125000000000013 0.5625 1.0625
v 0.031249999999999868 0.4375 -1.0625
v 0.03125000000000013 0.4375 1.0625
v 1.0625 0.5625 -0.031249999999999764
v -1.0625 0.5625 -0.031250000000000236
v 1.0625 0.4375 -0.031249999999999764
v -1.0625 0.4375 -0.031250000000000236
v 1.0625 0.5625 0.031250000000000236
v -1.0625 0.5625 0.031249999999999764
v 1.0625 0.4375 0.031250000000000236
v -1.0625 0.4375 0.031249999999999764
vt 0.30078125 0.984375
vt 0.16796875 0.984375
vt 0.16796875 0.9765625
vt 0.30078125 0.9765625
vt 0.1328125 0.74609375
vt 0.1328125 0.75390625
vt 0 0.75390625
vt 0 0.74609375
vt 0 0.44140625
vt 0.00390625 0.44140625
vt 0.00390625 0.57421875
vt 0 0.57421875
vt 0.01171875 0.42578125
vt 0.01171875 0.55859375
vt 0.0078125 0.55859375
vt 0.0078125 0.42578125
vt 0.015625 0.96484375
vt 0.015625 0.97265625
vt 0.01171875 0.97265625
vt 0.01171875 0.96484375
vt 0.03125 0.98828125
vt 0.02734375 0.98828125
vt 0.02734375 0.98046875
vt 0.03125 0.98046875
vt 0.021199609375 0.995523828125
vt 0.015340234375 1
vt 0.01171875 0.98828125
vt 0.098559375 0.83984375
vt 0.1059328125 0.83984375
vt 0.1059328125 0.8828125
vt 0.098559375 0.8828125
vt 0.2584501171875 0.73046875
vt 0.2721219921875 0.7409131640625
vt 0.25 0.7578125
vt 0.0234375 0.98828125
vt 0.021199609375 0.995523828125
vt 0.01171875 0.98828125
vt 0.1059328125 0.83984375
vt 0.11351328125 0.83984375
vt 0.11351328125 0.8828125
vt 0.1059328125 0.8828125
vt 0.2721219921875 0.7409131640625
vt 0.27734375 0.7578125
vt 0.25 0.7578125
vt 0.021199609375 0.981038671875
vt 0.0234375 0.98828125
vt 0.01171875 0.98828125
vt 0.11351328125 0.83984375
vt 0.12109375 0.83984375
vt 0.12109375 0.8828125
vt 0.11351328125 0.8828125
vt 0.27734375 0.7578125
vt 0.2721219921875 0.7747118359375
vt 0.25 0.7578125
vt 0.015340234375 0.9765625
vt 0.021199609375 0.981038671875
vt 0.01171875 0.98828125
vt 0.22265625 0.85546875
vt 0.23046875 0.85546875
vt 0.23046875 0.8984375
vt 0.22265625 0.8984375
vt 0.2721219921875 0.7747118359375
vt 0.2584501171875 0.78515625
vt 0.25 0.7578125
vt 0.008097265625 0.9765625
vt 0.015340234375 0.9765625
vt 0.01171875 0.98828125
vt 0 0.8125
vt 0.0078125 0.8125
vt 0.0078125 0.85546875
vt 0 0.85546875
vt 0.2584501171875 0.78515625
vt 0.2415498828125 0.78515625
vt 0.25 0.7578125
vt 0.002237890625 0.981038671875
vt 0.008097265625 0.9765625
vt 0.01171875 0.98828125
vt 0.22265625 0.90234375
vt 0.23046875 0.90234375
vt 0.23046875 0.9453125
vt 0.22265625 0.9453125
vt 0.2415498828125 0.78515625
vt 0.2278780078125 0.7747118359375
vt 0.25 0.7578125
vt 0 0.98828125
vt 0.002237890625 0.981038671875
vt 0.01171875 0.98828125
vt 0.0703125 0.83984375
vt 0.07789296875 0.83984375
vt 0.07789296875 0.8828125
vt 0.0703125 0.8828125
vt 0.2278780078125 0.7747118359375
vt 0.22265625 0.7578125
vt 0.25 0.7578125
vt 0.002237890625 0.995523828125
vt 0 0.98828125
vt 0.01171875 0.98828125
vt 0.07789296875 0.83984375
vt 0.0854734375 0.83984375
vt 0.0854734375 0.8828125
vt 0.07789296875 0.8828125
vt 0.22265625 0.7578125
vt 0.2278780078125 0.7409131640625
vt 0.25 0.7578125
vt 0.008097265625 1
vt 0.002237890625 0.995523828125
vt 0.01171875 0.98828125
vt 0.0854734375 0.83984375
vt 0.092846875 0.83984375
vt 0.092846875 0.8828125
vt 0.0854734375 0.8828125
vt 0.2278780078125 0.7409131640625
vt 0.2415498828125 0.73046875
vt 0.25 0.7578125
vt 0.015340234375 1
vt 0.008097265625 1
vt 0.01171875 0.98828125
vt 0.1328125 0.765625
vt 0.140625 0.765625
vt 0.140625 0.80859375
vt 0.1328125 0.80859375
vt 0.2415498828125 0.73046875
vt 0.2584501171875 0.73046875
vt 0.25 0.7578125
vt 0.578125 0.98828125
vt 0.4453125 0.98828125
vt 0.4453125 0.98046875
vt 0.578125 0.98046875
vt 0.578125 0.82421875
vt 0.578125 0.83203125
vt 0.4453125 0.83203125
vt 0.4453125 0.82421875
vt 0.15234375 0.40234375
vt 0.15625 0.40234375
vt 0.15625 0.53515625
vt 0.15234375 0.53515625
vt 0.171875 0.40234375
vt 0.171875 0.53515625
vt 0.16796875 0.53515625
vt 0.16796875 0.40234375
vt 0.03125 0.8984375
vt 0.03125 0.90625
vt 0.02734375 0.90625
vt 0.02734375 0.8984375
vt 0.03125 0.89453125
vt 0.02734375 0.89453125
vt 0.02734375 0.88671875
vt 0.03125 0.88671875
vt 0.30859375 0.55859375
vt 0.17578125 0.55859375
vt 0.17578125 0.55078125
vt 0.30859375 0.55078125
vt 0.4453125 0.55078125
vt 0.4453125 0.55859375
vt 0.3125 0.55859375
vt 0.3125 0.55078125
vt 0.16015625 0.40625
vt 0.1640625 0.40625
vt 0.1640625 0.5390625
vt 0.16015625 0.5390625
vt 0.03515625 0.40234375
vt 0.03515625 0.53515625
vt 0.03125 0.53515625
vt 0.03125 0.40234375
vt 0.05859375 0.9375
vt 0.05859375 0.9453125
vt 0.0546875 0.9453125
vt 0.0546875 0.9375
vt 0.03125 0.91796875
vt 0.02734375 0.91796875
vt 0.02734375 0.91015625
vt 0.03125 0.91015625
vt 0.1328125 0.7421875
vt 0 0.7421875
vt 0 0.734375
vt 0.1328125 0.734375
vt 0.1328125 0.72265625
vt 0.1328125 0.73046875
vt 0 0.73046875
vt 0 0.72265625
vt 0.015625 0.4140625
vt 0.01953125 0.4140625
vt 0.01953125 0.546875
vt 0.015625 0.546875
vt 0.02734375 0.40625
vt 0.02734375 0.5390625
vt 0.0234375 0.5390625
vt 0.0234375 0.40625
vt 0.05078125 0.94140625
vt 0.05078125 0.94921875
vt 0.046875 0.94921875
vt 0.046875 0.94140625
vt 0.05859375 0.95703125
vt 0.0546875 0.95703125
vt 0.0546875 0.94921875
vt 0.05859375 0.94921875
vn 2.220446049250313e-16 0 -1
vn -2.220446049250313e-16 0 1
vn 0 1 0
vn 0 -1 0
vn 1 0 2.220446049250313e-16
vn -1 0 -2.220446049250313e-16
vn 0 -1 0
vn 0.607062655988695 0 0.7946539697905948
vn 0 1 0
vn 0 -1 0
vn 0.9554223319964855 0 0.2952425570990704
vn 0 1 0
vn 0 -1 0
vn 0.9554223319964855 0 -0.2952425570990704
vn 0 1 0
vn 0 -1 0
vn 0.607062655988695 0 -0.7946539697905948
vn 0 1 0
vn 0 -1 0
vn 2.220446049250313e-16 0 -1
vn 0 1 0
vn 0 -1 0
vn -0.607062655988695 0 -0.7946539697905948
vn 0 1 0
vn 0 -1 0
vn -0.9554223319964855 0 -0.2952425570990704
vn 0 1 0
vn 0 -1 0
vn -0.9554223319964855 0 0.2952425570990704
vn 0 1 0
vn 0 -1 0
vn -0.607062655988695 0 0.7946539697905948
vn 0 1 0
vn 0 -1 0
vn -2.220446049250313e-16 0 1
vn 0 1 0
vn -1 0 1.240837498110469e-16
vn 1 0 -1.240837498110469e-16
vn 0 1 0
vn 0 -1 0
vn 2.220446049250313e-16 0 -1
vn -2.220446049250313e-16 0 1
vn -1 0 1.240837498110469e-16
vn 1 0 -1.240837498110469e-16
vn 0 1 0
vn 0 -1 0
vn 2.220446049250313e-16 0 -1
vn -2.220446049250313e-16 0 1
vn 2.220446049250313e-16 0 -1
vn -2.220446049250313e-16 0 1
vn 0 1 0
vn 0 -1 0
vn 1 0 2.220446049250313e-16
vn -1 0 -2.220446049250313e-16
usemtl m_df0e7cd4-f989-881a-978d-2e378ac5f9a2
f 2/1/1 1/2/1 3/3/1 4/4/1
f 7/5/2 5/6/2 6/7/2 8/8/2
f 5/9/3 1/10/3 2/11/3 6/12/3
f 4/13/4 3/14/4 7/15/4 8/16/4
f 3/17/5 1/18/5 5/19/5 7/20/5
f 6/21/6 2/22/6 4/23/6 8/24/6
f 13/25/7 11/26/7 9/27/7
f 11/28/8 13/29/8 14/30/8 12/31/8
f 12/32/9 14/33/9 10/34/9
f 15/35/10 13/36/10 9/37/10
f 13/38/11 15/39/11 16/40/11 14/41/11
f 14/42/12 16/43/12 10/44/12
f 17/45/13 15/46/13 9/47/13
f 15/48/14 17/49/14 18/50/14 16/51/14
f 16/52/15 18/53/15 10/54/15
f 19/55/16 17/56/16 9/57/16
f 17/58/17 19/59/17 20/60/17 18/61/17
f 18/62/18 20/63/18 10/64/18
f 21/65/19 19/66/19 9/67/19
f 19/68/20 21/69/20 22/70/20 20/71/20
f 20/72/21 22/73/21 10/74/21
f 23/75/22 21/76/22 9/77/22
f 21/78/23 23/79/23 24/80/23 22/81/23
f 22/82/24 24/83/24 10/84/24
f 25/85/25 23/86/25 9/87/25
f 23/88/26 25/89/26 26/90/26 24/91/26
f 24/92/27 26/93/27 10/94/27
f 27/95/28 25/96/28 9/97/28
f 25/98/29 27/99/29 28/100/29 26/101/29
f 26/102/30 28/103/30 10/104/30
f 29/105/31 27/106/31 9/107/31
f 27/108/32 29/109/32 30/110/32 28/111/32
f 28/112/33 30/113/33 10/114/33
f 11/115/34 29/116/34 9/117/34
f 29/118/35 11/119/35 12/120/35 30/121/35
f 30/122/36 12/123/36 10/124/36
f 32/125/37 31/126/37 33/127/37 34/128/37
f 37/129/38 35/130/38 36/131/38 38/132/38
f 35/133/39 31/134/39 32/135/39 36/136/39
f 34/137/40 33/138/40 37/139/40 38/140/40
f 33/141/41 31/142/41 35/143/41 37/144/41
f 36/145/42 32/146/42 34/147/42 38/148/42
f 40/149/43 39/150/43 41/151/43 42/152/43
f 45/153/44 43/154/44 44/155/44 46/156/44
f 43/157/45 39/158/45 40/159/45 44/160/45
f 42/161/46 41/162/46 45/163/46 46/164/46
f 41/165/47 39/166/47 43/167/47 45/168/47
f 44/169/48 40/170/48 42/171/48 46/172/48
f 48/173/49 47/174/49 49/175/49 50/176/49
f 53/177/50 51/178/50 52/179/50 54/180/50
f 51/181/51 47/182/51 48/183/51 52/184/51
f 50/185/52 49/186/52 53/187/52 54/188/52
f 49/189/53 47/190/53 51/191/53 53/192/53
f 52/193/54 48/194/54 50/195/54 54/196/54