# Made in Blockbench 5.1.6
mtllib wire_carriage.mtl

o Куб.008
v -1.4514618749999997 1.82544625 -0.8678900000000004
v -1.4514618749999997 1.44172625 -1.2603737500000003
v -1.4514618749999997 1.44172625 -0.8678900000000004
v -1.0977068749999999 1.767973125 -1.2603737500000003
v -1.0977068749999999 1.44172625 -0.8678900000000003
v -1.0977068749999999 1.44172625 -1.2603737500000003
v -1.1667037499999997 1.767973125 -0.8678900000000003
v -1.1667037499999997 1.767973125 -1.2603737500000003
v -1.3056881249999999 1.82544625 -0.8678900000000004
v -1.3056881249999999 1.82544625 -1.2603737500000003
v -1.1667037499999997 1.44172625 -0.8678900000000003
v -1.3056881249999999 1.44172625 -0.8678900000000004
v -1.3056881249999999 1.44172625 -1.2603737500000003
v -1.4514618749999997 1.82544625 -1.2603737500000003
v -1.1714912499999999 1.72254625 -1.2800462500000003
v -1.3056881249999999 1.487153125 -1.2800462500000003
v -1.4186787499999998 1.78001875 -1.2800462500000003
v -1.1304899999999998 1.72254625 -1.2800462500000003
v -1.1304899999999998 1.487153125 -1.2800462500000003
v -1.1667037499999997 1.44172625 -1.2603737500000003
v -1.1667037499999997 1.487153125 -1.2800462500000003
v -1.4186787499999998 1.487153125 -1.2800462500000003
v -1.3104749999999998 1.78001875 -1.2800462500000003
v -1.0267581249999997 1.701123125 -0.9969250000000002
v -1.9361968749999998 1.74373125 -1.0395331250000004
v -1.9361968749999998 1.701123125 -0.9969250000000004
v -1.0267581249999997 1.74373125 -1.0395331250000002
v -1.9361968749999998 1.74373125 -1.0887318750000003
v -1.0267581249999997 1.74373125 -1.0887318750000001
v -1.9361968749999998 1.701123125 -1.1313400000000005
v -1.0267581249999997 1.47283625 -1.1287262500000002
v -1.9361968749999998 1.488431875 -1.1869300000000005
v -1.0267581249999997 1.488431875 -1.1869300000000003
v -1.0267581249999997 1.53103875 -1.2115287500000003
v -1.9361968749999998 1.53103875 -1.2115287500000005
v -1.0267581249999997 1.589243125 -1.1959337500000002
v -1.9361968749999998 1.589243125 -0.9323312500000004
v -1.0267581249999997 1.53103875 -0.9167350000000002
v -1.0267581249999997 1.589243125 -0.9323312500000002
v -1.9361968749999998 1.53103875 -0.9167350000000004
v -1.0267581249999997 1.488431875 -0.9413350000000003
v -1.9361968749999998 1.488431875 -0.9413350000000005
v -1.0267581249999997 1.47283625 -0.9995381250000003
v -1.9361968749999998 1.47283625 -1.1287262500000004
v -1.0267581249999997 1.701123125 -1.1313400000000002
v -1.9361968749999998 1.589243125 -1.1959337500000005
v -1.9361968749999998 1.47283625 -0.9995381250000005
v -1.8677712499999999 1.82544625 -0.8678900000000005
v -1.8677712499999999 1.44172625 -1.2603737500000005
v -1.8677712499999999 1.44172625 -0.8678900000000005
v -1.5140162499999998 1.82544625 -1.2603737500000005
v -1.5140162499999998 1.44172625 -0.8678900000000004
v -1.5140162499999998 1.44172625 -1.2603737500000005
v -1.6024549999999997 1.85994 -0.8678900000000004
v -1.6024549999999997 1.85994 -1.2603737500000005
v -1.7793318749999998 1.85994 -0.8678900000000005
v -1.6908931249999999 1.85994 -1.2603737500000005
v -1.7793318749999998 1.85994 -1.2603737500000005
v -1.6908931249999999 1.44172625 -0.8678900000000004
v -1.7793318749999998 1.44172625 -0.8678900000000005
v -1.7793318749999998 1.44172625 -1.2603737500000005
v -1.6908931249999999 1.85994 -0.8678900000000004
v -1.6024549999999997 1.44172625 -0.8678900000000004
v -1.8677712499999999 1.82544625 -1.2603737500000005
v -1.5467987499999998 1.79104 -1.2800462500000005
v -1.7793318749999998 1.487153125 -1.2800462500000005
v -1.7748062499999997 1.814513125 -1.2800462500000005
v -1.6069812499999998 1.814513125 -1.2800462500000005
v -1.5467987499999998 1.487153125 -1.2800462500000005
v -1.6024549999999997 1.44172625 -1.2603737500000005
v -1.6908931249999999 1.44172625 -1.2603737500000005
v -1.6024549999999997 1.487153125 -1.2800462500000005
v -1.6908931249999999 1.487153125 -1.2800462500000005
v -1.8349881249999997 1.487153125 -1.2800462500000005
v -1.8349881249999997 1.79104 -1.2800462500000005
v -1.6908931249999999 1.814513125 -1.2800462500000005
v -1.2766649999999997 1.779613125 -0.9062068750000003
v -1.6862899999999998 1.44205875 -0.9062068750000003
v -1.2766649999999997 1.44205875 -0.9062068750000003
v -1.6862899999999998 1.779613125 -0.9062068750000003
v -1.6862899999999998 1.44205875 -1.2220568750000005
v -1.6862899999999998 1.779613125 -1.2220568750000005
v -1.2766649999999997 1.44205875 -1.2220568750000003
v -1.2766649999999997 1.779613125 -1.2220568750000003
v -1.2273287499999999 1.458986875 -1.1262362500000003
v -1.3689531249999998 1.458986875 -1.2153812500000003
v -1.2273287499999999 1.458986875 -1.2153812500000003
v -1.3689531249999998 1.337493125 -1.1262362500000003
v -1.3689531249999998 1.458986875 -1.1262362500000003
v -1.2273287499999999 1.337493125 -1.1262362500000003
v -1.2273287499999999 1.337493125 -1.2153812500000003
v -1.3689531249999998 1.337493125 -1.2153812500000003
v -1.2708768749999997 1.27017875 -1.1262362500000003
v -1.2424968749999998 1.2908 -1.2153812500000003
v -1.2708768749999997 1.27017875 -1.2153812500000003
v -1.3254049999999997 1.27017875 -1.2153812500000003
v -1.3537849999999998 1.2908 -1.1262362500000003
v -1.3254049999999997 1.27017875 -1.1262362500000003
v -1.3537849999999998 1.2908 -1.2153812500000003
v -1.2424968749999998 1.2908 -1.1262362500000003
v -1.5939462499999997 1.458986875 -1.1262362500000005
v -1.7355699999999998 1.458986875 -1.2153812500000005
v -1.5939462499999997 1.458986875 -1.2153812500000005
v -1.7355699999999998 1.337493125 -1.1262362500000005
v -1.7355699999999998 1.458986875 -1.1262362500000005
v -1.5939462499999997 1.337493125 -1.1262362500000005
v -1.5939462499999997 1.337493125 -1.2153812500000005
v -1.7355699999999998 1.337493125 -1.2153812500000005
v -1.6374937499999997 1.27017875 -1.1262362500000005
v -1.6091137499999997 1.2908 -1.2153812500000005
v -1.6374937499999997 1.27017875 -1.2153812500000005
v -1.6920231249999997 1.27017875 -1.2153812500000005
v -1.7204018749999999 1.2908 -1.1262362500000005
v -1.6920231249999997 1.27017875 -1.1262362500000005
v -1.7204018749999999 1.2908 -1.2153812500000005
v -1.6091137499999997 1.2908 -1.1262362500000005
v -1.0977068749999999 1.767973125 -0.8678900000000003
v -1.5140162499999998 1.82544625 -0.8678900000000004
vt 0.2912484375 0.84375
vt 0.1931265625 0.7478203125
vt 0.2912484375 0.7478203125
vt 0.5412484375 0.765625
vt 0.4431265625 0.6840625
vt 0.5412484375 0.6840625
vt 0.3181265625 0.69158125
vt 0.4162484375 0.67433125
vt 0.4162484375 0.69158125
vt 0.3181265625 0.72918125
vt 0.4162484375 0.69158125
vt 0.4162484375 0.72918125
vt 0.3806265625 0.9774390625
vt 0.3806265625 0.94269375
vt 0.4787484375 0.94269375
vt 0.44015546875 0.890625
vt 0.51134453125 0.7946953125
vt 0.51134453125 0.8762578125
vt 0.3181265625 0.765625
vt 0.4162484375 0.72918125
vt 0.4162484375 0.765625
vt 0.646103125 0.7232546875
vt 0.6796515625 0.66440625
vt 0.7079 0.7376234374999999
vt 0.3320021875 0.6418346875000001
vt 0.32335546875 0.6291696875
vt 0.3336015625 0.62950375
vt 0.3137921875 0.6408625
vt 0.3233515625 0.57065625
vt 0.3233515625 0.6295046875
vt 0.33240625 0.5582796875
vt 0.3233515625 0.57065625
vt 0.31515625 0.5582796875
vt 0.3671515625 0.5582796875
vt 0.33240625 0.57065625
vt 0.33240625 0.5582796875
vt 0.3671515625 0.5582796875
vt 0.3954 0.57065625
vt 0.3671515625 0.57065625
vt 0.4049578125 0.6552296875
vt 0.3954 0.57065625
vt 0.4049578125 0.5593
vt 0.3671515625 0.65625
vt 0.3954 0.6438734374999999
vt 0.4035953125 0.65625
vt 0.33195484375 0.64302453125
vt 0.3683484375 0.6438734374999999
vt 0.3671515625 0.65625
vt 0.23086796875 0.9068109375
vt 0.00350703125 0.921875
vt 0.00350703125 0.9068109375
vt 0.3610375 0.30388906250000003
vt 0.3733375 0.53125
vt 0.3610375 0.53125
vt 0.00350703125 1
vt 0.23086796875 0.9849359375
vt 0.23086796875 1
vt 0.0473984375 0.8367359375
vt 0.0624625 0.609375
vt 0.0624625 0.8367359375
vt 0.77774296875 0.875
vt 0.55038203125 0.8873
vt 0.55038203125 0.875
vt 0.23086796875 0.9375734375
vt 0.00350703125 0.9526390625
vt 0.00350703125 0.9375734375
vt 0.00350703125 0.8745125
vt 0.23086796875 0.8594484375
vt 0.23086796875 0.8745125
vt 0.53475703125 0.465425
vt 0.76211796875 0.453125
vt 0.76211796875 0.465425
vt 0.0000375 0.609375
vt 0.0151015625 0.8367359375
vt 0.0000375 0.8367359375
vt 0.13163671875 0.4737234375
vt 0.13228984375 0.4166515625
vt 0.18138828125 0.445753125
vt 0.00350703125 0.9849359375
vt 0.23086796875 0.9526390625
vt 0.23086796875 0.9849359375
vt 0.23086796875 0.8745125
vt 0.00350703125 0.9068109375
vt 0.00350703125 0.8745125
vt 0.60326171875 0.523878125
vt 0.55351015625 0.5518484375
vt 0.55416328125 0.4947765625
vt 0.0473984375 0.8367359375
vt 0.0151015625 0.609375
vt 0.0473984375 0.609375
vt 0.3537484375 1
vt 0.2556265625 0.9040703125
vt 0.3537484375 0.9040703125
vt 0.1818734375 0.71875
vt 0.0837515625 0.6228203125
vt 0.1818734375 0.6228203125
vt 0.3181265625 0.8070484375
vt 0.4162484375 0.783315625
vt 0.4162484375 0.8070484375
vt 0.3181265625 0.8512671875
vt 0.4162484375 0.8291578125
vt 0.4162484375 0.8512671875
vt 0.0056265625 0.54421875
vt 0.0056265625 0.522109375
vt 0.1037484375 0.522109375
vt 0.3181265625 0.8291578125
vt 0.4162484375 0.8070484375
vt 0.4162484375 0.8291578125
vt 0.20578125 0.7101265625
vt 0.272109375 0.614196875
vt 0.272109375 0.71875
vt 0.3181265625 0.875
vt 0.4162484375 0.8512671875
vt 0.4162484375 0.875
vt 0.6358515625 0.8398240625
vt 0.693984375 0.7638521875
vt 0.692853125 0.8456928125000001
vt 0.10250765625 0.84240203125
vt 0.08897578125 0.82419875
vt 0.104021875 0.8300678125000001
vt 0.07941875 0.832800625
vt 0.0889765625 0.7482271875
vt 0.0889765625 0.8241990625
vt 0.102890625 0.735850625
vt 0.0889765625 0.7482271875
vt 0.08078125 0.735850625
vt 0.125 0.735850625
vt 0.102890625 0.7482271875
vt 0.102890625 0.735850625
vt 0.147109375 0.735850625
vt 0.125 0.7482271875
vt 0.125 0.735850625
vt 0.147109375 0.735850625
vt 0.1610234375 0.7482271875
vt 0.147109375 0.7482271875
vt 0.17058125 0.832800625
vt 0.1610234375 0.7482271875
vt 0.17058125 0.7368709375
vt 0.14952578125 0.84375
vt 0.1610234375 0.8241990625
vt 0.17058125 0.832800625
vt 0.125 0.842444375
vt 0.145978125 0.8300678125000001
vt 0.147109375 0.842444375
vt 0.125 0.842444375
vt 0.104021875 0.8300678125000001
vt 0.125 0.8300678125000001
vt 0.230890625 0.59375
vt 0.128484375 0.5093609375
vt 0.230890625 0.5093609375
vt 0.58635625 1
vt 0.50739375 0.9156109375
vt 0.58635625 0.9156109375
vt 0.527765625 0.65625
vt 0.425359375 0.5718609375
vt 0.527765625 0.5718609375
vt 0.08635625 0.484375
vt 0.00739375 0.3999859375
vt 0.08635625 0.3999859375
vt 0.50823125 0.4375
vt 0.42926875 0.53990625
vt 0.42926875 0.4375
vt 0.25739375 0.53125
vt 0.33635625 0.42884374999999997
vt 0.33635625 0.53125
vt 0.48885703125 0.41040468750000003
vt 0.51114296875 0.375
vt 0.51114296875 0.41040468750000003
vt 0.20760703125 0.4540015625
vt 0.22989296875 0.484375
vt 0.20760703125 0.484375
vt 0.56823515625 0.7508765625
vt 0.60363984375 0.78125
vt 0.56823515625 0.78125
vt 0.25448203125 0.5633765625
vt 0.27676796875 0.59375
vt 0.25448203125 0.59375
vt 0.57238984375 0.4375
vt 0.53698515625 0.4071265625
vt 0.53698515625 0.4375
vt 0.32364296875 0.39747968749999996
vt 0.30135703125 0.40625
vt 0.30135703125 0.39747968749999996
vt 0.62051796875 0.5849796875
vt 0.59823203125 0.59375
vt 0.59823203125 0.5849796875
vt 0.20760703125 0.441728125
vt 0.22989296875 0.4540015625
vt 0.20760703125 0.4540015625
vt 0.56150390625 0.39029843750000004
vt 0.54077578125 0.39545312499999996
vt 0.57238984375 0.4071265625
vt 0.27676796875 0.8613671875
vt 0.25448203125 0.875
vt 0.25448203125 0.8613671875
vt 0.25448203125 0.5511015625
vt 0.27676796875 0.5633765625
vt 0.25448203125 0.5633765625
vt 0.57202734375 0.739203125
vt 0.59275390625 0.7340484375
vt 0.60363984375 0.7508765625
vt 0.44198203125 0.41040625
vt 0.46426796875 0.375
vt 0.46426796875 0.41040625
vt 0.20760703125 0.3915015625
vt 0.22989296875 0.421875
vt 0.20760703125 0.421875
vt 0.552609375 0.8290015625
vt 0.588015625 0.859375
vt 0.552609375 0.859375
vt 0.39510703125 0.3915015625
vt 0.41739296875 0.421875
vt 0.39510703125 0.421875
vt 0.588015625 0.65625
vt 0.552609375 0.6258765625
vt 0.552609375 0.65625
vt 0.62051796875 0.42872968749999996
vt 0.59823203125 0.4375
vt 0.59823203125 0.42872968749999996
vt 0.27676796875 0.39747968749999996
vt 0.25448203125 0.40625
vt 0.25448203125 0.39747968749999996
vt 0.20760703125 0.379228125
vt 0.22989296875 0.3915015625
vt 0.20760703125 0.3915015625
vt 0.577128125 0.6090484375
vt 0.5564015625 0.614203125
vt 0.588015625 0.6258765625
vt 0.58926796875 0.6894921875
vt 0.56698203125 0.703125
vt 0.56698203125 0.6894921875
vt 0.39510703125 0.379228125
vt 0.41739296875 0.3915015625
vt 0.39510703125 0.3915015625
vt 0.5564015625 0.817328125
vt 0.5771296875 0.8121734375
vt 0.588015625 0.8290015625
vt 0.2912484375 0.84375
vt 0.1931265625 0.84375
vt 0.1931265625 0.7478203125
vt 0.5412484375 0.765625
vt 0.4431265625 0.765625
vt 0.4431265625 0.6840625
vt 0.3181265625 0.69158125
vt 0.3181265625 0.67433125
vt 0.4162484375 0.67433125
vt 0.3181265625 0.72918125
vt 0.3181265625 0.69158125
vt 0.4162484375 0.69158125
vt 0.4787484375 0.9774390625
vt 0.4787484375 0.9946890625
vt 0.3806265625 0.9946890625
vt 0.4787484375 0.9774390625
vt 0.3806265625 0.9946890625
vt 0.3806265625 0.9774390625
vt 0.3806265625 0.90625
vt 0.4787484375 0.90625
vt 0.4787484375 0.94269375
vt 0.4787484375 0.94269375
vt 0.4787484375 0.9774390625
vt 0.3806265625 0.9774390625
vt 0.3806265625 0.94269375
vt 0.3806265625 0.90625
vt 0.4787484375 0.94269375
vt 0.51134453125 0.8762578125
vt 0.47659921875 0.890625
vt 0.44015546875 0.890625
vt 0.44015546875 0.890625
vt 0.44015546875 0.7946953125
vt 0.47659921875 0.7946953125
vt 0.51134453125 0.7946953125
vt 0.52859453125 0.7946953125
vt 0.52859453125 0.8762578125
vt 0.44015546875 0.890625
vt 0.47659921875 0.7946953125
vt 0.51134453125 0.7946953125
vt 0.51134453125 0.7946953125
vt 0.52859453125 0.8762578125
vt 0.51134453125 0.8762578125
vt 0.3181265625 0.765625
vt 0.3181265625 0.72918125
vt 0.4162484375 0.72918125
vt 0.646103125 0.7232546875
vt 0.6358515625 0.7232546875
vt 0.6358515625 0.66440625
vt 0.646103125 0.7232546875
vt 0.6358515625 0.66440625
vt 0.64490625 0.66440625
vt 0.7079 0.7376234374999999
vt 0.6808484375 0.7376234374999999
vt 0.646103125 0.7232546875
vt 0.6796515625 0.66440625
vt 0.7079 0.66440625
vt 0.7079 0.7376234374999999
vt 0.646103125 0.7232546875
vt 0.64490625 0.66440625
vt 0.6796515625 0.66440625
vt 0.3320021875 0.6418346875000001
vt 0.31476125 0.64127265625
vt 0.32335546875 0.6291696875
vt 0.3137921875 0.6408625
vt 0.3137921875 0.5593
vt 0.3233515625 0.57065625
vt 0.33240625 0.5582796875
vt 0.33240625 0.57065625
vt 0.3233515625 0.57065625
vt 0.3671515625 0.5582796875
vt 0.3671515625 0.57065625
vt 0.33240625 0.57065625
vt 0.3671515625 0.5582796875
vt 0.4035953125 0.5582796875
vt 0.3954 0.57065625
vt 0.4049578125 0.6552296875
vt 0.3954 0.6438734374999999
vt 0.3954 0.57065625
vt 0.3671515625 0.65625
vt 0.3683484375 0.6438734374999999
vt 0.3954 0.6438734374999999
vt 0.3320021875 0.6418346875000001
vt 0.3336015625 0.6295040625
vt 0.3683484375 0.6438734374999999
vt 0.23086796875 0.9068109375
vt 0.23086796875 0.921875
vt 0.00350703125 0.921875
vt 0.3610375 0.30388906250000003
vt 0.3733375 0.30388906250000003
vt 0.3733375 0.53125
vt 0.00350703125 1
vt 0.00350703125 0.9849359375
vt 0.23086796875 0.9849359375
vt 0.0473984375 0.8367359375
vt 0.0473984375 0.609375
vt 0.0624625 0.609375
vt 0.77774296875 0.875
vt 0.77774296875 0.8873
vt 0.55038203125 0.8873
vt 0.23086796875 0.9375734375
vt 0.23086796875 0.9526390625
vt 0.00350703125 0.9526390625
vt 0.00350703125 0.8745125
vt 0.00350703125 0.8594484375
vt 0.23086796875 0.8594484375
vt 0.53475703125 0.465425
vt 0.53475703125 0.453125
vt 0.76211796875 0.453125
vt 0.0000375 0.609375
vt 0.0151015625 0.609375
vt 0.0151015625 0.8367359375
vt 0.18138828125 0.445753125
vt 0.16523984375 0.4737234375
vt 0.15458828125 0.484375
vt 0.15458828125 0.484375
vt 0.14228828125 0.484375
vt 0.13163671875 0.4737234375
vt 0.13163671875 0.4737234375
vt 0.11548828125 0.445753125
vt 0.11158828125 0.43120156249999997
vt 0.11158828125 0.43120156249999997
vt 0.11773828125 0.42055
vt 0.13228984375 0.4166515625
vt 0.13228984375 0.4166515625
vt 0.16458671875 0.4166515625
vt 0.17913671875 0.42055
vt 0.17913671875 0.42055
vt 0.18528671875 0.43120156249999997
vt 0.18138828125 0.445753125
vt 0.18138828125 0.445753125
vt 0.15458828125 0.484375
vt 0.13163671875 0.4737234375
vt 0.13163671875 0.4737234375
vt 0.11158828125 0.43120156249999997
vt 0.13228984375 0.4166515625
vt 0.13228984375 0.4166515625
vt 0.17913671875 0.42055
vt 0.18138828125 0.445753125
vt 0.00350703125 0.9849359375
vt 0.00350703125 0.9526390625
vt 0.23086796875 0.9526390625
vt 0.23086796875 0.8745125
vt 0.23086796875 0.9068109375
vt 0.00350703125 0.9068109375
vt 0.55416328125 0.4947765625
vt 0.58646015625 0.4947765625
vt 0.60101171875 0.498675
vt 0.60101171875 0.498675
vt 0.60716171875 0.5093265625000001
vt 0.60326171875 0.523878125
vt 0.60326171875 0.523878125
vt 0.58711328125 0.5518484375
vt 0.57646171875 0.5625
vt 0.57646171875 0.5625
vt 0.56416171875 0.5625
vt 0.55351015625 0.5518484375
vt 0.55351015625 0.5518484375
vt 0.53736171875 0.523878125
vt 0.53346328125 0.5093265625000001
vt 0.53346328125 0.5093265625000001
vt 0.53961328125 0.498675
vt 0.55416328125 0.4947765625
vt 0.55416328125 0.4947765625
vt 0.60101171875 0.498675
vt 0.60326171875 0.523878125
vt 0.60326171875 0.523878125
vt 0.57646171875 0.5625
vt 0.55351015625 0.5518484375
vt 0.55351015625 0.5518484375
vt 0.53346328125 0.5093265625000001
vt 0.55416328125 0.4947765625
vt 0.0473984375 0.8367359375
vt 0.0151015625 0.8367359375
vt 0.0151015625 0.609375
vt 0.3537484375 1
vt 0.2556265625 1
vt 0.2556265625 0.9040703125
vt 0.1818734375 0.71875
vt 0.0837515625 0.71875
vt 0.0837515625 0.6228203125
vt 0.3181265625 0.8070484375
vt 0.3181265625 0.783315625
vt 0.4162484375 0.783315625
vt 0.3181265625 0.8512671875
vt 0.3181265625 0.8291578125
vt 0.4162484375 0.8291578125
vt 0.1037484375 0.5663281250000001
vt 0.1037484375 0.5884375
vt 0.0056265625 0.5884375
vt 0.1037484375 0.5663281250000001
vt 0.0056265625 0.5884375
vt 0.0056265625 0.5663281250000001
vt 0.1037484375 0.54421875
vt 0.1037484375 0.5663281250000001
vt 0.0056265625 0.5663281250000001
vt 0.1037484375 0.54421875
vt 0.0056265625 0.5663281250000001
vt 0.0056265625 0.54421875
vt 0.0056265625 0.5
vt 0.1037484375 0.5
vt 0.1037484375 0.522109375
vt 0.1037484375 0.522109375
vt 0.1037484375 0.54421875
vt 0.0056265625 0.54421875
vt 0.0056265625 0.522109375
vt 0.0056265625 0.5
vt 0.1037484375 0.522109375
vt 0.3181265625 0.8291578125
vt 0.3181265625 0.8070484375
vt 0.4162484375 0.8070484375
vt 0.25 0.71875
vt 0.227890625 0.71875
vt 0.20578125 0.7101265625
vt 0.20578125 0.7101265625
vt 0.20578125 0.614196875
vt 0.227890625 0.614196875
vt 0.20578125 0.7101265625
vt 0.227890625 0.614196875
vt 0.25 0.614196875
vt 0.272109375 0.71875
vt 0.25 0.71875
vt 0.20578125 0.7101265625
vt 0.29421875 0.614196875
vt 0.29421875 0.7101265625
vt 0.272109375 0.71875
vt 0.20578125 0.7101265625
vt 0.25 0.614196875
vt 0.272109375 0.614196875
vt 0.272109375 0.614196875
vt 0.29421875 0.614196875
vt 0.272109375 0.71875
vt 0.3181265625 0.875
vt 0.3181265625 0.8512671875
vt 0.4162484375 0.8512671875
vt 0.671875 0.8456928125000001
vt 0.650896875 0.8456928125000001
vt 0.6358515625 0.8398240625
vt 0.6358515625 0.8398240625
vt 0.6358515625 0.7638521875
vt 0.649765625 0.7638521875
vt 0.6358515625 0.8398240625
vt 0.649765625 0.7638521875
vt 0.671875 0.7638521875
vt 0.692853125 0.8456928125000001
vt 0.671875 0.8456928125000001
vt 0.6358515625 0.8398240625
vt 0.7078984375 0.7638521875
vt 0.7078984375 0.8398240625
vt 0.692853125 0.8456928125000001
vt 0.6358515625 0.8398240625
vt 0.671875 0.7638521875
vt 0.693984375 0.7638521875
vt 0.693984375 0.7638521875
vt 0.7078984375 0.7638521875
vt 0.692853125 0.8456928125000001
vt 0.10250765625 0.84240203125
vt 0.08039953125 0.8337796875
vt 0.08897625 0.82419953125
vt 0.07941875 0.832800625
vt 0.07941875 0.7368709375
vt 0.0889765625 0.7482271875
vt 0.102890625 0.735850625
vt 0.102890625 0.7482271875
vt 0.0889765625 0.7482271875
vt 0.125 0.735850625
vt 0.125 0.7482271875
vt 0.102890625 0.7482271875
vt 0.147109375 0.735850625
vt 0.147109375 0.7482271875
vt 0.125 0.7482271875
vt 0.147109375 0.735850625
vt 0.16921875 0.735850625
vt 0.1610234375 0.7482271875
vt 0.17058125 0.832800625
vt 0.1610234375 0.8241990625
vt 0.1610234375 0.7482271875
vt 0.147490625 0.84240234375
vt 0.145978125 0.83006796875
vt 0.1610234375 0.8241990625
vt 0.125 0.842444375
vt 0.125 0.8300678125000001
vt 0.145978125 0.8300678125000001
vt 0.125 0.842444375
vt 0.102890625 0.842444375
vt 0.104021875 0.8300678125000001
vt 0.230890625 0.59375
vt 0.128484375 0.59375
vt 0.128484375 0.5093609375
vt 0.58635625 1
vt 0.50739375 1
vt 0.50739375 0.9156109375
vt 0.527765625 0.65625
vt 0.425359375 0.65625
vt 0.425359375 0.5718609375
vt 0.08635625 0.484375
vt 0.00739375 0.484375
vt 0.00739375 0.3999859375
vt 0.50823125 0.4375
vt 0.50823125 0.53990625
vt 0.42926875 0.53990625
vt 0.25739375 0.53125
vt 0.25739375 0.42884374999999997
vt 0.33635625 0.42884374999999997
vt 0.48885703125 0.41040468750000003
vt 0.48885703125 0.375
vt 0.51114296875 0.375
vt 0.20760703125 0.4540015625
vt 0.22989296875 0.4540015625
vt 0.22989296875 0.484375
vt 0.56823515625 0.7508765625
vt 0.60363984375 0.7508765625
vt 0.60363984375 0.78125
vt 0.25448203125 0.5633765625
vt 0.27676796875 0.5633765625
vt 0.27676796875 0.59375
vt 0.57238984375 0.4071265625
vt 0.53698515625 0.4071265625
vt 0.57238984375 0.4375
vt 0.32364296875 0.39747968749999996
vt 0.32364296875 0.40625
vt 0.30135703125 0.40625
vt 0.62051796875 0.5849796875
vt 0.62051796875 0.59375
vt 0.59823203125 0.59375
vt 0.20760703125 0.441728125
vt 0.22989296875 0.441728125
vt 0.22989296875 0.4540015625
vt 0.53698515625 0.4071265625
vt 0.57238984375 0.4071265625
vt 0.54077578125 0.39545312499999996
vt 0.54787109375 0.39029843750000004
vt 0.54077578125 0.39545312499999996
vt 0.56150390625 0.39029843750000004
vt 0.56859765625 0.39545312499999996
vt 0.56150390625 0.39029843750000004
vt 0.57238984375 0.4071265625
vt 0.27676796875 0.8613671875
vt 0.27676796875 0.875
vt 0.25448203125 0.875
vt 0.25448203125 0.5511015625
vt 0.27676796875 0.5511015625
vt 0.27676796875 0.5633765625
vt 0.60363984375 0.7508765625
vt 0.56823515625 0.7508765625
vt 0.57202734375 0.739203125
vt 0.57202734375 0.739203125
vt 0.57912109375 0.7340484375
vt 0.59275390625 0.7340484375
vt 0.59275390625 0.7340484375
vt 0.59984921875 0.739203125
vt 0.60363984375 0.7508765625
vt 0.44198203125 0.41040625
vt 0.44198203125 0.375
vt 0.46426796875 0.375
vt 0.20760703125 0.3915015625
vt 0.22989296875 0.3915015625
vt 0.22989296875 0.421875
vt 0.552609375 0.8290015625
vt 0.588015625 0.8290015625
vt 0.588015625 0.859375
vt 0.39510703125 0.3915015625
vt 0.41739296875 0.3915015625
vt 0.41739296875 0.421875
vt 0.588015625 0.6258765625
vt 0.552609375 0.6258765625
vt 0.588015625 0.65625
vt 0.62051796875 0.42872968749999996
vt 0.62051796875 0.4375
vt 0.59823203125 0.4375
vt 0.27676796875 0.39747968749999996
vt 0.27676796875 0.40625
vt 0.25448203125 0.40625
vt 0.20760703125 0.379228125
vt 0.22989296875 0.379228125
vt 0.22989296875 0.3915015625
vt 0.552609375 0.6258765625
vt 0.588015625 0.6258765625
vt 0.5564015625 0.614203125
vt 0.5634953125 0.6090484375
vt 0.5564015625 0.614203125
vt 0.577128125 0.6090484375
vt 0.5842234375 0.614203125
vt 0.577128125 0.6090484375
vt 0.588015625 0.6258765625
vt 0.58926796875 0.6894921875
vt 0.58926796875 0.703125
vt 0.56698203125 0.703125
vt 0.39510703125 0.379228125
vt 0.41739296875 0.379228125
vt 0.41739296875 0.3915015625
vt 0.588015625 0.8290015625
vt 0.552609375 0.8290015625
vt 0.5564015625 0.817328125
vt 0.5564015625 0.817328125
vt 0.563496875 0.8121734375
vt 0.5771296875 0.8121734375
vt 0.5771296875 0.8121734375
vt 0.5842234375 0.817328125
vt 0.588015625 0.8290015625
vn -1 0 -2.220446049250313e-16
vn 1 0 2.220446049250313e-16
vn 0 1 0
vn 0.38213804035835996 0.9241052527234508 8.485169019819771e-17
vn 0 -1 0
vn -2.220446049250313e-16 0 1
vn 0 1 0
vn 2.220446049250313e-16 0 -1
vn 2.0375869181042653e-16 0.39739519373787857 -0.9176475685109367
vn 0.5145462387096733 0 -0.8574626337221511
vn 2.0375869181042655e-16 -0.39739519373787857 -0.9176475685109368
vn 2.037586918104265e-16 -0.39739519373787857 -0.9176475685109365
vn 2.0375869181042655e-16 -0.3973951937378786 -0.9176475685109368
vn -0.5145462387096729 0 -0.8574626337221515
vn 2.037591345220986e-16 0.3973905897195663 -0.9176495623070581
vn 0.1565408402218754 0.37855486090607054 -0.9122451329697598
vn -1.5700924586837732e-16 0.7071067811865485 0.7071067811865467
vn 0 1 0
vn 1.570092458683771e-16 0.7071067811865493 -0.7071067811865457
vn 5.746929419697875e-17 -0.9659259209210874 -0.2588186919307589
vn 1.9229693456694729e-16 -0.4999948054124409 -0.8660284028601924
vn 2.1447936952791273e-16 0.2588064215007174 -0.9659292086845667
vn -2.1447821800081775e-16 0.2588257762157752 0.9659240226675708
vn -1.922944916816331e-16 -0.5000138608296669 0.8660174010828018
vn -5.746986997721084e-17 -0.9659252261037062 0.2588212850143976
vn -1 0 -2.220446049250313e-16
vn 1.9229641608689423e-16 0.4999988498313177 -0.8660260678336187
vn -1.9229641608689423e-16 0.4999988498313177 0.8660260678336187
vn 1 0 2.220446049250313e-16
vn 0 -1 0
vn -1 0 -2.220446049250313e-16
vn 1 0 2.220446049250313e-16
vn 0.36336939264467705 0.9316451494474915 8.068421323163589e-17
vn 0 1 0
vn 0 -1 0
vn 0 1 0
vn -2.220446049250313e-16 0 1
vn -0.3633671637766316 0.9316460187694288 -8.068371832351131e-17
vn 2.220446049250313e-16 0 -1
vn 0.14840945167709949 0.3805054429504823 -0.912792551754209
vn 0.5145534512702583 0 -0.8574583055670207
vn 2.0375869181042653e-16 -0.3973951937378786 -0.9176475685109367
vn 2.0375869181042653e-16 -0.3973951937378786 -0.9176475685109367
vn 2.0375869181042653e-16 -0.3973951937378786 -0.9176475685109367
vn 2.0375869181042653e-16 -0.39739519373787857 -0.9176475685109367
vn -0.5145462387096703 0 -0.8574626337221529
vn -0.148406688459299 0.38050356291096654 -0.9127937847250085
vn 2.0375869181042653e-16 0.3973951937378786 -0.9176475685109367
vn 2.0375869181042653e-16 0.3973951937378786 -0.9176475685109367
vn -2.220446049250313e-16 0 1
vn -1 0 -2.220446049250313e-16
vn 2.220446049250313e-16 0 -1
vn 1 0 2.220446049250313e-16
vn 0 -1 0
vn 0 1 0
vn 0 -1 0
vn 1 0 2.220446049250313e-16
vn 2.220446049250313e-16 0 -1
vn -1 0 -2.220446049250313e-16
vn 2.220446049250313e-16 0 -1
vn -0.5878220633456829 0.8089902482997086 -1.3052271782180888e-16
vn 0.58782206334568 0.8089902482997107 1.3052271782180824e-16
vn 0.9510768134001395 0.3089545193270951 2.111814752847917e-16
vn 2.220446049250313e-16 0 -1
vn 0 1 0
vn -0.9510768134001395 0.3089545193270951 -2.111814752847917e-16
vn 2.220446049250313e-16 0 -1
vn 0 -1 0
vn 1 0 2.220446049250313e-16
vn 2.220446049250313e-16 0 -1
vn -1 0 -2.220446049250313e-16
vn 2.220446049250313e-16 0 -1
vn -0.58782206334568 0.8089902482997107 -1.3052271782180824e-16
vn 0.5878390082566779 0.808977935652021 1.3052648034787626e-16
vn 0.9510768134001395 0.3089545193270951 2.111814752847917e-16
vn 2.220446049250313e-16 0 -1
vn 0 1 0
vn -0.9510805540446011 0.3089430039962304 -2.1118230587471334e-16
vn 2.220446049250313e-16 0 -1
vn -1 0 -2.220446049250313e-16
vn 1 0 2.220446049250313e-16
vn 0 1 0
vn 0.38213804035835996 0.9241052527234508 8.485169019819771e-17
vn 0 -1 0
vn 0 -1 0
vn 0 -1 0
vn 0 -1 0
vn 0 -1 0
vn -2.220446049250313e-16 0 1
vn -2.220446049250313e-16 0 1
vn -2.220446049250313e-16 0 1
vn -2.220446049250313e-16 0 1
vn -2.220446049250313e-16 0 1
vn 0 1 0
vn 2.220446049250313e-16 0 -1
vn 2.220446049250313e-16 0 -1
vn 2.220446049250313e-16 0 -1
vn 2.220446049250313e-16 0 -1
vn 2.220446049250313e-16 0 -1
vn 2.0375869181042655e-16 0.39739519373787857 -0.9176475685109368
vn 0.5145462387096733 0 -0.8574626337221511
vn 2.0375869181042655e-16 -0.3973951937378786 -0.9176475685109368
vn 2.037586918104265e-16 -0.39739519373787857 -0.9176475685109365
vn 2.0375869181042655e-16 -0.3973951937378786 -0.9176475685109368
vn -0.5145462387096729 0 -0.8574626337221513
vn 2.0375913452209864e-16 0.3973905897195665 -0.9176495623070582
vn 0.15654090825883277 0.3785574397880465 -0.912244051130299
vn -1.5700924586837732e-16 0.7071067811865485 0.7071067811865467
vn 0 1 0
vn 1.570092458683771e-16 0.7071067811865493 -0.7071067811865457
vn 5.746929419697875e-17 -0.9659259209210874 -0.2588186919307589
vn 1.9229693456694729e-16 -0.4999948054124409 -0.8660284028601924
vn 2.1447936952791273e-16 0.2588064215007174 -0.9659292086845667
vn -2.1447821800081775e-16 0.2588257762157752 0.9659240226675708
vn -1.922944916816331e-16 -0.5000138608296669 0.8660174010828018
vn -5.746986997721084e-17 -0.9659252261037062 0.2588212850143976
vn -1 0 -2.220446049250313e-16
vn -1 0 -2.220446049250313e-16
vn -1 0 -2.220446049250313e-16
vn -1 0 -2.220446049250313e-16
vn -1 0 -2.220446049250313e-16
vn -1 0 -2.220446049250313e-16
vn -1 0 -2.220446049250313e-16
vn -1 0 -2.220446049250313e-16
vn -1 0 -2.220446049250313e-16
vn 1.9229641608689423e-16 0.4999988498313177 -0.8660260678336187
vn -1.9229641608689423e-16 0.4999988498313177 0.8660260678336187
vn 1 0 2.220446049250313e-16
vn 1 0 2.220446049250313e-16
vn 1 0 2.220446049250313e-16
vn 1 0 2.220446049250313e-16
vn 1 0 2.220446049250313e-16
vn 1 0 2.220446049250313e-16
vn 1 0 2.220446049250313e-16
vn 1 0 2.220446049250313e-16
vn 1 0 2.220446049250313e-16
vn 0 -1 0
vn -1 0 -2.220446049250313e-16
vn 1 0 2.220446049250313e-16
vn 0.36336939264467705 0.9316451494474915 8.068421323163589e-17
vn 0 1 0
vn 0 -1 0
vn 0 -1 0
vn 0 -1 0
vn 0 -1 0
vn 0 -1 0
vn 0 -1 0
vn 0 -1 0
vn 0 1 0
vn -2.220446049250313e-16 0 1
vn -2.220446049250313e-16 0 1
vn -2.220446049250313e-16 0 1
vn -2.220446049250313e-16 0 1
vn -2.220446049250313e-16 0 1
vn -2.220446049250313e-16 0 1
vn -2.220446049250313e-16 0 1
vn -0.3633671637766316 0.9316460187694288 -8.068371832351131e-17
vn 2.220446049250313e-16 0 -1
vn 2.220446049250313e-16 0 -1
vn 2.220446049250313e-16 0 -1
vn 2.220446049250313e-16 0 -1
vn 2.220446049250313e-16 0 -1
vn 2.220446049250313e-16 0 -1
vn 2.220446049250313e-16 0 -1
vn 0.14840811610858357 0.38050453425614694 -0.9127931476975568
vn 0.5145534512702582 0 -0.8574583055670206
vn 2.0375869181042653e-16 -0.39739519373787857 -0.9176475685109367
vn 2.0375869181042653e-16 -0.3973951937378786 -0.9176475685109367
vn 2.0375869181042653e-16 -0.3973951937378786 -0.9176475685109367
vn 2.0375869181042653e-16 -0.39739519373787857 -0.9176475685109367
vn -0.5145462387096703 0 -0.8574626337221529
vn -0.14841154969328166 0.3805068703974179 -0.9127916155936147
vn 2.0375869181042655e-16 0.3973951937378786 -0.9176475685109368
vn 2.0375869181042653e-16 0.3973951937378786 -0.9176475685109367
vn -2.220446049250313e-16 0 1
vn -1 0 -2.220446049250313e-16
vn 2.220446049250313e-16 0 -1
vn 1 0 2.220446049250313e-16
vn 0 -1 0
vn 0 1 0
vn 0 -1 0
vn 1 0 2.220446049250313e-16
vn 2.220446049250313e-16 0 -1
vn -1 0 -2.220446049250313e-16
vn 2.220446049250313e-16 0 -1
vn -0.5878220633456829 0.8089902482997086 -1.3052271782180888e-16
vn 0.58782206334568 0.8089902482997107 1.3052271782180824e-16
vn 0.9510768134001395 0.3089545193270951 2.111814752847917e-16
vn 2.220446049250313e-16 0 -1
vn 2.220446049250313e-16 0 -1
vn 2.220446049250313e-16 0 -1
vn 0 1 0
vn -0.9510768134001395 0.3089545193270951 -2.111814752847917e-16
vn 2.220446049250313e-16 0 -1
vn 2.220446049250313e-16 0 -1
vn 2.220446049250313e-16 0 -1
vn 0 -1 0
vn 1 0 2.220446049250313e-16
vn 2.220446049250313e-16 0 -1
vn -1 0 -2.220446049250313e-16
vn 2.220446049250313e-16 0 -1
vn -0.58782206334568 0.8089902482997107 -1.3052271782180824e-16
vn 0.5878390082566779 0.808977935652021 1.3052648034787626e-16
vn 0.9510768134001395 0.3089545193270951 2.111814752847917e-16
vn 2.220446049250313e-16 0 -1
vn 2.220446049250313e-16 0 -1
vn 2.220446049250313e-16 0 -1
vn 0 1 0
vn -0.9510805540446011 0.3089430039962304 -2.1118230587471334e-16
vn 2.220446049250313e-16 0 -1
vn 2.220446049250313e-16 0 -1
vn 2.220446049250313e-16 0 -1
usemtl m_b55a4f51-f104-e618-3ab3-29c27f03235d
f 1/1/1 2/2/1 3/3/1
f 4/4/2 5/5/2 6/6/2
f 7/7/3 4/8/3 8/9/3
f 9/10/4 8/11/4 10/12/4
f 11/13/5 12/14/5 13/15/5
f 1/16/6 11/17/6 7/18/6
f 1/19/7 10/20/7 14/21/7
f 15/22/8 16/23/8 17/24/8
f 8/25/9 18/26/9 15/27/9
f 4/28/10 19/29/10 18/30/10
f 20/31/11 19/32/11 6/33/11
f 13/34/12 21/35/12 20/36/12
f 13/37/13 22/38/13 16/39/13
f 14/40/14 22/41/14 2/42/14
f 10/43/15 17/44/15 14/45/15
f 8/46/16 23/47/16 10/48/16
f 24/49/17 25/50/17 26/51/17
f 27/52/18 28/53/18 25/54/18
f 29/55/19 30/56/19 28/57/19
f 31/58/20 32/59/20 33/60/20
f 32/61/21 34/62/21 33/63/21
f 35/64/22 36/65/22 34/66/22
f 37/67/23 38/68/23 39/69/23
f 40/70/24 41/71/24 38/72/24
f 42/73/25 43/74/25 41/75/25
f 30/76/26 44/77/26 37/78/26
f 45/79/27 46/80/27 30/81/27
f 39/82/28 26/83/28 37/84/28
f 36/85/29 24/86/29 43/87/29
f 31/88/30 47/89/30 44/90/30
f 48/91/31 49/92/31 50/93/31
f 51/94/32 52/95/32 53/96/32
f 54/97/33 51/98/33 55/99/33
f 56/100/34 57/101/34 58/102/34
f 59/103/35 60/104/35 61/105/35
f 62/106/36 55/107/36 57/108/36
f 48/109/37 63/110/37 54/111/37
f 48/112/38 58/113/38 64/114/38
f 65/115/39 66/116/39 67/117/39
f 55/118/40 65/119/40 68/120/40
f 51/121/41 69/122/41 65/123/41
f 70/124/42 69/125/42 53/126/42
f 71/127/43 72/128/43 70/129/43
f 61/130/44 73/131/44 71/132/44
f 61/133/45 74/134/45 66/135/45
f 64/136/46 74/137/46 49/138/46
f 58/139/47 75/140/47 64/141/47
f 57/142/48 67/143/48 58/144/48
f 57/145/49 68/146/49 76/147/49
f 77/148/50 78/149/50 79/150/50
f 80/151/51 81/152/51 78/153/51
f 82/154/52 83/155/52 81/156/52
f 84/157/53 79/158/53 83/159/53
f 81/160/54 79/161/54 78/162/54
f 80/163/55 84/164/55 82/165/55
f 85/166/56 86/167/56 87/168/56
f 88/169/57 86/170/57 89/171/57
f 90/172/58 89/173/58 85/174/58
f 91/175/59 85/176/59 87/177/59
f 87/178/60 92/179/60 86/180/60
f 93/181/61 94/182/61 95/183/61
f 96/184/62 97/185/62 98/186/62
f 97/187/63 92/188/63 88/189/63
f 95/190/64 99/191/64 91/192/64
f 95/193/65 98/194/65 93/195/65
f 94/196/66 90/197/66 91/198/66
f 100/199/67 98/200/67 88/201/67
f 101/202/68 102/203/68 103/204/68
f 104/205/69 102/206/69 105/207/69
f 106/208/70 105/209/70 101/210/70
f 107/211/71 101/212/71 103/213/71
f 103/214/72 108/215/72 102/216/72
f 109/217/73 110/218/73 111/219/73
f 112/220/74 113/221/74 114/222/74
f 113/223/75 108/224/75 104/225/75
f 111/226/76 115/227/76 107/228/76
f 111/229/77 114/230/77 109/231/77
f 110/232/78 106/233/78 107/234/78
f 116/235/79 114/236/79 104/237/79
f 1/238/80 14/239/80 2/240/80
f 4/241/81 117/242/81 5/243/81
f 7/244/82 117/245/82 4/246/82
f 9/247/83 7/248/83 8/249/83
f 20/250/84 6/251/84 5/252/84
f 20/253/85 5/254/85 11/255/85
f 3/256/86 2/257/86 13/258/86
f 13/259/87 20/260/87 11/261/87
f 12/262/88 3/263/88 13/264/88
f 7/265/89 9/266/89 1/267/89
f 1/268/90 3/269/90 12/270/90
f 11/271/91 5/272/91 117/273/91
f 1/274/92 12/275/92 11/276/92
f 11/277/93 117/278/93 7/279/93
f 1/280/94 9/281/94 10/282/94
f 15/283/95 18/284/95 19/285/95
f 15/286/96 19/287/96 21/288/96
f 17/289/97 23/290/97 15/291/97
f 16/292/98 22/293/98 17/294/98
f 15/295/99 21/296/99 16/297/99
f 8/298/100 4/299/100 18/300/100
f 4/301/101 6/302/101 19/303/101
f 20/304/102 21/305/102 19/306/102
f 13/307/103 16/308/103 21/309/103
f 13/310/104 2/311/104 22/312/104
f 14/313/105 17/314/105 22/315/105
f 10/316/106 23/317/106 17/318/106
f 8/319/107 15/320/107 23/321/107
f 24/322/108 27/323/108 25/324/108
f 27/325/109 29/326/109 28/327/109
f 29/328/110 45/329/110 30/330/110
f 31/331/111 44/332/111 32/333/111
f 32/334/112 35/335/112 34/336/112
f 35/337/113 46/338/113 36/339/113
f 37/340/114 40/341/114 38/342/114
f 40/343/115 42/344/115 41/345/115
f 42/346/116 47/347/116 43/348/116
f 37/349/117 26/350/117 25/351/117
f 25/352/118 28/353/118 30/354/118
f 30/355/119 46/356/119 35/357/119
f 35/358/120 32/359/120 44/360/120
f 44/361/121 47/362/121 42/363/121
f 42/364/122 40/365/122 37/366/122
f 37/367/123 25/368/123 30/369/123
f 30/370/124 35/371/124 44/372/124
f 44/373/125 42/374/125 37/375/125
f 45/376/126 36/377/126 46/378/126
f 39/379/127 24/380/127 26/381/127
f 43/382/128 31/383/128 33/384/128
f 33/385/129 34/386/129 36/387/129
f 36/388/130 45/389/130 29/390/130
f 29/391/131 27/392/131 24/393/131
f 24/394/132 39/395/132 38/396/132
f 38/397/133 41/398/133 43/399/133
f 43/400/134 33/401/134 36/402/134
f 36/403/135 29/404/135 24/405/135
f 24/406/136 38/407/136 43/408/136
f 31/409/137 43/410/137 47/411/137
f 48/412/138 64/413/138 49/414/138
f 51/415/139 118/416/139 52/417/139
f 54/418/140 118/419/140 51/420/140
f 56/421/141 62/422/141 57/423/141
f 70/424/142 53/425/142 52/426/142
f 70/427/143 52/428/143 63/429/143
f 71/430/144 70/431/144 63/432/144
f 71/433/145 63/434/145 59/435/145
f 50/436/146 49/437/146 61/438/146
f 61/439/147 71/440/147 59/441/147
f 60/442/148 50/443/148 61/444/148
f 62/445/149 54/446/149 55/447/149
f 62/448/150 56/449/150 48/450/150
f 48/451/151 50/452/151 60/453/151
f 48/454/152 60/455/152 59/456/152
f 54/457/153 62/458/153 48/459/153
f 52/460/154 118/461/154 54/462/154
f 48/463/155 59/464/155 63/465/155
f 63/466/156 52/467/156 54/468/156
f 48/469/157 56/470/157 58/471/157
f 76/472/158 68/473/158 65/474/158
f 65/475/159 69/476/159 72/477/159
f 65/478/160 72/479/160 73/480/160
f 67/481/161 76/482/161 65/483/161
f 74/484/162 75/485/162 67/486/162
f 65/487/163 73/488/163 66/489/163
f 66/490/164 74/491/164 67/492/164
f 55/493/165 51/494/165 65/495/165
f 51/496/166 53/497/166 69/498/166
f 70/499/167 72/500/167 69/501/167
f 71/502/168 73/503/168 72/504/168
f 61/505/169 66/506/169 73/507/169
f 61/508/170 49/509/170 74/510/170
f 64/511/171 75/512/171 74/513/171
f 58/514/172 67/515/172 75/516/172
f 57/517/173 76/518/173 67/519/173
f 57/520/174 55/521/174 68/522/174
f 77/523/175 80/524/175 78/525/175
f 80/526/176 82/527/176 81/528/176
f 82/529/177 84/530/177 83/531/177
f 84/532/178 77/533/178 79/534/178
f 81/535/179 83/536/179 79/537/179
f 80/538/180 77/539/180 84/540/180
f 85/541/181 89/542/181 86/543/181
f 88/544/182 92/545/182 86/546/182
f 90/547/183 88/548/183 89/549/183
f 91/550/184 90/551/184 85/552/184
f 91/553/185 92/554/185 87/555/185
f 93/556/186 100/557/186 94/558/186
f 96/559/187 99/560/187 97/561/187
f 97/562/188 99/563/188 92/564/188
f 92/565/189 91/566/189 99/567/189
f 96/568/190 99/569/190 95/570/190
f 94/571/191 95/572/191 91/573/191
f 95/574/192 96/575/192 98/576/192
f 94/577/193 100/578/193 90/579/193
f 88/580/194 90/581/194 100/582/194
f 100/583/195 93/584/195 98/585/195
f 98/586/196 97/587/196 88/588/196
f 101/589/197 105/590/197 102/591/197
f 104/592/198 108/593/198 102/594/198
f 106/595/199 104/596/199 105/597/199
f 107/598/200 106/599/200 101/600/200
f 107/601/201 108/602/201 103/603/201
f 109/604/202 116/605/202 110/606/202
f 112/607/203 115/608/203 113/609/203
f 113/610/204 115/611/204 108/612/204
f 108/613/205 107/614/205 115/615/205
f 112/616/206 115/617/206 111/618/206
f 110/619/207 111/620/207 107/621/207
f 111/622/208 112/623/208 114/624/208
f 110/625/209 116/626/209 106/627/209
f 104/628/210 106/629/210 116/630/210
f 116/631/211 109/632/211 114/633/211
f 114/634/212 113/635/212 104/636/212